<svg xmlns="http://www.w3.org/2000/svg" xmlns:xlink="http://www.w3.org/1999/xlink" width="77" height="77" viewBox="0 0 77 77">
  <defs>
    <filter id="Elipse_7698" x="0" y="0" width="77" height="77" filterUnits="userSpaceOnUse">
      <feOffset dy="3" input="SourceAlpha"/>
      <feGaussianBlur stdDeviation="3" result="blur"/>
      <feFlood flood-opacity="0.161"/>
      <feComposite operator="in" in2="blur"/>
      <feComposite in="SourceGraphic"/>
    </filter>
  </defs>
  <g id="Grupo_1023221" data-name="Grupo 1023221" transform="translate(-348 -1700.254)">
    <g transform="matrix(1, 0, 0, 1, 348, 1700.25)" filter="url(#Elipse_7698)">
      <circle id="Elipse_7698-2" data-name="Elipse 7698" cx="29.5" cy="29.5" r="29.5" transform="translate(9 6)" fill="#0ce6ea"/>
    </g>
    <g id="_9-productivity" data-name="9-productivity" transform="translate(359.53 1710.908)">
      <path id="Trazado_715921" data-name="Trazado 715921" d="M53.668,21.223a.84.84,0,0,0-.809-.188L39.414,25.006a.843.843,0,0,0-.357,1.4l2.25,2.25L29.5,40.47l-7.134-7.135a4.226,4.226,0,0,0-5.982.023L.225,50.768a.843.843,0,1,0,1.235,1.147L17.6,34.527a2.532,2.532,0,0,1,3.576,0l7.73,7.73a.868.868,0,0,0,1.192,0l13-13a.843.843,0,0,0,0-1.192l-1.844-1.844,10.736-3.172L49.6,34.574l-1.741-1.741a.843.843,0,0,0-1.192,0L31.287,48.217a2.532,2.532,0,0,1-3.576,0l-7.73-7.73a.842.842,0,0,0-1.228.039L5.267,55.842a.843.843,0,1,0,1.265,1.114L19.424,42.314l7.095,7.1a4.221,4.221,0,0,0,5.96,0L47.267,34.62l2.25,2.25a.843.843,0,0,0,1.421-.425l2.984-14.432a.844.844,0,0,0-.255-.791Z" transform="translate(0 -3.301)" fill="#12263f"/>
      <path id="Trazado_715922" data-name="Trazado 715922" d="M16.843,56a.843.843,0,0,0-.843.843V61.9a.843.843,0,1,0,1.686,0V56.843A.843.843,0,0,0,16.843,56Z" transform="translate(-2.515 -8.802)" fill="#12263f"/>
      <path id="Trazado_715923" data-name="Trazado 715923" d="M4.843,46.328a.843.843,0,0,0,.843-.843v-11.8h8.428v.843a.843.843,0,0,0,1.686,0V32.843A.843.843,0,0,0,14.957,32H4.843A.843.843,0,0,0,4,32.843V45.485A.843.843,0,0,0,4.843,46.328Z" transform="translate(-0.629 -5.03)" fill="#12263f"/>
      <path id="Trazado_715924" data-name="Trazado 715924" d="M46.843,48a.843.843,0,0,0-.843.843v11.8a.843.843,0,1,0,1.686,0v-11.8A.843.843,0,0,0,46.843,48Z" transform="translate(-7.23 -7.545)" fill="#12263f"/>
      <path id="Trazado_715925" data-name="Trazado 715925" d="M46.843,20.228a.843.843,0,0,0,.843-.843V1.686h8.428V16.014a.843.843,0,0,0,1.686,0V.843A.843.843,0,0,0,56.957,0H46.843A.843.843,0,0,0,46,.843V19.385A.843.843,0,0,0,46.843,20.228Z" transform="translate(-7.23)" fill="#12263f"/>
      <path id="Trazado_715926" data-name="Trazado 715926" d="M58.843,42a.843.843,0,0,0-.843.843V59.7a.843.843,0,0,0,1.686,0V42.843A.843.843,0,0,0,58.843,42Z" transform="translate(-9.117 -6.602)" fill="#12263f"/>
      <path id="Trazado_715927" data-name="Trazado 715927" d="M37.843,57a.843.843,0,0,0-.843.843v4.214a.843.843,0,1,0,1.686,0V57.843A.843.843,0,0,0,37.843,57Z" transform="translate(-5.816 -8.959)" fill="#12263f"/>
      <path id="Trazado_715928" data-name="Trazado 715928" d="M25.843,30.957a.843.843,0,0,0,.843-.843V21.686h8.428V35.171a.843.843,0,0,0,1.686,0V20.843A.843.843,0,0,0,35.957,20H25.843a.843.843,0,0,0-.843.843v9.271A.843.843,0,0,0,25.843,30.957Z" transform="translate(-3.93 -3.144)" fill="#12263f"/>
      <path id="Trazado_715929" data-name="Trazado 715929" d="M25.843,51a.843.843,0,0,0-.843.843v9.271a.843.843,0,1,0,1.686,0V51.843A.843.843,0,0,0,25.843,51Z" transform="translate(-3.93 -8.016)" fill="#12263f"/>
    </g>
  </g>
</svg>
