<svg xmlns="http://www.w3.org/2000/svg" width="137" height="136" viewBox="0 0 137 136">
  <g id="Grupo_1023221" data-name="Grupo 1023221" transform="translate(2450.273 10468)">
    <g id="Grupo_1013840" data-name="Grupo 1013840" transform="translate(-3418.273 -11726)">
      <g id="Grupo_958245" data-name="Grupo 958245">
        <rect id="Rect치ngulo_340365" data-name="Rect치ngulo 340365" width="137" height="136" rx="12" transform="translate(968 1258)" fill="#12263f"/>
      </g>
    </g>
    <g id="Grupo_1014093" data-name="Grupo 1014093" transform="translate(-3575 -12115)">
      <path id="Trazado_733047" data-name="Trazado 733047" d="M413.891,270.7,376.6,248.321l67.334-40.541,39.88,23.95L417.94,273.08Z" transform="translate(766.497 1498.247)" fill="#3d556b"/>
      <g id="Grupo_1013847" data-name="Grupo 1013847" transform="translate(0 -4.012)">
        <g id="Grupo_1008307" data-name="Grupo 1008307" transform="translate(1140 1660.686)">
          <path id="Trazado_716840" data-name="Trazado 716840" d="M354.867,173.634l-37.5,21.656-9.682-5.584,37.5-21.656Z" transform="translate(-307.69 -121.544)" opacity="0.3"/>
          <g id="Grupo_1008284" data-name="Grupo 1008284" transform="translate(0 65.551)">
            <path id="Trazado_716841" data-name="Trazado 716841" d="M340.89,193.86l2.251-1.306V191.27l-2.251,1.306Z" transform="translate(-331.208 -185.665)" fill="#bcbec0"/>
            <path id="Trazado_716842" data-name="Trazado 716842" d="M343.01,188.526l9.682,5.584v-1.285l-9.682-5.605Z" transform="translate(-343.01 -185.914)" fill="#a7a9ac"/>
            <path id="Trazado_716843" data-name="Trazado 716843" d="M340.89,187.3l9.682,5.605,2.251-1.306-9.682-5.605Z" transform="translate(-340.89 -185.99)" fill="#d1d3d4"/>
          </g>
          <g id="Grupo_1008285" data-name="Grupo 1008285" transform="translate(35.234 45.2)">
            <path id="Trazado_716844" data-name="Trazado 716844" d="M307.69,174.691l2.251-1.306v-1.3L307.69,173.4Z" transform="translate(-297.998 -166.495)" fill="#bcbec0"/>
            <path id="Trazado_716845" data-name="Trazado 716845" d="M309.81,169.346l9.692,5.595v-1.3l-9.692-5.605Z" transform="translate(-309.81 -166.745)" fill="#a7a9ac"/>
            <path id="Trazado_716846" data-name="Trazado 716846" d="M307.69,168.115l9.692,5.605,2.251-1.306-9.682-5.595Z" transform="translate(-307.69 -166.82)" fill="#d1d3d4"/>
          </g>
          <g id="Grupo_1008286" data-name="Grupo 1008286" transform="translate(40.244 2.407)">
            <path id="Trazado_716847" data-name="Trazado 716847" d="M312.846,127.33a1.307,1.307,0,0,0,1.221,0,.442.442,0,0,0,.255-.329v45.691h0a.438.438,0,0,1-.255.361,1.372,1.372,0,0,1-1.221,0,.423.423,0,0,1-.255-.372V126.99a.424.424,0,0,0,.255.35Z" transform="translate(-312.59 -126.48)" fill="#a7a9ac"/>
            <path id="Trazado_716848" data-name="Trazado 716848" d="M314.076,126.659a1.276,1.276,0,0,0-.605-.149l-.234.021a1.14,1.14,0,0,0-.393.127c-.34.2-.34.51,0,.7a1.307,1.307,0,0,0,1.221,0,.368.368,0,0,0,0-.7Z" transform="translate(-312.589 -126.51)" fill="#d1d3d4"/>
          </g>
          <g id="Grupo_1008287" data-name="Grupo 1008287" transform="translate(31.742 5.709)">
            <path id="Trazado_716849" data-name="Trazado 716849" d="M310.732,130.554l-.223-.2.212-.117h0a.107.107,0,0,1,.032-.011l4.989.1.138-.573.212-.127.51.3.35,1.083,5.011,5.69a.4.4,0,0,1,.053.17.039.039,0,0,1-.011.032h0a.033.033,0,0,0-.021.011l-.2.117-9.108-5.319-1.932-1.093v-.053Zm10.372,5.626-4.427-5.043-.733-.563-4.682-.085Z" transform="translate(-309.575 -129.62)" fill="#414042"/>
            <path id="Trazado_716850" data-name="Trazado 716850" d="M310.752,130.335l4.989.085.35-.69.51.287.35,1.093,5.011,5.69s.064.117.053.159-.053.064-.106.032l-11.1-6.412a.376.376,0,0,1-.106-.149c0-.064.011-.106.064-.106Zm10.7,6.168-4.682-5.319-.849-.488-4.682-.085Z" transform="translate(-309.775 -129.613)"/>
            <path id="Trazado_716851" data-name="Trazado 716851" d="M313.216,141.6v-1.911l-1.582-9.682,1.932.042a6.4,6.4,0,0,0,2.686,5.425c2.972,1.348,2.7-2.314,2.7-2.314l1.932,2.187-1.592,7.845v1.911s3.737,18.79,3.726,19.194a49.058,49.058,0,0,1-13.525-7.813l3.726-14.894Z" transform="translate(-309.49 -129.596)" fill="#ff8400"/>
            <path id="Trazado_716852" data-name="Trazado 716852" d="M319.072,142.633a51.413,51.413,0,0,1-6.072-3.5C314.783,141.211,319.072,142.633,319.072,142.633Z" transform="translate(-309.274 -129.034)" fill="#ba6000"/>
            <path id="Trazado_716853" data-name="Trazado 716853" d="M319.072,144.433a51.419,51.419,0,0,1-6.072-3.5C314.783,143.011,319.072,144.433,319.072,144.433Z" transform="translate(-309.274 -128.923)" fill="#ba6000"/>
          </g>
          <g id="Grupo_1008288" data-name="Grupo 1008288" transform="translate(27.517 8.161)">
            <path id="Trazado_716854" data-name="Trazado 716854" d="M314.732,132.875l-.223-.2.212-.117h0a.106.106,0,0,1,.032-.011l4.99.085.138-.573.223-.127.51.3.34,1.083,5.011,5.7s.064.117.053.159c0,.011-.011.021-.021.032h0a.037.037,0,0,0-.011.021l-.2.106-9.108-5.319-1.921-1.083v-.053Zm10.361,5.616-4.427-5.032-.732-.573-4.682-.085,9.841,5.68Z" transform="translate(-313.596 -131.93)" fill="#414042"/>
            <path id="Trazado_716855" data-name="Trazado 716855" d="M314.786,132.655l4.99.1.35-.7.51.287.35,1.083,5,5.69s.064.117.053.159-.053.064-.106.032l-11.1-6.412a.485.485,0,0,1-.106-.149c-.011-.064,0-.106.053-.106Zm10.7,6.168-4.682-5.329-.849-.488-4.682-.085,10.212,5.892Z" transform="translate(-313.842 -131.923)"/>
            <path id="Trazado_716856" data-name="Trazado 716856" d="M317.175,143.923v-1.911l-1.582-9.682,1.932.042a6.389,6.389,0,0,0,2.7,5.425c2.962,1.348,2.7-2.314,2.7-2.314l1.932,2.187-1.582,7.845v1.911s3.737,18.79,3.726,19.193a49.06,49.06,0,0,1-13.525-7.813l3.726-14.894Z" transform="translate(-313.47 -131.905)" fill="#24d2c1"/>
            <path id="Trazado_716857" data-name="Trazado 716857" d="M323.072,144.963a51.419,51.419,0,0,1-6.072-3.5C318.783,143.541,323.072,144.963,323.072,144.963Z" transform="translate(-313.295 -131.343)" fill="#0a8074"/>
            <path id="Trazado_716858" data-name="Trazado 716858" d="M323.072,146.764A52.449,52.449,0,0,1,317,143.25C318.783,145.331,323.072,146.764,323.072,146.764Z" transform="translate(-313.295 -131.233)" fill="#0a8074"/>
          </g>
          <g id="Grupo_1008289" data-name="Grupo 1008289" transform="translate(23.716 10.338)">
            <path id="Trazado_716859" data-name="Trazado 716859" d="M318.292,134.925l-.223-.2.212-.117h0s.021-.021.032-.021l4.989.1.138-.573.212-.127.51.3.35,1.083,5.011,5.69a.4.4,0,0,1,.053.17c0,.011-.011.021-.021.032h-.021l-.191.127-9.108-5.319-1.932-1.093v-.053Zm10.372,5.626-4.427-5.032-.733-.563-4.682-.085,9.852,5.68Z" transform="translate(-317.135 -133.98)" fill="#414042"/>
            <path id="Trazado_716860" data-name="Trazado 716860" d="M318.325,134.705l4.99.1.35-.7.51.3.35,1.083,5.011,5.69a.4.4,0,0,1,.053.17c-.011.042-.053.064-.106.032l-11.1-6.412a.528.528,0,0,1-.106-.149C318.261,134.748,318.282,134.705,318.325,134.705Zm10.7,6.168-4.682-5.319-.849-.488-4.682-.085Z" transform="translate(-317.359 -133.973)"/>
            <path id="Trazado_716861" data-name="Trazado 716861" d="M320.776,145.973v-1.911l-1.582-9.682,1.932.042a6.389,6.389,0,0,0,2.7,5.425c2.962,1.348,2.686-2.314,2.686-2.314l1.932,2.187-1.592,7.845v1.911s3.737,18.79,3.726,19.194a49.059,49.059,0,0,1-13.525-7.813l3.726-14.894Z" transform="translate(-317.05 -133.955)" fill="#e31b25"/>
            <path id="Trazado_716862" data-name="Trazado 716862" d="M326.632,147a51.416,51.416,0,0,1-6.072-3.5C322.344,145.581,326.632,147,326.632,147Z" transform="translate(-316.834 -133.394)" fill="#9c251f"/>
            <path id="Trazado_716863" data-name="Trazado 716863" d="M326.632,148.814a50.664,50.664,0,0,1-6.072-3.514C322.344,147.381,326.632,148.814,326.632,148.814Z" transform="translate(-316.834 -133.283)" fill="#9c251f"/>
          </g>
          <g id="Grupo_1008290" data-name="Grupo 1008290" transform="translate(20.51 12.206)">
            <path id="Trazado_716864" data-name="Trazado 716864" d="M321.3,136.674l-.223-.2.212-.117h0a.11.11,0,0,1,.043-.011l4.99.1.138-.573.212-.127.51.3.35,1.083,5.011,5.69a.4.4,0,0,1,.053.17c0,.011,0,.021-.021.032h0a.033.033,0,0,1-.011.021l-.2.117-9.119-5.319-1.932-1.093v-.053Zm10.372,5.626-4.427-5.032-.732-.563-4.682-.085,9.852,5.69Z" transform="translate(-320.145 -135.74)" fill="#414042"/>
            <path id="Trazado_716865" data-name="Trazado 716865" d="M321.363,136.465l4.99.085.35-.69.5.287.35,1.083,5,5.69a.4.4,0,0,1,.053.17c-.011.042-.053.064-.106.032l-11.1-6.412s-.1-.085-.1-.149.011-.106.053-.106Zm10.7,6.168-4.682-5.319-.849-.488-4.682-.085,10.2,5.892Z" transform="translate(-320.386 -135.733)"/>
            <path id="Trazado_716866" data-name="Trazado 716866" d="M323.8,147.733v-1.911L322.2,136.14l1.932.042a6.388,6.388,0,0,0,2.686,5.425c2.962,1.348,2.7-2.314,2.7-2.314l1.932,2.187-1.592,7.845v1.911s3.737,18.79,3.737,19.194a48.845,48.845,0,0,1-13.525-7.813l3.726-14.894Z" transform="translate(-320.07 -135.715)" fill="#1d374e"/>
            <path id="Trazado_716867" data-name="Trazado 716867" d="M329.652,148.764a52.441,52.441,0,0,1-6.072-3.514C325.363,147.331,329.652,148.764,329.652,148.764Z" transform="translate(-319.854 -135.154)" fill="#0f2034"/>
            <path id="Trazado_716868" data-name="Trazado 716868" d="M329.652,150.564a52.445,52.445,0,0,1-6.072-3.514C325.363,149.131,329.652,150.564,329.652,150.564Z" transform="translate(-319.854 -135.043)" fill="#0f2034"/>
          </g>
          <g id="Grupo_1008291" data-name="Grupo 1008291" transform="translate(16.943 14.276)">
            <path id="Trazado_716869" data-name="Trazado 716869" d="M324.672,138.624l-.223-.2.212-.117h0a.107.107,0,0,1,.032-.011l4.99.1.127-.573.212-.127.51.3.35,1.083,5.011,5.69a.4.4,0,0,1,.053.17c0,.011-.011.021-.021.032h0l-.021.011-.191.117-9.108-5.308-1.921-1.093v-.053Zm10.372,5.626-4.427-5.032-.743-.573-4.682-.085,9.852,5.69Z" transform="translate(-323.504 -137.69)" fill="#414042"/>
            <path id="Trazado_716870" data-name="Trazado 716870" d="M324.692,138.4l4.989.1.35-.69.51.287.35,1.083,5.011,5.69s.064.117.053.159-.053.064-.106.042l-11.1-6.412a.528.528,0,0,1-.106-.149C324.639,138.458,324.65,138.4,324.692,138.4Zm10.7,6.168-4.682-5.329-.849-.488-4.682-.085,10.213,5.892Z" transform="translate(-323.715 -137.683)"/>
            <path id="Trazado_716871" data-name="Trazado 716871" d="M327.167,149.683v-1.911l-1.592-9.682,1.932.042a6.366,6.366,0,0,0,2.7,5.414c2.962,1.359,2.686-2.314,2.686-2.314l1.932,2.187-1.592,7.845v1.911s3.737,18.79,3.726,19.194a49,49,0,0,1-13.525-7.8l3.726-14.894Z" transform="translate(-323.43 -137.665)" fill="#ff8400"/>
            <path id="Trazado_716872" data-name="Trazado 716872" d="M333,150.713a51.417,51.417,0,0,1-6.072-3.5C328.713,149.291,333,150.713,333,150.713Z" transform="translate(-323.193 -137.104)" fill="#ba6000"/>
            <path id="Trazado_716873" data-name="Trazado 716873" d="M333,152.513a51.415,51.415,0,0,1-6.072-3.5C328.713,151.091,333,152.513,333,152.513Z" transform="translate(-323.193 -136.993)" fill="#ba6000"/>
          </g>
          <g id="Grupo_1008292" data-name="Grupo 1008292" transform="translate(13.217 16.41)">
            <path id="Trazado_716874" data-name="Trazado 716874" d="M328.172,140.634l-.223-.2.212-.117h0s.021-.021.032-.021l4.99.1.138-.563.212-.127.51.287.35,1.083,5.011,5.7s.064.117.053.159c0,.021,0,.032-.011.042h0l-.011.011-.2.117-9.119-5.319-1.922-1.093v-.053Zm10.372,5.626-4.427-5.032-.733-.563-4.682-.085,9.852,5.69Z" transform="translate(-327.004 -139.7)" fill="#414042"/>
            <path id="Trazado_716875" data-name="Trazado 716875" d="M328.212,140.415l4.99.1.35-.69.51.3.35,1.093,5,5.69a.4.4,0,0,1,.053.17c0,.042-.053.064-.1.032l-11.1-6.412a.442.442,0,0,1-.106-.159c0-.064.021-.106.053-.106Zm10.7,6.168-4.682-5.329-.849-.478-4.682-.085,10.2,5.892Z" transform="translate(-327.235 -139.693)"/>
            <path id="Trazado_716876" data-name="Trazado 716876" d="M330.677,151.683v-1.911l-1.592-9.682,1.932.042a6.38,6.38,0,0,0,2.7,5.425c2.972,1.348,2.686-2.314,2.686-2.314l1.932,2.187-1.592,7.845V155.2s3.737,18.79,3.726,19.193a48.845,48.845,0,0,1-13.525-7.813l3.726-14.894Z" transform="translate(-326.94 -139.676)" fill="#e31b25"/>
            <path id="Trazado_716877" data-name="Trazado 716877" d="M336.512,152.713a50.829,50.829,0,0,1-6.062-3.5C332.233,151.291,336.512,152.713,336.512,152.713Z" transform="translate(-326.713 -139.114)" fill="#9c251f"/>
            <path id="Trazado_716878" data-name="Trazado 716878" d="M336.512,154.524a51.839,51.839,0,0,1-6.062-3.514C332.233,153.091,336.512,154.524,336.512,154.524Z" transform="translate(-326.713 -139.003)" fill="#9c251f"/>
          </g>
          <g id="Grupo_1008293" data-name="Grupo 1008293" transform="translate(9.692 18.416)">
            <path id="Trazado_716879" data-name="Trazado 716879" d="M331.522,142.545l-.223-.2.212-.117h0s.021-.021.032-.021l4.99.085.138-.573.223-.127.5.3.34,1.083,5.011,5.69s.064.117.053.159c0,.021-.011.021-.021.032h0a.033.033,0,0,1-.011.021l-.2.106-9.119-5.308-1.921-1.093v-.053Zm10.372,5.626-4.427-5.032-.733-.573-4.682-.085,9.852,5.68Z" transform="translate(-330.375 -141.59)" fill="#414042"/>
            <path id="Trazado_716880" data-name="Trazado 716880" d="M331.553,142.325l4.989.1.35-.69.51.3.35,1.083,5,5.69a.4.4,0,0,1,.053.17c0,.042-.043.064-.1.032L331.6,142.59a.53.53,0,0,1-.106-.149c0-.053.011-.106.053-.106Zm10.7,6.168-4.682-5.319-.849-.488-4.671-.085Z" transform="translate(-330.587 -141.581)"/>
            <path id="Trazado_716881" data-name="Trazado 716881" d="M333.975,153.6v-1.911l-1.582-9.682,1.932.042a6.389,6.389,0,0,0,2.7,5.425c2.972,1.348,2.7-2.3,2.7-2.3l1.932,2.187-1.592,7.845v1.911s3.737,18.79,3.726,19.193a49,49,0,0,1-13.525-7.8l3.726-14.894Z" transform="translate(-330.26 -141.564)" fill="#1d374e"/>
            <path id="Trazado_716882" data-name="Trazado 716882" d="M339.842,154.633a51.409,51.409,0,0,1-6.072-3.5C335.553,153.211,339.842,154.633,339.842,154.633Z" transform="translate(-330.044 -141.002)" fill="#0f2034"/>
            <path id="Trazado_716883" data-name="Trazado 716883" d="M339.842,156.433a51.412,51.412,0,0,1-6.072-3.5C335.553,155.011,339.842,156.433,339.842,156.433Z" transform="translate(-330.044 -140.892)" fill="#0f2034"/>
          </g>
          <g id="Grupo_1008294" data-name="Grupo 1008294" transform="translate(6.115 20.497)">
            <path id="Trazado_716884" data-name="Trazado 716884" d="M334.841,144.495l-.212-.2.212-.117h0a.074.074,0,0,1,.043-.021l4.989.085.138-.563.212-.127.51.287.35,1.083,5,5.69a.4.4,0,0,1,.053.17c0,.011,0,.021-.021.032h-.021l-.191.117-9.108-5.319-1.932-1.093v-.053Zm10.372,5.626-4.416-5.032-.733-.563-4.682-.085,9.841,5.69Z" transform="translate(-333.673 -143.55)" fill="#414042"/>
            <path id="Trazado_716885" data-name="Trazado 716885" d="M334.9,144.274l4.989.1.35-.69.51.287.34,1.093,5.011,5.69a.4.4,0,0,1,.053.17.057.057,0,0,1-.1.032l-11.115-6.423a.508.508,0,0,1-.1-.149c0-.053.011-.1.053-.1Zm10.7,6.168-4.682-5.319-.849-.488-4.682-.085Z" transform="translate(-333.925 -143.542)"/>
            <path id="Trazado_716886" data-name="Trazado 716886" d="M337.367,155.542v-1.911l-1.592-9.671,1.932.042a6.389,6.389,0,0,0,2.7,5.425c2.972,1.348,2.686-2.314,2.686-2.314l1.932,2.187-1.592,7.845v1.921s3.737,18.78,3.726,19.2a48.845,48.845,0,0,1-13.525-7.813l3.726-14.894Z" transform="translate(-333.63 -143.525)" fill="#ff8400"/>
            <path id="Trazado_716887" data-name="Trazado 716887" d="M343.2,156.573a51.409,51.409,0,0,1-6.072-3.5C338.914,155.151,343.2,156.573,343.2,156.573Z" transform="translate(-333.393 -142.964)" fill="#ba6000"/>
            <path id="Trazado_716888" data-name="Trazado 716888" d="M343.2,158.384a50.664,50.664,0,0,1-6.072-3.514C338.914,156.951,343.2,158.384,343.2,158.384Z" transform="translate(-333.393 -142.853)" fill="#ba6000"/>
          </g>
          <g id="Grupo_1008295" data-name="Grupo 1008295" transform="translate(2.399 22.631)">
            <path id="Trazado_716889" data-name="Trazado 716889" d="M338.389,146.5l-.223-.2.212-.117h0a.107.107,0,0,1,.032-.011l4.99.085.127-.573.212-.127.51.3.35,1.083,5,5.69s.074.117.053.17c0,.011-.011.021-.021.032h0l-.011.011-.2.117-9.108-5.319-1.921-1.093v-.053Zm10.372,5.626-4.427-5.032-.743-.573-4.682-.085Z" transform="translate(-337.232 -145.56)" fill="#414042"/>
            <path id="Trazado_716890" data-name="Trazado 716890" d="M338.423,146.285l4.989.1.35-.7.5.3.35,1.083,5.011,5.69a.4.4,0,0,1,.053.17c0,.053-.053.064-.1.032l-11.115-6.412a.529.529,0,0,1-.106-.149c0-.064.011-.106.053-.106Zm10.7,6.168-4.682-5.319-.849-.488-4.682-.085Z" transform="translate(-337.457 -145.553)"/>
            <path id="Trazado_716891" data-name="Trazado 716891" d="M340.856,157.552v-1.911l-1.582-9.671,1.932.042a6.389,6.389,0,0,0,2.7,5.425c2.962,1.348,2.686-2.314,2.686-2.314l1.932,2.187-1.592,7.845v1.911s3.737,18.79,3.726,19.194a49.06,49.06,0,0,1-13.525-7.813l3.726-14.894Z" transform="translate(-337.13 -145.535)" fill="#24d2c1"/>
            <path id="Trazado_716892" data-name="Trazado 716892" d="M346.712,158.583a53.251,53.251,0,0,1-6.072-3.5C342.424,157.161,346.712,158.583,346.712,158.583Z" transform="translate(-336.914 -144.974)" fill="#0a8074"/>
            <path id="Trazado_716893" data-name="Trazado 716893" d="M346.712,160.393a53.249,53.249,0,0,1-6.072-3.5C342.424,158.971,346.712,160.393,346.712,160.393Z" transform="translate(-336.914 -144.862)" fill="#0a8074"/>
          </g>
          <g id="Grupo_1008296" data-name="Grupo 1008296" transform="translate(5.095 22.716)">
            <path id="Trazado_716894" data-name="Trazado 716894" d="M345.956,146.46a1.371,1.371,0,0,0,1.221,0,.442.442,0,0,0,.255-.329v45.7h0a.424.424,0,0,1-.255.35,1.372,1.372,0,0,1-1.221,0,.423.423,0,0,1-.255-.372V146.12a.424.424,0,0,0,.255.35Z" transform="translate(-345.7 -145.61)" fill="#a7a9ac"/>
            <path id="Trazado_716895" data-name="Trazado 716895" d="M347.186,145.778a1.271,1.271,0,0,0-.605-.138h-.234a1.43,1.43,0,0,0-.393.138c-.34.191-.34.51,0,.711a1.372,1.372,0,0,0,1.221,0,.368.368,0,0,0,0-.7Z" transform="translate(-345.699 -145.64)" fill="#d1d3d4"/>
          </g>
          <g id="Grupo_1008297" data-name="Grupo 1008297" transform="translate(0.966 0)">
            <path id="Trazado_716896" data-name="Trazado 716896" d="M310.74,150.132a1.345,1.345,0,0,0-.616-1.062.4.4,0,0,0-.414-.042l42.825-24.746h0a.44.44,0,0,1,.435.042,1.345,1.345,0,0,1,.616,1.062.418.418,0,0,1-.191.4l-42.559,24.586-.255.149a.422.422,0,0,0,.17-.393Z" transform="translate(-309.519 -124.242)" fill="#a7a9ac"/>
            <path id="Trazado_716897" data-name="Trazado 716897" d="M350.06,147.985a1.238,1.238,0,0,0,.18.605l.127.191a1.228,1.228,0,0,0,.308.276c.34.191.616.032.616-.361a1.345,1.345,0,0,0-.616-1.062C350.336,147.444,350.06,147.6,350.06,147.985Z" transform="translate(-350.06 -122.806)" fill="#d1d3d4"/>
          </g>
          <g id="Grupo_1008298" data-name="Grupo 1008298" transform="translate(37.326 2.898)">
            <path id="Trazado_716898" data-name="Trazado 716898" d="M315.2,127.193v-.074l.212-.117a.751.751,0,0,1,.594.106,1.808,1.808,0,0,1,.69.69,2.1,2.1,0,0,1,.3,1.083c0,.7-.478.743-.807.658v.51l-.138.074-.255-.648.425-.255c.212.021.51-.011.51-.5a1.588,1.588,0,0,0-.212-.817,1.52,1.52,0,0,0-.52-.51s-.265-.17-.456-.074a.5.5,0,0,0-.212.393l-.265.159a.794.794,0,0,1,.127-.69Z" transform="translate(-314.935 -126.972)" fill="#bcbec0"/>
            <path id="Trazado_716899" data-name="Trazado 716899" d="M316.02,129.959l.255.149v-.51c.329.085.807.042.807-.648a2.09,2.09,0,0,0-.287-1.083,2.028,2.028,0,0,0-.69-.679s-.361-.244-.637-.106c-.2.106-.308.446-.308.881l.276-.159c.032-.212.1-.35.212-.4a.541.541,0,0,1,.456.074,1.262,1.262,0,0,1,.52.5,1.616,1.616,0,0,1,.212.817c0,.488-.308.52-.51.5l-.3.17v.5Z" transform="translate(-315.16 -126.968)" fill="#808285"/>
          </g>
          <g id="Grupo_1008299" data-name="Grupo 1008299" transform="translate(33.069 5.361)">
            <path id="Trazado_716900" data-name="Trazado 716900" d="M319.221,129.513v-.074l.212-.117a.736.736,0,0,1,.594.106,1.789,1.789,0,0,1,.69.69,2.071,2.071,0,0,1,.3,1.083c0,.69-.478.733-.807.648v.51l-.138.074-.255-.648.435-.244c.2.021.51-.011.51-.5a1.492,1.492,0,0,0-.212-.817,1.649,1.649,0,0,0-.52-.51.569.569,0,0,0-.467-.074.5.5,0,0,0-.212.393l-.276.159a.819.819,0,0,1,.127-.7Z" transform="translate(-318.956 -129.292)" fill="#bcbec0"/>
            <path id="Trazado_716901" data-name="Trazado 716901" d="M320.031,132.279l.255.149v-.51c.329.085.807.042.807-.658a2,2,0,0,0-.3-1.083,1.733,1.733,0,0,0-.69-.679.751.751,0,0,0-.637-.1c-.212.1-.308.446-.308.881l.265-.159a.508.508,0,0,1,.212-.4c.191-.1.456.074.467.074a1.409,1.409,0,0,1,.52.51,1.588,1.588,0,0,1,.212.817c0,.488-.308.531-.51.5l-.3.17v.5Z" transform="translate(-319.16 -129.288)" fill="#808285"/>
          </g>
          <g id="Grupo_1008300" data-name="Grupo 1008300" transform="translate(29.289 7.526)">
            <path id="Trazado_716902" data-name="Trazado 716902" d="M322.75,131.563v-.085l.212-.117a.736.736,0,0,1,.594.106,1.788,1.788,0,0,1,.69.69,2.071,2.071,0,0,1,.3,1.083c0,.7-.478.743-.807.648v.51l-.127.074-.255-.648.435-.244c.2.032.51,0,.51-.5a1.492,1.492,0,0,0-.212-.817,1.542,1.542,0,0,0-.52-.51s-.265-.17-.457-.074c-.117.053-.181.191-.212.393l-.276.159a.794.794,0,0,1,.127-.69Z" transform="translate(-322.474 -131.332)" fill="#bcbec0"/>
            <path id="Trazado_716903" data-name="Trazado 716903" d="M323.591,134.34l.255.149v-.51c.329.085.807.042.807-.658a2.028,2.028,0,0,0-.3-1.083,1.912,1.912,0,0,0-.69-.679.73.73,0,0,0-.637-.106c-.2.106-.308.446-.308.881l.265-.159a.5.5,0,0,1,.212-.4.541.541,0,0,1,.456.074,1.428,1.428,0,0,1,.52.51,1.589,1.589,0,0,1,.212.817c0,.488-.308.531-.52.5l-.3.17v.5Z" transform="translate(-322.72 -131.327)" fill="#808285"/>
          </g>
          <g id="Grupo_1008301" data-name="Grupo 1008301" transform="translate(26.083 9.395)">
            <path id="Trazado_716904" data-name="Trazado 716904" d="M325.79,133.323v-.085l.212-.117a.751.751,0,0,1,.595.106,1.789,1.789,0,0,1,.69.69,2,2,0,0,1,.3,1.083c0,.69-.478.743-.807.658v.51l-.138.074-.255-.648.425-.255c.212.032.51-.011.51-.5a1.492,1.492,0,0,0-.212-.817,1.429,1.429,0,0,0-.52-.51s-.265-.17-.456-.074a.5.5,0,0,0-.212.393l-.276.159a.857.857,0,0,1,.127-.7Z" transform="translate(-325.514 -133.092)" fill="#bcbec0"/>
            <path id="Trazado_716905" data-name="Trazado 716905" d="M326.611,136.089l.255.149v-.51c.329.085.807.042.807-.648a2,2,0,0,0-.3-1.083,1.733,1.733,0,0,0-.69-.679.73.73,0,0,0-.637-.106c-.2.106-.308.446-.308.881l.265-.159a.527.527,0,0,1,.212-.4c.191-.1.457.074.457.074a1.429,1.429,0,0,1,.52.51,1.589,1.589,0,0,1,.212.817c0,.488-.308.52-.51.488l-.3.18v.5Z" transform="translate(-325.74 -133.087)" fill="#808285"/>
          </g>
          <g id="Grupo_1008302" data-name="Grupo 1008302" transform="translate(22.548 11.455)">
            <path id="Trazado_716906" data-name="Trazado 716906" d="M329.145,135.263v-.085l.212-.117a.784.784,0,0,1,.594.106,2,2,0,0,1,.69.69,2.1,2.1,0,0,1,.3,1.083c0,.69-.478.743-.807.658v.51l-.138.074-.265-.648.435-.244c.2.032.51-.011.51-.5a1.588,1.588,0,0,0-.212-.817,1.428,1.428,0,0,0-.52-.51s-.265-.18-.456-.074c-.117.053-.181.191-.212.393l-.276.159a.9.9,0,0,1,.127-.7Z" transform="translate(-328.901 -135.033)" fill="#bcbec0"/>
            <path id="Trazado_716907" data-name="Trazado 716907" d="M329.929,138.039l.265.149v-.51c.329.085.807.042.807-.648a2.028,2.028,0,0,0-.3-1.083,1.912,1.912,0,0,0-.69-.679s-.361-.234-.626-.1c-.212.1-.308.446-.308.881l.265-.159a.508.508,0,0,1,.212-.4c.191-.1.456.074.456.074a1.245,1.245,0,0,1,.52.51,1.583,1.583,0,0,1,.2.817c0,.488-.308.531-.51.5l-.3.17v.5Z" transform="translate(-329.08 -135.027)" fill="#808285"/>
          </g>
          <g id="Grupo_1008303" data-name="Grupo 1008303" transform="translate(18.801 13.588)">
            <path id="Trazado_716908" data-name="Trazado 716908" d="M332.64,137.273v-.085l.212-.117a.765.765,0,0,1,.595.106,1.733,1.733,0,0,1,.69.679,2.1,2.1,0,0,1,.3,1.083c0,.69-.478.743-.807.648v.52l-.138.074-.255-.648.435-.255c.2.032.51,0,.51-.5a1.588,1.588,0,0,0-.212-.817,1.353,1.353,0,0,0-.52-.5s-.265-.17-.457-.074a.508.508,0,0,0-.212.4l-.265.159a.794.794,0,0,1,.127-.69Z" transform="translate(-332.374 -137.042)" fill="#bcbec0"/>
            <path id="Trazado_716909" data-name="Trazado 716909" d="M333.47,140.049l.255.149v-.51c.329.085.807.042.807-.648a1.977,1.977,0,0,0-.3-1.083,1.807,1.807,0,0,0-.69-.679s-.361-.234-.626-.106c-.212.106-.318.435-.318.881l.276-.159a.48.48,0,0,1,.212-.4c.191-.1.456.074.456.074a1.331,1.331,0,0,1,.52.51,1.589,1.589,0,0,1,.212.817c0,.488-.308.52-.51.5l-.3.17v.5Z" transform="translate(-332.6 -137.036)" fill="#808285"/>
          </g>
          <g id="Grupo_1008304" data-name="Grupo 1008304" transform="translate(15.266 15.621)">
            <path id="Trazado_716910" data-name="Trazado 716910" d="M335.959,139.183V139.1l.212-.117a.817.817,0,0,1,.605.117,1.912,1.912,0,0,1,.69.679,2.128,2.128,0,0,1,.3,1.083c0,.7-.478.743-.807.658v.51l-.127.074-.255-.648.425-.244c.212.021.52-.011.51-.5a1.455,1.455,0,0,0-.212-.807,1.521,1.521,0,0,0-.52-.51.569.569,0,0,0-.467-.074.527.527,0,0,0-.212.4l-.276.159a.792.792,0,0,1,.138-.69Z" transform="translate(-335.683 -138.957)" fill="#bcbec0"/>
            <path id="Trazado_716911" data-name="Trazado 716911" d="M336.8,141.96l.255.149v-.51c.329.085.807.042.807-.658a2.028,2.028,0,0,0-.3-1.083,1.733,1.733,0,0,0-.69-.679s-.361-.244-.637-.1c-.2.1-.308.446-.308.881l.265-.159c.032-.212.1-.35.212-.4.2-.1.456.074.467.074a1.775,1.775,0,0,1,.52.51,1.583,1.583,0,0,1,.2.817c0,.478-.308.531-.51.5l-.3.17v.5Z" transform="translate(-335.93 -138.952)" fill="#808285"/>
          </g>
          <g id="Grupo_1008305" data-name="Grupo 1008305" transform="translate(11.709 17.698)">
            <path id="Trazado_716912" data-name="Trazado 716912" d="M339.32,141.133v-.074l.212-.117a.738.738,0,0,1,.594.117,1.807,1.807,0,0,1,.69.679,2.1,2.1,0,0,1,.3,1.083c0,.7-.478.743-.807.658v.51l-.138.074-.255-.637.435-.255c.2.032.51-.011.51-.5a1.589,1.589,0,0,0-.212-.817,1.541,1.541,0,0,0-.52-.51s-.265-.17-.456-.074a.508.508,0,0,0-.212.4l-.265.159a.819.819,0,0,1,.127-.7Z" transform="translate(-339.054 -140.913)" fill="#bcbec0"/>
            <path id="Trazado_716913" data-name="Trazado 716913" d="M340.15,143.911l.255.138v-.51c.329.085.807.042.807-.658a2.128,2.128,0,0,0-.3-1.083,1.828,1.828,0,0,0-.69-.679.715.715,0,0,0-.626-.106c-.212.106-.308.446-.308.881l.276-.159c.032-.212.1-.35.212-.4a.541.541,0,0,1,.456.074,1.456,1.456,0,0,1,.52.5,1.617,1.617,0,0,1,.212.817c0,.488-.308.531-.52.5l-.3.17v.5Z" transform="translate(-339.29 -140.909)" fill="#808285"/>
          </g>
          <g id="Grupo_1008306" data-name="Grupo 1008306" transform="translate(7.983 19.825)">
            <path id="Trazado_716914" data-name="Trazado 716914" d="M342.881,143.143v-.085l.212-.117a.838.838,0,0,1,.594.106,1.91,1.91,0,0,1,.69.69,2.064,2.064,0,0,1,.287,1.083c0,.7-.478.743-.807.658v.51l-.138.074-.255-.648.425-.244c.212.032.52-.011.51-.5a1.493,1.493,0,0,0-.212-.817,1.353,1.353,0,0,0-.52-.5.569.569,0,0,0-.467-.074.5.5,0,0,0-.212.393l-.276.159a.856.856,0,0,1,.127-.7Z" transform="translate(-342.615 -142.917)" fill="#bcbec0"/>
            <path id="Trazado_716915" data-name="Trazado 716915" d="M343.66,145.909l.255.149v-.51c.329.085.807.042.807-.648a2,2,0,0,0-.3-1.083,1.733,1.733,0,0,0-.69-.679s-.361-.244-.626-.106c-.212.106-.308.446-.308.881l.276-.159a.527.527,0,0,1,.212-.4c.191-.1.456.074.467.074a1.429,1.429,0,0,1,.52.51,1.588,1.588,0,0,1,.212.817c0,.488-.308.531-.51.5l-.3.17v.5Z" transform="translate(-342.8 -142.912)" fill="#808285"/>
          </g>
        </g>
        <g id="Grupo_1008506" data-name="Grupo 1008506" transform="translate(1140 1682.659)">
          <path id="Trazado_717489" data-name="Trazado 717489" d="M285.02,237.684l-20.69-11.938,60.742-35.066,20.635,11.91Z" transform="translate(-264.33 -145.005)" opacity="0.3"/>
          <rect id="Rect치ngulo_347124" data-name="Rect치ngulo 347124" width="17.228" height="12.464" transform="translate(18.189 64.91) rotate(-30)"/>
          <g id="Grupo_1008486" data-name="Grupo 1008486" transform="translate(51.643 0.001)">
            <path id="Trazado_717490" data-name="Trazado 717490" d="M336.262,201.614,310.17,186.547l9.777-5.637,26.091,15.068Z" transform="translate(-298.329 -148.766)" opacity="0.3"/>
            <g id="Grupo_1008435" data-name="Grupo 1008435" transform="translate(44.802 44.58)">
              <g id="Grupo_1008431" data-name="Grupo 1008431" transform="translate(0.374 0.152)">
                <path id="Trazado_717491" data-name="Trazado 717491" d="M334.517,192.188l.152.1-.277-1.537,1.163-.665L335.4,190l-1.163.665Z" transform="translate(-334.24 -190)" fill="#bcbec0"/>
                <path id="Trazado_717492" data-name="Trazado 717492" d="M334.627,192.262l.609-.36.277-1.842-1.163.665Z" transform="translate(-334.198 -189.977)" fill="#939598"/>
              </g>
              <g id="Grupo_1008432" data-name="Grupo 1008432" transform="translate(0 0.627)">
                <path id="Trazado_717493" data-name="Trazado 717493" d="M334.57,192.369c0,.582.4.817.9.526a2.012,2.012,0,0,0,.9-1.565c0-.568-.4-.817-.9-.526A1.991,1.991,0,0,0,334.57,192.369Z" transform="translate(-333.739 -190.212)" fill="#303033"/>
                <path id="Trazado_717494" data-name="Trazado 717494" d="M333.97,192.028a2.012,2.012,0,0,1,.9-1.565.678.678,0,0,1,.637-.069h0l.831.485a.61.61,0,0,0-.637.069,1.991,1.991,0,0,0-.9,1.565.637.637,0,0,0,.249.568h0l-.831-.471h0a.647.647,0,0,1-.249-.582Z" transform="translate(-333.97 -190.343)" fill="#121214"/>
                <path id="Trazado_717495" data-name="Trazado 717495" d="M334.76,192.122c0,.415.291.582.637.374a1.408,1.408,0,0,0,.637-1.108c0-.4-.291-.582-.637-.374A1.447,1.447,0,0,0,334.76,192.122Z" transform="translate(-333.666 -190.118)" fill="#58595b"/>
                <path id="Trazado_717496" data-name="Trazado 717496" d="M335.911,191.39a1.243,1.243,0,0,1-.568.983.351.351,0,0,1-.443,0,.364.364,0,0,0,.4-.042,1.255,1.255,0,0,0,.568-.969.391.391,0,0,0-.125-.332A.429.429,0,0,1,335.911,191.39Z" transform="translate(-333.612 -190.078)" fill="#303033"/>
                <path id="Trazado_717497" data-name="Trazado 717497" d="M335.91,191.371a1.219,1.219,0,0,1-.568.969.4.4,0,0,1-.4.042h0a.456.456,0,0,1-.111-.332,1.241,1.241,0,0,1,.554-.969.388.388,0,0,1,.4-.028h0a.436.436,0,0,1,.125.332Z" transform="translate(-333.639 -190.087)" fill="#a7a9ac"/>
                <path id="Trazado_717498" data-name="Trazado 717498" d="M335.679,191.449a.815.815,0,0,1-.36.623c-.138.083-.263.069-.319-.055a.278.278,0,0,0,.249-.028.815.815,0,0,0,.36-.623.232.232,0,0,0-.042-.166.27.27,0,0,1,.111.249Z" transform="translate(-333.574 -190.013)" fill="#3b3b3b"/>
                <path id="Trazado_717499" data-name="Trazado 717499" d="M335.611,191.364a.793.793,0,0,1-.36.623.24.24,0,0,1-.249.028.3.3,0,0,1-.042-.166.778.778,0,0,1,.36-.623.286.286,0,0,1,.249-.042.33.33,0,0,1,.042.166Z" transform="translate(-333.589 -190.025)" fill="#787878"/>
              </g>
              <g id="Grupo_1008433" data-name="Grupo 1008433" transform="translate(1.136 0.582)">
                <path id="Trazado_717500" data-name="Trazado 717500" d="M335.067,192.512l.152.1-.263-1.537,1.15-.665-.152-.1-1.163.679Z" transform="translate(-334.79 -190.31)" fill="#bcbec0"/>
                <path id="Trazado_717501" data-name="Trazado 717501" d="M335.173,192.582l.623-.36.263-1.842-1.149.665Z" transform="translate(-334.744 -190.283)" fill="#939598"/>
                <path id="Trazado_717502" data-name="Trazado 717502" d="M335.18,191.817a.123.123,0,0,0,.194.042.466.466,0,0,0,.208-.36c0-.083-.028-.125-.083-.139v.069a.466.466,0,0,1-.208.36.122.122,0,0,1-.111.028Z" transform="translate(-334.64 -189.906)" fill="#e6e7e8"/>
                <path id="Trazado_717503" data-name="Trazado 717503" d="M335.17,191.744a.243.243,0,0,0,.014.083.167.167,0,0,0,.111-.028.466.466,0,0,0,.208-.36v-.069h0a.32.32,0,0,0-.125.028.466.466,0,0,0-.208.36Z" transform="translate(-334.644 -189.902)" fill="#bcbec0"/>
              </g>
              <g id="Grupo_1008434" data-name="Grupo 1008434" transform="translate(0.374)">
                <path id="Trazado_717504" data-name="Trazado 717504" d="M334.24,190.522l.928.526v-.138l-.928-.54Z" transform="translate(-334.24 -189.705)" fill="#bcbec0"/>
                <path id="Trazado_717505" data-name="Trazado 717505" d="M334.91,191.087l1.149-.665v-.152l-1.149.679Z" transform="translate(-333.982 -189.744)" fill="#939598"/>
                <path id="Trazado_717506" data-name="Trazado 717506" d="M334.24,190.555l.928.54,1.149-.679-.914-.526Z" transform="translate(-334.24 -189.89)" fill="#e6e7e8"/>
              </g>
            </g>
            <g id="Grupo_1008440" data-name="Grupo 1008440" transform="translate(36.644 49.289)">
              <g id="Grupo_1008436" data-name="Grupo 1008436" transform="translate(0.374 0.152)">
                <path id="Trazado_717507" data-name="Trazado 717507" d="M328.627,195.588l.152.1-.277-1.537,1.163-.665-.152-.083-1.163.665Z" transform="translate(-328.35 -193.4)" fill="#bcbec0"/>
                <path id="Trazado_717508" data-name="Trazado 717508" d="M328.737,195.662l.609-.346.277-1.856-1.163.665Z" transform="translate(-328.308 -193.377)" fill="#939598"/>
              </g>
              <g id="Grupo_1008437" data-name="Grupo 1008437" transform="translate(0 0.627)">
                <path id="Trazado_717509" data-name="Trazado 717509" d="M328.68,195.769c0,.582.4.817.9.526a2.012,2.012,0,0,0,.9-1.565c0-.568-.4-.817-.9-.526A2.012,2.012,0,0,0,328.68,195.769Z" transform="translate(-327.849 -193.612)" fill="#303033"/>
                <path id="Trazado_717510" data-name="Trazado 717510" d="M328.08,195.428a1.97,1.97,0,0,1,.9-1.565.679.679,0,0,1,.637-.069h0l.831.471a.642.642,0,0,0-.637.069,2.012,2.012,0,0,0-.9,1.565.62.62,0,0,0,.249.568h0l-.831-.471h0a.631.631,0,0,1-.235-.568Z" transform="translate(-328.08 -193.743)" fill="#121214"/>
                <path id="Trazado_717511" data-name="Trazado 717511" d="M328.87,195.525c0,.415.291.582.637.374a1.412,1.412,0,0,0,.637-1.122c0-.415-.291-.568-.637-.374a1.447,1.447,0,0,0-.637,1.108Z" transform="translate(-327.776 -193.521)" fill="#58595b"/>
                <path id="Trazado_717512" data-name="Trazado 717512" d="M330.021,194.794a1.219,1.219,0,0,1-.568.969.351.351,0,0,1-.443,0,.393.393,0,0,0,.4-.042,1.255,1.255,0,0,0,.568-.969.409.409,0,0,0-.125-.332.394.394,0,0,1,.166.36Z" transform="translate(-327.722 -193.482)" fill="#303033"/>
                <path id="Trazado_717513" data-name="Trazado 717513" d="M330.01,194.773a1.218,1.218,0,0,1-.568.969.4.4,0,0,1-.4.042h0a.456.456,0,0,1-.111-.332,1.241,1.241,0,0,1,.554-.969.394.394,0,0,1,.4-.042h0A.459.459,0,0,1,330.01,194.773Z" transform="translate(-327.753 -193.489)" fill="#a7a9ac"/>
                <path id="Trazado_717514" data-name="Trazado 717514" d="M329.789,194.849a.815.815,0,0,1-.36.623c-.138.083-.263.069-.319-.055a.24.24,0,0,0,.249-.028.815.815,0,0,0,.36-.623.216.216,0,0,0-.042-.166.27.27,0,0,1,.111.249Z" transform="translate(-327.684 -193.413)" fill="#3b3b3b"/>
                <path id="Trazado_717515" data-name="Trazado 717515" d="M329.721,194.771a.815.815,0,0,1-.36.623.24.24,0,0,1-.249.028.3.3,0,0,1-.042-.166.793.793,0,0,1,.36-.623.276.276,0,0,1,.249-.028A.3.3,0,0,1,329.721,194.771Z" transform="translate(-327.699 -193.418)" fill="#787878"/>
              </g>
              <g id="Grupo_1008438" data-name="Grupo 1008438" transform="translate(1.136 0.596)">
                <path id="Trazado_717516" data-name="Trazado 717516" d="M329.177,195.908l.152.1-.277-1.537,1.163-.665-.152-.083-1.163.665Z" transform="translate(-328.9 -193.72)" fill="#bcbec0"/>
                <path id="Trazado_717517" data-name="Trazado 717517" d="M329.287,195.982l.623-.36.263-1.842-1.163.665Z" transform="translate(-328.858 -193.697)" fill="#939598"/>
                <path id="Trazado_717518" data-name="Trazado 717518" d="M329.29,195.221a.123.123,0,0,0,.194.042.466.466,0,0,0,.208-.36c0-.083-.028-.138-.083-.152v.069a.466.466,0,0,1-.208.36.122.122,0,0,1-.111.028Z" transform="translate(-328.75 -193.324)" fill="#e6e7e8"/>
                <path id="Trazado_717519" data-name="Trazado 717519" d="M329.284,195.148v.069a.166.166,0,0,0,.111-.028.445.445,0,0,0,.208-.36v-.069h0a.32.32,0,0,0-.125.028.466.466,0,0,0-.208.36Z" transform="translate(-328.758 -193.32)" fill="#bcbec0"/>
              </g>
              <g id="Grupo_1008439" data-name="Grupo 1008439" transform="translate(0.374)">
                <path id="Trazado_717520" data-name="Trazado 717520" d="M328.35,193.922l.914.526v-.138l-.914-.54Z" transform="translate(-328.35 -193.105)" fill="#bcbec0"/>
                <path id="Trazado_717521" data-name="Trazado 717521" d="M329.01,194.487l1.163-.665v-.152l-1.163.679Z" transform="translate(-328.096 -193.144)" fill="#939598"/>
                <path id="Trazado_717522" data-name="Trazado 717522" d="M328.35,193.955l.914.54,1.163-.679-.914-.526Z" transform="translate(-328.35 -193.29)" fill="#e6e7e8"/>
              </g>
            </g>
            <g id="Grupo_1008451" data-name="Grupo 1008451">
              <g id="Grupo_1008441" data-name="Grupo 1008441" transform="translate(20.206)">
                <path id="Trazado_717523" data-name="Trazado 717523" d="M317.706,158.06l-.886.512v30.052l.886-.512Z" transform="translate(-315.975 -157.561)" fill="#303033"/>
                <path id="Trazado_717524" data-name="Trazado 717524" d="M316.21,188.122l.845.5V158.569l-.845-.5Z" transform="translate(-316.21 -157.558)" fill="#121214"/>
                <path id="Trazado_717525" data-name="Trazado 717525" d="M316.21,158.212l.845.5.886-.512-.845-.5Z" transform="translate(-316.21 -157.7)" fill="#535359"/>
              </g>
              <g id="Grupo_1008442" data-name="Grupo 1008442" transform="translate(11.232 13.212)">
                <path id="Trazado_717526" data-name="Trazado 717526" d="M310.34,173.794V172.77l8.988-5.18v1.025Z" transform="translate(-309.495 -167.105)" fill="#303033"/>
                <path id="Trazado_717527" data-name="Trazado 717527" d="M318.7,167.24l.859.485-8.988,5.18-.845-.485Z" transform="translate(-309.73 -167.24)" fill="#535359"/>
                <path id="Trazado_717528" data-name="Trazado 717528" d="M309.73,170.98l.845.485v1.025L309.73,172Z" transform="translate(-309.73 -165.8)" fill="#121214"/>
              </g>
              <g id="Grupo_1008443" data-name="Grupo 1008443" transform="translate(16.937 3.061)">
                <path id="Trazado_717529" data-name="Trazado 717529" d="M315,160.19l-.679.388v11.744l.679-.388Z" transform="translate(-313.669 -159.802)" fill="#303033"/>
                <path id="Trazado_717530" data-name="Trazado 717530" d="M313.85,171.948l.651.374V160.578l-.651-.388Z" transform="translate(-313.85 -159.802)" fill="#121214"/>
                <path id="Trazado_717531" data-name="Trazado 717531" d="M313.85,160.3l.651.388.679-.388-.651-.388Z" transform="translate(-313.85 -159.91)" fill="#535359"/>
              </g>
              <g id="Grupo_1008450" data-name="Grupo 1008450" transform="translate(0 0.512)">
                <g id="Grupo_1008444" data-name="Grupo 1008444" transform="translate(8.822)">
                  <path id="Trazado_717532" data-name="Trazado 717532" d="M308.6,166.019v-1.011L320,158.43v1.025Z" transform="translate(-307.755 -157.931)" fill="#303033"/>
                  <path id="Trazado_717533" data-name="Trazado 717533" d="M319.374,158.07l.859.5-11.4,6.578-.845-.5Z" transform="translate(-307.99 -158.07)" fill="#535359"/>
                  <path id="Trazado_717534" data-name="Trazado 717534" d="M307.99,162.82l.845.5v1.011l-.845-.485Z" transform="translate(-307.99 -156.242)" fill="#121214"/>
                </g>
                <g id="Grupo_1008445" data-name="Grupo 1008445" transform="translate(5.207 6.12)">
                  <path id="Trazado_717535" data-name="Trazado 717535" d="M305.564,164.554l3.462-2.008a.566.566,0,0,1,.582.055,1.847,1.847,0,0,1,.831,1.44.6.6,0,0,1-.249.54l-3.462,2.008-1.177-2.036Z" transform="translate(-305.315 -162.489)" fill="#303033"/>
                  <path id="Trazado_717536" data-name="Trazado 717536" d="M307.042,165.492a1.846,1.846,0,0,0-.831-1.44c-.457-.263-.831-.055-.831.485a1.825,1.825,0,0,0,.831,1.44C306.668,166.24,307.042,166.032,307.042,165.492Z" transform="translate(-305.38 -161.931)" fill="#121214"/>
                </g>
                <g id="Grupo_1008449" data-name="Grupo 1008449" transform="translate(0 6.37)">
                  <g id="Grupo_1008447" data-name="Grupo 1008447" transform="translate(0.679)">
                    <path id="Trazado_717537" data-name="Trazado 717537" d="M302.41,166.021l5.637-3.255a1.012,1.012,0,0,1,1.011.1,3.157,3.157,0,0,1,1.426,2.465,1.03,1.03,0,0,1-.415.928l-5.637,3.255-2.022-3.49Z" transform="translate(-301.995 -162.669)" fill="#24d2c1"/>
                    <g id="Grupo_1008446" data-name="Grupo 1008446" transform="translate(0.595)">
                      <path id="Trazado_717538" data-name="Trazado 717538" d="M302.54,165.3h0c1.149-.665,3.13,1.44,2.742,3.074h0l.055-.042c1.842-1.523-.263-4.5-1.122-4l-1.676.969Z" transform="translate(-302.54 -162.049)" opacity="0.05"/>
                      <path id="Trazado_717539" data-name="Trazado 717539" d="M303.83,164.555h0c1.149-.665,3.13,1.44,2.742,3.074h0l.055-.042c1.828-1.523-.263-4.5-1.122-4Z" transform="translate(-302.044 -162.338)" opacity="0.05"/>
                      <path id="Trazado_717540" data-name="Trazado 717540" d="M305.15,163.791h0c1.149-.665,3.144,1.44,2.742,3.074h0l.055-.028c1.842-1.523-.263-4.5-1.122-4l-1.676.969Z" transform="translate(-301.535 -162.627)" opacity="0.05"/>
                      <path id="Trazado_717541" data-name="Trazado 717541" d="M302.6,165.029s.111.042.166.055a1.158,1.158,0,0,1,.582.194,3.157,3.157,0,0,1,1.427,2.465,1,1,0,0,1-.416.928l1.219-.706c.859-.5-.665-3.809-2.908-2.978l-.055.042Z" transform="translate(-302.517 -161.829)" opacity="0.05"/>
                      <path id="Trazado_717542" data-name="Trazado 717542" d="M305.178,168.19h0c1.149-.665.332-3.435-1.288-3.905h0l.055-.028c2.244-.831,3.767,2.479,2.908,2.978l-1.676.969Z" transform="translate(-302.02 -162.11)" opacity="0.05"/>
                      <path id="Trazado_717543" data-name="Trazado 717543" d="M306.5,167.433h0c1.149-.665.319-3.435-1.288-3.905h0l.055-.042c2.244-.817,3.767,2.479,2.908,2.978l-1.676.969Z" transform="translate(-301.512 -162.405)" opacity="0.05"/>
                      <path id="Trazado_717544" data-name="Trazado 717544" d="M307.466,162.864a1.026,1.026,0,0,0-.956-.125c1.62.485,2.437,3.241,1.288,3.905h0l.679-.388a1,1,0,0,0,.415-.928,2.965,2.965,0,0,0-.415-1.4,3,3,0,0,0-1.011-1.066Z" transform="translate(-301.012 -162.669)" opacity="0.05"/>
                    </g>
                    <path id="Trazado_717545" data-name="Trazado 717545" d="M304.963,167.689a3.114,3.114,0,0,0-1.427-2.465c-.789-.457-1.426-.083-1.426.817a3.135,3.135,0,0,0,1.426,2.465C304.326,168.964,304.963,168.59,304.963,167.689Z" transform="translate(-302.11 -161.761)" fill="#16a89f"/>
                  </g>
                  <g id="Grupo_1008448" data-name="Grupo 1008448" transform="translate(0 4.035)">
                    <path id="Trazado_717546" data-name="Trazado 717546" d="M301.8,166.313l1.163-.679a.625.625,0,0,1,.609.069,1.917,1.917,0,0,1,.859,1.5.594.594,0,0,1-.249.554l-1.163.665Z" transform="translate(-301.551 -165.583)" fill="#535359"/>
                    <path id="Trazado_717547" data-name="Trazado 717547" d="M303.337,167.679a1.917,1.917,0,0,0-.859-1.5c-.471-.277-.859-.055-.859.5a1.917,1.917,0,0,0,.859,1.5C302.95,168.454,303.337,168.233,303.337,167.679Z" transform="translate(-301.62 -165.398)" fill="#303033"/>
                    <path id="Trazado_717548" data-name="Trazado 717548" d="M303.186,167.566a1.638,1.638,0,0,0-.748-1.288c-.415-.235-.748-.042-.748.429a1.638,1.638,0,0,0,.748,1.288C302.853,168.231,303.186,168.037,303.186,167.566Z" transform="translate(-301.593 -165.354)" fill="#121214"/>
                  </g>
                </g>
              </g>
            </g>
            <g id="Grupo_1008462" data-name="Grupo 1008462" transform="translate(8.434 4.861)">
              <g id="Grupo_1008452" data-name="Grupo 1008452" transform="translate(20.206)">
                <path id="Trazado_717549" data-name="Trazado 717549" d="M323.806,161.56l-.886.512v30.052l.886-.512Z" transform="translate(-322.061 -161.075)" fill="#303033"/>
                <path id="Trazado_717550" data-name="Trazado 717550" d="M322.3,191.632l.859.485V162.065l-.859-.485Z" transform="translate(-322.3 -161.068)" fill="#121214"/>
                <path id="Trazado_717551" data-name="Trazado 717551" d="M322.3,161.722l.859.485.886-.512-.859-.485Z" transform="translate(-322.3 -161.21)" fill="#535359"/>
              </g>
              <g id="Grupo_1008453" data-name="Grupo 1008453" transform="translate(11.232 13.198)">
                <path id="Trazado_717552" data-name="Trazado 717552" d="M316.44,177.3V176.28l8.974-5.18v1.011Z" transform="translate(-315.581 -170.601)" fill="#303033"/>
                <path id="Trazado_717553" data-name="Trazado 717553" d="M324.794,170.74l.859.5-8.974,5.18-.859-.5Z" transform="translate(-315.82 -170.74)" fill="#535359"/>
                <path id="Trazado_717554" data-name="Trazado 717554" d="M315.82,174.48l.859.5V176l-.859-.5Z" transform="translate(-315.82 -169.3)" fill="#121214"/>
              </g>
              <g id="Grupo_1008454" data-name="Grupo 1008454" transform="translate(16.937 3.061)">
                <path id="Trazado_717555" data-name="Trazado 717555" d="M321.1,163.69l-.679.388v11.758l.679-.4Z" transform="translate(-319.755 -163.316)" fill="#303033"/>
                <path id="Trazado_717556" data-name="Trazado 717556" d="M319.94,175.444l.665.388V164.074l-.665-.374Z" transform="translate(-319.94 -163.312)" fill="#121214"/>
                <path id="Trazado_717557" data-name="Trazado 717557" d="M319.94,163.808l.665.374.679-.388-.665-.374Z" transform="translate(-319.94 -163.42)" fill="#535359"/>
              </g>
              <g id="Grupo_1008461" data-name="Grupo 1008461" transform="translate(0 0.512)">
                <g id="Grupo_1008455" data-name="Grupo 1008455" transform="translate(8.822)">
                  <path id="Trazado_717558" data-name="Trazado 717558" d="M314.7,169.533v-1.025l11.384-6.578v1.025Z" transform="translate(-313.841 -161.445)" fill="#303033"/>
                  <path id="Trazado_717559" data-name="Trazado 717559" d="M325.464,161.58l.859.485-11.384,6.578-.859-.5Z" transform="translate(-314.08 -161.58)" fill="#535359"/>
                  <path id="Trazado_717560" data-name="Trazado 717560" d="M314.08,166.32l.859.5v1.025l-.859-.5Z" transform="translate(-314.08 -159.756)" fill="#121214"/>
                </g>
                <g id="Grupo_1008456" data-name="Grupo 1008456" transform="translate(5.221 6.11)">
                  <path id="Trazado_717561" data-name="Trazado 717561" d="M311.654,168.053l3.462-2.008a.6.6,0,0,1,.582.055,1.847,1.847,0,0,1,.831,1.44.6.6,0,0,1-.249.54l-3.462,2.008-1.177-2.036Z" transform="translate(-311.418 -165.992)" fill="#303033"/>
                  <path id="Trazado_717562" data-name="Trazado 717562" d="M313.142,168.992a1.847,1.847,0,0,0-.831-1.44c-.457-.263-.831-.055-.831.485a1.825,1.825,0,0,0,.831,1.44C312.768,169.74,313.142,169.532,313.142,168.992Z" transform="translate(-311.48 -165.436)" fill="#121214"/>
                </g>
                <g id="Grupo_1008460" data-name="Grupo 1008460" transform="translate(0 6.37)">
                  <g id="Grupo_1008458" data-name="Grupo 1008458" transform="translate(0.679)">
                    <path id="Trazado_717563" data-name="Trazado 717563" d="M308.5,169.531l5.637-3.255a1.011,1.011,0,0,1,1.011.1,3.157,3.157,0,0,1,1.426,2.465,1.03,1.03,0,0,1-.415.928l-5.637,3.255Z" transform="translate(-308.085 -166.179)" fill="#ff9d26"/>
                    <g id="Grupo_1008457" data-name="Grupo 1008457" transform="translate(0.595)">
                      <path id="Trazado_717564" data-name="Trazado 717564" d="M308.63,168.8h0c1.149-.665,3.144,1.44,2.742,3.074h0l.055-.042c1.842-1.523-.263-4.5-1.122-4l-1.676.969Z" transform="translate(-308.63 -165.563)" opacity="0.05"/>
                      <path id="Trazado_717565" data-name="Trazado 717565" d="M309.92,168.061h0c1.149-.665,3.13,1.44,2.742,3.074h0l.055-.028c1.842-1.523-.263-4.5-1.122-4l-1.676.969Z" transform="translate(-308.133 -165.844)" opacity="0.05"/>
                      <path id="Trazado_717566" data-name="Trazado 717566" d="M311.24,167.3h0c1.149-.665,3.13,1.44,2.742,3.074h0l.055-.042c1.842-1.523-.263-4.5-1.122-4l-1.676.969Z" transform="translate(-307.625 -166.141)" opacity="0.05"/>
                      <path id="Trazado_717567" data-name="Trazado 717567" d="M308.69,168.538s.111.042.166.055a1.158,1.158,0,0,1,.582.194,3.157,3.157,0,0,1,1.426,2.465,1.03,1.03,0,0,1-.416.928l1.219-.706c.859-.5-.665-3.795-2.908-2.978l-.055.042Z" transform="translate(-308.607 -165.338)" opacity="0.05"/>
                      <path id="Trazado_717568" data-name="Trazado 717568" d="M311.278,171.693h0c1.149-.665.319-3.435-1.288-3.905h0l.055-.042c2.244-.817,3.767,2.479,2.908,2.978l-1.676.969Z" transform="translate(-308.107 -165.626)" opacity="0.05"/>
                      <path id="Trazado_717569" data-name="Trazado 717569" d="M312.588,170.934h0c1.149-.665.319-3.435-1.288-3.905h0l.055-.042c2.243-.831,3.767,2.479,2.908,2.978l-1.676.969Z" transform="translate(-307.602 -165.92)" opacity="0.05"/>
                      <path id="Trazado_717570" data-name="Trazado 717570" d="M313.566,166.374a1.026,1.026,0,0,0-.956-.125c1.62.485,2.438,3.241,1.288,3.905h0l.679-.388a.99.99,0,0,0,.416-.914,3.01,3.01,0,0,0-.416-1.4,2.889,2.889,0,0,0-1.011-1.066Z" transform="translate(-307.098 -166.179)" opacity="0.05"/>
                    </g>
                    <path id="Trazado_717571" data-name="Trazado 717571" d="M311.053,171.189a3.114,3.114,0,0,0-1.426-2.465c-.789-.457-1.427-.083-1.427.817a3.135,3.135,0,0,0,1.427,2.465C310.416,172.464,311.053,172.09,311.053,171.189Z" transform="translate(-308.2 -165.275)" fill="#ff8400"/>
                  </g>
                  <g id="Grupo_1008459" data-name="Grupo 1008459" transform="translate(0 4.01)">
                    <path id="Trazado_717572" data-name="Trazado 717572" d="M307.89,169.816l1.163-.679a.585.585,0,0,1,.609.055,1.917,1.917,0,0,1,.859,1.5.594.594,0,0,1-.249.554l-1.163.665L307.89,169.8Z" transform="translate(-307.641 -169.075)" fill="#535359"/>
                    <path id="Trazado_717573" data-name="Trazado 717573" d="M309.427,171.189a1.918,1.918,0,0,0-.859-1.5c-.471-.277-.859-.055-.859.5a1.917,1.917,0,0,0,.859,1.5C309.04,171.964,309.427,171.743,309.427,171.189Z" transform="translate(-307.71 -168.883)" fill="#303033"/>
                    <path id="Trazado_717574" data-name="Trazado 717574" d="M309.286,171.076a1.638,1.638,0,0,0-.748-1.288c-.415-.235-.748-.042-.748.429a1.638,1.638,0,0,0,.748,1.288C308.953,171.741,309.286,171.547,309.286,171.076Z" transform="translate(-307.679 -168.839)" fill="#121214"/>
                  </g>
                </g>
              </g>
            </g>
            <g id="Grupo_1008473" data-name="Grupo 1008473" transform="translate(16.882 9.708)">
              <g id="Grupo_1008463" data-name="Grupo 1008463" transform="translate(20.192)">
                <path id="Trazado_717575" data-name="Trazado 717575" d="M329.9,165.07l-.886.512v30.052l.886-.512Z" transform="translate(-328.151 -164.571)" fill="#303033"/>
                <path id="Trazado_717576" data-name="Trazado 717576" d="M328.39,195.132l.859.5V165.579l-.859-.5Z" transform="translate(-328.39 -164.568)" fill="#121214"/>
                <path id="Trazado_717577" data-name="Trazado 717577" d="M328.39,165.222l.859.5.886-.512-.859-.5Z" transform="translate(-328.39 -164.71)" fill="#535359"/>
              </g>
              <g id="Grupo_1008464" data-name="Grupo 1008464" transform="translate(11.218 13.212)">
                <path id="Trazado_717578" data-name="Trazado 717578" d="M322.53,180.8V179.78l8.974-5.18v1.025Z" transform="translate(-321.671 -174.115)" fill="#303033"/>
                <path id="Trazado_717579" data-name="Trazado 717579" d="M330.884,174.25l.859.485-8.974,5.18-.859-.5Z" transform="translate(-321.91 -174.25)" fill="#535359"/>
                <path id="Trazado_717580" data-name="Trazado 717580" d="M321.91,177.98l.859.5V179.5l-.859-.5Z" transform="translate(-321.91 -172.814)" fill="#121214"/>
              </g>
              <g id="Grupo_1008465" data-name="Grupo 1008465" transform="translate(16.937 3.061)">
                <path id="Trazado_717581" data-name="Trazado 717581" d="M327.189,167.19l-.679.4v11.744l.679-.388Z" transform="translate(-325.859 -166.816)" fill="#303033"/>
                <path id="Trazado_717582" data-name="Trazado 717582" d="M326.04,178.958l.651.374V167.588l-.651-.388Z" transform="translate(-326.04 -166.812)" fill="#121214"/>
                <path id="Trazado_717583" data-name="Trazado 717583" d="M326.04,167.308l.651.388.679-.4-.651-.374Z" transform="translate(-326.04 -166.92)" fill="#535359"/>
              </g>
              <g id="Grupo_1008472" data-name="Grupo 1008472" transform="translate(0 0.512)">
                <g id="Grupo_1008466" data-name="Grupo 1008466" transform="translate(8.808)">
                  <path id="Trazado_717584" data-name="Trazado 717584" d="M320.79,173.029V172l11.384-6.564v1.011Z" transform="translate(-319.931 -164.941)" fill="#303033"/>
                  <path id="Trazado_717585" data-name="Trazado 717585" d="M331.554,165.08l.859.5-11.384,6.564-.859-.485Z" transform="translate(-320.17 -165.08)" fill="#535359"/>
                  <path id="Trazado_717586" data-name="Trazado 717586" d="M320.17,169.83l.859.485v1.025l-.859-.5Z" transform="translate(-320.17 -163.252)" fill="#121214"/>
                </g>
                <g id="Grupo_1008467" data-name="Grupo 1008467" transform="translate(5.207 6.11)">
                  <path id="Trazado_717587" data-name="Trazado 717587" d="M317.754,171.553l3.462-2.008a.6.6,0,0,1,.582.055,1.847,1.847,0,0,1,.831,1.44.584.584,0,0,1-.249.54l-3.462,1.994-1.177-2.036Z" transform="translate(-317.505 -169.492)" fill="#303033"/>
                  <path id="Trazado_717588" data-name="Trazado 717588" d="M319.232,172.492a1.846,1.846,0,0,0-.831-1.44c-.457-.263-.831-.055-.831.471a1.846,1.846,0,0,0,.831,1.44c.457.263.831.055.831-.485Z" transform="translate(-317.57 -168.936)" fill="#121214"/>
                </g>
                <g id="Grupo_1008471" data-name="Grupo 1008471" transform="translate(0 6.37)">
                  <g id="Grupo_1008469" data-name="Grupo 1008469" transform="translate(0.665)">
                    <path id="Trazado_717589" data-name="Trazado 717589" d="M314.59,173.031l5.637-3.255a1.012,1.012,0,0,1,1.011.1,3.157,3.157,0,0,1,1.426,2.465,1,1,0,0,1-.415.928l-5.637,3.255Z" transform="translate(-314.175 -169.679)" fill="#fff"/>
                    <g id="Grupo_1008468" data-name="Grupo 1008468" transform="translate(0.595)">
                      <path id="Trazado_717590" data-name="Trazado 717590" d="M314.72,172.3h0c1.149-.665,3.13,1.44,2.742,3.074h0l.055-.042c1.828-1.523-.263-4.5-1.122-4l-1.676.969Z" transform="translate(-314.72 -169.063)" opacity="0.05"/>
                      <path id="Trazado_717591" data-name="Trazado 717591" d="M316.02,171.564h0c1.149-.665,3.13,1.44,2.742,3.075h0l.055-.028c1.828-1.523-.263-4.5-1.122-4.016Z" transform="translate(-314.22 -169.347)" opacity="0.05"/>
                      <path id="Trazado_717592" data-name="Trazado 717592" d="M317.33,170.8h0c1.149-.665,3.13,1.44,2.742,3.074h0l.055-.042c1.842-1.523-.263-4.5-1.122-4l-1.676.969Z" transform="translate(-313.715 -169.641)" opacity="0.05"/>
                      <path id="Trazado_717593" data-name="Trazado 717593" d="M314.79,172.035s.111.042.166.069a1.158,1.158,0,0,1,.582.194,3.157,3.157,0,0,1,1.427,2.465,1.03,1.03,0,0,1-.415.928l1.219-.706c.859-.5-.665-3.808-2.908-2.978l-.055.028Z" transform="translate(-314.693 -168.835)" opacity="0.05"/>
                      <path id="Trazado_717594" data-name="Trazado 717594" d="M317.368,175.2h0c1.149-.665.319-3.435-1.288-3.905h0l.055-.042c2.243-.817,3.767,2.479,2.908,2.978l-1.676.969Z" transform="translate(-314.197 -169.122)" opacity="0.05"/>
                      <path id="Trazado_717595" data-name="Trazado 717595" d="M318.688,174.44h0c1.149-.665.332-3.435-1.288-3.905h0l.055-.028c2.244-.831,3.767,2.479,2.908,2.977l-1.676.969Z" transform="translate(-313.689 -169.412)" opacity="0.05"/>
                      <path id="Trazado_717596" data-name="Trazado 717596" d="M319.656,169.874a1.029,1.029,0,0,0-.956-.125c1.62.485,2.437,3.241,1.288,3.905h0l.679-.388a1.03,1.03,0,0,0,.415-.928,2.816,2.816,0,0,0-.415-1.4,3,3,0,0,0-1.011-1.066Z" transform="translate(-313.188 -169.679)" opacity="0.05"/>
                    </g>
                    <path id="Trazado_717597" data-name="Trazado 717597" d="M317.143,174.689a3.135,3.135,0,0,0-1.426-2.465c-.789-.457-1.426-.083-1.426.817a3.157,3.157,0,0,0,1.426,2.465C316.506,175.964,317.143,175.59,317.143,174.689Z" transform="translate(-314.29 -168.775)" fill="#d1d3d4"/>
                  </g>
                  <g id="Grupo_1008470" data-name="Grupo 1008470" transform="translate(0 4.035)">
                    <path id="Trazado_717598" data-name="Trazado 717598" d="M313.98,173.323l1.163-.679a.625.625,0,0,1,.609.069,1.917,1.917,0,0,1,.859,1.5.594.594,0,0,1-.249.554l-1.163.665-1.219-2.105Z" transform="translate(-313.745 -172.593)" fill="#535359"/>
                    <path id="Trazado_717599" data-name="Trazado 717599" d="M315.527,174.689a1.917,1.917,0,0,0-.859-1.5c-.471-.277-.859-.055-.859.5a1.917,1.917,0,0,0,.859,1.5C315.14,175.464,315.527,175.243,315.527,174.689Z" transform="translate(-313.81 -172.408)" fill="#303033"/>
                    <path id="Trazado_717600" data-name="Trazado 717600" d="M315.376,174.576a1.638,1.638,0,0,0-.748-1.288c-.415-.235-.748-.042-.748.429a1.638,1.638,0,0,0,.748,1.288C315.043,175.241,315.376,175.047,315.376,174.576Z" transform="translate(-313.783 -172.364)" fill="#121214"/>
                  </g>
                </g>
              </g>
            </g>
            <g id="Grupo_1008484" data-name="Grupo 1008484" transform="translate(25.316 14.555)">
              <g id="Grupo_1008474" data-name="Grupo 1008474" transform="translate(20.206)">
                <path id="Trazado_717601" data-name="Trazado 717601" d="M335.986,168.57l-.886.512v30.052l.886-.512Z" transform="translate(-334.255 -168.071)" fill="#303033"/>
                <path id="Trazado_717602" data-name="Trazado 717602" d="M334.49,198.632l.845.5V169.079l-.845-.5Z" transform="translate(-334.49 -168.068)" fill="#121214"/>
                <path id="Trazado_717603" data-name="Trazado 717603" d="M334.49,168.722l.845.5.886-.512-.845-.5Z" transform="translate(-334.49 -168.21)" fill="#535359"/>
              </g>
              <g id="Grupo_1008475" data-name="Grupo 1008475" transform="translate(11.232 13.212)">
                <path id="Trazado_717604" data-name="Trazado 717604" d="M328.62,184.3V183.28l8.974-5.18.014,1.025Z" transform="translate(-327.775 -177.615)" fill="#303033"/>
                <path id="Trazado_717605" data-name="Trazado 717605" d="M336.984,177.75l.845.485-8.974,5.18-.845-.485Z" transform="translate(-328.01 -177.75)" fill="#535359"/>
                <path id="Trazado_717606" data-name="Trazado 717606" d="M328.01,181.49l.845.485V183l-.845-.485Z" transform="translate(-328.01 -176.31)" fill="#121214"/>
              </g>
              <g id="Grupo_1008476" data-name="Grupo 1008476" transform="translate(16.937 3.061)">
                <path id="Trazado_717607" data-name="Trazado 717607" d="M333.279,170.7l-.679.388v11.744l.679-.388Z" transform="translate(-331.949 -170.312)" fill="#303033"/>
                <path id="Trazado_717608" data-name="Trazado 717608" d="M332.13,182.454l.651.374V171.084l-.651-.374Z" transform="translate(-332.13 -170.308)" fill="#121214"/>
                <path id="Trazado_717609" data-name="Trazado 717609" d="M332.13,170.822l.651.374.679-.388-.651-.388Z" transform="translate(-332.13 -170.42)" fill="#535359"/>
              </g>
              <g id="Grupo_1008483" data-name="Grupo 1008483" transform="translate(0 0.512)">
                <g id="Grupo_1008477" data-name="Grupo 1008477" transform="translate(8.822)">
                  <path id="Trazado_717610" data-name="Trazado 717610" d="M326.88,176.529v-1.011l11.384-6.578.014,1.025Z" transform="translate(-326.035 -168.441)" fill="#303033"/>
                  <path id="Trazado_717611" data-name="Trazado 717611" d="M337.654,168.58l.845.5-11.384,6.578-.845-.5Z" transform="translate(-326.27 -168.58)" fill="#535359"/>
                  <path id="Trazado_717612" data-name="Trazado 717612" d="M326.27,173.33l.845.5v1.011l-.845-.485Z" transform="translate(-326.27 -166.752)" fill="#121214"/>
                </g>
                <g id="Grupo_1008478" data-name="Grupo 1008478" transform="translate(5.207 6.124)">
                  <path id="Trazado_717613" data-name="Trazado 717613" d="M323.844,175.063l3.462-2.008a.6.6,0,0,1,.582.055,1.825,1.825,0,0,1,.831,1.44.584.584,0,0,1-.249.54l-3.462,1.994-1.177-2.036Z" transform="translate(-323.595 -173.002)" fill="#303033"/>
                  <path id="Trazado_717614" data-name="Trazado 717614" d="M325.322,176a1.846,1.846,0,0,0-.831-1.44c-.457-.263-.831-.055-.831.485a1.825,1.825,0,0,0,.831,1.44C324.948,176.75,325.322,176.542,325.322,176Z" transform="translate(-323.66 -172.446)" fill="#121214"/>
                </g>
                <g id="Grupo_1008482" data-name="Grupo 1008482" transform="translate(0 6.372)">
                  <g id="Grupo_1008480" data-name="Grupo 1008480" transform="translate(0.679)">
                    <path id="Trazado_717615" data-name="Trazado 717615" d="M320.69,176.531l5.637-3.255a1.011,1.011,0,0,1,1.011.1,3.157,3.157,0,0,1,1.426,2.465,1.03,1.03,0,0,1-.415.928l-5.637,3.255Z" transform="translate(-320.275 -173.181)" fill="#fff"/>
                    <g id="Grupo_1008479" data-name="Grupo 1008479" transform="translate(0.595 0.012)">
                      <path id="Trazado_717616" data-name="Trazado 717616" d="M320.82,175.818h0c1.149-.665,3.13,1.44,2.742,3.074h0l.055-.042c1.842-1.523-.263-4.5-1.122-4.016l-1.676.969Z" transform="translate(-320.82 -172.576)" opacity="0.05"/>
                      <path id="Trazado_717617" data-name="Trazado 717617" d="M322.11,175.068h0c1.149-.665,3.13,1.44,2.742,3.075h0l.055-.042c1.842-1.523-.263-4.5-1.122-4.016l-1.676.969Z" transform="translate(-320.324 -172.865)" opacity="0.05"/>
                      <path id="Trazado_717618" data-name="Trazado 717618" d="M323.43,174.3h0c1.149-.665,3.13,1.44,2.742,3.074h0l.055-.042c1.842-1.523-.263-4.5-1.122-4l-1.676.969Z" transform="translate(-319.815 -173.155)" opacity="0.05"/>
                      <path id="Trazado_717619" data-name="Trazado 717619" d="M320.88,175.539s.111.042.166.055a1.159,1.159,0,0,1,.582.194,3.157,3.157,0,0,1,1.426,2.465,1.03,1.03,0,0,1-.415.928l1.219-.706c.859-.5-.665-3.809-2.908-2.978l-.055.042Z" transform="translate(-320.797 -172.352)" opacity="0.05"/>
                      <path id="Trazado_717620" data-name="Trazado 717620" d="M323.458,178.7h0c1.149-.665.332-3.435-1.288-3.905h0l.055-.042c2.244-.817,3.767,2.479,2.908,2.978l-1.676.969Z" transform="translate(-320.3 -172.636)" opacity="0.05"/>
                      <path id="Trazado_717621" data-name="Trazado 717621" d="M324.778,177.944h0c1.15-.665.332-3.435-1.288-3.905h0l.055-.042c2.243-.831,3.767,2.479,2.908,2.978l-1.676.969Z" transform="translate(-319.792 -172.93)" opacity="0.05"/>
                      <path id="Trazado_717622" data-name="Trazado 717622" d="M325.756,173.384a1.032,1.032,0,0,0-.956-.125c1.607.485,2.438,3.241,1.288,3.905h0l.679-.388a1,1,0,0,0,.415-.928,2.966,2.966,0,0,0-.415-1.4,3,3,0,0,0-1.011-1.066Z" transform="translate(-319.288 -173.189)" opacity="0.05"/>
                    </g>
                    <path id="Trazado_717623" data-name="Trazado 717623" d="M323.243,178.2a3.135,3.135,0,0,0-1.426-2.465c-.789-.457-1.427-.083-1.427.817a3.157,3.157,0,0,0,1.427,2.465C322.606,179.474,323.243,179.1,323.243,178.2Z" transform="translate(-320.39 -172.273)" fill="#d1d3d4"/>
                  </g>
                  <g id="Grupo_1008481" data-name="Grupo 1008481" transform="translate(0 4.04)">
                    <path id="Trazado_717624" data-name="Trazado 717624" d="M320.08,176.821l1.163-.665a.617.617,0,0,1,.609.055,1.917,1.917,0,0,1,.859,1.5.594.594,0,0,1-.249.554l-1.163.665-1.219-2.105Z" transform="translate(-319.831 -176.098)" fill="#535359"/>
                    <path id="Trazado_717625" data-name="Trazado 717625" d="M321.617,178.189a1.918,1.918,0,0,0-.859-1.5c-.471-.277-.859-.055-.859.5a1.917,1.917,0,0,0,.859,1.5C321.23,178.964,321.617,178.743,321.617,178.189Z" transform="translate(-319.9 -175.915)" fill="#303033"/>
                    <path id="Trazado_717626" data-name="Trazado 717626" d="M321.466,178.076a1.638,1.638,0,0,0-.748-1.288c-.415-.235-.748-.042-.748.429a1.638,1.638,0,0,0,.748,1.288C321.133,178.741,321.466,178.547,321.466,178.076Z" transform="translate(-319.873 -175.871)" fill="#121214"/>
                  </g>
                </g>
              </g>
            </g>
            <g id="Grupo_1008485" data-name="Grupo 1008485" transform="translate(11.841 25.69)">
              <path id="Trazado_717627" data-name="Trazado 717627" d="M310.17,179.76l26.091,15.068V199.7L310.17,184.621Z" transform="translate(-310.17 -174.899)" fill="#121214"/>
              <path id="Trazado_717628" data-name="Trazado 717628" d="M329.01,196.866l8.434-4.875V187.13l-8.434,4.861Z" transform="translate(-302.919 -172.062)" fill="#303033"/>
              <path id="Trazado_717629" data-name="Trazado 717629" d="M336.262,196.179,310.17,181.111l8.434-4.861L344.7,191.318Z" transform="translate(-310.17 -176.25)" fill="#535359"/>
            </g>
          </g>
          <g id="Grupo_1008487" data-name="Grupo 1008487" transform="translate(52.266 21.134)">
            <path id="Trazado_717630" data-name="Trazado 717630" d="M302.07,176.48l15.816,9.127,4.861,8.531v18.793L302.07,200.993Z" transform="translate(-302.07 -171.605)" fill="#0f7338"/>
            <path id="Trazado_717631" data-name="Trazado 717631" d="M317,209.378l8.434-4.875V185.71L317,190.585Z" transform="translate(-296.323 -168.053)" fill="#128742"/>
            <path id="Trazado_717632" data-name="Trazado 717632" d="M318.351,192.956l8.434-4.875-4.861-8.531-8.434,4.875Z" transform="translate(-297.674 -170.424)" fill="#16a851"/>
            <path id="Trazado_717633" data-name="Trazado 717633" d="M317.886,186.961l-15.816-9.127,8.434-4.875,15.815,9.127Z" transform="translate(-302.07 -172.96)" fill="#1bcf64"/>
          </g>
          <g id="Grupo_1008488" data-name="Grupo 1008488" transform="translate(18.156 53.555)">
            <path id="Trazado_717634" data-name="Trazado 717634" d="M277.44,221.714l9.625,5.567L330.9,201.937l-9.639-5.567Z" transform="translate(-277.44 -196.37)" fill="#535359"/>
            <path id="Trazado_717635" data-name="Trazado 717635" d="M328.222,202.2V200.39L284.39,225.734v1.828Z" transform="translate(-274.765 -194.823)" fill="#303033"/>
            <path id="Trazado_717636" data-name="Trazado 717636" d="M287.065,222.065v-1.828l-9.625-5.567V216.5Z" transform="translate(-277.44 -189.326)" fill="#939598"/>
          </g>
          <g id="Grupo_1008490" data-name="Grupo 1008490" transform="translate(9.307 29.347)">
            <path id="Trazado_717637" data-name="Trazado 717637" d="M279.955,209.372l-8.9-5.138,43.832-25.344,8.891,5.138Z" transform="translate(-271.05 -178.89)" fill="#e6e7e8"/>
            <g id="Grupo_1008489" data-name="Grupo 1008489" transform="translate(5.9 3.185)">
              <path id="Trazado_717638" data-name="Trazado 717638" d="M303.22,182.021l.734.429.706-.415,3.2,1.842.734-.415-3.933-2.271Z" transform="translate(-264.567 -181.19)" fill="#535359"/>
              <path id="Trazado_717639" data-name="Trazado 717639" d="M303.75,182.215l3.2,1.842.706-.415-3.2-1.842Z" transform="translate(-264.363 -180.955)" fill="#a7a9ac"/>
              <path id="Trazado_717640" data-name="Trazado 717640" d="M298.89,182.451l.734.415.692-.4,5.692,3.282.734-.429-6.426-3.7Z" transform="translate(-266.234 -181.025)" fill="#535359"/>
              <path id="Trazado_717641" data-name="Trazado 717641" d="M299.42,182.632l5.678,3.282.706-.4-5.692-3.282Z" transform="translate(-266.03 -180.79)" fill="#a7a9ac"/>
              <path id="Trazado_717642" data-name="Trazado 717642" d="M296.35,183.911l.734.429.706-.415,5.678,3.282.748-.415-6.426-3.712Z" transform="translate(-267.212 -180.463)" fill="#535359"/>
              <path id="Trazado_717643" data-name="Trazado 717643" d="M296.88,184.105l5.692,3.282.692-.415-5.678-3.282Z" transform="translate(-267.008 -180.228)" fill="#a7a9ac"/>
              <path id="Trazado_717644" data-name="Trazado 717644" d="M293.81,185.381l.734.415.706-.4,5.692,3.282.734-.429-6.426-3.7Z" transform="translate(-268.189 -179.897)" fill="#535359"/>
              <path id="Trazado_717645" data-name="Trazado 717645" d="M294.34,185.562l5.692,3.282.706-.4-5.692-3.282Z" transform="translate(-267.985 -179.662)" fill="#a7a9ac"/>
              <path id="Trazado_717646" data-name="Trazado 717646" d="M291.27,186.841l.748.429.692-.416,5.692,3.282.734-.415-6.426-3.712Z" transform="translate(-269.167 -179.335)" fill="#535359"/>
              <path id="Trazado_717647" data-name="Trazado 717647" d="M291.81,187.035l5.678,3.282.706-.415L292.5,186.62Z" transform="translate(-268.959 -179.1)" fill="#a7a9ac"/>
              <path id="Trazado_717648" data-name="Trazado 717648" d="M288.74,188.311l.734.415.706-.4,5.678,3.282.734-.429-6.412-3.7Z" transform="translate(-270.141 -178.769)" fill="#535359"/>
              <path id="Trazado_717649" data-name="Trazado 717649" d="M289.27,188.492l5.678,3.282.706-.4-5.678-3.282Z" transform="translate(-269.937 -178.534)" fill="#a7a9ac"/>
              <path id="Trazado_717650" data-name="Trazado 717650" d="M286.2,189.771l.734.429.706-.415,5.678,3.3.748-.429-6.426-3.712Z" transform="translate(-271.118 -178.207)" fill="#535359"/>
              <path id="Trazado_717651" data-name="Trazado 717651" d="M286.73,189.965l5.678,3.282.706-.4-5.678-3.3Z" transform="translate(-270.914 -177.972)" fill="#a7a9ac"/>
              <path id="Trazado_717652" data-name="Trazado 717652" d="M283.66,191.245l.734.415.706-.4,5.692,3.282.734-.429L285.1,190.4Z" transform="translate(-272.096 -177.645)" fill="#535359"/>
              <path id="Trazado_717653" data-name="Trazado 717653" d="M284.19,191.422l5.692,3.282.706-.4L284.9,191.02Z" transform="translate(-271.892 -177.406)" fill="#a7a9ac"/>
              <path id="Trazado_717654" data-name="Trazado 717654" d="M281.12,192.7l.748.429.706-.415L288.252,196l.734-.415-6.412-3.712Z" transform="translate(-273.074 -177.079)" fill="#535359"/>
              <path id="Trazado_717655" data-name="Trazado 717655" d="M281.66,192.9l5.678,3.282.706-.415-5.678-3.282Z" transform="translate(-272.866 -176.844)" fill="#a7a9ac"/>
              <path id="Trazado_717656" data-name="Trazado 717656" d="M278.59,194.171l.734.415.706-.4,5.678,3.282.734-.429-6.412-3.7Z" transform="translate(-274.048 -176.513)" fill="#535359"/>
              <path id="Trazado_717657" data-name="Trazado 717657" d="M279.12,194.352l5.678,3.282.706-.4-5.678-3.282Z" transform="translate(-273.844 -176.279)" fill="#a7a9ac"/>
              <path id="Trazado_717658" data-name="Trazado 717658" d="M276.05,195.631l.734.429.706-.415,5.692,3.282.734-.415L277.49,194.8Z" transform="translate(-275.025 -175.951)" fill="#535359"/>
              <path id="Trazado_717659" data-name="Trazado 717659" d="M276.58,195.825l5.692,3.282.706-.415-5.692-3.282Z" transform="translate(-274.821 -175.717)" fill="#a7a9ac"/>
              <path id="Trazado_717660" data-name="Trazado 717660" d="M275.31,198.127l.734.429.706-.4,3.2,1.842.734-.429-3.933-2.257Z" transform="translate(-275.31 -174.985)" fill="#535359"/>
              <path id="Trazado_717661" data-name="Trazado 717661" d="M275.84,198.322l3.2,1.842.706-.4-3.2-1.842Z" transform="translate(-275.106 -174.751)" fill="#a7a9ac"/>
            </g>
            <path id="Trazado_717662" data-name="Trazado 717662" d="M277.48,207.944l2.354,2.964,43.818-25.344L321.3,182.6Z" transform="translate(-268.575 -177.462)" fill="#bcbec0"/>
            <path id="Trazado_717663" data-name="Trazado 717663" d="M323,187.219V184.74l-43.818,25.344-.014,2.479Z" transform="translate(-267.925 -176.638)" fill="#a7a9ac"/>
            <path id="Trazado_717664" data-name="Trazado 717664" d="M279.786,205.877l.014-2.479-2.23-1.288v2.479Z" transform="translate(-268.54 -169.953)" fill="#939598"/>
          </g>
          <g id="Grupo_1008491" data-name="Grupo 1008491" transform="translate(9.265 47.683)">
            <path id="Trazado_717665" data-name="Trazado 717665" d="M271.02,193.376l3.324,1.939,2.174-1.246-3.324-1.939Z" transform="translate(-271.02 -192.13)" fill="#2a4e68"/>
            <path id="Trazado_717666" data-name="Trazado 717666" d="M275.594,199.263V193.53l-2.174,1.246v5.747Z" transform="translate(-270.096 -191.591)" fill="#1d374e"/>
            <path id="Trazado_717667" data-name="Trazado 717667" d="M274.344,200.716v-5.747l-3.324-1.939v5.747Z" transform="translate(-271.02 -191.784)" fill="#0f2034"/>
          </g>
          <g id="Grupo_1008492" data-name="Grupo 1008492" transform="translate(50.992 23.586)">
            <path id="Trazado_717668" data-name="Trazado 717668" d="M301.15,175.99l3.324,1.939,2.174-1.26-3.324-1.939Z" transform="translate(-301.15 -174.73)" fill="#2a4e68"/>
            <path id="Trazado_717669" data-name="Trazado 717669" d="M305.724,181.877V176.13l-2.174,1.26v5.733Z" transform="translate(-300.226 -174.191)" fill="#1d374e"/>
            <path id="Trazado_717670" data-name="Trazado 717670" d="M304.474,183.312v-5.733l-3.324-1.939v5.734Z" transform="translate(-301.15 -174.38)" fill="#0f2034"/>
          </g>
          <g id="Grupo_1008496" data-name="Grupo 1008496" transform="translate(24.513 51.028)">
            <g id="Grupo_1008493" data-name="Grupo 1008493" transform="translate(36.672)">
              <path id="Trazado_717671" data-name="Trazado 717671" d="M317.494,196.311a2.079,2.079,0,0,0-.942-1.634.659.659,0,0,0-.665-.069l-7.188,4.155,1.329,2.327,7.2-4.155a.68.68,0,0,0,.277-.609Z" transform="translate(-308.437 -194.546)" fill="#303033"/>
              <path id="Trazado_717672" data-name="Trazado 717672" d="M310.393,199.3c0,.609-.429.845-.942.54a2.085,2.085,0,0,1-.942-1.634c0-.6.429-.845.942-.554A2.089,2.089,0,0,1,310.393,199.3Z" transform="translate(-308.51 -193.396)" fill="#121214"/>
            </g>
            <g id="Grupo_1008494" data-name="Grupo 1008494" transform="translate(4.806 1.11)">
              <path id="Trazado_717673" data-name="Trazado 717673" d="M321.337,201.5a7.294,7.294,0,0,0-3.3-5.706,2.364,2.364,0,0,0-2.3-.249l-29.582,17.09,4.639,8.074,29.6-17.076a2.326,2.326,0,0,0,.942-2.119Z" transform="translate(-285.246 -195.347)" fill="#fff"/>
              <path id="Trazado_717674" data-name="Trazado 717674" d="M292.092,213.8c0,2.105-1.482,2.95-3.3,1.9a7.294,7.294,0,0,1-3.3-5.706c0-2.105,1.482-2.95,3.3-1.911a7.315,7.315,0,0,1,3.3,5.706Z" transform="translate(-285.5 -190.616)" fill="#bcbec0"/>
            </g>
            <g id="Grupo_1008495" data-name="Grupo 1008495" transform="translate(0 21.161)">
              <path id="Trazado_717675" data-name="Trazado 717675" d="M291.018,211.6a2.1,2.1,0,0,0-.956-1.648.659.659,0,0,0-.665-.069l-7.188,4.155,1.329,2.327,7.2-4.155a.664.664,0,0,0,.277-.609Z" transform="translate(-281.961 -209.826)" fill="#303033"/>
              <path id="Trazado_717676" data-name="Trazado 717676" d="M283.913,214.591c0,.609-.429.845-.942.554a2.089,2.089,0,0,1-.942-1.648c0-.609.429-.845.942-.54a2.085,2.085,0,0,1,.942,1.634Z" transform="translate(-282.03 -208.672)" fill="#121214"/>
            </g>
          </g>
          <g id="Grupo_1008498" data-name="Grupo 1008498" transform="translate(20.095 35.69)">
            <path id="Trazado_717677" data-name="Trazado 717677" d="M278.84,200.5s6.62,2.978,7.728,6.4-.332,3.6.429,6.384c.845,3.061,3.878,2.4,5.733,5.263l29.5-17.034c-1.856-2.867-4.889-2.188-5.733-5.263-.762-2.77.679-2.964-.429-6.384s-7.728-6.4-7.728-6.4Z" transform="translate(-278.84 -183.47)" fill="#fff"/>
            <g id="Grupo_1008497" data-name="Grupo 1008497" transform="translate(2.036 1.066)">
              <path id="Trazado_717678" data-name="Trazado 717678" d="M299.245,184.24s6.62,2.978,7.728,6.384-.332,3.615.429,6.384c.845,3.074,3.878,2.4,5.734,5.263h0a7.314,7.314,0,0,1,1.925,4.57,2.326,2.326,0,0,1-.942,2.119l-1.565.9a2.326,2.326,0,0,0,.942-2.119,7.314,7.314,0,0,0-1.925-4.57h0c-1.856-2.867-4.889-2.188-5.734-5.249-.762-2.77.679-2.978-.429-6.384s-7.728-6.4-7.728-6.4l1.565-.9Z" transform="translate(-273.624 -184.24)" fill="#24d2c1"/>
              <path id="Trazado_717679" data-name="Trazado 717679" d="M296.355,185.914s6.62,2.978,7.728,6.4-.332,3.6.429,6.384c.845,3.074,3.878,2.4,5.733,5.249h0a7.314,7.314,0,0,1,1.925,4.57,2.326,2.326,0,0,1-.942,2.119l-1.565.9a2.326,2.326,0,0,0,.942-2.119,7.314,7.314,0,0,0-1.925-4.57h0c-1.856-2.867-4.889-2.188-5.733-5.249-.762-2.77.679-2.978-.429-6.384s-7.728-6.4-7.728-6.4l1.565-.914Z" transform="translate(-274.737 -183.601)" fill="#ff9d26"/>
              <path id="Trazado_717680" data-name="Trazado 717680" d="M293.455,187.594s6.62,2.978,7.728,6.384-.332,3.615.429,6.384c.845,3.074,3.878,2.4,5.733,5.249h0a7.314,7.314,0,0,1,1.925,4.57,2.326,2.326,0,0,1-.942,2.119l-1.565.9a2.342,2.342,0,0,0,.942-2.119,7.314,7.314,0,0,0-1.925-4.57h0c-1.856-2.867-4.889-2.188-5.734-5.249-.762-2.77.679-2.978-.429-6.384s-7.728-6.384-7.728-6.384l1.565-.914Z" transform="translate(-275.853 -182.954)" fill="#24d2c1"/>
              <path id="Trazado_717681" data-name="Trazado 717681" d="M290.555,189.268s6.62,2.978,7.728,6.384-.332,3.6.429,6.384c.845,3.074,3.878,2.4,5.734,5.249h0a7.314,7.314,0,0,1,1.925,4.57,2.326,2.326,0,0,1-.942,2.119l-1.565.9a2.326,2.326,0,0,0,.942-2.119,7.314,7.314,0,0,0-1.925-4.57h0c-1.856-2.867-4.889-2.188-5.734-5.263-.762-2.77.679-2.978-.429-6.384s-7.728-6.4-7.728-6.4l1.565-.9Z" transform="translate(-276.969 -182.315)" fill="#ff9d26"/>
              <path id="Trazado_717682" data-name="Trazado 717682" d="M287.665,190.934s6.62,2.978,7.728,6.4-.332,3.6.429,6.371c.845,3.075,3.878,2.4,5.733,5.263h0a7.314,7.314,0,0,1,1.925,4.57,2.326,2.326,0,0,1-.942,2.119l-1.565.9a2.326,2.326,0,0,0,.942-2.119,7.314,7.314,0,0,0-1.925-4.57h0c-1.856-2.867-4.889-2.188-5.734-5.263-.762-2.77.679-2.978-.429-6.371s-7.728-6.4-7.728-6.4l1.565-.914Z" transform="translate(-278.081 -181.669)" fill="#24d2c1"/>
              <path id="Trazado_717683" data-name="Trazado 717683" d="M284.765,192.6s6.62,2.978,7.728,6.4-.332,3.615.429,6.384c.845,3.075,3.878,2.4,5.733,5.263h0a7.314,7.314,0,0,1,1.925,4.57,2.368,2.368,0,0,1-.942,2.133l-1.565.9a2.326,2.326,0,0,0,.942-2.119,7.314,7.314,0,0,0-1.925-4.57h0c-1.856-2.867-4.889-2.188-5.733-5.263-.762-2.77.679-2.978-.429-6.384s-7.728-6.4-7.728-6.4Z" transform="translate(-279.198 -181.022)" fill="#ff9d26"/>
              <path id="Trazado_717684" data-name="Trazado 717684" d="M281.875,194.27s6.62,2.978,7.728,6.4-.332,3.6.429,6.384c.845,3.074,3.878,2.4,5.734,5.249h0a7.314,7.314,0,0,1,1.925,4.57,2.326,2.326,0,0,1-.942,2.119l-1.565.9a2.326,2.326,0,0,0,.942-2.119,7.314,7.314,0,0,0-1.925-4.57h0c-1.856-2.867-4.889-2.188-5.733-5.249-.762-2.77.679-2.978-.429-6.384s-7.728-6.384-7.728-6.384l1.565-.914Z" transform="translate(-280.31 -180.379)" fill="#24d2c1"/>
            </g>
            <path id="Trazado_717685" data-name="Trazado 717685" d="M314.156,188.86c.512,2.424-.54,2.867.139,5.318a3.788,3.788,0,0,0,2.022,2.451l-29.5,17.034a3.788,3.788,0,0,1-2.022-2.451c-.679-2.451.374-2.894-.138-5.318Z" transform="translate(-276.639 -181.395)" opacity="0.05"/>
          </g>
          <g id="Grupo_1008499" data-name="Grupo 1008499" transform="translate(23.239 40.08)">
            <path id="Trazado_717686" data-name="Trazado 717686" d="M281.11,211.984l2.216,1.288,43.832-25.344-2.216-1.288Z" transform="translate(-281.11 -186.64)" fill="#bcbec0"/>
            <path id="Trazado_717687" data-name="Trazado 717687" d="M326.542,190.049V187.57L282.71,212.914v2.479Z" transform="translate(-280.494 -186.282)" fill="#a7a9ac"/>
            <path id="Trazado_717688" data-name="Trazado 717688" d="M283.326,208.707v-2.479l-2.216-1.288v2.479Z" transform="translate(-281.11 -179.596)" fill="#939598"/>
          </g>
          <g id="Grupo_1008500" data-name="Grupo 1008500" transform="translate(0 51.353)">
            <path id="Trazado_717689" data-name="Trazado 717689" d="M264.33,198.29l15.816,9.14,4.875,8.531v18.793l-20.69-11.938Z" transform="translate(-264.33 -193.429)" fill="#0f7338"/>
            <path id="Trazado_717690" data-name="Trazado 717690" d="M279.27,231.2l8.434-4.875V207.53L279.27,212.4Z" transform="translate(-258.58 -189.873)" fill="#128742"/>
            <path id="Trazado_717691" data-name="Trazado 717691" d="M280.625,214.776l8.434-4.875-4.875-8.531-8.434,4.875Z" transform="translate(-259.934 -192.243)" fill="#16a851"/>
            <path id="Trazado_717692" data-name="Trazado 717692" d="M280.146,208.781l-15.816-9.14,8.434-4.861,15.816,9.127Z" transform="translate(-264.33 -194.78)" fill="#1bcf64"/>
          </g>
          <g id="Grupo_1008504" data-name="Grupo 1008504" transform="translate(9.265 21.425)">
            <g id="Grupo_1008501" data-name="Grupo 1008501">
              <path id="Trazado_717693" data-name="Trazado 717693" d="M271.02,198.528l3.324,1.939,43.832-25.358-3.324-1.939Z" transform="translate(-271.02 -173.17)" fill="#2a4e68"/>
              <path id="Trazado_717694" data-name="Trazado 717694" d="M317.252,176.73v-2.16L273.42,199.928v2.147Z" transform="translate(-270.096 -172.631)" fill="#1d374e"/>
              <path id="Trazado_717695" data-name="Trazado 717695" d="M274.344,195.565v-2.147l-3.324-1.939v2.147Z" transform="translate(-271.02 -166.122)" fill="#0f2034"/>
            </g>
            <g id="Grupo_1008502" data-name="Grupo 1008502" transform="translate(3.601 2.59)">
              <path id="Trazado_717696" data-name="Trazado 717696" d="M273.62,200.024l3.185,1.856,43.209-25-3.185-1.842Z" transform="translate(-273.62 -175.04)" fill="#1d374e"/>
              <path id="Trazado_717697" data-name="Trazado 717697" d="M319.129,177.741V176.37l-43.209,25v1.357Z" transform="translate(-272.735 -174.528)" fill="#a7a9ac"/>
              <path id="Trazado_717698" data-name="Trazado 717698" d="M276.805,196.293v-1.357l-3.185-1.856v1.371Z" transform="translate(-273.62 -168.096)" fill="#0f2034"/>
            </g>
            <g id="Grupo_1008503" data-name="Grupo 1008503" transform="translate(6.495 3.725)">
              <path id="Trazado_717699" data-name="Trazado 717699" d="M275.71,201.218l3.324,1.939L322.852,177.8l-3.31-1.939Z" transform="translate(-275.71 -175.86)" fill="#2a4e68"/>
              <path id="Trazado_717700" data-name="Trazado 717700" d="M321.928,179.42v-2.16L278.11,202.618v2.147Z" transform="translate(-274.786 -175.321)" fill="#1d374e"/>
              <path id="Trazado_717701" data-name="Trazado 717701" d="M279.034,198.255v-2.147l-3.324-1.939v2.147Z" transform="translate(-275.71 -168.812)" fill="#0f2034"/>
            </g>
          </g>
        </g>
        <g id="Grupo_1013846" data-name="Grupo 1013846" transform="translate(1218.066 1694.444)">
          <path id="Trazado_717702" data-name="Trazado 717702" d="M341.477,203.45a11.88,11.88,0,0,1-10.744,0c-2.952-1.712-2.971-4.487,0-6.2a11.88,11.88,0,0,1,10.744,0C344.448,198.964,344.448,201.738,341.477,203.45Z" transform="translate(-316.328 -141.624)" opacity="0.3"/>
          <path id="Trazado_717703" data-name="Trazado 717703" d="M334.785,196.392a3.55,3.55,0,0,0-1.259.157c-.433.2-.138,1.751-.138,1.751a5.35,5.35,0,0,1,1.161,1.043c.433.551.394.787.826,1.358s1.5.826,1.771.2-1.456-1.614-1.614-2.46a9.339,9.339,0,0,0-.748-2.027Z" transform="translate(-311.703 -141.217)" fill="#535359"/>
          <path id="Trazado_717704" data-name="Trazado 717704" d="M334.785,196.262a3.551,3.551,0,0,0-1.259.157c-.433.2-.138,1.751-.138,1.751a5.35,5.35,0,0,1,1.161,1.043c.433.551.394.787.826,1.358s1.5.826,1.771.2-.315-1.968-.472-2.834S334.785,196.262,334.785,196.262Z" transform="translate(-311.703 -141.343)" fill="#fff"/>
          <path id="Trazado_717705" data-name="Trazado 717705" d="M337.669,173.59s1,.413,1.122,2.361c.1,1.653,1.141,6.1,1.24,6.946a1.949,1.949,0,0,1-1.338,2.2l-3.5.551v-2.047l1.909-.826-.708-2.735-.945-6.3,2.263-.157Z" transform="translate(-309.865 -163.282)" fill="#16a89f"/>
          <path id="Trazado_717706" data-name="Trazado 717706" d="M332.592,184.989c-.433,5.864,1.437,9.623,1.614,11.433.079.827,0,1.692.1,2.44a30.349,30.349,0,0,1,.748,11.3c-.216,1.437,2.3,2.027,2.361,1.063.335-5.766,1.318-7.537,1.161-9.327a29.218,29.218,0,0,0-.63-3.542c-.177-1.181,1.968-12.319,2.047-12.732l-3.227-3.168a47.62,47.62,0,0,0-4.191,2.519Z" transform="translate(-312.442 -154.707)" fill="#2b5e85"/>
          <path id="Trazado_717707" data-name="Trazado 717707" d="M333.875,197.965a9.523,9.523,0,0,1-4.093,1.3c-.472.059-.748,1.614.807,1.791s3.463.236,4.093.315c.649.079,2.3.728,2.893-.02.59-.767-.02-1.85-.177-2.7s-2.4-1.437-3.522-.669Z" transform="translate(-315.457 -140.016)" fill="#535359"/>
          <path id="Trazado_717708" data-name="Trazado 717708" d="M333.875,197.855a9.522,9.522,0,0,1-4.093,1.3c-.472.059-.748,1.633.807,1.791,1.555.177,3.463.236,4.093.315.649.079,2.3.728,2.893-.039s-.02-1.85-.177-2.7-2.4-1.437-3.522-.669Z" transform="translate(-315.457 -140.142)" fill="#fff"/>
          <path id="Trazado_717709" data-name="Trazado 717709" d="M330.732,186.056c-.433,5.864,1.437,9.623,1.614,11.433.079.826,0,1.712.1,2.44a25.824,25.824,0,0,1,.216,11.472c-.216.945,3.4,1.791,3.522.826.138-.964,1.043-7.242.886-9.032s-.787-2.6-.964-3.778c-.177-1.161.905-10.921.964-11.335,1.318-.689,4.27-1.968,4.565-2.657a4.941,4.941,0,0,0,.236-1.889l-5.569-.2A49.8,49.8,0,0,0,330.732,186.056Z" transform="translate(-314.242 -153.846)" fill="#3576ab"/>
          <path id="Trazado_717710" data-name="Trazado 717710" d="M332.25,173.22a31.73,31.73,0,0,1,.3,3.995v.886l2.3.748,2.775-1.5.649-2.7-.984-2.047-3.66-1.22-1,.669a4.8,4.8,0,0,1-.354,1.181Z" transform="translate(-312.71 -165.411)" fill="#f0c6b4"/>
          <path id="Trazado_717711" data-name="Trazado 717711" d="M340,173.816s-.571,1.456-3.208,1.83c-.649.1-1.751,0-1.87-.571-1.338,1.161-4.093,2.971-4.093,2.971s-1.1,1.043-1.063,1.574c.118,1.5,1.279,1.889,1.574,3.267.512,2.46.059,9.7-.059,11.177s.787,2.519,3.306,2.519,8.422-2.657,8.363-4.211c-.079-1.555-1.751-5.825-1.85-7.084s2.165-7.222,2.086-9.052a4.118,4.118,0,0,0-.905-2.657l-2.3.236Z" transform="translate(-315.111 -163.292)" fill="#24d2c1"/>
          <path id="Trazado_717712" data-name="Trazado 717712" d="M332.649,168.92a3.732,3.732,0,0,0-1.22,2.283c-.02.3-.039.728-.039,1.259,0,2.4.394,2.991.63,3.188,1.161.905,2.637-.846,2.637-.846l.1-3.581Z" transform="translate(-313.542 -167.802)" fill="#f0c6b4"/>
          <path id="Trazado_717713" data-name="Trazado 717713" d="M339.689,172.56a5.607,5.607,0,0,0-2.106-3.444,4.1,4.1,0,0,0-5.2.335c-.886,1.082-.433,3.916-.708,4.841a.929.929,0,0,1,1.437,0c.433.433.276.945,1.161,2.145s3.011.866,3.837.492,1.653-2.814,1.653-2.814l-.079-1.574Z" transform="translate(-313.262 -168.352)" fill="#603913"/>
          <path id="Trazado_717714" data-name="Trazado 717714" d="M337.149,171.55a1.24,1.24,0,1,1-1.24-1.24A1.235,1.235,0,0,1,337.149,171.55Z" transform="translate(-310.368 -166.456)" fill="#e31b25"/>
          <path id="Trazado_717715" data-name="Trazado 717715" d="M335.512,171.8c.118,1.22-2.558,5.923.807,8.462.649-1.3,3.011-4.29,2.893-5.943-.1-1.653-1.594-3.011-1.968-3.444a1.084,1.084,0,0,0-1.751.905Z" transform="translate(-310.422 -166.131)" fill="#754c29"/>
          <path id="Trazado_717716" data-name="Trazado 717716" d="M327.161,176.056s-1.082-1.928-1.22-2.2c-.354-.708-3.03.767-3.5,1.417-.492.649.669.984,1.456.748.59.3,1.456,1.633,1.81,1.712a.879.879,0,0,0,.708-.216l.748-1.476Z" transform="translate(-322.32 -163.21)" fill="#f0c6b4"/>
          <path id="Trazado_717717" data-name="Trazado 717717" d="M339.881,177.254c-.945-2.46-4.211-.118-4.211-.118s-4.506,2.617-5.175,2.873c-1.594-1.81-4.723-4.7-5.038-5.077s-1.633.984-1.181,1.574,3.562,4.723,4.093,5.392,1.378,1.574,2.657.945c1.279-.649,6.809-2.479,6.809-2.479s2.912-.826,2.027-3.129Z" transform="translate(-320.518 -162.046)" fill="#16a89f"/>
        </g>
      </g>
    </g>
  </g>
</svg>
