<svg xmlns="http://www.w3.org/2000/svg" xmlns:xlink="http://www.w3.org/1999/xlink" width="137" height="136" viewBox="0 0 137 136">
  <defs>
    <clipPath id="clip-path">
      <rect id="Rect치ngulo_347617" data-name="Rect치ngulo 347617" width="85.104" height="102.558" fill="none"/>
    </clipPath>
  </defs>
  <g id="Grupo_1023223" data-name="Grupo 1023223" transform="translate(2450.273 9806)">
    <g id="Grupo_1013935" data-name="Grupo 1013935" transform="translate(-3418.273 -11064)">
      <g id="Grupo_958245" data-name="Grupo 958245">
        <rect id="Rect치ngulo_340365" data-name="Rect치ngulo 340365" width="137" height="136" rx="12" transform="translate(968 1258)" fill="#12263f"/>
      </g>
    </g>
    <g id="Grupo_1014087" data-name="Grupo 1014087" transform="translate(-3577.249 -12133)">
      <path id="Trazado_733045" data-name="Trazado 733045" d="M413.891,270.7,376.6,248.321l67.334-40.541,39.88,23.95L417.94,273.08Z" transform="translate(771.497 2182.277)" fill="#3d556b"/>
      <g id="Grupo_1013940" data-name="Grupo 1013940" transform="translate(1721.641 12028)">
        <g id="Grupo_1013857" data-name="Grupo 1013857" transform="translate(-584.392 -9690.279)">
          <path id="Trazado_727147" data-name="Trazado 727147" d="M348.859,153.8c4.941,2.855,4.941,7.481,0,10.327s-12.95,2.855-17.891,0-4.941-7.481,0-10.327S343.918,150.946,348.859,153.8Z" transform="translate(-307.645 -112.201)" fill="#bcc5df" opacity="0.5"/>
          <g id="Grupo_1011266" data-name="Grupo 1011266" transform="translate(15.916)">
            <g id="Grupo_1011265" data-name="Grupo 1011265">
              <path id="Trazado_727148" data-name="Trazado 727148" d="M349.652,117.274l-.056,36.347c0,1.937-1.279,3.875-3.828,5.349-5.126,2.976-13.45,2.976-18.614,0-2.6-1.5-3.893-3.467-3.884-5.432l.056-36.338c0,1.956,1.3,3.921,3.884,5.414a17.474,17.474,0,0,0,6.517,2.058c.13.019.269.028.4.046a19.928,19.928,0,0,0,11.689-2.1c2.549-1.483,3.819-3.411,3.828-5.358Z" transform="translate(-323.27 -109.685)" fill="#a11019"/>
              <g id="Grupo_1011264" data-name="Grupo 1011264" transform="translate(0.009)">
                <g id="Grupo_1011263" data-name="Grupo 1011263" transform="translate(0 7.58)">
                  <path id="Trazado_727149" data-name="Trazado 727149" d="M333.968,124.788l-.056,36.347a17.785,17.785,0,0,1-6.748-2.086c-2.6-1.5-3.893-3.467-3.884-5.432l.056-36.347c0,1.965,1.289,3.93,3.884,5.432a17.514,17.514,0,0,0,6.748,2.086Z" transform="translate(-323.28 -117.27)" fill="#c31c27"/>
                </g>
                <path id="Trazado_727150" data-name="Trazado 727150" d="M345.772,111.324c5.154,2.976,5.182,7.805.056,10.781s-13.45,2.976-18.614,0-5.182-7.805-.065-10.781,13.45-2.976,18.614,0Z" transform="translate(-323.284 -109.092)" fill="#d93f48"/>
                <path id="Trazado_727151" data-name="Trazado 727151" d="M340.05,115.486c1.576.908,1.585,2.392.019,3.3a6.284,6.284,0,0,1-5.692,0c-1.576-.908-1.585-2.392-.018-3.3A6.284,6.284,0,0,1,340.05,115.486Z" transform="translate(-324.004 -109.51)" fill="#38373e"/>
              </g>
            </g>
            <path id="Trazado_727152" data-name="Trazado 727152" d="M334.81,125.38v36.356c4.329.955,15.1,2.262,21.089,3.541V128.958c-7.314,1.5-18.558-.417-21.089-3.578Z" transform="translate(-324.113 -110.282)" fill="#c31c27"/>
          </g>
          <g id="Grupo_1011277" data-name="Grupo 1011277" transform="translate(0 18.319)">
            <path id="Trazado_727153" data-name="Trazado 727153" d="M319.316,161.052c2.012,1.159,2.012,3.05,0,4.208a8.09,8.09,0,0,1-7.3,0c-2.012-1.159-2.012-3.05,0-4.208A8.09,8.09,0,0,1,319.316,161.052Z" transform="translate(-306.422 -131.143)" fill="#bcc5df" opacity="0.5"/>
            <path id="Trazado_727154" data-name="Trazado 727154" d="M325.066,167.992c2.012,1.159,2.012,3.05,0,4.208a8.09,8.09,0,0,1-7.3,0c-2.012-1.159-2.012-3.05,0-4.208A8.09,8.09,0,0,1,325.066,167.992Z" transform="translate(-306.842 -131.649)" fill="#bcc5df" opacity="0.5"/>
            <g id="Grupo_1011269" data-name="Grupo 1011269" transform="translate(4.449)">
              <path id="Trazado_727155" data-name="Trazado 727155" d="M323.517,132.768l-.028,25.928a3.116,3.116,0,0,1-1.826,2.558,9.781,9.781,0,0,1-8.9,0,3.128,3.128,0,0,1-1.854-2.6l.028-25.918a3.153,3.153,0,0,0,1.854,2.586,8.363,8.363,0,0,0,3.115.983c.065,0,.13.019.195.019a9.515,9.515,0,0,0,5.59-1.01,3.116,3.116,0,0,0,1.826-2.558Z" transform="translate(-310.901 -129.139)" fill="#ffb700"/>
              <g id="Grupo_1011268" data-name="Grupo 1011268">
                <g id="Grupo_1011267" data-name="Grupo 1011267" transform="translate(0 3.629)">
                  <path id="Trazado_727156" data-name="Trazado 727156" d="M316.008,136.367l-.028,25.928a8.39,8.39,0,0,1-3.226-1,3.128,3.128,0,0,1-1.854-2.6l.028-25.928a3.166,3.166,0,0,0,1.854,2.6,8.551,8.551,0,0,0,3.226,1Z" transform="translate(-310.9 -132.77)" fill="#ffb700"/>
                </g>
                <path id="Trazado_727157" data-name="Trazado 727157" d="M321.655,129.926c2.466,1.428,2.475,3.736.028,5.154a9.781,9.781,0,0,1-8.9,0c-2.466-1.428-2.475-3.736-.028-5.154A9.781,9.781,0,0,1,321.655,129.926Z" transform="translate(-310.902 -128.855)" fill="#fdda4c"/>
                <path id="Trazado_727158" data-name="Trazado 727158" d="M318.921,131.914a.831.831,0,0,1,0,1.576,3,3,0,0,1-2.725,0,.831.831,0,0,1,0-1.576A3,3,0,0,1,318.921,131.914Z" transform="translate(-311.245 -129.055)" fill="#38373e"/>
              </g>
            </g>
            <g id="Grupo_1011272" data-name="Grupo 1011272" transform="translate(0 6.964)">
              <path id="Trazado_727159" data-name="Trazado 727159" d="M312.96,138.479l-.018,27.309a1.709,1.709,0,0,1-.992,1.39,5.341,5.341,0,0,1-4.83,0,1.709,1.709,0,0,1-1.01-1.409l.018-27.3a1.709,1.709,0,0,0,1.01,1.409,4.687,4.687,0,0,0,1.687.538.381.381,0,0,1,.1.009,5.159,5.159,0,0,0,3.031-.547,1.7,1.7,0,0,0,.992-1.39Z" transform="translate(-306.101 -136.521)" fill="#1d2324"/>
              <g id="Grupo_1011271" data-name="Grupo 1011271">
                <g id="Grupo_1011270" data-name="Grupo 1011270" transform="translate(0 1.967)">
                  <path id="Trazado_727160" data-name="Trazado 727160" d="M308.881,140.437l-.019,27.309a4.619,4.619,0,0,1-1.752-.538,1.709,1.709,0,0,1-1.01-1.409l.019-27.309a1.709,1.709,0,0,0,1.01,1.409,4.619,4.619,0,0,0,1.752.538Z" transform="translate(-306.1 -138.49)" fill="#1d2324"/>
                </g>
                <path id="Trazado_727161" data-name="Trazado 727161" d="M311.952,136.945c1.335.769,1.344,2.021.019,2.8a5.341,5.341,0,0,1-4.83,0c-1.335-.769-1.344-2.021-.019-2.8A5.341,5.341,0,0,1,311.952,136.945Z" transform="translate(-306.102 -136.367)" fill="#242a31"/>
                <path id="Trazado_727162" data-name="Trazado 727162" d="M310.46,138.016a.45.45,0,0,1,0,.853,1.593,1.593,0,0,1-1.474,0,.45.45,0,0,1,0-.853A1.649,1.649,0,0,1,310.46,138.016Z" transform="translate(-306.288 -136.475)" fill="#38373e"/>
              </g>
            </g>
            <g id="Grupo_1011276" data-name="Grupo 1011276" transform="translate(9.464 7.407)">
              <g id="Grupo_1011275" data-name="Grupo 1011275">
                <path id="Trazado_727163" data-name="Trazado 727163" d="M328.927,140.768,328.9,166.7a3.116,3.116,0,0,1-1.826,2.558,9.781,9.781,0,0,1-8.9,0,3.128,3.128,0,0,1-1.854-2.6l.028-25.918a3.153,3.153,0,0,0,1.854,2.586,8.362,8.362,0,0,0,3.115.983c.065,0,.13.019.195.019a9.515,9.515,0,0,0,5.59-1.01,3.117,3.117,0,0,0,1.826-2.558Z" transform="translate(-316.311 -137.129)" fill="#dad0d0"/>
                <g id="Grupo_1011274" data-name="Grupo 1011274">
                  <g id="Grupo_1011273" data-name="Grupo 1011273" transform="translate(0 3.629)">
                    <path id="Trazado_727164" data-name="Trazado 727164" d="M321.418,144.357l-.028,25.928a8.389,8.389,0,0,1-3.226-1,3.128,3.128,0,0,1-1.854-2.6l.028-25.928a3.166,3.166,0,0,0,1.854,2.6,8.551,8.551,0,0,0,3.226,1Z" transform="translate(-316.31 -140.76)" fill="#f2ebeb"/>
                  </g>
                  <path id="Trazado_727165" data-name="Trazado 727165" d="M327.065,137.916c2.466,1.428,2.475,3.736.028,5.154a9.781,9.781,0,0,1-8.9,0c-2.466-1.428-2.475-3.736-.028-5.154A9.781,9.781,0,0,1,327.065,137.916Z" transform="translate(-316.312 -136.845)" fill="#fafefd"/>
                  <path id="Trazado_727166" data-name="Trazado 727166" d="M324.331,139.9a.831.831,0,0,1,0,1.576,3,3,0,0,1-2.725,0,.831.831,0,0,1,0-1.576A3,3,0,0,1,324.331,139.9Z" transform="translate(-316.655 -137.045)" fill="#38373e"/>
                </g>
              </g>
              <path id="Trazado_727167" data-name="Trazado 727167" d="M321.82,144.64v25.928c2.076.454,7.221,1.075,10.086,1.7V146.355C328.411,147.069,323.025,146.151,321.82,144.64Z" transform="translate(-316.712 -137.414)" fill="#f2ebeb"/>
            </g>
          </g>
        </g>
        <g id="Grupo_1013856" data-name="Grupo 1013856" transform="translate(-557.541 -9684.278)">
          <g id="Grupo_1013855" data-name="Grupo 1013855" clip-path="url(#clip-path)">
            <path id="Trazado_732151" data-name="Trazado 732151" d="M58.7,57.461a63.612,63.612,0,0,0-6.366,8.315l-7.661,4.436V77l.032.126L61.18,67.387a6.689,6.689,0,0,1-.4-2.412c0-3.757,2.284-8.123,5.1-9.749a4.006,4.006,0,0,1,2.093-.6V51.377A27.981,27.981,0,0,0,58.7,57.461" transform="translate(-9.478 -10.9)" fill="#262626"/>
            <path id="Trazado_732152" data-name="Trazado 732152" d="M59.69,58.458A58.587,58.587,0,0,0,53.6,66.642L45.663,71.21V78l.032.126,16.477-9.739a6.689,6.689,0,0,1-.4-2.412c0-3.757,2.284-8.123,5.1-9.749a4.006,4.006,0,0,1,2.093-.6V52.374a27.981,27.981,0,0,0-9.277,6.084" transform="translate(-9.688 -11.112)" fill="#333"/>
            <path id="Trazado_732153" data-name="Trazado 732153" d="M71.973,42.88l-1.16-.649V4.685l2.319-2.17Z" transform="translate(-15.024 -0.534)" fill="#262626"/>
            <path id="Trazado_732154" data-name="Trazado 732154" d="M74.6,42.8,72.286,44.14V4.686L74.6,2.515Z" transform="translate(-15.337 -0.534)" fill="#333"/>
            <path id="Trazado_732155" data-name="Trazado 732155" d="M67.394,0,54.632,7.29c-3.928,2.268-7.306,7.93-8.059,13.505L44.1,59.422l1.233.964,1.134-2.365,2.176-36.438C49.3,16.705,52.26,11.752,55.7,9.768l11.7-6.675Z" transform="translate(-9.357)" fill="#262626"/>
            <path id="Trazado_732156" data-name="Trazado 732156" d="M74.459.93,73.228,0,71.6.93,73.149,2.3Z" transform="translate(-15.191 0)" fill="#262626"/>
            <path id="Trazado_732157" data-name="Trazado 732157" d="M68.956,1.18,56.194,8.47c-3.928,2.268-7.306,7.929-8.059,13.505L45.668,60.347l0,.493L48.031,59.2l2.176-36.438c.659-4.878,3.615-9.831,7.052-11.816l11.7-6.675Z" transform="translate(-9.688 -0.25)" fill="#333"/>
            <path id="Trazado_732158" data-name="Trazado 732158" d="M45.931,83.555c0,3.021-1.836,6.529-4.1,7.837s-4.1-.08-4.1-3.1,1.836-6.529,4.1-7.837,4.1.08,4.1,3.1" transform="translate(-8.005 -16.965)" fill="#262626"/>
            <path id="Trazado_732159" data-name="Trazado 732159" d="M42.672,93.423,39.7,91.752,45,80.369l2.842,1.588Z" transform="translate(-8.423 -17.052)" fill="#262626"/>
            <path id="Trazado_732160" data-name="Trazado 732160" d="M49.844,85.735c0,3.02-1.836,6.529-4.1,7.837s-4.1-.08-4.1-3.1,1.836-6.529,4.1-7.837,4.1.08,4.1,3.1" transform="translate(-8.835 -17.428)" fill="#494949"/>
            <path id="Trazado_732161" data-name="Trazado 732161" d="M49.191,86.722a7.686,7.686,0,0,1-3.209,6.132c-1.773,1.023-3.21-.063-3.21-2.426a7.684,7.684,0,0,1,3.21-6.132c1.772-1.023,3.209.063,3.209,2.426" transform="translate(-9.075 -17.803)" fill="#fff"/>
            <path id="Trazado_732162" data-name="Trazado 732162" d="M48.616,87.486a5.8,5.8,0,0,1-2.422,4.627c-1.337.772-2.421-.048-2.421-1.831a5.8,5.8,0,0,1,2.421-4.627c1.338-.772,2.422.048,2.422,1.831" transform="translate(-9.287 -18.111)" fill="#262626"/>
            <path id="Trazado_732163" data-name="Trazado 732163" d="M47.52,88.937A2.208,2.208,0,0,1,46.6,90.7c-.509.294-.922-.018-.922-.7A2.21,2.21,0,0,1,46.6,88.24c.51-.294.923.018.923.7" transform="translate(-9.691 -18.698)" fill="#fff"/>
            <path id="Trazado_732164" data-name="Trazado 732164" d="M91.142,66.709,69.648,54.315a26.969,26.969,0,0,0-8.278,5.639A63.629,63.629,0,0,0,55,68.27l-6.1,3.53v6.913l9.931-5.87L77.176,84.1Z" transform="translate(-10.376 -11.524)" fill="#2d2d2d"/>
            <path id="Trazado_732165" data-name="Trazado 732165" d="M73.314,32.464l1.509-.966,1.672.966-1.929,1.691Z" transform="translate(-15.555 -6.683)" fill="#3d3d3d"/>
            <path id="Trazado_732166" data-name="Trazado 732166" d="M98.325,44.836,75.229,31.5V49.132l23.1,13.327Z" transform="translate(-15.961 -6.683)" fill="#3d3d3d"/>
            <path id="Trazado_732167" data-name="Trazado 732167" d="M89.6,18.766,66.966,5.853V6.937L89.6,20.06Z" transform="translate(-14.208 -1.242)" fill="#3d3d3d"/>
            <path id="Trazado_732168" data-name="Trazado 732168" d="M90.258,69.947l3.913-2.261L72.315,55.051l-3.663,2.4Z" transform="translate(-14.566 -11.68)" fill="#3d3d3d"/>
            <path id="Trazado_732169" data-name="Trazado 732169" d="M96.411,46.062l-23.1-13.337V50.358l23.1,13.327Z" transform="translate(-15.555 -6.943)" fill="#2d2d2d"/>
            <path id="Trazado_732170" data-name="Trazado 732170" d="M101.9,77.079c0,3.021-1.836,6.529-4.1,7.837s-4.1-.08-4.1-3.1,1.836-6.529,4.1-7.837,4.1.08,4.1,3.1" transform="translate(-19.88 -15.591)" fill="#262626"/>
            <path id="Trazado_732171" data-name="Trazado 732171" d="M98.642,86.947l-2.97-1.671,5.3-11.383,2.842,1.588Z" transform="translate(-20.298 -15.677)" fill="#262626"/>
            <path id="Trazado_732172" data-name="Trazado 732172" d="M105.814,79.259c0,3.021-1.836,6.529-4.1,7.837s-4.1-.08-4.1-3.1,1.836-6.529,4.1-7.837,4.1.08,4.1,3.1" transform="translate(-20.71 -16.054)" fill="#494949"/>
            <path id="Trazado_732173" data-name="Trazado 732173" d="M105.161,80.246a7.685,7.685,0,0,1-3.21,6.132c-1.772,1.023-3.209-.063-3.209-2.426a7.685,7.685,0,0,1,3.209-6.132c1.773-1.023,3.21.062,3.21,2.426" transform="translate(-20.95 -16.429)" fill="#fff"/>
            <path id="Trazado_732174" data-name="Trazado 732174" d="M104.586,81.009a5.8,5.8,0,0,1-2.422,4.627c-1.337.772-2.421-.048-2.421-1.831a5.8,5.8,0,0,1,2.421-4.627c1.338-.772,2.422.048,2.422,1.831" transform="translate(-21.162 -16.737)" fill="#262626"/>
            <path id="Trazado_732175" data-name="Trazado 732175" d="M103.491,82.461a2.207,2.207,0,0,1-.923,1.762c-.508.294-.922-.018-.922-.7a2.212,2.212,0,0,1,.922-1.762c.511-.294.923.018.923.7" transform="translate(-21.566 -17.324)" fill="#fff"/>
            <path id="Trazado_732176" data-name="Trazado 732176" d="M44.1,75.258v6.918L69.153,96.631V89.724Z" transform="translate(-9.357 -15.967)" fill="#f24949"/>
            <path id="Trazado_732177" data-name="Trazado 732177" d="M89.324,74.8a61.427,61.427,0,0,0-6.234,8.427l-6.331,3.513v6.879l15.046-8.894a6.709,6.709,0,0,1-.4-2.412c0-3.757,2.284-8.123,5.1-9.749a4.006,4.006,0,0,1,2.093-.6V68.715A27.981,27.981,0,0,0,89.324,74.8" transform="translate(-16.286 -14.579)" fill="#fc6460"/>
            <path id="Trazado_732178" data-name="Trazado 732178" d="M89.922,75.8A58.634,58.634,0,0,0,83.83,83.98l-7.935,4.568v6.787l.032.126L92.4,85.722A6.706,6.706,0,0,1,92,83.31c0-3.757,2.284-8.123,5.1-9.749a4.006,4.006,0,0,1,2.093-.6V69.712A27.981,27.981,0,0,0,89.922,75.8" transform="translate(-16.102 -14.791)" fill="#e83838"/>
            <path id="Trazado_732179" data-name="Trazado 732179" d="M85.13,62.4c-.359-.5-1.81-.017-2.88.43a7.983,7.983,0,0,1-1.245-.535c-.994-.574-2.974-2.282-3.969-3.038a4.446,4.446,0,0,0-4.879.2l-3.466,2c-.873-.295-1.726-.456-1.849-.01a8.206,8.206,0,0,0-.324,2.067h0a2.38,2.38,0,0,0,.534,1.5,14.915,14.915,0,0,0,3.633,2.844,20.114,20.114,0,0,0,4.027,1.579c1.183.3,3.44.628,4.878-.2L84.346,66.5a1.977,1.977,0,0,0,1.146-1.728l.017,0A3.823,3.823,0,0,0,85.13,62.4" transform="translate(-14.113 -12.437)" fill="#e83838"/>
            <path id="Trazado_732180" data-name="Trazado 732180" d="M74.844,66.719a19.67,19.67,0,0,1-3.892-1.525,17.078,17.078,0,0,1-3.511-2.75,1.729,1.729,0,0,1,.338-2.722l4.594-2.652a4.3,4.3,0,0,1,4.715-.2c.962.73,2.876,2.382,3.837,2.936.89.514,2.694.957,3.567,1.338,1.138.5,1.052,1.92-.338,2.723l-4.594,2.652c-1.39.8-3.572.487-4.715.2" transform="translate(-14.199 -11.936)" fill="#fc6460"/>
            <path id="Trazado_732181" data-name="Trazado 732181" d="M81.855,38.639l-1.658.985,1.483.985Z" transform="translate(-17.015 -8.198)" fill="#686868"/>
            <path id="Trazado_732182" data-name="Trazado 732182" d="M86.553,39.9l-2.025-1.169c-2.134-1.232-3.879.088-3.879,2.933v8.126l7.959,4.6.209,2.012,1.615-.959V47.315c0-2.845-1.745-6.181-3.879-7.413" transform="translate(-17.111 -8.12)" fill="#e83838"/>
            <path id="Trazado_732183" data-name="Trazado 732183" d="M88.382,56.657V48.532c0-2.845-1.746-6.181-3.879-7.413L82.478,39.95c-2.134-1.231-3.88.088-3.88,2.933v8.126Z" transform="translate(-16.676 -8.378)" fill="#f75757"/>
            <path id="Trazado_732184" data-name="Trazado 732184" d="M69.194,88.55l7.931-4.583L52.253,69.654,44.3,74.2Z" transform="translate(-9.398 -14.778)" fill="#fc6460"/>
            <path id="Trazado_732185" data-name="Trazado 732185" d="M75.043,33.762S73.87,33.7,72.659,35.98s-2.369,4.7-2.369,4.7A7.642,7.642,0,0,1,73.971,42.7c2.624-2.371,3.053-7.825,1.072-8.933" transform="translate(-14.913 -7.163)" fill="#9db8e0"/>
            <path id="Trazado_732186" data-name="Trazado 732186" d="M75.867,33.547A18.659,18.659,0,0,0,74.6,37.132c-.605,2.322-.388,13.114-.388,13.114A10.707,10.707,0,0,0,80.9,51.669a5.676,5.676,0,0,0,3.76-1.747s1.489-10.57,1.287-12.083-3.37-5.07-3.37-5.07-4.187-.214-6.71.779" transform="translate(-15.737 -6.948)" fill="#ccd8f2"/>
            <path id="Trazado_732187" data-name="Trazado 732187" d="M79.829,31.245l-.487,2.835s1.444,1.62,2.857.409a5.691,5.691,0,0,0,1.615-1.768l-.7-3.865Z" transform="translate(-16.834 -6.122)" fill="#ffad9f"/>
            <path id="Trazado_732188" data-name="Trazado 732188" d="M79.724,40.373s1.842-2.772,3.3-3.548a9.037,9.037,0,0,1,2.565-.952s-.645-1.067-1-1.193a7.515,7.515,0,0,0-2.535.942,9.889,9.889,0,0,0-3.321,3.341c-1.153,2.038.148,2.586.993,1.409" transform="translate(-16.607 -7.358)" fill="#4e7cc6"/>
            <path id="Trazado_732189" data-name="Trazado 732189" d="M75.8,33.685a18.3,18.3,0,0,0-1.157,3.771c-.144,1.376.13,1.8.684,1.847s.584-.933.747-2.028c.155-1.034,1.027-3.958,1.027-3.958Z" transform="translate(-15.829 -7.069)" fill="#4e7cc6"/>
            <path id="Trazado_732190" data-name="Trazado 732190" d="M58.3,80.817c-.886.864-1.16,1.112-1.982,1.915-.481.468-.085.9.83.864a16.461,16.461,0,0,0,3.645-.789,18.53,18.53,0,0,0,2.729-1.422,1.81,1.81,0,0,0,.81-1.024V78.919l-4.358.185s-.717.779-1.674,1.713" transform="translate(-11.906 -16.744)" fill="#4d4d4d"/>
            <path id="Trazado_732191" data-name="Trazado 732191" d="M69.256,85.384c-.886.864-1.16,1.112-1.982,1.914-.481.469-.085.9.83.864a16.411,16.411,0,0,0,3.645-.789,18.53,18.53,0,0,0,2.729-1.422,1.811,1.811,0,0,0,.81-1.025V82.385L70.93,83.672s-.717.779-1.674,1.713" transform="translate(-14.23 -17.479)" fill="#2d2d2d"/>
            <path id="Trazado_732192" data-name="Trazado 732192" d="M81.932,53.84s-7.918,2.349-12.318.689c-1.532.924-5.751,3.405-7.1,4.36-.833.588-1.207,1.858-1.531,4.716-.536,4.721-.928,10.112-.928,10.112a3.791,3.791,0,0,0,3.076,1.309,8.294,8.294,0,0,0,2.864-.515l.332-10.864,7.129-4.119s-4.044,2.5-4.624,4.725a21.851,21.851,0,0,0-.693,5.382c-.153,4.8-.2,7.94-.2,7.94a2.241,2.241,0,0,0,2.451,1.583,4.906,4.906,0,0,0,2.989-1.339l.433-11s5.568-3.786,7.181-5.642c1.807-2.079.944-7.336.944-7.336" transform="translate(-12.741 -11.423)" fill="#6389d3"/>
            <path id="Trazado_732193" data-name="Trazado 732193" d="M84.63,49.3a6.072,6.072,0,0,1-3.156,1.123c-1.167-.128-2.847-1.263-2.758-4.954a35.163,35.163,0,0,1,.432-5.391l-4.461-1.955a25.665,25.665,0,0,0-1.45,8.3c-.24,5.5-.34,7.4-.34,7.4a60.615,60.615,0,0,0,7.577,0,14.877,14.877,0,0,0,4.374-1.019Z" transform="translate(-15.466 -8.089)" fill="#6389d3"/>
            <path id="Trazado_732194" data-name="Trazado 732194" d="M75.641,39.3c0,.226-.126.41-.282.41s-.283-.184-.283-.41.127-.41.283-.41.282.184.282.41" transform="translate(-15.929 -8.251)" fill="#fff"/>
            <path id="Trazado_732195" data-name="Trazado 732195" d="M79.158,40.936c-.132.184-.136.407-.009.5s.336.016.468-.169.136-.407.01-.5-.336-.016-.469.168" transform="translate(-16.773 -8.641)" fill="#fff"/>
            <path id="Trazado_732196" data-name="Trazado 732196" d="M74.625,41.673c-.183.923-.73,3.792,1.187,4.32s2.245-1.42,2.59-2.779a14.931,14.931,0,0,1-3.777-1.541" transform="translate(-15.788 -8.842)" fill="#4e7cc6"/>
            <path id="Trazado_732197" data-name="Trazado 732197" d="M80.612,46.152a20,20,0,0,1-1.543,3.088A44.123,44.123,0,0,1,74.791,52.6a4.257,4.257,0,0,1,1.314,1.621,26.64,26.64,0,0,0,4.559-2.407,22.587,22.587,0,0,0,3.125-3.744s-.941-2.391-3.177-1.917" transform="translate(-15.868 -9.779)" fill="#ffc4b2"/>
            <path id="Trazado_732198" data-name="Trazado 732198" d="M86.918,37.518c-.889-.716-2.79,1.708-3.8,3.222A20.777,20.777,0,0,0,81.3,44.52s1.215.883,2.3,1.569A17.624,17.624,0,0,0,85.482,47.1s4.484-7.127,1.436-9.582" transform="translate(-17.25 -7.933)" fill="#9db8e0"/>
            <path id="Trazado_732199" data-name="Trazado 732199" d="M83.209,23.39a5.108,5.108,0,0,1-.051,5.1,6.545,6.545,0,0,1-3.988,2.525c-1.68.271-3.493-4.371-1.575-7.209a3.415,3.415,0,0,1,5.614-.414" transform="translate(-16.288 -4.69)" fill="#ffc4b2"/>
            <path id="Trazado_732200" data-name="Trazado 732200" d="M81.4,21.123a3.4,3.4,0,0,1,2.21,1.468c1.713.364,1.538,2.83,1.112,3.762-.82,1.8-1.758,1.923-1.758,1.923a2.836,2.836,0,0,0,.028-1.409c-.185-.366-.768-.429-.964.221a1.492,1.492,0,0,1-.476.047l.2-1.3a2.321,2.321,0,0,1-2.11-.147,2.124,2.124,0,0,0-2.412.09,2.546,2.546,0,0,1-.17-1.323c-.667-.466-1.3-.885-1.2-1.2a1.931,1.931,0,0,0,1.593-.15,3.809,3.809,0,0,1-.87-.992c1.171.15,3.7-1.175,4.823-.99" transform="translate(-16.091 -4.478)" fill="#262626"/>
            <path id="Trazado_732201" data-name="Trazado 732201" d="M81.519,23.469,58.885,10.556V11.64L81.519,24.763Z" transform="translate(-12.493 -2.24)" fill="#3d3d3d"/>
            <path id="Trazado_732202" data-name="Trazado 732202" d="M68.861,63.9a3.215,3.215,0,0,1-1.591-.473A8.62,8.62,0,0,1,63.6,56.462a3.486,3.486,0,0,1,1.413-3.17,2.637,2.637,0,0,1,2.7.183,8.614,8.614,0,0,1,3.665,6.963,3.488,3.488,0,0,1-1.412,3.17,2.194,2.194,0,0,1-1.106.291M66.128,53.887a1.318,1.318,0,0,0-.667.173,2.664,2.664,0,0,0-.968,2.4,7.774,7.774,0,0,0,3.221,6.2,1.777,1.777,0,0,0,1.809.181,2.665,2.665,0,0,0,.968-2.4,7.77,7.77,0,0,0-3.221-6.195,2.335,2.335,0,0,0-1.142-.355" transform="translate(-13.495 -11.245)" fill="#262626"/>
            <path id="Trazado_732203" data-name="Trazado 732203" d="M70.766,60.819l-6.429-3.711v.715l6.429,3.711Z" transform="translate(-13.65 -12.116)" fill="#262626"/>
            <path id="Trazado_732204" data-name="Trazado 732204" d="M68.585,63.406l-.458-.247V54.315l.458.264Z" transform="translate(-14.454 -11.524)" fill="#262626"/>
            <path id="Trazado_732205" data-name="Trazado 732205" d="M66.929,59.99a1.708,1.708,0,0,0-.727-1.381.521.521,0,0,0-.535-.036c-.043.024-.065.077-.1.116-.006,0-.013-.012-.02-.016s-2.31,2.444-3.782,4.183-3.935,4.277-3.935,4.277l1.257,2.7s2.891-3.757,4.9-6.1,2.748-3.182,2.748-3.182l-.009-.025a.735.735,0,0,0,.2-.537" transform="translate(-12.27 -12.415)" fill="#262626"/>
            <path id="Trazado_732206" data-name="Trazado 732206" d="M73.994,53.84a5.762,5.762,0,0,1-1.35.633,2.521,2.521,0,0,1-1.743-.137,1.327,1.327,0,0,0-1.2-.007c.124.136.387.383.387.383s-1.218.076-1.484.964c-.134.448-.043.487.279.608.04.211.017.488.459.536.1.123.454.673.733.705,1.261.143,2.434-.7,3.013-.918a16.351,16.351,0,0,0,2.362-1c-.16-.711-.922-1.249-1.451-1.767" transform="translate(-14.542 -11.423)" fill="#ffc4b2"/>
            <path id="Trazado_732207" data-name="Trazado 732207" d="M69.4,42.536a29.557,29.557,0,0,0-3.477,5.646,8.968,8.968,0,0,0-.9,3.17,2.251,2.251,0,0,0,.919,1.688.32.32,0,0,0,.5-.181,3.271,3.271,0,0,1,.707-.043c.225.035.7-.614.7-.614s-.681-.211-.584-.624a2.067,2.067,0,0,1,.374-.483l.83.444s-.6-.948-.736-1.231a1.25,1.25,0,0,1-.195-.533c-.058-.518,2.533-3.451,2.824-3.8a12.057,12.057,0,0,0,1.462-2.305,8.815,8.815,0,0,0-.924-.6,3.9,3.9,0,0,0-1.5-.537" transform="translate(-13.794 -9.025)" fill="#ffc4b2"/>
            <path id="Trazado_732208" data-name="Trazado 732208" d="M65.236,75.093,62.884,76.45l-9.461-5.479,2.338-1.356Z" transform="translate(-11.334 -14.77)" fill="#494949"/>
            <path id="Trazado_732209" data-name="Trazado 732209" d="M53.422,71.337V78.7l9.467,5.446V76.8Z" transform="translate(-11.334 -15.135)" fill="#2d2d2d"/>
            <path id="Trazado_732210" data-name="Trazado 732210" d="M67.785,76.569l-2.348,1.356v7.332L67.785,83.9Z" transform="translate(-13.884 -16.245)" fill="#262626"/>
            <path id="Trazado_732211" data-name="Trazado 732211" d="M50.907,37.134l-3.789,2.186V83.89L50.907,81.7Z" transform="translate(-9.997 -7.879)" fill="#333"/>
            <path id="Trazado_732212" data-name="Trazado 732212" d="M44.86,38.606V81.874L46.639,82.9V39.633Z" transform="translate(-9.518 -8.191)" fill="#262626"/>
            <path id="Trazado_732213" data-name="Trazado 732213" d="M50.428,36.858l-1.736-1.027L44.86,38.018l1.779,1.027Z" transform="translate(-9.518 -7.602)" fill="#494949"/>
            <path id="Trazado_732214" data-name="Trazado 732214" d="M55.5,45.219l-6.429-3.711v1.45L55.5,46.668Z" transform="translate(-10.412 -8.806)" fill="#ffc255"/>
            <path id="Trazado_732215" data-name="Trazado 732215" d="M58.672,45.621l-8.5-4.905-1.093.638,9.6,5.541Z" transform="translate(-10.412 -8.639)" fill="#ffdc6c"/>
            <path id="Trazado_732216" data-name="Trazado 732216" d="M55.5,51.642,49.075,47.93v1.45L55.5,53.091Z" transform="translate(-10.412 -10.169)" fill="#ffc255"/>
            <path id="Trazado_732217" data-name="Trazado 732217" d="M58.672,52.044l-8.5-4.905-1.093.638,9.6,5.541Z" transform="translate(-10.412 -10.001)" fill="#ffdc6c"/>
            <path id="Trazado_732218" data-name="Trazado 732218" d="M61.4,43.4l-3.789,2.186V88.849L61.4,86.664Z" transform="translate(-12.223 -9.207)" fill="#333"/>
            <path id="Trazado_732219" data-name="Trazado 732219" d="M55.351,44.868V88.136l1.779,1.026V45.894Z" transform="translate(-11.744 -9.519)" fill="#262626"/>
            <path id="Trazado_732220" data-name="Trazado 732220" d="M60.918,43.119l-1.736-1.028-3.832,2.188,1.779,1.027Z" transform="translate(-11.744 -8.93)" fill="#494949"/>
            <path id="Trazado_732221" data-name="Trazado 732221" d="M68.325,96.241c0,3.021-1.836,6.529-4.1,7.837s-4.1-.08-4.1-3.1,1.836-6.529,4.1-7.837,4.1.081,4.1,3.1" transform="translate(-12.756 -19.657)" fill="#262626"/>
            <path id="Trazado_732222" data-name="Trazado 732222" d="M65.066,106.109l-2.97-1.671,5.3-11.383,2.842,1.588Z" transform="translate(-13.175 -19.743)" fill="#262626"/>
            <path id="Trazado_732223" data-name="Trazado 732223" d="M72.238,98.421c0,3.021-1.836,6.529-4.1,7.837s-4.1-.08-4.1-3.1,1.836-6.529,4.1-7.837,4.1.08,4.1,3.1" transform="translate(-13.586 -20.119)" fill="#494949"/>
            <path id="Trazado_732224" data-name="Trazado 732224" d="M71.585,99.408a7.685,7.685,0,0,1-3.21,6.132c-1.772,1.023-3.209-.063-3.209-2.426a7.685,7.685,0,0,1,3.209-6.132c1.773-1.023,3.21.063,3.21,2.426" transform="translate(-13.826 -20.495)" fill="#fff"/>
            <path id="Trazado_732225" data-name="Trazado 732225" d="M71.01,100.172a5.8,5.8,0,0,1-2.422,4.627c-1.337.772-2.421-.048-2.421-1.831a5.8,5.8,0,0,1,2.421-4.627c1.338-.772,2.422.048,2.422,1.831" transform="translate(-14.038 -20.803)" fill="#262626"/>
            <path id="Trazado_732226" data-name="Trazado 732226" d="M69.914,101.623a2.208,2.208,0,0,1-.923,1.762c-.509.294-.922-.018-.922-.7a2.21,2.21,0,0,1,.922-1.762c.51-.294.923.018.923.7" transform="translate(-14.442 -21.39)" fill="#fff"/>
            <path id="Trazado_732227" data-name="Trazado 732227" d="M102.2,60.218l-1.16-.649V22.023l2.319-2.17Z" transform="translate(-21.438 -4.212)" fill="#262626"/>
            <path id="Trazado_732228" data-name="Trazado 732228" d="M104.835,58.808l-2.319,1.085V21.7l2.288-3.377Z" transform="translate(-21.75 -3.887)" fill="#333"/>
            <path id="Trazado_732229" data-name="Trazado 732229" d="M97.206,17.642,84.862,24.693c-3.928,2.268-7.306,7.929-8.059,13.5L74.332,76.826l1.235.674L76.7,75.425l2.176-36.439c.659-4.878,3.615-9.831,7.052-11.815l11.7-6.676.783-2.074Z" transform="translate(-15.771 -3.743)" fill="#262626"/>
            <path id="Trazado_732230" data-name="Trazado 732230" d="M99.157,18.321,86.426,25.767c-3.929,2.268-7.307,7.929-8.06,13.5L75.9,77.644l2.376-1.358L80.439,40.06c.658-4.878,3.614-9.831,7.051-11.815L99.157,21.6Z" transform="translate(-16.103 -3.887)" fill="#333"/>
            <path id="Trazado_732231" data-name="Trazado 732231" d="M43.581,67.856l-1.106.639V88.4l1.106-.439Z" transform="translate(-9.012 -14.397)" fill="#fcaa47"/>
            <path id="Trazado_732232" data-name="Trazado 732232" d="M57.561,87.519l-1.106.639L42.483,80.1l1.094-.638Z" transform="translate(-9.013 -16.858)" fill="#ffdc6c"/>
            <path id="Trazado_732233" data-name="Trazado 732233" d="M57.561,98.177l-1.106.639L42.483,90.753l1.094-.638Z" transform="translate(-9.013 -19.119)" fill="#494949"/>
            <path id="Trazado_732234" data-name="Trazado 732234" d="M56.108,76.409,40.849,67.6v1.45l15.26,8.81Z" transform="translate(-8.667 -14.342)" fill="#ffc255"/>
            <path id="Trazado_732235" data-name="Trazado 732235" d="M57.561,81.644l-1.106.639L42.483,74.221l1.094-.639Z" transform="translate(-9.013 -15.612)" fill="#ffdc6c"/>
            <path id="Trazado_732236" data-name="Trazado 732236" d="M61.324,77.971l-1.106.639V98.718l1.106-.639Z" transform="translate(-12.776 -16.543)" fill="#fcaa47"/>
            <path id="Trazado_732237" data-name="Trazado 732237" d="M57.214,75.6l-1.106.639-15.26-8.81,1.094-.638Z" transform="translate(-8.667 -14.17)" fill="#ffdc6c"/>
            <path id="Trazado_732238" data-name="Trazado 732238" d="M56.108,82.253l-15.26-8.81v1.45l15.26,8.81Z" transform="translate(-8.667 -15.582)" fill="#ffc255"/>
            <path id="Trazado_732239" data-name="Trazado 732239" d="M56.108,88.129l-15.26-8.81v1.45l15.26,8.81Z" transform="translate(-8.667 -16.829)" fill="#ffc255"/>
            <path id="Trazado_732240" data-name="Trazado 732240" d="M42.13,88.412l-1.281-.694V67.9l1.281.74Z" transform="translate(-8.667 -14.406)" fill="#ffc255"/>
            <path id="Trazado_732241" data-name="Trazado 732241" d="M59.873,98.736,58.592,98V78.059l1.281.74Z" transform="translate(-12.431 -16.561)" fill="#ffc255"/>
            <path id="Trazado_732242" data-name="Trazado 732242" d="M56.108,98.731l-15.26-8.743v2.187l15.26,8.743Z" transform="translate(-8.667 -19.092)" fill="#262626"/>
            <path id="Trazado_732243" data-name="Trazado 732243" d="M52.517,104.093l-30.041,17.3-3.769-2.176,30.041-17.3Z" transform="translate(-3.969 -21.623)" fill="#494949"/>
            <path id="Trazado_732244" data-name="Trazado 732244" d="M23.491,121.743v-.867l30.041-17.285v.857Z" transform="translate(-4.984 -21.978)" fill="#262626"/>
            <path id="Trazado_732245" data-name="Trazado 732245" d="M18.707,122.769v.867l3.769,2.176v-.867Z" transform="translate(-3.969 -26.047)" fill="#333"/>
            <path id="Trazado_732246" data-name="Trazado 732246" d="M52.517,102.992l-30.041,17.3-3.769-2.176,30.041-17.3Z" transform="translate(-3.969 -21.39)" fill="#494949"/>
            <path id="Trazado_732247" data-name="Trazado 732247" d="M36.571,94.809,6.53,112.1l-3.769-2.176L32.8,92.633Z" transform="translate(-0.586 -19.654)" fill="#494949"/>
            <path id="Trazado_732248" data-name="Trazado 732248" d="M7.545,112.46v-.867L37.586,94.308v.857Z" transform="translate(-1.601 -20.009)" fill="#262626"/>
            <path id="Trazado_732249" data-name="Trazado 732249" d="M2.761,113.486v.867l3.769,2.176v-.867Z" transform="translate(-0.586 -24.078)" fill="#333"/>
            <path id="Trazado_732250" data-name="Trazado 732250" d="M36.571,93.709,6.53,111l-3.769-2.176L32.8,91.533Z" transform="translate(-0.586 -19.42)" fill="#494949"/>
            <path id="Trazado_732251" data-name="Trazado 732251" d="M82.686,22.884,59.062,9.264,57.97,9.9,81.607,23.535Z" transform="translate(-12.299 -1.965)" fill="#262626"/>
            <path id="Trazado_732252" data-name="Trazado 732252" d="M90.767,18.181,67.143,4.561,66.051,5.2,89.688,18.833Z" transform="translate(-14.014 -0.968)" fill="#262626"/>
            <path id="Trazado_732253" data-name="Trazado 732253" d="M96.575,14.65,74.087,1.82V2.9L95.423,15.275Z" transform="translate(-15.719 -0.386)" fill="#3d3d3d"/>
            <path id="Trazado_732254" data-name="Trazado 732254" d="M98.39,14.434,73.373,0,72.285.652,97.293,15.075Z" transform="translate(-15.336 0)" fill="#262626"/>
            <path id="Trazado_732255" data-name="Trazado 732255" d="M61.859,9.512A3.457,3.457,0,0,0,59.1,8.493a3.458,3.458,0,0,0-2.764,1.019h-.181v.513c0,.847,1.319,1.532,2.945,1.532s2.944-.685,2.944-1.532V9.512Z" transform="translate(-11.913 -1.802)" fill="#3d3d3d"/>
            <path id="Trazado_732256" data-name="Trazado 732256" d="M62.04,9.374c0,.848-1.318,1.534-2.944,1.534s-2.945-.686-2.945-1.534S57.47,7.841,59.1,7.841s2.944.687,2.944,1.533" transform="translate(-11.913 -1.664)" fill="#5b5b5b"/>
            <path id="Trazado_732257" data-name="Trazado 732257" d="M61.246,2.922h-4.01l-.4,5.282c0,.693,1.077,1.253,2.407,1.253S61.648,8.9,61.648,8.2Z" transform="translate(-12.058 -0.62)" fill="#e83838"/>
            <path id="Trazado_732258" data-name="Trazado 732258" d="M61.354,2.641c0,.577-.9,1.044-2.005,1.044s-2.005-.467-2.005-1.044.9-1.044,2.005-1.044,2.005.467,2.005,1.044" transform="translate(-12.166 -0.339)" fill="#fc6460"/>
            <path id="Trazado_732259" data-name="Trazado 732259" d="M60.885,2.749c0,.392-.611.71-1.363.71s-1.363-.318-1.363-.71.61-.71,1.363-.71,1.363.318,1.363.71" transform="translate(-12.339 -0.433)" fill="#e83838"/>
            <path id="Trazado_732260" data-name="Trazado 732260" d="M53.585,109.353l-22.17,12.811.691.434,22.235-12.841Z" transform="translate(-6.665 -23.201)" fill="#ffc255"/>
            <path id="Trazado_732261" data-name="Trazado 732261" d="M54.527,109.864,32.292,122.7v3.164l22.235-12.839Z" transform="translate(-6.851 -23.309)" fill="#ef9533"/>
            <path id="Trazado_732262" data-name="Trazado 732262" d="M31.415,128.812v-3.2l.691.431v3.164Z" transform="translate(-6.665 -26.651)" fill="#fcaa47"/>
            <path id="Trazado_732263" data-name="Trazado 732263" d="M22.17,91.132,0,103.943l.691.434L22.926,91.537Z" transform="translate(0 -19.335)" fill="#ffc255"/>
            <path id="Trazado_732264" data-name="Trazado 732264" d="M23.112,91.643.877,104.483v3.164L23.112,94.807Z" transform="translate(-0.186 -19.444)" fill="#ef9533"/>
            <path id="Trazado_732265" data-name="Trazado 732265" d="M0,110.591v-3.2l.691.431v3.163Z" transform="translate(0 -22.785)" fill="#fcaa47"/>
            <path id="Trazado_732266" data-name="Trazado 732266" d="M37.422,99.794,15.253,112.6l.691.434L38.179,100.2Z" transform="translate(-3.236 -21.173)" fill="#ffc255"/>
            <path id="Trazado_732267" data-name="Trazado 732267" d="M38.365,100.3,16.13,113.144v3.164l22.235-12.839Z" transform="translate(-3.422 -21.281)" fill="#ef9533"/>
            <path id="Trazado_732268" data-name="Trazado 732268" d="M15.252,119.253v-3.2l.691.431v3.164Z" transform="translate(-3.236 -24.623)" fill="#fcaa47"/>
            <path id="Trazado_732269" data-name="Trazado 732269" d="M25.441,120.978,0,106.288v1.023L25.441,122Z" transform="translate(0 -22.551)" fill="#fcaa47"/>
            <path id="Trazado_732270" data-name="Trazado 732270" d="M28.108,119.085l-2.667,1.491L0,105.887,2.654,104.4Z" transform="translate(0 -22.149)" fill="#ffc255"/>
            <path id="Trazado_732271" data-name="Trazado 732271" d="M34.959,123.041l-2.667,1.491v1.907l2.667-1.553Z" transform="translate(-6.851 -26.105)" fill="#ef9533"/>
            <path id="Trazado_732272" data-name="Trazado 732272" d="M31.719,117.25,6.206,102.5v1.023l25.513,14.751Z" transform="translate(-1.317 -21.747)" fill="#fcaa47"/>
            <path id="Trazado_732273" data-name="Trazado 732273" d="M34.386,115.357l-2.667,1.491L6.206,102.1l2.653-1.491Z" transform="translate(-1.317 -21.345)" fill="#ffc255"/>
            <path id="Trazado_732274" data-name="Trazado 732274" d="M41.257,119.329l-2.667,1.491v1.907l2.667-1.553Z" transform="translate(-8.188 -25.318)" fill="#ef9533"/>
            <path id="Trazado_732275" data-name="Trazado 732275" d="M38.152,113.587,12.579,98.805v1.023l25.572,14.783Z" transform="translate(-2.669 -20.963)" fill="#fcaa47"/>
            <path id="Trazado_732276" data-name="Trazado 732276" d="M40.819,111.695l-2.667,1.491L12.579,98.4l2.653-1.491Z" transform="translate(-2.669 -20.562)" fill="#ffc255"/>
            <path id="Trazado_732277" data-name="Trazado 732277" d="M47.705,115.675l-2.667,1.491v1.907l2.667-1.553Z" transform="translate(-9.556 -24.542)" fill="#ef9533"/>
            <path id="Trazado_732278" data-name="Trazado 732278" d="M44.466,109.9,18.952,95.212v1.023l25.513,14.689Z" transform="translate(-4.021 -20.201)" fill="#fcaa47"/>
            <path id="Trazado_732279" data-name="Trazado 732279" d="M47.132,108.009,44.466,109.5,18.952,94.811l2.653-1.491Z" transform="translate(-4.021 -19.799)" fill="#ffc255"/>
            <path id="Trazado_732280" data-name="Trazado 732280" d="M54,111.964l-2.667,1.491v1.907L54,113.809Z" transform="translate(-10.892 -23.755)" fill="#ef9533"/>
            <path id="Trazado_732281" data-name="Trazado 732281" d="M50.243,106.63,24.669,91.877V92.9l25.574,14.754Z" transform="translate(-5.234 -19.493)" fill="#fcaa47"/>
            <path id="Trazado_732282" data-name="Trazado 732282" d="M52.91,104.737l-2.667,1.491L24.669,91.475l2.653-1.491Z" transform="translate(-5.234 -19.092)" fill="#ffc255"/>
            <path id="Trazado_732283" data-name="Trazado 732283" d="M59.8,108.71,57.13,110.2v1.907l2.667-1.553Z" transform="translate(-12.121 -23.065)" fill="#ef9533"/>
            <path id="Trazado_732284" data-name="Trazado 732284" d="M19.759,62.193l-.037-.021,0,0c-1.869-.913-4.238-.74-6.816.749C6.87,66.408,1.978,75.755,1.978,83.8c0,4.334,1.42,7.4,3.673,8.771l36.043,20.659L55.761,82.854s-35.809-20.564-36-20.66" transform="translate(-0.42 -13.073)" fill="#e1e9f9"/>
            <path id="Trazado_732285" data-name="Trazado 732285" d="M69.317,97.3c0,8.046-4.892,17.393-10.926,20.877s-10.926-.214-10.926-8.26S52.356,92.525,58.39,89.04s10.926.214,10.926,8.26" transform="translate(-10.07 -18.613)" fill="#ccd8f2"/>
            <path id="Trazado_732286" data-name="Trazado 732286" d="M68.267,100.563c0,5.912-3.594,12.779-8.028,15.339s-8.028-.158-8.028-6.069,3.594-12.779,8.028-15.338,8.028.157,8.028,6.069" transform="translate(-11.077 -19.844)" fill="#b1c4e5"/>
            <path id="Trazado_732287" data-name="Trazado 732287" d="M66.716,103.565c0,3.893-2.367,8.416-5.286,10.1s-5.287-.1-5.287-4,2.367-8.415,5.287-10.1,5.286.1,5.286,4" transform="translate(-11.911 -20.99)" fill="#9db8e0"/>
            <path id="Trazado_732288" data-name="Trazado 732288" d="M63.321,106.613a.8.8,0,0,0-.767.08,2.978,2.978,0,0,0-1.244,2.376,1.1,1.1,0,0,0,.427,1l2.962,1.695,1.5-3.506Z" transform="translate(-13.008 -22.606)" fill="#969696"/>
            <path id="Trazado_732289" data-name="Trazado 732289" d="M67.51,109.746a2.978,2.978,0,0,1-1.244,2.376c-.686.4-1.243-.024-1.243-.94a2.978,2.978,0,0,1,1.243-2.376c.687-.4,1.244.024,1.244.94" transform="translate(-13.796 -23.053)" fill="#afafaf"/>
            <path id="Trazado_732290" data-name="Trazado 732290" d="M67.142,110.312a1.684,1.684,0,0,1-.7,1.344c-.388.225-.7-.013-.7-.532a1.686,1.686,0,0,1,.7-1.344c.388-.225.7.013.7.532" transform="translate(-13.947 -23.274)" fill="#3d3d3d"/>
            <path id="Trazado_732291" data-name="Trazado 732291" d="M19.4,62.079c-4.548-2.525-9.6,0-13.563,4.51A33.75,33.75,0,0,0,.293,75.923l36,20.662A33.713,33.713,0,0,1,41.84,87.25c3.962-4.508,9.014-7.035,13.563-4.51-5.908-3.392-36.411-20.9-36-20.66" transform="translate(-0.062 -12.959)" fill="#ccd8f2"/>
          </g>
        </g>
      </g>
    </g>
  </g>
</svg>
