<svg xmlns="http://www.w3.org/2000/svg" xmlns:xlink="http://www.w3.org/1999/xlink" width="137" height="136" viewBox="0 0 137 136">
  <defs>
    <clipPath id="clip-path">
      <path id="Trazado_726709" data-name="Trazado 726709" d="M440.11,76.052l6.152-3.578a1.193,1.193,0,0,1,1.187.113L441.3,76.165A1.172,1.172,0,0,0,440.11,76.052Z" transform="translate(-440.11 -72.363)" fill="none"/>
    </clipPath>
    <clipPath id="clip-path-2">
      <path id="Trazado_726715" data-name="Trazado 726715" d="M445.532,76.575l-6.152,3.578a1.165,1.165,0,0,0,.489-1.065,3.672,3.672,0,0,0-1.658-2.88l6.152-3.578a3.662,3.662,0,0,1,1.658,2.88A1.147,1.147,0,0,1,445.532,76.575Z" transform="translate(-438.21 -72.63)" fill="none"/>
    </clipPath>
    <clipPath id="clip-path-3">
      <path id="Trazado_726721" data-name="Trazado 726721" d="M445.84,90.036l36.906-21.442c1.213-.707,2.9-.6,4.747.463L450.587,90.5C448.729,89.425,447.053,89.329,445.84,90.036Z" transform="translate(-445.84 -68.144)" fill="#15d9fd"/>
    </clipPath>
    <clipPath id="clip-path-4">
      <path id="Trazado_726728" data-name="Trazado 726728" d="M479.819,84.984l-36.906,21.442c1.2-.7,1.937-2.173,1.946-4.285a14.677,14.677,0,0,0-6.65-11.519L475.116,69.18a14.631,14.631,0,0,1,6.65,11.519c0,2.1-.75,3.587-1.946,4.285Z" transform="translate(-438.21 -69.18)" fill="#15d9fd"/>
    </clipPath>
    <clipPath id="clip-path-5">
      <path id="Trazado_726734" data-name="Trazado 726734" d="M488.24,103.8l6.152-3.578a1.193,1.193,0,0,1,1.187.113l-6.152,3.578A1.172,1.172,0,0,0,488.24,103.8Z" transform="translate(-488.24 -100.113)" fill="none"/>
    </clipPath>
    <clipPath id="clip-path-6">
      <path id="Trazado_726740" data-name="Trazado 726740" d="M493.662,104.325l-6.152,3.578a1.165,1.165,0,0,0,.489-1.065,3.672,3.672,0,0,0-1.658-2.88l6.152-3.578a3.662,3.662,0,0,1,1.658,2.88A1.147,1.147,0,0,1,493.662,104.325Z" transform="translate(-486.34 -100.38)" fill="none"/>
    </clipPath>
    <clipPath id="clip-path-7">
      <path id="Trazado_726745" data-name="Trazado 726745" d="M440.11,54.562l6.152-3.578a1.193,1.193,0,0,1,1.187.113L441.3,54.675A1.172,1.172,0,0,0,440.11,54.562Z" transform="translate(-440.11 -50.873)" fill="none"/>
    </clipPath>
    <clipPath id="clip-path-8">
      <path id="Trazado_726751" data-name="Trazado 726751" d="M445.532,55.085l-6.152,3.578a1.165,1.165,0,0,0,.489-1.065,3.672,3.672,0,0,0-1.658-2.88l6.152-3.578a3.662,3.662,0,0,1,1.658,2.88A1.147,1.147,0,0,1,445.532,55.085Z" transform="translate(-438.21 -51.14)" fill="none"/>
    </clipPath>
    <clipPath id="clip-path-9">
      <path id="Trazado_726757" data-name="Trazado 726757" d="M445.84,68.546,482.746,47.1c1.213-.707,2.9-.6,4.747.463L450.587,69.009C448.729,67.935,447.053,67.839,445.84,68.546Z" transform="translate(-445.84 -46.654)" fill="#1d2324"/>
    </clipPath>
    <clipPath id="clip-path-10">
      <path id="Trazado_726764" data-name="Trazado 726764" d="M479.819,63.494,442.914,84.936c1.2-.7,1.937-2.173,1.946-4.285a14.677,14.677,0,0,0-6.65-11.519L475.116,47.69a14.631,14.631,0,0,1,6.65,11.519c0,2.1-.75,3.587-1.946,4.285Z" transform="translate(-438.21 -47.69)" fill="#1d2324"/>
    </clipPath>
    <clipPath id="clip-path-11">
      <path id="Trazado_726770" data-name="Trazado 726770" d="M488.24,82.312l6.152-3.578a1.193,1.193,0,0,1,1.187.113l-6.152,3.578A1.172,1.172,0,0,0,488.24,82.312Z" transform="translate(-488.24 -78.623)" fill="none"/>
    </clipPath>
    <clipPath id="clip-path-12">
      <path id="Trazado_726776" data-name="Trazado 726776" d="M493.662,82.835l-6.152,3.578A1.165,1.165,0,0,0,488,85.348a3.672,3.672,0,0,0-1.658-2.88l6.152-3.578a3.662,3.662,0,0,1,1.658,2.88A1.147,1.147,0,0,1,493.662,82.835Z" transform="translate(-486.34 -78.89)" fill="none"/>
    </clipPath>
    <clipPath id="clip-path-13">
      <path id="Trazado_726781" data-name="Trazado 726781" d="M440.11,33.072l6.152-3.578a1.193,1.193,0,0,1,1.187.113L441.3,33.185a1.172,1.172,0,0,0-1.187-.113Z" transform="translate(-440.11 -29.383)" fill="none"/>
    </clipPath>
    <clipPath id="clip-path-14">
      <path id="Trazado_726787" data-name="Trazado 726787" d="M445.532,33.595l-6.152,3.578a1.165,1.165,0,0,0,.489-1.065,3.672,3.672,0,0,0-1.658-2.88l6.152-3.578a3.662,3.662,0,0,1,1.658,2.88A1.147,1.147,0,0,1,445.532,33.595Z" transform="translate(-438.21 -29.65)" fill="none"/>
    </clipPath>
    <clipPath id="clip-path-15">
      <path id="Trazado_726793" data-name="Trazado 726793" d="M445.84,47.056l36.906-21.442c1.213-.707,2.9-.6,4.747.463L450.587,47.519C448.729,46.445,447.053,46.349,445.84,47.056Z" transform="translate(-445.84 -25.164)" fill="#c31c27"/>
    </clipPath>
    <clipPath id="clip-path-16">
      <path id="Trazado_726800" data-name="Trazado 726800" d="M479.819,42,442.914,63.446c1.2-.7,1.937-2.173,1.946-4.285a14.677,14.677,0,0,0-6.65-11.519L475.116,26.2a14.631,14.631,0,0,1,6.65,11.519c0,2.1-.75,3.587-1.946,4.285Z" transform="translate(-438.21 -26.2)" fill="#c31c27"/>
    </clipPath>
    <clipPath id="clip-path-17">
      <path id="Trazado_726806" data-name="Trazado 726806" d="M488.24,60.822l6.152-3.578a1.193,1.193,0,0,1,1.187.113l-6.152,3.578A1.172,1.172,0,0,0,488.24,60.822Z" transform="translate(-488.24 -57.133)" fill="none"/>
    </clipPath>
    <clipPath id="clip-path-18">
      <path id="Trazado_726812" data-name="Trazado 726812" d="M493.662,61.345l-6.152,3.578A1.165,1.165,0,0,0,488,63.858a3.672,3.672,0,0,0-1.658-2.88l6.152-3.578a3.662,3.662,0,0,1,1.658,2.88A1.147,1.147,0,0,1,493.662,61.345Z" transform="translate(-486.34 -57.4)" fill="none"/>
    </clipPath>
    <clipPath id="clip-path-19">
      <path id="Trazado_726817" data-name="Trazado 726817" d="M440.11,11.582,446.262,8a1.193,1.193,0,0,1,1.187.113L441.3,11.7A1.172,1.172,0,0,0,440.11,11.582Z" transform="translate(-440.11 -7.893)" fill="none"/>
    </clipPath>
    <clipPath id="clip-path-20">
      <path id="Trazado_726823" data-name="Trazado 726823" d="M445.532,12.1l-6.152,3.578a1.165,1.165,0,0,0,.489-1.065,3.672,3.672,0,0,0-1.658-2.88l6.152-3.578a3.662,3.662,0,0,1,1.658,2.88A1.147,1.147,0,0,1,445.532,12.1Z" transform="translate(-438.21 -8.16)" fill="none"/>
    </clipPath>
    <clipPath id="clip-path-21">
      <path id="Trazado_726829" data-name="Trazado 726829" d="M445.84,25.566,482.746,4.124c1.213-.707,2.9-.6,4.747.463L450.587,26.029C448.729,24.955,447.053,24.859,445.84,25.566Z" transform="translate(-445.84 -3.674)" fill="#fbc70e"/>
    </clipPath>
    <clipPath id="clip-path-22">
      <path id="Trazado_726836" data-name="Trazado 726836" d="M479.819,20.514,442.914,41.956c1.2-.7,1.937-2.173,1.946-4.285a14.677,14.677,0,0,0-6.65-11.519L475.116,4.71a14.631,14.631,0,0,1,6.65,11.519C481.766,18.333,481.015,19.816,479.819,20.514Z" transform="translate(-438.21 -4.71)" fill="#fbc70e"/>
    </clipPath>
    <clipPath id="clip-path-23">
      <path id="Trazado_726842" data-name="Trazado 726842" d="M488.24,39.332l6.152-3.578a1.193,1.193,0,0,1,1.187.113l-6.152,3.578A1.172,1.172,0,0,0,488.24,39.332Z" transform="translate(-488.24 -35.643)" fill="none"/>
    </clipPath>
    <clipPath id="clip-path-24">
      <path id="Trazado_726848" data-name="Trazado 726848" d="M493.662,39.855l-6.152,3.578A1.165,1.165,0,0,0,488,42.368a3.672,3.672,0,0,0-1.658-2.88l6.152-3.578a3.662,3.662,0,0,1,1.658,2.88A1.147,1.147,0,0,1,493.662,39.855Z" transform="translate(-486.34 -35.91)" fill="none"/>
    </clipPath>
  </defs>
  <g id="Grupo_1023220" data-name="Grupo 1023220" transform="translate(2450.273 10799)">
    <g id="Grupo_1013832" data-name="Grupo 1013832" transform="translate(-3418.273 -12057)">
      <g id="Grupo_958245" data-name="Grupo 958245">
        <rect id="Rectángulo_340365" data-name="Rectángulo 340365" width="137" height="136" rx="12" transform="translate(968 1258)" fill="#12263f"/>
      </g>
    </g>
    <g id="Grupo_1014090" data-name="Grupo 1014090" transform="translate(-3575 -12108)">
      <g id="Grupo_1013905" data-name="Grupo 1013905" transform="translate(1184.924 1351.115)">
        <path id="Trazado_727147" data-name="Trazado 727147" d="M330.569,153.571c-4.409,2.548-4.409,6.676,0,9.215a17.63,17.63,0,0,0,15.966,0c4.409-2.548,4.409-6.676,0-9.215A17.63,17.63,0,0,0,330.569,153.571Z" transform="translate(-324.779 -116.447)" fill="#bcc5df" opacity="0.5"/>
        <g id="Grupo_1011266" data-name="Grupo 1011266" transform="translate(0 0)">
          <g id="Grupo_1011265" data-name="Grupo 1011265" transform="translate(4.823)">
            <path id="Trazado_727148" data-name="Trazado 727148" d="M323.27,117.266l.05,32.436c0,1.729,1.142,3.458,3.416,4.773,4.575,2.655,12,2.655,16.611,0,2.316-1.34,3.474-3.094,3.466-4.848l-.05-32.428c0,1.745-1.158,3.5-3.466,4.831a15.594,15.594,0,0,1-5.815,1.836c-.116.017-.24.025-.356.041a17.784,17.784,0,0,1-10.431-1.878c-2.275-1.324-3.408-3.044-3.416-4.781Z" transform="translate(-323.27 -110.493)" fill="#a11019"/>
            <g id="Grupo_1011264" data-name="Grupo 1011264" transform="translate(0.001)">
              <g id="Grupo_1011263" data-name="Grupo 1011263" transform="translate(13.996 6.765)">
                <path id="Trazado_727149" data-name="Trazado 727149" d="M323.28,123.979l.05,32.436a15.872,15.872,0,0,0,6.022-1.861c2.316-1.34,3.474-3.094,3.466-4.848l-.05-32.436c0,1.754-1.15,3.507-3.466,4.848a15.63,15.63,0,0,1-6.022,1.861Z" transform="translate(-323.28 -117.27)" fill="#c31c27"/>
              </g>
              <path id="Trazado_727150" data-name="Trazado 727150" d="M326.8,111.084c-4.6,2.655-4.624,6.965-.05,9.621s12,2.655,16.611,0,4.624-6.965.058-9.621-12-2.655-16.611,0Z" transform="translate(-323.33 -109.092)" fill="#d93f48"/>
              <path id="Trazado_727151" data-name="Trazado 727151" d="M334.249,115.413c-1.406.811-1.415,2.134-.017,2.945a5.608,5.608,0,0,0,5.079,0c1.406-.811,1.415-2.134.017-2.945A5.608,5.608,0,0,0,334.249,115.413Z" transform="translate(-325.034 -110.079)" fill="#38373e"/>
            </g>
          </g>
          <path id="Trazado_727152" data-name="Trazado 727152" d="M353.63,125.38v32.444c-3.863.852-13.476,2.018-18.82,3.16V128.573c6.527,1.34,16.561-.372,18.82-3.193Z" transform="translate(-334.81 -111.906)" fill="#c31c27"/>
        </g>
        <g id="Grupo_1011277" data-name="Grupo 1011277" transform="translate(20.565 16.348)">
          <path id="Trazado_727153" data-name="Trazado 727153" d="M311.859,160.958c-1.8,1.034-1.8,2.722,0,3.756a7.219,7.219,0,0,0,6.51,0c1.8-1.034,1.8-2.722,0-3.756A7.219,7.219,0,0,0,311.859,160.958Z" transform="translate(-301.361 -134.267)" fill="#bcc5df" opacity="0.5"/>
          <path id="Trazado_727154" data-name="Trazado 727154" d="M317.609,167.9c-1.8,1.034-1.8,2.722,0,3.756a7.219,7.219,0,0,0,6.51,0c1.8-1.034,1.8-2.722,0-3.756A7.219,7.219,0,0,0,317.609,167.9Z" transform="translate(-311.868 -135.466)" fill="#bcc5df" opacity="0.5"/>
          <g id="Grupo_1011269" data-name="Grupo 1011269" transform="translate(6.775)">
            <path id="Trazado_727155" data-name="Trazado 727155" d="M310.91,132.765l.025,23.138a2.781,2.781,0,0,0,1.63,2.283,8.729,8.729,0,0,0,7.941,0,2.792,2.792,0,0,0,1.654-2.316l-.025-23.129a2.814,2.814,0,0,1-1.654,2.308,7.463,7.463,0,0,1-2.78.877c-.058,0-.116.017-.174.017a8.491,8.491,0,0,1-4.988-.9,2.781,2.781,0,0,1-1.63-2.283Z" transform="translate(-310.91 -129.526)" fill="#ffb700"/>
            <g id="Grupo_1011268" data-name="Grupo 1011268" transform="translate(0.006)">
              <g id="Grupo_1011267" data-name="Grupo 1011267" transform="translate(6.694 3.239)">
                <path id="Trazado_727156" data-name="Trazado 727156" d="M310.9,135.98l.025,23.138a7.487,7.487,0,0,0,2.879-.893,2.792,2.792,0,0,0,1.654-2.316l-.025-23.138a2.825,2.825,0,0,1-1.654,2.316,7.631,7.631,0,0,1-2.879.893Z" transform="translate(-310.9 -132.77)" fill="#ffb700"/>
              </g>
              <path id="Trazado_727157" data-name="Trazado 727157" d="M312.584,129.81c-2.2,1.274-2.209,3.334-.025,4.6a8.729,8.729,0,0,0,7.941,0c2.2-1.274,2.209-3.334.025-4.6A8.729,8.729,0,0,0,312.584,129.81Z" transform="translate(-310.927 -128.855)" fill="#fdda4c"/>
              <path id="Trazado_727158" data-name="Trazado 727158" d="M316.134,131.879a.742.742,0,0,0,0,1.406,2.681,2.681,0,0,0,2.432,0,.742.742,0,0,0,0-1.406A2.681,2.681,0,0,0,316.134,131.879Z" transform="translate(-311.731 -129.327)" fill="#38373e"/>
            </g>
          </g>
          <g id="Grupo_1011272" data-name="Grupo 1011272" transform="translate(15.883 6.215)">
            <path id="Trazado_727159" data-name="Trazado 727159" d="M306.11,138.478l.017,24.37a1.525,1.525,0,0,0,.885,1.241,4.766,4.766,0,0,0,4.31,0,1.525,1.525,0,0,0,.9-1.257l-.017-24.362a1.525,1.525,0,0,1-.9,1.257,4.182,4.182,0,0,1-1.506.48.34.34,0,0,0-.091.008,4.6,4.6,0,0,1-2.705-.488,1.515,1.515,0,0,1-.885-1.241Z" transform="translate(-306.11 -136.731)" fill="#1d2324"/>
            <g id="Grupo_1011271" data-name="Grupo 1011271" transform="translate(0.003)">
              <g id="Grupo_1011270" data-name="Grupo 1011270" transform="translate(3.637 1.756)">
                <path id="Trazado_727160" data-name="Trazado 727160" d="M306.1,140.227l.017,24.37a4.122,4.122,0,0,0,1.563-.48,1.525,1.525,0,0,0,.9-1.257l-.017-24.37a1.525,1.525,0,0,1-.9,1.257,4.122,4.122,0,0,1-1.564.48Z" transform="translate(-306.1 -138.49)" fill="#1d2324"/>
              </g>
              <path id="Trazado_727161" data-name="Trazado 727161" d="M307.032,136.882a1.321,1.321,0,0,0-.017,2.5,4.766,4.766,0,0,0,4.31,0,1.321,1.321,0,0,0,.017-2.5A4.766,4.766,0,0,0,307.032,136.882Z" transform="translate(-306.134 -136.367)" fill="#242a31"/>
              <path id="Trazado_727162" data-name="Trazado 727162" d="M308.953,138a.4.4,0,0,0,0,.761,1.421,1.421,0,0,0,1.315,0,.4.4,0,0,0,0-.761A1.472,1.472,0,0,0,308.953,138Z" transform="translate(-306.557 -136.622)" fill="#38373e"/>
            </g>
          </g>
          <g id="Grupo_1011276" data-name="Grupo 1011276" transform="translate(0 6.61)">
            <g id="Grupo_1011275" data-name="Grupo 1011275" transform="translate(2.3)">
              <path id="Trazado_727163" data-name="Trazado 727163" d="M316.32,140.765l.025,23.138a2.781,2.781,0,0,0,1.63,2.283,8.729,8.729,0,0,0,7.941,0,2.792,2.792,0,0,0,1.655-2.316l-.025-23.129a2.814,2.814,0,0,1-1.654,2.308,7.463,7.463,0,0,1-2.78.877c-.058,0-.116.017-.174.017a8.491,8.491,0,0,1-4.988-.9,2.781,2.781,0,0,1-1.63-2.283Z" transform="translate(-316.32 -137.518)" fill="#dad0d0"/>
              <g id="Grupo_1011274" data-name="Grupo 1011274" transform="translate(0.006)">
                <g id="Grupo_1011273" data-name="Grupo 1011273" transform="translate(6.694 3.239)">
                  <path id="Trazado_727164" data-name="Trazado 727164" d="M316.31,143.97l.025,23.138a7.486,7.486,0,0,0,2.879-.893,2.792,2.792,0,0,0,1.655-2.316l-.025-23.138a2.825,2.825,0,0,1-1.655,2.316,7.631,7.631,0,0,1-2.879.893Z" transform="translate(-316.31 -140.76)" fill="#f2ebeb"/>
                </g>
                <path id="Trazado_727165" data-name="Trazado 727165" d="M317.994,137.8c-2.2,1.274-2.209,3.334-.025,4.6a8.729,8.729,0,0,0,7.941,0c2.2-1.274,2.209-3.334.025-4.6A8.729,8.729,0,0,0,317.994,137.8Z" transform="translate(-316.337 -136.845)" fill="#fafefd"/>
                <path id="Trazado_727166" data-name="Trazado 727166" d="M321.544,139.869a.742.742,0,0,0,0,1.406,2.681,2.681,0,0,0,2.432,0,.742.742,0,0,0,0-1.406A2.682,2.682,0,0,0,321.544,139.869Z" transform="translate(-317.141 -137.317)" fill="#38373e"/>
              </g>
            </g>
            <path id="Trazado_727167" data-name="Trazado 727167" d="M330.82,144.64v23.138c-1.853.405-6.444.96-9,1.514V146.17C324.939,146.807,329.745,145.988,330.82,144.64Z" transform="translate(-321.82 -138.192)" fill="#f2ebeb"/>
          </g>
        </g>
      </g>
      <g id="man" transform="translate(1206.209 1328.942)">
        <path id="Trazado_727360" data-name="Trazado 727360" d="M716.255,117.192l1.983,1.141c5.34,3.085,14.077,3.085,19.417,0l1.983-1.141c5.34-3.085,5.34-8.127,0-11.212l-1.983-1.141c-5.34-3.085-14.077-3.085-19.417,0l-1.983,1.141C710.915,109.064,710.915,114.107,716.255,117.192Z" transform="translate(-706.91 -18.186)" fill="#a1c2d1" opacity="0.3"/>
        <g id="Grupo_1011400" data-name="Grupo 1011400" transform="translate(0 1.922)">
          <path id="Trazado_727361" data-name="Trazado 727361" d="M730.017,111.011v-.363a7.924,7.924,0,0,0-.855-3.448,2.638,2.638,0,0,0-.713-1.167c-.817-.648-2.126-.078-2.644.83-.246.428-.376.894-.6,1.335a3.06,3.06,0,0,1-2.242,1.854c-1.348.065-2.852-.4-4.213-.48a3.75,3.75,0,0,0-1.568.143c-1.154.467-1.491,2.333-1.076,3.383a2.835,2.835,0,0,0,1.465,1.413,6.7,6.7,0,0,0,3.215.622,6.307,6.307,0,0,1,3.2.506c1.75.83,3.785,2.009,5.561.4a2.679,2.679,0,0,0,.765-1.711,32.349,32.349,0,0,0-.3-3.344Z" transform="translate(-705.817 -19.151)" fill="#8f8e99"/>
          <g id="man-2" data-name="man" transform="translate(22.965 84.15)">
            <path id="Trazado_727362" data-name="Trazado 727362" d="M736.7,109.005c-.143-.428-.441-.311-.778-.4a3.109,3.109,0,0,1-1.128-.7c-.415-.363-.765-.791-1.141-1.18a11.577,11.577,0,0,0-3.448-2.463,3.767,3.767,0,0,0-1.244-.389,4.542,4.542,0,0,0-2.359.661c-.726.35-.726.817-.752,1.53a3.9,3.9,0,0,0,.078,1.024,4.049,4.049,0,0,0,1.115,1.724,7.049,7.049,0,0,0,1.841,1.5,15.683,15.683,0,0,1,1.763.83,4.425,4.425,0,0,1,.933.907,3.1,3.1,0,0,0,.661.817,4.452,4.452,0,0,0,2.074.778,2.355,2.355,0,0,0,2.7-2.268,7.408,7.408,0,0,0-.169-1.594c-.065-.337-.078-.583-.143-.778Z" transform="translate(-725.847 -103.862)" fill="#5f5f66"/>
          </g>
          <path id="Trazado_727363" data-name="Trazado 727363" d="M726.075,80.536a2.049,2.049,0,0,1,1.348-.583c2.178-.389,4.291-1.244,6.429-1.763a13.762,13.762,0,0,1,2.891-.415l2.113-1.905a22.2,22.2,0,0,1,.207,5.561c-.467,4.018-1.517,13.312-1.789,17.745-.207,3.383-.195,6.766-.22,10.149a34.851,34.851,0,0,0,.078,4.355,7.794,7.794,0,0,1-.441,4.29,3.356,3.356,0,0,1-2.541,1.737,3.583,3.583,0,0,1-2.917-1.024c-.48-.48-.467-1.413-.531-2.048-.065-.57-.091-1.154-.117-1.737-.065-1.672-.065-3.344-.117-5.016q-.1-2.644-.272-5.289c-.078-1.154-.168-2.32-.272-3.474-.052-.635-.117-1.27-.182-1.918a6.8,6.8,0,0,0-.207-2.074,20.027,20.027,0,0,1-2.217-5.418c-.233-1.711-.22-3.435-.4-5.146-.156-1.568-.739-3.007-1.011-4.55a1.866,1.866,0,0,1,.156-1.452Z" transform="translate(-702.885 -28.004)" fill="#38373e"/>
          <path id="Trazado_727364" data-name="Trazado 727364" d="M735.414,84.308a7.627,7.627,0,0,1,3.72-3.746,23.707,23.707,0,0,0-.272-4.692l-2.113,1.905a13.762,13.762,0,0,0-2.891.415c-2.139.518-4.265,1.387-6.429,1.763a2.049,2.049,0,0,0-1.348.583,1.866,1.866,0,0,0-.156,1.452c.272,1.542.855,2.994,1.011,4.55.182,1.711.169,3.435.4,5.146a20.456,20.456,0,0,0,2.217,5.418,6.8,6.8,0,0,1,.207,2.074c.065.635.117,1.27.181,1.918.1,1.154.194,2.307.272,3.474.117,1.763.22,3.526.272,5.289.052,1.672.052,3.344.117,5.016.026.583.052,1.154.117,1.737.078.635.052,1.581.531,2.048a3.682,3.682,0,0,0,1.27.817c-1.763-11.925-2.087-23.941,2.9-35.166Z" transform="translate(-702.88 -28.004)" fill="#252529"/>
          <path id="Trazado_727365" data-name="Trazado 727365" d="M734.164,83.242c-4.99,11.225-4.679,23.241-2.9,35.166a3.551,3.551,0,0,0,1.646.207,3.357,3.357,0,0,0,2.541-1.737,8.042,8.042,0,0,0,.441-4.29,32.49,32.49,0,0,1-.078-4.355c.026-3.383,0-6.766.22-10.149.272-4.433,1.322-13.714,1.789-17.745.039-.285.052-.57.065-.868a7.627,7.627,0,0,0-3.72,3.746Z" transform="translate(-701.629 -26.937)" fill="#38373e"/>
          <path id="Trazado_727366" data-name="Trazado 727366" d="M722.79,97.273v.22c.065,3.5-.181,6.987-.272,10.486-.052,2.32-.519,8.581,1.581,9.372,1.037.389,3.137.687,3.72-.324,2.152-3.746,2.8-16.838,2.942-20.532.039-.933-.065-.583,0-1.517a8.315,8.315,0,0,0,.13-2.528c-.4-1.387-2.229-.6-3.124-.285-1.3.454-2.929.674-4.044,1.53s-.972,2.294-.933,3.578Z" transform="translate(-703.892 -23.327)" fill="#4c4c54"/>
          <path id="Trazado_727367" data-name="Trazado 727367" d="M722.641,77.517c1.18-1.063,4.8.233,6.157.324,1.257.078,2.515.091,3.785.078a8.483,8.483,0,0,0,1.815-.026c.467-.117.843-.48,1.335-.6.389-.091,1.465-.894,1.776-.635.467.389-.182,1.944-.311,2.528-1.154,5.263-4.628,9.683-5.651,14.945-.428,2.217-.337,4.5-.57,6.74a2.959,2.959,0,0,1-.169.817,2.5,2.5,0,0,1-.985,1.024,8.825,8.825,0,0,1-5.2,1.439c-.48-.026-1.1-.246-1.542,0-.272-1.88-.078-3.811-.467-5.664a34.56,34.56,0,0,1-.389-6.027c-.143-4.368-.22-8.749-.1-13.118a3.132,3.132,0,0,1,.324-1.581.849.849,0,0,1,.195-.233Z" transform="translate(-704.002 -27.784)" fill="#4c4c54"/>
          <g id="Grupo_1011399" data-name="Grupo 1011399">
            <path id="Trazado_727368" data-name="Trazado 727368" d="M720.922,61.247c-.039.506.039,1.478.531,1.8.4.272,1.283.169,1.737.207,1.439.13,2.865.22,4.3.324.648.039,1.3.078,1.957.1a28.322,28.322,0,0,0,5.651-.376,5.842,5.842,0,0,0,2.489-.778,2.153,2.153,0,0,0,.531-2.009,3.818,3.818,0,0,0-2.139-3.228,7.482,7.482,0,0,0-3.889-.13,70.03,70.03,0,0,0-8.84,1.711,4.159,4.159,0,0,0-1.465.6,2.41,2.41,0,0,0-.855,1.776Z" transform="translate(-704.344 -33.602)" fill="#fff"/>
            <path id="Trazado_727369" data-name="Trazado 727369" d="M714.9,63.98c-.026-.181-.026-.35-.052-.531a11.016,11.016,0,0,0-.907-2.7,4.316,4.316,0,0,0-1.543-2.061c-.492-.246-.959-.531-1.439-.817a5.536,5.536,0,0,0-1.594-.661,1.381,1.381,0,0,0-1.18.156c-.026.026-.052.039-.052.078a.165.165,0,0,0,.013.078.7.7,0,0,0,.4.285c.207.091.441.117.648.207a2.1,2.1,0,0,1,.6.4c.143.13.311.376.22.583-.078.181-.246.207-.4.259a1.818,1.818,0,0,0-.6.337c-.143.1-.285.259-.246.415.026.13.169.246.13.389-.065.194-.311.156-.324.376,0,.078.065.156.052.246s-.13.181-.182.272a1.093,1.093,0,0,0-.091.454.329.329,0,0,0,.026.156.283.283,0,0,0,.117.091c.4.194.817.207,1.218.363a1.556,1.556,0,0,1,.726.661,8.159,8.159,0,0,1,.441.894,5.281,5.281,0,0,0,.674,1.011c.22.259.713.752.8.894l2.554-1.828Z" transform="translate(-708.13 -33.547)" fill="#ffbfa2"/>
            <path id="Trazado_727370" data-name="Trazado 727370" d="M721.31,61.137v-.143a4.445,4.445,0,0,1,.48-2.385,5.614,5.614,0,0,1,1.763-1.283,31.328,31.328,0,0,1,6.274-3.085c3.344-1.205,6.766-3.655,10.331-1.646a5.191,5.191,0,0,1,1.011.739c1.841,1.789,1.633,4.679,1.335,7-.376,2.981-1.257,5.872-1.776,8.827-.1.622-.195,1.231-.272,1.854-.272,2.152-.078,4.355-.363,6.481-.259,1.854.324,3.966.57,5.82a4.984,4.984,0,0,1-.35,3.37,4.851,4.851,0,0,1-3.215,1.7c-4.446,1.024-9.2,1.8-13.481.233a2.967,2.967,0,0,1-1.867-1.452,3.418,3.418,0,0,1-.091-1.581,90.382,90.382,0,0,0,.156-18.056,58.666,58.666,0,0,1-.492-6.39Z" transform="translate(-704.226 -35.125)" fill="#f2ebeb"/>
            <path id="Trazado_727371" data-name="Trazado 727371" d="M728.855,63.13a5.331,5.331,0,0,0-.078-4.018,5.16,5.16,0,0,0-3.189-2.722c-1.218-.35-3.033-.233-3.8.92a4.569,4.569,0,0,0-.48,2.385v.143a52.827,52.827,0,0,0,.492,6.39,91.358,91.358,0,0,1-.155,18.056,3.416,3.416,0,0,0,.091,1.581,2.089,2.089,0,0,0,.83.946,35.238,35.238,0,0,1,.583-7.194,51.549,51.549,0,0,1,2.735-9.488c.6-1.555,1.257-3.072,1.97-4.589a21.583,21.583,0,0,0,1.011-2.411Z" transform="translate(-704.227 -33.826)" fill="#e9e2e1"/>
            <path id="Trazado_727372" data-name="Trazado 727372" d="M726.6,54.935c.609-.259,1.257-.518,1.711-.687,2.32-.843,4.679-2.281,7.1-2.4,1.167,1.763.22,3.772-1.491,4.705a7.058,7.058,0,0,1-7.051-.493c-.415-.285-.713-.778-.272-1.128Z" transform="translate(-702.724 -35.119)" fill="#cddcfb"/>
            <path id="Trazado_727373" data-name="Trazado 727373" d="M721.442,59.9a5.234,5.234,0,0,1,3.214-3.5,4.5,4.5,0,0,1,1.905,0,5.94,5.94,0,0,1,1.478.467,4.02,4.02,0,0,1,2.061,2.787,5.354,5.354,0,0,1-.83,3.837c-.6,1.1-1.128,2.229-1.646,3.37a55.763,55.763,0,0,1-3.383,6.688c-.791,1.244-2,2.709-3.435,2.994a2.99,2.99,0,0,1-2.567-1.011,2.539,2.539,0,0,1-.519-3.409c2.891-9.035,3.785-12.431,3.72-12.236Z" transform="translate(-705.42 -33.8)" fill="#f7f2f2"/>
            <path id="Trazado_727374" data-name="Trazado 727374" d="M711.571,61.941c-.389.311-1.05,1.037-.959,1.62.078.48.752,1.063,1.024,1.426.881,1.141,1.789,2.255,2.7,3.37.415.506.817,1.011,1.244,1.5a28.6,28.6,0,0,0,4.122,3.9,6.025,6.025,0,0,0,2.255,1.309,2.141,2.141,0,0,0,1.828-.972,3.824,3.824,0,0,0,.907-3.772,7.559,7.559,0,0,0-2.541-2.942,68.966,68.966,0,0,0-7.259-5.314,4.3,4.3,0,0,0-1.439-.674,2.408,2.408,0,0,0-1.88.57Z" transform="translate(-707.397 -32.3)" fill="#f7f2f2"/>
            <path id="Trazado_727375" data-name="Trazado 727375" d="M727.317,52.346c-.13-.881-.8-.674-.454-1.478a4.317,4.317,0,0,1,1.309-1.763,3.063,3.063,0,0,1,2.061-.674c.259.013.428.156.674.156a14.044,14.044,0,0,1,2.087-.026c.687.1,1.335.156,1.335.933a9.409,9.409,0,0,0,.285,3.059,6.855,6.855,0,0,1,.493,1.646,2.892,2.892,0,0,1-1.75,2.67,6.892,6.892,0,0,1-3.992.363c-.674-.091-1.607-.233-2-.868a2.51,2.51,0,0,1-.1-1.633,9.087,9.087,0,0,0,.065-2.372Z" transform="translate(-702.611 -36.133)" fill="#ffbfa2"/>
            <g id="Grupo_1011398" data-name="Grupo 1011398" transform="translate(20.206)">
              <path id="Trazado_727376" data-name="Trazado 727376" d="M725.1,43.2a3.555,3.555,0,0,0-.843,1.763c-.22,1.5.376,3.046.052,4.537-.311,1.439.3,4.718,3.15,5.561a10.214,10.214,0,0,0,5.2-.506,7.258,7.258,0,0,0,2.761-2.929c5.95-9.436-6.287-13.325-10.318-8.412Z" transform="translate(-723.573 -38.308)" fill="#ffbfa2"/>
              <path id="Trazado_727377" data-name="Trazado 727377" d="M737.3,41.985a3.471,3.471,0,0,0-1.076-.752.973.973,0,0,1-.363-.233,1.482,1.482,0,0,1-.156-.285,2.321,2.321,0,0,0-1.024-.972,8.436,8.436,0,0,0-5.3-.661,6.878,6.878,0,0,0-1.776.454,6,6,0,0,0-1.724,1.18A6.884,6.884,0,0,0,724.1,43.1a11.614,11.614,0,0,0-.337,1.322,1.048,1.048,0,0,0,.35,1.1c.143.1.311.181.454.272.609.4.713,1.348.972,1.983.169.4.493.622.583,1.05a11.957,11.957,0,0,0,.233,1.361c.065.207.207.428.428.454a.467.467,0,0,0,.259-.078,1.185,1.185,0,0,0,.467-.739,3.262,3.262,0,0,1,.3-.843.2.2,0,0,1,.091-.091h.1a.977.977,0,0,1,.648.544,3.919,3.919,0,0,1,.363,1.011,10.837,10.837,0,0,1,.233,1.542,2.731,2.731,0,0,0,.609,1.555c.868.933,2.528.881,3.642.635a5.506,5.506,0,0,0,1.193-.363A5.668,5.668,0,0,0,736.7,51.8a8.886,8.886,0,0,0,1.283-2.294,7.992,7.992,0,0,0,.285-1.452c.272-2,.48-4.537-.972-6.04Z" transform="translate(-723.719 -38.942)" fill="#242a31"/>
              <path id="Trazado_727378" data-name="Trazado 727378" d="M727.829,45.927c1.115-.246,1.607,1.115,1,2.307a6.42,6.42,0,0,1-.791.985c-1.763,2.022-2.553.233-2-.454,1.3-1.581.389-2.541,1.8-2.852Z" transform="translate(-723.083 -36.882)" fill="#ffbfa2"/>
              <path id="Trazado_727379" data-name="Trazado 727379" d="M727.478,47.943c.117-.143,1.283-1.089.337-1.478a.4.4,0,0,0-.505.4c0,.143.065.272.065.4a.758.758,0,0,1-.052.233c-.091.207-.454.441-.337.7.1.233.428-.194.493-.272Z" transform="translate(-722.758 -36.721)" fill="#f3a984"/>
            </g>
          </g>
        </g>
        <g id="Grupo_1011401" data-name="Grupo 1011401" transform="translate(16.787)">
          <path id="Trazado_727380" data-name="Trazado 727380" d="M728.144,39.921c-3.759-.687-6.844-.467-7.051.544-.233,1.089,2.955,2.709,7.129,3.6.22.052.441.091.648.13l-.726-4.278Z" transform="translate(-721.081 -36.848)" fill="#f8a40a"/>
          <path id="Trazado_727381" data-name="Trazado 727381" d="M739.157,46.858c.026-.4.013-.8,0-1.205-.324-11.018-13.766-9.929-15.412-2.605a2.6,2.6,0,0,0-.065.544C727.646,47.428,734.633,50.007,739.157,46.858Z" transform="translate(-720.311 -37.46)" fill="#fbc70e"/>
          <path id="Trazado_727382" data-name="Trazado 727382" d="M723.706,42.145a1.937,1.937,0,0,1-.026.272c.117.117.246.233.376.35,3.772-1.076,8.814,2.567,12.625,4.044.182-.052.35-.1.531-.156-1.374-5.859-8.633-5.742-13.494-4.5Z" transform="translate(-720.311 -36.272)" fill="#f8a40a"/>
          <path id="Trazado_727383" data-name="Trazado 727383" d="M732.7,40.421a10.884,10.884,0,0,0-8.9,1.646c-.013.078-.039.143-.052.22a2.594,2.594,0,0,0-.065.544l.506.467a3.06,3.06,0,0,1,.583-.428c4.835-2.113,8.477,2.048,12.4,4.213.039,0,.065-.026.1-.039a8.9,8.9,0,0,0-4.563-6.624Z" transform="translate(-720.311 -36.688)" fill="#ffb700"/>
        </g>
      </g>
      <g id="Grupo_1011115" data-name="Grupo 1011115" transform="translate(1141.771 1318.451)">
        <g id="Grupo_1011024" data-name="Grupo 1011024" transform="translate(0 79.938)" opacity="0.3">
          <path id="Trazado_726702" data-name="Trazado 726702" d="M454.025,124.614l-15.8-9.076L479.29,91.6l17.384,10-39.5,23.013Z" transform="translate(-438.23 -91.6)" fill="#a1c2d1"/>
        </g>
        <g id="Grupo_1011025" data-name="Grupo 1011025" transform="translate(55.546)">
          <path id="Trazado_726703" data-name="Trazado 726703" d="M441.069,80.318l-3.081-1.789L437.77.93l3.081,1.789Z" transform="translate(-437.77 -0.118)" fill="#4a4e5c"/>
          <path id="Trazado_726704" data-name="Trazado 726704" d="M437.565,2.05l.218,77.6-1.4.812-.218-77.6Z" transform="translate(-433.079 -0.261)" fill="#6c7086"/>
          <path id="Trazado_726705" data-name="Trazado 726705" d="M439.491,2.6,436.41.812,437.824,0,440.9,1.789Z" transform="translate(-436.41)" fill="#787d95"/>
        </g>
        <g id="Grupo_1011047" data-name="Grupo 1011047" transform="translate(6.973 59.468)">
          <g id="Grupo_1011032" data-name="Grupo 1011032" transform="translate(42.002 3.681)">
            <g id="Grupo_1011028" data-name="Grupo 1011028" transform="translate(0.489)">
              <g id="Grupo_1011027" data-name="Grupo 1011027" clip-path="url(#clip-path)">
                <g id="Grupo_1011026" data-name="Grupo 1011026" transform="translate(0 0.002)">
                  <path id="Trazado_726706" data-name="Trazado 726706" d="M440.78,76.052l6.152-3.578a.917.917,0,0,1,.6-.1l-6.152,3.578a.916.916,0,0,0-.6.1Z" transform="translate(-440.78 -72.365)" fill="#575b6c"/>
                  <path id="Trazado_726707" data-name="Trazado 726707" d="M440.29,75.948l6.152-3.578a1.487,1.487,0,0,1,.428.131l-6.152,3.578a1.41,1.41,0,0,0-.428-.131Z" transform="translate(-439.688 -72.365)" fill="#686d82"/>
                  <path id="Trazado_726708" data-name="Trazado 726708" d="M440.11,76.108l6.152-3.578.157.079-6.152,3.578a1.321,1.321,0,0,0-.157-.079Z" transform="translate(-439.08 -72.386)" fill="#7a7f97"/>
                </g>
              </g>
            </g>
            <g id="Grupo_1011031" data-name="Grupo 1011031" transform="translate(1.676 0.233)">
              <g id="Grupo_1011030" data-name="Grupo 1011030" clip-path="url(#clip-path-2)">
                <g id="Grupo_1011029" data-name="Grupo 1011029" transform="translate(0 -0.009)">
                  <path id="Trazado_726710" data-name="Trazado 726710" d="M439.78,76.2l6.152-3.578a2.75,2.75,0,0,1,.288.192l-6.152,3.578a2.756,2.756,0,0,0-.288-.192Z" transform="translate(-439.78 -72.62)" fill="#7a7f97"/>
                  <path id="Trazado_726711" data-name="Trazado 726711" d="M438.34,76.418l6.152-3.578a3.816,3.816,0,0,1,1.265,1.937l-6.152,3.578a3.816,3.816,0,0,0-1.265-1.937Z" transform="translate(-438.061 -72.648)" fill="#8b91ad"/>
                  <path id="Trazado_726712" data-name="Trazado 726712" d="M438.23,78.638l6.152-3.578a2.507,2.507,0,0,1,.1.55l-6.152,3.578a4.035,4.035,0,0,0-.1-.55Z" transform="translate(-436.685 -72.931)" fill="#7a7f97"/>
                  <path id="Trazado_726713" data-name="Trazado 726713" d="M438.246,79.278,444.4,75.7v.2a1.171,1.171,0,0,1-.026.305l-6.152,3.578a1.663,1.663,0,0,0,.026-.305v-.2Z" transform="translate(-436.597 -73.012)" fill="#686d82"/>
                  <path id="Trazado_726714" data-name="Trazado 726714" d="M438.7,79.848l6.152-3.578a1.048,1.048,0,0,1-.462.768l-6.152,3.578a1.048,1.048,0,0,0,.463-.768Z" transform="translate(-437.071 -73.085)" fill="#575b6c"/>
                </g>
              </g>
            </g>
            <path id="Trazado_726716" data-name="Trazado 726716" d="M446.936,76.685a3.662,3.662,0,0,1,1.658,2.88c0,1.056-.75,1.484-1.676.951a3.662,3.662,0,0,1-1.658-2.88c0-1.065.751-1.492,1.676-.96Z" transform="translate(-445.26 -72.883)" fill="#4b4e5d"/>
          </g>
          <g id="Grupo_1011039" data-name="Grupo 1011039" transform="translate(1.23)">
            <g id="Grupo_1011035" data-name="Grupo 1011035" transform="translate(1.946)">
              <path id="Trazado_726717" data-name="Trazado 726717" d="M445.84,90.036l36.906-21.442c1.213-.707,2.9-.6,4.747.463L450.587,90.5C448.729,89.425,447.053,89.329,445.84,90.036Z" transform="translate(-445.84 -68.144)" fill="#15d9fd"/>
              <g id="Grupo_1011034" data-name="Grupo 1011034" clip-path="url(#clip-path-3)">
                <g id="Grupo_1011033" data-name="Grupo 1011033" transform="translate(0 -0.003)">
                  <path id="Trazado_726718" data-name="Trazado 726718" d="M448.5,90.036l36.906-21.442a3.665,3.665,0,0,1,2.426-.4L450.926,89.634a3.623,3.623,0,0,0-2.426.4Z" transform="translate(-448.5 -68.141)" fill="#15d9fd"/>
                  <path id="Trazado_726719" data-name="Trazado 726719" d="M446.54,89.642,483.446,68.2a6.13,6.13,0,0,1,1.71.541L448.25,90.183a6.434,6.434,0,0,0-1.71-.541Z" transform="translate(-444.114 -68.149)" fill="#15d9fd"/>
                  <path id="Trazado_726720" data-name="Trazado 726720" d="M445.84,90.262,482.746,68.82c.2.1.41.2.62.323L446.46,90.585c-.209-.122-.419-.227-.62-.323Z" transform="translate(-441.712 -68.228)" fill="#15d9fd"/>
                </g>
              </g>
            </g>
            <g id="Grupo_1011038" data-name="Grupo 1011038" transform="translate(6.702 0.904)">
              <path id="Trazado_726722" data-name="Trazado 726722" d="M479.819,84.984l-36.906,21.442c1.2-.7,1.937-2.173,1.946-4.285a14.677,14.677,0,0,0-6.65-11.519L475.116,69.18a14.631,14.631,0,0,1,6.65,11.519c0,2.1-.75,3.587-1.946,4.285Z" transform="translate(-438.21 -69.18)" fill="#15d9fd"/>
              <g id="Grupo_1011037" data-name="Grupo 1011037" clip-path="url(#clip-path-4)">
                <g id="Grupo_1011036" data-name="Grupo 1011036" transform="translate(-0.009 0.009)">
                  <path id="Trazado_726723" data-name="Trazado 726723" d="M444.51,90.632,481.416,69.19a9.691,9.691,0,0,1,1.161.785L445.671,91.417a9.046,9.046,0,0,0-1.161-.785Z" transform="translate(-444.51 -69.19)" fill="#15d9fd"/>
                  <path id="Trazado_726724" data-name="Trazado 726724" d="M438.7,91.532,475.606,70.09a15.414,15.414,0,0,1,5.07,7.758L443.77,99.29a15.489,15.489,0,0,0-5.07-7.758Z" transform="translate(-437.539 -69.305)" fill="#79e2f7"/>
                  <path id="Trazado_726725" data-name="Trazado 726725" d="M438.25,100.412,475.156,78.97a11.7,11.7,0,0,1,.393,2.19L438.643,102.6a12.307,12.307,0,0,0-.393-2.19Z" transform="translate(-432.019 -70.435)" fill="#15d9fd"/>
                  <path id="Trazado_726726" data-name="Trazado 726726" d="M438.271,102.932,475.177,81.49c.017.262.035.524.035.785a7.591,7.591,0,0,1-.1,1.213L438.21,104.93a7.6,7.6,0,0,0,.1-1.213c0-.262-.009-.524-.035-.785Z" transform="translate(-431.647 -70.756)" fill="#15d9fd"/>
                  <path id="Trazado_726727" data-name="Trazado 726727" d="M440.17,105.222,477.076,83.78a4.141,4.141,0,0,1-1.85,3.072L438.32,108.294a4.124,4.124,0,0,0,1.85-3.072Z" transform="translate(-433.607 -71.048)" fill="#15d9fd"/>
                </g>
              </g>
            </g>
            <path id="Trazado_726729" data-name="Trazado 726729" d="M487.2,93.626a14.631,14.631,0,0,1,6.65,11.519c-.009,4.241-3.011,5.943-6.693,3.814a14.656,14.656,0,0,1-6.65-11.528c.009-4.232,3.011-5.934,6.693-3.814Z" transform="translate(-480.51 -71.271)" fill="#2f98cd"/>
            <path id="Trazado_726730" data-name="Trazado 726730" d="M487.9,100.226a3.845,3.845,0,0,1,1.737,3c0,1.108-.785,1.553-1.745.995a3.845,3.845,0,0,1-1.737-3C486.15,100.121,486.935,99.676,487.9,100.226Z" transform="translate(-481.211 -72.199)" fill="#19a4c0"/>
          </g>
          <g id="Grupo_1011046" data-name="Grupo 1011046" transform="translate(0 27.898)">
            <g id="Grupo_1011042" data-name="Grupo 1011042" transform="translate(0.489)">
              <g id="Grupo_1011041" data-name="Grupo 1011041" clip-path="url(#clip-path-5)">
                <g id="Grupo_1011040" data-name="Grupo 1011040" transform="translate(0 0.002)">
                  <path id="Trazado_726731" data-name="Trazado 726731" d="M488.91,103.8l6.152-3.578a.916.916,0,0,1,.6-.1l-6.152,3.578a.916.916,0,0,0-.6.1Z" transform="translate(-488.91 -100.115)" fill="#575b6c"/>
                  <path id="Trazado_726732" data-name="Trazado 726732" d="M488.42,103.7l6.152-3.578a1.486,1.486,0,0,1,.428.131l-6.152,3.578a1.411,1.411,0,0,0-.428-.131Z" transform="translate(-487.818 -100.115)" fill="#686d82"/>
                  <path id="Trazado_726733" data-name="Trazado 726733" d="M488.24,103.858l6.152-3.578.157.079-6.152,3.578a1.322,1.322,0,0,0-.157-.079Z" transform="translate(-487.21 -100.136)" fill="#7a7f97"/>
                </g>
              </g>
            </g>
            <g id="Grupo_1011045" data-name="Grupo 1011045" transform="translate(1.676 0.233)">
              <g id="Grupo_1011044" data-name="Grupo 1011044" clip-path="url(#clip-path-6)">
                <g id="Grupo_1011043" data-name="Grupo 1011043" transform="translate(0 -0.009)">
                  <path id="Trazado_726735" data-name="Trazado 726735" d="M487.91,103.948l6.152-3.578a2.744,2.744,0,0,1,.288.192L488.2,104.14a2.746,2.746,0,0,0-.288-.192Z" transform="translate(-487.91 -100.37)" fill="#7a7f97"/>
                  <path id="Trazado_726736" data-name="Trazado 726736" d="M486.46,104.168l6.152-3.578a3.872,3.872,0,0,1,1.265,1.937l-6.152,3.578a3.816,3.816,0,0,0-1.265-1.937Z" transform="translate(-486.172 -100.398)" fill="#8b91ad"/>
                  <path id="Trazado_726737" data-name="Trazado 726737" d="M486.35,106.388l6.152-3.578a2.515,2.515,0,0,1,.1.55l-6.152,3.578a4.021,4.021,0,0,0-.1-.55Z" transform="translate(-484.797 -100.681)" fill="#7a7f97"/>
                  <path id="Trazado_726738" data-name="Trazado 726738" d="M486.376,107.028l6.152-3.578v.2a1.171,1.171,0,0,1-.026.305l-6.152,3.578a1.657,1.657,0,0,0,.026-.305v-.2Z" transform="translate(-484.727 -100.762)" fill="#686d82"/>
                  <path id="Trazado_726739" data-name="Trazado 726739" d="M486.833,107.6l6.152-3.578a1.048,1.048,0,0,1-.462.768l-6.152,3.578a1.048,1.048,0,0,0,.463-.768Z" transform="translate(-485.201 -100.835)" fill="#575b6c"/>
                </g>
              </g>
            </g>
            <path id="Trazado_726741" data-name="Trazado 726741" d="M495.066,104.435a3.662,3.662,0,0,1,1.658,2.88c0,1.056-.75,1.484-1.676.951a3.662,3.662,0,0,1-1.658-2.88c0-1.065.75-1.492,1.676-.96Z" transform="translate(-493.39 -100.633)" fill="#4b4e5d"/>
          </g>
        </g>
        <g id="Grupo_1011069" data-name="Grupo 1011069" transform="translate(6.973 40.714)">
          <g id="Grupo_1011054" data-name="Grupo 1011054" transform="translate(42.002 3.681)">
            <g id="Grupo_1011050" data-name="Grupo 1011050" transform="translate(0.489)">
              <g id="Grupo_1011049" data-name="Grupo 1011049" clip-path="url(#clip-path-7)">
                <g id="Grupo_1011048" data-name="Grupo 1011048" transform="translate(0 0.002)">
                  <path id="Trazado_726742" data-name="Trazado 726742" d="M440.78,54.562l6.152-3.578a.917.917,0,0,1,.6-.1l-6.152,3.578a.916.916,0,0,0-.6.1Z" transform="translate(-440.78 -50.875)" fill="#575b6c"/>
                  <path id="Trazado_726743" data-name="Trazado 726743" d="M440.29,54.458l6.152-3.578a1.487,1.487,0,0,1,.428.131l-6.152,3.578a1.41,1.41,0,0,0-.428-.131Z" transform="translate(-439.688 -50.875)" fill="#686d82"/>
                  <path id="Trazado_726744" data-name="Trazado 726744" d="M440.11,54.618l6.152-3.578.157.079L440.267,54.7a1.324,1.324,0,0,0-.157-.079Z" transform="translate(-439.08 -50.896)" fill="#7a7f97"/>
                </g>
              </g>
            </g>
            <g id="Grupo_1011053" data-name="Grupo 1011053" transform="translate(1.676 0.233)">
              <g id="Grupo_1011052" data-name="Grupo 1011052" clip-path="url(#clip-path-8)">
                <g id="Grupo_1011051" data-name="Grupo 1011051" transform="translate(0 -0.009)">
                  <path id="Trazado_726746" data-name="Trazado 726746" d="M439.78,54.708l6.152-3.578a2.75,2.75,0,0,1,.288.192L440.068,54.9a2.756,2.756,0,0,0-.288-.192Z" transform="translate(-439.78 -51.13)" fill="#7a7f97"/>
                  <path id="Trazado_726747" data-name="Trazado 726747" d="M438.34,54.928l6.152-3.578a3.816,3.816,0,0,1,1.265,1.937l-6.152,3.578a3.816,3.816,0,0,0-1.265-1.937Z" transform="translate(-438.061 -51.158)" fill="#8b91ad"/>
                  <path id="Trazado_726748" data-name="Trazado 726748" d="M438.23,57.148l6.152-3.578a2.507,2.507,0,0,1,.1.55L438.326,57.7a4.035,4.035,0,0,0-.1-.55Z" transform="translate(-436.685 -51.441)" fill="#7a7f97"/>
                  <path id="Trazado_726749" data-name="Trazado 726749" d="M438.246,57.788,444.4,54.21v.2a1.171,1.171,0,0,1-.026.305l-6.152,3.578a1.663,1.663,0,0,0,.026-.305v-.2Z" transform="translate(-436.597 -51.522)" fill="#686d82"/>
                  <path id="Trazado_726750" data-name="Trazado 726750" d="M438.7,58.358l6.152-3.578a1.048,1.048,0,0,1-.462.768l-6.152,3.578a1.048,1.048,0,0,0,.463-.768Z" transform="translate(-437.071 -51.595)" fill="#575b6c"/>
                </g>
              </g>
            </g>
            <path id="Trazado_726752" data-name="Trazado 726752" d="M446.936,55.2a3.662,3.662,0,0,1,1.658,2.88c0,1.056-.75,1.484-1.676.951a3.662,3.662,0,0,1-1.658-2.88c0-1.065.751-1.492,1.676-.96Z" transform="translate(-445.26 -51.393)" fill="#4b4e5d"/>
          </g>
          <g id="Grupo_1011061" data-name="Grupo 1011061" transform="translate(1.23)">
            <g id="Grupo_1011057" data-name="Grupo 1011057" transform="translate(1.946)">
              <path id="Trazado_726753" data-name="Trazado 726753" d="M445.84,68.546,482.746,47.1c1.213-.707,2.9-.6,4.747.463L450.587,69.009C448.729,67.935,447.053,67.839,445.84,68.546Z" transform="translate(-445.84 -46.654)" fill="#1d2324"/>
              <g id="Grupo_1011056" data-name="Grupo 1011056" clip-path="url(#clip-path-9)">
                <g id="Grupo_1011055" data-name="Grupo 1011055" transform="translate(0 -0.003)">
                  <path id="Trazado_726754" data-name="Trazado 726754" d="M448.5,68.546,485.406,47.1a3.665,3.665,0,0,1,2.426-.4L450.926,68.144a3.623,3.623,0,0,0-2.426.4Z" transform="translate(-448.5 -46.651)" fill="#1d2324"/>
                  <path id="Trazado_726755" data-name="Trazado 726755" d="M446.54,68.152,483.446,46.71a6.131,6.131,0,0,1,1.71.541L448.25,68.693a6.433,6.433,0,0,0-1.71-.541h0Z" transform="translate(-444.114 -46.659)" fill="#1d2324"/>
                  <path id="Trazado_726756" data-name="Trazado 726756" d="M445.84,68.772,482.746,47.33c.2.1.41.2.62.323L446.46,69.095c-.209-.122-.419-.227-.62-.323Z" transform="translate(-441.712 -46.738)" fill="#1d2324"/>
                </g>
              </g>
            </g>
            <g id="Grupo_1011060" data-name="Grupo 1011060" transform="translate(6.702 0.904)">
              <path id="Trazado_726758" data-name="Trazado 726758" d="M479.819,63.494,442.914,84.936c1.2-.7,1.937-2.173,1.946-4.285a14.677,14.677,0,0,0-6.65-11.519L475.116,47.69a14.631,14.631,0,0,1,6.65,11.519c0,2.1-.75,3.587-1.946,4.285Z" transform="translate(-438.21 -47.69)" fill="#1d2324"/>
              <g id="Grupo_1011059" data-name="Grupo 1011059" clip-path="url(#clip-path-10)">
                <g id="Grupo_1011058" data-name="Grupo 1011058" transform="translate(-0.009 0.009)">
                  <path id="Trazado_726759" data-name="Trazado 726759" d="M444.51,69.142,481.416,47.7a9.69,9.69,0,0,1,1.161.785L445.671,69.927a9.046,9.046,0,0,0-1.161-.785Z" transform="translate(-444.51 -47.7)" fill="#1d2324"/>
                  <path id="Trazado_726760" data-name="Trazado 726760" d="M438.7,70.042,475.606,48.6a15.414,15.414,0,0,1,5.07,7.758L443.77,77.8a15.489,15.489,0,0,0-5.07-7.758Z" transform="translate(-437.539 -47.815)" fill="#242a31"/>
                  <path id="Trazado_726761" data-name="Trazado 726761" d="M438.25,78.932,475.156,57.49a11.7,11.7,0,0,1,.393,2.19L438.643,81.122a12.307,12.307,0,0,0-.393-2.19h0Z" transform="translate(-432.019 -48.946)" fill="#1d2324"/>
                  <path id="Trazado_726762" data-name="Trazado 726762" d="M438.271,81.442,475.177,60c.017.262.035.524.035.785a7.591,7.591,0,0,1-.1,1.213L438.21,83.44a7.6,7.6,0,0,0,.1-1.213c0-.262-.009-.524-.035-.785Z" transform="translate(-431.647 -49.266)" fill="#1d2324"/>
                  <path id="Trazado_726763" data-name="Trazado 726763" d="M440.17,83.732,477.076,62.29a4.141,4.141,0,0,1-1.85,3.072L438.32,86.8a4.124,4.124,0,0,0,1.85-3.072Z" transform="translate(-433.607 -49.558)" fill="#1d2324"/>
                </g>
              </g>
            </g>
            <path id="Trazado_726765" data-name="Trazado 726765" d="M487.2,72.136a14.631,14.631,0,0,1,6.65,11.519c-.009,4.241-3.011,5.943-6.693,3.814a14.656,14.656,0,0,1-6.65-11.528c.009-4.232,3.011-5.934,6.693-3.814Z" transform="translate(-480.51 -49.781)" fill="#10191b"/>
            <path id="Trazado_726766" data-name="Trazado 726766" d="M487.9,78.736a3.845,3.845,0,0,1,1.737,3c0,1.108-.785,1.553-1.745.995a3.845,3.845,0,0,1-1.737-3C486.15,78.631,486.935,78.186,487.9,78.736Z" transform="translate(-481.211 -50.709)" fill="#1d2324"/>
          </g>
          <g id="Grupo_1011068" data-name="Grupo 1011068" transform="translate(0 27.898)">
            <g id="Grupo_1011064" data-name="Grupo 1011064" transform="translate(0.489)">
              <g id="Grupo_1011063" data-name="Grupo 1011063" clip-path="url(#clip-path-11)">
                <g id="Grupo_1011062" data-name="Grupo 1011062" transform="translate(0 0.002)">
                  <path id="Trazado_726767" data-name="Trazado 726767" d="M488.91,82.312l6.152-3.578a.916.916,0,0,1,.6-.1l-6.152,3.578a.916.916,0,0,0-.6.1Z" transform="translate(-488.91 -78.625)" fill="#575b6c"/>
                  <path id="Trazado_726768" data-name="Trazado 726768" d="M488.42,82.208l6.152-3.578a1.486,1.486,0,0,1,.428.131l-6.152,3.578a1.411,1.411,0,0,0-.428-.131Z" transform="translate(-487.818 -78.625)" fill="#686d82"/>
                  <path id="Trazado_726769" data-name="Trazado 726769" d="M488.24,82.368l6.152-3.578.157.079L488.4,82.447a1.322,1.322,0,0,0-.157-.079Z" transform="translate(-487.21 -78.646)" fill="#7a7f97"/>
                </g>
              </g>
            </g>
            <g id="Grupo_1011067" data-name="Grupo 1011067" transform="translate(1.676 0.233)">
              <g id="Grupo_1011066" data-name="Grupo 1011066" clip-path="url(#clip-path-12)">
                <g id="Grupo_1011065" data-name="Grupo 1011065" transform="translate(0 -0.009)">
                  <path id="Trazado_726771" data-name="Trazado 726771" d="M487.91,82.458l6.152-3.578a2.748,2.748,0,0,1,.288.192L488.2,82.65a2.747,2.747,0,0,0-.288-.192Z" transform="translate(-487.91 -78.88)" fill="#7a7f97"/>
                  <path id="Trazado_726772" data-name="Trazado 726772" d="M486.46,82.678l6.152-3.578a3.872,3.872,0,0,1,1.265,1.937l-6.152,3.578a3.816,3.816,0,0,0-1.265-1.937Z" transform="translate(-486.172 -78.908)" fill="#8b91ad"/>
                  <path id="Trazado_726773" data-name="Trazado 726773" d="M486.35,84.9,492.5,81.32a2.515,2.515,0,0,1,.1.55l-6.152,3.578a4.021,4.021,0,0,0-.1-.55Z" transform="translate(-484.797 -79.191)" fill="#7a7f97"/>
                  <path id="Trazado_726774" data-name="Trazado 726774" d="M486.376,85.538l6.152-3.578v.2a1.171,1.171,0,0,1-.026.305l-6.152,3.578a1.657,1.657,0,0,0,.026-.305v-.2Z" transform="translate(-484.727 -79.272)" fill="#686d82"/>
                  <path id="Trazado_726775" data-name="Trazado 726775" d="M486.833,86.108l6.152-3.578a1.048,1.048,0,0,1-.462.768l-6.152,3.578a1.048,1.048,0,0,0,.463-.768Z" transform="translate(-485.201 -79.345)" fill="#575b6c"/>
                </g>
              </g>
            </g>
            <path id="Trazado_726777" data-name="Trazado 726777" d="M495.066,82.945a3.662,3.662,0,0,1,1.658,2.88c0,1.056-.75,1.484-1.676.951a3.662,3.662,0,0,1-1.658-2.88c0-1.065.75-1.492,1.676-.96Z" transform="translate(-493.39 -79.143)" fill="#4b4e5d"/>
          </g>
        </g>
        <g id="Grupo_1011091" data-name="Grupo 1011091" transform="translate(6.973 21.96)">
          <g id="Grupo_1011076" data-name="Grupo 1011076" transform="translate(42.002 3.681)">
            <g id="Grupo_1011072" data-name="Grupo 1011072" transform="translate(0.489)">
              <g id="Grupo_1011071" data-name="Grupo 1011071" clip-path="url(#clip-path-13)">
                <g id="Grupo_1011070" data-name="Grupo 1011070" transform="translate(0 0.002)">
                  <path id="Trazado_726778" data-name="Trazado 726778" d="M440.78,33.072l6.152-3.578a.917.917,0,0,1,.6-.1l-6.152,3.578a.916.916,0,0,0-.6.1Z" transform="translate(-440.78 -29.385)" fill="#575b6c"/>
                  <path id="Trazado_726779" data-name="Trazado 726779" d="M440.29,32.968l6.152-3.578a1.487,1.487,0,0,1,.428.131L440.718,33.1a1.41,1.41,0,0,0-.428-.131Z" transform="translate(-439.688 -29.385)" fill="#686d82"/>
                  <path id="Trazado_726780" data-name="Trazado 726780" d="M440.11,33.128l6.152-3.578.157.079-6.152,3.578a1.323,1.323,0,0,0-.157-.079Z" transform="translate(-439.08 -29.406)" fill="#7a7f97"/>
                </g>
              </g>
            </g>
            <g id="Grupo_1011075" data-name="Grupo 1011075" transform="translate(1.676 0.233)">
              <g id="Grupo_1011074" data-name="Grupo 1011074" clip-path="url(#clip-path-14)">
                <g id="Grupo_1011073" data-name="Grupo 1011073" transform="translate(0 -0.009)">
                  <path id="Trazado_726782" data-name="Trazado 726782" d="M439.78,33.218l6.152-3.578a2.751,2.751,0,0,1,.288.192l-6.152,3.578a2.754,2.754,0,0,0-.288-.192Z" transform="translate(-439.78 -29.64)" fill="#7a7f97"/>
                  <path id="Trazado_726783" data-name="Trazado 726783" d="M438.34,33.438l6.152-3.578a3.816,3.816,0,0,1,1.265,1.937l-6.152,3.578a3.816,3.816,0,0,0-1.265-1.937h0Z" transform="translate(-438.061 -29.668)" fill="#8b91ad"/>
                  <path id="Trazado_726784" data-name="Trazado 726784" d="M438.23,35.658l6.152-3.578a2.507,2.507,0,0,1,.1.55l-6.152,3.578a4.035,4.035,0,0,0-.1-.55Z" transform="translate(-436.685 -29.951)" fill="#7a7f97"/>
                  <path id="Trazado_726785" data-name="Trazado 726785" d="M438.246,36.3,444.4,32.72v.2a1.171,1.171,0,0,1-.026.305L438.22,36.8a1.663,1.663,0,0,0,.026-.305v-.2Z" transform="translate(-436.597 -30.032)" fill="#686d82"/>
                  <path id="Trazado_726786" data-name="Trazado 726786" d="M438.7,36.868l6.152-3.578a1.048,1.048,0,0,1-.462.768l-6.152,3.578a1.048,1.048,0,0,0,.463-.768Z" transform="translate(-437.071 -30.105)" fill="#575b6c"/>
                </g>
              </g>
            </g>
            <path id="Trazado_726788" data-name="Trazado 726788" d="M446.936,33.705a3.662,3.662,0,0,1,1.658,2.88c0,1.056-.75,1.484-1.676.951a3.662,3.662,0,0,1-1.658-2.88c0-1.065.751-1.492,1.676-.96Z" transform="translate(-445.26 -29.903)" fill="#4b4e5d"/>
          </g>
          <g id="Grupo_1011083" data-name="Grupo 1011083" transform="translate(1.23)">
            <g id="Grupo_1011079" data-name="Grupo 1011079" transform="translate(1.946)">
              <path id="Trazado_726789" data-name="Trazado 726789" d="M445.84,47.056l36.906-21.442c1.213-.707,2.9-.6,4.747.463L450.587,47.519C448.729,46.445,447.053,46.349,445.84,47.056Z" transform="translate(-445.84 -25.164)" fill="#c31c27"/>
              <g id="Grupo_1011078" data-name="Grupo 1011078" clip-path="url(#clip-path-15)">
                <g id="Grupo_1011077" data-name="Grupo 1011077" transform="translate(0 -0.003)">
                  <path id="Trazado_726790" data-name="Trazado 726790" d="M448.5,47.056l36.906-21.442a3.665,3.665,0,0,1,2.426-.4L450.926,46.654a3.623,3.623,0,0,0-2.426.4Z" transform="translate(-448.5 -25.161)" fill="#c31c27"/>
                  <path id="Trazado_726791" data-name="Trazado 726791" d="M446.54,46.662,483.446,25.22a6.131,6.131,0,0,1,1.71.541L448.25,47.2a6.433,6.433,0,0,0-1.71-.541h0Z" transform="translate(-444.114 -25.169)" fill="#c31c27"/>
                  <path id="Trazado_726792" data-name="Trazado 726792" d="M445.84,47.282,482.746,25.84c.2.1.41.2.62.323L446.46,47.6c-.209-.122-.419-.227-.62-.323Z" transform="translate(-441.712 -25.248)" fill="#c31c27"/>
                </g>
              </g>
            </g>
            <g id="Grupo_1011082" data-name="Grupo 1011082" transform="translate(6.702 0.904)">
              <path id="Trazado_726794" data-name="Trazado 726794" d="M479.819,42,442.914,63.446c1.2-.7,1.937-2.173,1.946-4.285a14.677,14.677,0,0,0-6.65-11.519L475.116,26.2a14.631,14.631,0,0,1,6.65,11.519c0,2.1-.75,3.587-1.946,4.285Z" transform="translate(-438.21 -26.2)" fill="#c31c27"/>
              <g id="Grupo_1011081" data-name="Grupo 1011081" clip-path="url(#clip-path-16)">
                <g id="Grupo_1011080" data-name="Grupo 1011080" transform="translate(-0.009 0.009)">
                  <path id="Trazado_726795" data-name="Trazado 726795" d="M444.51,47.652,481.416,26.21a9.691,9.691,0,0,1,1.161.785L445.671,48.437a9.046,9.046,0,0,0-1.161-.785Z" transform="translate(-444.51 -26.21)" fill="#c31c27"/>
                  <path id="Trazado_726796" data-name="Trazado 726796" d="M438.7,48.552,475.606,27.11a15.414,15.414,0,0,1,5.07,7.758L443.77,56.31a15.489,15.489,0,0,0-5.07-7.758Z" transform="translate(-437.539 -26.325)" fill="#d93f48"/>
                  <path id="Trazado_726797" data-name="Trazado 726797" d="M438.25,57.442,475.156,36a11.7,11.7,0,0,1,.393,2.19L438.643,59.632a12.307,12.307,0,0,0-.393-2.19Z" transform="translate(-432.019 -27.456)" fill="#c31c27"/>
                  <path id="Trazado_726798" data-name="Trazado 726798" d="M438.271,59.952,475.177,38.51c.017.262.035.524.035.785a7.591,7.591,0,0,1-.1,1.213L438.21,61.95a7.6,7.6,0,0,0,.1-1.213c0-.262-.009-.524-.035-.785Z" transform="translate(-431.647 -27.776)" fill="#c31c27"/>
                  <path id="Trazado_726799" data-name="Trazado 726799" d="M440.17,62.242,477.076,40.8a4.141,4.141,0,0,1-1.85,3.072L438.32,65.314a4.124,4.124,0,0,0,1.85-3.072Z" transform="translate(-433.607 -28.068)" fill="#c31c27"/>
                </g>
              </g>
            </g>
            <path id="Trazado_726801" data-name="Trazado 726801" d="M487.2,50.646a14.631,14.631,0,0,1,6.65,11.519c-.009,4.241-3.011,5.943-6.693,3.814a14.656,14.656,0,0,1-6.65-11.528c.009-4.233,3.011-5.934,6.693-3.814Z" transform="translate(-480.51 -28.291)" fill="#a11019"/>
            <path id="Trazado_726802" data-name="Trazado 726802" d="M487.9,57.246a3.845,3.845,0,0,1,1.737,3c0,1.108-.785,1.553-1.745.995a3.845,3.845,0,0,1-1.737-3C486.15,57.141,486.935,56.7,487.9,57.246Z" transform="translate(-481.211 -29.219)" fill="#c31c27"/>
          </g>
          <g id="Grupo_1011090" data-name="Grupo 1011090" transform="translate(0 27.898)">
            <g id="Grupo_1011086" data-name="Grupo 1011086" transform="translate(0.489)">
              <g id="Grupo_1011085" data-name="Grupo 1011085" clip-path="url(#clip-path-17)">
                <g id="Grupo_1011084" data-name="Grupo 1011084" transform="translate(0 0.002)">
                  <path id="Trazado_726803" data-name="Trazado 726803" d="M488.91,60.822l6.152-3.578a.916.916,0,0,1,.6-.1l-6.152,3.578a.916.916,0,0,0-.6.1Z" transform="translate(-488.91 -57.135)" fill="#575b6c"/>
                  <path id="Trazado_726804" data-name="Trazado 726804" d="M488.42,60.718l6.152-3.578a1.486,1.486,0,0,1,.428.131l-6.152,3.578a1.411,1.411,0,0,0-.428-.131Z" transform="translate(-487.818 -57.136)" fill="#686d82"/>
                  <path id="Trazado_726805" data-name="Trazado 726805" d="M488.24,60.878l6.152-3.578.157.079L488.4,60.957a1.324,1.324,0,0,0-.157-.079Z" transform="translate(-487.21 -57.156)" fill="#7a7f97"/>
                </g>
              </g>
            </g>
            <g id="Grupo_1011089" data-name="Grupo 1011089" transform="translate(1.676 0.233)">
              <g id="Grupo_1011088" data-name="Grupo 1011088" clip-path="url(#clip-path-18)">
                <g id="Grupo_1011087" data-name="Grupo 1011087" transform="translate(0 -0.009)">
                  <path id="Trazado_726807" data-name="Trazado 726807" d="M487.91,60.968l6.152-3.578a2.746,2.746,0,0,1,.288.192L488.2,61.16a2.747,2.747,0,0,0-.288-.192Z" transform="translate(-487.91 -57.39)" fill="#7a7f97"/>
                  <path id="Trazado_726808" data-name="Trazado 726808" d="M486.46,61.188l6.152-3.578a3.872,3.872,0,0,1,1.265,1.937l-6.152,3.578a3.816,3.816,0,0,0-1.265-1.937Z" transform="translate(-486.172 -57.418)" fill="#8b91ad"/>
                  <path id="Trazado_726809" data-name="Trazado 726809" d="M486.35,63.408,492.5,59.83a2.514,2.514,0,0,1,.1.55l-6.152,3.578a4.021,4.021,0,0,0-.1-.55h0Z" transform="translate(-484.797 -57.701)" fill="#7a7f97"/>
                  <path id="Trazado_726810" data-name="Trazado 726810" d="M486.376,64.048l6.152-3.578v.2a1.171,1.171,0,0,1-.026.305l-6.152,3.578a1.657,1.657,0,0,0,.026-.305v-.2Z" transform="translate(-484.727 -57.782)" fill="#686d82"/>
                  <path id="Trazado_726811" data-name="Trazado 726811" d="M486.833,64.618l6.152-3.578a1.048,1.048,0,0,1-.462.768l-6.152,3.578a1.048,1.048,0,0,0,.463-.768h0Z" transform="translate(-485.201 -57.855)" fill="#575b6c"/>
                </g>
              </g>
            </g>
            <path id="Trazado_726813" data-name="Trazado 726813" d="M495.066,61.455a3.662,3.662,0,0,1,1.658,2.88c0,1.056-.75,1.484-1.676.951a3.662,3.662,0,0,1-1.658-2.88c0-1.065.75-1.492,1.676-.96Z" transform="translate(-493.39 -57.653)" fill="#4b4e5d"/>
          </g>
        </g>
        <g id="Grupo_1011113" data-name="Grupo 1011113" transform="translate(6.973 3.206)">
          <g id="Grupo_1011098" data-name="Grupo 1011098" transform="translate(42.002 3.681)">
            <g id="Grupo_1011094" data-name="Grupo 1011094" transform="translate(0.489)">
              <g id="Grupo_1011093" data-name="Grupo 1011093" clip-path="url(#clip-path-19)">
                <g id="Grupo_1011092" data-name="Grupo 1011092" transform="translate(0 0.002)">
                  <path id="Trazado_726814" data-name="Trazado 726814" d="M440.78,11.582,446.932,8a.917.917,0,0,1,.6-.1l-6.152,3.578a.916.916,0,0,0-.6.1Z" transform="translate(-440.78 -7.895)" fill="#575b6c"/>
                  <path id="Trazado_726815" data-name="Trazado 726815" d="M440.29,11.488l6.152-3.578a1.487,1.487,0,0,1,.428.131l-6.152,3.578a1.41,1.41,0,0,0-.428-.131Z" transform="translate(-439.688 -7.897)" fill="#686d82"/>
                  <path id="Trazado_726816" data-name="Trazado 726816" d="M440.11,11.638l6.152-3.578.157.079-6.152,3.578a1.323,1.323,0,0,0-.157-.079Z" transform="translate(-439.08 -7.916)" fill="#7a7f97"/>
                </g>
              </g>
            </g>
            <g id="Grupo_1011097" data-name="Grupo 1011097" transform="translate(1.676 0.233)">
              <g id="Grupo_1011096" data-name="Grupo 1011096" clip-path="url(#clip-path-20)">
                <g id="Grupo_1011095" data-name="Grupo 1011095" transform="translate(0 -0.009)">
                  <path id="Trazado_726818" data-name="Trazado 726818" d="M439.78,11.728l6.152-3.578a2.751,2.751,0,0,1,.288.192l-6.152,3.578a2.755,2.755,0,0,0-.288-.192h0Z" transform="translate(-439.78 -8.15)" fill="#7a7f97"/>
                  <path id="Trazado_726819" data-name="Trazado 726819" d="M438.34,11.958l6.152-3.578a3.816,3.816,0,0,1,1.265,1.937L439.605,13.9a3.816,3.816,0,0,0-1.265-1.937Z" transform="translate(-438.061 -8.179)" fill="#8b91ad"/>
                  <path id="Trazado_726820" data-name="Trazado 726820" d="M438.23,14.178l6.152-3.578a2.507,2.507,0,0,1,.1.55l-6.152,3.578a4.035,4.035,0,0,0-.1-.55Z" transform="translate(-436.685 -8.462)" fill="#7a7f97"/>
                  <path id="Trazado_726821" data-name="Trazado 726821" d="M438.246,14.808,444.4,11.23v.2a1.171,1.171,0,0,1-.026.305l-6.152,3.578a1.663,1.663,0,0,0,.026-.305v-.2Z" transform="translate(-436.597 -8.542)" fill="#686d82"/>
                  <path id="Trazado_726822" data-name="Trazado 726822" d="M438.7,15.378l6.152-3.578a1.048,1.048,0,0,1-.462.768l-6.152,3.578a1.048,1.048,0,0,0,.463-.768h0Z" transform="translate(-437.071 -8.615)" fill="#575b6c"/>
                </g>
              </g>
            </g>
            <path id="Trazado_726824" data-name="Trazado 726824" d="M446.936,12.215a3.662,3.662,0,0,1,1.658,2.88c0,1.056-.75,1.484-1.676.951a3.662,3.662,0,0,1-1.658-2.88c0-1.065.751-1.492,1.676-.96Z" transform="translate(-445.26 -8.413)" fill="#4b4e5d"/>
          </g>
          <g id="Grupo_1011105" data-name="Grupo 1011105" transform="translate(1.23)">
            <g id="Grupo_1011101" data-name="Grupo 1011101" transform="translate(1.946)">
              <path id="Trazado_726825" data-name="Trazado 726825" d="M445.84,25.566,482.746,4.124c1.213-.707,2.9-.6,4.747.463L450.587,26.029C448.729,24.955,447.053,24.859,445.84,25.566Z" transform="translate(-445.84 -3.674)" fill="#fbc70e"/>
              <g id="Grupo_1011100" data-name="Grupo 1011100" clip-path="url(#clip-path-21)">
                <g id="Grupo_1011099" data-name="Grupo 1011099" transform="translate(0 -0.003)">
                  <path id="Trazado_726826" data-name="Trazado 726826" d="M448.5,25.566,485.406,4.124a3.665,3.665,0,0,1,2.426-.4L450.926,25.164a3.623,3.623,0,0,0-2.426.4h0Z" transform="translate(-448.5 -3.671)" fill="#fbc70e"/>
                  <path id="Trazado_726827" data-name="Trazado 726827" d="M446.54,25.172,483.446,3.73a6.131,6.131,0,0,1,1.71.541L448.25,25.713a6.433,6.433,0,0,0-1.71-.541h0Z" transform="translate(-444.114 -3.679)" fill="#fbc70e"/>
                  <path id="Trazado_726828" data-name="Trazado 726828" d="M445.84,25.792,482.746,4.35c.2.1.41.2.62.323L446.46,26.115c-.209-.122-.419-.227-.62-.323Z" transform="translate(-441.712 -3.758)" fill="#fbc70e"/>
                </g>
              </g>
            </g>
            <g id="Grupo_1011104" data-name="Grupo 1011104" transform="translate(6.702 0.904)">
              <path id="Trazado_726830" data-name="Trazado 726830" d="M479.819,20.514,442.914,41.956c1.2-.7,1.937-2.173,1.946-4.285a14.677,14.677,0,0,0-6.65-11.519L475.116,4.71a14.631,14.631,0,0,1,6.65,11.519C481.766,18.333,481.015,19.816,479.819,20.514Z" transform="translate(-438.21 -4.71)" fill="#fbc70e"/>
              <g id="Grupo_1011103" data-name="Grupo 1011103" clip-path="url(#clip-path-22)">
                <g id="Grupo_1011102" data-name="Grupo 1011102" transform="translate(-0.009 0.009)">
                  <path id="Trazado_726831" data-name="Trazado 726831" d="M444.51,26.162,481.416,4.72a9.69,9.69,0,0,1,1.161.785L445.671,26.947a9.045,9.045,0,0,0-1.161-.785Z" transform="translate(-444.51 -4.72)" fill="#fbc70e"/>
                  <path id="Trazado_726832" data-name="Trazado 726832" d="M438.7,27.062,475.606,5.62a15.414,15.414,0,0,1,5.07,7.758L443.77,34.82a15.489,15.489,0,0,0-5.07-7.758Z" transform="translate(-437.539 -4.835)" fill="#fdda4c"/>
                  <path id="Trazado_726833" data-name="Trazado 726833" d="M438.25,35.952,475.156,14.51a11.7,11.7,0,0,1,.393,2.19L438.643,38.142a12.307,12.307,0,0,0-.393-2.19h0Z" transform="translate(-432.019 -5.966)" fill="#fbc70e"/>
                  <path id="Trazado_726834" data-name="Trazado 726834" d="M438.271,38.462,475.177,17.02c.017.262.035.524.035.785a7.591,7.591,0,0,1-.1,1.213L438.21,40.46a7.6,7.6,0,0,0,.1-1.213c0-.262-.009-.524-.035-.785Z" transform="translate(-431.647 -6.286)" fill="#fbc70e"/>
                  <path id="Trazado_726835" data-name="Trazado 726835" d="M440.17,40.752,477.076,19.31a4.141,4.141,0,0,1-1.85,3.072L438.32,43.824a4.124,4.124,0,0,0,1.85-3.072Z" transform="translate(-433.607 -6.578)" fill="#fbc70e"/>
                </g>
              </g>
            </g>
            <path id="Trazado_726837" data-name="Trazado 726837" d="M487.2,29.156a14.631,14.631,0,0,1,6.65,11.519c-.009,4.241-3.011,5.943-6.693,3.814a14.656,14.656,0,0,1-6.65-11.528c.009-4.233,3.011-5.934,6.693-3.814Z" transform="translate(-480.51 -6.801)" fill="#ffb700"/>
            <path id="Trazado_726838" data-name="Trazado 726838" d="M487.9,35.756a3.845,3.845,0,0,1,1.737,3c0,1.108-.785,1.553-1.745.995a3.845,3.845,0,0,1-1.737-3C486.15,35.651,486.935,35.206,487.9,35.756Z" transform="translate(-481.211 -7.729)" fill="#fbc70e"/>
          </g>
          <g id="Grupo_1011112" data-name="Grupo 1011112" transform="translate(0 27.898)">
            <g id="Grupo_1011108" data-name="Grupo 1011108" transform="translate(0.489)">
              <g id="Grupo_1011107" data-name="Grupo 1011107" clip-path="url(#clip-path-23)">
                <g id="Grupo_1011106" data-name="Grupo 1011106" transform="translate(0 0.002)">
                  <path id="Trazado_726839" data-name="Trazado 726839" d="M488.91,39.332l6.152-3.578a.916.916,0,0,1,.6-.1l-6.152,3.578a.916.916,0,0,0-.6.1Z" transform="translate(-488.91 -35.645)" fill="#575b6c"/>
                  <path id="Trazado_726840" data-name="Trazado 726840" d="M488.42,39.238l6.152-3.578a1.486,1.486,0,0,1,.428.131l-6.152,3.578a1.411,1.411,0,0,0-.428-.131Z" transform="translate(-487.818 -35.647)" fill="#686d82"/>
                  <path id="Trazado_726841" data-name="Trazado 726841" d="M488.24,39.388l6.152-3.578.157.079L488.4,39.467a1.323,1.323,0,0,0-.157-.079Z" transform="translate(-487.21 -35.666)" fill="#7a7f97"/>
                </g>
              </g>
            </g>
            <g id="Grupo_1011111" data-name="Grupo 1011111" transform="translate(1.676 0.233)">
              <g id="Grupo_1011110" data-name="Grupo 1011110" clip-path="url(#clip-path-24)">
                <g id="Grupo_1011109" data-name="Grupo 1011109" transform="translate(0 -0.009)">
                  <path id="Trazado_726843" data-name="Trazado 726843" d="M487.91,39.478l6.152-3.578a2.745,2.745,0,0,1,.288.192L488.2,39.67a2.747,2.747,0,0,0-.288-.192Z" transform="translate(-487.91 -35.9)" fill="#7a7f97"/>
                  <path id="Trazado_726844" data-name="Trazado 726844" d="M486.46,39.708l6.152-3.578a3.872,3.872,0,0,1,1.265,1.937l-6.152,3.578a3.816,3.816,0,0,0-1.265-1.937Z" transform="translate(-486.172 -35.929)" fill="#8b91ad"/>
                  <path id="Trazado_726845" data-name="Trazado 726845" d="M486.35,41.928,492.5,38.35a2.515,2.515,0,0,1,.1.55l-6.152,3.578a4.021,4.021,0,0,0-.1-.55Z" transform="translate(-484.797 -36.212)" fill="#7a7f97"/>
                  <path id="Trazado_726846" data-name="Trazado 726846" d="M486.376,42.558l6.152-3.578v.2a1.171,1.171,0,0,1-.026.305l-6.152,3.578a1.657,1.657,0,0,0,.026-.305v-.2Z" transform="translate(-484.727 -36.292)" fill="#686d82"/>
                  <path id="Trazado_726847" data-name="Trazado 726847" d="M486.833,43.128l6.152-3.578a1.048,1.048,0,0,1-.462.768L486.37,43.9a1.048,1.048,0,0,0,.463-.768Z" transform="translate(-485.201 -36.365)" fill="#575b6c"/>
                </g>
              </g>
            </g>
            <path id="Trazado_726849" data-name="Trazado 726849" d="M495.066,39.965a3.662,3.662,0,0,1,1.658,2.88c0,1.056-.75,1.484-1.676.951a3.662,3.662,0,0,1-1.658-2.88c0-1.065.75-1.492,1.676-.96Z" transform="translate(-493.39 -36.163)" fill="#4b4e5d"/>
          </g>
        </g>
        <g id="Grupo_1011114" data-name="Grupo 1011114" transform="translate(6.973 28.38)">
          <path id="Trazado_726850" data-name="Trazado 726850" d="M496.729,112.838l-3.081-1.789-.218-77.6,3.081,1.789Z" transform="translate(-493.43 -32.638)" fill="#4a4e5c"/>
          <path id="Trazado_726851" data-name="Trazado 726851" d="M495.151,35.121l-3.081-1.789,1.414-.812,3.072,1.789Z" transform="translate(-492.07 -32.52)" fill="#787d95"/>
          <path id="Trazado_726852" data-name="Trazado 726852" d="M493.225,34.57l.218,77.6-1.405.812-.218-77.6Z" transform="translate(-488.739 -32.781)" fill="#6c7086"/>
        </g>
      </g>
    </g>
  </g>
</svg>
