<svg xmlns="http://www.w3.org/2000/svg" width="105" height="105" viewBox="0 0 105 105">
  <g id="Grupo_1014231" data-name="Grupo 1014231" transform="translate(-748 -1279)">
    <circle id="Elipse_4625" data-name="Elipse 4625" cx="52.5" cy="52.5" r="52.5" transform="translate(748 1279)" fill="#ff6e33"/>
    <g id="Grupo_1014164" data-name="Grupo 1014164" transform="translate(287)">
      <g id="mantenimiento" transform="translate(485 1300)">
        <g id="Grupo_1014161" data-name="Grupo 1014161">
          <g id="Grupo_1014143" data-name="Grupo 1014143">
            <path id="Trazado_733050" data-name="Trazado 733050" d="M54.41,6.59A1.955,1.955,0,0,1,55,8a2.006,2.006,0,0,1-2,2H49a2.015,2.015,0,0,1-2-2,2.006,2.006,0,0,1,2-2h4A1.955,1.955,0,0,1,54.41,6.59Z" fill="#fcd770"/>
          </g>
          <g id="Grupo_1014144" data-name="Grupo 1014144">
            <path id="Trazado_733051" data-name="Trazado 733051" d="M54.41,10.59A1.955,1.955,0,0,1,55,12a2.006,2.006,0,0,1-2,2H49a2.015,2.015,0,0,1-2-2,2.006,2.006,0,0,1,2-2h4A1.955,1.955,0,0,1,54.41,10.59Z" fill="#fcd770"/>
          </g>
          <g id="Grupo_1014145" data-name="Grupo 1014145">
            <path id="Trazado_733052" data-name="Trazado 733052" d="M54.41,14.59A1.955,1.955,0,0,1,55,16a2.006,2.006,0,0,1-2,2H49a2.015,2.015,0,0,1-2-2,2.006,2.006,0,0,1,2-2h4A1.955,1.955,0,0,1,54.41,14.59Z" fill="#fcd770"/>
          </g>
          <g id="Grupo_1014146" data-name="Grupo 1014146">
            <path id="Trazado_733053" data-name="Trazado 733053" d="M54.41,2.59A1.955,1.955,0,0,1,55,4a2.006,2.006,0,0,1-2,2H49a2.015,2.015,0,0,1-2-2,2.006,2.006,0,0,1,2-2h4A1.955,1.955,0,0,1,54.41,2.59Z" fill="#fcd770"/>
          </g>
          <g id="Grupo_1014147" data-name="Grupo 1014147">
            <path id="Trazado_733054" data-name="Trazado 733054" d="M58,20v2H44V20a2.006,2.006,0,0,1,2-2H56A2.006,2.006,0,0,1,58,20Z" fill="#ccd1d9"/>
          </g>
          <g id="Grupo_1014148" data-name="Grupo 1014148">
            <path id="Trazado_733055" data-name="Trazado 733055" d="M2,7H40V62H2Z" fill="#969faa"/>
          </g>
          <g id="Grupo_1014149" data-name="Grupo 1014149">
            <path id="Trazado_733056" data-name="Trazado 733056" d="M6,11H36V32H6Z" fill="#e6e9ed"/>
          </g>
          <g id="Grupo_1014150" data-name="Grupo 1014150">
            <path id="Trazado_733057" data-name="Trazado 733057" d="M13,62H7V54a6,6,0,0,1,6-6H29a2.006,2.006,0,0,0,2-2V32.5a2.5,2.5,0,0,1,4.95-.5,2.734,2.734,0,0,1,.05.5V47a6,6,0,0,1-6,6H28v9Z" fill="#b4dd7f"/>
          </g>
          <g id="Grupo_1014151" data-name="Grupo 1014151">
            <path id="Trazado_733058" data-name="Trazado 733058" d="M19,45a6.844,6.844,0,0,0,3-.68V48H16V44.32A6.844,6.844,0,0,0,19,45Z" fill="#f0d0b4"/>
          </g>
          <g id="Grupo_1014152" data-name="Grupo 1014152">
            <path id="Trazado_733059" data-name="Trazado 733059" d="M26,35v3a6.958,6.958,0,0,1-2.05,4.95A6.986,6.986,0,0,1,16,44.32,6.97,6.97,0,0,1,12,38V35Z" fill="#f0d0b4"/>
          </g>
          <g id="Grupo_1014153" data-name="Grupo 1014153">
            <path id="Trazado_733060" data-name="Trazado 733060" d="M27.94,31H10.06a9,9,0,0,1,17.88,0Z" fill="#ffeaa7"/>
          </g>
          <g id="Grupo_1014154" data-name="Grupo 1014154">
            <path id="Trazado_733061" data-name="Trazado 733061" d="M29,32v2a1,1,0,0,1-1,1H10a1,1,0,0,1-1-1V32a1,1,0,0,1,1-1H28a1,1,0,0,1,1,1Z" fill="#fcd770"/>
          </g>
          <g id="Grupo_1014155" data-name="Grupo 1014155">
            <path id="Trazado_733062" data-name="Trazado 733062" d="M40,48H58V62H40Z" fill="#cf9e76"/>
          </g>
          <g id="Grupo_1014156" data-name="Grupo 1014156">
            <path id="Trazado_733063" data-name="Trazado 733063" d="M58,40a4,4,0,1,1,0,8H40V40H58Z" fill="#ccd1d9"/>
          </g>
          <g id="Grupo_1014157" data-name="Grupo 1014157">
            <circle id="Elipse_7820" data-name="Elipse 7820" cx="3" cy="3" r="3" transform="translate(44 41)" fill="#969faa"/>
          </g>
          <g id="Grupo_1014158" data-name="Grupo 1014158">
            <circle id="Elipse_7821" data-name="Elipse 7821" cx="3" cy="3" r="3" transform="translate(52 41)" fill="#969faa"/>
          </g>
          <g id="Grupo_1014159" data-name="Grupo 1014159">
            <path id="Trazado_733064" data-name="Trazado 733064" d="M56,26H46a2.006,2.006,0,0,0-2,2V38a2.006,2.006,0,0,0,2,2H56a2.006,2.006,0,0,0,2-2V28A2.006,2.006,0,0,0,56,26Z" fill="#d3a06c"/>
          </g>
          <g id="Grupo_1014160" data-name="Grupo 1014160">
            <path id="Trazado_733065" data-name="Trazado 733065" d="M48,26h6v4H48Z" fill="#b27946"/>
          </g>
        </g>
        <g id="Grupo_1014162" data-name="Grupo 1014162">
          <path id="Trazado_733066" data-name="Trazado 733066" d="M58.791,39.08A2.983,2.983,0,0,0,59,38V28a3,3,0,0,0-3-3H46a3,3,0,0,0-3,3V38a2.966,2.966,0,0,0,.184,1H41V6H1V63H59V48.9a4.99,4.99,0,0,0-.209-9.819ZM47,42a2,2,0,1,1-2,2A2,2,0,0,1,47,42Zm2.618-1h2.765a3.946,3.946,0,0,0,0,6H49.617a3.946,3.946,0,0,0,0-6ZM55,46a2,2,0,1,1,2-2A2,2,0,0,1,55,46ZM49,27h4v2H49ZM45,38V28a1,1,0,0,1,1-1h1v4h8V27h1a1,1,0,0,1,1,1V38a1,1,0,0,1-1,1H46A1,1,0,0,1,45,38Zm-.618,3a3.947,3.947,0,0,0,0,6H41V41ZM8.278,31H7V12H35V29.351A3.464,3.464,0,0,0,33.5,29,3.5,3.5,0,0,0,30,32.5V32a2,2,0,0,0-1.176-1.818,9.989,9.989,0,0,0-19.648,0A2.016,2.016,0,0,0,8.278,31ZM27,38V36h1a2,2,0,0,0,2-2V46a1,1,0,0,1-1,1H23V44.918A8,8,0,0,0,27,38Zm-.264-8H11.264a7.987,7.987,0,0,1,15.472,0ZM10,32H28v2H10Zm3,4H25v2a6,6,0,0,1-12,0Zm6,10a7.953,7.953,0,0,0,2-.263V47H17V45.737A7.953,7.953,0,0,0,19,46Zm10,3a3,3,0,0,0,3-3V32.5a1.5,1.5,0,0,1,3,0V47a5.006,5.006,0,0,1-5,5H27v9H14V55.236a4.592,4.592,0,0,0-2.553-4.13l-.9,1.789A2.6,2.6,0,0,1,12,55.236V61H8V54a5.006,5.006,0,0,1,5-5ZM39,61H29V54h1a7.008,7.008,0,0,0,7-7V32.5a3.444,3.444,0,0,0-.051-.5H37V10H5V33H8v1a2,2,0,0,0,2,2h1v2a8,8,0,0,0,4,6.918V47H13a7.008,7.008,0,0,0-7,7v7H3V8H39Zm2,0V49H57V61ZM58,47h-.382a3.947,3.947,0,0,0,0-6H58a3,3,0,0,1,0,6Z"/>
          <path id="Trazado_733067" data-name="Trazado 733067" d="M53,1H39V3h7.184a2.908,2.908,0,0,0,.6,3,2.954,2.954,0,0,0,0,4,2.954,2.954,0,0,0,0,4,2.908,2.908,0,0,0-.6,3H46a3,3,0,0,0-3,3v3H59V20a3,3,0,0,0-3-3h-.184a2.908,2.908,0,0,0-.6-3,2.954,2.954,0,0,0,0-4,2.954,2.954,0,0,0,0-4,2.908,2.908,0,0,0,.6-3H63V1Zm1,7a1,1,0,0,1-1,1H49a1,1,0,0,1,0-2h4A1,1,0,0,1,54,8Zm0,4a1,1,0,0,1-1,1H49a1,1,0,0,1,0-2h4A1,1,0,0,1,54,12Zm3,8v1H45V20a1,1,0,0,1,1-1H56A1,1,0,0,1,57,20Zm-8-3a1,1,0,0,1,0-2h4a1,1,0,0,1,0,2ZM54,4a1,1,0,0,1-1,1H49a1,1,0,0,1,0-2h4A1,1,0,0,1,54,4Z"/>
          <path id="Trazado_733068" data-name="Trazado 733068" d="M9,14h2v2H9Z"/>
          <path id="Trazado_733069" data-name="Trazado 733069" d="M13,14H33v2H13Z"/>
          <path id="Trazado_733070" data-name="Trazado 733070" d="M9,18H33v2H9Z"/>
        </g>
      </g>
    </g>
  </g>
</svg>
