<svg xmlns="http://www.w3.org/2000/svg" xmlns:xlink="http://www.w3.org/1999/xlink" width="81" height="77" viewBox="0 0 81 77">
  <defs>
    <clipPath id="clip-path">
      <rect id="Rectángulo_347887" data-name="Rectángulo 347887" width="81" height="77" transform="translate(206 4459)" fill="#fff" stroke="#707070" stroke-width="1" opacity="0.31"/>
    </clipPath>
  </defs>
  <g id="Enmascarar_grupo_479" data-name="Enmascarar grupo 479" transform="translate(-206 -4459)" clip-path="url(#clip-path)">
    <path id="Trazado_736219" data-name="Trazado 736219" d="M0,0H4.754V8.884H0Z" transform="matrix(0.758, -0.652, 0.652, 0.758, 229.638, 4478.14)" fill="#fedf30"/>
    <path id="Trazado_736220" data-name="Trazado 736220" d="M0,0H11.092V3.751H0Z" transform="matrix(0.758, -0.652, 0.652, 0.758, 224.791, 4477.362)" fill="#d7aa02"/>
    <path id="Trazado_736221" data-name="Trazado 736221" d="M0,0H4.754V8.884H0Z" transform="matrix(-0.758, -0.652, 0.652, -0.758, 270.68, 4484.883)" fill="#fedf30"/>
    <path id="Trazado_736222" data-name="Trazado 736222" d="M0,0H11.093V3.751H0Z" transform="matrix(-0.758, -0.652, 0.652, -0.758, 278.875, 4480.212)" fill="#d7aa02"/>
    <path id="Trazado_736223" data-name="Trazado 736223" d="M285.271,62.769h6.99v9.983h-6.99Z" transform="translate(-35.558 4404.758)" fill="#0055a3"/>
    <path id="Trazado_736224" data-name="Trazado 736224" d="M256.872,27.721H239.759a2.182,2.182,0,0,1-2.182-2.182V22.89a2.182,2.182,0,0,1,2.182-2.182h17.114a2.182,2.182,0,0,1,2.182,2.182v2.65A2.182,2.182,0,0,1,256.872,27.721Z" transform="translate(4.893 4440.431)" fill="#0473ce"/>
    <path id="Trazado_736225" data-name="Trazado 736225" d="M339.18,20.708h-4.556a2.182,2.182,0,0,1,2.182,2.182v2.65a2.182,2.182,0,0,1-2.182,2.182h4.556a2.182,2.182,0,0,0,2.182-2.182V22.89A2.182,2.182,0,0,0,339.18,20.708Z" transform="translate(-77.415 4440.431)" fill="#0055a3"/>
    <circle id="Elipse_7852" data-name="Elipse 7852" cx="29.288" cy="29.288" r="29.288" transform="translate(211.784 4502.809) rotate(-45)" fill="#26a6fe"/>
    <path id="Trazado_736226" data-name="Trazado 736226" d="M295.56,102.229q-1.15,0-2.278.088a29.29,29.29,0,0,1,0,58.4q1.128.087,2.278.088a29.289,29.289,0,1,0,0-58.577Z" transform="translate(-42.352 4371.291)" fill="#0593fc"/>
    <circle id="Elipse_7853" data-name="Elipse 7853" cx="22.809" cy="22.809" r="22.809" transform="translate(230.399 4480)" fill="#fff3ef"/>
    <path id="Trazado_736227" data-name="Trazado 736227" d="M298.359,145.074a22.864,22.864,0,0,0-5.252-.079c.232.023.463.049.7.079a22.811,22.811,0,0,1-.643,45.314,22.808,22.808,0,0,0,5.2-45.314Z" transform="translate(-42.204 4335.117)" fill="#d9e7ec"/>
    <path id="Trazado_736228" data-name="Trazado 736228" d="M68.606,34.8l1.58-1.838,1.539,1.324a1.139,1.139,0,0,0,.743.275q.043,0,.086,0a1.139,1.139,0,0,0,.778-.393l2.446-2.845a1.139,1.139,0,0,0-.121-1.606l-8.411-7.231a1.139,1.139,0,0,0-1.606.121l-2.446,2.845a1.139,1.139,0,0,0,.121,1.606l1.539,1.324-1.7,1.978a30.231,30.231,0,0,0-11.7-4.413V22.5h3.923a3.324,3.324,0,0,0,3.32-3.321v-2.65a3.324,3.324,0,0,0-3.32-3.321H38.263a3.324,3.324,0,0,0-3.321,3.321v2.65A3.324,3.324,0,0,0,38.263,22.5h3.923v3.442a30.238,30.238,0,0,0-11.9,4.547l-1.815-2.111,1.54-1.324a1.139,1.139,0,0,0,.121-1.606L27.682,22.6a1.139,1.139,0,0,0-1.606-.121l-8.411,7.231a1.139,1.139,0,0,0-.121,1.606l2.446,2.845a1.139,1.139,0,0,0,1.606.121l1.539-1.323,1.729,2.011A30.627,30.627,0,0,0,20.9,40.1a1.144,1.144,0,0,0-.117-.006H13.586a1.139,1.139,0,0,0,0,2.278h6.041a30.254,30.254,0,0,0-1.565,3.7H6.554a1.139,1.139,0,1,0,0,2.278H17.371a30.252,30.252,0,0,0-.849,4.875H1.139a1.139,1.139,0,0,0,0,2.278H16.4c0,.17-.007.34-.007.511a30.543,30.543,0,0,0,.314,4.364H5.49a1.139,1.139,0,0,0,0,2.278H17.125a30.127,30.127,0,0,0,1.078,3.7h-5.68a1.139,1.139,0,0,0,0,2.278h6.613A30.429,30.429,0,0,0,64.559,80.742a1.139,1.139,0,1,0-1.33-1.85,28.158,28.158,0,1,1,2.994-43.251l.033.032a28.127,28.127,0,0,1,.452,40.267,1.139,1.139,0,0,0,1.609,1.612A30.4,30.4,0,0,0,68.606,34.8Zm-1.983-9.847L73.308,30.7l-.96,1.117-6.684-5.746Zm-.042,4.911,1.877,1.614-1.5,1.749q-.927-.82-1.919-1.566Zm-24.8-9.64V15.486h1.84v4.735ZM45.9,15.486h1.84v4.735H45.9Zm4.118,4.735V15.486h1.84v4.735Zm6.4-3.693v2.65a1.044,1.044,0,0,1-1.042,1.042H54.136V15.486h1.241A1.044,1.044,0,0,1,56.42,16.529Zm-19.2,2.65v-2.65a1.044,1.044,0,0,1,1.042-1.042H39.5v4.735H38.264A1.044,1.044,0,0,1,37.221,19.179ZM20.974,31.814l-.96-1.117L26.7,24.951l.96,1.117-1.539,1.323h0l-3.6,3.1h0Zm3.922-.368,1.843-1.585,1.672,1.945q-.986.751-1.907,1.579l-1.642-1.91Zm19.568-5.767V22.5h4.712v3.18q-1.166-.09-2.356-.091t-2.356.09Z" transform="translate(206.388 4446.792)"/>
    <path id="Trazado_736229" data-name="Trazado 736229" d="M165,140.57a1.139,1.139,0,0,0-1.537-.482,23.841,23.841,0,1,0,5-1.935,1.139,1.139,0,1,0,.579,2.2,21.469,21.469,0,0,1,4.361-.677v2.993a1.139,1.139,0,0,0,2.278,0v-2.99q.829.045,1.661.152a21.512,21.512,0,0,1,11.736,5.411l-2.063,2.063a1.139,1.139,0,1,0,1.611,1.611l2.057-2.057q.537.6,1.034,1.246a21.512,21.512,0,0,1,4.471,12.1H193.36a1.139,1.139,0,0,0,0,2.278h2.819q-.045.815-.151,1.633a21.547,21.547,0,0,1-5.352,11.652l-1.951-1.951a1.139,1.139,0,0,0-1.611,1.611l1.954,1.954a21.678,21.678,0,0,1-13.246,5.567v-2.785a1.139,1.139,0,1,0-2.278,0v2.8c-.6-.028-1.2-.079-1.8-.158a21.546,21.546,0,0,1-11.548-5.259l2.018-2.018a1.139,1.139,0,1,0-1.611-1.611l-2.029,2.029a21.681,21.681,0,0,1-5.66-13.321h2.953a1.139,1.139,0,0,0,0-2.278h-2.969c.028-.607.079-1.217.159-1.831a21.683,21.683,0,0,1,5.323-11.626l2.123,2.123a1.139,1.139,0,0,0,1.611-1.611l-2.129-2.129a21.678,21.678,0,0,1,4.538-3.172A1.138,1.138,0,0,0,165,140.57Z" transform="translate(78.668 4341.487)"/>
    <path id="Trazado_736230" data-name="Trazado 736230" d="M292.706,226.278a1.139,1.139,0,0,0-1.139,1.139v6.766a2.787,2.787,0,1,0,2.318,5.068l7.6,7.6a1.139,1.139,0,0,0,1.611-1.611l-7.717-7.717a2.781,2.781,0,0,0-1.533-3.339v-6.766a1.139,1.139,0,0,0-1.139-1.139Zm-.511,10.449a.511.511,0,1,1,.511.511A.512.512,0,0,1,292.2,236.727Z" transform="translate(-39.498 4266.082)"/>
  </g>
</svg>
