<svg xmlns="http://www.w3.org/2000/svg" width="409.116" height="317.603" viewBox="0 0 409.116 317.603">
  <g id="Grupo_1023343" data-name="Grupo 1023343" transform="translate(5763.833 8261.766)">
    <g id="Grupo_1010787" data-name="Grupo 1010787" transform="translate(-5763.833 -8197.69)">
      <g id="Grupo_1008361" data-name="Grupo 1008361" transform="translate(0 0)">
        <path id="Trazado_717140" data-name="Trazado 717140" d="M441.346,308.843,199.463,448.527,32.23,351.957,274.112,212.3Z" transform="translate(-32.23 -210.307)" opacity="0.3"/>
        <path id="Trazado_717141" data-name="Trazado 717141" d="M441.346,308.13,199.463,447.787,32.23,351.244,274.112,211.56Z" transform="translate(-32.23 -211.56)" fill="#2a4e68"/>
        <g id="Grupo_1008358" data-name="Grupo 1008358" transform="translate(48.285 83.023)">
          <g id="Grupo_1008356" data-name="Grupo 1008356" transform="translate(9.802 20.414)">
            <path id="Trazado_717142" data-name="Trazado 717142" d="M115.145,262.323,75.208,285.375l-5.278-3.043,39.937-23.052,5.251,3.043ZM75.208,284.432l38.267-22.109-3.609-2.1L71.573,282.3l3.609,2.1Z" transform="translate(-26.492 -234.209)" fill="#fff"/>
            <path id="Trazado_717143" data-name="Trazado 717143" d="M84.149,267.48c-2.747,1.589-5.817,2.154-7.217,1.373-1.373-.808-.35-2.585,2.37-4.174,2.72-1.562,5.817-2.154,7.217-1.373,1.373.781.377,2.585-2.37,4.147Zm-4.013-2.316c-2.262,1.319-3.124,2.774-2.37,3.2s3.285-.054,5.574-1.373c2.262-1.319,3.124-2.774,2.343-3.2-.754-.431-3.285.054-5.548,1.373Z" transform="translate(-15.667 -227.974)" fill="#fff"/>
            <path id="Trazado_717144" data-name="Trazado 717144" d="M180.745,323.252c-24.344,14.057-41.768,21.975-47.827,21.705a3.165,3.165,0,0,1-1.912-.566l-.081-.054v-.081c-2.531-7.109-19.147-20.413-32.477-31.1-8.375-6.705-15.619-12.522-18.285-15.808-6.867-8.537-8.456-14.057-8.483-14.111l1.158-.108s1.589,5.494,8.4,13.95c2.585,3.232,9.829,8.995,18.178,15.7,13.357,10.718,30,24.021,32.612,31.292a1.846,1.846,0,0,0,.969.215c4.363.189,18.959-5.386,46.938-21.517,27.953-16.158,37.567-24.587,37.271-27.091a.751.751,0,0,0-.377-.566c-12.6-1.535-35.655-11.122-54.209-18.824-11.58-4.82-21.6-8.995-27.172-10.476a165.645,165.645,0,0,0-24.156-4.847l.189-.673a164.155,164.155,0,0,1,24.452,4.9c5.682,1.508,15.727,5.709,27.361,10.556,18.528,7.7,41.579,17.316,53.886,18.743h.135l.108.054a1.465,1.465,0,0,1,.969,1.1c.431,3.5-13.276,13.573-37.621,27.63Z" transform="translate(-23.53 -232.499)" fill="#fff"/>
            <path id="Trazado_717145" data-name="Trazado 717145" d="M137.632,275.311l-.862.458c-1.7-1.1-3.366-3.555-5.251-6.409-2.343-3.5-4.982-7.46-8.375-9.829a40.921,40.921,0,0,0-7.163-4.147c-1.939-.916-4.336-2.074-8.644-4.524-9.264,3.716-23.079,11.23-25.287,12.468.485.593,1.724,2.262,1.643,3.582v.323h-.566a25.486,25.486,0,0,1-6.221-.942c-2.127,1.293-15.161,9.237-21.6,14.6a89.577,89.577,0,0,1,7.863,4.982,41.743,41.743,0,0,0,7.19,4.147c4.093,1.939,10.96,3.474,17.02,4.82,4.928,1.1,9.21,2.047,11.1,3.043l-.781.512c-1.75-.916-6.113-1.885-10.745-2.908-6.14-1.374-13.115-2.908-17.343-4.955a42.007,42.007,0,0,1-7.352-4.228c-1.643-1.131-3.662-2.558-8.133-5.144l-.323-.188.269-.243c6.921-5.844,22.136-15,22.3-15.081l.3-.189.377.108a26.408,26.408,0,0,0,5.467.969,7.183,7.183,0,0,0-1.7-3.151l-.215-.215.323-.162c.162-.081,16.023-8.887,26.149-12.872l.4-.162.323.188c4.47,2.585,6.948,3.77,8.914,4.686a43.58,43.58,0,0,1,7.352,4.255c3.5,2.451,6.194,6.463,8.537,10.018,1.777,2.666,3.474,5.2,5.036,6.194Z" transform="translate(-53.8 -249.97)" fill="#fff"/>
          </g>
          <path id="Trazado_717146" data-name="Trazado 717146" d="M210.714,340.566a1.1,1.1,0,0,1-.431,0L57.43,252.318s-.108-.188,0-.242a.525.525,0,0,1,.4,0l152.88,88.249S210.822,340.486,210.714,340.566Z" transform="translate(-37.933 -226.06)" fill="#fff"/>
          <path id="Trazado_717147" data-name="Trazado 717147" d="M124.124,281.98,87.769,302.986,70.48,278.049l23.4-13.519,30.242,17.451Zm-36.14,20.386,35.332-20.386L93.909,264.988,71.18,278.1Z" transform="translate(-15.759 -204.906)" fill="#fff"/>
          <path id="Trazado_717148" data-name="Trazado 717148" d="M141.739,288.387,94.989,315.4,77.7,290.434l33.8-19.524,30.242,17.451ZM95.177,314.779,140.9,288.387,111.47,271.395l-33.124,19.12,16.8,24.264Z" transform="translate(-3.536 -194.105)" fill="#fff"/>
          <path id="Trazado_717149" data-name="Trazado 717149" d="M157.254,294.771l-53.806,31.077L86.16,300.911l40.852-23.591Zm-53.617,30.484,52.782-30.484L127.012,277.8,86.833,300.991Z" transform="translate(10.787 -183.253)" fill="#fff"/>
          <path id="Trazado_717150" data-name="Trazado 717150" d="M171.739,244.987,79.477,298.254s-.3.081-.4,0q-.2-.121,0-.242l92.261-53.267a.981.981,0,0,1,.4,0c.108.054.108.162,0,.242Z" transform="translate(-1.381 -238.442)" fill="#fff"/>
          <path id="Trazado_717151" data-name="Trazado 717151" d="M113.725,351.532s-.3.081-.4,0-.108-.162,0-.242c50.762-29.3,50.762-76.992,0-106.292-.108-.081-.108-.189,0-.242a.525.525,0,0,1,.4,0c24.694,14.246,38.294,33.231,38.294,53.4s-13.6,39.129-38.294,53.4Z" transform="translate(56.632 -238.453)" fill="#fff"/>
          <path id="Trazado_717152" data-name="Trazado 717152" d="M154.646,317.654a1.12,1.12,0,0,1-.35.027c-.135-.054-.188-.162-.108-.242l32.235-32.585L83.982,262.018c-.135-.027-.215-.135-.162-.215a.4.4,0,0,1,.377-.108l103.06,22.971L154.673,317.6s0,.027-.054.027Z" transform="translate(6.798 -209.719)" fill="#fff"/>
          <path id="Trazado_717153" data-name="Trazado 717153" d="M119.061,305.779a.541.541,0,0,1-.323.027c-.162-.027-.189-.135-.135-.215l27.818-33.124L88.442,259.46c-.162-.027-.242-.135-.162-.215a.359.359,0,0,1,.377-.081l58.572,13.142-28.088,33.447s-.027,0-.054.054Z" transform="translate(14.322 -214.028)" fill="#fff"/>
          <path id="Trazado_717154" data-name="Trazado 717154" d="M91.8,297.477a.931.931,0,0,1-.323.027c-.135-.054-.189-.135-.135-.215L120.1,262.657,95.382,256.84c-.162-.027-.215-.135-.162-.215a.359.359,0,0,1,.377-.081l25.314,5.951-.135.162-28.9,34.793-.054.054Z" transform="translate(19.527 -218.464)" fill="#fff"/>
          <path id="Trazado_717155" data-name="Trazado 717155" d="M92.4,272.246c-10.88,6.275-23.617,12.28-25.8,11.014s8.187-8.618,19.066-14.919c10.88-6.275,23.644-12.28,25.826-11.014s-8.187,8.618-19.066,14.919Zm-6.328-3.662c-12.98,7.486-20.467,13.6-19.066,14.434,1.4.808,12.011-3.5,24.991-11.014,12.98-7.486,20.493-13.6,19.093-14.434-1.4-.808-12.011,3.528-24.991,11.014Z" transform="translate(-22.816 -217.389)" fill="#fff"/>
          <path id="Trazado_717156" data-name="Trazado 717156" d="M93.911,273.112c-9.587,5.52-20.817,10.8-22.756,9.695-1.939-1.131,7.19-7.594,16.777-13.142,9.587-5.521,20.817-10.8,22.756-9.668s-7.19,7.594-16.777,13.142Zm-5.574-3.2c-11.391,6.571-17.989,11.957-16.777,12.657s10.5-3.1,21.921-9.668c11.391-6.6,17.989-11.957,16.777-12.657s-10.5,3.1-21.921,9.695Z" transform="translate(-15.06 -212.842)" fill="#fff"/>
          <path id="Trazado_717157" data-name="Trazado 717157" d="M90.932,271.4c-13.088,7.567-28.411,14.784-31.023,13.276-2.612-1.481,9.91-10.341,23-17.908,13.088-7.54,28.411-14.757,31.023-13.276,2.612,1.508-9.883,10.368-22.971,17.908Zm-7.621-4.389c-15.646,9.048-24.695,16.454-22.971,17.424,1.7.969,14.515-4.228,30.188-13.276s24.695-16.454,23-17.423-14.542,4.228-30.188,13.276Z" transform="translate(-34.245 -223.923)" fill="#fff"/>
          <path id="Trazado_717158" data-name="Trazado 717158" d="M80.487,254.055a.981.981,0,0,1-.4,0l-10.233-5.9s-.108-.162,0-.242a.525.525,0,0,1,.4,0l10.233,5.9S80.6,254,80.487,254.055Z" transform="translate(-16.906 -233.103)" fill="#fff"/>
          <path id="Trazado_717159" data-name="Trazado 717159" d="M89.039,268.456a.981.981,0,0,1-.4,0L79.91,263.42s-.108-.161,0-.242a.367.367,0,0,1,.4,0l8.725,5.036S89.147,268.376,89.039,268.456Z" transform="translate(0.125 -207.298)" fill="#fff"/>
          <path id="Trazado_717160" data-name="Trazado 717160" d="M85.789,270.324a.983.983,0,0,1-.4,0l-8.725-5.036s-.108-.162,0-.242a.525.525,0,0,1,.4,0l8.725,5.036S85.9,270.243,85.789,270.324Z" transform="translate(-5.377 -204.102)" fill="#fff"/>
          <path id="Trazado_717161" data-name="Trazado 717161" d="M60.867,265.4a.981.981,0,0,1-.4,0L50.23,259.5s-.108-.161,0-.242a.367.367,0,0,1,.4,0l10.233,5.9S60.975,265.344,60.867,265.4Z" transform="translate(-50.122 -213.934)" fill="#fff"/>
          <path id="Trazado_717162" data-name="Trazado 717162" d="M103.508,248.137,50.645,278.649a.98.98,0,0,1-.4,0c-.108-.054-.108-.162,0-.242L103.077,247.9a.981.981,0,0,1,.4,0c.108.054.108.162,0,.242Z" transform="translate(-50.16 -233.11)" fill="#fff"/>
          <path id="Trazado_717163" data-name="Trazado 717163" d="M77.676,251.01l-11.768,6.813-1.858-1.077,11.768-6.786Z" transform="translate(-26.645 -229.573)" fill="#fff"/>
          <path id="Trazado_717164" data-name="Trazado 717164" d="M67.416,256.957l-11.768,6.786-1.858-1.05,11.768-6.813Z" transform="translate(-44.015 -219.551)" fill="#fff"/>
          <path id="Trazado_717165" data-name="Trazado 717165" d="M97.228,252.786c-6.355,3.662-13.707,5.17-16.75,3.42s-.431-6.005,5.9-9.668c6.355-3.662,13.707-5.171,16.75-3.42S103.556,249.123,97.228,252.786ZM87.21,247c-5.682,3.285-8.4,7.271-5.9,8.725,2.478,1.427,9.4-.135,15.108-3.42,5.682-3.285,8.375-7.271,5.9-8.725s-9.4.135-15.081,3.42Z" transform="translate(-0.981 -242.39)" fill="#fff"/>
          <path id="Trazado_717166" data-name="Trazado 717166" d="M89.077,265.275l-8.752,5.063a.981.981,0,0,1-.4,0q-.162-.121,0-.242l8.752-5.063s.3-.081.4,0S89.185,265.194,89.077,265.275Z" transform="translate(0.087 -204.117)" fill="#fff"/>
          <g id="Grupo_1008357" data-name="Grupo 1008357" transform="translate(93.103 0.324)">
            <path id="Trazado_717167" data-name="Trazado 717167" d="M128.083,249.943,94.8,269.17a.858.858,0,0,1-.808,0c-.215-.135-.215-.323,0-.458l33.07-19.093,2.127-6.221-10.395,1.427-33.07,19.093a.858.858,0,0,1-.808,0c-.242-.135-.242-.35,0-.485l33.312-19.228,12.5-1.7-2.558,7.433Z" transform="translate(-84.733 -242.51)" fill="#fff"/>
            <path id="Trazado_717168" data-name="Trazado 717168" d="M92.879,250.675a2.966,2.966,0,0,1-2.693,0,.822.822,0,0,1,0-1.562,2.967,2.967,0,0,1,2.693,0A.832.832,0,0,1,92.879,250.675ZM91.02,249.6c-.3.162-.3.431,0,.592a1.141,1.141,0,0,0,1.023,0,.318.318,0,0,0,0-.592A1.14,1.14,0,0,0,91.02,249.6Z" transform="translate(-76.458 -231.878)" fill="#fff"/>
            <path id="Trazado_717169" data-name="Trazado 717169" d="M89.806,252.428a2.967,2.967,0,0,1-2.693,0c-.727-.431-.727-1.131,0-1.535a2.967,2.967,0,0,1,2.693,0C90.56,251.324,90.56,252.024,89.806,252.428Zm-1.858-1.077a.318.318,0,0,0,0,.593,1.141,1.141,0,0,0,1.023,0c.3-.162.3-.431,0-.593A1.14,1.14,0,0,0,87.948,251.351Z" transform="translate(-81.626 -228.865)" fill="#fff"/>
          </g>
        </g>
        <g id="Grupo_1008359" data-name="Grupo 1008359" transform="translate(171.919 9.775)">
          <path id="Trazado_717170" data-name="Trazado 717170" d="M171.554,217.021,99.248,258.762l-3.178-1.831,72.306-41.741Z" transform="translate(-96.07 -215.19)" fill="#bcbec0"/>
          <path id="Trazado_717171" data-name="Trazado 717171" d="M174.6,218.791l-72.306,41.741L99.14,258.7l72.306-41.741Z" transform="translate(-90.873 -212.193)" fill="#bcbec0"/>
          <path id="Trazado_717172" data-name="Trazado 717172" d="M159.372,224.481l-54.021,31.185-3.151-1.831,54.021-31.185Z" transform="translate(-85.692 -202.56)" fill="#bcbec0"/>
          <path id="Trazado_717173" data-name="Trazado 717173" d="M148.024,229.341l-39.614,22.836-3.151-1.8,39.587-22.863Z" transform="translate(-80.512 -194.333)" fill="#bcbec0"/>
          <path id="Trazado_717174" data-name="Trazado 717174" d="M183.787,224.091l-72.306,41.741-3.151-1.8,72.279-41.768Z" transform="translate(-75.314 -203.221)" fill="#bcbec0"/>
          <path id="Trazado_717175" data-name="Trazado 717175" d="M136,236.744l-21.463,12.388-3.151-1.8,21.436-12.388Z" transform="translate(-70.134 -181.754)" fill="#bcbec0"/>
          <path id="Trazado_717176" data-name="Trazado 717176" d="M189.907,227.631,117.6,269.372l-3.151-1.831L186.756,225.8Z" transform="translate(-64.953 -197.228)" fill="#bcbec0"/>
          <path id="Trazado_717177" data-name="Trazado 717177" d="M174.051,232.943,120.03,264.128l-2.37-1.346,54.021-31.212Z" transform="translate(-59.519 -187.459)" fill="#bcbec0"/>
          <path id="Trazado_717178" data-name="Trazado 717178" d="M196.054,231.144l-72.306,41.768-3.178-1.831,72.306-41.741Z" transform="translate(-54.592 -191.234)" fill="#bcbec0"/>
        </g>
        <g id="Grupo_1008360" data-name="Grupo 1008360" transform="translate(245.087 52.028)">
          <path id="Trazado_717179" data-name="Trazado 717179" d="M168.317,239.891l-39.587,22.863-3.151-1.831,39.587-22.863Z" transform="translate(-119.278 -218.725)" fill="#bcbec0"/>
          <path id="Trazado_717180" data-name="Trazado 717180" d="M179.041,240.411l-46.75,26.984-3.151-1.831,46.723-26.984Z" transform="translate(-113.251 -217.844)" fill="#bcbec0"/>
          <path id="Trazado_717181" data-name="Trazado 717181" d="M194.121,239.121l-59.38,34.255-3.151-1.8,59.38-34.282Z" transform="translate(-109.104 -220.028)" fill="#bcbec0"/>
          <path id="Trazado_717182" data-name="Trazado 717182" d="M203.386,239.974l-65.008,37.567L135.2,275.71l65.035-37.54Z" transform="translate(-102.992 -218.538)" fill="#bcbec0"/>
          <path id="Trazado_717183" data-name="Trazado 717183" d="M200.191,242.621,140.811,276.9l-3.151-1.831,59.38-34.282Z" transform="translate(-98.827 -214.103)" fill="#bcbec0"/>
          <path id="Trazado_717184" data-name="Trazado 717184" d="M209.416,243.454l-65.035,37.54-3.151-1.831,65.035-37.513Z" transform="translate(-92.784 -212.647)" fill="#bcbec0"/>
          <path id="Trazado_717185" data-name="Trazado 717185" d="M185.206,250.611l-38.375,22.136-3.151-1.831,38.348-22.136Z" transform="translate(-88.636 -200.576)" fill="#bcbec0"/>
          <path id="Trazado_717186" data-name="Trazado 717186" d="M193.086,252.111l-42.2,24.344-3.178-1.8,42.2-24.371Z" transform="translate(-81.813 -198.036)" fill="#bcbec0"/>
          <path id="Trazado_717187" data-name="Trazado 717187" d="M174.774,257.971l-21.436,12.388-3.178-1.831,21.463-12.388Z" transform="translate(-77.665 -188.116)" fill="#bcbec0"/>
          <path id="Trazado_717188" data-name="Trazado 717188" d="M274.019,275.691l-73.141,42.226L123.24,273.106l73.141-42.226Zm-73.141,41.283,71.471-41.283-75.969-43.868-71.5,41.256,76,43.868Z" transform="translate(-123.24 -230.88)" fill="#fff"/>
          <path id="Trazado_717189" data-name="Trazado 717189" d="M205.844,236.835l-72.306,41.741-.808-.458,72.279-41.768Z" transform="translate(-107.174 -221.619)" fill="#f6f6f6"/>
          <path id="Trazado_717190" data-name="Trazado 717190" d="M199.741,233.295l-72.306,41.741-.835-.458,72.306-41.768Z" transform="translate(-117.552 -227.613)" fill="#f6f6f6"/>
          <path id="Trazado_717191" data-name="Trazado 717191" d="M211.991,240.375l-72.306,41.741-.835-.485,72.306-41.741Z" transform="translate(-96.813 -215.626)" fill="#fff"/>
          <path id="Trazado_717192" data-name="Trazado 717192" d="M218.111,243.9,145.8,285.646l-.835-.458,72.306-41.768Z" transform="translate(-86.452 -209.65)" fill="#fff"/>
        </g>
      </g>
      <g id="Grupo_1008362" data-name="Grupo 1008362" transform="translate(216.323 157.594)">
        <path id="Trazado_717193" data-name="Trazado 717193" d="M103.261,265.493a6.7,6.7,0,0,0,1.266,1.912,2.856,2.856,0,0,1,1.993-.189l3.2,1.858h0l.4.242a3.348,3.348,0,0,1,1.239.135l38.186,22.029.242.135.135.081a5.775,5.775,0,0,1,1.373.162l35.2,20.359a3.408,3.408,0,0,1,1.562,4.524v.054a3.452,3.452,0,0,1-4.74.916l-5.682-3.285a1.749,1.749,0,0,1-2.37.646l-25.583-14.784a45.311,45.311,0,0,1-5.844-4.686l31.615,18.285s.458-.108.565-.377l-27.9-16.131a4.537,4.537,0,0,1-.808-1.1l-.377-.215h0L108.755,274a3.385,3.385,0,0,1-.727-1l-3.609-2.1a2.812,2.812,0,0,1-.862-1.8l-8.267-4.9,8,1.266Z" transform="translate(-95.263 -263.284)" opacity="0.3"/>
        <path id="Trazado_717194" data-name="Trazado 717194" d="M103.278,265.126l-8-1.266,13.034,7.729s.808-1.831-1.67-3.016a6.964,6.964,0,0,1-3.366-3.447Z" transform="translate(-95.28 -263.86)" fill="#b8b8b8"/>
        <path id="Trazado_717195" data-name="Trazado 717195" d="M101.327,265.054a2.145,2.145,0,0,0-2.127,3.689l39.156,22.594a2.287,2.287,0,0,0,3.178-.619h0a2.334,2.334,0,0,0-1.05-3.1l-39.156-22.594Z" transform="translate(-90.07 -262.037)" fill="#ff8400"/>
        <path id="Trazado_717196" data-name="Trazado 717196" d="M100.553,267.163a2.475,2.475,0,0,0-.027,2.451l-.377-.215a2.378,2.378,0,0,1,2.154-3.689l.4.242a2.553,2.553,0,0,0-2.127,1.266Z" transform="translate(-87.788 -260.78)" fill="#ba6000"/>
        <path id="Trazado_717197" data-name="Trazado 717197" d="M146.6,290.747a2.854,2.854,0,0,1,1.32,3.77v.054a2.9,2.9,0,0,1-3.959.754l-43.034-24.856a3.383,3.383,0,0,1-.727-1,2.516,2.516,0,0,1,2.154-3.716,3.351,3.351,0,0,1,1.239.135l43.034,24.829Z" transform="translate(-87.462 -260.666)" fill="#1d374e"/>
        <path id="Trazado_717198" data-name="Trazado 717198" d="M115.229,275.745a3.029,3.029,0,0,0,0,3.07l-.377-.215a2.872,2.872,0,0,1,2.666-4.578l.377.215a2.929,2.929,0,0,0-2.639,1.508Z" transform="translate(-63.2 -246.741)" fill="#0f2034"/>
        <path id="Trazado_717199" data-name="Trazado 717199" d="M154.08,294.607a3.438,3.438,0,0,1,1.562,4.551v.054a3.472,3.472,0,0,1-4.74.889l-35.224-20.359a4.537,4.537,0,0,1-.808-1.1,3.043,3.043,0,0,1,2.639-4.578,5.774,5.774,0,0,1,1.373.162l35.2,20.359Z" transform="translate(-62.842 -246.592)" fill="#1d374e"/>
        <path id="Trazado_717200" data-name="Trazado 717200" d="M147.251,294.172s-1,1.7-2.5.808L119.164,280.2a45.319,45.319,0,0,1-5.844-4.686L144.935,293.8s.943-.189.458-.808l-.054-.7,1.912,1.131v.754Z" transform="translate(-64.739 -244.137)" fill="#ff8400"/>
      </g>
      <g id="Grupo_1008367" data-name="Grupo 1008367" transform="translate(231.888 183.231)">
        <path id="Trazado_717201" data-name="Trazado 717201" d="M183.522,318.647h0l-4.767-2.747a1.326,1.326,0,0,0-.566-.889l-4.228-2.451-.162-.081h0l-.808-.485h0l-.108-.054-1.239-.727a1.275,1.275,0,0,0-1.05-.054l-58.437-33.8-.162-.081h0L103.7,274.7l-2.612-.808,2.02,1.885,6.382,5.9h0s.108.081.135.108l58.464,33.8a1.327,1.327,0,0,0,.565.889l.673.377h0l.7.4h0l.835.485h0l.7.4h0l3.689,2.154h0a1.266,1.266,0,0,0,1.05.054l4.767,2.774h0a1.284,1.284,0,0,0,1.293-.135,3.96,3.96,0,0,0,1.8-3.124,1.242,1.242,0,0,0-.539-1.158Z" transform="translate(-101.009 -272.516)" opacity="0.3"/>
        <g id="Grupo_1008363" data-name="Grupo 1008363">
          <path id="Trazado_717202" data-name="Trazado 717202" d="M103.08,275.238l-2.02-1.858,2.639.808Z" transform="translate(-101.06 -273.38)" fill="#303033"/>
          <path id="Trazado_717203" data-name="Trazado 717203" d="M110.791,276.245l-2.531,4.39-6.382-5.9h0a.5.5,0,0,1-.108-.242,1.038,1.038,0,0,1,.431-.754.367.367,0,0,1,.269-.054h0l8.294,2.558Z" transform="translate(-99.858 -272.879)" fill="#d1c699"/>
        </g>
        <g id="Grupo_1008364" data-name="Grupo 1008364" transform="translate(7.998 3.301)">
          <path id="Trazado_717204" data-name="Trazado 717204" d="M166.588,309.114l-2.558,4.443-59.461-34.389a1.291,1.291,0,0,1-.539-1.185,3.96,3.96,0,0,1,1.8-3.124,1.236,1.236,0,0,1,1.266-.135l59.461,34.362Z" transform="translate(-104.03 -274.606)" fill="#ff8400"/>
          <path id="Trazado_717205" data-name="Trazado 717205" d="M107.06,278.295v-.835l40.8,23.617v.835Z" transform="translate(-98.9 -269.773)" fill="#535359"/>
          <path id="Trazado_717206" data-name="Trazado 717206" d="M122.54,287.272v-.862l4.874,2.855v.835Z" transform="translate(-72.693 -254.621)" fill="#535359"/>
          <path id="Trazado_717207" data-name="Trazado 717207" d="M127.924,287.622a3.96,3.96,0,0,0-1.8,3.124c0,1.158.808,1.616,1.8,1.05a3.96,3.96,0,0,0,1.8-3.124C129.729,287.514,128.921,287.056,127.924,287.622Z" transform="translate(-66.632 -252.979)" fill="#ff9d26"/>
          <path id="Trazado_717208" data-name="Trazado 717208" d="M127.146,288.05a1.232,1.232,0,0,0-.566.969c0,.35.242.485.566.323a1.262,1.262,0,0,0,.566-.969C127.711,288.023,127.469,287.862,127.146,288.05Z" transform="translate(-65.854 -251.979)" fill="#303033"/>
        </g>
        <g id="Grupo_1008365" data-name="Grupo 1008365" transform="translate(66.947 37.134)">
          <path id="Trazado_717209" data-name="Trazado 717209" d="M136.126,291.13l-3.016,5.251-6.571-3.8a1.521,1.521,0,0,1-.619-1.4,4.769,4.769,0,0,1,2.154-3.716,1.547,1.547,0,0,1,1.535-.162l6.571,3.8Z" transform="translate(-125.92 -287.169)" fill="#a7a9ac"/>
          <path id="Trazado_717210" data-name="Trazado 717210" d="M130.5,288.872a4.727,4.727,0,0,0-2.154,3.716c0,1.373.969,1.939,2.154,1.239a4.7,4.7,0,0,0,2.127-3.716C132.632,288.737,131.689,288.2,130.5,288.872Z" transform="translate(-121.806 -284.776)" fill="#bcbec0"/>
          <path id="Trazado_717211" data-name="Trazado 717211" d="M130.695,288.983a4.727,4.727,0,0,0-2.154,3.716,1.552,1.552,0,0,0,.619,1.4l-.7-.4a1.584,1.584,0,0,1-.619-1.4,4.769,4.769,0,0,1,2.154-3.716,1.485,1.485,0,0,1,1.508-.135l.673.4a1.5,1.5,0,0,0-1.508.161Z" transform="translate(-122.67 -285.264)" fill="#939598"/>
          <path id="Trazado_717212" data-name="Trazado 717212" d="M130.118,288.662a4.7,4.7,0,0,0-2.127,3.716,1.585,1.585,0,0,0,.619,1.4l-.673-.4a1.507,1.507,0,0,1-.646-1.4,4.727,4.727,0,0,1,2.154-3.716,1.5,1.5,0,0,1,1.508-.162l.7.4a1.533,1.533,0,0,0-1.535.135Z" transform="translate(-123.601 -285.832)" fill="#939598"/>
          <path id="Trazado_717213" data-name="Trazado 717213" d="M129.558,288.342a4.8,4.8,0,0,0-2.154,3.716,1.459,1.459,0,0,0,.646,1.374l-.7-.4a1.5,1.5,0,0,1-.619-1.373,4.769,4.769,0,0,1,2.154-3.716,1.5,1.5,0,0,1,1.508-.162l.7.4a1.5,1.5,0,0,0-1.508.162Z" transform="translate(-124.549 -286.373)" fill="#939598"/>
          <path id="Trazado_717214" data-name="Trazado 717214" d="M129.015,288.018a4.769,4.769,0,0,0-2.154,3.716,1.584,1.584,0,0,0,.619,1.4l-.7-.4a1.521,1.521,0,0,1-.619-1.4,4.769,4.769,0,0,1,2.154-3.716,1.425,1.425,0,0,1,1.508-.135l.7.377a1.5,1.5,0,0,0-1.508.162Z" transform="translate(-125.514 -286.912)" fill="#939598"/>
        </g>
        <g id="Grupo_1008366" data-name="Grupo 1008366" transform="translate(73.895 41.411)">
          <path id="Trazado_717215" data-name="Trazado 717215" d="M137.118,292.076l-2.558,4.417-5.521-3.178a1.291,1.291,0,0,1-.539-1.185,3.959,3.959,0,0,1,1.8-3.124,1.21,1.21,0,0,1,1.293-.108Z" transform="translate(-128.5 -288.758)" fill="#ff2456"/>
          <path id="Trazado_717216" data-name="Trazado 717216" d="M132.354,290.179a4,4,0,0,0-1.8,3.124c0,1.131.808,1.616,1.8,1.05a4,4,0,0,0,1.8-3.124C134.159,290.1,133.351,289.614,132.354,290.179Z" transform="translate(-125.029 -286.752)" fill="#ff4d75"/>
        </g>
      </g>
      <g id="Grupo_1008372" data-name="Grupo 1008372" transform="translate(80.062 202.862)">
        <path id="Trazado_717217" data-name="Trazado 717217" d="M62.438,332.14h0l4.767-2.747a1.213,1.213,0,0,1,.592-.889l4.228-2.451.162-.081h0l.808-.485h0l.108-.054,1.266-.727a1.266,1.266,0,0,1,1.05-.054l58.437-33.8a1.065,1.065,0,0,0,.162-.054h0l8.294-2.585,2.612-.808-2.02,1.858-6.355,5.9h0s-.108.081-.135.108l-58.437,33.8a1.266,1.266,0,0,1-.566.889l-.673.377h0l-.673.4h0l-.808.458h0l-.7.4h0l-3.689,2.154h0a1.275,1.275,0,0,1-1.05.054l-4.767,2.747h0a1.233,1.233,0,0,1-1.266-.135,3.96,3.96,0,0,1-1.8-3.124,1.3,1.3,0,0,1,.539-1.185Z" transform="translate(-61.926 -286.01)" opacity="0.3"/>
        <g id="Grupo_1008368" data-name="Grupo 1008368" transform="translate(72.091)">
          <path id="Trazado_717218" data-name="Trazado 717218" d="M92.412,288.748l2.02-1.858-2.612.808Z" transform="translate(-83.499 -286.89)" fill="#303033"/>
          <path id="Trazado_717219" data-name="Trazado 717219" d="M88.73,289.755l2.531,4.39,6.355-5.9h0a.5.5,0,0,0,.108-.242,1.038,1.038,0,0,0-.431-.754.35.35,0,0,0-.269-.054h0Z" transform="translate(-88.73 -286.389)" fill="#d1c699"/>
        </g>
        <g id="Grupo_1008369" data-name="Grupo 1008369" transform="translate(11.957 3.354)">
          <path id="Trazado_717220" data-name="Trazado 717220" d="M66.59,322.618l2.558,4.443L128.609,292.7a1.28,1.28,0,0,0,.512-1.185,3.96,3.96,0,0,0-1.8-3.124,1.233,1.233,0,0,0-1.266-.135Z" transform="translate(-66.078 -288.136)" fill="#ff8400"/>
          <path id="Trazado_717221" data-name="Trazado 717221" d="M112.455,291.832v-.862L71.63,314.587v.835Z" transform="translate(-57.546 -283.337)" fill="#535359"/>
          <path id="Trazado_717222" data-name="Trazado 717222" d="M74.391,300.765v-.835l-4.9,2.828v.835Z" transform="translate(-61.169 -268.168)" fill="#535359"/>
          <path id="Trazado_717223" data-name="Trazado 717223" d="M68.2,301.132a3.96,3.96,0,0,1,1.8,3.124c0,1.158-.808,1.616-1.8,1.05a3.96,3.96,0,0,1-1.8-3.124C66.4,301.024,67.208,300.566,68.2,301.132Z" transform="translate(-66.4 -266.542)" fill="#ff9d26"/>
          <path id="Trazado_717224" data-name="Trazado 717224" d="M67.426,301.57a1.2,1.2,0,0,1,.539.97c0,.35-.242.512-.539.323a1.232,1.232,0,0,1-.566-.969C66.86,301.543,67.1,301.382,67.426,301.57Z" transform="translate(-65.621 -265.526)" fill="#303033"/>
        </g>
        <g id="Grupo_1008370" data-name="Grupo 1008370" transform="translate(5.224 37.133)">
          <path id="Trazado_717225" data-name="Trazado 717225" d="M64.14,304.64l3.043,5.251,6.571-3.8a1.521,1.521,0,0,0,.619-1.4,4.769,4.769,0,0,0-2.154-3.716,1.5,1.5,0,0,0-1.508-.162l-6.571,3.8Z" transform="translate(-63.494 -300.679)" fill="#a7a9ac"/>
          <path id="Trazado_717226" data-name="Trazado 717226" d="M66.054,302.392a4.7,4.7,0,0,1,2.127,3.716c0,1.373-.969,1.912-2.127,1.239a4.727,4.727,0,0,1-2.154-3.716C63.9,302.257,64.869,301.719,66.054,302.392Z" transform="translate(-63.9 -298.269)" fill="#bcbec0"/>
          <path id="Trazado_717227" data-name="Trazado 717227" d="M65.932,302.493a4.7,4.7,0,0,1,2.127,3.716,1.584,1.584,0,0,1-.619,1.4l.673-.4a1.532,1.532,0,0,0,.646-1.4,4.727,4.727,0,0,0-2.154-3.716,1.533,1.533,0,0,0-1.535-.135l-.7.4a1.55,1.55,0,0,1,1.535.162Z" transform="translate(-63.104 -298.774)" fill="#939598"/>
          <path id="Trazado_717228" data-name="Trazado 717228" d="M66.458,302.165a4.727,4.727,0,0,1,2.154,3.716,1.584,1.584,0,0,1-.619,1.4l.7-.4a1.5,1.5,0,0,0,.619-1.373,4.727,4.727,0,0,0-2.154-3.716,1.5,1.5,0,0,0-1.508-.162l-.7.4a1.5,1.5,0,0,1,1.508.162Z" transform="translate(-62.122 -299.308)" fill="#939598"/>
          <path id="Trazado_717229" data-name="Trazado 717229" d="M67.018,301.859a4.727,4.727,0,0,1,2.154,3.716,1.5,1.5,0,0,1-.619,1.373l.7-.377a1.521,1.521,0,0,0,.619-1.4,4.812,4.812,0,0,0-2.154-3.716,1.425,1.425,0,0,0-1.508-.135l-.7.4a1.5,1.5,0,0,1,1.508.162Z" transform="translate(-61.174 -299.863)" fill="#939598"/>
          <path id="Trazado_717230" data-name="Trazado 717230" d="M67.612,301.544a4.7,4.7,0,0,1,2.127,3.716,1.5,1.5,0,0,1-.619,1.373l.673-.4a1.521,1.521,0,0,0,.619-1.4,4.657,4.657,0,0,0-2.154-3.716,1.568,1.568,0,0,0-1.508-.162l-.7.4a1.547,1.547,0,0,1,1.535.162Z" transform="translate(-60.26 -300.437)" fill="#939598"/>
        </g>
        <g id="Grupo_1008371" data-name="Grupo 1008371" transform="translate(0 41.406)">
          <path id="Trazado_717231" data-name="Trazado 717231" d="M62.15,305.59l2.558,4.443,5.521-3.2a1.237,1.237,0,0,0,.539-1.185,3.96,3.96,0,0,0-1.8-3.124,1.279,1.279,0,0,0-1.293-.135l-5.521,3.2Z" transform="translate(-61.638 -302.266)" fill="#ff2456"/>
          <path id="Trazado_717232" data-name="Trazado 717232" d="M63.764,303.7a4,4,0,0,1,1.8,3.124c0,1.131-.808,1.616-1.8,1.05a3.96,3.96,0,0,1-1.8-3.124C61.96,303.594,62.768,303.136,63.764,303.7Z" transform="translate(-61.96 -300.243)" fill="#ff4d75"/>
        </g>
      </g>
    </g>
    <g id="Grupo_1010788" data-name="Grupo 1010788" transform="translate(-5753.493 -8261.766)">
      <path id="Trazado_717489" data-name="Trazado 717489" d="M333.731,348.342,264.33,308.3,468.074,190.68l69.216,39.95Z" transform="translate(-264.33 -37.477)" opacity="0.3"/>
      <rect id="Rectángulo_347124" data-name="Rectángulo 347124" width="57.788" height="41.808" transform="translate(61.009 217.724) rotate(-30)"/>
      <g id="Grupo_1008486" data-name="Grupo 1008486" transform="translate(173.224)">
        <path id="Trazado_717490" data-name="Trazado 717490" d="M397.688,250.358,310.17,199.816l32.8-18.906,87.518,50.541Z" transform="translate(-270.452 -73.092)" opacity="0.3"/>
        <g id="Grupo_1008435" data-name="Grupo 1008435" transform="translate(150.276 149.533)">
          <g id="Grupo_1008431" data-name="Grupo 1008431" transform="translate(1.254 0.511)">
            <path id="Trazado_717491" data-name="Trazado 717491" d="M335.169,197.34l.511.325-.929-5.156,3.9-2.23-.511-.279-3.9,2.23Z" transform="translate(-334.24 -190)" fill="#bcbec0"/>
            <path id="Trazado_717492" data-name="Trazado 717492" d="M335.279,197.446l2.044-1.208.929-6.178-3.9,2.23Z" transform="translate(-333.839 -189.781)" fill="#939598"/>
          </g>
          <g id="Grupo_1008432" data-name="Grupo 1008432" transform="translate(0 2.104)">
            <path id="Trazado_717493" data-name="Trazado 717493" d="M334.57,196.341c0,1.951,1.347,2.741,3.019,1.765a6.749,6.749,0,0,0,3.019-5.249c0-1.9-1.347-2.741-3.019-1.765A6.678,6.678,0,0,0,334.57,196.341Z" transform="translate(-331.783 -189.107)" fill="#303033"/>
            <path id="Trazado_717494" data-name="Trazado 717494" d="M333.97,196a6.749,6.749,0,0,1,3.019-5.249,2.276,2.276,0,0,1,2.137-.232h0l2.787,1.626a2.045,2.045,0,0,0-2.137.232,6.677,6.677,0,0,0-3.02,5.249,2.136,2.136,0,0,0,.836,1.9h0l-2.787-1.579h0A2.17,2.17,0,0,1,333.97,196Z" transform="translate(-333.97 -190.343)" fill="#121214"/>
            <path id="Trazado_717495" data-name="Trazado 717495" d="M334.76,194.935c0,1.394.975,1.951,2.137,1.254a4.724,4.724,0,0,0,2.137-3.716c0-1.347-.976-1.951-2.137-1.254A4.852,4.852,0,0,0,334.76,194.935Z" transform="translate(-331.09 -188.213)" fill="#58595b"/>
            <path id="Trazado_717496" data-name="Trazado 717496" d="M338.291,192.238a4.17,4.17,0,0,1-1.9,3.3,1.176,1.176,0,0,1-1.487,0,1.222,1.222,0,0,0,1.347-.139,4.21,4.21,0,0,0,1.9-3.252,1.311,1.311,0,0,0-.418-1.115A1.439,1.439,0,0,1,338.291,192.238Z" transform="translate(-330.58 -187.838)" fill="#303033"/>
            <path id="Trazado_717497" data-name="Trazado 717497" d="M338.453,192.225a4.088,4.088,0,0,1-1.9,3.252,1.327,1.327,0,0,1-1.347.139h0a1.53,1.53,0,0,1-.371-1.115,4.161,4.161,0,0,1,1.858-3.252,1.3,1.3,0,0,1,1.347-.093h0a1.462,1.462,0,0,1,.418,1.115Z" transform="translate(-330.835 -187.918)" fill="#a7a9ac"/>
            <path id="Trazado_717498" data-name="Trazado 717498" d="M337.276,192.036a2.734,2.734,0,0,1-1.208,2.09c-.465.279-.883.232-1.068-.186a.932.932,0,0,0,.836-.093,2.734,2.734,0,0,0,1.208-2.09.779.779,0,0,0-.139-.557.906.906,0,0,1,.371.836Z" transform="translate(-330.216 -187.218)" fill="#3b3b3b"/>
            <path id="Trazado_717499" data-name="Trazado 717499" d="M337.143,191.82a2.66,2.66,0,0,1-1.208,2.09.8.8,0,0,1-.836.093.991.991,0,0,1-.139-.557,2.609,2.609,0,0,1,1.208-2.09.959.959,0,0,1,.836-.139,1.1,1.1,0,0,1,.139.557Z" transform="translate(-330.361 -187.328)" fill="#787878"/>
          </g>
          <g id="Grupo_1008433" data-name="Grupo 1008433" transform="translate(3.809 1.951)">
            <path id="Trazado_717500" data-name="Trazado 717500" d="M335.719,197.7l.511.325-.883-5.156,3.856-2.23-.511-.325-3.9,2.276Z" transform="translate(-334.79 -190.31)" fill="#bcbec0"/>
            <path id="Trazado_717501" data-name="Trazado 717501" d="M335.793,197.766l2.09-1.208.883-6.178-3.856,2.23Z" transform="translate(-334.353 -190.055)" fill="#939598"/>
            <path id="Trazado_717502" data-name="Trazado 717502" d="M335.18,192.893a.411.411,0,0,0,.65.139,1.562,1.562,0,0,0,.7-1.208c0-.279-.093-.418-.279-.465v.232a1.562,1.562,0,0,1-.7,1.208A.41.41,0,0,1,335.18,192.893Z" transform="translate(-333.368 -186.482)" fill="#e6e7e8"/>
            <path id="Trazado_717503" data-name="Trazado 717503" d="M335.17,192.624a.816.816,0,0,0,.047.279.558.558,0,0,0,.372-.093,1.562,1.562,0,0,0,.7-1.208v-.232h0a1.074,1.074,0,0,0-.418.093,1.562,1.562,0,0,0-.7,1.208Z" transform="translate(-333.405 -186.446)" fill="#bcbec0"/>
          </g>
          <g id="Grupo_1008434" data-name="Grupo 1008434" transform="translate(1.254)">
            <path id="Trazado_717504" data-name="Trazado 717504" d="M334.24,190.881l3.113,1.765v-.465l-3.113-1.812Z" transform="translate(-334.24 -188.14)" fill="#bcbec0"/>
            <path id="Trazado_717505" data-name="Trazado 717505" d="M334.91,193.011l3.856-2.23v-.511l-3.856,2.276Z" transform="translate(-331.798 -188.505)" fill="#939598"/>
            <path id="Trazado_717506" data-name="Trazado 717506" d="M334.24,192.12l3.113,1.812,3.856-2.276-3.066-1.765Z" transform="translate(-334.24 -189.89)" fill="#e6e7e8"/>
          </g>
        </g>
        <g id="Grupo_1008440" data-name="Grupo 1008440" transform="translate(122.915 165.327)">
          <g id="Grupo_1008436" data-name="Grupo 1008436" transform="translate(1.254 0.511)">
            <path id="Trazado_717507" data-name="Trazado 717507" d="M329.279,200.74l.511.325-.929-5.156,3.9-2.23-.511-.279-3.9,2.23Z" transform="translate(-328.35 -193.4)" fill="#bcbec0"/>
            <path id="Trazado_717508" data-name="Trazado 717508" d="M329.389,200.846l2.044-1.161.929-6.225-3.9,2.23Z" transform="translate(-327.949 -193.181)" fill="#939598"/>
          </g>
          <g id="Grupo_1008437" data-name="Grupo 1008437" transform="translate(0 2.104)">
            <path id="Trazado_717509" data-name="Trazado 717509" d="M328.68,199.741c0,1.951,1.347,2.741,3.019,1.765a6.749,6.749,0,0,0,3.02-5.249c0-1.9-1.347-2.741-3.02-1.765A6.749,6.749,0,0,0,328.68,199.741Z" transform="translate(-325.893 -192.507)" fill="#303033"/>
            <path id="Trazado_717510" data-name="Trazado 717510" d="M328.08,199.4a6.607,6.607,0,0,1,3.019-5.249,2.276,2.276,0,0,1,2.137-.232h0l2.787,1.579a2.153,2.153,0,0,0-2.137.232,6.749,6.749,0,0,0-3.02,5.249,2.08,2.08,0,0,0,.836,1.9h0l-2.787-1.579h0a2.116,2.116,0,0,1-.79-1.9Z" transform="translate(-328.08 -193.743)" fill="#121214"/>
            <path id="Trazado_717511" data-name="Trazado 717511" d="M328.87,198.362c0,1.394.976,1.951,2.137,1.254a4.737,4.737,0,0,0,2.137-3.763c0-1.394-.975-1.9-2.137-1.254a4.852,4.852,0,0,0-2.137,3.716Z" transform="translate(-325.2 -191.64)" fill="#58595b"/>
            <path id="Trazado_717512" data-name="Trazado 717512" d="M332.4,195.674a4.088,4.088,0,0,1-1.9,3.252,1.176,1.176,0,0,1-1.487,0,1.319,1.319,0,0,0,1.347-.139,4.21,4.21,0,0,0,1.9-3.252,1.372,1.372,0,0,0-.418-1.115,1.321,1.321,0,0,1,.557,1.208Z" transform="translate(-324.69 -191.275)" fill="#303033"/>
            <path id="Trazado_717513" data-name="Trazado 717513" d="M332.553,195.644a4.087,4.087,0,0,1-1.9,3.252,1.326,1.326,0,0,1-1.347.139h0a1.53,1.53,0,0,1-.372-1.115,4.161,4.161,0,0,1,1.858-3.252,1.323,1.323,0,0,1,1.347-.139h0A1.541,1.541,0,0,1,332.553,195.644Z" transform="translate(-324.981 -191.337)" fill="#a7a9ac"/>
            <path id="Trazado_717514" data-name="Trazado 717514" d="M331.386,195.436a2.734,2.734,0,0,1-1.208,2.09c-.465.279-.883.232-1.068-.186a.8.8,0,0,0,.836-.093,2.734,2.734,0,0,0,1.208-2.09.723.723,0,0,0-.139-.557.906.906,0,0,1,.372.836Z" transform="translate(-324.325 -190.618)" fill="#3b3b3b"/>
            <path id="Trazado_717515" data-name="Trazado 717515" d="M331.253,195.205a2.734,2.734,0,0,1-1.208,2.09.8.8,0,0,1-.836.093.992.992,0,0,1-.139-.557,2.66,2.66,0,0,1,1.208-2.09.925.925,0,0,1,.836-.093A.992.992,0,0,1,331.253,195.205Z" transform="translate(-324.471 -190.666)" fill="#787878"/>
          </g>
          <g id="Grupo_1008438" data-name="Grupo 1008438" transform="translate(3.809 1.998)">
            <path id="Trazado_717516" data-name="Trazado 717516" d="M329.829,201.06l.511.325-.929-5.156,3.9-2.23-.511-.279-3.9,2.23Z" transform="translate(-328.9 -193.72)" fill="#bcbec0"/>
            <path id="Trazado_717517" data-name="Trazado 717517" d="M329.939,201.166l2.09-1.208.883-6.178-3.9,2.23Z" transform="translate(-328.499 -193.501)" fill="#939598"/>
            <path id="Trazado_717518" data-name="Trazado 717518" d="M329.29,196.329a.411.411,0,0,0,.651.139,1.562,1.562,0,0,0,.7-1.208c0-.279-.093-.465-.279-.511v.232a1.562,1.562,0,0,1-.7,1.208.41.41,0,0,1-.372.093Z" transform="translate(-327.478 -189.965)" fill="#e6e7e8"/>
            <path id="Trazado_717519" data-name="Trazado 717519" d="M329.317,196.061v.232a.559.559,0,0,0,.371-.093,1.491,1.491,0,0,0,.7-1.208v-.232h0a1.075,1.075,0,0,0-.418.093,1.562,1.562,0,0,0-.7,1.208Z" transform="translate(-327.551 -189.929)" fill="#bcbec0"/>
          </g>
          <g id="Grupo_1008439" data-name="Grupo 1008439" transform="translate(1.254)">
            <path id="Trazado_717520" data-name="Trazado 717520" d="M328.35,194.281l3.066,1.765v-.464l-3.066-1.812Z" transform="translate(-328.35 -191.54)" fill="#bcbec0"/>
            <path id="Trazado_717521" data-name="Trazado 717521" d="M329.01,196.411l3.9-2.23v-.511l-3.9,2.276Z" transform="translate(-325.944 -191.905)" fill="#939598"/>
            <path id="Trazado_717522" data-name="Trazado 717522" d="M328.35,195.52l3.066,1.812,3.9-2.276-3.066-1.765Z" transform="translate(-328.35 -193.29)" fill="#e6e7e8"/>
          </g>
        </g>
        <g id="Grupo_1008451" data-name="Grupo 1008451">
          <g id="Grupo_1008441" data-name="Grupo 1008441" transform="translate(67.775)">
            <path id="Trazado_717523" data-name="Trazado 717523" d="M319.793,158.06l-2.973,1.719v100.8l2.973-1.719Z" transform="translate(-313.986 -156.388)" fill="#303033"/>
            <path id="Trazado_717524" data-name="Trazado 717524" d="M316.21,258.874l2.834,1.672v-100.8l-2.834-1.672Z" transform="translate(-316.21 -156.351)" fill="#121214"/>
            <path id="Trazado_717525" data-name="Trazado 717525" d="M316.21,159.419l2.834,1.672,2.973-1.719-2.833-1.672Z" transform="translate(-316.21 -157.7)" fill="#535359"/>
          </g>
          <g id="Grupo_1008442" data-name="Grupo 1008442" transform="translate(37.674 44.316)">
            <path id="Trazado_717526" data-name="Trazado 717526" d="M310.34,188.4v-3.438l30.148-17.373v3.438Z" transform="translate(-307.506 -165.964)" fill="#303033"/>
            <path id="Trazado_717527" data-name="Trazado 717527" d="M339.832,167.24l2.88,1.626-30.148,17.373-2.834-1.626Z" transform="translate(-309.73 -167.24)" fill="#535359"/>
            <path id="Trazado_717528" data-name="Trazado 717528" d="M309.73,170.98l2.834,1.626v3.438l-2.834-1.626Z" transform="translate(-309.73 -153.607)" fill="#121214"/>
          </g>
          <g id="Grupo_1008443" data-name="Grupo 1008443" transform="translate(56.812 10.266)">
            <path id="Trazado_717529" data-name="Trazado 717529" d="M316.6,160.19l-2.276,1.3v39.392l2.276-1.3Z" transform="translate(-312.137 -158.889)" fill="#303033"/>
            <path id="Trazado_717530" data-name="Trazado 717530" d="M313.85,199.629l2.183,1.254V161.491l-2.183-1.3Z" transform="translate(-313.85 -158.889)" fill="#121214"/>
            <path id="Trazado_717531" data-name="Trazado 717531" d="M313.85,161.211l2.183,1.3,2.276-1.3-2.183-1.3Z" transform="translate(-313.85 -159.91)" fill="#535359"/>
          </g>
          <g id="Grupo_1008450" data-name="Grupo 1008450" transform="translate(0 1.719)">
            <g id="Grupo_1008444" data-name="Grupo 1008444" transform="translate(29.591)">
              <path id="Trazado_717532" data-name="Trazado 717532" d="M308.6,183.886V180.5l38.231-22.065v3.438Z" transform="translate(-305.766 -156.758)" fill="#303033"/>
              <path id="Trazado_717533" data-name="Trazado 717533" d="M346.175,158.07l2.88,1.672-38.231,22.065-2.834-1.672Z" transform="translate(-307.99 -158.07)" fill="#535359"/>
              <path id="Trazado_717534" data-name="Trazado 717534" d="M307.99,162.82l2.834,1.672v3.391l-2.834-1.626Z" transform="translate(-307.99 -140.755)" fill="#121214"/>
            </g>
            <g id="Grupo_1008445" data-name="Grupo 1008445" transform="translate(17.466 20.528)">
              <path id="Trazado_717535" data-name="Trazado 717535" d="M305.6,169.415l11.613-6.736a1.9,1.9,0,0,1,1.951.186,6.194,6.194,0,0,1,2.787,4.831,2.013,2.013,0,0,1-.836,1.812L309.5,176.243l-3.949-6.829Z" transform="translate(-304.76 -162.489)" fill="#303033"/>
              <path id="Trazado_717536" data-name="Trazado 717536" d="M310.954,169.15a6.193,6.193,0,0,0-2.787-4.831c-1.533-.883-2.787-.186-2.787,1.626a6.122,6.122,0,0,0,2.787,4.831C309.7,171.658,310.954,170.962,310.954,169.15Z" transform="translate(-305.38 -157.207)" fill="#121214"/>
            </g>
            <g id="Grupo_1008449" data-name="Grupo 1008449" transform="translate(0 21.366)">
              <g id="Grupo_1008447" data-name="Grupo 1008447" transform="translate(2.276)">
                <path id="Trazado_717537" data-name="Trazado 717537" d="M302.41,173.908l18.907-10.917a3.393,3.393,0,0,1,3.391.325,10.588,10.588,0,0,1,4.785,8.269A3.456,3.456,0,0,1,328.1,174.7l-18.906,10.917-6.782-11.706Z" transform="translate(-301.016 -162.664)" fill="#24d2c1"/>
                <g id="Grupo_1008446" data-name="Grupo 1008446" transform="translate(1.997)">
                  <path id="Trazado_717538" data-name="Trazado 717538" d="M302.54,167.718h0c3.856-2.23,10.5,4.831,9.2,10.313h0l.186-.139c6.178-5.11-.883-15.1-3.763-13.425l-5.621,3.252Z" transform="translate(-302.54 -156.799)" opacity="0.05"/>
                  <path id="Trazado_717539" data-name="Trazado 717539" d="M303.83,166.968h0c3.856-2.23,10.5,4.831,9.2,10.313h0l.186-.139c6.132-5.11-.883-15.1-3.763-13.425l-5.621,3.252Z" transform="translate(-297.838 -159.533)" opacity="0.05"/>
                  <path id="Trazado_717540" data-name="Trazado 717540" d="M305.15,166.172h0c3.856-2.23,10.545,4.831,9.2,10.313h0l.186-.093c6.178-5.11-.883-15.1-3.763-13.425l-5.621,3.252Z" transform="translate(-293.026 -162.267)" opacity="0.05"/>
                  <path id="Trazado_717541" data-name="Trazado 717541" d="M302.6,165.44s.371.139.558.186a3.884,3.884,0,0,1,1.951.65,10.588,10.588,0,0,1,4.785,8.269,3.355,3.355,0,0,1-1.393,3.112l4.088-2.369c2.88-1.672-2.23-12.775-9.755-9.987l-.186.139Z" transform="translate(-302.321 -154.706)" opacity="0.05"/>
                  <path id="Trazado_717542" data-name="Trazado 717542" d="M308.21,177.763h0c3.856-2.23,1.115-11.52-4.32-13.1h0l.186-.093c7.525-2.787,12.635,8.315,9.755,9.987l-5.621,3.252Z" transform="translate(-297.619 -157.367)" opacity="0.05"/>
                  <path id="Trazado_717543" data-name="Trazado 717543" d="M309.53,177.03h0c3.855-2.23,1.068-11.52-4.32-13.1h0l.186-.139c7.525-2.741,12.635,8.315,9.755,9.987l-5.621,3.252Z" transform="translate(-292.807 -160.165)" opacity="0.05"/>
                  <path id="Trazado_717544" data-name="Trazado 717544" d="M309.715,163.323a3.441,3.441,0,0,0-3.205-.418c5.435,1.626,8.176,10.87,4.32,13.1h0l2.276-1.3a3.355,3.355,0,0,0,1.393-3.112,9.945,9.945,0,0,0-1.393-4.692,10.062,10.062,0,0,0-3.391-3.577Z" transform="translate(-288.068 -162.669)" opacity="0.05"/>
                </g>
                <path id="Trazado_717545" data-name="Trazado 717545" d="M311.679,173.953a10.446,10.446,0,0,0-4.785-8.269c-2.648-1.533-4.785-.279-4.785,2.741a10.516,10.516,0,0,0,4.785,8.269C309.543,178.227,311.679,176.972,311.679,173.953Z" transform="translate(-302.11 -154.068)" fill="#16a89f"/>
              </g>
              <g id="Grupo_1008448" data-name="Grupo 1008448" transform="translate(0 13.534)">
                <path id="Trazado_717546" data-name="Trazado 717546" d="M301.8,168.032l3.9-2.276a2.1,2.1,0,0,1,2.044.232,6.431,6.431,0,0,1,2.88,5.017,1.994,1.994,0,0,1-.836,1.858l-3.9,2.23Z" transform="translate(-300.964 -165.583)" fill="#535359"/>
                <path id="Trazado_717547" data-name="Trazado 717547" d="M307.38,171.481a6.431,6.431,0,0,0-2.88-5.017c-1.579-.929-2.88-.186-2.88,1.672a6.432,6.432,0,0,0,2.88,5.017C306.08,174.082,307.38,173.339,307.38,171.481Z" transform="translate(-301.62 -163.829)" fill="#303033"/>
                <path id="Trazado_717548" data-name="Trazado 717548" d="M306.707,170.834a5.494,5.494,0,0,0-2.509-4.32c-1.394-.79-2.509-.139-2.509,1.44a5.494,5.494,0,0,0,2.509,4.32C305.592,173.064,306.707,172.413,306.707,170.834Z" transform="translate(-301.365 -163.415)" fill="#121214"/>
              </g>
            </g>
          </g>
        </g>
        <g id="Grupo_1008462" data-name="Grupo 1008462" transform="translate(28.29 16.305)">
          <g id="Grupo_1008452" data-name="Grupo 1008452" transform="translate(67.775)">
            <path id="Trazado_717549" data-name="Trazado 717549" d="M325.893,161.56l-2.973,1.719v100.8l2.973-1.719Z" transform="translate(-320.04 -159.934)" fill="#303033"/>
            <path id="Trazado_717550" data-name="Trazado 717550" d="M322.3,262.384l2.88,1.626v-100.8l-2.88-1.626Z" transform="translate(-322.3 -159.861)" fill="#121214"/>
            <path id="Trazado_717551" data-name="Trazado 717551" d="M322.3,162.929l2.88,1.626,2.973-1.719-2.88-1.626Z" transform="translate(-322.3 -161.21)" fill="#535359"/>
          </g>
          <g id="Grupo_1008453" data-name="Grupo 1008453" transform="translate(37.674 44.27)">
            <path id="Trazado_717552" data-name="Trazado 717552" d="M316.44,191.911v-3.438l30.1-17.374v3.391Z" transform="translate(-313.56 -169.428)" fill="#303033"/>
            <path id="Trazado_717553" data-name="Trazado 717553" d="M345.922,170.74l2.88,1.672-30.1,17.374-2.88-1.672Z" transform="translate(-315.82 -170.74)" fill="#535359"/>
            <path id="Trazado_717554" data-name="Trazado 717554" d="M315.82,174.48l2.88,1.672v3.438l-2.88-1.672Z" transform="translate(-315.82 -157.107)" fill="#121214"/>
          </g>
          <g id="Grupo_1008454" data-name="Grupo 1008454" transform="translate(56.812 10.266)">
            <path id="Trazado_717555" data-name="Trazado 717555" d="M322.7,163.69l-2.276,1.3v39.439l2.276-1.347Z" transform="translate(-318.19 -162.436)" fill="#303033"/>
            <path id="Trazado_717556" data-name="Trazado 717556" d="M319.94,203.092l2.23,1.3V164.954l-2.23-1.254Z" transform="translate(-319.94 -162.399)" fill="#121214"/>
            <path id="Trazado_717557" data-name="Trazado 717557" d="M319.94,164.721l2.23,1.254,2.276-1.3-2.23-1.254Z" transform="translate(-319.94 -163.42)" fill="#535359"/>
          </g>
          <g id="Grupo_1008461" data-name="Grupo 1008461" transform="translate(0 1.719)">
            <g id="Grupo_1008455" data-name="Grupo 1008455" transform="translate(29.591)">
              <path id="Trazado_717558" data-name="Trazado 717558" d="M314.7,187.433V184l38.185-22.065v3.438Z" transform="translate(-311.82 -160.304)" fill="#303033"/>
              <path id="Trazado_717559" data-name="Trazado 717559" d="M352.265,161.58l2.88,1.626L316.96,185.271l-2.88-1.672Z" transform="translate(-314.08 -161.58)" fill="#535359"/>
              <path id="Trazado_717560" data-name="Trazado 717560" d="M314.08,166.32l2.88,1.672v3.438l-2.88-1.672Z" transform="translate(-314.08 -144.301)" fill="#121214"/>
            </g>
            <g id="Grupo_1008456" data-name="Grupo 1008456" transform="translate(17.513 20.496)">
              <path id="Trazado_717561" data-name="Trazado 717561" d="M311.686,172.9l11.613-6.736a2.011,2.011,0,0,1,1.951.186,6.194,6.194,0,0,1,2.787,4.831A2.014,2.014,0,0,1,327.2,173l-11.613,6.736L311.64,172.9Z" transform="translate(-310.897 -165.992)" fill="#303033"/>
              <path id="Trazado_717562" data-name="Trazado 717562" d="M317.054,172.65a6.194,6.194,0,0,0-2.787-4.831c-1.533-.883-2.787-.186-2.787,1.626a6.122,6.122,0,0,0,2.787,4.831C315.8,175.158,317.054,174.462,317.054,172.65Z" transform="translate(-311.48 -160.722)" fill="#121214"/>
            </g>
            <g id="Grupo_1008460" data-name="Grupo 1008460" transform="translate(0 21.366)">
              <g id="Grupo_1008458" data-name="Grupo 1008458" transform="translate(2.276)">
                <path id="Trazado_717563" data-name="Trazado 717563" d="M308.5,177.418,327.407,166.5a3.393,3.393,0,0,1,3.391.325,10.588,10.588,0,0,1,4.785,8.269,3.456,3.456,0,0,1-1.394,3.112l-18.906,10.917L308.5,177.418Z" transform="translate(-307.107 -166.174)" fill="#ff9d26"/>
                <g id="Grupo_1008457" data-name="Grupo 1008457" transform="translate(1.997)">
                  <path id="Trazado_717564" data-name="Trazado 717564" d="M308.63,171.218h0c3.856-2.23,10.545,4.831,9.2,10.313h0l.186-.139c6.178-5.11-.883-15.1-3.763-13.425l-5.621,3.252Z" transform="translate(-308.63 -160.345)" opacity="0.05"/>
                  <path id="Trazado_717565" data-name="Trazado 717565" d="M309.92,170.442h0c3.856-2.23,10.5,4.831,9.2,10.313h0l.186-.093c6.178-5.11-.883-15.1-3.763-13.425l-5.621,3.252Z" transform="translate(-303.927 -163.006)" opacity="0.05"/>
                  <path id="Trazado_717566" data-name="Trazado 717566" d="M311.24,169.718h0c3.856-2.23,10.5,4.831,9.2,10.313h0l.186-.139c6.178-5.11-.883-15.1-3.763-13.425l-5.621,3.252Z" transform="translate(-299.116 -165.813)" opacity="0.05"/>
                  <path id="Trazado_717567" data-name="Trazado 717567" d="M308.69,168.94s.372.139.557.186a3.884,3.884,0,0,1,1.951.65,10.588,10.588,0,0,1,4.785,8.269,3.456,3.456,0,0,1-1.393,3.112l4.088-2.369c2.88-1.672-2.23-12.728-9.755-9.987l-.186.139Z" transform="translate(-308.411 -158.207)" opacity="0.05"/>
                  <path id="Trazado_717568" data-name="Trazado 717568" d="M314.31,181.29h0c3.856-2.23,1.068-11.52-4.32-13.1h0l.186-.139c7.525-2.741,12.635,8.315,9.755,9.987l-5.621,3.252Z" transform="translate(-303.672 -160.941)" opacity="0.05"/>
                  <path id="Trazado_717569" data-name="Trazado 717569" d="M315.62,180.54h0c3.855-2.23,1.069-11.52-4.32-13.1h0l.186-.139c7.525-2.787,12.635,8.315,9.755,9.987l-5.621,3.252Z" transform="translate(-298.897 -163.721)" opacity="0.05"/>
                  <path id="Trazado_717570" data-name="Trazado 717570" d="M315.815,166.833a3.44,3.44,0,0,0-3.205-.418c5.435,1.626,8.176,10.87,4.32,13.1h0l2.276-1.3a3.321,3.321,0,0,0,1.394-3.066,10.1,10.1,0,0,0-1.394-4.692,9.692,9.692,0,0,0-3.391-3.577Z" transform="translate(-294.122 -166.179)" opacity="0.05"/>
                </g>
                <path id="Trazado_717571" data-name="Trazado 717571" d="M317.769,177.453a10.446,10.446,0,0,0-4.785-8.269c-2.648-1.533-4.785-.279-4.785,2.741a10.517,10.517,0,0,0,4.785,8.269C315.633,181.727,317.769,180.472,317.769,177.453Z" transform="translate(-308.2 -157.615)" fill="#ff8400"/>
              </g>
              <g id="Grupo_1008459" data-name="Grupo 1008459" transform="translate(0 13.45)">
                <path id="Trazado_717572" data-name="Trazado 717572" d="M307.89,171.561l3.9-2.276a1.962,1.962,0,0,1,2.044.186,6.431,6.431,0,0,1,2.88,5.017,1.993,1.993,0,0,1-.836,1.858l-3.9,2.23-4.088-7.061Z" transform="translate(-307.054 -169.075)" fill="#535359"/>
                <path id="Trazado_717573" data-name="Trazado 717573" d="M313.47,174.991a6.431,6.431,0,0,0-2.88-5.017c-1.579-.929-2.88-.186-2.88,1.672a6.431,6.431,0,0,0,2.88,5.017C312.17,177.592,313.47,176.849,313.47,174.991Z" transform="translate(-307.71 -167.256)" fill="#303033"/>
                <path id="Trazado_717574" data-name="Trazado 717574" d="M312.807,174.344a5.493,5.493,0,0,0-2.509-4.32c-1.393-.79-2.508-.139-2.508,1.44a5.494,5.494,0,0,0,2.508,4.32C311.692,176.574,312.807,175.923,312.807,174.344Z" transform="translate(-307.419 -166.841)" fill="#121214"/>
              </g>
            </g>
          </g>
        </g>
        <g id="Grupo_1008473" data-name="Grupo 1008473" transform="translate(56.627 32.564)">
          <g id="Grupo_1008463" data-name="Grupo 1008463" transform="translate(67.729)">
            <path id="Trazado_717575" data-name="Trazado 717575" d="M331.983,165.07l-2.973,1.719v100.8l2.973-1.719Z" transform="translate(-326.13 -163.398)" fill="#303033"/>
            <path id="Trazado_717576" data-name="Trazado 717576" d="M328.39,265.884l2.88,1.672v-100.8l-2.88-1.672Z" transform="translate(-328.39 -163.361)" fill="#121214"/>
            <path id="Trazado_717577" data-name="Trazado 717577" d="M328.39,166.429l2.88,1.672,2.973-1.719-2.88-1.672Z" transform="translate(-328.39 -164.71)" fill="#535359"/>
          </g>
          <g id="Grupo_1008464" data-name="Grupo 1008464" transform="translate(37.627 44.316)">
            <path id="Trazado_717578" data-name="Trazado 717578" d="M322.53,195.411v-3.438l30.1-17.373v3.438Z" transform="translate(-319.65 -172.974)" fill="#303033"/>
            <path id="Trazado_717579" data-name="Trazado 717579" d="M352.012,174.25l2.88,1.626-30.1,17.374-2.88-1.672Z" transform="translate(-321.91 -174.25)" fill="#535359"/>
            <path id="Trazado_717580" data-name="Trazado 717580" d="M321.91,177.98l2.88,1.672v3.438l-2.88-1.672Z" transform="translate(-321.91 -160.653)" fill="#121214"/>
          </g>
          <g id="Grupo_1008465" data-name="Grupo 1008465" transform="translate(56.812 10.266)">
            <path id="Trazado_717581" data-name="Trazado 717581" d="M328.786,167.19l-2.276,1.347V207.93l2.276-1.3Z" transform="translate(-324.327 -165.936)" fill="#303033"/>
            <path id="Trazado_717582" data-name="Trazado 717582" d="M326.04,206.639l2.183,1.254V168.5l-2.183-1.3Z" transform="translate(-326.04 -165.899)" fill="#121214"/>
            <path id="Trazado_717583" data-name="Trazado 717583" d="M326.04,168.221l2.183,1.3,2.276-1.347-2.183-1.254Z" transform="translate(-326.04 -166.92)" fill="#535359"/>
          </g>
          <g id="Grupo_1008472" data-name="Grupo 1008472" transform="translate(0 1.719)">
            <g id="Grupo_1008466" data-name="Grupo 1008466" transform="translate(29.544)">
              <path id="Trazado_717584" data-name="Trazado 717584" d="M320.79,190.9v-3.438l38.185-22.019v3.391Z" transform="translate(-317.91 -163.768)" fill="#303033"/>
              <path id="Trazado_717585" data-name="Trazado 717585" d="M358.355,165.08l2.88,1.672L323.05,188.771l-2.88-1.626Z" transform="translate(-320.17 -165.08)" fill="#535359"/>
              <path id="Trazado_717586" data-name="Trazado 717586" d="M320.17,169.83l2.88,1.626v3.438l-2.88-1.672Z" transform="translate(-320.17 -147.765)" fill="#121214"/>
            </g>
            <g id="Grupo_1008467" data-name="Grupo 1008467" transform="translate(17.466 20.496)">
              <path id="Trazado_717587" data-name="Trazado 717587" d="M317.787,176.4l11.613-6.736a2.011,2.011,0,0,1,1.951.186,6.194,6.194,0,0,1,2.787,4.831,1.96,1.96,0,0,1-.836,1.812l-11.613,6.689-3.949-6.829Z" transform="translate(-316.95 -169.492)" fill="#303033"/>
              <path id="Trazado_717588" data-name="Trazado 717588" d="M323.144,176.151a6.194,6.194,0,0,0-2.787-4.831c-1.533-.883-2.787-.186-2.787,1.579a6.193,6.193,0,0,0,2.787,4.831c1.533.883,2.787.186,2.787-1.626Z" transform="translate(-317.57 -164.222)" fill="#121214"/>
            </g>
            <g id="Grupo_1008471" data-name="Grupo 1008471" transform="translate(0 21.366)">
              <g id="Grupo_1008469" data-name="Grupo 1008469" transform="translate(2.23)">
                <path id="Trazado_717589" data-name="Trazado 717589" d="M314.59,180.918,333.5,170a3.393,3.393,0,0,1,3.391.325,10.588,10.588,0,0,1,4.785,8.269,3.355,3.355,0,0,1-1.394,3.112l-18.907,10.917-6.782-11.706Z" transform="translate(-313.196 -169.674)" fill="#fff"/>
                <g id="Grupo_1008468" data-name="Grupo 1008468" transform="translate(1.997)">
                  <path id="Trazado_717590" data-name="Trazado 717590" d="M314.72,174.718h0c3.856-2.23,10.5,4.831,9.2,10.313h0l.186-.139c6.132-5.11-.883-15.1-3.763-13.425l-5.621,3.252Z" transform="translate(-314.72 -163.845)" opacity="0.05"/>
                  <path id="Trazado_717591" data-name="Trazado 717591" d="M316.02,173.97h0c3.856-2.23,10.5,4.831,9.2,10.313h0l.186-.093c6.132-5.11-.883-15.1-3.763-13.471l-5.621,3.252Z" transform="translate(-309.981 -166.535)" opacity="0.05"/>
                  <path id="Trazado_717592" data-name="Trazado 717592" d="M317.33,173.218h0c3.856-2.23,10.5,4.831,9.2,10.313h0l.186-.139c6.178-5.11-.883-15.1-3.763-13.425l-5.621,3.252Z" transform="translate(-305.206 -169.313)" opacity="0.05"/>
                  <path id="Trazado_717593" data-name="Trazado 717593" d="M314.79,172.413s.372.139.558.232a3.885,3.885,0,0,1,1.951.65,10.588,10.588,0,0,1,4.785,8.269,3.456,3.456,0,0,1-1.394,3.112l4.088-2.369c2.88-1.672-2.23-12.775-9.755-9.987l-.186.093Z" transform="translate(-314.465 -161.68)" opacity="0.05"/>
                  <path id="Trazado_717594" data-name="Trazado 717594" d="M320.4,184.8h0c3.856-2.23,1.068-11.52-4.32-13.1h0l.186-.139c7.526-2.741,12.635,8.315,9.755,9.987L320.4,184.8Z" transform="translate(-309.762 -164.404)" opacity="0.05"/>
                  <path id="Trazado_717595" data-name="Trazado 717595" d="M321.72,184.013h0c3.856-2.23,1.115-11.52-4.32-13.1h0l.186-.093c7.525-2.787,12.635,8.315,9.755,9.987l-5.621,3.252Z" transform="translate(-304.951 -167.148)" opacity="0.05"/>
                  <path id="Trazado_717596" data-name="Trazado 717596" d="M321.905,170.333a3.451,3.451,0,0,0-3.205-.418c5.435,1.626,8.176,10.87,4.32,13.1h0l2.276-1.3a3.455,3.455,0,0,0,1.394-3.112,9.444,9.444,0,0,0-1.394-4.692,10.063,10.063,0,0,0-3.391-3.577Z" transform="translate(-300.212 -169.679)" opacity="0.05"/>
                </g>
                <path id="Trazado_717597" data-name="Trazado 717597" d="M323.859,180.953a10.517,10.517,0,0,0-4.785-8.269c-2.648-1.533-4.785-.279-4.785,2.741a10.588,10.588,0,0,0,4.785,8.269C321.723,185.227,323.859,183.972,323.859,180.953Z" transform="translate(-314.29 -161.115)" fill="#d1d3d4"/>
              </g>
              <g id="Grupo_1008470" data-name="Grupo 1008470" transform="translate(0 13.534)">
                <path id="Trazado_717598" data-name="Trazado 717598" d="M313.98,175.042l3.9-2.276a2.1,2.1,0,0,1,2.044.232,6.432,6.432,0,0,1,2.88,5.017,1.993,1.993,0,0,1-.836,1.858l-3.9,2.23Z" transform="translate(-313.19 -172.593)" fill="#535359"/>
                <path id="Trazado_717599" data-name="Trazado 717599" d="M319.57,178.491a6.432,6.432,0,0,0-2.88-5.017c-1.579-.929-2.88-.186-2.88,1.672a6.432,6.432,0,0,0,2.88,5.017C318.269,181.092,319.57,180.349,319.57,178.491Z" transform="translate(-313.81 -170.839)" fill="#303033"/>
                <path id="Trazado_717600" data-name="Trazado 717600" d="M318.9,177.844a5.494,5.494,0,0,0-2.508-4.32c-1.394-.79-2.509-.139-2.509,1.44a5.494,5.494,0,0,0,2.509,4.32C317.782,180.074,318.9,179.423,318.9,177.844Z" transform="translate(-313.555 -170.425)" fill="#121214"/>
              </g>
            </g>
          </g>
        </g>
        <g id="Grupo_1008484" data-name="Grupo 1008484" transform="translate(84.917 48.822)">
          <g id="Grupo_1008474" data-name="Grupo 1008474" transform="translate(67.775)">
            <path id="Trazado_717601" data-name="Trazado 717601" d="M338.073,168.57l-2.973,1.719v100.8l2.973-1.719Z" transform="translate(-332.266 -166.898)" fill="#303033"/>
            <path id="Trazado_717602" data-name="Trazado 717602" d="M334.49,269.384l2.834,1.672v-100.8l-2.834-1.672Z" transform="translate(-334.49 -166.861)" fill="#121214"/>
            <path id="Trazado_717603" data-name="Trazado 717603" d="M334.49,169.929l2.834,1.672,2.973-1.719-2.834-1.672Z" transform="translate(-334.49 -168.21)" fill="#535359"/>
          </g>
          <g id="Grupo_1008475" data-name="Grupo 1008475" transform="translate(37.674 44.316)">
            <path id="Trazado_717604" data-name="Trazado 717604" d="M328.62,198.911v-3.438l30.1-17.373.046,3.437Z" transform="translate(-325.786 -176.474)" fill="#303033"/>
            <path id="Trazado_717605" data-name="Trazado 717605" d="M358.112,177.75l2.834,1.626-30.1,17.373-2.834-1.626Z" transform="translate(-328.01 -177.75)" fill="#535359"/>
            <path id="Trazado_717606" data-name="Trazado 717606" d="M328.01,181.49l2.834,1.626v3.438l-2.834-1.626Z" transform="translate(-328.01 -164.116)" fill="#121214"/>
          </g>
          <g id="Grupo_1008476" data-name="Grupo 1008476" transform="translate(56.812 10.266)">
            <path id="Trazado_717607" data-name="Trazado 717607" d="M334.876,170.7,332.6,172v39.392l2.276-1.3Z" transform="translate(-330.417 -169.399)" fill="#303033"/>
            <path id="Trazado_717608" data-name="Trazado 717608" d="M332.13,210.1l2.183,1.254V171.964l-2.183-1.254Z" transform="translate(-332.13 -169.363)" fill="#121214"/>
            <path id="Trazado_717609" data-name="Trazado 717609" d="M332.13,171.767l2.183,1.254,2.276-1.3-2.183-1.3Z" transform="translate(-332.13 -170.42)" fill="#535359"/>
          </g>
          <g id="Grupo_1008483" data-name="Grupo 1008483" transform="translate(0 1.719)">
            <g id="Grupo_1008477" data-name="Grupo 1008477" transform="translate(29.591)">
              <path id="Trazado_717610" data-name="Trazado 717610" d="M326.88,194.4v-3.391l38.185-22.065.047,3.438Z" transform="translate(-324.046 -167.268)" fill="#303033"/>
              <path id="Trazado_717611" data-name="Trazado 717611" d="M364.455,168.58l2.834,1.672L329.1,192.318l-2.834-1.672Z" transform="translate(-326.27 -168.58)" fill="#535359"/>
              <path id="Trazado_717612" data-name="Trazado 717612" d="M326.27,173.33,329.1,175v3.391l-2.834-1.626Z" transform="translate(-326.27 -151.265)" fill="#121214"/>
            </g>
            <g id="Grupo_1008478" data-name="Grupo 1008478" transform="translate(17.466 20.543)">
              <path id="Trazado_717613" data-name="Trazado 717613" d="M323.876,179.914l11.613-6.736a2.011,2.011,0,0,1,1.951.186,6.122,6.122,0,0,1,2.787,4.831,1.96,1.96,0,0,1-.836,1.812L327.779,186.7l-3.949-6.829Z" transform="translate(-323.04 -173.002)" fill="#303033"/>
              <path id="Trazado_717614" data-name="Trazado 717614" d="M329.234,179.66a6.193,6.193,0,0,0-2.787-4.831c-1.533-.883-2.787-.186-2.787,1.626a6.122,6.122,0,0,0,2.787,4.831C327.98,182.168,329.234,181.472,329.234,179.66Z" transform="translate(-323.66 -167.732)" fill="#121214"/>
            </g>
            <g id="Grupo_1008482" data-name="Grupo 1008482" transform="translate(0 21.373)">
              <g id="Grupo_1008480" data-name="Grupo 1008480" transform="translate(2.276)">
                <path id="Trazado_717615" data-name="Trazado 717615" d="M320.69,184.418,339.6,173.5a3.393,3.393,0,0,1,3.391.325,10.589,10.589,0,0,1,4.785,8.269,3.456,3.456,0,0,1-1.394,3.112l-18.906,10.917-6.782-11.706Z" transform="translate(-319.296 -173.181)" fill="#fff"/>
                <g id="Grupo_1008479" data-name="Grupo 1008479" transform="translate(1.997 0.039)">
                  <path id="Trazado_717616" data-name="Trazado 717616" d="M320.82,178.257h0c3.856-2.23,10.5,4.831,9.2,10.313h0l.186-.139c6.178-5.11-.883-15.1-3.763-13.471l-5.621,3.252Z" transform="translate(-320.82 -167.384)" opacity="0.05"/>
                  <path id="Trazado_717617" data-name="Trazado 717617" d="M322.11,177.507h0c3.856-2.23,10.5,4.831,9.2,10.313h0l.186-.139c6.178-5.11-.883-15.1-3.763-13.471l-5.621,3.252Z" transform="translate(-316.118 -170.118)" opacity="0.05"/>
                  <path id="Trazado_717618" data-name="Trazado 717618" d="M323.43,176.718h0c3.856-2.23,10.5,4.831,9.2,10.313h0l.186-.139c6.178-5.11-.883-15.1-3.763-13.425l-5.621,3.252Z" transform="translate(-311.306 -172.859)" opacity="0.05"/>
                  <path id="Trazado_717619" data-name="Trazado 717619" d="M320.88,175.95s.372.139.557.186a3.885,3.885,0,0,1,1.951.65,10.588,10.588,0,0,1,4.785,8.269,3.456,3.456,0,0,1-1.394,3.112l4.088-2.369c2.88-1.672-2.23-12.775-9.755-9.987l-.186.139Z" transform="translate(-320.601 -165.263)" opacity="0.05"/>
                  <path id="Trazado_717620" data-name="Trazado 717620" d="M326.49,188.3h0c3.856-2.23,1.115-11.52-4.32-13.1h0l.186-.139c7.525-2.741,12.635,8.315,9.755,9.988L326.49,188.3Z" transform="translate(-315.899 -167.951)" opacity="0.05"/>
                  <path id="Trazado_717621" data-name="Trazado 717621" d="M327.81,187.55h0c3.855-2.23,1.115-11.52-4.32-13.1h0l.186-.139c7.525-2.787,12.635,8.315,9.755,9.987l-5.621,3.252Z" transform="translate(-311.087 -170.731)" opacity="0.05"/>
                  <path id="Trazado_717622" data-name="Trazado 717622" d="M328.005,173.843a3.461,3.461,0,0,0-3.205-.418c5.389,1.626,8.176,10.87,4.32,13.1h0l2.276-1.3a3.355,3.355,0,0,0,1.394-3.112,9.946,9.946,0,0,0-1.394-4.692,10.062,10.062,0,0,0-3.391-3.577Z" transform="translate(-306.312 -173.189)" opacity="0.05"/>
                </g>
                <path id="Trazado_717623" data-name="Trazado 717623" d="M329.959,184.463a10.516,10.516,0,0,0-4.785-8.269c-2.648-1.533-4.785-.279-4.785,2.741a10.588,10.588,0,0,0,4.785,8.269C327.823,188.737,329.959,187.482,329.959,184.463Z" transform="translate(-320.39 -164.585)" fill="#d1d3d4"/>
              </g>
              <g id="Grupo_1008481" data-name="Grupo 1008481" transform="translate(0 13.55)">
                <path id="Trazado_717624" data-name="Trazado 717624" d="M320.08,178.523l3.9-2.23a2.071,2.071,0,0,1,2.044.186,6.431,6.431,0,0,1,2.88,5.017,1.993,1.993,0,0,1-.836,1.858l-3.9,2.23-4.088-7.061Z" transform="translate(-319.244 -176.098)" fill="#535359"/>
                <path id="Trazado_717625" data-name="Trazado 717625" d="M325.66,181.991a6.432,6.432,0,0,0-2.88-5.017c-1.579-.929-2.88-.186-2.88,1.672a6.432,6.432,0,0,0,2.88,5.017C324.36,184.592,325.66,183.849,325.66,181.991Z" transform="translate(-319.9 -174.363)" fill="#303033"/>
                <path id="Trazado_717626" data-name="Trazado 717626" d="M324.987,181.344a5.494,5.494,0,0,0-2.509-4.32c-1.394-.79-2.508-.139-2.508,1.44a5.494,5.494,0,0,0,2.508,4.32C323.872,183.574,324.987,182.923,324.987,181.344Z" transform="translate(-319.645 -173.948)" fill="#121214"/>
              </g>
            </g>
          </g>
        </g>
        <g id="Grupo_1008485" data-name="Grupo 1008485" transform="translate(39.718 86.171)">
          <path id="Trazado_717627" data-name="Trazado 717627" d="M310.17,179.76,397.688,230.3v16.352L310.17,196.065Z" transform="translate(-310.17 -163.455)" fill="#121214"/>
          <path id="Trazado_717628" data-name="Trazado 717628" d="M329.01,219.787l28.29-16.352V187.13l-28.29,16.305Z" transform="translate(-241.492 -136.589)" fill="#303033"/>
          <path id="Trazado_717629" data-name="Trazado 717629" d="M397.688,243.1,310.17,192.555l28.29-16.305,87.518,50.541Z" transform="translate(-310.17 -176.25)" fill="#535359"/>
        </g>
      </g>
      <g id="Grupo_1008487" data-name="Grupo 1008487" transform="translate(175.315 70.887)">
        <path id="Trazado_717630" data-name="Trazado 717630" d="M302.07,176.48l53.05,30.613,16.305,28.615v63.037L302.07,258.7Z" transform="translate(-302.07 -160.129)" fill="#0f7338"/>
        <path id="Trazado_717631" data-name="Trazado 717631" d="M317,265.1l28.29-16.352V185.71L317,202.061Z" transform="translate(-247.645 -126.482)" fill="#128742"/>
        <path id="Trazado_717632" data-name="Trazado 717632" d="M329.8,224.517l28.29-16.351L341.78,179.55,313.49,195.9Z" transform="translate(-260.44 -148.937)" fill="#16a851"/>
        <path id="Trazado_717633" data-name="Trazado 717633" d="M355.119,219.924l-53.05-30.613,28.29-16.352,53.05,30.613Z" transform="translate(-302.07 -172.96)" fill="#1bcf64"/>
      </g>
      <g id="Grupo_1008488" data-name="Grupo 1008488" transform="translate(60.9 179.635)">
        <path id="Trazado_717634" data-name="Trazado 717634" d="M277.44,281.38l32.285,18.674L456.75,215.044,424.418,196.37Z" transform="translate(-277.44 -196.37)" fill="#535359"/>
        <path id="Trazado_717635" data-name="Trazado 717635" d="M431.415,206.475V200.39L284.39,285.4v6.132Z" transform="translate(-252.105 -181.716)" fill="#303033"/>
        <path id="Trazado_717636" data-name="Trazado 717636" d="M309.725,239.476v-6.132L277.44,214.67V220.8Z" transform="translate(-277.44 -129.661)" fill="#939598"/>
      </g>
      <g id="Grupo_1008490" data-name="Grupo 1008490" transform="translate(31.216 98.434)">
        <path id="Trazado_717637" data-name="Trazado 717637" d="M300.92,281.134,271.05,263.9,418.075,178.89,447.9,196.124Z" transform="translate(-271.05 -178.89)" fill="#e6e7e8"/>
        <g id="Grupo_1008489" data-name="Grupo 1008489" transform="translate(19.789 10.684)">
          <path id="Trazado_717638" data-name="Trazado 717638" d="M303.22,183.977l2.462,1.44,2.369-1.394,10.731,6.178,2.462-1.394-13.193-7.618Z" transform="translate(-173.569 -181.19)" fill="#535359"/>
          <path id="Trazado_717639" data-name="Trazado 717639" d="M303.75,183.194l10.731,6.178,2.369-1.394L306.119,181.8Z" transform="translate(-171.637 -178.966)" fill="#a7a9ac"/>
          <path id="Trazado_717640" data-name="Trazado 717640" d="M298.89,184.407l2.462,1.394,2.323-1.347,19.092,11.009,2.462-1.44-21.554-12.4Z" transform="translate(-189.353 -179.623)" fill="#535359"/>
          <path id="Trazado_717641" data-name="Trazado 717641" d="M299.42,183.577l19.046,11.009,2.369-1.347L301.743,182.23Z" transform="translate(-187.421 -177.399)" fill="#a7a9ac"/>
          <path id="Trazado_717642" data-name="Trazado 717642" d="M296.35,185.867l2.462,1.44,2.369-1.394,19.046,11.009,2.509-1.394L301.181,183.08Z" transform="translate(-198.612 -174.3)" fill="#535359"/>
          <path id="Trazado_717643" data-name="Trazado 717643" d="M296.88,185.084l19.092,11.009,2.323-1.394L299.249,183.69Z" transform="translate(-196.68 -172.077)" fill="#a7a9ac"/>
          <path id="Trazado_717644" data-name="Trazado 717644" d="M293.81,187.337l2.462,1.394,2.369-1.347,19.092,11.009,2.462-1.44-21.554-12.4Z" transform="translate(-207.872 -168.942)" fill="#535359"/>
          <path id="Trazado_717645" data-name="Trazado 717645" d="M294.34,186.507l19.092,11.009,2.369-1.347L296.709,185.16Z" transform="translate(-205.939 -166.718)" fill="#a7a9ac"/>
          <path id="Trazado_717646" data-name="Trazado 717646" d="M291.27,188.8l2.509,1.44,2.323-1.394,19.092,11.009,2.462-1.394L296.1,186.01Z" transform="translate(-217.131 -163.62)" fill="#535359"/>
          <path id="Trazado_717647" data-name="Trazado 717647" d="M291.81,188.014l19.046,11.009,2.369-1.394L294.133,186.62Z" transform="translate(-215.162 -161.396)" fill="#a7a9ac"/>
          <path id="Trazado_717648" data-name="Trazado 717648" d="M288.74,190.267l2.462,1.394,2.369-1.347,19.046,11.009,2.462-1.44-21.508-12.4Z" transform="translate(-226.353 -158.261)" fill="#535359"/>
          <path id="Trazado_717649" data-name="Trazado 717649" d="M289.27,189.437l19.046,11.009,2.369-1.347L291.639,188.09Z" transform="translate(-224.421 -156.037)" fill="#a7a9ac"/>
          <path id="Trazado_717650" data-name="Trazado 717650" d="M286.2,191.727l2.462,1.44,2.369-1.394,19.046,11.056,2.509-1.44L291.031,188.94Z" transform="translate(-235.612 -152.939)" fill="#535359"/>
          <path id="Trazado_717651" data-name="Trazado 717651" d="M286.73,190.944l19.046,11.009,2.369-1.347L289.1,189.55Z" transform="translate(-233.68 -150.715)" fill="#a7a9ac"/>
          <path id="Trazado_717652" data-name="Trazado 717652" d="M283.66,193.234l2.462,1.394,2.369-1.347,19.092,11.009,2.462-1.44L288.491,190.4Z" transform="translate(-244.871 -147.617)" fill="#535359"/>
          <path id="Trazado_717653" data-name="Trazado 717653" d="M284.19,192.367l19.092,11.009,2.369-1.347L286.559,191.02Z" transform="translate(-242.94 -145.356)" fill="#a7a9ac"/>
          <path id="Trazado_717654" data-name="Trazado 717654" d="M281.12,194.657l2.508,1.44L286,194.7l19.046,11.009,2.462-1.394L286,191.87Z" transform="translate(-254.131 -142.258)" fill="#535359"/>
          <path id="Trazado_717655" data-name="Trazado 717655" d="M281.66,193.874l19.046,11.009,2.369-1.394L284.029,192.48Z" transform="translate(-252.162 -140.034)" fill="#a7a9ac"/>
          <path id="Trazado_717656" data-name="Trazado 717656" d="M278.59,196.127l2.462,1.394,2.369-1.347,19.046,11.009,2.462-1.44-21.508-12.4Z" transform="translate(-263.353 -136.899)" fill="#535359"/>
          <path id="Trazado_717657" data-name="Trazado 717657" d="M279.12,195.3l19.046,11.009,2.369-1.347L281.489,193.95Z" transform="translate(-261.421 -134.676)" fill="#a7a9ac"/>
          <path id="Trazado_717658" data-name="Trazado 717658" d="M276.05,197.587l2.462,1.44,2.369-1.394,19.092,11.009,2.462-1.394L280.881,194.8Z" transform="translate(-272.613 -131.577)" fill="#535359"/>
          <path id="Trazado_717659" data-name="Trazado 717659" d="M276.58,196.8l19.092,11.009,2.369-1.394L278.949,195.41Z" transform="translate(-270.681 -129.353)" fill="#a7a9ac"/>
          <path id="Trazado_717660" data-name="Trazado 717660" d="M275.31,200.051l2.462,1.44,2.369-1.347,10.731,6.178,2.462-1.44-13.193-7.572Z" transform="translate(-275.31 -122.427)" fill="#535359"/>
          <path id="Trazado_717661" data-name="Trazado 717661" d="M275.84,199.267l10.731,6.178,2.369-1.347-10.731-6.178Z" transform="translate(-273.378 -120.204)" fill="#a7a9ac"/>
        </g>
        <path id="Trazado_717662" data-name="Trazado 717662" d="M277.48,267.609l7.9,9.941,146.978-85.009-7.9-9.941Z" transform="translate(-247.611 -165.366)" fill="#bcbec0"/>
        <path id="Trazado_717663" data-name="Trazado 717663" d="M426.195,193.055V184.74L279.217,269.749l-.047,8.315Z" transform="translate(-241.45 -157.565)" fill="#a7a9ac"/>
        <path id="Trazado_717664" data-name="Trazado 717664" d="M285,214.745l.047-8.315-7.479-4.32v8.315Z" transform="translate(-247.282 -94.246)" fill="#939598"/>
      </g>
      <g id="Grupo_1008491" data-name="Grupo 1008491" transform="translate(31.077 159.938)">
        <path id="Trazado_717665" data-name="Trazado 717665" d="M271.02,196.311l11.149,6.5,7.293-4.181-11.149-6.5Z" transform="translate(-271.02 -192.13)" fill="#2a4e68"/>
        <path id="Trazado_717666" data-name="Trazado 717666" d="M280.713,212.762V193.53l-7.293,4.181v19.278Z" transform="translate(-262.271 -187.027)" fill="#1d374e"/>
        <path id="Trazado_717667" data-name="Trazado 717667" d="M282.169,218.812V199.533l-11.149-6.5v19.278Z" transform="translate(-271.02 -188.849)" fill="#0f2034"/>
      </g>
      <g id="Grupo_1008492" data-name="Grupo 1008492" transform="translate(171.041 79.11)">
        <path id="Trazado_717668" data-name="Trazado 717668" d="M301.15,178.957l11.149,6.5,7.293-4.227-11.149-6.5Z" transform="translate(-301.15 -174.73)" fill="#2a4e68"/>
        <path id="Trazado_717669" data-name="Trazado 717669" d="M310.843,195.408V176.13l-7.293,4.227v19.232Z" transform="translate(-292.401 -169.627)" fill="#1d374e"/>
        <path id="Trazado_717670" data-name="Trazado 717670" d="M312.3,201.375V182.143l-11.149-6.5v19.232Z" transform="translate(-301.15 -171.413)" fill="#0f2034"/>
      </g>
      <g id="Grupo_1008496" data-name="Grupo 1008496" transform="translate(82.223 171.16)">
        <g id="Grupo_1008493" data-name="Grupo 1008493" transform="translate(123.008)">
          <path id="Trazado_717671" data-name="Trazado 717671" d="M338.2,200.466a6.975,6.975,0,0,0-3.159-5.481,2.211,2.211,0,0,0-2.23-.232L308.7,208.688l4.459,7.8,24.156-13.936a2.282,2.282,0,0,0,.929-2.044Z" transform="translate(-307.818 -194.546)" fill="#303033"/>
          <path id="Trazado_717672" data-name="Trazado 717672" d="M314.828,203.468c0,2.044-1.44,2.834-3.159,1.812a6.994,6.994,0,0,1-3.159-5.481c0-2,1.44-2.834,3.159-1.858a7.007,7.007,0,0,1,3.159,5.528Z" transform="translate(-308.51 -183.658)" fill="#121214"/>
        </g>
        <g id="Grupo_1008494" data-name="Grupo 1008494" transform="translate(16.119 3.724)">
          <path id="Trazado_717673" data-name="Trazado 717673" d="M404.152,215.985c0-7.061-4.971-15.608-11.056-19.139-3.019-1.719-5.714-1.9-7.711-.836L286.16,253.333l15.562,27.082,99.271-57.277c1.951-1.161,3.159-3.623,3.159-7.107Z" transform="translate(-283.094 -195.347)" fill="#fff"/>
          <path id="Trazado_717674" data-name="Trazado 717674" d="M307.612,228.313c0,7.061-4.97,9.895-11.056,6.364S285.5,222.6,285.5,215.538s4.971-9.895,11.056-6.411c6.085,3.53,11.056,12.124,11.056,19.139Z" transform="translate(-285.5 -150.538)" fill="#bcbec0"/>
        </g>
        <g id="Grupo_1008495" data-name="Grupo 1008495" transform="translate(0 70.981)">
          <path id="Trazado_717675" data-name="Trazado 717675" d="M311.754,215.792a7.055,7.055,0,0,0-3.205-5.528,2.211,2.211,0,0,0-2.23-.232L282.21,223.968l4.459,7.8,24.156-13.936a2.228,2.228,0,0,0,.929-2.044Z" transform="translate(-281.374 -209.826)" fill="#303033"/>
          <path id="Trazado_717676" data-name="Trazado 717676" d="M288.348,218.751c0,2.044-1.44,2.834-3.159,1.858a7.007,7.007,0,0,1-3.159-5.528c0-2.044,1.44-2.834,3.159-1.812A6.994,6.994,0,0,1,288.348,218.751Z" transform="translate(-282.03 -198.895)" fill="#121214"/>
        </g>
      </g>
      <g id="Grupo_1008498" data-name="Grupo 1008498" transform="translate(67.404 119.71)">
        <path id="Trazado_717677" data-name="Trazado 717677" d="M278.84,240.607s22.2,9.987,25.921,21.461c3.716,11.428-1.115,12.078,1.44,21.415,2.834,10.266,13.007,8.036,19.232,17.652L424.378,244c-6.225-9.616-16.4-7.34-19.232-17.652-2.555-9.291,2.276-9.941-1.44-21.415-3.716-11.428-25.921-21.461-25.921-21.461Z" transform="translate(-278.84 -183.47)" fill="#fff"/>
        <g id="Grupo_1008497" data-name="Grupo 1008497" transform="translate(6.829 3.577)">
          <path id="Trazado_717678" data-name="Trazado 717678" d="M302.929,184.24s22.2,9.987,25.921,21.415-1.115,12.124,1.44,21.415c2.834,10.313,13.007,8.036,19.232,17.652h0c3.809,4.227,6.457,10.173,6.457,15.33,0,3.484-1.208,5.946-3.159,7.107l-5.249,3.019c1.951-1.161,3.159-3.623,3.159-7.107,0-5.156-2.648-11.1-6.457-15.33h0c-6.225-9.616-16.4-7.34-19.232-17.606-2.555-9.291,2.276-9.987-1.44-21.415S297.68,187.26,297.68,187.26l5.249-3.019Z" transform="translate(-216.991 -184.24)" fill="#24d2c1"/>
          <path id="Trazado_717679" data-name="Trazado 717679" d="M300.039,185.947s22.2,9.987,25.921,21.461c3.716,11.427-1.115,12.078,1.44,21.415,2.834,10.313,13.007,8.036,19.232,17.606h0c3.809,4.227,6.457,10.173,6.457,15.33,0,3.484-1.208,5.946-3.159,7.107l-5.249,3.019c1.951-1.161,3.159-3.623,3.159-7.107,0-5.156-2.648-11.1-6.457-15.33h0c-6.225-9.616-16.4-7.34-19.232-17.606-2.555-9.291,2.276-9.987-1.44-21.415s-25.921-21.461-25.921-21.461l5.249-3.066Z" transform="translate(-227.526 -178.189)" fill="#ff9d26"/>
          <path id="Trazado_717680" data-name="Trazado 717680" d="M297.139,187.627s22.2,9.987,25.921,21.415-1.115,12.124,1.44,21.415c2.834,10.313,13.007,8.036,19.232,17.606h0c3.809,4.227,6.457,10.173,6.457,15.33,0,3.484-1.208,5.946-3.159,7.107l-5.249,3.02c1.951-1.208,3.159-3.623,3.159-7.107,0-5.156-2.648-11.1-6.457-15.33h0c-6.225-9.616-16.4-7.34-19.232-17.606-2.555-9.291,2.276-9.987-1.44-21.415s-25.921-21.415-25.921-21.415l5.249-3.066Z" transform="translate(-238.097 -172.065)" fill="#24d2c1"/>
          <path id="Trazado_717681" data-name="Trazado 717681" d="M294.239,189.333s22.2,9.987,25.921,21.415-1.115,12.078,1.44,21.415c2.834,10.313,13.007,8.036,19.232,17.606h0c3.809,4.227,6.457,10.173,6.457,15.33,0,3.484-1.208,5.946-3.159,7.107l-5.249,3.019c1.951-1.161,3.159-3.623,3.159-7.107,0-5.156-2.648-11.1-6.457-15.329h0c-6.225-9.616-16.4-7.34-19.232-17.652-2.555-9.291,2.276-9.987-1.44-21.415s-25.921-21.461-25.921-21.461l5.249-3.019Z" transform="translate(-248.669 -166.013)" fill="#ff9d26"/>
          <path id="Trazado_717682" data-name="Trazado 717682" d="M291.349,190.967s22.2,9.987,25.921,21.461c3.716,11.427-1.115,12.078,1.44,21.368,2.834,10.313,13.007,8.036,19.232,17.652h0c3.809,4.227,6.457,10.173,6.457,15.33,0,3.484-1.208,5.946-3.159,7.107l-5.249,3.019c1.951-1.161,3.159-3.623,3.159-7.107,0-5.156-2.648-11.1-6.457-15.329h0c-6.225-9.616-16.4-7.34-19.232-17.652-2.555-9.291,2.276-9.987-1.44-21.368C308.3,204.02,286.1,193.986,286.1,193.986l5.249-3.066Z" transform="translate(-259.203 -159.889)" fill="#24d2c1"/>
          <path id="Trazado_717683" data-name="Trazado 717683" d="M288.449,192.6s22.2,9.987,25.921,21.461c3.716,11.428-1.115,12.124,1.44,21.415,2.834,10.313,13.007,8.036,19.232,17.652h0c3.809,4.227,6.457,10.173,6.457,15.33,0,3.484-1.208,5.946-3.159,7.154l-5.249,3.02c1.951-1.161,3.159-3.623,3.159-7.107,0-5.156-2.648-11.1-6.457-15.33h0c-6.225-9.616-16.4-7.34-19.232-17.652-2.555-9.291,2.276-9.988-1.44-21.415S283.2,195.666,283.2,195.666l5.249-3.066Z" transform="translate(-269.775 -153.765)" fill="#ff9d26"/>
          <path id="Trazado_717684" data-name="Trazado 717684" d="M285.559,194.27s22.2,9.987,25.921,21.461c3.716,11.428-1.115,12.078,1.44,21.415,2.834,10.313,13.007,8.036,19.232,17.606h0c3.809,4.227,6.457,10.173,6.457,15.33,0,3.484-1.208,5.946-3.159,7.107l-5.249,3.019c1.951-1.161,3.159-3.623,3.159-7.107,0-5.156-2.648-11.1-6.457-15.329h0c-6.225-9.616-16.4-7.34-19.232-17.606-2.555-9.291,2.276-9.987-1.44-21.415s-25.921-21.415-25.921-21.415Z" transform="translate(-280.31 -147.677)" fill="#24d2c1"/>
        </g>
        <path id="Trazado_717685" data-name="Trazado 717685" d="M383.833,188.86c1.719,8.129-1.812,9.616.465,17.838,1.208,4.413,3.763,6.5,6.782,8.222l-98.945,57.138c-3.019-1.719-5.574-3.809-6.782-8.222-2.276-8.222,1.254-9.709-.465-17.838Z" transform="translate(-257.991 -163.822)" opacity="0.05"/>
      </g>
      <g id="Grupo_1008499" data-name="Grupo 1008499" transform="translate(77.948 134.436)">
        <path id="Trazado_717686" data-name="Trazado 717686" d="M281.11,271.65l7.432,4.32L435.567,190.96l-7.432-4.32Z" transform="translate(-281.11 -186.64)" fill="#bcbec0"/>
        <path id="Trazado_717687" data-name="Trazado 717687" d="M429.734,195.885V187.57L282.71,272.579v8.315Z" transform="translate(-275.277 -183.25)" fill="#a7a9ac"/>
        <path id="Trazado_717688" data-name="Trazado 717688" d="M288.543,217.575V209.26l-7.432-4.32v8.315Z" transform="translate(-281.11 -119.931)" fill="#939598"/>
      </g>
      <g id="Grupo_1008500" data-name="Grupo 1008500" transform="translate(0 172.249)">
        <path id="Trazado_717689" data-name="Trazado 717689" d="M264.33,198.29l53.05,30.659,16.352,28.615V320.6l-69.4-40.043Z" transform="translate(-264.33 -181.985)" fill="#0f7338"/>
        <path id="Trazado_717690" data-name="Trazado 717690" d="M279.27,286.919l28.29-16.352V207.53l-28.29,16.352Z" transform="translate(-209.869 -148.302)" fill="#128742"/>
        <path id="Trazado_717691" data-name="Trazado 717691" d="M292.1,246.337l28.29-16.352L304.04,201.37l-28.29,16.352Z" transform="translate(-222.7 -170.757)" fill="#16a851"/>
        <path id="Trazado_717692" data-name="Trazado 717692" d="M317.38,241.744l-53.05-30.659,28.29-16.305,53.05,30.613Z" transform="translate(-264.33 -194.78)" fill="#1bcf64"/>
      </g>
      <g id="Grupo_1008504" data-name="Grupo 1008504" transform="translate(31.077 71.863)">
        <g id="Grupo_1008501" data-name="Grupo 1008501">
          <path id="Trazado_717693" data-name="Trazado 717693" d="M271.02,258.226l11.149,6.5,147.025-85.056-11.149-6.5Z" transform="translate(-271.02 -173.17)" fill="#2a4e68"/>
          <path id="Trazado_717694" data-name="Trazado 717694" d="M420.445,181.817V174.57L273.42,259.626v7.2Z" transform="translate(-262.271 -168.066)" fill="#1d374e"/>
          <path id="Trazado_717695" data-name="Trazado 717695" d="M282.169,205.184v-7.2l-11.149-6.5v7.2Z" transform="translate(-271.02 -106.424)" fill="#0f2034"/>
        </g>
        <g id="Grupo_1008502" data-name="Grupo 1008502" transform="translate(12.078 8.687)">
          <path id="Trazado_717696" data-name="Trazado 717696" d="M273.62,258.842l10.684,6.225,144.934-83.848-10.684-6.178Z" transform="translate(-273.62 -175.04)" fill="#1d374e"/>
          <path id="Trazado_717697" data-name="Trazado 717697" d="M420.854,180.969v-4.6L275.92,260.218v4.552Z" transform="translate(-265.236 -170.192)" fill="#a7a9ac"/>
          <path id="Trazado_717698" data-name="Trazado 717698" d="M284.3,203.857V199.3L273.62,193.08v4.6Z" transform="translate(-273.62 -109.278)" fill="#0f2034"/>
        </g>
        <g id="Grupo_1008503" data-name="Grupo 1008503" transform="translate(21.787 12.496)">
          <path id="Trazado_717699" data-name="Trazado 717699" d="M275.71,260.916l11.149,6.5,146.978-85.056-11.1-6.5Z" transform="translate(-275.71 -175.86)" fill="#2a4e68"/>
          <path id="Trazado_717700" data-name="Trazado 717700" d="M425.088,184.507V177.26L278.11,262.316v7.2Z" transform="translate(-266.961 -170.757)" fill="#1d374e"/>
          <path id="Trazado_717701" data-name="Trazado 717701" d="M286.859,207.874v-7.2l-11.149-6.5v7.2Z" transform="translate(-275.71 -109.114)" fill="#0f2034"/>
        </g>
      </g>
      <g id="Grupo_1008505" data-name="Grupo 1008505" transform="translate(269.384 49.48)">
        <path id="Trazado_717702" data-name="Trazado 717702" d="M363.074,215.914c-7.921,4.564-20.773,4.564-28.642,0s-7.921-11.96,0-16.524,20.721-4.564,28.642,0S371,211.351,363.074,215.914Z" transform="translate(-296.035 -51.102)" opacity="0.3"/>
        <path id="Trazado_717703" data-name="Trazado 717703" d="M337.277,196.4a9.465,9.465,0,0,0-3.357.42c-1.154.525-.367,4.669-.367,4.669a14.264,14.264,0,0,1,3.1,2.78c1.154,1.469,1.049,2.1,2.2,3.62s3.987,2.2,4.721.525-3.882-4.3-4.3-6.557a24.9,24.9,0,0,0-1.993-5.4Z" transform="translate(-275.745 -49.315)" fill="#535359"/>
        <path id="Trazado_717704" data-name="Trazado 717704" d="M337.277,196.267a9.464,9.464,0,0,0-3.357.42c-1.154.525-.367,4.669-.367,4.669a14.262,14.262,0,0,1,3.1,2.78c1.154,1.469,1.049,2.1,2.2,3.62s3.987,2.2,4.721.525-.839-5.246-1.259-7.554S337.277,196.267,337.277,196.267Z" transform="translate(-275.745 -49.867)" fill="#fff"/>
        <path id="Trazado_717705" data-name="Trazado 717705" d="M341.8,173.59s2.675,1.1,2.99,6.295c.262,4.406,3.042,16.262,3.3,18.517s-.892,5.456-3.567,5.875-9.337,1.469-9.337,1.469v-5.456l5.088-2.2L338.39,190.8l-2.518-16.786,6.033-.42Z" transform="translate(-267.678 -146.111)" fill="#16a89f"/>
        <path id="Trazado_717706" data-name="Trazado 717706" d="M332.7,189.217c-1.154,15.632,3.829,25.652,4.3,30.478.21,2.2,0,4.511.262,6.5.315,1.941,4.249,15.318,1.993,30.111-.577,3.829,6.138,5.4,6.295,2.833.892-15.37,3.514-20.091,3.095-24.865s-1.154-6.295-1.678-9.442c-.472-3.148,5.246-32.838,5.456-33.94l-8.6-8.446s-9.495,5.193-11.173,6.715Z" transform="translate(-278.985 -108.494)" fill="#2b5e85"/>
        <path id="Trazado_717707" data-name="Trazado 717707" d="M341.31,198.525a25.383,25.383,0,0,1-10.911,3.462c-1.259.157-1.993,4.3,2.151,4.774s9.232.629,10.911.839c1.731.21,6.138,1.941,7.711-.052,1.574-2.046-.053-4.931-.472-7.187s-6.4-3.829-9.39-1.783Z" transform="translate(-292.211 -44.047)" fill="#535359"/>
        <path id="Trazado_717708" data-name="Trazado 717708" d="M341.31,198.448A25.384,25.384,0,0,1,330.4,201.91c-1.259.157-1.993,4.354,2.151,4.774,4.144.472,9.232.629,10.911.839,1.731.21,6.138,1.941,7.711-.1s-.053-4.931-.472-7.187-6.4-3.829-9.39-1.784Z" transform="translate(-292.211 -44.599)" fill="#fff"/>
        <path id="Trazado_717709" data-name="Trazado 717709" d="M330.84,190.579c-1.154,15.632,3.829,25.652,4.3,30.478.21,2.2,0,4.564.262,6.5.315,1.941,4.092,15,.577,30.583-.577,2.518,9.075,4.774,9.39,2.2.367-2.57,2.78-19.3,2.361-24.078s-2.1-6.924-2.57-10.072c-.472-3.095,2.413-29.114,2.57-30.215,3.515-1.836,11.383-5.246,12.17-7.082a13.173,13.173,0,0,0,.63-5.036l-14.845-.525S332.519,189.005,330.84,190.579Z" transform="translate(-286.882 -104.715)" fill="#3576ab"/>
        <path id="Trazado_717710" data-name="Trazado 717710" d="M332.25,176.268a84.6,84.6,0,0,1,.787,10.649v2.361l6.137,1.993,7.4-3.987L348.3,180.1l-2.623-5.456-9.757-3.252-2.675,1.784a12.8,12.8,0,0,1-.944,3.147Z" transform="translate(-280.161 -155.452)" fill="#f0c6b4"/>
        <path id="Trazado_717711" data-name="Trazado 717711" d="M357.05,174.21s-1.521,3.882-8.55,4.878c-1.731.262-4.669,0-4.984-1.521-3.567,3.095-10.911,7.921-10.911,7.921s-2.938,2.78-2.833,4.2c.315,3.987,3.41,5.036,4.2,8.708,1.364,6.557.157,25.861-.157,29.8s2.1,6.715,8.813,6.715,22.452-7.082,22.294-11.226c-.21-4.144-4.669-15.527-4.931-18.885s5.77-19.252,5.56-24.131-2.413-7.082-2.413-7.082l-6.138.63Z" transform="translate(-290.693 -146.154)" fill="#24d2c1"/>
        <path id="Trazado_717712" data-name="Trazado 717712" d="M334.747,168.92A9.949,9.949,0,0,0,331.495,175c-.052.787-.1,1.941-.1,3.357,0,6.4,1.049,7.974,1.679,8.5,3.095,2.413,7.029-2.256,7.029-2.256l.262-9.547Z" transform="translate(-283.812 -165.939)" fill="#f0c6b4"/>
        <path id="Trazado_717713" data-name="Trazado 717713" d="M353.03,179.569s-.944-6.033-5.613-9.18c-5.928-3.987-12.065-1.259-13.849.892-2.361,2.885-1.154,10.439-1.888,12.9a2.478,2.478,0,0,1,3.829,0c1.154,1.154.734,2.518,3.1,5.718s8.026,2.308,10.229,1.311,4.406-7.5,4.406-7.5l-.21-4.2Z" transform="translate(-282.581 -168.352)" fill="#603913"/>
        <path id="Trazado_717714" data-name="Trazado 717714" d="M341.28,173.615a3.3,3.3,0,1,1-3.305-3.3A3.291,3.291,0,0,1,341.28,173.615Z" transform="translate(-269.886 -160.037)" fill="#e31b25"/>
        <path id="Trazado_717715" data-name="Trazado 717715" d="M337.007,173.71c.315,3.252-6.819,15.79,2.151,22.557,1.731-3.462,8.026-11.436,7.711-15.842-.262-4.406-4.249-8.026-5.246-9.18s-4.931-.787-4.669,2.413Z" transform="translate(-270.125 -158.611)" fill="#754c29"/>
        <path id="Trazado_717716" data-name="Trazado 717716" d="M335.224,180.041s-2.885-5.141-3.252-5.875c-.944-1.888-8.079,2.046-9.337,3.777-1.311,1.731,1.784,2.623,3.882,1.993,1.574.787,3.882,4.354,4.826,4.564a2.343,2.343,0,0,0,1.888-.577l1.994-3.934Z" transform="translate(-322.32 -145.795)" fill="#f0c6b4"/>
        <path id="Trazado_717717" data-name="Trazado 717717" d="M366.031,181.228c-2.518-6.557-11.226-.315-11.226-.315s-12.013,6.977-13.8,7.659c-4.249-4.826-12.59-12.537-13.429-13.534s-4.354,2.623-3.148,4.2,9.495,12.59,10.911,14.373,3.672,4.2,7.082,2.518c3.41-1.731,18.15-6.61,18.15-6.61s7.764-2.2,5.4-8.341Z" transform="translate(-314.414 -140.688)" fill="#16a89f"/>
      </g>
    </g>
  </g>
</svg>
