<svg xmlns="http://www.w3.org/2000/svg" width="392.932" height="317.246" viewBox="0 0 392.932 317.246">
  <g id="Grupo_1023327" data-name="Grupo 1023327" transform="translate(-37 4.353)">
    <g id="Grupo_1010453" data-name="Grupo 1010453" transform="translate(37 -4.353)">
      <g id="Grupo_1008373" data-name="Grupo 1008373" transform="translate(0 73.747)">
        <g id="Grupo_1008361" data-name="Grupo 1008361" transform="translate(0 0)">
          <path id="Trazado_717140" data-name="Trazado 717140" d="M425.162,305.024,192.848,439.183,32.23,346.433,264.544,212.3Z" transform="translate(-32.23 -210.386)" opacity="0.3"/>
          <path id="Trazado_717141" data-name="Trazado 717141" d="M425.162,304.31,192.848,438.443,32.23,345.719,264.544,211.56Z" transform="translate(-32.23 -211.56)" fill="#2a4e68"/>
          <g id="Grupo_1008358" data-name="Grupo 1008358" transform="translate(46.375 79.739)">
            <g id="Grupo_1008356" data-name="Grupo 1008356" transform="translate(9.415 19.606)">
              <path id="Trazado_717142" data-name="Trazado 717142" d="M113.356,262.2,75,284.343,69.93,281.42l38.357-22.14,5.044,2.923ZM75,283.437,111.753,262.2l-3.466-2.017L71.508,281.394l3.466,2.017Z" transform="translate(-28.211 -235.2)" fill="#fff"/>
              <path id="Trazado_717143" data-name="Trazado 717143" d="M83.84,267.3c-2.638,1.526-5.587,2.069-6.932,1.319-1.319-.776-.336-2.483,2.276-4.009,2.612-1.5,5.587-2.069,6.932-1.319,1.319.75.362,2.483-2.276,3.983Zm-3.854-2.224c-2.173,1.267-3,2.664-2.276,3.078s3.155-.052,5.354-1.319c2.173-1.267,3-2.664,2.25-3.078-.724-.414-3.155.052-5.328,1.319Z" transform="translate(-18.067 -229.358)" fill="#fff"/>
              <path id="Trazado_717144" data-name="Trazado 717144" d="M176.431,320.761c-23.381,13.5-40.116,21.105-45.935,20.847a3.04,3.04,0,0,1-1.836-.543l-.078-.052v-.078c-2.431-6.828-18.39-19.605-31.192-29.873-8.044-6.44-15-12.027-17.562-15.182-6.6-8.2-8.121-13.5-8.147-13.553l1.112-.1s1.526,5.276,8.07,13.4c2.483,3.1,9.441,8.639,17.458,15.079,12.829,10.294,28.813,23.071,31.322,30.054a1.772,1.772,0,0,0,.931.207c4.19.181,18.209-5.173,45.082-20.666,26.847-15.519,36.081-23.614,35.8-26.02a.721.721,0,0,0-.362-.543c-12.1-1.474-34.244-10.682-52.065-18.079-11.122-4.63-20.743-8.639-26.1-10.061a159.113,159.113,0,0,0-23.2-4.656l.181-.647A157.672,157.672,0,0,1,133.392,265c5.457,1.448,15.1,5.483,26.278,10.139,17.795,7.4,39.935,16.631,51.755,18h.129l.1.052a1.407,1.407,0,0,1,.931,1.06c.414,3.362-12.751,13.036-36.133,26.537Z" transform="translate(-25.434 -233.598)" fill="#fff"/>
              <path id="Trazado_717145" data-name="Trazado 717145" d="M134.316,274.308l-.828.44c-1.629-1.06-3.233-3.414-5.044-6.156-2.25-3.362-4.785-7.164-8.044-9.44a39.3,39.3,0,0,0-6.88-3.983c-1.862-.879-4.164-1.992-8.3-4.345-8.9,3.569-22.166,10.785-24.287,11.975.466.569,1.655,2.173,1.578,3.44v.31h-.543a24.483,24.483,0,0,1-5.975-.905c-2.043,1.242-14.562,8.871-20.743,14.019a86.031,86.031,0,0,1,7.552,4.785,40.1,40.1,0,0,0,6.906,3.983c3.931,1.862,10.527,3.337,16.346,4.63,4.733,1.06,8.846,1.966,10.656,2.923l-.75.491c-1.681-.879-5.871-1.811-10.32-2.793-5.9-1.319-12.6-2.793-16.657-4.759a40.353,40.353,0,0,1-7.061-4.061c-1.578-1.086-3.518-2.457-7.811-4.94l-.31-.181.259-.233c6.647-5.613,21.261-14.407,21.416-14.484l.285-.181.362.1a25.362,25.362,0,0,0,5.25.931,6.9,6.9,0,0,0-1.629-3.026l-.207-.207.31-.155c.155-.078,15.389-8.535,25.114-12.363l.388-.155.31.181c4.293,2.483,6.673,3.621,8.561,4.5a41.855,41.855,0,0,1,7.061,4.087c3.362,2.354,5.949,6.207,8.2,9.622,1.707,2.561,3.337,4.992,4.837,5.949Z" transform="translate(-53.8 -249.97)" fill="#fff"/>
            </g>
            <path id="Trazado_717146" data-name="Trazado 717146" d="M204.648,337.064a1.054,1.054,0,0,1-.414,0L57.428,252.307s-.1-.181,0-.233a.5.5,0,0,1,.388,0l146.832,84.758S204.752,336.987,204.648,337.064Z" transform="translate(-38.702 -227.088)" fill="#fff"/>
            <path id="Trazado_717147" data-name="Trazado 717147" d="M122,281.29,87.085,301.464l-16.6-23.95L92.956,264.53,122,281.29ZM87.292,300.87l33.934-19.579L92.982,264.97l-21.83,12.6Z" transform="translate(-17.924 -207.265)" fill="#fff"/>
            <path id="Trazado_717148" data-name="Trazado 717148" d="M139.206,287.7,94.3,313.638,77.7,289.662l32.46-18.752,29.046,16.76Zm-44.72,25.347L138.4,287.7l-28.27-16.32L78.321,289.739l16.139,23.3Z" transform="translate(-6.469 -197.144)" fill="#fff"/>
            <path id="Trazado_717149" data-name="Trazado 717149" d="M154.442,294.08l-51.677,29.848-16.6-23.951L125.4,277.32Zm-51.5,29.279L153.64,294.08,125.4,277.786l-38.59,22.269Z" transform="translate(6.952 -186.975)" fill="#fff"/>
            <path id="Trazado_717150" data-name="Trazado 717150" d="M168.069,244.977l-88.611,51.16s-.285.078-.388,0q-.194-.116,0-.233l88.611-51.16a.942.942,0,0,1,.388,0c.1.052.1.155,0,.233Z" transform="translate(-4.451 -238.691)" fill="#fff"/>
            <path id="Trazado_717151" data-name="Trazado 717151" d="M113.706,347.306s-.285.078-.388,0-.1-.155,0-.233c48.754-28.14,48.754-73.946,0-102.087-.1-.078-.1-.181,0-.233a.5.5,0,0,1,.388,0c23.718,13.682,36.779,31.917,36.779,51.289s-13.062,37.581-36.779,51.289Z" transform="translate(49.912 -238.7)" fill="#fff"/>
            <path id="Trazado_717152" data-name="Trazado 717152" d="M151.843,315.44a1.077,1.077,0,0,1-.336.026c-.129-.052-.181-.155-.1-.233l30.96-31.3L83.975,262c-.129-.026-.207-.129-.155-.207a.387.387,0,0,1,.362-.1l98.983,22.062-31.3,31.632s0,.026-.052.026Z" transform="translate(3.214 -211.775)" fill="#fff"/>
            <path id="Trazado_717153" data-name="Trazado 717153" d="M117.842,303.934a.52.52,0,0,1-.31.026c-.155-.026-.181-.129-.129-.207L144.12,271.94,88.434,259.447c-.155-.026-.233-.129-.155-.207a.345.345,0,0,1,.362-.078L144.9,271.785l-26.977,32.124s-.026,0-.052.052Z" transform="translate(10.265 -215.813)" fill="#fff"/>
            <path id="Trazado_717154" data-name="Trazado 717154" d="M91.782,295.857a.9.9,0,0,1-.31.026c-.129-.052-.181-.129-.129-.207l27.623-33.262-23.743-5.587c-.155-.026-.207-.129-.155-.207a.344.344,0,0,1,.362-.078l24.313,5.716-.129.155L91.859,295.831l-.052.052Z" transform="translate(15.141 -219.969)" fill="#fff"/>
            <path id="Trazado_717155" data-name="Trazado 717155" d="M91.371,271.649c-10.449,6.026-22.683,11.794-24.778,10.579S74.455,273.951,84.9,267.9c10.449-6.026,22.709-11.794,24.8-10.579S101.846,265.6,91.4,271.649Zm-6.078-3.518C72.826,275.322,65.635,281.193,66.98,282c1.345.776,11.535-3.362,24-10.579,12.467-7.19,19.683-13.062,18.338-13.863-1.345-.776-11.536,3.388-24,10.579Z" transform="translate(-24.537 -218.962)" fill="#fff"/>
            <path id="Trazado_717156" data-name="Trazado 717156" d="M93,272.587c-9.208,5.3-19.993,10.372-21.855,9.311-1.862-1.086,6.906-7.294,16.114-12.622,9.208-5.3,19.993-10.372,21.855-9.285S102.208,267.285,93,272.613Zm-5.354-3.078c-10.941,6.311-17.277,11.484-16.114,12.156s10.087-2.974,21.054-9.285c10.941-6.337,17.277-11.484,16.114-12.156s-10.087,2.975-21.054,9.311Z" transform="translate(-17.269 -214.701)" fill="#fff"/>
            <path id="Trazado_717157" data-name="Trazado 717157" d="M89.691,270.685c-12.57,7.268-27.287,14.2-29.8,12.751-2.509-1.423,9.518-9.932,22.088-17.2,12.57-7.242,27.287-14.174,29.8-12.751,2.509,1.448-9.492,9.958-22.062,17.2Zm-7.32-4.216c-15.027,8.69-23.718,15.8-22.062,16.734,1.629.931,13.941-4.061,28.994-12.751s23.718-15.8,22.088-16.734S97.424,257.778,82.4,266.469Z" transform="translate(-35.246 -225.085)" fill="#fff"/>
            <path id="Trazado_717158" data-name="Trazado 717158" d="M80.065,253.811a.941.941,0,0,1-.388,0l-9.828-5.664s-.1-.155,0-.233a.5.5,0,0,1,.388,0l9.828,5.664S80.168,253.759,80.065,253.811Z" transform="translate(-18.999 -233.687)" fill="#fff"/>
            <path id="Trazado_717159" data-name="Trazado 717159" d="M88.676,268.245a.942.942,0,0,1-.388,0l-8.38-4.837s-.1-.155,0-.233a.352.352,0,0,1,.388,0l8.38,4.837S88.78,268.168,88.676,268.245Z" transform="translate(-3.039 -209.506)" fill="#fff"/>
            <path id="Trazado_717160" data-name="Trazado 717160" d="M85.426,270.113a.942.942,0,0,1-.388,0l-8.38-4.837s-.1-.155,0-.233a.5.5,0,0,1,.388,0l8.38,4.837S85.53,270.036,85.426,270.113Z" transform="translate(-8.195 -206.511)" fill="#fff"/>
            <path id="Trazado_717161" data-name="Trazado 717161" d="M60.445,265.153a.942.942,0,0,1-.388,0l-9.828-5.664s-.1-.155,0-.233a.352.352,0,0,1,.388,0l9.828,5.664S60.548,265.1,60.445,265.153Z" transform="translate(-50.125 -215.725)" fill="#fff"/>
            <path id="Trazado_717162" data-name="Trazado 717162" d="M101.4,248.127l-50.772,29.3a.941.941,0,0,1-.388,0c-.1-.052-.1-.155,0-.233l50.746-29.3a.942.942,0,0,1,.388,0c.1.052.1.155,0,.233Z" transform="translate(-50.16 -233.694)" fill="#fff"/>
            <path id="Trazado_717163" data-name="Trazado 717163" d="M77.137,250.969l-11.3,6.544-1.785-1.035,11.3-6.518Z" transform="translate(-28.124 -230.38)" fill="#fff"/>
            <path id="Trazado_717164" data-name="Trazado 717164" d="M66.877,256.915l-11.3,6.518-1.785-1.009,11.3-6.544Z" transform="translate(-44.401 -220.988)" fill="#fff"/>
            <path id="Trazado_717165" data-name="Trazado 717165" d="M96.515,252.374c-6.1,3.518-13.165,4.966-16.088,3.285s-.414-5.768,5.664-9.285c6.1-3.518,13.165-4.966,16.088-3.285S102.593,248.857,96.515,252.374Zm-9.622-5.561c-5.457,3.155-8.07,6.983-5.664,8.38,2.38,1.371,9.027-.129,14.51-3.285,5.457-3.155,8.044-6.983,5.664-8.38s-9.027.129-14.484,3.285Z" transform="translate(-4.076 -242.39)" fill="#fff"/>
            <path id="Trazado_717166" data-name="Trazado 717166" d="M88.711,265.264l-8.406,4.863a.943.943,0,0,1-.388,0q-.155-.116,0-.233l8.406-4.863s.285-.078.388,0S88.815,265.186,88.711,265.264Z" transform="translate(-3.075 -206.525)" fill="#fff"/>
            <g id="Grupo_1008357" data-name="Grupo 1008357" transform="translate(89.42 0.311)">
              <path id="Trazado_717167" data-name="Trazado 717167" d="M126.368,249.649,94.4,268.116a.824.824,0,0,1-.776,0c-.207-.129-.207-.31,0-.44l31.761-18.338,2.043-5.975-9.984,1.371L85.683,263.072a.824.824,0,0,1-.776,0c-.233-.129-.233-.336,0-.465L116.9,244.14l12-1.63-2.457,7.139Z" transform="translate(-84.733 -242.51)" fill="#fff"/>
              <path id="Trazado_717168" data-name="Trazado 717168" d="M92.75,250.6a2.849,2.849,0,0,1-2.586,0,.789.789,0,0,1,0-1.5,2.849,2.849,0,0,1,2.586,0A.8.8,0,0,1,92.75,250.6Zm-1.785-1.035c-.285.155-.285.414,0,.569a1.1,1.1,0,0,0,.983,0,.306.306,0,0,0,0-.569A1.1,1.1,0,0,0,90.965,249.566Z" transform="translate(-76.979 -232.547)" fill="#fff"/>
              <path id="Trazado_717169" data-name="Trazado 717169" d="M89.678,252.355a2.849,2.849,0,0,1-2.586,0c-.7-.414-.7-1.086,0-1.474a2.849,2.849,0,0,1,2.586,0C90.4,251.294,90.4,251.967,89.678,252.355Zm-1.785-1.035a.306.306,0,0,0,0,.569,1.1,1.1,0,0,0,.983,0c.285-.155.285-.414,0-.569A1.1,1.1,0,0,0,87.893,251.32Z" transform="translate(-81.821 -229.723)" fill="#fff"/>
            </g>
          </g>
          <g id="Grupo_1008359" data-name="Grupo 1008359" transform="translate(165.118 9.389)">
            <path id="Trazado_717170" data-name="Trazado 717170" d="M168.568,216.949l-69.446,40.09L96.07,255.28l69.446-40.09Z" transform="translate(-96.07 -215.19)" fill="#bcbec0"/>
            <path id="Trazado_717171" data-name="Trazado 717171" d="M171.612,218.719l-69.446,40.09L99.14,257.05l69.446-40.09Z" transform="translate(-91.2 -212.382)" fill="#bcbec0"/>
            <path id="Trazado_717172" data-name="Trazado 717172" d="M157.11,224.409,105.226,254.36,102.2,252.6l51.884-29.951Z" transform="translate(-86.345 -203.355)" fill="#bcbec0"/>
            <path id="Trazado_717173" data-name="Trazado 717173" d="M146.333,229.269,108.286,251.2l-3.026-1.733,38.021-21.959Z" transform="translate(-81.491 -195.645)" fill="#bcbec0"/>
            <path id="Trazado_717174" data-name="Trazado 717174" d="M180.8,224.019l-69.446,40.09-3.026-1.733,69.42-40.116Z" transform="translate(-76.62 -203.974)" fill="#bcbec0"/>
            <path id="Trazado_717175" data-name="Trazado 717175" d="M135.03,236.673l-20.614,11.9-3.026-1.733,20.588-11.9Z" transform="translate(-71.766 -183.858)" fill="#bcbec0"/>
            <path id="Trazado_717176" data-name="Trazado 717176" d="M186.922,227.559l-69.446,40.09-3.026-1.759L183.9,225.8Z" transform="translate(-66.911 -198.358)" fill="#bcbec0"/>
            <path id="Trazado_717177" data-name="Trazado 717177" d="M171.82,232.889,119.936,262.84l-2.276-1.293,51.884-29.977Z" transform="translate(-61.819 -189.204)" fill="#bcbec0"/>
            <path id="Trazado_717178" data-name="Trazado 717178" d="M193.068,231.073l-69.446,40.116-3.052-1.759,69.446-40.09Z" transform="translate(-57.202 -192.742)" fill="#bcbec0"/>
          </g>
          <g id="Grupo_1008360" data-name="Grupo 1008360" transform="translate(235.392 49.97)">
            <path id="Trazado_717179" data-name="Trazado 717179" d="M166.627,239.819l-38.021,21.959-3.026-1.759L163.6,238.06Z" transform="translate(-119.528 -219.489)" fill="#bcbec0"/>
            <path id="Trazado_717180" data-name="Trazado 717180" d="M177.067,240.339l-44.9,25.916L129.14,264.5l44.875-25.916Z" transform="translate(-113.88 -218.664)" fill="#bcbec0"/>
            <path id="Trazado_717181" data-name="Trazado 717181" d="M191.647,239.049l-57.031,32.9-3.026-1.733,57.031-32.926Z" transform="translate(-109.993 -220.711)" fill="#bcbec0"/>
            <path id="Trazado_717182" data-name="Trazado 717182" d="M200.689,239.9l-62.437,36.081-3.052-1.759,62.463-36.055Z" transform="translate(-104.266 -219.315)" fill="#bcbec0"/>
            <path id="Trazado_717183" data-name="Trazado 717183" d="M197.717,242.549l-57.031,32.925-3.026-1.759,57.031-32.925Z" transform="translate(-100.364 -215.158)" fill="#bcbec0"/>
            <path id="Trazado_717184" data-name="Trazado 717184" d="M206.719,243.383l-62.462,36.055-3.026-1.759,62.462-36.029Z" transform="translate(-94.7 -213.794)" fill="#bcbec0"/>
            <path id="Trazado_717185" data-name="Trazado 717185" d="M183.563,250.539,146.706,271.8l-3.026-1.759,36.831-21.261Z" transform="translate(-90.813 -202.483)" fill="#bcbec0"/>
            <path id="Trazado_717186" data-name="Trazado 717186" d="M191.291,252.039,150.762,275.42l-3.052-1.733,40.529-23.407Z" transform="translate(-84.42 -200.103)" fill="#bcbec0"/>
            <path id="Trazado_717187" data-name="Trazado 717187" d="M173.8,257.9l-20.588,11.9-3.052-1.759,20.614-11.9Z" transform="translate(-80.533 -190.806)" fill="#bcbec0"/>
            <path id="Trazado_717188" data-name="Trazado 717188" d="M268.055,273.918l-70.248,40.555L123.24,271.435l70.248-40.555Zm-70.248,39.65,68.644-39.65-72.963-42.133-68.67,39.624,72.989,42.133Z" transform="translate(-123.24 -230.88)" fill="#fff"/>
            <path id="Trazado_717189" data-name="Trazado 717189" d="M202.952,236.816l-69.446,40.09-.776-.44,69.42-40.116Z" transform="translate(-108.185 -222.202)" fill="#fff"/>
            <path id="Trazado_717190" data-name="Trazado 717190" d="M196.848,233.276,127.4,273.365l-.8-.44,69.446-40.116Z" transform="translate(-117.91 -227.818)" fill="#fff"/>
            <path id="Trazado_717191" data-name="Trazado 717191" d="M209.1,240.356l-69.446,40.09-.8-.466L208.3,239.89Z" transform="translate(-98.476 -216.586)" fill="#fff"/>
            <path id="Trazado_717192" data-name="Trazado 717192" d="M215.218,243.886l-69.446,40.09-.8-.44,69.446-40.116Z" transform="translate(-88.767 -210.986)" fill="#fff"/>
          </g>
        </g>
        <g id="Grupo_1008372" data-name="Grupo 1008372" transform="translate(76.895 194.837)">
          <path id="Trazado_717217" data-name="Trazado 717217" d="M62.42,330.371h0L67,327.733a1.165,1.165,0,0,1,.569-.853l4.061-2.354.155-.078h0l.776-.466h0l.1-.052,1.216-.7a1.216,1.216,0,0,1,1.009-.052l56.126-32.46a1.018,1.018,0,0,0,.155-.052h0l7.966-2.483,2.509-.776-1.94,1.785-6.1,5.664h0s-.1.078-.129.1l-56.126,32.46a1.216,1.216,0,0,1-.543.853l-.647.362h0l-.647.388h0l-.776.44h0l-.672.388h0l-3.543,2.069h0a1.225,1.225,0,0,1-1.009.052l-4.578,2.638h0a1.185,1.185,0,0,1-1.216-.129,3.8,3.8,0,0,1-1.733-3,1.243,1.243,0,0,1,.517-1.138Z" transform="translate(-61.928 -286.065)" opacity="0.3"/>
          <g id="Grupo_1008368" data-name="Grupo 1008368" transform="translate(69.239)">
            <path id="Trazado_717218" data-name="Trazado 717218" d="M92.389,288.675l1.94-1.785-2.509.776Z" transform="translate(-83.828 -286.89)" fill="#303033"/>
            <path id="Trazado_717219" data-name="Trazado 717219" d="M88.73,289.653l2.431,4.216,6.1-5.664h0a.484.484,0,0,0,.1-.233,1,1,0,0,0-.414-.724.336.336,0,0,0-.259-.052h0l-7.966,2.457Z" transform="translate(-88.73 -286.42)" fill="#d1c699"/>
          </g>
          <g id="Grupo_1008369" data-name="Grupo 1008369" transform="translate(11.484 3.222)">
            <path id="Trazado_717220" data-name="Trazado 717220" d="M66.59,321.253l2.457,4.268,57.109-33a1.229,1.229,0,0,0,.491-1.138,3.8,3.8,0,0,0-1.733-3,1.185,1.185,0,0,0-1.216-.129Z" transform="translate(-66.099 -288.136)" fill="#ff8400"/>
            <path id="Trazado_717221" data-name="Trazado 717221" d="M110.84,291.8v-.828L71.63,313.653v.8Z" transform="translate(-58.103 -283.639)" fill="#535359"/>
            <path id="Trazado_717222" data-name="Trazado 717222" d="M74.2,300.732v-.8l-4.707,2.716v.8Z" transform="translate(-61.498 -269.424)" fill="#535359"/>
            <path id="Trazado_717223" data-name="Trazado 717223" d="M68.133,301.122a3.8,3.8,0,0,1,1.733,3c0,1.112-.776,1.552-1.733,1.009a3.8,3.8,0,0,1-1.733-3C66.4,301.019,67.176,300.579,68.133,301.122Z" transform="translate(-66.4 -267.901)" fill="#ff9d26"/>
            <path id="Trazado_717224" data-name="Trazado 717224" d="M67.4,301.567a1.156,1.156,0,0,1,.517.931c0,.336-.233.491-.517.31a1.183,1.183,0,0,1-.543-.931C66.86,301.541,67.093,301.386,67.4,301.567Z" transform="translate(-65.67 -266.949)" fill="#303033"/>
          </g>
          <g id="Grupo_1008370" data-name="Grupo 1008370" transform="translate(5.018 35.665)">
            <path id="Trazado_717225" data-name="Trazado 717225" d="M64.14,304.484l2.923,5.044,6.311-3.647a1.461,1.461,0,0,0,.595-1.345,4.581,4.581,0,0,0-2.069-3.569,1.441,1.441,0,0,0-1.448-.155l-6.311,3.647Z" transform="translate(-63.519 -300.679)" fill="#a7a9ac"/>
            <path id="Trazado_717226" data-name="Trazado 717226" d="M65.969,302.38a4.514,4.514,0,0,1,2.043,3.569c0,1.319-.931,1.836-2.043,1.19A4.54,4.54,0,0,1,63.9,303.57C63.9,302.251,64.831,301.734,65.969,302.38Z" transform="translate(-63.9 -298.421)" fill="#bcbec0"/>
            <path id="Trazado_717227" data-name="Trazado 717227" d="M65.87,302.466a4.513,4.513,0,0,1,2.043,3.569,1.522,1.522,0,0,1-.595,1.345l.647-.388a1.471,1.471,0,0,0,.621-1.345,4.54,4.54,0,0,0-2.069-3.569,1.472,1.472,0,0,0-1.474-.129l-.672.388a1.488,1.488,0,0,1,1.474.155Z" transform="translate(-63.154 -298.894)" fill="#939598"/>
            <path id="Trazado_717228" data-name="Trazado 717228" d="M66.4,302.138a4.54,4.54,0,0,1,2.069,3.569,1.522,1.522,0,0,1-.595,1.345l.672-.388a1.442,1.442,0,0,0,.595-1.319,4.54,4.54,0,0,0-2.069-3.569,1.44,1.44,0,0,0-1.448-.155l-.672.388a1.44,1.44,0,0,1,1.448.155Z" transform="translate(-62.234 -299.394)" fill="#939598"/>
            <path id="Trazado_717229" data-name="Trazado 717229" d="M66.958,301.831a4.54,4.54,0,0,1,2.069,3.569,1.442,1.442,0,0,1-.595,1.319l.672-.362a1.461,1.461,0,0,0,.595-1.345,4.621,4.621,0,0,0-2.069-3.569,1.369,1.369,0,0,0-1.448-.129l-.672.388a1.438,1.438,0,0,1,1.448.155Z" transform="translate(-61.346 -299.914)" fill="#939598"/>
            <path id="Trazado_717230" data-name="Trazado 717230" d="M67.55,301.515a4.514,4.514,0,0,1,2.043,3.569A1.442,1.442,0,0,1,69,306.4l.647-.388a1.461,1.461,0,0,0,.595-1.345,4.473,4.473,0,0,0-2.069-3.569,1.506,1.506,0,0,0-1.448-.155l-.672.388a1.485,1.485,0,0,1,1.474.155Z" transform="translate(-60.489 -300.452)" fill="#939598"/>
          </g>
          <g id="Grupo_1008371" data-name="Grupo 1008371" transform="translate(0 39.768)">
            <path id="Trazado_717231" data-name="Trazado 717231" d="M62.15,305.458l2.457,4.268,5.3-3.078a1.188,1.188,0,0,0,.517-1.138,3.8,3.8,0,0,0-1.733-3,1.228,1.228,0,0,0-1.241-.129l-5.3,3.078Z" transform="translate(-61.659 -302.266)" fill="#ff2456"/>
            <path id="Trazado_717232" data-name="Trazado 717232" d="M63.693,303.692a3.843,3.843,0,0,1,1.733,3c0,1.086-.776,1.552-1.733,1.009a3.8,3.8,0,0,1-1.733-3C61.96,303.589,62.736,303.149,63.693,303.692Z" transform="translate(-61.96 -300.37)" fill="#ff4d75"/>
          </g>
        </g>
      </g>
      <g id="Grupo_1009358" data-name="Grupo 1009358" transform="translate(16.746)">
        <g id="Grupo_1009338" data-name="Grupo 1009338" transform="translate(233.868 56.558)">
          <path id="Trazado_719722" data-name="Trazado 719722" d="M135.606,274.207c7.328,4.245,19.214,4.245,26.586,0,7.328-4.245,7.328-11.126,0-15.326-7.328-4.245-19.213-4.245-26.586,0C128.278,263.126,128.278,270.007,135.606,274.207Z" transform="translate(-120.459 -137.066)" opacity="0.3"/>
          <path id="Trazado_719723" data-name="Trazado 719723" d="M141.6,257.26a72.27,72.27,0,0,1-7.06,8.534c-.894.849-1.43,3.038-.581,3.619,3.8,2.681,8.892,1.251,10.724-1.43,1.832-2.726,4.379-5.183,4.558-6.256a29.676,29.676,0,0,0,.045-3.932l-7.685-.536Z" transform="translate(-108.581 -131.647)" fill="#fff"/>
          <path id="Trazado_719724" data-name="Trazado 719724" d="M142.659,256.448s-6.836,4.513-9.294,5.5-3.038,4.692-1.609,5.183c5.317,1.787,11.752-3.172,13-3.619s5.5-.536,6.658-1.743c.849-.894.357-6.345.357-6.345l-9.115,1.028Z" transform="translate(-117.414 -138.029)" fill="#fff"/>
          <path id="Trazado_719725" data-name="Trazado 719725" d="M132.125,240.86a133.264,133.264,0,0,0,2.994,39.1c2.011,8.445,2.726,23.682,2.815,26.81.179,4.29,12.243,5.317,12.243-.894.492-7.015-1.162-17.694-1.609-26.675.223-3.351.938-28.6.938-28.6l-17.381-9.741Z" transform="translate(-114.654 -188.526)" fill="#0f2034"/>
          <path id="Trazado_719726" data-name="Trazado 719726" d="M131.86,243.017c1.832,12.869,11.617,17.426,11.617,17.426a232.119,232.119,0,0,0,2.815,29.222,140.548,140.548,0,0,1,0,25.916c-.76,3.217,11.439,5.317,11.3.938,2.145-11.662,2.86-18.633,1.162-29.49-1.072-9.741,4.111-38.2-1.162-44.638-5.451-.4-18.588-5-25.737.626Z" transform="translate(-114.389 -190.683)" fill="#1d374e"/>
          <path id="Trazado_719727" data-name="Trazado 719727" d="M142.722,232.285a6.23,6.23,0,0,0,2.189,2.681l2.458,2.815-2.324,8.579-5.228,3.351-7.015-.938-1.832-6.434,6.39-10.769s4.334.134,5.362.715Z" transform="translate(-117.476 -220.746)" fill="#c7a496"/>
          <path id="Trazado_719728" data-name="Trazado 719728" d="M133.357,230.98c.894.4,5.809,2.681,6.568,2.994,3.619,1.653,6.077,6.836,2.323,10.724-2.949,3.038-9.607-.894-9.607-.894s-.313-.179-.849-.447l-3.843-8.311,5.451-4.066Z" transform="translate(-127.95 -222.793)" fill="#16a89f"/>
          <path id="Trazado_719729" data-name="Trazado 719729" d="M161.982,242.089c-2.234-1.7-8.534-7.417-14.209-8.892.4,2.815-.223,11.93-8.758,12.645a9.353,9.353,0,0,1-.938-7.953s-5.63-5.809-5.585-5.809c0,0-1.7,6.479-2.055,9.383a19.36,19.36,0,0,0,3.038,14.432c4.111,6.256,4.424,15.415,4.424,15.415s10.59,8.445,19.169,7.194,6.479-8.266,6.479-8.266l-2.145-14.79s.67-12.466.626-13.315Z" transform="translate(-120.383 -218.978)" fill="#24d2c1"/>
          <path id="Trazado_719730" data-name="Trazado 719730" d="M146.021,250.147s-4.245,6.3-5.541,6.7-6.747-.492-7.507-1.43c-.76-.894-1.43-3.351-.76-3.932.67-.626,3.575,1.072,3.575,1.072a19.622,19.622,0,0,1,6.747-4.826c.357-.268,2.145-1.474,2.145-1.474l1.832,1.072-.536,2.9Z" transform="translate(-114.117 -169.798)" fill="#121214"/>
          <path id="Trazado_719731" data-name="Trazado 719731" d="M149.457,238.7s-1.251,8.847-1.251,12.288c.357,11.8-5.943,15.773-10.411,26.586-.223-.447-.492-1.787-3.485-2.458,1.385-5.5,2.323-15.862,5.362-23.056-1.072-4.692-1.162-13.718-1.162-13.718l10.947.313Z" transform="translate(-105.892 -197.266)" fill="#f0c6b4"/>
          <path id="Trazado_719732" data-name="Trazado 719732" d="M135.226,251.923c-.045-1.787.134-7.551.223-10.858.089-4.021,3.887-8.266,8.892-6.389,3.977,1.519,2.994,9.2,2.994,9.2s-.313,4.021-.849,8.356C146.619,256.123,135.315,256.123,135.226,251.923Z" transform="translate(-102.741 -211.564)" fill="#16a89f"/>
          <path id="Trazado_719733" data-name="Trazado 719733" d="M130.112,233.195s-2.9,6.747,2.815,9.875c.313,2.279,2.323,4.558,2.949,5.585.894,1.43,3.038,1.475,4.513.67s4.915-5.049,5.317-5.943a4.9,4.9,0,0,0,0-2.5A3.423,3.423,0,0,0,147,236.9a21.158,21.158,0,0,1-1.162-3.351l-.447-.67-8.177-2.5-5.809,1.7-1.34,1.162Z" transform="translate(-123.008 -224.874)" fill="#f0c6b4"/>
          <path id="Trazado_719734" data-name="Trazado 719734" d="M144.224,241.178c-1.028.715-1.028,2.324-1.206,3.307-.134.983-.581,1.251-.8,1.341-1.743-2.011-2.323-1.564-3.172-2.77-.8-1.206,2.011-4.334,0-5.585-1.966-1.251-5.094,3.709-8.177,3.128-3.128-.581-1.251-13.941,10.456-11.037,6.032,1.475,6.747,10.634,6.166,11.394s-2.323-.536-3.351.223Z" transform="translate(-122.508 -229.148)" fill="#603913"/>
          <path id="Trazado_719735" data-name="Trazado 719735" d="M130.619,233.3a22.242,22.242,0,0,0-.4,3.932c.179.536,3.441-.492,3.441-.492l-.67-2.9-2.368-.536Z" transform="translate(-120.208 -214.746)" fill="#f0c6b4"/>
        </g>
        <path id="Trazado_719736" data-name="Trazado 719736" d="M122.884,398.995,75.61,371.738l201.607-116.4,47.274,27.3Z" transform="translate(-75.61 -81.748)" opacity="0.3"/>
        <g id="Grupo_1009341" data-name="Grupo 1009341" transform="translate(194.548)">
          <g id="Grupo_1009339" data-name="Grupo 1009339" transform="translate(0 169.972)">
            <path id="Trazado_719737" data-name="Trazado 719737" d="M136.755,260.63,129.74,264.7v3.619l7.015-4.021Z" transform="translate(-82.421 -233.374)" fill="#0f7338"/>
            <path id="Trazado_719738" data-name="Trazado 719738" d="M119.195,259.094l47.274,27.256v-3.619l-47.319-27.3Z" transform="translate(-119.15 -251.409)" fill="#128742"/>
            <path id="Trazado_719739" data-name="Trazado 719739" d="M119.15,258.551l47.319,27.3,7.015-4.066L126.21,254.53Z" transform="translate(-119.15 -254.53)" fill="#16a851"/>
          </g>
          <g id="Grupo_1009340" data-name="Grupo 1009340" transform="translate(19.884)">
            <path id="Trazado_719740" data-name="Trazado 719740" d="M137.675,220.556l-7.015,4.066-7.06-4.111,7.015-4.021Z" transform="translate(-123.6 -216.49)" fill="#16a851"/>
            <path id="Trazado_719741" data-name="Trazado 719741" d="M123.6,398.846V217.39l7.06,4.111V402.912Z" transform="translate(-123.6 -213.369)" fill="#128742"/>
            <path id="Trazado_719742" data-name="Trazado 719742" d="M125.18,402.877V221.466L132.2,217.4V398.811Z" transform="translate(-118.12 -213.334)" fill="#0f7338"/>
          </g>
        </g>
        <g id="Grupo_1009345" data-name="Grupo 1009345" transform="translate(22.028 134.827)">
          <g id="Grupo_1009342" data-name="Grupo 1009342" transform="translate(182.439 6.242)">
            <path id="Trazado_719743" data-name="Trazado 719743" d="M121.71,252.479l7.06-4.066a3.681,3.681,0,0,1,3.709.357,11.491,11.491,0,0,1,5.228,9.071,3.762,3.762,0,0,1-1.519,3.4l-7.06,4.066Z" transform="translate(-120.191 -248.061)" fill="#16a89f"/>
            <path id="Trazado_719744" data-name="Trazado 719744" d="M131.826,258.749a11.491,11.491,0,0,0-5.228-9.071c-2.9-1.653-5.228-.313-5.228,3.038a11.41,11.41,0,0,0,5.228,9.026C129.5,263.4,131.826,262.056,131.826,258.749Z" transform="translate(-121.37 -244.903)" fill="#24d2c1"/>
            <path id="Trazado_719745" data-name="Trazado 719745" d="M130.556,257.614a9.968,9.968,0,0,0-4.513-7.819c-2.5-1.43-4.513-.268-4.513,2.592a9.9,9.9,0,0,0,4.513,7.819C128.545,261.636,130.556,260.474,130.556,257.614Z" transform="translate(-120.815 -244.171)" fill="#0a8074"/>
          </g>
          <g id="Grupo_1009343" data-name="Grupo 1009343">
            <path id="Trazado_719746" data-name="Trazado 719746" d="M81.41,348.253,255.85,247.539c2.413-1.385,5.675-1.162,9.339.938,7.283,4.2,13.226,14.477,13.226,22.877,0,4.2-1.475,7.194-3.887,8.534L100.087,380.6,81.41,348.253Z" transform="translate(-77.523 -246.664)" fill="#3576ab"/>
            <path id="Trazado_719747" data-name="Trazado 719747" d="M260.9,280.206,86.46,380.876V352.9l174.4-100.715Z" transform="translate(-60.008 -227.5)" fill="#3576ab"/>
            <path id="Trazado_719748" data-name="Trazado 719748" d="M106.992,293.885c0-8.4-5.9-18.677-13.226-22.877-7.283-4.2-13.226-.8-13.226,7.641,0,8.4,5.9,18.677,13.226,22.877C101.049,305.725,106.992,302.33,106.992,293.885Z" transform="translate(-80.54 -168.48)" fill="#2b5e85"/>
          </g>
          <g id="Grupo_1009344" data-name="Grupo 1009344" transform="translate(0.938 111.023)">
            <path id="Trazado_719749" data-name="Trazado 719749" d="M81.09,275.929l7.06-4.066a3.677,3.677,0,0,1,3.709.357,11.491,11.491,0,0,1,5.228,9.07,3.628,3.628,0,0,1-1.519,3.351l-7.06,4.066L81.09,275.884Z" transform="translate(-79.571 -271.511)" fill="#16a89f"/>
            <path id="Trazado_719750" data-name="Trazado 719750" d="M91.206,282.2a11.559,11.559,0,0,0-5.228-9.071c-2.9-1.653-5.228-.313-5.228,3.038a11.559,11.559,0,0,0,5.228,9.071c2.9,1.653,5.228.313,5.228-2.994Z" transform="translate(-80.75 -268.354)" fill="#24d2c1"/>
            <path id="Trazado_719751" data-name="Trazado 719751" d="M89.936,281.064a9.968,9.968,0,0,0-4.513-7.82c-2.5-1.43-4.513-.268-4.513,2.592a9.968,9.968,0,0,0,4.513,7.819C87.925,285.086,89.936,283.924,89.936,281.064Z" transform="translate(-80.195 -267.621)" fill="#0a8074"/>
          </g>
        </g>
        <g id="Grupo_1009349" data-name="Grupo 1009349" transform="translate(22.028 84.246)">
          <g id="Grupo_1009346" data-name="Grupo 1009346" transform="translate(182.439 6.256)">
            <path id="Trazado_719752" data-name="Trazado 719752" d="M121.71,241.148l7.06-4.066a3.792,3.792,0,0,1,3.709.357,11.491,11.491,0,0,1,5.228,9.071,3.71,3.71,0,0,1-1.519,3.4l-7.06,4.066Z" transform="translate(-120.191 -236.744)" fill="#16a89f"/>
            <path id="Trazado_719753" data-name="Trazado 719753" d="M131.826,247.429a11.559,11.559,0,0,0-5.228-9.071c-2.9-1.653-5.228-.313-5.228,3.038a11.559,11.559,0,0,0,5.228,9.071C129.5,252.121,131.826,250.781,131.826,247.429Z" transform="translate(-121.37 -233.597)" fill="#24d2c1"/>
            <path id="Trazado_719754" data-name="Trazado 719754" d="M130.556,246.294a9.968,9.968,0,0,0-4.513-7.819c-2.5-1.43-4.513-.268-4.513,2.592a9.9,9.9,0,0,0,4.513,7.819C128.545,250.316,130.556,249.154,130.556,246.294Z" transform="translate(-120.815 -232.864)" fill="#0a8074"/>
          </g>
          <g id="Grupo_1009347" data-name="Grupo 1009347">
            <path id="Trazado_719755" data-name="Trazado 719755" d="M81.41,336.933,255.85,236.219c2.413-1.385,5.675-1.162,9.339.938,7.283,4.2,13.226,14.477,13.226,22.877,0,4.2-1.475,7.194-3.887,8.534L100.087,369.283,81.41,336.933Z" transform="translate(-77.523 -235.344)" fill="#e31b25"/>
            <path id="Trazado_719756" data-name="Trazado 719756" d="M301.7,280.146c-57.775,35.21-123.726,83.422-205.316,118.364-10.277-30.7-9.92-47.006-9.92-47.006S256.21,238.5,257.148,238.01C266.487,252.4,261.483,277.2,301.7,280.146Z" transform="translate(-60.009 -226.099)" fill="#e31b25"/>
            <path id="Trazado_719757" data-name="Trazado 719757" d="M106.992,282.564c0-8.4-5.9-18.677-13.226-22.877-7.283-4.2-13.226-.8-13.226,7.641,0,8.4,5.9,18.677,13.226,22.877C101.049,294.405,106.992,291.009,106.992,282.564Z" transform="translate(-80.54 -157.16)" fill="#9c251f"/>
          </g>
          <g id="Grupo_1009348" data-name="Grupo 1009348" transform="translate(0.938 111.023)">
            <path id="Trazado_719758" data-name="Trazado 719758" d="M81.09,264.609l7.06-4.066a3.678,3.678,0,0,1,3.709.357,11.491,11.491,0,0,1,5.228,9.07,3.711,3.711,0,0,1-1.519,3.4l-7.06,4.066Z" transform="translate(-79.571 -260.191)" fill="#16a89f"/>
            <path id="Trazado_719759" data-name="Trazado 719759" d="M91.206,270.879a11.559,11.559,0,0,0-5.228-9.071c-2.9-1.653-5.228-.313-5.228,3.038a11.559,11.559,0,0,0,5.228,9.071C88.882,275.571,91.206,274.23,91.206,270.879Z" transform="translate(-80.75 -257.033)" fill="#24d2c1"/>
            <path id="Trazado_719760" data-name="Trazado 719760" d="M89.936,269.744a9.968,9.968,0,0,0-4.513-7.819c-2.5-1.43-4.513-.268-4.513,2.636a9.968,9.968,0,0,0,4.513,7.819C87.925,273.81,89.936,272.648,89.936,269.744Z" transform="translate(-80.195 -256.3)" fill="#0a8074"/>
          </g>
        </g>
        <g id="Grupo_1009353" data-name="Grupo 1009353" transform="translate(22.028 33.665)">
          <g id="Grupo_1009350" data-name="Grupo 1009350" transform="translate(182.439 6.242)">
            <path id="Trazado_719761" data-name="Trazado 719761" d="M121.71,229.839l7.06-4.066a3.681,3.681,0,0,1,3.709.357,11.479,11.479,0,0,1,5.228,9.026,3.71,3.71,0,0,1-1.519,3.4l-7.06,4.066-7.417-12.824Z" transform="translate(-120.191 -225.421)" fill="#16a89f"/>
            <path id="Trazado_719762" data-name="Trazado 719762" d="M131.826,236.109a11.559,11.559,0,0,0-5.228-9.071c-2.9-1.653-5.228-.313-5.228,3.038a11.559,11.559,0,0,0,5.228,9.071c2.9,1.653,5.228.313,5.228-2.994Z" transform="translate(-121.37 -222.263)" fill="#24d2c1"/>
            <path id="Trazado_719763" data-name="Trazado 719763" d="M130.556,234.974a9.9,9.9,0,0,0-4.513-7.819c-2.5-1.43-4.513-.268-4.513,2.592a9.968,9.968,0,0,0,4.513,7.819C128.545,239,130.556,237.834,130.556,234.974Z" transform="translate(-120.815 -221.531)" fill="#0a8074"/>
          </g>
          <g id="Grupo_1009351" data-name="Grupo 1009351">
            <path id="Trazado_719764" data-name="Trazado 719764" d="M81.41,325.613,255.85,224.9c2.413-1.385,5.675-1.162,9.339.938,7.283,4.2,13.226,14.477,13.226,22.877,0,4.2-1.475,7.194-3.887,8.579L100.087,358.008,81.41,325.658Z" transform="translate(-77.523 -224.024)" fill="#ff9d26"/>
            <path id="Trazado_719765" data-name="Trazado 719765" d="M260.9,257.566,86.46,358.28V330.265l174.4-100.715Z" transform="translate(-60.008 -204.86)" fill="#ff9d26"/>
            <path id="Trazado_719766" data-name="Trazado 719766" d="M106.992,271.244c0-8.4-5.9-18.677-13.226-22.877-7.283-4.2-13.226-.8-13.226,7.641,0,8.4,5.9,18.677,13.226,22.877C101.049,283.085,106.992,279.689,106.992,271.244Z" transform="translate(-80.54 -145.84)" fill="#ff8400"/>
          </g>
          <g id="Grupo_1009352" data-name="Grupo 1009352" transform="translate(0.938 111.067)">
            <path id="Trazado_719767" data-name="Trazado 719767" d="M81.09,253.3l7.06-4.066a3.678,3.678,0,0,1,3.709.357,11.491,11.491,0,0,1,5.228,9.071,3.762,3.762,0,0,1-1.519,3.4l-7.06,4.066Z" transform="translate(-79.571 -248.881)" fill="#16a89f"/>
            <path id="Trazado_719768" data-name="Trazado 719768" d="M91.206,259.559a11.559,11.559,0,0,0-5.228-9.071c-2.9-1.653-5.228-.313-5.228,3.038a11.559,11.559,0,0,0,5.228,9.07C88.882,264.251,91.206,262.911,91.206,259.559Z" transform="translate(-80.75 -245.758)" fill="#24d2c1"/>
            <path id="Trazado_719769" data-name="Trazado 719769" d="M89.936,258.424a10.037,10.037,0,0,0-4.513-7.819c-2.5-1.43-4.513-.268-4.513,2.636a9.968,9.968,0,0,0,4.513,7.82c2.5,1.43,4.513.268,4.513-2.592Z" transform="translate(-80.195 -245.025)" fill="#0a8074"/>
          </g>
        </g>
        <g id="Grupo_1009356" data-name="Grupo 1009356" transform="translate(0 112.332)">
          <g id="Grupo_1009354" data-name="Grupo 1009354" transform="translate(0 169.972)">
            <path id="Trazado_719770" data-name="Trazado 719770" d="M93.25,285.78,86.19,289.8v3.619l7.06-4.021Z" transform="translate(-38.916 -258.479)" fill="#0f7338"/>
            <path id="Trazado_719771" data-name="Trazado 719771" d="M75.61,284.234l47.274,27.256v-3.619L75.61,280.57Z" transform="translate(-75.61 -276.549)" fill="#128742"/>
            <path id="Trazado_719772" data-name="Trazado 719772" d="M75.61,283.691l47.274,27.3,7.06-4.021-47.319-27.3Z" transform="translate(-75.61 -279.67)" fill="#16a851"/>
          </g>
          <g id="Grupo_1009355" data-name="Grupo 1009355" transform="translate(19.839)">
            <path id="Trazado_719773" data-name="Trazado 719773" d="M94.17,245.7l-7.06,4.066L80.05,245.7l7.06-4.066Z" transform="translate(-80.05 -241.63)" fill="#16a851"/>
            <path id="Trazado_719774" data-name="Trazado 719774" d="M80.05,423.951V242.54l7.06,4.066V428.017Z" transform="translate(-80.05 -238.474)" fill="#128742"/>
            <path id="Trazado_719775" data-name="Trazado 719775" d="M81.63,428.017V246.606l7.06-4.066V423.951Z" transform="translate(-74.57 -238.474)" fill="#0f7338"/>
          </g>
        </g>
        <g id="Grupo_1009357" data-name="Grupo 1009357" transform="translate(188.51 47.442)">
          <path id="Trazado_719776" data-name="Trazado 719776" d="M130.807,236.144a10.6,10.6,0,0,1-4.513.67c-1.966-.313-5.764-.894-5.407-1.921s4.558-.179,4.87-1.564c-.67,1.385-3.083,1.3-3.083,1.3s-5.451-1.072-4.826-4.245c.268-1.3,4.915-3.441,6.3-3.262,1.921.223,8,4.111,8,4.111l1.564,1.743-1.117,3.128h-1.787Z" transform="translate(-117.799 -227.108)" fill="#121214"/>
          <path id="Trazado_719777" data-name="Trazado 719777" d="M149.987,248.192a98.852,98.852,0,0,1-8.668-5.987c-6.39-2.055-12.779-6.3-20.6-9.249a5.148,5.148,0,0,0,1.3-4.915c5.719,1.519,13.628.67,23.146,7.1a87.627,87.627,0,0,0,8.981,4.468l.134,4.692-4.334,3.887Z" transform="translate(-107.667 -223.874)" fill="#f0c6b4"/>
          <path id="Trazado_719778" data-name="Trazado 719778" d="M134.875,244.626c-1.251-.67-3.843-2.056-6.479-3.619-3.619-1.43.849-11.8,4.736-10.232a29.809,29.809,0,0,1,3.351,1.474l-1.564,12.377Z" transform="translate(-85.675 -214.946)" fill="#16a89f"/>
        </g>
      </g>
      <g id="Grupo_1010750" data-name="Grupo 1010750" transform="translate(207.766 225.106)">
        <path id="Trazado_717193" data-name="Trazado 717193" d="M102.946,265.442a6.435,6.435,0,0,0,1.216,1.836,2.743,2.743,0,0,1,1.914-.181l3.078,1.785h0l.388.233a3.216,3.216,0,0,1,1.19.129L147.407,290.4l.233.129.129.078a5.544,5.544,0,0,1,1.319.155l33.8,19.553a3.273,3.273,0,0,1,1.5,4.345v.052a3.316,3.316,0,0,1-4.552.879l-5.457-3.155a1.679,1.679,0,0,1-2.276.621l-24.571-14.2a43.516,43.516,0,0,1-5.613-4.5l30.365,17.562s.44-.1.543-.362l-26.8-15.493a4.36,4.36,0,0,1-.776-1.06l-.362-.207h0l-36.676-21.183a3.252,3.252,0,0,1-.7-.957l-3.466-2.017a2.7,2.7,0,0,1-.828-1.733L95.29,264.2l7.682,1.216Z" transform="translate(-95.264 -263.321)" opacity="0.3"/>
        <path id="Trazado_717194" data-name="Trazado 717194" d="M102.962,265.076,95.28,263.86l12.518,7.423s.776-1.759-1.6-2.9a6.688,6.688,0,0,1-3.233-3.311Z" transform="translate(-95.28 -263.86)" fill="#b8b8b8"/>
        <path id="Trazado_717195" data-name="Trazado 717195" d="M101.209,265.049a2.06,2.06,0,0,0-2.043,3.543l37.607,21.7a2.2,2.2,0,0,0,3.052-.595h0a2.242,2.242,0,0,0-1.009-2.974l-37.607-21.7Z" transform="translate(-90.398 -262.152)" fill="#ff8400"/>
        <path id="Trazado_717196" data-name="Trazado 717196" d="M100.52,267.1a2.378,2.378,0,0,0-.026,2.354l-.362-.207a2.284,2.284,0,0,1,2.069-3.543l.388.233a2.452,2.452,0,0,0-2.043,1.216Z" transform="translate(-88.26 -260.974)" fill="#ba6000"/>
        <path id="Trazado_717197" data-name="Trazado 717197" d="M144.752,289.758a2.741,2.741,0,0,1,1.267,3.621v.052a2.783,2.783,0,0,1-3.8.724l-41.331-23.873a3.25,3.25,0,0,1-.7-.957,2.416,2.416,0,0,1,2.069-3.569,3.217,3.217,0,0,1,1.19.129l41.331,23.847Z" transform="translate(-87.954 -260.867)" fill="#1d374e"/>
        <path id="Trazado_717198" data-name="Trazado 717198" d="M115.189,275.675a2.909,2.909,0,0,0,0,2.949l-.362-.207a2.758,2.758,0,0,1,2.561-4.4l.362.207a2.813,2.813,0,0,0-2.535,1.448Z" transform="translate(-65.219 -247.819)" fill="#0f2034"/>
        <path id="Trazado_717199" data-name="Trazado 717199" d="M152.512,293.795a3.3,3.3,0,0,1,1.5,4.371v.052a3.335,3.335,0,0,1-4.552.853l-33.831-19.553a4.358,4.358,0,0,1-.776-1.06,2.923,2.923,0,0,1,2.535-4.4,5.546,5.546,0,0,1,1.319.155l33.8,19.554Z" transform="translate(-64.883 -247.678)" fill="#1d374e"/>
        <path id="Trazado_717200" data-name="Trazado 717200" d="M145.909,293.434s-.957,1.629-2.405.776l-24.571-14.2a43.525,43.525,0,0,1-5.613-4.5l30.365,17.562s.905-.181.44-.776l-.052-.672,1.836,1.086v.724Z" transform="translate(-66.661 -245.378)" fill="#ff8400"/>
      </g>
      <g id="Grupo_1010751" data-name="Grupo 1010751" transform="translate(222.715 249.73)">
        <path id="Trazado_717201" data-name="Trazado 717201" d="M180.261,316.877h0l-4.578-2.638a1.274,1.274,0,0,0-.543-.853l-4.061-2.354-.155-.078h0l-.776-.466h0l-.1-.052-1.19-.7a1.224,1.224,0,0,0-1.009-.052l-56.126-32.46-.155-.078h0l-7.966-2.483-2.509-.776,1.94,1.811,6.13,5.664h0s.1.078.129.1l56.152,32.46a1.274,1.274,0,0,0,.543.853l.647.362h0l.672.388h0l.8.466h0l.672.388h0l3.543,2.069h0a1.216,1.216,0,0,0,1.009.052l4.578,2.664h0a1.233,1.233,0,0,0,1.242-.129,3.8,3.8,0,0,0,1.733-3,1.193,1.193,0,0,0-.517-1.112Z" transform="translate(-101.012 -272.571)" opacity="0.3"/>
        <g id="Grupo_1008363" data-name="Grupo 1008363">
          <path id="Trazado_717202" data-name="Trazado 717202" d="M103,275.165l-1.94-1.785,2.535.776Z" transform="translate(-101.06 -273.38)" fill="#303033"/>
          <path id="Trazado_717203" data-name="Trazado 717203" d="M110.435,276.143,108,280.359l-6.13-5.664h0a.484.484,0,0,1-.1-.233,1,1,0,0,1,.414-.724.352.352,0,0,1,.259-.052h0l7.966,2.457Z" transform="translate(-99.934 -272.91)" fill="#d1c699"/>
        </g>
        <g id="Grupo_1008364" data-name="Grupo 1008364" transform="translate(7.682 3.17)">
          <path id="Trazado_717204" data-name="Trazado 717204" d="M164.113,307.749l-2.457,4.268-57.109-33.029a1.24,1.24,0,0,1-.517-1.138,3.8,3.8,0,0,1,1.733-3,1.187,1.187,0,0,1,1.216-.129l57.109,33Z" transform="translate(-104.03 -274.606)" fill="#ff8400"/>
          <path id="Trazado_717205" data-name="Trazado 717205" d="M107.06,278.262v-.8l39.185,22.683v.8Z" transform="translate(-99.223 -270.077)" fill="#535359"/>
          <path id="Trazado_717206" data-name="Trazado 717206" d="M122.54,287.238v-.828l4.681,2.742v.8Z" transform="translate(-74.665 -255.879)" fill="#535359"/>
          <path id="Trazado_717207" data-name="Trazado 717207" d="M127.853,287.612a3.8,3.8,0,0,0-1.733,3c0,1.112.776,1.552,1.733,1.009a3.8,3.8,0,0,0,1.733-3C129.586,287.509,128.81,287.069,127.853,287.612Z" transform="translate(-68.986 -254.339)" fill="#ff9d26"/>
          <path id="Trazado_717208" data-name="Trazado 717208" d="M127.123,288.047a1.183,1.183,0,0,0-.543.931c0,.336.233.465.543.31a1.212,1.212,0,0,0,.543-.931C127.666,288.021,127.434,287.866,127.123,288.047Z" transform="translate(-68.256 -253.403)" fill="#303033"/>
        </g>
        <g id="Grupo_1008365" data-name="Grupo 1008365" transform="translate(64.299 35.665)">
          <path id="Trazado_717209" data-name="Trazado 717209" d="M135.723,290.974l-2.9,5.044-6.311-3.647a1.461,1.461,0,0,1-.595-1.345,4.58,4.58,0,0,1,2.069-3.569,1.486,1.486,0,0,1,1.474-.155l6.311,3.647Z" transform="translate(-125.92 -287.169)" fill="#a7a9ac"/>
          <path id="Trazado_717210" data-name="Trazado 717210" d="M130.419,288.86a4.54,4.54,0,0,0-2.069,3.569c0,1.319.931,1.862,2.069,1.19a4.514,4.514,0,0,0,2.043-3.569C132.462,288.731,131.557,288.214,130.419,288.86Z" transform="translate(-122.065 -284.927)" fill="#bcbec0"/>
          <path id="Trazado_717211" data-name="Trazado 717211" d="M130.582,288.956a4.54,4.54,0,0,0-2.069,3.569,1.491,1.491,0,0,0,.595,1.345l-.672-.388a1.522,1.522,0,0,1-.595-1.345,4.58,4.58,0,0,1,2.069-3.569,1.426,1.426,0,0,1,1.448-.129l.647.388a1.441,1.441,0,0,0-1.448.155Z" transform="translate(-122.874 -285.384)" fill="#939598"/>
          <path id="Trazado_717212" data-name="Trazado 717212" d="M130.006,288.634a4.514,4.514,0,0,0-2.043,3.569,1.522,1.522,0,0,0,.595,1.345l-.647-.388a1.447,1.447,0,0,1-.621-1.345,4.54,4.54,0,0,1,2.069-3.569,1.441,1.441,0,0,1,1.448-.155l.672.388a1.473,1.473,0,0,0-1.474.129Z" transform="translate(-123.747 -285.916)" fill="#939598"/>
          <path id="Trazado_717213" data-name="Trazado 717213" d="M129.446,288.314a4.61,4.61,0,0,0-2.069,3.569A1.4,1.4,0,0,0,128,293.2l-.673-.388a1.442,1.442,0,0,1-.595-1.319,4.58,4.58,0,0,1,2.069-3.569,1.441,1.441,0,0,1,1.448-.155l.672.388a1.438,1.438,0,0,0-1.448.155Z" transform="translate(-124.635 -286.424)" fill="#939598"/>
          <path id="Trazado_717214" data-name="Trazado 717214" d="M128.9,287.991a4.58,4.58,0,0,0-2.069,3.569,1.522,1.522,0,0,0,.595,1.345l-.672-.388a1.461,1.461,0,0,1-.595-1.345,4.58,4.58,0,0,1,2.069-3.569,1.369,1.369,0,0,1,1.448-.129l.672.362a1.441,1.441,0,0,0-1.448.155Z" transform="translate(-125.539 -286.928)" fill="#939598"/>
        </g>
        <g id="Grupo_1008366" data-name="Grupo 1008366" transform="translate(70.972 39.773)">
          <path id="Trazado_717215" data-name="Trazado 717215" d="M136.777,291.945l-2.457,4.242-5.3-3.052A1.24,1.24,0,0,1,128.5,292a3.8,3.8,0,0,1,1.733-3,1.162,1.162,0,0,1,1.241-.1Z" transform="translate(-128.5 -288.758)" fill="#ff2456"/>
          <path id="Trazado_717216" data-name="Trazado 717216" d="M132.283,290.17a3.843,3.843,0,0,0-1.733,3c0,1.086.776,1.552,1.733,1.009a3.843,3.843,0,0,0,1.733-3C134.016,290.092,133.24,289.627,132.283,290.17Z" transform="translate(-125.248 -286.879)" fill="#ff4d75"/>
        </g>
      </g>
      <g id="Grupo_1010752" data-name="Grupo 1010752" transform="translate(162.978 258.224)">
        <path id="Trazado_720430" data-name="Trazado 720430" d="M157.385,297.361a23.934,23.934,0,0,0-6.725-5.613c-13.191-7.6-34.529-7.6-47.72,0a23.218,23.218,0,0,0-6.725,5.613H93.06V306h.026c.207,4.837,3.466,9.622,9.854,13.32,13.191,7.6,34.529,7.6,47.72,0,6.388-3.7,9.647-8.484,9.854-13.32h.026v-8.639Z" transform="translate(-93.021 -277.872)" fill="#121214"/>
        <path id="Trazado_720431" data-name="Trazado 720431" d="M150.658,316.134c-13.191,7.6-34.529,7.6-47.72,0s-13.191-19.941,0-27.546,34.529-7.6,47.72,0,13.191,19.941,0,27.546Z" transform="translate(-93.045 -282.885)" fill="#535359"/>
        <path id="Trazado_720432" data-name="Trazado 720432" d="M103.248,313.523c-11.82-6.828-11.82-17.924,0-24.752s31.063-6.828,42.857,0c11.82,6.828,11.82,17.924,0,24.752S115.068,320.352,103.248,313.523ZM144.5,289.7c-10.915-6.311-28.709-6.311-39.624,0s-10.915,16.579,0,22.864c10.941,6.311,28.709,6.311,39.624,0C155.416,306.281,155.416,296.013,144.5,289.7Z" transform="translate(-90.923 -281.671)" fill="#303033"/>
        <path id="Trazado_720433" data-name="Trazado 720433" d="M122.338,296.273a11.231,11.231,0,0,1-10.113,0c-2.793-1.6-2.793-4.216,0-5.845a11.23,11.23,0,0,1,10.113,0C125.131,292.031,125.131,294.644,122.338,296.273Z" transform="translate(-65.941 -272.827)" fill="#121214"/>
        <path id="Trazado_720434" data-name="Trazado 720434" d="M108.738,295.463a11.231,11.231,0,0,1-10.113,0c-2.793-1.6-2.793-4.216,0-5.845a11.23,11.23,0,0,1,10.113,0C111.531,291.221,111.531,293.834,108.738,295.463Z" transform="translate(-87.516 -274.112)" fill="#121214"/>
      </g>
    </g>
  </g>
</svg>
