<svg xmlns="http://www.w3.org/2000/svg" width="642" height="102" viewBox="0 0 642 102">
  <g id="Grupo_1023430" data-name="Grupo 1023430" transform="translate(-273 -2785)">
    <path id="Trazado_737517" data-name="Trazado 737517" d="M0,0H642V102H0Z" transform="translate(273 2785)" fill="#fff"/>
    <path id="Trazado_737518" data-name="Trazado 737518" d="M33.723,11.8h-1.75L31.379,15H30.066l.594-3.2h-1.8V10.563h2.039l.453-2.453h-1.9V6.875h2.133l.609-3.25h1.3l-.609,3.25h1.758l.609-3.25h1.3l-.609,3.25h1.625V8.109H35.715l-.453,2.453h1.727V11.8H35.027L34.434,15h-1.3Zm-1.516-1.234h1.75l.453-2.453H32.66ZM43.012,15V3.625h3.359a5.269,5.269,0,0,1,2.676.672A4.581,4.581,0,0,1,50.855,6.2,6.051,6.051,0,0,1,51.5,9.031V9.6a6.026,6.026,0,0,1-.645,2.844,4.526,4.526,0,0,1-1.836,1.891,5.513,5.513,0,0,1-2.73.664Zm1.977-9.781v8.188h1.289a2.971,2.971,0,0,0,2.387-.971,4.223,4.223,0,0,0,.848-2.788V9.016a4.333,4.333,0,0,0-.8-2.823,2.855,2.855,0,0,0-2.336-.975ZM57,15.156a3.928,3.928,0,0,1-2.926-1.137,4.124,4.124,0,0,1-1.121-3.027v-.234A5.072,5.072,0,0,1,53.445,8.5a3.716,3.716,0,0,1,1.371-1.551,3.625,3.625,0,0,1,1.969-.555,3.318,3.318,0,0,1,2.668,1.1,4.658,4.658,0,0,1,.941,3.117v.766H54.871a2.539,2.539,0,0,0,.7,1.656,2.1,2.1,0,0,0,1.543.609,2.571,2.571,0,0,0,2.125-1.055l1.023.977a3.418,3.418,0,0,1-1.355,1.176A4.244,4.244,0,0,1,57,15.156Zm-.227-7.242a1.6,1.6,0,0,0-1.262.547A2.835,2.835,0,0,0,54.9,9.984H58.52V9.844A2.307,2.307,0,0,0,58.012,8.4,1.586,1.586,0,0,0,56.777,7.914ZM18.645,22.922H13.973v3.484h5.461V28H12V16.625h7.383v1.594H13.973v3.141h4.672ZM22.879,28h-1.9V16h1.9Zm5.789.156a3.928,3.928,0,0,1-2.926-1.137,4.124,4.124,0,0,1-1.121-3.027v-.234a5.072,5.072,0,0,1,.488-2.262,3.716,3.716,0,0,1,1.371-1.551,3.625,3.625,0,0,1,1.969-.555,3.318,3.318,0,0,1,2.668,1.1,4.658,4.658,0,0,1,.941,3.117v.766H26.535a2.539,2.539,0,0,0,.7,1.656,2.1,2.1,0,0,0,1.543.609A2.571,2.571,0,0,0,30.9,25.586l1.023.977a3.418,3.418,0,0,1-1.355,1.176A4.244,4.244,0,0,1,28.668,28.156Zm-.227-7.242a1.6,1.6,0,0,0-1.262.547,2.835,2.835,0,0,0-.613,1.523h3.617v-.141a2.307,2.307,0,0,0-.508-1.441A1.586,1.586,0,0,0,28.441,20.914Zm6.875-1.367.055.883a3.042,3.042,0,0,1,2.438-1.039,2.337,2.337,0,0,1,2.32,1.3,3,3,0,0,1,2.594-1.3,2.636,2.636,0,0,1,2.082.773,3.405,3.405,0,0,1,.7,2.281V28h-1.9V22.5a1.681,1.681,0,0,0-.352-1.18,1.539,1.539,0,0,0-1.164-.375,1.581,1.581,0,0,0-1.059.348,1.833,1.833,0,0,0-.574.91l.008,5.8h-1.9V22.438a1.354,1.354,0,0,0-1.523-1.492,1.671,1.671,0,0,0-1.617.93V28h-1.9V19.547Zm15.859,8.609A3.928,3.928,0,0,1,48.25,27.02a4.124,4.124,0,0,1-1.121-3.027v-.234a5.072,5.072,0,0,1,.488-2.262,3.716,3.716,0,0,1,1.371-1.551,3.625,3.625,0,0,1,1.969-.555,3.318,3.318,0,0,1,2.668,1.1,4.658,4.658,0,0,1,.941,3.117v.766H49.043a2.539,2.539,0,0,0,.7,1.656,2.1,2.1,0,0,0,1.543.609,2.571,2.571,0,0,0,2.125-1.055l1.023.977a3.418,3.418,0,0,1-1.355,1.176A4.244,4.244,0,0,1,51.176,28.156Zm-.227-7.242a1.6,1.6,0,0,0-1.262.547,2.835,2.835,0,0,0-.613,1.523h3.617v-.141a2.307,2.307,0,0,0-.508-1.441A1.586,1.586,0,0,0,50.949,20.914ZM57.8,19.547l.055.977a3.039,3.039,0,0,1,2.461-1.133q2.641,0,2.688,3.023V28h-1.9V22.523a1.741,1.741,0,0,0-.348-1.191,1.462,1.462,0,0,0-1.137-.387,1.829,1.829,0,0,0-1.711,1.039V28h-1.9V19.547Zm9.516-2.055v2.055h1.492v1.406H67.316v4.719a1.039,1.039,0,0,0,.191.7.888.888,0,0,0,.684.215,2.924,2.924,0,0,0,.664-.078v1.469a4.676,4.676,0,0,1-1.25.18q-2.188,0-2.187-2.414V20.953H64.027V19.547h1.391V17.492Zm2.352,6.2a4.984,4.984,0,0,1,.492-2.238,3.6,3.6,0,0,1,1.383-1.531,3.9,3.9,0,0,1,2.047-.535,3.692,3.692,0,0,1,2.777,1.1,4.333,4.333,0,0,1,1.152,2.922l.008.445a5.029,5.029,0,0,1-.48,2.234,3.551,3.551,0,0,1-1.375,1.523,3.925,3.925,0,0,1-2.066.539,3.667,3.667,0,0,1-2.863-1.191,4.563,4.563,0,0,1-1.074-3.176Zm1.9.164a3.406,3.406,0,0,0,.539,2.043,1.752,1.752,0,0,0,1.5.738,1.733,1.733,0,0,0,1.5-.75,3.762,3.762,0,0,0,.535-2.2,3.362,3.362,0,0,0-.551-2.031,1.856,1.856,0,0,0-2.973-.012A3.691,3.691,0,0,0,71.566,23.859Z" transform="translate(279 2787)" fill="#12263f"/>
    <path id="Trazado_737519" data-name="Trazado 737519" d="M3.5,15V3.625H6.863A5.269,5.269,0,0,1,9.539,4.3,4.581,4.581,0,0,1,11.348,6.2a6.051,6.051,0,0,1,.641,2.828V9.6a6.026,6.026,0,0,1-.645,2.844,4.526,4.526,0,0,1-1.836,1.891A5.513,5.513,0,0,1,6.777,15ZM5.48,5.219v8.188H6.77a2.971,2.971,0,0,0,2.387-.971A4.223,4.223,0,0,0,10,9.648V9.016a4.333,4.333,0,0,0-.8-2.823,2.855,2.855,0,0,0-2.336-.975ZM17.5,15.156A3.928,3.928,0,0,1,14.57,14.02a4.124,4.124,0,0,1-1.121-3.027v-.234A5.072,5.072,0,0,1,13.938,8.5a3.716,3.716,0,0,1,1.371-1.551,3.625,3.625,0,0,1,1.969-.555,3.318,3.318,0,0,1,2.668,1.1,4.658,4.658,0,0,1,.941,3.117v.766H15.363a2.539,2.539,0,0,0,.7,1.656,2.1,2.1,0,0,0,1.543.609,2.571,2.571,0,0,0,2.125-1.055l1.023.977A3.418,3.418,0,0,1,19.4,14.738,4.244,4.244,0,0,1,17.5,15.156ZM17.27,7.914a1.6,1.6,0,0,0-1.262.547,2.835,2.835,0,0,0-.613,1.523h3.617V9.844A2.307,2.307,0,0,0,18.5,8.4,1.586,1.586,0,0,0,17.27,7.914ZM27.1,12.7a.861.861,0,0,0-.418-.773,4.445,4.445,0,0,0-1.387-.469,7.129,7.129,0,0,1-1.617-.516,2.158,2.158,0,0,1-1.422-1.992,2.25,2.25,0,0,1,.922-1.828,3.644,3.644,0,0,1,2.344-.734,3.792,3.792,0,0,1,2.449.75A2.38,2.38,0,0,1,28.9,9.086H27a1.17,1.17,0,0,0-.406-.91,1.557,1.557,0,0,0-1.078-.363A1.682,1.682,0,0,0,24.5,8.1a.911.911,0,0,0-.395.773.769.769,0,0,0,.367.68,5.049,5.049,0,0,0,1.484.488,7.027,7.027,0,0,1,1.754.586,2.484,2.484,0,0,1,.945.816,2.082,2.082,0,0,1,.309,1.156,2.2,2.2,0,0,1-.945,1.848,4.031,4.031,0,0,1-2.477.707,4.371,4.371,0,0,1-1.852-.375,3.047,3.047,0,0,1-1.266-1.031,2.441,2.441,0,0,1-.453-1.414h1.844a1.338,1.338,0,0,0,.508,1.035,1.973,1.973,0,0,0,1.242.363,1.92,1.92,0,0,0,1.141-.285A.883.883,0,0,0,27.1,12.7Zm6.992.938a1.716,1.716,0,0,0,1.18-.414,1.415,1.415,0,0,0,.5-1.023h1.789a2.789,2.789,0,0,1-.492,1.473,3.228,3.228,0,0,1-1.25,1.082,3.725,3.725,0,0,1-1.7.4A3.6,3.6,0,0,1,31.3,14.008a4.555,4.555,0,0,1-1.039-3.172v-.2a4.479,4.479,0,0,1,1.031-3.09,3.571,3.571,0,0,1,2.813-1.16,3.473,3.473,0,0,1,2.457.879,3.148,3.148,0,0,1,1,2.309H35.77a1.738,1.738,0,0,0-.5-1.2,1.6,1.6,0,0,0-1.184-.469,1.671,1.671,0,0,0-1.422.668,3.408,3.408,0,0,0-.508,2.027v.3a3.465,3.465,0,0,0,.5,2.051A1.669,1.669,0,0,0,34.09,13.641Zm9.328-5.359a4.7,4.7,0,0,0-.773-.062,1.741,1.741,0,0,0-1.758,1V15h-1.9V6.547H40.8l.047.945a2.139,2.139,0,0,1,1.906-1.1,1.777,1.777,0,0,1,.672.109ZM46.637,15h-1.9V6.547h1.9ZM44.621,4.344a1.02,1.02,0,0,1,.277-.732,1.043,1.043,0,0,1,.793-.291,1.056,1.056,0,0,1,.8.291,1.012,1.012,0,0,1,.281.732.988.988,0,0,1-.281.72,1.064,1.064,0,0,1-.8.287,1.051,1.051,0,0,1-.793-.287A1,1,0,0,1,44.621,4.344Zm11.484,6.516a5.033,5.033,0,0,1-.891,3.129,3.094,3.094,0,0,1-4.617.254V18.25H48.7V6.547h1.75l.078.859A2.788,2.788,0,0,1,52.8,6.391a2.881,2.881,0,0,1,2.426,1.152,5.167,5.167,0,0,1,.879,3.2ZM54.215,10.7a3.526,3.526,0,0,0-.5-2.008,1.638,1.638,0,0,0-1.441-.742,1.747,1.747,0,0,0-1.672.961v3.75a1.763,1.763,0,0,0,1.688.984,1.636,1.636,0,0,0,1.418-.73A3.881,3.881,0,0,0,54.215,10.7Zm6.969,2.945a1.716,1.716,0,0,0,1.18-.414,1.415,1.415,0,0,0,.5-1.023h1.789a2.789,2.789,0,0,1-.492,1.473,3.228,3.228,0,0,1-1.25,1.082,3.725,3.725,0,0,1-1.7.4,3.6,3.6,0,0,1-2.812-1.148,4.555,4.555,0,0,1-1.039-3.172v-.2a4.479,4.479,0,0,1,1.031-3.09A3.571,3.571,0,0,1,61.2,6.391a3.473,3.473,0,0,1,2.457.879,3.148,3.148,0,0,1,1,2.309H62.863a1.738,1.738,0,0,0-.5-1.2,1.6,1.6,0,0,0-1.184-.469,1.671,1.671,0,0,0-1.422.668,3.408,3.408,0,0,0-.508,2.027v.3a3.465,3.465,0,0,0,.5,2.051A1.669,1.669,0,0,0,61.184,13.641ZM68.105,15h-1.9V6.547h1.9ZM66.09,4.344a1.02,1.02,0,0,1,.277-.732,1.043,1.043,0,0,1,.793-.291,1.056,1.056,0,0,1,.8.291,1.012,1.012,0,0,1,.281.732.988.988,0,0,1-.281.72,1.064,1.064,0,0,1-.8.287,1.051,1.051,0,0,1-.793-.287A1,1,0,0,1,66.09,4.344ZM69.816,10.7a4.984,4.984,0,0,1,.492-2.238,3.6,3.6,0,0,1,1.383-1.531,3.9,3.9,0,0,1,2.047-.535,3.692,3.692,0,0,1,2.777,1.1,4.333,4.333,0,0,1,1.152,2.922l.008.445a5.029,5.029,0,0,1-.48,2.234,3.551,3.551,0,0,1-1.375,1.523,3.925,3.925,0,0,1-2.066.539,3.667,3.667,0,0,1-2.863-1.191,4.563,4.563,0,0,1-1.074-3.176Zm1.9.164a3.406,3.406,0,0,0,.539,2.043,1.752,1.752,0,0,0,1.5.738,1.733,1.733,0,0,0,1.5-.75,3.762,3.762,0,0,0,.535-2.2,3.362,3.362,0,0,0-.551-2.031,1.856,1.856,0,0,0-2.973-.012A3.691,3.691,0,0,0,71.715,10.859ZM74.262,3h2.164L74.262,5.367l-1.523,0Zm6.781,3.547.055.977a3.039,3.039,0,0,1,2.461-1.133q2.641,0,2.688,3.023V15h-1.9V9.523A1.741,1.741,0,0,0,84,8.332a1.462,1.462,0,0,0-1.137-.387,1.829,1.829,0,0,0-1.711,1.039V15h-1.9V6.547Zm10.766,4.164a5.026,5.026,0,0,1,.906-3.137,2.9,2.9,0,0,1,2.43-1.184,2.759,2.759,0,0,1,2.172.938V3h1.9V15H97.5l-.094-.875a2.8,2.8,0,0,1-2.273,1.031,2.887,2.887,0,0,1-2.4-1.2A5.21,5.21,0,0,1,91.809,10.711Zm1.9.164a3.519,3.519,0,0,0,.5,2.012,1.61,1.61,0,0,0,1.41.723,1.793,1.793,0,0,0,1.7-1.039V8.961a1.766,1.766,0,0,0-1.687-1.016,1.622,1.622,0,0,0-1.422.73A3.918,3.918,0,0,0,93.707,10.875Zm11.211,4.281a3.928,3.928,0,0,1-2.926-1.137,4.124,4.124,0,0,1-1.121-3.027v-.234a5.072,5.072,0,0,1,.488-2.262,3.716,3.716,0,0,1,1.371-1.551,3.625,3.625,0,0,1,1.969-.555,3.318,3.318,0,0,1,2.668,1.1,4.658,4.658,0,0,1,.941,3.117v.766h-5.523a2.539,2.539,0,0,0,.7,1.656,2.1,2.1,0,0,0,1.543.609,2.571,2.571,0,0,0,2.125-1.055l1.023.977a3.418,3.418,0,0,1-1.355,1.176A4.244,4.244,0,0,1,104.918,15.156Zm-.227-7.242a1.6,1.6,0,0,0-1.262.547,2.835,2.835,0,0,0-.613,1.523h3.617V9.844a2.307,2.307,0,0,0-.508-1.441A1.586,1.586,0,0,0,104.691,7.914Zm12.8,7.242a3.928,3.928,0,0,1-2.926-1.137,4.124,4.124,0,0,1-1.121-3.027v-.234A5.072,5.072,0,0,1,113.93,8.5,3.716,3.716,0,0,1,115.3,6.945a3.625,3.625,0,0,1,1.969-.555,3.318,3.318,0,0,1,2.668,1.1,4.658,4.658,0,0,1,.941,3.117v.766h-5.523a2.539,2.539,0,0,0,.7,1.656,2.1,2.1,0,0,0,1.543.609,2.571,2.571,0,0,0,2.125-1.055l1.023.977a3.418,3.418,0,0,1-1.355,1.176A4.244,4.244,0,0,1,117.488,15.156Zm-.227-7.242A1.6,1.6,0,0,0,116,8.461a2.835,2.835,0,0,0-.613,1.523H119V9.844A2.307,2.307,0,0,0,118.5,8.4,1.586,1.586,0,0,0,117.262,7.914ZM124.371,15h-1.9V3h1.9Zm5.789.156a3.928,3.928,0,0,1-2.926-1.137,4.124,4.124,0,0,1-1.121-3.027v-.234A5.072,5.072,0,0,1,126.6,8.5a3.716,3.716,0,0,1,1.371-1.551,3.625,3.625,0,0,1,1.969-.555,3.318,3.318,0,0,1,2.668,1.1,4.658,4.658,0,0,1,.941,3.117v.766h-5.523a2.539,2.539,0,0,0,.7,1.656,2.1,2.1,0,0,0,1.543.609,2.571,2.571,0,0,0,2.125-1.055l1.023.977a3.418,3.418,0,0,1-1.355,1.176A4.244,4.244,0,0,1,130.16,15.156Zm-.227-7.242a1.6,1.6,0,0,0-1.262.547,2.835,2.835,0,0,0-.613,1.523h3.617V9.844a2.308,2.308,0,0,0-.508-1.441A1.586,1.586,0,0,0,129.934,7.914Zm6.875-1.367.055.883A3.042,3.042,0,0,1,139.3,6.391a2.337,2.337,0,0,1,2.32,1.3,3,3,0,0,1,2.594-1.3,2.636,2.636,0,0,1,2.082.773,3.405,3.405,0,0,1,.7,2.281V15h-1.9V9.5a1.681,1.681,0,0,0-.352-1.18,1.539,1.539,0,0,0-1.164-.375,1.581,1.581,0,0,0-1.059.348,1.833,1.833,0,0,0-.574.91l.008,5.8h-1.9V9.438a1.354,1.354,0,0,0-1.523-1.492,1.671,1.671,0,0,0-1.617.93V15h-1.9V6.547Zm15.859,8.609a3.928,3.928,0,0,1-2.926-1.137,4.124,4.124,0,0,1-1.121-3.027v-.234a5.072,5.072,0,0,1,.488-2.262,3.716,3.716,0,0,1,1.371-1.551,3.625,3.625,0,0,1,1.969-.555,3.318,3.318,0,0,1,2.668,1.1,4.658,4.658,0,0,1,.941,3.117v.766h-5.523a2.539,2.539,0,0,0,.7,1.656,2.1,2.1,0,0,0,1.543.609,2.571,2.571,0,0,0,2.125-1.055l1.023.977a3.418,3.418,0,0,1-1.355,1.176A4.244,4.244,0,0,1,152.668,15.156Zm-.227-7.242a1.6,1.6,0,0,0-1.262.547,2.835,2.835,0,0,0-.613,1.523h3.617V9.844a2.308,2.308,0,0,0-.508-1.441A1.586,1.586,0,0,0,152.441,7.914Zm6.852-1.367.055.977a3.039,3.039,0,0,1,2.461-1.133q2.641,0,2.688,3.023V15h-1.9V9.523a1.741,1.741,0,0,0-.348-1.191,1.462,1.462,0,0,0-1.137-.387A1.829,1.829,0,0,0,159.4,8.984V15h-1.9V6.547Zm9.516-2.055V6.547H170.3V7.953h-1.492v4.719a1.039,1.039,0,0,0,.191.7.888.888,0,0,0,.684.215,2.924,2.924,0,0,0,.664-.078v1.469a4.676,4.676,0,0,1-1.25.18q-2.187,0-2.187-2.414V7.953H165.52V6.547h1.391V4.492Zm2.352,6.2a4.984,4.984,0,0,1,.492-2.238,3.6,3.6,0,0,1,1.383-1.531,3.9,3.9,0,0,1,2.047-.535,3.692,3.692,0,0,1,2.777,1.1,4.333,4.333,0,0,1,1.152,2.922l.008.445a5.029,5.029,0,0,1-.48,2.234,3.551,3.551,0,0,1-1.375,1.523,3.925,3.925,0,0,1-2.066.539,3.667,3.667,0,0,1-2.863-1.191,4.563,4.563,0,0,1-1.074-3.176Zm1.9.164A3.406,3.406,0,0,0,173.6,12.9a1.752,1.752,0,0,0,1.5.738,1.733,1.733,0,0,0,1.5-.75,3.762,3.762,0,0,0,.535-2.2,3.362,3.362,0,0,0-.551-2.031,1.856,1.856,0,0,0-2.973-.012A3.691,3.691,0,0,0,173.059,10.859Z" transform="translate(394 2794)" fill="#12263f"/>
    <path id="Trazado_737520" data-name="Trazado 737520" d="M22.074,3.625v7.734a3.628,3.628,0,0,1-1.012,2.633,4.077,4.077,0,0,1-2.723,1.148l-.4.016a4.258,4.258,0,0,1-2.977-1.008,3.6,3.6,0,0,1-1.125-2.773V3.625h1.484v7.7A2.6,2.6,0,0,0,16,13.246a2.612,2.612,0,0,0,1.938.684,2.63,2.63,0,0,0,1.949-.68,2.6,2.6,0,0,0,.676-1.914V3.625Zm3.508,2.922.047,1.063A3.08,3.08,0,0,1,28.16,6.391q2.68,0,2.7,3.023V15H29.418V9.406A1.946,1.946,0,0,0,29,8.055a1.675,1.675,0,0,0-1.277-.437,2.086,2.086,0,0,0-1.234.375,2.546,2.546,0,0,0-.828.984V15H24.215V6.547ZM34.613,15H33.168V6.547h1.445ZM33.051,4.3a.863.863,0,0,1,.215-.594.807.807,0,0,1,.637-.242.819.819,0,0,1,.641.242.854.854,0,0,1,.219.594.826.826,0,0,1-.219.586.834.834,0,0,1-.641.234.821.821,0,0,1-.637-.234A.834.834,0,0,1,33.051,4.3Zm7.961,3.539a4.331,4.331,0,0,0-.711-.055A1.9,1.9,0,0,0,38.371,9v6H36.926V6.547h1.406l.023.977a2.251,2.251,0,0,1,2.016-1.133,1.477,1.477,0,0,1,.641.109Zm12.43,3.023a5.062,5.062,0,0,1-.883,3.109,2.829,2.829,0,0,1-2.391,1.18,3.1,3.1,0,0,1-2.422-.977v4.07H46.3V6.547h1.32l.07.938a2.977,2.977,0,0,1,2.453-1.094,2.882,2.882,0,0,1,2.41,1.148,5.117,5.117,0,0,1,.887,3.2ZM52,10.7a3.735,3.735,0,0,0-.609-2.258,1.963,1.963,0,0,0-1.672-.828,2.125,2.125,0,0,0-1.969,1.164V12.82a2.129,2.129,0,0,0,1.984,1.156,1.954,1.954,0,0,0,1.652-.824A4.077,4.077,0,0,0,52,10.7Zm2.9-.008a4.993,4.993,0,0,1,.488-2.234A3.643,3.643,0,0,1,56.742,6.93a3.7,3.7,0,0,1,1.988-.539,3.565,3.565,0,0,1,2.793,1.2,4.6,4.6,0,0,1,1.066,3.18v.1a5.036,5.036,0,0,1-.473,2.215,3.589,3.589,0,0,1-1.352,1.527,3.743,3.743,0,0,1-2.02.547,3.556,3.556,0,0,1-2.785-1.2A4.575,4.575,0,0,1,54.895,10.8Zm1.453.172A3.616,3.616,0,0,0,57,13.125a2.211,2.211,0,0,0,3.5-.012,3.955,3.955,0,0,0,.648-2.418,3.61,3.61,0,0,0-.66-2.254,2.1,2.1,0,0,0-1.754-.863A2.075,2.075,0,0,0,57,8.43,3.925,3.925,0,0,0,56.348,10.867ZM68.488,7.844a4.331,4.331,0,0,0-.711-.055A1.9,1.9,0,0,0,65.848,9v6H64.4V6.547h1.406l.023.977a2.251,2.251,0,0,1,2.016-1.133,1.477,1.477,0,0,1,.641.109Zm6.734-.273a3.073,3.073,0,0,1,2.5-1.18q2.68,0,2.7,3.023V15H78.98V9.406a1.946,1.946,0,0,0-.418-1.352,1.675,1.675,0,0,0-1.277-.437,2.086,2.086,0,0,0-1.234.375,2.546,2.546,0,0,0-.828.984V15H73.777V3h1.445ZM82.207,10.7A4.993,4.993,0,0,1,82.7,8.461,3.643,3.643,0,0,1,84.055,6.93a3.7,3.7,0,0,1,1.988-.539,3.565,3.565,0,0,1,2.793,1.2,4.6,4.6,0,0,1,1.066,3.18v.1a5.036,5.036,0,0,1-.473,2.215,3.589,3.589,0,0,1-1.352,1.527,3.743,3.743,0,0,1-2.02.547,3.556,3.556,0,0,1-2.785-1.2A4.575,4.575,0,0,1,82.207,10.8Zm1.453.172a3.616,3.616,0,0,0,.652,2.258,2.211,2.211,0,0,0,3.5-.012,3.955,3.955,0,0,0,.648-2.418,3.61,3.61,0,0,0-.66-2.254,2.1,2.1,0,0,0-1.754-.863,2.075,2.075,0,0,0-1.727.852A3.925,3.925,0,0,0,83.66,10.867Zm9.414-4.32.039.938a3.122,3.122,0,0,1,2.508-1.094A2.417,2.417,0,0,1,98.035,7.75a3.2,3.2,0,0,1,1.1-.984,3.242,3.242,0,0,1,1.6-.375q2.781,0,2.828,2.945V15h-1.445V9.422a1.941,1.941,0,0,0-.414-1.355,1.823,1.823,0,0,0-1.391-.449,1.916,1.916,0,0,0-1.336.48,1.949,1.949,0,0,0-.617,1.293V15H96.9V9.461a1.613,1.613,0,0,0-1.8-1.844,1.934,1.934,0,0,0-1.945,1.211V15H91.707V6.547Zm19.82,4.32A5.026,5.026,0,0,1,112,13.98a2.846,2.846,0,0,1-2.391,1.176,2.947,2.947,0,0,1-2.477-1.133l-.07.977h-1.328V3h1.445V7.477A2.93,2.93,0,0,1,109.6,6.391a2.863,2.863,0,0,1,2.418,1.164,5.177,5.177,0,0,1,.879,3.188Zm-1.445-.164a3.906,3.906,0,0,0-.57-2.281,1.888,1.888,0,0,0-1.641-.8,2.122,2.122,0,0,0-2.055,1.328V12.6a2.181,2.181,0,0,0,2.07,1.328,1.878,1.878,0,0,0,1.617-.8A4.153,4.153,0,0,0,111.449,10.7ZM118.8,7.844a4.331,4.331,0,0,0-.711-.055A1.9,1.9,0,0,0,116.16,9v6h-1.445V6.547h1.406l.023.977a2.251,2.251,0,0,1,2.016-1.133,1.477,1.477,0,0,1,.641.109Zm.789,2.852a4.993,4.993,0,0,1,.488-2.234,3.643,3.643,0,0,1,1.359-1.531,3.7,3.7,0,0,1,1.988-.539,3.565,3.565,0,0,1,2.793,1.2,4.6,4.6,0,0,1,1.066,3.18v.1a5.036,5.036,0,0,1-.473,2.215,3.589,3.589,0,0,1-1.352,1.527,3.743,3.743,0,0,1-2.02.547,3.556,3.556,0,0,1-2.785-1.2A4.575,4.575,0,0,1,119.59,10.8Zm1.453.172a3.616,3.616,0,0,0,.652,2.258,2.211,2.211,0,0,0,3.5-.012,3.955,3.955,0,0,0,.648-2.418,3.61,3.61,0,0,0-.66-2.254,2.1,2.1,0,0,0-1.754-.863,2.075,2.075,0,0,0-1.727.852A3.925,3.925,0,0,0,121.043,10.867Zm12.977,1.891a1.064,1.064,0,0,0-.441-.91,4.249,4.249,0,0,0-1.539-.559,7.277,7.277,0,0,1-1.742-.562,2.479,2.479,0,0,1-.953-.781,1.869,1.869,0,0,1-.309-1.078,2.193,2.193,0,0,1,.879-1.758,3.432,3.432,0,0,1,2.246-.719,3.532,3.532,0,0,1,2.332.742,2.357,2.357,0,0,1,.895,1.9h-1.453a1.3,1.3,0,0,0-.5-1.023,1.888,1.888,0,0,0-1.27-.43,1.976,1.976,0,0,0-1.234.344,1.082,1.082,0,0,0-.445.9.877.877,0,0,0,.414.789,5.1,5.1,0,0,0,1.5.508,7.8,7.8,0,0,1,1.754.578,2.558,2.558,0,0,1,1,.809,1.988,1.988,0,0,1,.324,1.152,2.163,2.163,0,0,1-.906,1.816,3.8,3.8,0,0,1-2.352.684,4.257,4.257,0,0,1-1.8-.359,2.922,2.922,0,0,1-1.223-1,2.42,2.42,0,0,1-.441-1.395h1.445a1.5,1.5,0,0,0,.582,1.152,2.258,2.258,0,0,0,1.434.426,2.331,2.331,0,0,0,1.316-.332A1.02,1.02,0,0,0,134.02,12.758Z" transform="translate(392 2854)" fill="#12263f"/>
    <path id="Trazado_737521" data-name="Trazado 737521" d="M8.2,15H6.75V5.367L3.836,6.438V5.125L7.977,3.57H8.2Z" transform="translate(595 2826)" fill="#12263f"/>
    <path id="Trazado_737522" data-name="Trazado 737522" d="M8.2,15H6.75V5.367L3.836,6.438V5.125L7.977,3.57H8.2Z" transform="translate(314 2855)" fill="#12263f"/>
    <path id="Trazado_737523" data-name="Trazado 737523" d="M6.141,15H4.688V5.367L1.773,6.438V5.125L5.914,3.57h.227Zm4.336,2.266-.82-.562a3.77,3.77,0,0,0,.766-2.109v-1.3h1.414v1.133A3.559,3.559,0,0,1,11.449,16,3.7,3.7,0,0,1,10.477,17.266ZM20.969,15H13.516V13.961l3.938-4.375A9.354,9.354,0,0,0,18.66,7.973a2.693,2.693,0,0,0,.332-1.285,2.041,2.041,0,0,0-.539-1.461,1.885,1.885,0,0,0-1.437-.57,2.232,2.232,0,0,0-1.676.613,2.343,2.343,0,0,0-.6,1.707H13.3a3.355,3.355,0,0,1,1.012-2.539,3.751,3.751,0,0,1,2.707-.969,3.6,3.6,0,0,1,2.508.832,2.838,2.838,0,0,1,.922,2.215q0,1.68-2.141,4l-3.047,3.3h5.711Z" transform="translate(591 2857)" fill="#12263f"/>
    <path id="Trazado_737524" data-name="Trazado 737524" d="M14.2,9.742H9.273v4.031H15V15H7.773V3.625h7.148V4.852H9.273V8.516H14.2Z" transform="translate(563 2857)" fill="#12263f"/>
    <path id="Trazado_737525" data-name="Trazado 737525" d="M6.141,15H4.688V5.367L1.773,6.438V5.125L5.914,3.57h.227Zm4.336,2.266-.82-.562a3.77,3.77,0,0,0,.766-2.109v-1.3h1.414v1.133A3.559,3.559,0,0,1,11.449,16,3.7,3.7,0,0,1,10.477,17.266ZM18.266,15H16.813V5.367L13.9,6.438V5.125L18.039,3.57h.227Z" transform="translate(851 2857)" fill="#12263f"/>
    <path id="Trazado_737526" data-name="Trazado 737526" d="M6.141,15H4.688V5.367L1.773,6.438V5.125L5.914,3.57h.227Zm4.336,2.266-.82-.562a3.77,3.77,0,0,0,.766-2.109v-1.3h1.414v1.133A3.559,3.559,0,0,1,11.449,16,3.7,3.7,0,0,1,10.477,17.266ZM20.969,15H13.516V13.961l3.938-4.375A9.354,9.354,0,0,0,18.66,7.973a2.693,2.693,0,0,0,.332-1.285,2.041,2.041,0,0,0-.539-1.461,1.885,1.885,0,0,0-1.437-.57,2.232,2.232,0,0,0-1.676.613,2.343,2.343,0,0,0-.6,1.707H13.3a3.355,3.355,0,0,1,1.012-2.539,3.751,3.751,0,0,1,2.707-.969,3.6,3.6,0,0,1,2.508.832,2.838,2.838,0,0,1,.922,2.215q0,1.68-2.141,4l-3.047,3.3h5.711Z" transform="translate(623 2857)" fill="#12263f"/>
    <path id="Trazado_737527" data-name="Trazado 737527" d="M6.141,15H4.688V5.367L1.773,6.438V5.125L5.914,3.57h.227Zm4.336,2.266-.82-.562a3.77,3.77,0,0,0,.766-2.109v-1.3h1.414v1.133A3.559,3.559,0,0,1,11.449,16,3.7,3.7,0,0,1,10.477,17.266ZM20.969,15H13.516V13.961l3.938-4.375A9.354,9.354,0,0,0,18.66,7.973a2.693,2.693,0,0,0,.332-1.285,2.041,2.041,0,0,0-.539-1.461,1.885,1.885,0,0,0-1.437-.57,2.232,2.232,0,0,0-1.676.613,2.343,2.343,0,0,0-.6,1.707H13.3a3.355,3.355,0,0,1,1.012-2.539,3.751,3.751,0,0,1,2.707-.969,3.6,3.6,0,0,1,2.508.832,2.838,2.838,0,0,1,.922,2.215q0,1.68-2.141,4l-3.047,3.3h5.711Z" transform="translate(683 2857)" fill="#12263f"/>
    <path id="Trazado_737528" data-name="Trazado 737528" d="M6.141,15H4.688V5.367L1.773,6.438V5.125L5.914,3.57h.227Zm4.336,2.266-.82-.562a3.77,3.77,0,0,0,.766-2.109v-1.3h1.414v1.133A3.559,3.559,0,0,1,11.449,16,3.7,3.7,0,0,1,10.477,17.266ZM20.969,15H13.516V13.961l3.938-4.375A9.354,9.354,0,0,0,18.66,7.973a2.693,2.693,0,0,0,.332-1.285,2.041,2.041,0,0,0-.539-1.461,1.885,1.885,0,0,0-1.437-.57,2.232,2.232,0,0,0-1.676.613,2.343,2.343,0,0,0-.6,1.707H13.3a3.355,3.355,0,0,1,1.012-2.539,3.751,3.751,0,0,1,2.707-.969,3.6,3.6,0,0,1,2.508.832,2.838,2.838,0,0,1,.922,2.215q0,1.68-2.141,4l-3.047,3.3h5.711Z" transform="translate(776 2857)" fill="#12263f"/>
    <path id="Trazado_737529" data-name="Trazado 737529" d="M6.141,15H4.688V5.367L1.773,6.438V5.125L5.914,3.57h.227Zm4.336,2.266-.82-.562a3.77,3.77,0,0,0,.766-2.109v-1.3h1.414v1.133A3.559,3.559,0,0,1,11.449,16,3.7,3.7,0,0,1,10.477,17.266ZM20.969,15H13.516V13.961l3.938-4.375A9.354,9.354,0,0,0,18.66,7.973a2.693,2.693,0,0,0,.332-1.285,2.041,2.041,0,0,0-.539-1.461,1.885,1.885,0,0,0-1.437-.57,2.232,2.232,0,0,0-1.676.613,2.343,2.343,0,0,0-.6,1.707H13.3a3.355,3.355,0,0,1,1.012-2.539,3.751,3.751,0,0,1,2.707-.969,3.6,3.6,0,0,1,2.508.832,2.838,2.838,0,0,1,.922,2.215q0,1.68-2.141,4l-3.047,3.3h5.711Z" transform="translate(813 2857)" fill="#12263f"/>
    <path id="Trazado_737530" data-name="Trazado 737530" d="M6.141,15H4.688V5.367L1.773,6.438V5.125L5.914,3.57h.227Zm4.336,2.266-.82-.562a3.77,3.77,0,0,0,.766-2.109v-1.3h1.414v1.133A3.559,3.559,0,0,1,11.449,16,3.7,3.7,0,0,1,10.477,17.266ZM20.969,15H13.516V13.961l3.938-4.375A9.354,9.354,0,0,0,18.66,7.973a2.693,2.693,0,0,0,.332-1.285,2.041,2.041,0,0,0-.539-1.461,1.885,1.885,0,0,0-1.437-.57,2.232,2.232,0,0,0-1.676.613,2.343,2.343,0,0,0-.6,1.707H13.3a3.355,3.355,0,0,1,1.012-2.539,3.751,3.751,0,0,1,2.707-.969,3.6,3.6,0,0,1,2.508.832,2.838,2.838,0,0,1,.922,2.215q0,1.68-2.141,4l-3.047,3.3h5.711Z" transform="translate(885 2857)" fill="#12263f"/>
    <path id="Trazado_737531" data-name="Trazado 737531" d="M6.141,15H4.688V5.367L1.773,6.438V5.125L5.914,3.57h.227Zm4.336,2.266-.82-.562a3.77,3.77,0,0,0,.766-2.109v-1.3h1.414v1.133A3.559,3.559,0,0,1,11.449,16,3.7,3.7,0,0,1,10.477,17.266Zm5.141-8.656H16.7a2.387,2.387,0,0,0,1.609-.539A1.8,1.8,0,0,0,18.9,6.656a1.764,1.764,0,0,0-1.992-2,2.072,2.072,0,0,0-1.5.535,1.873,1.873,0,0,0-.559,1.418H13.406a2.9,2.9,0,0,1,.988-2.246,3.6,3.6,0,0,1,2.512-.895,3.558,3.558,0,0,1,2.523.852,3.076,3.076,0,0,1,.914,2.367,2.5,2.5,0,0,1-.48,1.438,2.9,2.9,0,0,1-1.309,1.039A2.8,2.8,0,0,1,20,10.148a2.734,2.734,0,0,1,.512,1.68,3.1,3.1,0,0,1-1,2.43,3.745,3.745,0,0,1-2.6.9,3.844,3.844,0,0,1-2.605-.867A2.877,2.877,0,0,1,13.3,12h1.453a1.859,1.859,0,0,0,.586,1.438,2.229,2.229,0,0,0,1.57.539,2.187,2.187,0,0,0,1.6-.547,2.108,2.108,0,0,0,.555-1.57,1.912,1.912,0,0,0-.609-1.523A2.655,2.655,0,0,0,16.7,9.789H15.617Z" transform="translate(654 2857)" fill="#12263f"/>
    <path id="Trazado_737532" data-name="Trazado 737532" d="M6.141,15H4.688V5.367L1.773,6.438V5.125L5.914,3.57h.227Zm4.336,2.266-.82-.562a3.77,3.77,0,0,0,.766-2.109v-1.3h1.414v1.133A3.559,3.559,0,0,1,11.449,16,3.7,3.7,0,0,1,10.477,17.266Zm5.141-8.656H16.7a2.387,2.387,0,0,0,1.609-.539A1.8,1.8,0,0,0,18.9,6.656a1.764,1.764,0,0,0-1.992-2,2.072,2.072,0,0,0-1.5.535,1.873,1.873,0,0,0-.559,1.418H13.406a2.9,2.9,0,0,1,.988-2.246,3.6,3.6,0,0,1,2.512-.895,3.558,3.558,0,0,1,2.523.852,3.076,3.076,0,0,1,.914,2.367,2.5,2.5,0,0,1-.48,1.438,2.9,2.9,0,0,1-1.309,1.039A2.8,2.8,0,0,1,20,10.148a2.734,2.734,0,0,1,.512,1.68,3.1,3.1,0,0,1-1,2.43,3.745,3.745,0,0,1-2.6.9,3.844,3.844,0,0,1-2.605-.867A2.877,2.877,0,0,1,13.3,12h1.453a1.859,1.859,0,0,0,.586,1.438,2.229,2.229,0,0,0,1.57.539,2.187,2.187,0,0,0,1.6-.547,2.108,2.108,0,0,0,.555-1.57,1.912,1.912,0,0,0-.609-1.523A2.655,2.655,0,0,0,16.7,9.789H15.617Z" transform="translate(712 2857)" fill="#12263f"/>
    <path id="Trazado_737533" data-name="Trazado 737533" d="M6.141,15H4.688V5.367L1.773,6.438V5.125L5.914,3.57h.227Zm4.336,2.266-.82-.562a3.77,3.77,0,0,0,.766-2.109v-1.3h1.414v1.133A3.559,3.559,0,0,1,11.449,16,3.7,3.7,0,0,1,10.477,17.266Zm9.141-6.086H21.2v1.18H19.617V15H18.164V12.359h-5.18v-.852l5.094-7.883h1.539Zm-4.992,0h3.539V5.6l-.172.313Z" transform="translate(743 2857)" fill="#12263f"/>
    <path id="Trazado_737534" data-name="Trazado 737534" d="M10.906,15H3.453V13.961L7.391,9.586A9.354,9.354,0,0,0,8.6,7.973,2.693,2.693,0,0,0,8.93,6.688a2.041,2.041,0,0,0-.539-1.461,1.885,1.885,0,0,0-1.437-.57,2.232,2.232,0,0,0-1.676.613,2.343,2.343,0,0,0-.6,1.707H3.234A3.355,3.355,0,0,1,4.246,4.438a3.751,3.751,0,0,1,2.707-.969A3.6,3.6,0,0,1,9.461,4.3a2.838,2.838,0,0,1,.922,2.215q0,1.68-2.141,4L5.2,13.82h5.711Z" transform="translate(627 2826)" fill="#12263f"/>
    <path id="Trazado_737535" data-name="Trazado 737535" d="M5.555,8.609H6.641A2.387,2.387,0,0,0,8.25,8.07a1.8,1.8,0,0,0,.586-1.414,1.764,1.764,0,0,0-1.992-2,2.072,2.072,0,0,0-1.5.535,1.873,1.873,0,0,0-.559,1.418H3.344a2.9,2.9,0,0,1,.988-2.246,3.6,3.6,0,0,1,2.512-.895,3.558,3.558,0,0,1,2.523.852,3.076,3.076,0,0,1,.914,2.367A2.5,2.5,0,0,1,9.8,8.125,2.9,2.9,0,0,1,8.492,9.164a2.8,2.8,0,0,1,1.449.984,2.734,2.734,0,0,1,.512,1.68,3.1,3.1,0,0,1-1,2.43,3.745,3.745,0,0,1-2.6.9,3.844,3.844,0,0,1-2.605-.867,2.877,2.877,0,0,1-1-2.289H4.7a1.859,1.859,0,0,0,.586,1.438,2.229,2.229,0,0,0,1.57.539,2.187,2.187,0,0,0,1.6-.547,2.108,2.108,0,0,0,.555-1.57A1.912,1.912,0,0,0,8.4,10.336a2.655,2.655,0,0,0-1.758-.547H5.555Z" transform="translate(658 2826)" fill="#12263f"/>
    <path id="Trazado_737536" data-name="Trazado 737536" d="M9.555,11.18h1.578v1.18H9.555V15H8.1V12.359H2.922v-.852L8.016,3.625H9.555Zm-4.992,0H8.1V5.6l-.172.313Z" transform="translate(687 2826)" fill="#12263f"/>
    <path id="Trazado_737537" data-name="Trazado 737537" d="M4.117,9.3,4.7,3.625h5.828V4.961h-4.6l-.344,3.1a3.671,3.671,0,0,1,1.9-.492A3.138,3.138,0,0,1,9.945,8.6a4.026,4.026,0,0,1,.914,2.777,3.886,3.886,0,0,1-.949,2.77,3.46,3.46,0,0,1-2.652,1.012A3.6,3.6,0,0,1,4.8,14.32a3.337,3.337,0,0,1-1.086-2.312H5.078a2.3,2.3,0,0,0,.7,1.473,2.162,2.162,0,0,0,1.484.5,1.95,1.95,0,0,0,1.582-.687,2.874,2.874,0,0,0,.574-1.9,2.638,2.638,0,0,0-.621-1.832,2.113,2.113,0,0,0-1.652-.691,2.383,2.383,0,0,0-1.484.414l-.383.313Z" transform="translate(716 2826)" fill="#12263f"/>
    <path id="Trazado_737538" data-name="Trazado 737538" d="M9.125,3.617V4.844H8.859a3.805,3.805,0,0,0-2.687,1A4.161,4.161,0,0,0,5.016,8.57,3.085,3.085,0,0,1,7.469,7.539,2.95,2.95,0,0,1,9.84,8.586a4.038,4.038,0,0,1,.887,2.7A4.025,4.025,0,0,1,9.77,14.1,3.3,3.3,0,0,1,7.2,15.156,3.247,3.247,0,0,1,4.555,13.9a4.97,4.97,0,0,1-1.016-3.23v-.555a7.488,7.488,0,0,1,1.34-4.8,4.921,4.921,0,0,1,3.988-1.7Zm-1.9,5.125A2.429,2.429,0,0,0,4.992,10.3v.531A3.731,3.731,0,0,0,5.625,13.1a1.9,1.9,0,0,0,1.578.859,1.838,1.838,0,0,0,1.535-.719A2.982,2.982,0,0,0,9.3,11.359,2.983,2.983,0,0,0,8.73,9.465,1.816,1.816,0,0,0,7.227,8.742Z" transform="translate(747 2826)" fill="#12263f"/>
    <path id="Trazado_737539" data-name="Trazado 737539" d="M10.8,4.438,6.086,15H4.57l4.7-10.187H3.109V3.625H10.8Z" transform="translate(780 2826)" fill="#12263f"/>
    <path id="Trazado_737540" data-name="Trazado 737540" d="M10.352,6.594A2.641,2.641,0,0,1,9.9,8.109,3.057,3.057,0,0,1,8.688,9.148a3.26,3.26,0,0,1,1.41,1.117,2.811,2.811,0,0,1,.52,1.664,2.972,2.972,0,0,1-1,2.352A3.827,3.827,0,0,1,7,15.156a3.81,3.81,0,0,1-2.629-.879,2.986,2.986,0,0,1-.988-2.348,2.9,2.9,0,0,1,.5-1.664A3.136,3.136,0,0,1,5.281,9.141,2.981,2.981,0,0,1,4.086,8.1a2.679,2.679,0,0,1-.437-1.508A2.94,2.94,0,0,1,4.57,4.313,3.458,3.458,0,0,1,7,3.469a3.461,3.461,0,0,1,2.426.844A2.934,2.934,0,0,1,10.352,6.594Zm-1.18,5.3a2.1,2.1,0,0,0-.605-1.555,2.147,2.147,0,0,0-1.582-.6A2.034,2.034,0,0,0,4.828,11.9,2.019,2.019,0,0,0,5.4,13.422a2.2,2.2,0,0,0,1.6.555,2.2,2.2,0,0,0,1.594-.559A2.014,2.014,0,0,0,9.172,11.9ZM7,4.656a1.865,1.865,0,0,0-1.379.527,1.937,1.937,0,0,0-.527,1.434,1.928,1.928,0,0,0,.52,1.4A1.844,1.844,0,0,0,7,8.555,1.844,1.844,0,0,0,8.387,8.02a1.928,1.928,0,0,0,.52-1.4A1.929,1.929,0,0,0,8.367,5.2,1.839,1.839,0,0,0,7,4.656Z" transform="translate(817 2826)" fill="#12263f"/>
    <path id="Trazado_737541" data-name="Trazado 737541" d="M8.992,10a3.536,3.536,0,0,1-1.082.867,2.936,2.936,0,0,1-1.379.328,3.031,3.031,0,0,1-1.715-.484A3.149,3.149,0,0,1,3.688,9.348a4.648,4.648,0,0,1-.4-1.941,4.735,4.735,0,0,1,.434-2.055,3.185,3.185,0,0,1,1.23-1.4,3.509,3.509,0,0,1,1.859-.484A3.177,3.177,0,0,1,9.473,4.73a5.5,5.5,0,0,1,.973,3.441v.422q0,3.32-1.312,4.848a5.043,5.043,0,0,1-3.961,1.566H4.891V13.781h.3a3.979,3.979,0,0,0,2.75-.932A4,4,0,0,0,8.992,10ZM6.766,10a2.232,2.232,0,0,0,1.34-.445A2.625,2.625,0,0,0,9,8.453V7.875a3.977,3.977,0,0,0-.617-2.312A1.887,1.887,0,0,0,5.289,5.4a3.013,3.013,0,0,0-.578,1.926A3.136,3.136,0,0,0,5.27,9.246,1.769,1.769,0,0,0,6.766,10Z" transform="translate(855 2826)" fill="#12263f"/>
    <path id="Trazado_737542" data-name="Trazado 737542" d="M7.211,15H5.758V5.367L2.844,6.438V5.125L6.984,3.57h.227Zm11.367-4.852a6.61,6.61,0,0,1-.867,3.773A3.084,3.084,0,0,1,15,15.156a3.107,3.107,0,0,1-2.7-1.207,6.274,6.274,0,0,1-.906-3.605V8.414a6.463,6.463,0,0,1,.867-3.727,3.108,3.108,0,0,1,2.719-1.219,3.136,3.136,0,0,1,2.7,1.176,6.237,6.237,0,0,1,.891,3.629ZM17.133,8.172A5.3,5.3,0,0,0,16.617,5.5a1.775,1.775,0,0,0-1.633-.84,1.751,1.751,0,0,0-1.617.836,5.171,5.171,0,0,0-.523,2.57v2.313a5.381,5.381,0,0,0,.535,2.723A1.771,1.771,0,0,0,15,13.977a1.747,1.747,0,0,0,1.59-.828,5.186,5.186,0,0,0,.543-2.609Z" transform="translate(886 2826)" fill="#12263f"/>
    <path id="Trazado_737543" data-name="Trazado 737543" d="M57.066,13.406H62.23V15H55.09V3.625h1.977Zm10.219,1.75a3.928,3.928,0,0,1-2.926-1.137,4.124,4.124,0,0,1-1.121-3.027v-.234A5.072,5.072,0,0,1,63.727,8.5,3.716,3.716,0,0,1,65.1,6.945a3.625,3.625,0,0,1,1.969-.555,3.318,3.318,0,0,1,2.668,1.1,4.658,4.658,0,0,1,.941,3.117v.766H65.152a2.539,2.539,0,0,0,.7,1.656,2.1,2.1,0,0,0,1.543.609,2.571,2.571,0,0,0,2.125-1.055l1.023.977a3.418,3.418,0,0,1-1.355,1.176A4.244,4.244,0,0,1,67.285,15.156Zm-.227-7.242a1.6,1.6,0,0,0-1.262.547,2.835,2.835,0,0,0-.613,1.523H68.8V9.844A2.307,2.307,0,0,0,68.293,8.4,1.586,1.586,0,0,0,67.059,7.914Zm8.563,5.727a1.716,1.716,0,0,0,1.18-.414,1.415,1.415,0,0,0,.5-1.023H79.09a2.789,2.789,0,0,1-.492,1.473,3.228,3.228,0,0,1-1.25,1.082,3.725,3.725,0,0,1-1.7.4,3.6,3.6,0,0,1-2.812-1.148,4.555,4.555,0,0,1-1.039-3.172v-.2a4.479,4.479,0,0,1,1.031-3.09,3.571,3.571,0,0,1,2.813-1.16,3.473,3.473,0,0,1,2.457.879,3.148,3.148,0,0,1,1,2.309H77.3a1.738,1.738,0,0,0-.5-1.2,1.6,1.6,0,0,0-1.184-.469,1.671,1.671,0,0,0-1.422.668,3.408,3.408,0,0,0-.508,2.027v.3a3.465,3.465,0,0,0,.5,2.051A1.669,1.669,0,0,0,75.621,13.641ZM82.9,4.492V6.547h1.492V7.953H82.9v4.719a1.039,1.039,0,0,0,.191.7.888.888,0,0,0,.684.215,2.925,2.925,0,0,0,.664-.078v1.469a4.676,4.676,0,0,1-1.25.18Q81,15.156,81,12.742V7.953H79.613V6.547H81V4.492Zm8.063,9.68a2.944,2.944,0,0,1-2.375.984,2.624,2.624,0,0,1-2.082-.8,3.423,3.423,0,0,1-.707-2.328V6.547h1.9V12q0,1.609,1.336,1.609a1.876,1.876,0,0,0,1.867-.992V6.547h1.9V15H91.012Zm8.2-5.891a4.7,4.7,0,0,0-.773-.062,1.741,1.741,0,0,0-1.758,1V15h-1.9V6.547h1.813l.047.945a2.139,2.139,0,0,1,1.906-1.1,1.777,1.777,0,0,1,.672.109ZM105.176,15a2.93,2.93,0,0,1-.219-.789,3.193,3.193,0,0,1-4.3.219,2.325,2.325,0,0,1-.8-1.8,2.4,2.4,0,0,1,1-2.074,4.865,4.865,0,0,1,2.871-.723h1.164V9.281a1.481,1.481,0,0,0-.367-1.051,1.456,1.456,0,0,0-1.117-.395,1.672,1.672,0,0,0-1.062.324,1,1,0,0,0-.414.824h-1.9a2.107,2.107,0,0,1,.461-1.3,3.071,3.071,0,0,1,1.254-.949,4.4,4.4,0,0,1,1.77-.344,3.547,3.547,0,0,1,2.367.746,2.661,2.661,0,0,1,.906,2.1v3.813a4.321,4.321,0,0,0,.32,1.82V15Zm-2.086-1.367a2.159,2.159,0,0,0,1.059-.273,1.827,1.827,0,0,0,.746-.734V11.031h-1.023a2.8,2.8,0,0,0-1.586.367,1.189,1.189,0,0,0-.531,1.039,1.109,1.109,0,0,0,.363.871A1.407,1.407,0,0,0,103.09,13.633Zm10.43-.93a.861.861,0,0,0-.418-.773,4.445,4.445,0,0,0-1.387-.469,7.129,7.129,0,0,1-1.617-.516,2.158,2.158,0,0,1-1.422-1.992,2.25,2.25,0,0,1,.922-1.828,3.644,3.644,0,0,1,2.344-.734,3.792,3.792,0,0,1,2.449.75,2.38,2.38,0,0,1,.934,1.945h-1.9a1.17,1.17,0,0,0-.406-.91,1.557,1.557,0,0,0-1.078-.363,1.682,1.682,0,0,0-1.02.289.911.911,0,0,0-.395.773.769.769,0,0,0,.367.68,5.049,5.049,0,0,0,1.484.488,7.027,7.027,0,0,1,1.754.586,2.484,2.484,0,0,1,.945.816,2.082,2.082,0,0,1,.309,1.156,2.2,2.2,0,0,1-.945,1.848,4.031,4.031,0,0,1-2.477.707,4.371,4.371,0,0,1-1.852-.375,3.047,3.047,0,0,1-1.266-1.031,2.441,2.441,0,0,1-.453-1.414h1.844a1.338,1.338,0,0,0,.508,1.035,1.973,1.973,0,0,0,1.242.363,1.92,1.92,0,0,0,1.141-.285A.883.883,0,0,0,113.52,12.7Z" transform="translate(631 2794)" fill="#12263f"/>
    <path id="Trazado_736172" data-name="Trazado 736172" d="M3337.716-9063v102" transform="translate(-2956 11848.001)" fill="none" stroke="#b0c0d2" stroke-width="1"/>
    <path id="Trazado_736174" data-name="Trazado 736174" d="M3337.716-9063v642" transform="translate(-8148 -486.716) rotate(90)" fill="none" stroke="#b0c0d2" stroke-width="1"/>
    <path id="Trazado_736176" data-name="Trazado 736176" d="M3337.716-9063v642" transform="translate(-8148 -512.716) rotate(90)" fill="none" stroke="#b0c0d2" stroke-width="1"/>
    <path id="Trazado_736173" data-name="Trazado 736173" d="M3337.716-9063v102" transform="translate(-2749.431 11848.002)" fill="none" stroke="#b0c0d2" stroke-width="1"/>
    <path id="Trazado_736175" data-name="Trazado 736175" d="M3337.716-9063v62" transform="translate(-2719 11888.002)" fill="none" stroke="#b0c0d2" stroke-width="1"/>
    <path id="Trazado_736186" data-name="Trazado 736186" d="M3337.716-9063v36" transform="translate(-2778 11914)" fill="none" stroke="#b0c0d2" stroke-width="1"/>
    <path id="Trazado_736183" data-name="Trazado 736183" d="M3337.716-9063v62" transform="translate(-2598 11888.002)" fill="none" stroke="#b0c0d2" stroke-width="1"/>
    <path id="Trazado_736177" data-name="Trazado 736177" d="M3337.716-9063v62" transform="translate(-2688 11888.002)" fill="none" stroke="#b0c0d2" stroke-width="1"/>
    <path id="Trazado_736182" data-name="Trazado 736182" d="M3337.716-9063v62" transform="translate(-2567 11888.002)" fill="none" stroke="#b0c0d2" stroke-width="1"/>
    <path id="Trazado_736178" data-name="Trazado 736178" d="M3337.716-9063v62" transform="translate(-2659 11888.002)" fill="none" stroke="#b0c0d2" stroke-width="1"/>
    <path id="Trazado_736181" data-name="Trazado 736181" d="M3337.716-9063v62" transform="translate(-2531.716 11888.002)" fill="none" stroke="#b0c0d2" stroke-width="1"/>
    <path id="Trazado_736179" data-name="Trazado 736179" d="M3337.716-9063v62" transform="translate(-2629 11888.002)" fill="none" stroke="#b0c0d2" stroke-width="1"/>
    <path id="Trazado_736180" data-name="Trazado 736180" d="M3337.716-9063v62" transform="translate(-2497.716 11888.002)" fill="none" stroke="#b0c0d2" stroke-width="1"/>
    <path id="Trazado_736184" data-name="Trazado 736184" d="M3337.716-9063v62" transform="translate(-2458.716 11888.002)" fill="none" stroke="#b0c0d2" stroke-width="1"/>
  </g>
</svg>
