<svg xmlns="http://www.w3.org/2000/svg" xmlns:xlink="http://www.w3.org/1999/xlink" width="197" height="197" viewBox="0 0 197 197">
  <defs>
    <filter id="Trazado_113939" x="0" y="0" width="197" height="197" filterUnits="userSpaceOnUse">
      <feOffset input="SourceAlpha"/>
      <feGaussianBlur stdDeviation="20" result="blur"/>
      <feFlood flood-color="#402d27"/>
      <feComposite operator="in" in2="blur"/>
      <feComposite in="SourceGraphic"/>
    </filter>
    <clipPath id="clip-path">
      <rect id="Rect치ngulo_348284" data-name="Rect치ngulo 348284" width="60.652" height="64.7" fill="none"/>
    </clipPath>
    <clipPath id="clip-path-3">
      <rect id="Rect치ngulo_348282" data-name="Rect치ngulo 348282" width="14.783" height="23.711" fill="none"/>
    </clipPath>
  </defs>
  <g id="Grupo_1023213" data-name="Grupo 1023213" transform="translate(-1173.333 -124.355)">
    <g transform="matrix(1, 0, 0, 1, 1173.33, 124.36)" filter="url(#Trazado_113939)">
      <path id="Trazado_113939-2" data-name="Trazado 113939" d="M38.5,0A38.5,38.5,0,1,1,0,38.5,38.5,38.5,0,0,1,38.5,0Z" transform="translate(60 60)" fill="#ea526f"/>
    </g>
    <g id="Grupo_1014979" data-name="Grupo 1014979" transform="matrix(0.985, -0.174, 0.174, 0.985, 1236.291, 196.969)">
      <g id="Grupo_1014984" data-name="Grupo 1014984" clip-path="url(#clip-path)">
        <g id="Grupo_1014983" data-name="Grupo 1014983">
          <g id="Grupo_1014982" data-name="Grupo 1014982" clip-path="url(#clip-path)">
            <path id="Trazado_737238" data-name="Trazado 737238" d="M70.241,260.1h0a1.863,1.863,0,0,1-1.157-2.366l1.982-5.772a1.862,1.862,0,1,1,3.523,1.209l-1.981,5.772a1.862,1.862,0,0,1-2.366,1.157" transform="translate(-53.793 -195.497)" fill="#364a44"/>
            <path id="Trazado_737239" data-name="Trazado 737239" d="M178.563,260.1h0a1.863,1.863,0,0,0,1.157-2.366l-1.982-5.772a1.862,1.862,0,1,0-3.523,1.209l1.982,5.772a1.862,1.862,0,0,0,2.366,1.157" transform="translate(-135.776 -195.497)" fill="#364a44"/>
            <path id="Trazado_737240" data-name="Trazado 737240" d="M4.194,4.206h0a1.63,1.63,0,0,0,0,2.306l11.62,11.62a.658.658,0,0,0,.931,0l1.375-1.375a.658.658,0,0,0,0-.931L6.5,4.206a1.63,1.63,0,0,0-2.306,0" transform="translate(-2.898 -2.907)" fill="#364a44"/>
            <path id="Trazado_737241" data-name="Trazado 737241" d="M15.4,2.449,2.449,15.4a8.373,8.373,0,0,1,0-11.839L3.564,2.451a8.374,8.374,0,0,1,11.839,0" transform="translate(0 0.001)" fill="#efb860"/>
            <path id="Trazado_737242" data-name="Trazado 737242" d="M5.625,37.717,2.449,40.893A8.365,8.365,0,0,1,.318,32.686a7.808,7.808,0,0,0,5.307,5.031" transform="translate(0 -25.489)" fill="#e0a341"/>
            <path id="Trazado_737243" data-name="Trazado 737243" d="M213.131,4.206h0a1.631,1.631,0,0,1,0,2.306l-11.62,11.62a.658.658,0,0,1-.931,0l-1.375-1.375a.658.658,0,0,1,0-.931l11.62-11.62a1.63,1.63,0,0,1,2.306,0" transform="translate(-155.192 -2.907)" fill="#364a44"/>
            <path id="Trazado_737244" data-name="Trazado 737244" d="M199.062,2.449,212.016,15.4a8.373,8.373,0,0,0,0-11.839L210.9,2.451a8.374,8.374,0,0,0-11.839,0" transform="translate(-155.23 0.001)" fill="#efb860"/>
            <path id="Trazado_737245" data-name="Trazado 737245" d="M243.47,37.717l3.176,3.176a8.365,8.365,0,0,0,2.131-8.207,7.809,7.809,0,0,1-5.307,5.031" transform="translate(-189.86 -25.489)" fill="#e0a341"/>
            <path id="Trazado_737246" data-name="Trazado 737246" d="M65.068,54.5A27.323,27.323,0,1,0,37.745,81.828,27.323,27.323,0,0,0,65.068,54.5" transform="translate(-8.127 -21.197)" fill="#546863"/>
            <path id="Trazado_737247" data-name="Trazado 737247" d="M71.631,63.651a24.74,24.74,0,1,0-24.74,24.74,24.74,24.74,0,0,0,24.74-24.74" transform="translate(-17.274 -30.343)" fill="#fff"/>
            <path id="Trazado_737248" data-name="Trazado 737248" d="M74.267,67.316a23.7,23.7,0,1,1-3.125-11.769,23.706,23.706,0,0,1,3.125,11.769" transform="translate(-20.944 -34.007)" fill="#f4d070"/>
            <path id="Trazado_737249" data-name="Trazado 737249" d="M158.213,109.587H134.507l20.581-11.769a23.6,23.6,0,0,1,3.125,11.769" transform="translate(-104.89 -76.279)" fill="#ecbf47"/>
            <path id="Trazado_737250" data-name="Trazado 737250" d="M131.651,54.894a1.124,1.124,0,1,0-1.124,1.124,1.124,1.124,0,0,0,1.124-1.124" transform="translate(-100.909 -41.93)" fill="#364a44"/>
            <path id="Trazado_737251" data-name="Trazado 737251" d="M131.651,239.682a1.124,1.124,0,1,0-1.124,1.124,1.124,1.124,0,0,0,1.124-1.124" transform="translate(-100.909 -186.029)" fill="#364a44"/>
            <path id="Trazado_737252" data-name="Trazado 737252" d="M222.921,148.412a1.124,1.124,0,1,0-1.124-1.124,1.124,1.124,0,0,0,1.124,1.124" transform="translate(-172.959 -113.98)" fill="#364a44"/>
            <path id="Trazado_737253" data-name="Trazado 737253" d="M38.133,148.412a1.124,1.124,0,1,0-1.124-1.124,1.124,1.124,0,0,0,1.124,1.124" transform="translate(-28.86 -113.98)" fill="#364a44"/>
            <path id="Trazado_737254" data-name="Trazado 737254" d="M85.3,66.71a1.124,1.124,0,1,0-.412,1.536A1.124,1.124,0,0,0,85.3,66.71" transform="translate(-64.885 -51.582)" fill="#364a44"/>
            <path id="Trazado_737255" data-name="Trazado 737255" d="M177.7,226.741a1.124,1.124,0,1,0-.412,1.536,1.124,1.124,0,0,0,.412-1.536" transform="translate(-136.933 -176.376)" fill="#364a44"/>
            <path id="Trazado_737256" data-name="Trazado 737256" d="M211.1,102.064a1.124,1.124,0,1,0-1.536-.412,1.124,1.124,0,0,0,1.536.412" transform="translate(-163.305 -77.954)" fill="#364a44"/>
            <path id="Trazado_737257" data-name="Trazado 737257" d="M51.073,194.458a1.124,1.124,0,1,0-1.536-.412,1.124,1.124,0,0,0,1.536.412" transform="translate(-38.512 -150.004)" fill="#364a44"/>
            <path id="Trazado_737258" data-name="Trazado 737258" d="M51.073,100.117a1.124,1.124,0,1,0,.412,1.536,1.124,1.124,0,0,0-.412-1.536" transform="translate(-38.512 -77.954)" fill="#364a44"/>
            <path id="Trazado_737259" data-name="Trazado 737259" d="M211.1,192.511a1.124,1.124,0,1,0,.412,1.536,1.124,1.124,0,0,0-.412-1.536" transform="translate(-163.305 -150.004)" fill="#364a44"/>
            <path id="Trazado_737260" data-name="Trazado 737260" d="M177.7,67.834a1.124,1.124,0,1,0-1.536.412,1.124,1.124,0,0,0,1.536-.412" transform="translate(-136.933 -51.582)" fill="#364a44"/>
            <path id="Trazado_737261" data-name="Trazado 737261" d="M85.3,227.865a1.124,1.124,0,1,0-1.536.412,1.124,1.124,0,0,0,1.536-.412" transform="translate(-64.885 -176.376)" fill="#364a44"/>
            <path id="Trazado_737262" data-name="Trazado 737262" d="M121.22,132.752a5.229,5.229,0,1,0-5.229,5.229,5.229,5.229,0,0,0,5.229-5.229" transform="translate(-86.373 -99.443)" fill="#efb860"/>
            <path id="Trazado_737263" data-name="Trazado 737263" d="M125.746,139.059a3.448,3.448,0,1,0-3.448,3.448,3.448,3.448,0,0,0,3.448-3.448" transform="translate(-92.68 -105.75)" fill="#364a44"/>
            <path id="Trazado_737264" data-name="Trazado 737264" d="M143.464,91.176H131.507V74.021a.661.661,0,0,1,1.321,0V89.855h10.636a.661.661,0,0,1,0,1.321" transform="translate(-102.55 -57.207)" fill="#3d524c"/>
            <path id="Trazado_737265" data-name="Trazado 737265" d="M257.541,90.693a.457.457,0,0,0-.22.608,32.484,32.484,0,0,1,3.039,13.52.457.457,0,1,0,.913.037,32.855,32.855,0,0,0-3.125-13.945.457.457,0,0,0-.608-.22" transform="translate(-200.627 -70.689)" fill="#546863"/>
            <path id="Trazado_737266" data-name="Trazado 737266" d="M254.02,90.029l.7-1.927,1.927.7" transform="translate(-198.087 -68.702)" fill="#364a44"/>
            <g id="Grupo_1014981" data-name="Grupo 1014981" transform="translate(12.134 17.866)" style="mix-blend-mode: soft-light;isolation: isolate">
              <g id="Grupo_1014980" data-name="Grupo 1014980">
                <g id="Grupo_1014979-2" data-name="Grupo 1014979" clip-path="url(#clip-path-3)">
                  <path id="Trazado_737267" data-name="Trazado 737267" d="M65.261,93.63c2.194-6.169,6.2-8.345,3.972-11.17-3.088-3.908-11.161,1.513-13.355,7.682s.5,15.473,5.41,14.658c4.706-.781,1.778-5,3.972-11.17" transform="translate(-55.106 -81.139)" fill="#fff"/>
                </g>
              </g>
            </g>
            <path id="Trazado_737268" data-name="Trazado 737268" d="M130.14,145.182a1.719,1.719,0,1,0-1.719,1.719,1.719,1.719,0,0,0,1.719-1.719" transform="translate(-98.803 -111.874)" fill="#ffa143"/>
          </g>
        </g>
      </g>
    </g>
  </g>
</svg>
