<svg xmlns="http://www.w3.org/2000/svg" xmlns:xlink="http://www.w3.org/1999/xlink" width="85" height="93" viewBox="0 0 85 93">
  <defs>
    <clipPath id="clip-path">
      <path id="path9861" d="M0-682.665H66.757v66.757H0Z" transform="translate(0 682.665)"/>
    </clipPath>
  </defs>
  <g id="Grupo_985912" data-name="Grupo 985912" transform="translate(-800 -1421)">
    <rect id="Rectángulo_33954" data-name="Rectángulo 33954" width="85" height="93" rx="9" transform="translate(800 1421)" fill="#5e8098"/>
    <g id="g9855" transform="translate(809 2116.665)">
      <g id="g9857" transform="translate(0 -682.665)">
        <g id="g9859" transform="translate(0 0)" clip-path="url(#clip-path)">
          <g id="g9865" transform="translate(31.187 7.106)">
            <path id="path9867" d="M-20.246-67.881a20.742,20.742,0,0,1,2.194.118v-7.476H-22.44v7.476a20.743,20.743,0,0,1,2.194-.118" transform="translate(22.44 75.238)" fill="#f4b537"/>
          </g>
          <g id="g9869" transform="translate(31.187 7.106)">
            <path id="path9871" d="M-29.268,0H-32.44V7.476a20.743,20.743,0,0,1,2.194-.118c.328,0,.653.009.978.025Z" transform="translate(32.44)" fill="#e59d1f"/>
          </g>
          <g id="g9873" transform="translate(43.917 11.606)">
            <path id="path9875" d="M-35.229-67.11l2.932-5.155-3.843-2.119-2.907,5.11a25.877,25.877,0,0,1,3.818,2.164" transform="translate(39.048 74.384)" fill="#f4b537"/>
          </g>
          <g id="g9877" transform="translate(43.917 11.606)">
            <path id="path9879" d="M-35-38.325l1.588-2.79-2.473-1.364-2.907,5.11A25.865,25.865,0,0,1-34.971-35.2l.834-1.466q-.213-.114-.429-.224A1.032,1.032,0,0,1-35-38.325" transform="translate(38.789 42.479)" fill="#e59d1f"/>
          </g>
          <g id="g9881" transform="translate(16.095 11.606)">
            <path id="path9883" d="M-62.283-47.147l-2.907-5.11-3.843,2.119,2.932,5.155a25.865,25.865,0,0,1,3.818-2.164" transform="translate(69.033 52.257)" fill="#f4b537"/>
          </g>
          <g id="g9885" transform="translate(16.095 11.606)">
            <path id="path9887" d="M-34.174-24.879a.656.656,0,0,1,.253-.9l.692-.381-.806-1.416-3.843,2.119,2.932,5.155a25.906,25.906,0,0,1,2.513-1.517Z" transform="translate(37.879 27.576)" fill="#e59d1f"/>
          </g>
          <g id="g9889" transform="translate(7.479 13.973)">
            <path id="path9891" d="M-477.952-238.976a25.9,25.9,0,0,1-25.9,25.9,25.9,25.9,0,0,1-25.9-25.9,25.9,25.9,0,0,1,25.9-25.9,25.9,25.9,0,0,1,25.9,25.9" transform="translate(529.756 264.878)" fill="#54a0ff"/>
          </g>
          <g id="g9893" transform="translate(7.479 13.973)">
            <path id="path9895" d="M-36.088-238.976A25.9,25.9,0,0,1-12.142-264.8q-.968-.072-1.956-.073a25.9,25.9,0,0,0-25.9,25.9,25.9,25.9,0,0,0,25.9,25.9q.987,0,1.956-.073a25.9,25.9,0,0,1-23.946-25.829" transform="translate(40 264.878)" fill="#338def"/>
          </g>
          <g id="g9897" transform="translate(11.878 18.371)">
            <path id="path9899" d="M-396.789-198.395a21.5,21.5,0,0,1-21.5,21.5,21.5,21.5,0,0,1-21.5-21.5,21.5,21.5,0,0,1,21.5-21.5,21.5,21.5,0,0,1,21.5,21.5" transform="translate(439.796 219.898)" fill="#e4eaf8"/>
          </g>
          <g id="g9901" transform="translate(11.878 18.371)">
            <path id="path9903" d="M-36.088-198.395A21.5,21.5,0,0,1-16.54-219.809c-.644-.058-1.3-.09-1.956-.09a21.5,21.5,0,0,0-21.5,21.5,21.5,21.5,0,0,0,21.5,21.5c.659,0,1.311-.031,1.956-.09a21.5,21.5,0,0,1-19.548-21.414" transform="translate(40 219.898)" fill="#d8dce5"/>
          </g>
          <g id="g9905" transform="translate(33.381 18.371)">
            <path id="path9907" d="M-27.379-198.395H-8.843a21.5,21.5,0,0,0-21.5-21.5v18.406a2.831,2.831,0,0,1,2.968,3.1" transform="translate(30.347 219.898)" fill="#ff6b6b"/>
          </g>
          <g id="g9909" transform="translate(33.381 18.371)">
            <path id="path9911" d="M-36.088-3.284A21.624,21.624,0,0,0-40-3.64V14.766a2.831,2.831,0,0,1,2.968,3.1h.944Z" transform="translate(40 3.64)" fill="#ee5253"/>
          </g>
          <g id="g9913" transform="translate(30.023 36.516)">
            <path id="path9915" d="M-61.976-30.988a3.359,3.359,0,0,1-3.359,3.359,3.359,3.359,0,0,1-3.359-3.359,3.359,3.359,0,0,1,3.359-3.359,3.359,3.359,0,0,1,3.359,3.359" transform="translate(68.693 34.347)" fill="#576574"/>
          </g>
          <g id="g9917" transform="translate(30.023 36.516)">
            <path id="path9919" d="M-36.088-30.988a3.353,3.353,0,0,1,1.4-2.73,3.343,3.343,0,0,0-1.956-.629A3.359,3.359,0,0,0-40-30.988a3.359,3.359,0,0,0,3.359,3.359,3.343,3.343,0,0,0,1.956-.629,3.353,3.353,0,0,1-1.4-2.73" transform="translate(40 34.347)" fill="#3e4b5a"/>
          </g>
          <g id="g9921" transform="translate(24.234 0.98)">
            <path id="path9923" d="M-152.443,0h-14.751a1.778,1.778,0,0,0-1.772,1.772V5.411a1.778,1.778,0,0,0,1.772,1.772h14.751a1.778,1.778,0,0,0,1.772-1.772V1.772A1.778,1.778,0,0,0-152.443,0" transform="translate(168.966)" fill="#feca57"/>
          </g>
          <g id="g9925" transform="translate(24.234 2.616)">
            <path id="path9927" d="M-152.443-15.095h-14.751a1.777,1.777,0,0,1-1.765-1.636c0,.045-.007.09-.007.136v3.639a1.778,1.778,0,0,0,1.772,1.772h14.751a1.778,1.778,0,0,0,1.772-1.772v-3.639c0-.046,0-.091-.007-.136a1.777,1.777,0,0,1-1.765,1.636" transform="translate(168.966 16.731)" fill="#f4b537"/>
          </g>
          <g id="g9929" transform="translate(12.444 6.346)">
            <path id="path9931" d="M-51.5-.82-56.71,2.053a.715.715,0,0,0-.281.971l2.168,3.933a.715.715,0,0,0,.971.281l5.212-2.873a.715.715,0,0,0,.281-.971L-50.527-.539A.715.715,0,0,0-51.5-.82" transform="translate(57.08 0.909)" fill="#feca57"/>
          </g>
          <g id="g9933" transform="translate(12.444 6.346)">
            <path id="path9935" d="M-36.909-36.285a.715.715,0,0,1,.281-.971l2.838-1.565-.567-1.028a.715.715,0,0,0-.971-.281l-5.212,2.873a.715.715,0,0,0-.281.971l2.168,3.933a.715.715,0,0,0,.971.281l2.374-1.309Z" transform="translate(40.909 40.218)" fill="#f4b537"/>
          </g>
          <g id="g9937" transform="translate(45.51 6.346)">
            <path id="path9939" d="M-29.78-.82l5.212,2.873a.715.715,0,0,1,.281.971l-2.168,3.933a.715.715,0,0,1-.971.281l-5.212-2.873a.715.715,0,0,1-.281-.971l2.168-3.933A.715.715,0,0,1-29.78-.82" transform="translate(33.008 0.909)" fill="#feca57"/>
          </g>
          <g id="g9941" transform="translate(45.51 6.346)">
            <path id="path9943" d="M-39.5-48.653a.715.715,0,0,1-.281-.971l1.6-2.9-2.374-1.309a.715.715,0,0,0-.971.281l-2.168,3.933a.715.715,0,0,0,.281.971L-38.2-45.78a.715.715,0,0,0,.971-.281l.567-1.028Z" transform="translate(43.781 53.926)" fill="#f4b537"/>
          </g>
          <g id="g9945" transform="translate(11.875 18.371)">
            <path id="path9947" d="M-396.789-198.395a21.5,21.5,0,0,1-21.5,21.5,21.5,21.5,0,0,1-21.5-21.5,21.5,21.5,0,0,1,21.5-21.5A21.5,21.5,0,0,1-396.789-198.395Z" transform="translate(439.796 219.898)" fill="none" stroke="#000" stroke-linecap="round" stroke-linejoin="round" stroke-miterlimit="10" stroke-width="1.5"/>
          </g>
          <g id="g9949" transform="translate(30.02 36.516)">
            <path id="path9951" d="M-61.976-30.988a3.359,3.359,0,0,1-3.359,3.359,3.359,3.359,0,0,1-3.359-3.359,3.359,3.359,0,0,1,3.359-3.359A3.359,3.359,0,0,1-61.976-30.988Z" transform="translate(68.693 34.347)" fill="none" stroke="#000" stroke-linecap="round" stroke-linejoin="round" stroke-miterlimit="10" stroke-width="1.5"/>
          </g>
          <g id="g9953" transform="translate(33.378 18.371)">
            <path id="path9955" d="M-30.988-198.395h18.145a21.5,21.5,0,0,0-21.5-21.5v18.145A3.359,3.359,0,0,1-30.988-198.395Z" transform="translate(34.347 219.898)" fill="none" stroke="#000" stroke-linecap="round" stroke-linejoin="round" stroke-miterlimit="10" stroke-width="1.5"/>
          </g>
          <g id="g9957" transform="translate(33.378 18.371)">
            <path id="path9959" d="M0-25.28v-2.74" transform="translate(0 28.02)" fill="none" stroke="#000" stroke-linecap="round" stroke-linejoin="round" stroke-miterlimit="10" stroke-width="1.5"/>
          </g>
          <g id="g9961" transform="translate(33.378 58.638)">
            <path id="path9963" d="M0-25.28v-2.74" transform="translate(0 28.02)" fill="none" stroke="#000" stroke-linecap="round" stroke-linejoin="round" stroke-miterlimit="10" stroke-width="1.5"/>
          </g>
          <g id="g9965" transform="translate(22.627 21.252)">
            <path id="path9967" d="M-12.641-21.892l-1.37-2.373" transform="translate(14.011 24.265)" fill="none" stroke="#000" stroke-linecap="round" stroke-linejoin="round" stroke-miterlimit="10" stroke-width="1.5"/>
          </g>
          <g id="g9969" transform="translate(42.76 56.125)">
            <path id="path9971" d="M-12.639-21.892l-1.37-2.373" transform="translate(14.009 24.265)" fill="none" stroke="#000" stroke-linecap="round" stroke-linejoin="round" stroke-miterlimit="10" stroke-width="1.5"/>
          </g>
          <g id="g9973" transform="translate(14.756 29.123)">
            <path id="path9975" d="M-21.892-12.639l-2.373-1.37" transform="translate(24.265 14.009)" fill="none" stroke="#000" stroke-linecap="round" stroke-linejoin="round" stroke-miterlimit="10" stroke-width="1.5"/>
          </g>
          <g id="g9977" transform="translate(49.628 49.257)">
            <path id="path9979" d="M-21.892-12.639l-2.373-1.37" transform="translate(24.265 14.009)" fill="none" stroke="#000" stroke-linecap="round" stroke-linejoin="round" stroke-miterlimit="10" stroke-width="1.5"/>
          </g>
          <g id="g9981" transform="translate(11.875 39.875)">
            <path id="path9983" d="M-25.28,0h-2.74" transform="translate(28.02)" fill="none" stroke="#000" stroke-linecap="round" stroke-linejoin="round" stroke-miterlimit="10" stroke-width="1.5"/>
          </g>
          <g id="g9985" transform="translate(52.142 39.875)">
            <path id="path9987" d="M-25.28,0h-2.74" transform="translate(28.02)" fill="none" stroke="#000" stroke-linecap="round" stroke-linejoin="round" stroke-miterlimit="10" stroke-width="1.5"/>
          </g>
          <g id="g9989" transform="translate(14.756 49.257)">
            <path id="path9991" d="M-21.892,0l-2.373,1.37" transform="translate(24.265)" fill="none" stroke="#000" stroke-linecap="round" stroke-linejoin="round" stroke-miterlimit="10" stroke-width="1.5"/>
          </g>
          <g id="g9993" transform="translate(49.628 29.123)">
            <path id="path9995" d="M-21.892,0l-2.373,1.37" transform="translate(24.265)" fill="none" stroke="#000" stroke-linecap="round" stroke-linejoin="round" stroke-miterlimit="10" stroke-width="1.5"/>
          </g>
          <g id="g9997" transform="translate(22.627 56.124)">
            <path id="path9999" d="M-12.641,0l-1.37,2.373" transform="translate(14.011)" fill="none" stroke="#000" stroke-linecap="round" stroke-linejoin="round" stroke-miterlimit="10" stroke-width="1.5"/>
          </g>
          <g id="g10001" transform="translate(42.76 21.252)">
            <path id="path10003" d="M-12.639,0l-1.37,2.373" transform="translate(14.009)" fill="none" stroke="#000" stroke-linecap="round" stroke-linejoin="round" stroke-miterlimit="10" stroke-width="1.5"/>
          </g>
          <g id="g10005" transform="translate(12.441 6.346)">
            <path id="path10007" d="M-51.5-.82l-5.212,2.873a.714.714,0,0,0-.281.971l2.168,3.933a.715.715,0,0,0,.971.281l5.212-2.873a.715.715,0,0,0,.281-.971L-50.528-.539A.715.715,0,0,0-51.5-.82Z" transform="translate(57.081 0.909)" fill="none" stroke="#000" stroke-linecap="round" stroke-linejoin="round" stroke-miterlimit="10" stroke-width="1.5"/>
          </g>
          <g id="g10009" transform="translate(45.507 6.346)">
            <path id="path10011" d="M-29.779-.82l5.212,2.873a.714.714,0,0,1,.281.971l-2.168,3.933a.715.715,0,0,1-.971.281l-5.212-2.873a.715.715,0,0,1-.281-.971L-30.75-.539A.715.715,0,0,1-29.779-.82Z" transform="translate(33.007 0.909)" fill="none" stroke="#000" stroke-linecap="round" stroke-linejoin="round" stroke-miterlimit="10" stroke-width="1.5"/>
          </g>
          <g id="g10013" transform="translate(31.184 8.163)">
            <path id="path10015" d="M-20.244-53.6c.739,0,1.471.033,2.194.093v-5.9h-4.388v5.9C-21.715-53.565-20.984-53.6-20.244-53.6Z" transform="translate(22.439 59.407)" fill="none" stroke="#000" stroke-linecap="round" stroke-linejoin="round" stroke-miterlimit="10" stroke-width="1.5"/>
          </g>
          <g id="g10017" transform="translate(44.175 11.997)">
            <path id="path10019" d="M-35.229-59.892l2.411-4.373-3.843-2.119-2.386,4.328A25.863,25.863,0,0,1-35.229-59.892Z" transform="translate(39.048 66.384)" fill="none" stroke="#000" stroke-linecap="round" stroke-linejoin="round" stroke-miterlimit="10" stroke-width="1.5"/>
          </g>
          <g id="g10021" transform="translate(16.353 11.997)">
            <path id="path10023" d="M-57.471-39.929l-2.386-4.328L-63.7-42.139l2.411,4.373A25.852,25.852,0,0,1-57.471-39.929Z" transform="translate(63.7 44.257)" fill="none" stroke="#000" stroke-linecap="round" stroke-linejoin="round" stroke-miterlimit="10" stroke-width="1.5"/>
          </g>
          <g id="g10025" transform="translate(24.231 0.98)">
            <path id="path10027" d="M-63.346,0H-68.44a1.778,1.778,0,0,0-1.772,1.772V5.411A1.778,1.778,0,0,0-68.44,7.184h14.751a1.778,1.778,0,0,0,1.772-1.772V1.772A1.778,1.778,0,0,0-53.689,0h-5.094" transform="translate(70.212)" fill="none" stroke="#000" stroke-linecap="round" stroke-linejoin="round" stroke-miterlimit="10" stroke-width="1.5"/>
          </g>
          <g id="g10029" transform="translate(7.476 13.973)">
            <path id="path10031" d="M-477.019-217.924a25.9,25.9,0,0,0-25.8-23.62,25.9,25.9,0,0,0-25.9,25.9,25.9,25.9,0,0,0,25.9,25.9,25.9,25.9,0,0,0,25.8-23.62" transform="translate(528.721 241.545)" fill="none" stroke="#000" stroke-linecap="round" stroke-linejoin="round" stroke-miterlimit="10" stroke-width="1.5"/>
          </g>
        </g>
      </g>
    </g>
  </g>
</svg>
