<svg xmlns="http://www.w3.org/2000/svg" xmlns:xlink="http://www.w3.org/1999/xlink" width="85" height="91" viewBox="0 0 85 91">
  <defs>
    <clipPath id="clip-path">
      <path id="path6903" d="M0-682.665H58.491v58.491H0Z" transform="translate(0 682.665)"/>
    </clipPath>
  </defs>
  <g id="Grupo_1014509" data-name="Grupo 1014509" transform="translate(-758 -2128)">
    <g id="Grupo_1014505" data-name="Grupo 1014505" transform="translate(130 -413)">
      <rect id="Rectángulo_33822" data-name="Rectángulo 33822" width="85" height="91" rx="11" transform="translate(628 2541)" fill="#ff6e33"/>
      <g id="g6897" transform="translate(641 2557)">
        <g id="g6899">
          <g id="g6901" clip-path="url(#clip-path)">
            <g id="g6907" transform="translate(37.781 6.408)">
              <path id="path6909" d="M-29.029,0l-2.72,7.74a22.208,22.208,0,0,1,4.21.949,22.342,22.342,0,0,1,3.951,1.739l2.72-7.74Z" transform="translate(31.749)" fill="#eff6ff" fill-rule="evenodd"/>
            </g>
            <g id="g6911" transform="translate(37.151 1.4)">
              <path id="path6913" d="M-11.423-9.276-12.43-6.219a1.267,1.267,0,0,0,.8,1.6l1.936.635L-1.532-1.3.4-.662A1.269,1.269,0,0,0,2-1.468L3-4.525a1.269,1.269,0,0,0-.806-1.6L-9.826-10.082a1.269,1.269,0,0,0-1.6.806" transform="translate(12.493 10.145)" fill="#375e7d" fill-rule="evenodd"/>
            </g>
            <g id="g6915" transform="translate(47.066 4.442)">
              <path id="path6917" d="M-31.793-68.738a1.269,1.269,0,0,0,1.6-.806l1.007-3.057A1.269,1.269,0,0,0-30-74.2l-2.979-.981a1.269,1.269,0,0,1,.806,1.6l-1.007,3.057a1.269,1.269,0,0,1-1.6.806h.007l1.039.343Z" transform="translate(34.772 75.18)" fill="#2b4d66" fill-rule="evenodd"/>
            </g>
            <g id="g6919" transform="translate(13.294 12.748)">
              <path id="path6921" d="M-162.58-461.265a22.166,22.166,0,0,0,27.986-14.12,22.173,22.173,0,0,0-10.169-26.248,22.331,22.331,0,0,0-3.951-1.739,22.212,22.212,0,0,0-4.21-.949,22.144,22.144,0,0,0-13.88,2.85,22.073,22.073,0,0,0-9.893,12.219,22.164,22.164,0,0,0,14.116,27.987" transform="translate(177.816 504.49)" fill="#375e7d" fill-rule="evenodd"/>
            </g>
            <g id="g6923" transform="translate(18.186 17.642)">
              <path id="path6925" d="M-242.039-9.306a17.274,17.274,0,0,0-21.811,11,17.272,17.272,0,0,0,11,21.808,17.272,17.272,0,0,0,21.811-11l.01-.032A17.273,17.273,0,0,0-242.039-9.306" transform="translate(264.721 10.178)" fill="#eff6ff" fill-rule="evenodd"/>
            </g>
            <g id="g6927" transform="translate(36.226 18.514)">
              <path id="path6929" d="M-49.533,0l-4.5,13.667a2.945,2.945,0,0,0,1.817,3.6l13.7,4.511A17.273,17.273,0,0,0-49.533,0" transform="translate(54.174)" fill="#eb5468" fill-rule="evenodd"/>
            </g>
            <g id="g6931" transform="translate(32.621 32.037)">
              <path id="path6933" d="M-39.962-1.534a2.852,2.852,0,0,0-3.6,1.817,2.852,2.852,0,0,0,1.817,3.6,2.852,2.852,0,0,0,3.6-1.817,2.852,2.852,0,0,0-1.817-3.6" transform="translate(43.707 1.677)" fill="#ffd772" fill-rule="evenodd"/>
            </g>
            <g id="g6935" transform="translate(44.025 19.913)">
              <path id="path6937" d="M-83.838-217.478a17.282,17.282,0,0,0-7.856-20.38,37.552,37.552,0,0,1,1.9,11.921,38.505,38.505,0,0,1-.518,6.328Z" transform="translate(91.694 237.858)" fill="#e5384f" fill-rule="evenodd"/>
            </g>
            <g id="g6939" transform="translate(35.362 13.481)">
              <path id="path6941" d="M-225.731-302.769A22.173,22.173,0,0,0-235.9-329.017a21.831,21.831,0,0,0-2.86-1.347c-.36-.139-.722-.269-1.091-.392-.434-.142-.868-.272-1.305-.385a33.157,33.157,0,0,1,2.934,6.432,17.282,17.282,0,0,1,7.856,20.38c0,.01-.007.019-.01.032a17.256,17.256,0,0,1-11.616,11.192,27.159,27.159,0,0,1-4.893,5.573,22.171,22.171,0,0,0,21.153-15.237" transform="translate(246.885 331.142)" fill="#2b4d66" fill-rule="evenodd"/>
            </g>
            <g id="g6943" transform="translate(40.255 38.162)">
              <path id="path6945" d="M0-142.52a17.256,17.256,0,0,0,11.616-11.192l.01-.032-6.47-2.131a35.3,35.3,0,0,1-3.225,10.03A31.521,31.521,0,0,1,0-142.52" transform="translate(0 155.876)" fill="#d9eeff" fill-rule="evenodd"/>
            </g>
            <g id="g6947" transform="translate(43.487 9.265)">
              <path id="path6949" d="M-30.515-67.666l1.765-5.36-1.046-.343-1.933-.638-1.645,4.994a21.816,21.816,0,0,1,2.86,1.347" transform="translate(33.375 74.006)" fill="#d9eeff" fill-rule="evenodd"/>
            </g>
            <g id="g6951" transform="translate(30.08 48.467)">
              <path id="path6953" d="M0-29.893l.923-2.8" transform="translate(0 32.695)" fill="none" stroke="#000" stroke-linecap="round" stroke-linejoin="round" stroke-miterlimit="10" stroke-width="2"/>
            </g>
            <g id="g6955" transform="translate(19.099 29.495)">
              <path id="path6957" d="M0,0,2.8.923" fill="none" stroke="#000" stroke-linecap="round" stroke-linejoin="round" stroke-miterlimit="10" stroke-width="2"/>
            </g>
            <g id="g6959" transform="translate(27.706 19.495)">
              <path id="path6961" d="M0,0,1.331,2.633" fill="none" stroke="#000" stroke-linecap="round" stroke-linejoin="round" stroke-miterlimit="10" stroke-width="2"/>
            </g>
            <g id="g6963" transform="translate(41.913 47.651)">
              <path id="path6965" d="M-14.168-28.1-15.5-30.729" transform="translate(15.496 30.729)" fill="none" stroke="#000" stroke-linecap="round" stroke-linejoin="round" stroke-miterlimit="10" stroke-width="2"/>
            </g>
            <g id="g6967" transform="translate(20.08 41.329)">
              <path id="path6969" d="M0-14.169,2.633-15.5" transform="translate(0 15.497)" fill="none" stroke="#000" stroke-linecap="round" stroke-linejoin="round" stroke-miterlimit="10" stroke-width="2"/>
            </g>
            <g id="g6971" transform="translate(13.294 12.748)">
              <path id="path6973" d="M-204.223-2.23a22.072,22.072,0,0,1,9.965.91,22.164,22.164,0,0,1,14.119,27.987,22.166,22.166,0,0,1-27.986,14.12A22.164,22.164,0,0,1-222.241,12.8,22.138,22.138,0,0,1-208.109-1.326" transform="translate(223.36 2.438)" fill="none" stroke="#000" stroke-linecap="round" stroke-linejoin="round" stroke-miterlimit="10" stroke-width="2"/>
            </g>
            <g id="g6975" transform="translate(38.186 7.558)">
              <path id="path6977" d="M0-57.195l1.768-5.36m8.158,2.688-1.765,5.36" transform="translate(0 62.555)" fill="none" stroke="#000" stroke-linecap="round" stroke-linejoin="round" stroke-miterlimit="10" stroke-width="2"/>
            </g>
            <g id="g6979" transform="translate(37.151 1.4)">
              <path id="path6981" d="M-73.971-15.67l-4.265-1.406a1.269,1.269,0,0,0-1.6.806l-1.007,3.057a1.267,1.267,0,0,0,.8,1.6l12.028,3.961a1.269,1.269,0,0,0,1.6-.806l1.007-3.057a1.269,1.269,0,0,0-.806-1.6l-4.1-1.35" transform="translate(80.903 17.139)" fill="none" stroke="#000" stroke-linecap="round" stroke-linejoin="round" stroke-miterlimit="10" stroke-width="2"/>
            </g>
            <g id="g6983" transform="translate(0.857 15.768)">
              <path id="path6985" d="M-113.7,0H-124.35M-100.9,0h-7.086" transform="translate(124.35)" fill="none" stroke="#000" stroke-linecap="round" stroke-linejoin="round" stroke-miterlimit="10" stroke-width="2"/>
            </g>
            <g id="g6987" transform="translate(4.283 21.765)">
              <path id="path6989" d="M-85.946,0H-94" transform="translate(94)" fill="none" stroke="#000" stroke-linecap="round" stroke-linejoin="round" stroke-miterlimit="10" stroke-width="2"/>
            </g>
            <g id="g6991" transform="translate(0.857 33.757)">
              <path id="path6993" d="M-64.312,0h-6.027" transform="translate(70.338 0)" fill="none" stroke="#000" stroke-linecap="round" stroke-linejoin="round" stroke-miterlimit="10" stroke-width="2"/>
            </g>
            <g id="g6995" transform="translate(3.626 39.755)">
              <path id="path6997" d="M-105.435,0h-9.88" transform="translate(115.316)" fill="none" stroke="#000" stroke-linecap="round" stroke-linejoin="round" stroke-miterlimit="10" stroke-width="2"/>
            </g>
            <g id="g6999" transform="translate(6.113 45.753)">
              <path id="path7001" d="M-44.786,0h-4.2" transform="translate(48.983)" fill="none" stroke="#000" stroke-linecap="round" stroke-linejoin="round" stroke-miterlimit="10" stroke-width="2"/>
            </g>
            <g id="g7003" transform="translate(11.168 51.751)">
              <path id="path7005" d="M-98.523,0h-9.233" transform="translate(107.756)" fill="none" stroke="#000" stroke-linecap="round" stroke-linejoin="round" stroke-miterlimit="10" stroke-width="2"/>
            </g>
            <g id="g7007" transform="translate(38.183 35.781)">
              <path id="path7009" d="M-146.18-48.141l-13.7-4.511" transform="translate(159.878 52.652)" fill="none" stroke="#000" stroke-linecap="round" stroke-linejoin="round" stroke-miterlimit="10" stroke-width="2"/>
            </g>
            <g id="g7011" transform="translate(36.366 18.514)">
              <path id="path7013" d="M-48.035,0l-4.5,13.667" transform="translate(52.536)" fill="none" stroke="#000" stroke-linecap="round" stroke-linejoin="round" stroke-miterlimit="10" stroke-width="2"/>
            </g>
            <g id="g7015" transform="translate(26.916 27.374)">
              <path id="path7017" d="M0,0,6.221,5.671" fill="none" stroke="#000" stroke-linecap="round" stroke-linejoin="round" stroke-miterlimit="10" stroke-width="2"/>
            </g>
            <g id="g7019" transform="translate(35.828 37.751)">
              <path id="path7021" d="M0,0,.376,3.216" fill="none" stroke="#000" stroke-linecap="round" stroke-linejoin="round" stroke-miterlimit="10" stroke-width="2"/>
            </g>
            <g id="g7023" transform="translate(7.894 27.763)">
              <path id="path7025" d="M-71.05,0h-6.658" transform="translate(77.708)" fill="none" stroke="#000" stroke-linecap="round" stroke-linejoin="round" stroke-miterlimit="10" stroke-width="2"/>
            </g>
            <g id="g7027" transform="translate(34.102 32.037)">
              <path id="path7029" d="M-43.542-39.958a2.852,2.852,0,0,0-1.817-3.6,2.854,2.854,0,0,0-2.264.207,2.856,2.856,0,0,1,1.642,3.54,2.857,2.857,0,0,1-1.338,1.61c.058.023.117.042.175.061a2.852,2.852,0,0,0,3.6-1.817" transform="translate(47.623 43.703)" fill="#fbba58" fill-rule="evenodd"/>
            </g>
            <g id="g7031" transform="translate(32.621 32.037)">
              <path id="path7033" d="M-39.962-1.534a2.852,2.852,0,0,1,1.817,3.6,2.852,2.852,0,0,1-3.6,1.817,2.852,2.852,0,0,1-1.817-3.6A2.852,2.852,0,0,1-39.962-1.534Z" transform="translate(43.707 1.677)" fill="none" stroke="#000" stroke-linecap="round" stroke-linejoin="round" stroke-miterlimit="10" stroke-width="2"/>
            </g>
            <g id="g7035" transform="translate(18.186 17.642)">
              <path id="path7037" d="M-242.039-9.306a17.274,17.274,0,0,0-21.811,11,17.272,17.272,0,0,0,11,21.808,17.272,17.272,0,0,0,21.811-11l.01-.032A17.273,17.273,0,0,0-242.039-9.306Z" transform="translate(264.721 10.178)" fill="none" stroke="#000" stroke-linecap="round" stroke-linejoin="round" stroke-miterlimit="10" stroke-width="2"/>
            </g>
          </g>
        </g>
      </g>
    </g>
    <path id="XMLID_1455_" d="M18.679,23.533,20.542,6.741,23.05,8.207a.783.783,0,0,0,.989-1.186L18.261.279a.783.783,0,0,0-1.189,0L11.294,7.021a.782.782,0,0,0,.986,1.186l2.51-1.463,1.862,16.789a1.02,1.02,0,0,0,2.026,0Z" transform="translate(798.715 2131.824) rotate(90)"/>
  </g>
</svg>
