<svg xmlns="http://www.w3.org/2000/svg" xmlns:xlink="http://www.w3.org/1999/xlink" width="77" height="77" viewBox="0 0 77 77">
  <defs>
    <filter id="Elipse_7697" x="0" y="0" width="77" height="77" filterUnits="userSpaceOnUse">
      <feOffset dy="3" input="SourceAlpha"/>
      <feGaussianBlur stdDeviation="3" result="blur"/>
      <feFlood flood-opacity="0.161"/>
      <feComposite operator="in" in2="blur"/>
      <feComposite in="SourceGraphic"/>
    </filter>
    <clipPath id="clip-path">
      <path id="path6441" d="M0-682.665H53.94v53.94H0Z" transform="translate(0 682.665)" fill="#12263f"/>
    </clipPath>
  </defs>
  <g id="Grupo_1023222" data-name="Grupo 1023222" transform="translate(6052.982 9933.395)">
    <g id="Grupo_1008037" data-name="Grupo 1008037" transform="translate(-6044.453 -9927.395)">
      <g transform="matrix(1, 0, 0, 1, -8.53, -6)" filter="url(#Elipse_7697)">
        <circle id="Elipse_7697-2" data-name="Elipse 7697" cx="29.5" cy="29.5" r="29.5" transform="translate(9 6)" fill="#0ce6ea"/>
      </g>
      <g id="rendimiento" transform="translate(0 5.059)">
        <g id="g6435">
          <g id="g6437">
            <g id="g6439" clip-path="url(#clip-path)">
              <g id="g6445" transform="translate(0.888 30.992)">
                <path id="path6447" d="M-37.308,0h3a3.21,3.21,0,0,1,3.2,3.2V17.219a3.21,3.21,0,0,1-3.2,3.2h-3a3.21,3.21,0,0,1-3.2-3.2V3.2A3.21,3.21,0,0,1-37.308,0Z" transform="translate(40.509)" fill="none" stroke="#12263f" stroke-linecap="round" stroke-linejoin="round" stroke-miterlimit="10" stroke-width="1.5" stroke-dasharray="360 30"/>
              </g>
              <g id="g6449" transform="translate(7.473 34.546)">
                <path id="path6451" d="M-166.583-59.649l5.227,5.229a2.555,2.555,0,0,0,1.81.75,2.551,2.551,0,0,0,1.84-.781,2.6,2.6,0,0,0-.072-3.627l-1.569-1.569-4.233-4.233a3.02,3.02,0,0,0-2.135-.884h-13.879a1.283,1.283,0,0,0-1.28,1.28v2.558" transform="translate(180.874 64.767)" fill="none" stroke="#12263f" stroke-linecap="round" stroke-linejoin="round" stroke-miterlimit="10" stroke-width="1.5"/>
              </g>
              <g id="g6453" transform="translate(10.287 38.298)">
                <path id="path6455" d="M0-88.3l3.6.622a17.608,17.608,0,0,1,4.741,1.535l6.04,2.955a13.013,13.013,0,0,1,1.328.752,7.329,7.329,0,0,0,7.9.021l18.063-9.159a2.333,2.333,0,0,0,1.081-1.968,2.333,2.333,0,0,0-2.641-2.313L21.18-91.091" transform="translate(0 95.878)" fill="none" stroke="#12263f" stroke-linecap="round" stroke-linejoin="round" stroke-miterlimit="10" stroke-width="1.5" stroke-dasharray="400 30"/>
              </g>
              <g id="g6457" transform="translate(3.696 44.477)">
                <path id="path6459" d="M-44.13-22.066a1.893,1.893,0,0,1-1.893,1.893,1.893,1.893,0,0,1-1.893-1.893,1.893,1.893,0,0,1,1.893-1.893A1.893,1.893,0,0,1-44.13-22.066Z" transform="translate(47.916 23.959)" fill="none" stroke="#12263f" stroke-linecap="round" stroke-linejoin="round" stroke-miterlimit="10" stroke-width="1.5" stroke-dasharray="62 30"/>
              </g>
              <g id="g6461" transform="translate(20.438 1.019)">
                <path id="path6463" d="M-180.427-.146l-3.726.657a.819.819,0,0,0-.664.949l.808,4.584a11.321,11.321,0,0,0-2.106,1.218l-3.567-2.993a.819.819,0,0,0-1.154.1l-2.432,2.9a.819.819,0,0,0,.1,1.154l3.566,2.992a11.259,11.259,0,0,0-.832,2.286h-4.655a.819.819,0,0,0-.819.819V18.3a.819.819,0,0,0,.819.819h4.655a11.257,11.257,0,0,0,.832,2.286l-3.566,2.992a.819.819,0,0,0-.1,1.154l2.432,2.9a.819.819,0,0,0,1.154.1l3.567-2.993a11.316,11.316,0,0,0,2.106,1.218l-.808,4.584a.819.819,0,0,0,.664.948l3.726.657a.819.819,0,0,0,.949-.664l.809-4.587a11.306,11.306,0,0,0,2.4-.42l2.327,4.031a.819.819,0,0,0,1.119.3l3.276-1.892a.819.819,0,0,0,.3-1.119l-2.329-4.033a11.384,11.384,0,0,0,1.564-1.862l4.375,1.592a.819.819,0,0,0,1.05-.489l1.294-3.555a.819.819,0,0,0-.489-1.05l-4.376-1.593a11.475,11.475,0,0,0,.065-1.216,11.478,11.478,0,0,0-.065-1.216l4.376-1.593a.819.819,0,0,0,.489-1.05L-164.591,9a.819.819,0,0,0-1.05-.489l-4.375,1.592a11.389,11.389,0,0,0-1.564-1.862l2.329-4.033a.819.819,0,0,0-.3-1.119l-3.276-1.892a.819.819,0,0,0-1.119.3l-2.327,4.031a11.293,11.293,0,0,0-2.4-.42l-.809-4.587A.819.819,0,0,0-180.427-.146Z" transform="translate(195.906 0.159)" fill="none" stroke="#12263f" stroke-linecap="round" stroke-linejoin="round" stroke-miterlimit="10" stroke-width="1.5"/>
              </g>
              <g id="g6465" transform="translate(29.895 13.004)">
                <path id="path6467" d="M-160.207,0l-8.972,8.972a.665.665,0,0,1-.941,0l-3.832-3.832" transform="translate(173.952)" fill="none" stroke="#12263f" stroke-linecap="round" stroke-linejoin="round" stroke-miterlimit="10" stroke-width="1.5" stroke-dasharray="670 30"/>
              </g>
            </g>
          </g>
        </g>
      </g>
    </g>
  </g>
</svg>
