<svg id="Grupo_1014510" data-name="Grupo 1014510" xmlns="http://www.w3.org/2000/svg" xmlns:xlink="http://www.w3.org/1999/xlink" width="85" height="91" viewBox="0 0 85 91">
  <defs>
    <clipPath id="clip-path">
      <path id="path6903" d="M58.491-682.665H0v58.491H58.491Z" transform="translate(0 682.665)"/>
    </clipPath>
  </defs>
  <g id="Grupo_1014505" data-name="Grupo 1014505">
    <rect id="Rectángulo_33822" data-name="Rectángulo 33822" width="85" height="91" rx="11" fill="#ff6e33"/>
    <g id="g6897" transform="translate(13.509 16)">
      <g id="g6899">
        <g id="g6901" clip-path="url(#clip-path)">
          <g id="g6907" transform="translate(9.829 6.408)">
            <path id="path6909" d="M-23.588,0l2.72,7.74a22.208,22.208,0,0,0-4.21.949,22.342,22.342,0,0,0-3.951,1.739l-2.72-7.74Z" transform="translate(31.749)" fill="#eff6ff" fill-rule="evenodd"/>
          </g>
          <g id="g6911" transform="translate(5.78 1.4)">
            <path id="path6913" d="M2-9.276,3-6.219a1.267,1.267,0,0,1-.8,1.6L.265-3.987-7.893-1.3l-1.933.638a1.269,1.269,0,0,1-1.6-.806L-12.43-4.525a1.269,1.269,0,0,1,.806-1.6L.4-10.082A1.269,1.269,0,0,1,2-9.276" transform="translate(12.493 10.145)" fill="#375e7d" fill-rule="evenodd"/>
          </g>
          <g id="g6915" transform="translate(5.78 4.442)">
            <path id="path6917" d="M-32.105-68.738a1.269,1.269,0,0,1-1.6-.806L-34.709-72.6a1.269,1.269,0,0,1,.806-1.6l2.979-.981a1.269,1.269,0,0,0-.806,1.6l1.007,3.057a1.269,1.269,0,0,0,1.6.806h-.007l-1.039.343Z" transform="translate(34.772 75.18)" fill="#2b4d66" fill-rule="evenodd"/>
          </g>
          <g id="g6919" transform="translate(0.857 12.748)">
            <path id="path6921" d="M-148.71-461.265a22.166,22.166,0,0,1-27.986-14.12,22.173,22.173,0,0,1,10.169-26.248,22.331,22.331,0,0,1,3.951-1.739,22.212,22.212,0,0,1,4.21-.949,22.144,22.144,0,0,1,13.88,2.85,22.073,22.073,0,0,1,9.893,12.219,22.164,22.164,0,0,1-14.116,27.987" transform="translate(177.816 504.49)" fill="#375e7d" fill-rule="evenodd"/>
          </g>
          <g id="g6923" transform="translate(5.749 17.642)">
            <path id="path6925" d="M-252.845-9.306a17.274,17.274,0,0,1,21.811,11,17.272,17.272,0,0,1-11,21.808,17.272,17.272,0,0,1-21.811-11l-.01-.032A17.273,17.273,0,0,1-252.845-9.306" transform="translate(264.721 10.178)" fill="#eff6ff" fill-rule="evenodd"/>
          </g>
          <g id="g6927" transform="translate(5.749 18.514)">
            <path id="path6929" d="M-42.3,0l4.5,13.667a2.945,2.945,0,0,1-1.817,3.6l-13.7,4.511A17.273,17.273,0,0,1-42.3,0" transform="translate(54.174)" fill="#eb5468" fill-rule="evenodd"/>
          </g>
          <g id="g6931" transform="translate(20.165 32.037)">
            <path id="path6933" d="M-41.746-1.534a2.852,2.852,0,0,1,3.6,1.817,2.852,2.852,0,0,1-1.817,3.6,2.852,2.852,0,0,1-3.6-1.817,2.852,2.852,0,0,1,1.817-3.6" transform="translate(43.707 1.677)" fill="#ffd772" fill-rule="evenodd"/>
          </g>
          <g id="g6935" transform="translate(5.749 19.913)">
            <path id="path6937" d="M-90.833-217.478a17.282,17.282,0,0,1,7.856-20.38,37.552,37.552,0,0,0-1.9,11.921,38.505,38.505,0,0,0,.518,6.328Z" transform="translate(91.694 237.858)" fill="#e5384f" fill-rule="evenodd"/>
          </g>
          <g id="g6939" transform="translate(0.857 13.481)">
            <path id="path6941" d="M-245.766-302.769A22.173,22.173,0,0,1-235.6-329.017a21.831,21.831,0,0,1,2.86-1.347c.36-.139.722-.269,1.091-.392.434-.142.868-.272,1.305-.385a33.157,33.157,0,0,0-2.934,6.432,17.282,17.282,0,0,0-7.856,20.38c0,.01.007.019.01.032a17.256,17.256,0,0,0,11.616,11.192,27.159,27.159,0,0,0,4.893,5.573,22.171,22.171,0,0,1-21.153-15.237" transform="translate(246.885 331.142)" fill="#2b4d66" fill-rule="evenodd"/>
          </g>
          <g id="g6943" transform="translate(6.61 38.162)">
            <path id="path6945" d="M11.626-142.52A17.256,17.256,0,0,1,.01-153.712L0-153.745l6.47-2.131A35.3,35.3,0,0,0,9.7-145.846a31.521,31.521,0,0,0,1.93,3.326" transform="translate(0 155.876)" fill="#d9eeff" fill-rule="evenodd"/>
          </g>
          <g id="g6947" transform="translate(10.38 9.265)">
            <path id="path6949" d="M-31.61-67.666l-1.765-5.36,1.046-.343,1.933-.638,1.645,4.994a21.816,21.816,0,0,0-2.86,1.347" transform="translate(33.375 74.006)" fill="#d9eeff" fill-rule="evenodd"/>
          </g>
          <g id="g6951" transform="translate(27.488 48.467)">
            <path id="path6953" d="M.923-29.893,0-32.695" transform="translate(0 32.695)" fill="none" stroke="#000" stroke-linecap="round" stroke-linejoin="round" stroke-miterlimit="10" stroke-width="2"/>
          </g>
          <g id="g6955" transform="translate(36.595 29.495)">
            <path id="path6957" d="M2.8,0,0,.923" fill="none" stroke="#000" stroke-linecap="round" stroke-linejoin="round" stroke-miterlimit="10" stroke-width="2"/>
          </g>
          <g id="g6959" transform="translate(29.454 19.495)">
            <path id="path6961" d="M1.331,0,0,2.633" fill="none" stroke="#000" stroke-linecap="round" stroke-linejoin="round" stroke-miterlimit="10" stroke-width="2"/>
          </g>
          <g id="g6963" transform="translate(15.25 47.651)">
            <path id="path6965" d="M-15.5-28.1l1.328-2.633" transform="translate(15.496 30.729)" fill="none" stroke="#000" stroke-linecap="round" stroke-linejoin="round" stroke-miterlimit="10" stroke-width="2"/>
          </g>
          <g id="g6967" transform="translate(35.778 41.329)">
            <path id="path6969" d="M2.633-14.169,0-15.5" transform="translate(0 15.497)" fill="none" stroke="#000" stroke-linecap="round" stroke-linejoin="round" stroke-miterlimit="10" stroke-width="2"/>
          </g>
          <g id="g6971" transform="translate(0.857 12.748)">
            <path id="path6973" d="M-198.157-2.23a22.072,22.072,0,0,0-9.965.91,22.164,22.164,0,0,0-14.119,27.987,22.166,22.166,0,0,0,27.986,14.12A22.164,22.164,0,0,0-180.139,12.8,22.138,22.138,0,0,0-194.271-1.326" transform="translate(223.36 2.438)" fill="none" stroke="#000" stroke-linecap="round" stroke-linejoin="round" stroke-miterlimit="10" stroke-width="2"/>
          </g>
          <g id="g6975" transform="translate(10.38 7.558)">
            <path id="path6977" d="M9.926-57.195l-1.768-5.36M0-59.867l1.765,5.36" transform="translate(0 62.555)" fill="none" stroke="#000" stroke-linecap="round" stroke-linejoin="round" stroke-miterlimit="10" stroke-width="2"/>
          </g>
          <g id="g6979" transform="translate(5.78 1.4)">
            <path id="path6981" d="M-72.274-15.67l4.265-1.406a1.269,1.269,0,0,1,1.6.806l1.007,3.057a1.267,1.267,0,0,1-.8,1.6L-78.236-7.655a1.269,1.269,0,0,1-1.6-.806l-1.007-3.057a1.269,1.269,0,0,1,.806-1.6l4.1-1.35" transform="translate(80.903 17.139)" fill="none" stroke="#000" stroke-linecap="round" stroke-linejoin="round" stroke-miterlimit="10" stroke-width="2"/>
          </g>
          <g id="g6983" transform="translate(34.185 15.768)">
            <path id="path6985" d="M-111.555,0H-100.9M-124.35,0h7.086" transform="translate(124.35)" fill="none" stroke="#000" stroke-linecap="round" stroke-linejoin="round" stroke-miterlimit="10" stroke-width="2"/>
          </g>
          <g id="g6987" transform="translate(46.154 21.765)">
            <path id="path6989" d="M-94,0h8.054" transform="translate(94)" fill="none" stroke="#000" stroke-linecap="round" stroke-linejoin="round" stroke-miterlimit="10" stroke-width="2"/>
          </g>
          <g id="g6991" transform="translate(51.608 33.757)">
            <path id="path6993" d="M-70.338,0h6.027" transform="translate(70.338 0)" fill="none" stroke="#000" stroke-linecap="round" stroke-linejoin="round" stroke-miterlimit="10" stroke-width="2"/>
          </g>
          <g id="g6995" transform="translate(44.985 39.755)">
            <path id="path6997" d="M-115.316,0h9.88" transform="translate(115.316)" fill="none" stroke="#000" stroke-linecap="round" stroke-linejoin="round" stroke-miterlimit="10" stroke-width="2"/>
          </g>
          <g id="g6999" transform="translate(48.182 45.753)">
            <path id="path7001" d="M-48.983,0h4.2" transform="translate(48.983)" fill="none" stroke="#000" stroke-linecap="round" stroke-linejoin="round" stroke-miterlimit="10" stroke-width="2"/>
          </g>
          <g id="g7003" transform="translate(38.091 51.751)">
            <path id="path7005" d="M-107.756,0h9.233" transform="translate(107.756)" fill="none" stroke="#000" stroke-linecap="round" stroke-linejoin="round" stroke-miterlimit="10" stroke-width="2"/>
          </g>
          <g id="g7007" transform="translate(6.61 35.781)">
            <path id="path7009" d="M-159.878-48.141l13.7-4.511" transform="translate(159.878 52.652)" fill="none" stroke="#000" stroke-linecap="round" stroke-linejoin="round" stroke-miterlimit="10" stroke-width="2"/>
          </g>
          <g id="g7011" transform="translate(17.624 18.514)">
            <path id="path7013" d="M-52.536,0l4.5,13.667" transform="translate(52.536)" fill="none" stroke="#000" stroke-linecap="round" stroke-linejoin="round" stroke-miterlimit="10" stroke-width="2"/>
          </g>
          <g id="g7015" transform="translate(25.354 27.374)">
            <path id="path7017" d="M6.221,0,0,5.671" fill="none" stroke="#000" stroke-linecap="round" stroke-linejoin="round" stroke-miterlimit="10" stroke-width="2"/>
          </g>
          <g id="g7019" transform="translate(22.287 37.751)">
            <path id="path7021" d="M.376,0,0,3.216" fill="none" stroke="#000" stroke-linecap="round" stroke-linejoin="round" stroke-miterlimit="10" stroke-width="2"/>
          </g>
          <g id="g7023" transform="translate(43.939 27.763)">
            <path id="path7025" d="M-77.708,0h6.658" transform="translate(77.708)" fill="none" stroke="#000" stroke-linecap="round" stroke-linejoin="round" stroke-miterlimit="10" stroke-width="2"/>
          </g>
          <g id="g7027" transform="translate(20.165 32.037)">
            <path id="path7029" d="M-47.479-39.958a2.852,2.852,0,0,1,1.817-3.6,2.854,2.854,0,0,1,2.264.207,2.856,2.856,0,0,0-1.642,3.54A2.857,2.857,0,0,0-43.7-38.2c-.058.023-.117.042-.175.061a2.852,2.852,0,0,1-3.6-1.817" transform="translate(47.623 43.703)" fill="#fbba58" fill-rule="evenodd"/>
          </g>
          <g id="g7031" transform="translate(20.165 32.037)">
            <path id="path7033" d="M-41.746-1.534a2.852,2.852,0,0,0-1.817,3.6,2.852,2.852,0,0,0,3.6,1.817,2.852,2.852,0,0,0,1.817-3.6A2.852,2.852,0,0,0-41.746-1.534Z" transform="translate(43.707 1.677)" fill="none" stroke="#000" stroke-linecap="round" stroke-linejoin="round" stroke-miterlimit="10" stroke-width="2"/>
          </g>
          <g id="g7035" transform="translate(5.749 17.642)">
            <path id="path7037" d="M-252.845-9.306a17.274,17.274,0,0,1,21.811,11,17.272,17.272,0,0,1-11,21.808,17.272,17.272,0,0,1-21.811-11l-.01-.032A17.273,17.273,0,0,1-252.845-9.306Z" transform="translate(264.721 10.178)" fill="none" stroke="#000" stroke-linecap="round" stroke-linejoin="round" stroke-miterlimit="10" stroke-width="2"/>
          </g>
        </g>
      </g>
    </g>
  </g>
  <path id="XMLID_1455_" d="M7.581.9,9.445,17.7l2.507-1.466a.783.783,0,0,1,.989,1.186L7.163,24.157a.783.783,0,0,1-1.189,0L.2,17.416a.782.782,0,0,1,.986-1.186l2.51,1.463L5.555.9A1.02,1.02,0,0,1,7.581.9Z" transform="translate(68.721 14.922) rotate(90)"/>
</svg>
