<svg xmlns="http://www.w3.org/2000/svg" xmlns:xlink="http://www.w3.org/1999/xlink" width="77" height="77" viewBox="0 0 77 77">
  <defs>
    <filter id="Elipse_7696" x="0" y="0" width="77" height="77" filterUnits="userSpaceOnUse">
      <feOffset dy="3" input="SourceAlpha"/>
      <feGaussianBlur stdDeviation="3" result="blur"/>
      <feFlood flood-opacity="0.161"/>
      <feComposite operator="in" in2="blur"/>
      <feComposite in="SourceGraphic"/>
    </filter>
  </defs>
  <g id="Grupo_1008036" data-name="Grupo 1008036" transform="translate(9 6)">
    <g transform="matrix(1, 0, 0, 1, -9, -6)" filter="url(#Elipse_7696)">
      <circle id="Elipse_7696-2" data-name="Elipse 7696" cx="29.5" cy="29.5" r="29.5" transform="translate(9 6)" fill="#0ce6ea"/>
    </g>
    <g id="productividad_1_" data-name="productividad (1)" transform="translate(4.562 4.654)">
      <g id="Grupo_1008026" data-name="Grupo 1008026">
        <path id="Trazado_715930" data-name="Trazado 715930" d="M123.661,222.463a.8.8,0,0,0,.657-.914,9.812,9.812,0,1,0-.176,4.041.8.8,0,0,0-1.542-.4,8.236,8.236,0,1,1,.147-3.389A.8.8,0,0,0,123.661,222.463Z" transform="translate(-95.922 -190.684)" fill="#444b4b"/>
        <path id="Trazado_715931" data-name="Trazado 715931" d="M144.483,246.723A6.274,6.274,0,1,0,150.756,253,6.281,6.281,0,0,0,144.483,246.723Zm0,10.955A4.681,4.681,0,1,1,149.164,253,4.687,4.687,0,0,1,144.483,257.678Z" transform="translate(-125.773 -220.535)" fill="#444b4b"/>
        <path id="Trazado_715932" data-name="Trazado 715932" d="M171.208,276.623a3.1,3.1,0,1,0,3.1,3.1A3.1,3.1,0,0,0,171.208,276.623Zm0,4.608a1.508,1.508,0,1,1,1.508-1.508A1.51,1.51,0,0,1,171.208,281.231Z" transform="translate(-152.498 -247.261)" fill="#444b4b"/>
        <path id="Trazado_715933" data-name="Trazado 715933" d="M66.276,33.59V28.553a.8.8,0,1,0-1.592,0v4.042a11.424,11.424,0,0,0-3.344-1.119V19.329a1.116,1.116,0,0,0-1.115-1.115H58.4l4.609-6.265,4.53,6.265H65.8a1.116,1.116,0,0,0-1.115,1.115v5.509a.8.8,0,1,0,1.592,0V19.806h2.2a1.115,1.115,0,0,0,.9-1.768l-5.462-7.553a1.118,1.118,0,0,0-.9-.462h0a1.118,1.118,0,0,0-.9.454l-5.557,7.553a1.114,1.114,0,0,0,.9,1.775h2.3V31.318c-.113,0-.227-.005-.341-.005-.329,0-.656.015-.978.042-.026-.448-.065-.9-.123-1.338a1.636,1.636,0,0,0-1.62-1.417H52.751a.042.042,0,0,1-.039-.033,13.48,13.48,0,0,0-1.04-2.513.042.042,0,0,1,0-.051l2.781-2.781a1.636,1.636,0,0,0,.143-2.148q-.409-.532-.855-1.032V9.782h2.2a1.115,1.115,0,0,0,.9-1.768L51.382.461a1.118,1.118,0,0,0-.9-.462h0a1.118,1.118,0,0,0-.9.454L44.025,8.007a1.114,1.114,0,0,0,.9,1.775h2.3v9.756l-1,1a.043.043,0,0,1-.051,0,13.474,13.474,0,0,0-2.513-1.04.042.042,0,0,1-.032-.039V15.531a1.636,1.636,0,0,0-1.417-1.62,18.936,18.936,0,0,0-4.89,0,1.636,1.636,0,0,0-1.417,1.62v3.935a.042.042,0,0,1-.033.039,13.48,13.48,0,0,0-2.513,1.04.042.042,0,0,1-.051,0L30.515,17.76a1.636,1.636,0,0,0-2.148-.143,18.819,18.819,0,0,0-3.457,3.457,1.636,1.636,0,0,0,.143,2.148L27.835,26a.042.042,0,0,1,0,.051,13.477,13.477,0,0,0-1.04,2.513.042.042,0,0,1-.039.033H22.825a1.636,1.636,0,0,0-1.62,1.417,18.851,18.851,0,0,0,0,4.89,1.636,1.636,0,0,0,1.62,1.417H26.76a.042.042,0,0,1,.039.033,13.481,13.481,0,0,0,1.04,2.513.042.042,0,0,1,0,.051L25.054,41.7a1.636,1.636,0,0,0-.143,2.148,18.819,18.819,0,0,0,3.457,3.457,1.636,1.636,0,0,0,2.148-.143L33.3,44.382a.042.042,0,0,1,.051,0,13.475,13.475,0,0,0,2.513,1.04.042.042,0,0,1,.033.039v3.935a1.636,1.636,0,0,0,1.417,1.62,18.852,18.852,0,0,0,4.89,0,1.636,1.636,0,0,0,1.417-1.62V45.457a.042.042,0,0,1,.032-.039,13.473,13.473,0,0,0,2.513-1.04.042.042,0,0,1,.051,0l2.362,2.362a11.516,11.516,0,1,0,17.7-13.153ZM45.867,8.19l4.609-6.265,4.53,6.265H53.268A1.116,1.116,0,0,0,52.154,9.3v9.147q-.49-.434-1.01-.835A1.636,1.636,0,0,0,49,17.76l-.186.186V9.3A1.116,1.116,0,0,0,47.7,8.19Zm2.07,35.663-.6-.6a1.625,1.625,0,0,0-1.932-.28,11.887,11.887,0,0,1-2.216.917,1.624,1.624,0,0,0-1.167,1.564v3.935a.041.041,0,0,1-.032.041,17.341,17.341,0,0,1-4.476,0,.041.041,0,0,1-.032-.041V45.457a1.625,1.625,0,0,0-1.167-1.564,11.879,11.879,0,0,1-2.216-.917,1.646,1.646,0,0,0-.782-.2,1.622,1.622,0,0,0-1.15.479L29.39,46.038a.041.041,0,0,1-.052.007,17.224,17.224,0,0,1-3.164-3.164.041.041,0,0,1,.006-.052l2.781-2.781a1.625,1.625,0,0,0,.28-1.932,11.882,11.882,0,0,1-.917-2.216,1.624,1.624,0,0,0-1.564-1.167H22.825a.041.041,0,0,1-.041-.032,17.247,17.247,0,0,1,0-4.476.041.041,0,0,1,.041-.032H26.76a1.625,1.625,0,0,0,1.564-1.167,11.882,11.882,0,0,1,.917-2.216,1.625,1.625,0,0,0-.28-1.932L26.18,22.1a.041.041,0,0,1-.006-.052,17.221,17.221,0,0,1,3.164-3.164.041.041,0,0,1,.052.006l2.781,2.781a1.625,1.625,0,0,0,1.932.28,11.883,11.883,0,0,1,2.216-.917,1.624,1.624,0,0,0,1.168-1.564V15.531a.041.041,0,0,1,.032-.041,17.332,17.332,0,0,1,4.476,0,.041.041,0,0,1,.032.041v3.935a1.624,1.624,0,0,0,1.167,1.564,11.89,11.89,0,0,1,2.216.917,1.625,1.625,0,0,0,1.932-.28l2.781-2.781a.041.041,0,0,1,.052-.006,17.221,17.221,0,0,1,3.164,3.164.041.041,0,0,1-.006.052L50.55,24.877a1.625,1.625,0,0,0-.28,1.932,11.882,11.882,0,0,1,.917,2.216,1.625,1.625,0,0,0,1.564,1.167h3.935a.041.041,0,0,1,.041.032c.06.455.1.915.121,1.376a11.537,11.537,0,0,0-8.958,11.23c0,.345.016.686.046,1.024Zm11.471,8.9a9.924,9.924,0,1,1,9.924-9.924A9.936,9.936,0,0,1,59.407,52.753Z" transform="translate(-21.046 0)" fill="#444b4b"/>
        <path id="Trazado_715934" data-name="Trazado 715934" d="M314.988,327.667a.8.8,0,0,0,1.57-.261,8.862,8.862,0,1,0-8.741,10.32,8.782,8.782,0,0,0,5.3-1.766,8.952,8.952,0,0,0,3.162-4.472.8.8,0,1,0-1.521-.472,7.349,7.349,0,0,1-2.6,3.671,7.2,7.2,0,0,1-4.349,1.448,7.267,7.267,0,1,1,7.171-8.467Z" transform="translate(-269.456 -286.034)" fill="#444b4b"/>
        <path id="Trazado_715935" data-name="Trazado 715935" d="M375.75,342.5a.8.8,0,0,0-.8.8v5.679a.8.8,0,0,0,1.229.668l3.619-2.349a.8.8,0,1,0-.867-1.336l-2.389,1.551V343.3a.8.8,0,0,0-.8-.8Z" transform="translate(-337.389 -306.147)" fill="#444b4b"/>
      </g>
    </g>
  </g>
</svg>
