<svg xmlns="http://www.w3.org/2000/svg" xmlns:xlink="http://www.w3.org/1999/xlink" width="295" height="257" viewBox="0 0 295 257">
  <defs>
    <clipPath id="clip-path">
      <rect id="Rectángulo_33853" data-name="Rectángulo 33853" width="295" height="257" transform="translate(180 412)" fill="#fff" opacity="0.58"/>
    </clipPath>
  </defs>
  <g id="Enmascarar_grupo_54" data-name="Enmascarar grupo 54" transform="translate(-180 -412)" clip-path="url(#clip-path)">
    <g id="_7543663" data-name="7543663" transform="translate(187.714 412.431)">
      <g id="Background_Simple" data-name="Background Simple" transform="translate(6.162 0.002)">
        <g id="Grupo_960317" data-name="Grupo 960317">
          <path id="Trazado_113940" data-name="Trazado 113940" d="M15.563,192.03S27.311,238.4,64.907,252.185,133.42,240.076,163.8,229.6c15.909-5.489,32.4,1.014,48.656.006,51.976-3.218,81.552-80.474,66.657-130.517-12.892-43.328-42.077-70.19-90.04-84.338S107.761-11.545,59.116,19.1,2.7,131.555,15.563,192.03Z" transform="translate(-10.053 -0.002)" fill="#ffdbcb"/>
          <path id="Trazado_113941" data-name="Trazado 113941" d="M15.563,192.03S27.311,238.4,64.907,252.185,133.42,240.076,163.8,229.6c15.909-5.489,32.4,1.014,48.656.006,51.976-3.218,81.552-80.474,66.657-130.517-12.892-43.328-42.077-70.19-90.04-84.338S107.761-11.545,59.116,19.1,2.7,131.555,15.563,192.03Z" transform="translate(-10.053 -0.002)" fill="#ffdbcb" opacity="0.7"/>
        </g>
      </g>
      <g id="Picture" transform="translate(81.211 2.301)">
        <g id="Grupo_960319" data-name="Grupo 960319">
          <path id="Trazado_113942" data-name="Trazado 113942" d="M190.43,5.694v97.064H138.484V5.694H190.43m1.814-1.814H136.67V104.565h55.573V3.88Z" transform="translate(-136.67 -3.88)" fill="none" stroke="#a2a7a9" stroke-miterlimit="10" stroke-width="1"/>
          <g id="Grupo_960318" data-name="Grupo 960318" transform="translate(3.338 3.736)">
            <path id="Trazado_113943" data-name="Trazado 113943" d="M143.872,26.588a12.842,12.842,0,0,0,1.642,1.025,26.685,26.685,0,0,0,3.527,1.5c.6.207,1.209.4,1.826.569a9.928,9.928,0,0,0,1.885.379v-.136a9.977,9.977,0,0,1-1.826-.439c-.6-.19-1.2-.4-1.79-.628a25.315,25.315,0,0,1-3.42-1.6,12.615,12.615,0,0,1-1.547-1.043,4.049,4.049,0,0,1-1.162-1.334l-.083-.19c-.018-.065-.024-.13-.042-.2a1.17,1.17,0,0,1-.012-.379,1.5,1.5,0,0,1,.344-.693,4.227,4.227,0,0,1,1.434-1.008,8.208,8.208,0,0,1,.842-.367c.279-.124.587-.207.883-.308a17.3,17.3,0,0,1,1.8-.528l.907-.219.919-.148c.611-.119,1.233-.148,1.855-.213a48.628,48.628,0,0,1,7.522.32,74.806,74.806,0,0,0,7.664.4,51.858,51.858,0,0,0,7.664-.676,55.208,55.208,0,0,0,7.48-1.749l.913-.3c.3-.107.6-.231.9-.356s.6-.243.889-.391.593-.267.871-.439a7.718,7.718,0,0,0,1.589-1.156,2.231,2.231,0,0,0,.332-.373,1.668,1.668,0,0,0,.267-.427,1.243,1.243,0,0,0,.071-1.008l-.124.059a1.041,1.041,0,0,1-.2.812,1.726,1.726,0,0,1-.279.344,2.081,2.081,0,0,1-.338.3,7.03,7.03,0,0,1-1.6.9c-.273.136-.581.225-.865.338a8.662,8.662,0,0,1-.889.29c-.3.089-.593.184-.895.267l-.913.225c-2.436.587-4.926.978-7.421,1.322-1.251.142-2.489.326-3.74.415-1.245.136-2.5.2-3.752.261a65.5,65.5,0,0,1-7.545-.136c-1.328-.077-2.667-.172-4.019-.213a16.264,16.264,0,0,0-.107-2.679,8.909,8.909,0,0,0-.367-1.689,4.38,4.38,0,0,0-.172-.433c-.059-.136-.184-.326-.237-.421,0-.018.018,0,.018,0s.018-.041.059-.1a1.794,1.794,0,0,1,.379-.427,5.411,5.411,0,0,1,.563-.433,11.314,11.314,0,0,1,1.31-.765,14.688,14.688,0,0,1,2.928-1.132,14.043,14.043,0,0,1,3.106-.51,8.524,8.524,0,0,1,3.064.48,15.553,15.553,0,0,1,5.459,3.331l.1-.095A15.972,15.972,0,0,0,169.1,12.57a14,14,0,0,0-2.881-1.66,9.35,9.35,0,0,0-3.307-.723,15.454,15.454,0,0,0-3.355.338,17.558,17.558,0,0,0-3.242.972,8.97,8.97,0,0,0-1.541.818,3.915,3.915,0,0,0-1.357,1.417,1.645,1.645,0,0,0-.16.676,1.324,1.324,0,0,0,.249.765c.089.136.124.166.19.273s.113.19.166.308a10.542,10.542,0,0,1,.545,1.44c.249.8.462,1.63.688,2.466a28.113,28.113,0,0,0-3.307.107c-.64.083-1.286.13-1.92.273l-.954.184-.936.255a16.588,16.588,0,0,0-1.837.593,12.433,12.433,0,0,0-1.8.759,4.823,4.823,0,0,0-1.6,1.233,2.048,2.048,0,0,0-.439,1.008,1.783,1.783,0,0,0,.036.563c.024.089.042.184.071.267l.113.243a4.521,4.521,0,0,0,1.357,1.476Z" transform="translate(-142.302 -10.184)" fill="#919191"/>
            <path id="Trazado_113944" data-name="Trazado 113944" d="M170.677,51.213a13.131,13.131,0,0,0-.622-1.262c-.456-.818-.948-1.6-1.464-2.377-.842-1.257-1.731-2.483-2.644-3.687.367-.676.717-1.351,1.037-2.051.367-.806.717-1.63,1.008-2.466a7.666,7.666,0,0,0,2.6.059,9.191,9.191,0,0,0,2.827-.942c.415-.225.836-.456,1.239-.705.4-.267.8-.522,1.18-.824a10.953,10.953,0,0,0,2.08-2.045,4.917,4.917,0,0,0,.735-1.316,2.532,2.532,0,0,0,.142-.765,1.236,1.236,0,0,0-.213-.753l-.113.077a1.6,1.6,0,0,1-.373,1.168,5.783,5.783,0,0,1-.883.948c-.166.148-.332.285-.51.421s-.344.279-.533.4l-.545.391-.569.367-2.3,1.464a7.341,7.341,0,0,1-2.365,1.043,6.647,6.647,0,0,1-2.584.071,8.348,8.348,0,0,1-2.5-.883,13.659,13.659,0,0,1-4.173-3.527l-.113.077a13.385,13.385,0,0,0,1.749,2.217,12.29,12.29,0,0,0,2.193,1.826,9.032,9.032,0,0,0,2.632,1.156c-1.162,1.624-2.24,3.278-3.361,4.89-.64.925-1.268,1.849-1.938,2.715a7.117,7.117,0,0,1-1.061,1.15,1.688,1.688,0,0,1-.516.314c-.03,0-.065.018-.083.018a.161.161,0,0,0-.053,0,.1.1,0,0,0-.059-.018l-.089-.071a3.576,3.576,0,0,1-.723-1.262,14.509,14.509,0,0,1-.5-1.583c-.285-1.085-.5-2.2-.693-3.319-.4-2.24-.676-4.5-.913-6.781h-.136c.024,2.3.154,4.582.373,6.87.124,1.144.279,2.282.51,3.426a15.139,15.139,0,0,0,.439,1.713,7.742,7.742,0,0,0,.332.859,3.043,3.043,0,0,0,.569.859c.077.071.16.136.237.2a2.773,2.773,0,0,0,.326.16,2.507,2.507,0,0,0,.367.065,2.106,2.106,0,0,0,.338-.03,2.724,2.724,0,0,0,1-.462,8.467,8.467,0,0,0,1.369-1.251,18.28,18.28,0,0,0,2.057-2.851c.166-.285.32-.581.48-.865.865,1.209,1.707,2.43,2.5,3.681.492.782.966,1.577,1.393,2.389a11.657,11.657,0,0,1,.575,1.239,3.71,3.71,0,0,1,.2.634c.065.267.071.285-.089.391a3.136,3.136,0,0,1-1.251.243c-.45.018-.907.006-1.369-.012-.919-.047-1.831-.136-2.75-.249-1.832-.219-3.657-.516-5.483-.824s-3.645-.646-5.459-.99l-2.727-.522-.688-.13-.344-.059-.178-.03a.483.483,0,0,1-.059-.006H150a.984.984,0,0,0-.13.018.749.749,0,0,0-.154.077.456.456,0,0,0-.19.219,1.044,1.044,0,0,0-.053.119l-.018.083a.957.957,0,0,0-.018.279,2.053,2.053,0,0,0,.059.415c.053.255.124.486.2.717.611,1.808,1.375,3.485,2.11,5.192l2.223,5.091c1.446,3.4,2.845,6.822,3.936,10.319a28.93,28.93,0,0,1,1.215,5.269,7.237,7.237,0,0,1-.059,2.513,2.286,2.286,0,0,1-.456.948c-.279.308-.611.646-.931.96-1.286,1.28-2.691,2.489-4.078,3.7s-2.8,2.424-4.167,3.7a48.026,48.026,0,0,0-3.912,4.007,17.871,17.871,0,0,0-1.642,2.288,7.348,7.348,0,0,0-1.008,2.626l.136.024a11.121,11.121,0,0,1,2.981-4.522,49.477,49.477,0,0,1,4.078-3.71c2.839-2.359,5.8-4.57,8.565-7.136.344-.332.67-.652,1.014-1.025a3.659,3.659,0,0,0,.771-1.517,8.81,8.81,0,0,0,.124-3.011,29.082,29.082,0,0,0-1.34-5.53c-1.2-3.556-2.691-6.964-4.22-10.349l-2.318-5.056c-.759-1.683-1.565-3.367-2.169-5.062-.071-.207-.136-.421-.184-.622-.012-.047-.018-.089-.03-.13l.249.041.682.113L154,51.32c1.826.314,3.657.616,5.495.9s3.675.516,5.53.693c.925.089,1.855.16,2.792.184a14.034,14.034,0,0,0,1.411-.024c.237-.018.474-.041.711-.083a2.068,2.068,0,0,0,.729-.255.642.642,0,0,0,.3-.391.9.9,0,0,0-.047-.427,4.071,4.071,0,0,0-.231-.688Zm-20.615-.575h0Z" transform="translate(-142.554 -19.102)" fill="#919191"/>
            <path id="Trazado_113945" data-name="Trazado 113945" d="M210.7,60.442a1.92,1.92,0,0,0-.759-.468,5.547,5.547,0,0,0-1.523-.225c-1.974-.024-3.87.279-5.779.433-.954.083-1.9.148-2.851.142a11.13,11.13,0,0,1-1.411-.083,4.811,4.811,0,0,1-1.34-.32,6.234,6.234,0,0,1-2.211-1.666,13.523,13.523,0,0,1-1.63-2.323A25.6,25.6,0,0,1,191,50.65l-.13.036a25.493,25.493,0,0,0,2.086,5.382,14.194,14.194,0,0,0,1.612,2.418,6.632,6.632,0,0,0,2.312,1.82,5.176,5.176,0,0,0,1.44.379,13.426,13.426,0,0,0,1.458.119c.972.03,1.938-.018,2.9-.077,1.92-.113,3.841-.362,5.708-.3a4.852,4.852,0,0,1,1.316.213,1.181,1.181,0,0,1,.456.285.635.635,0,0,1,.142.421,1.086,1.086,0,0,1-.041.273c-.036.089-.053.172-.1.267a5.8,5.8,0,0,1-.338.575,13.475,13.475,0,0,1-.836,1.126c-1.191,1.476-2.5,2.887-3.776,4.315-2.572,2.851-5.145,5.72-7.5,8.778a51.587,51.587,0,0,0-3.331,4.771c-.255.415-.5.836-.735,1.268s-.456.871-.676,1.31-.4.907-.593,1.363c-.16.474-.35.937-.468,1.434a9.27,9.27,0,0,0-.35,3.07c.03.267.053.533.095.794l.213.788c.16.492.326.913.5,1.375.693,1.8,1.4,3.58,2.069,5.364s1.316,3.58,1.867,5.394a46.962,46.962,0,0,1,1.3,5.524,29.585,29.585,0,0,1,.332,5.655,26.1,26.1,0,0,1-.919,5.625l.13.041a23.947,23.947,0,0,0,1.4-5.619,29.5,29.5,0,0,0-.012-5.832,40.638,40.638,0,0,0-1.085-5.726c-.51-1.873-1.108-3.716-1.749-5.536-.658-1.814-1.351-3.6-2.027-5.4-.154-.445-.356-.907-.492-1.328l-.172-.6c-.03-.207-.053-.421-.077-.634a8,8,0,0,1,.273-2.626c.095-.445.261-.877.4-1.31.178-.427.32-.865.528-1.286s.385-.848.611-1.262.439-.83.682-1.239a49.763,49.763,0,0,1,3.153-4.736c2.276-3.058,4.777-5.957,7.3-8.849,1.257-1.452,2.531-2.887,3.728-4.416.3-.385.593-.771.859-1.2a5.612,5.612,0,0,0,.379-.67,3.023,3.023,0,0,0,.142-.409,2.165,2.165,0,0,0,.053-.439,1.381,1.381,0,0,0-.344-.9Z" transform="translate(-162.083 -26.665)" fill="#919191"/>
          </g>
        </g>
      </g>
      <g id="Dresses" transform="translate(11.246 25.962)">
        <g id="Grupo_960320" data-name="Grupo 960320">
          <path id="Trazado_113946" data-name="Trazado 113946" d="M49.035,49.77s0,.059.012.166c.095,1.18.6,8.387-1.049,10.45-1.8,2.246-5.992,4.8-12.429,6.141s-11.084,2.1-13.182,6.887S18.64,93.631,18.64,93.631a12.534,12.534,0,0,0,4.8,2.549c2.845.747,4.641.45,5.69.747l1.049.3,2.549-4.8L37.216,116.1l-.148,8.387S29.73,140.065,27.181,153.7s-3.3,55.271-3.444,61.708-.6,12.429-.6,12.429l-.148,25.386H99.38s-.3-59.983-3.147-79.158S83.65,126.13,83.051,124.488a8.97,8.97,0,0,1-.747-2.993,41.153,41.153,0,0,0-.45-5.844,6.368,6.368,0,0,1-.3-1.8S84.1,107.264,84.1,103.82V97.229l1.8,3.147s1.8,1.5,5.542-.148,6.141-5.844,7.338-6.739a8.656,8.656,0,0,0,1.648-1.5s-2.993-11.534-5.69-17.971S81.7,65.329,78.256,64.132s-10.035-3.3-11.084-5.24-.776-9.116-.776-9.116H49.035Z" transform="translate(-18.634 -46.231)" fill="#263238" stroke="#263238" stroke-miterlimit="10" stroke-width="1"/>
          <path id="Trazado_113947" data-name="Trazado 113947" d="M84.09,97.233l1.8,3.147s1.8,1.5,5.542-.148,6.141-5.844,7.338-6.739a8.657,8.657,0,0,0,1.648-1.5s-2.993-11.534-5.69-17.971-13.034-8.689-16.478-9.887-10.035-3.3-11.084-5.24-.776-9.116-.776-9.116H49.025s0,.059.012.166c.095,1.18.6,8.387-1.049,10.45-1.8,2.246-5.992,4.8-12.429,6.141s-11.084,2.1-13.182,6.887S18.63,93.647,18.63,93.647a12.534,12.534,0,0,0,4.8,2.549c2.845.747,4.641.45,5.69.747l1.049.3,2.549-4.8,4.493,23.667s26.785,5.435,44.335-2.246c0,0,2.549-6.591,2.549-10.035V97.245Z" transform="translate(-18.63 -46.236)" fill="#fff" stroke="#263238" stroke-miterlimit="10" stroke-width="1"/>
          <path id="Trazado_113948" data-name="Trazado 113948" d="M71.722,70.713c10.349.391,16.685-3.865,19.844-6.876-3.58-1.227-9.288-3.159-10.26-4.961-1.049-1.95-.776-9.116-.776-9.116H63.17s0,.059.012.166c.095,1.18.6,8.387-1.049,10.45-1.428,1.79-4.38,3.764-8.772,5.174,2.235,1.814,7.486,4.748,18.357,5.163Z" transform="translate(-32.775 -46.227)" fill="#858585" stroke="#263238" stroke-linecap="round" stroke-linejoin="round" stroke-width="1"/>
          <path id="Trazado_113949" data-name="Trazado 113949" d="M87.277,47.339c0,1.956-3.888,3.539-8.683,3.539s-8.683-1.583-8.683-3.539S73.8,43.8,78.593,43.8,87.277,45.383,87.277,47.339Z" transform="translate(-39.515 -43.8)" fill="#a3a3a3" stroke="#263238" stroke-linecap="round" stroke-linejoin="round" stroke-width="1"/>
          <path id="Trazado_113950" data-name="Trazado 113950" d="M62,164.49a4.764,4.764,0,0,0-.788,3.361c.2,2.175.2,6.324.2,6.324s-.99,11.659-.788,21.735" transform="translate(-35.721 -92.955)" fill="none" stroke="gray" stroke-miterlimit="10" stroke-width="1"/>
          <path id="Trazado_113951" data-name="Trazado 113951" d="M56.471,177.49S52.719,199.225,54.1,209.5" transform="translate(-32.952 -98.249)" fill="none" stroke="gray" stroke-miterlimit="10" stroke-width="1"/>
          <path id="Trazado_113952" data-name="Trazado 113952" d="M40.458,227.26c-.065.581-.113,1.15-.148,1.719" transform="translate(-27.46 -118.52)" fill="none" stroke="gray" stroke-miterlimit="10" stroke-width="1"/>
          <path id="Trazado_113953" data-name="Trazado 113953" d="M50.02,181.16s-6.5,12.394-8.66,24.1" transform="translate(-27.887 -99.744)" fill="none" stroke="gray" stroke-miterlimit="10" stroke-width="1"/>
          <path id="Trazado_113954" data-name="Trazado 113954" d="M105.112,233.03c-.036.848-.083,1.666-.142,2.448" transform="translate(-53.795 -120.87)" fill="none" stroke="gray" stroke-miterlimit="10" stroke-width="1"/>
          <path id="Trazado_113955" data-name="Trazado 113955" d="M101.97,167.82v6.917a264.751,264.751,0,0,1,1.992,28.3" transform="translate(-52.573 -94.311)" fill="none" stroke="gray" stroke-miterlimit="10" stroke-width="1"/>
          <path id="Trazado_113956" data-name="Trazado 113956" d="M116.64,163.49l.788,7.51s5.139,17.586,5.139,31.811" transform="translate(-58.548 -92.547)" fill="none" stroke="gray" stroke-miterlimit="10" stroke-width="1"/>
          <path id="Trazado_113957" data-name="Trazado 113957" d="M136.33,221.03a30.379,30.379,0,0,1,.379,4.428" transform="translate(-66.567 -115.982)" fill="none" stroke="gray" stroke-miterlimit="10" stroke-width="1"/>
          <path id="Trazado_113958" data-name="Trazado 113958" d="M120.97,161.49c0,.593.99,7.705.99,7.705a190.171,190.171,0,0,1,7.273,23.134" transform="translate(-60.311 -91.733)" fill="none" stroke="gray" stroke-miterlimit="10" stroke-width="1"/>
        </g>
        <path id="Trazado_113959" data-name="Trazado 113959" d="M265.559,44.51A17.209,17.209,0,0,0,248.37,61.7V242.775H253.7V61.7a11.866,11.866,0,0,1,11.854-11.854H376.1V44.51H265.559Z" transform="translate(-112.199 -44.089)" fill="#fff" stroke="#263238" stroke-miterlimit="10" stroke-width="1"/>
        <g id="Grupo_960323" data-name="Grupo 960323" transform="translate(188.752 0.003)">
          <g id="Grupo_960321" data-name="Grupo 960321" transform="translate(12.05)">
            <path id="Trazado_113960" data-name="Trazado 113960" d="M399.463,89.452l-3.39-2.341a31.97,31.97,0,0,1-11.036-13.834l-2.827-6.6h-4.487l-2.827,6.6a32.081,32.081,0,0,1-11.036,13.834l-3.39,2.341a7.588,7.588,0,0,0-3.058,6.259h45.118a7.58,7.58,0,0,0-3.058-6.259Zm-18.238,3.491H361.838c0-2.08,3.313-4.007,4.629-5.068l2.347-1.9a25.589,25.589,0,0,0,7.646-11.191l1.956-5.334h3.106l1.956,5.334a25.624,25.624,0,0,0,7.646,11.191l2.347,1.9c1.31,1.061,4.564,2.987,4.564,5.068Z" transform="translate(-357.41 -53.121)" fill="#fff" stroke="#263238" stroke-linejoin="round" stroke-width="1"/>
            <path id="Trazado_113961" data-name="Trazado 113961" d="M393.995,57.256V52.414s2.768-2.075,2.768-5.074-2.306-4.149-4.843-3.224" transform="translate(-371.465 -43.804)" fill="none" stroke="#263238" stroke-linecap="round" stroke-linejoin="round" stroke-width="1"/>
          </g>
          <g id="Grupo_960322" data-name="Grupo 960322" transform="translate(0 19.575)">
            <path id="Trazado_113962" data-name="Trazado 113962" d="M365.145,79.185,370.367,94.2l6.384-16.389s10.912,11.167,14.5,13.129,6.852,4.57,7.83,9.792,6.2,57.44,6.2,57.44l-12.074.652,1.091,29.529H345.562l2.94-30.839H337.08s7.178-56.462,9.14-60.374,18.931-17.948,18.931-17.948Z" transform="translate(-337.08 -77.229)" fill="#263238" stroke="#263238" stroke-linejoin="round" stroke-width="1"/>
            <path id="Trazado_113963" data-name="Trazado 113963" d="M376.17,82.378l2.94,15.992,6.2-10.444-3.918-11.1Z" transform="translate(-353.001 -76.83)" fill="#fff" stroke="#263238" stroke-linejoin="round" stroke-width="1"/>
            <path id="Trazado_113964" data-name="Trazado 113964" d="M400.3,77.81,394.89,88.651l5.548,10.77,4.57-17.948Z" transform="translate(-360.625 -77.229)" fill="#fff" stroke="#263238" stroke-linejoin="round" stroke-width="1"/>
            <line id="Línea_151" data-name="Línea 151" x1="2.608" y1="49.605" transform="translate(53.523 31.983)" fill="none" stroke="gray" stroke-miterlimit="10" stroke-width="1"/>
            <line id="Línea_152" data-name="Línea 152" y1="48.301" x2="4.57" transform="translate(11.422 31.983)" fill="none" stroke="#263238" stroke-linejoin="round" stroke-width="1"/>
          </g>
        </g>
        <g id="Grupo_960326" data-name="Grupo 960326" transform="translate(175.83 0.003)">
          <g id="Grupo_960324" data-name="Grupo 960324" transform="translate(12.044)">
            <path id="Trazado_113965" data-name="Trazado 113965" d="M377.653,89.452l-3.39-2.341a31.97,31.97,0,0,1-11.036-13.834l-2.827-6.6h-4.487l-2.827,6.6a32.081,32.081,0,0,1-11.036,13.834l-3.39,2.341a7.588,7.588,0,0,0-3.058,6.259h45.118a7.58,7.58,0,0,0-3.058-6.259Zm-18.238,3.491H340.028c0-2.08,3.313-4.007,4.629-5.068l2.347-1.9a25.589,25.589,0,0,0,7.646-11.191l1.956-5.334h3.106l1.956,5.334a25.624,25.624,0,0,0,7.646,11.191l2.347,1.9c1.31,1.061,4.564,2.987,4.564,5.068Z" transform="translate(-335.6 -53.121)" fill="#fff" stroke="#263238" stroke-linejoin="round" stroke-width="1"/>
            <path id="Trazado_113966" data-name="Trazado 113966" d="M372.185,57.256V52.414s2.768-2.075,2.768-5.074-2.306-4.149-4.843-3.224" transform="translate(-349.655 -43.804)" fill="none" stroke="#263238" stroke-linecap="round" stroke-linejoin="round" stroke-width="1"/>
          </g>
          <g id="Grupo_960325" data-name="Grupo 960325" transform="translate(0 19.575)">
            <path id="Trazado_113967" data-name="Trazado 113967" d="M343.345,79.185,348.567,94.2l6.384-16.389s10.912,11.167,14.5,13.129,6.852,4.57,7.83,9.792,6.2,57.44,6.2,57.44l-12.074.652,1.091,29.529H323.762l2.94-30.839H315.28s7.178-56.462,9.14-60.374,18.931-17.948,18.931-17.948Z" transform="translate(-315.28 -77.229)" fill="#ffa17b" stroke="#263238" stroke-linejoin="round" stroke-width="1"/>
            <path id="Trazado_113968" data-name="Trazado 113968" d="M354.37,82.378,357.3,98.369l6.2-10.444-3.912-11.1Z" transform="translate(-331.201 -76.83)" fill="#ffa17b" stroke="#263238" stroke-linejoin="round" stroke-width="1"/>
            <path id="Trazado_113969" data-name="Trazado 113969" d="M378.5,77.81,373.09,88.651l5.548,10.77,4.57-17.948Z" transform="translate(-338.825 -77.229)" fill="#ffa17b" stroke="#263238" stroke-linejoin="round" stroke-width="1"/>
            <line id="Línea_153" data-name="Línea 153" x1="2.614" y1="49.605" transform="translate(53.517 31.983)" fill="none" stroke="#263238" stroke-linejoin="round" stroke-width="1"/>
            <line id="Línea_154" data-name="Línea 154" y1="48.301" x2="4.57" transform="translate(11.416 31.983)" fill="none" stroke="#263238" stroke-linejoin="round" stroke-width="1"/>
          </g>
        </g>
        <g id="Grupo_960329" data-name="Grupo 960329" transform="translate(147.534 0.005)">
          <g id="Grupo_960328" data-name="Grupo 960328">
            <g id="Grupo_960327" data-name="Grupo 960327" transform="translate(9.661)">
              <path id="Trazado_113970" data-name="Trazado 113970" d="M328.264,92.007l-3.58-2.478a33.829,33.829,0,0,1-11.659-14.6l-2.987-6.964H305.3l-2.987,6.964a33.794,33.794,0,0,1-11.659,14.6l-3.58,2.478a8.021,8.021,0,0,0-3.23,6.615h47.649a8.021,8.021,0,0,0-3.23-6.615ZM309,95.693H288.522c0-2.2,3.5-4.232,4.89-5.352l2.478-2a27.053,27.053,0,0,0,8.073-11.819l2.069-5.637h3.284l2.069,5.637a27.052,27.052,0,0,0,8.073,11.819l2.478,2c1.387,1.12,4.819,3.153,4.819,5.352H309Z" transform="translate(-283.84 -53.645)" fill="#fff" stroke="#263238" stroke-linejoin="round" stroke-width="1"/>
              <path id="Trazado_113971" data-name="Trazado 113971" d="M322.5,58.011V52.9s2.922-2.193,2.922-5.358-2.436-4.38-5.109-3.408" transform="translate(-298.693 -43.809)" fill="none" stroke="#263238" stroke-linecap="round" stroke-linejoin="round" stroke-width="1"/>
            </g>
            <path id="Trazado_113972" data-name="Trazado 113972" d="M287.39,95.51s5.429,6.259,12.252,6.366c7.243.113,15.754-6.224,15.754-6.224a35.628,35.628,0,0,0,6.307,4.356c3.793,2.069,6.283,5.091,8.274,10.343,2.217,5.85,7.113,21.753,7.113,21.753l-14.095.688,1.932,31.965H278.049l3.177-32.564H267.54s4.534-21.5,6.6-25.635S287.4,95.51,287.4,95.51Z" transform="translate(-267.54 -64.866)" fill="#fff" stroke="#263238" stroke-linejoin="round" stroke-width="1"/>
          </g>
          <line id="Línea_155" data-name="Línea 155" y1="17.088" x2="0.717" transform="translate(13.674 50.24)" fill="none" stroke="#263238" stroke-linejoin="round" stroke-width="1"/>
          <line id="Línea_156" data-name="Línea 156" x1="1.102" y1="16.59" transform="translate(54.346 51.336)" fill="none" stroke="#263238" stroke-linejoin="round" stroke-width="1"/>
        </g>
      </g>
      <g id="Table" transform="translate(3.286 233.118)">
        <line id="Línea_157" data-name="Línea 157" x2="272.651" fill="none" stroke="#263238" stroke-linecap="round" stroke-linejoin="round" stroke-width="1"/>
      </g>
      <g id="Plant" transform="translate(0.5 182.031)">
        <g id="Grupo_960332" data-name="Grupo 960332">
          <path id="Trazado_113973" data-name="Trazado 113973" d="M16.237,329.257a14.546,14.546,0,0,0-1.642-6.022c-1.506-2.466-6.976-4.244-9.851-3.011A39.652,39.652,0,0,0,.5,322.275,32.374,32.374,0,0,1,8.573,326.1a20.233,20.233,0,0,0,7.664,3.147Z" transform="translate(-0.5 -312.288)" fill="#ff8a5b" stroke="#263238" stroke-linecap="round" stroke-linejoin="round" stroke-width="1"/>
          <path id="Trazado_113974" data-name="Trazado 113974" d="M34.078,325.858a14.065,14.065,0,0,1-3.829-7.528c-.545-4.38,4.108-11.22,4.108-11.22a48.8,48.8,0,0,1,3.693,9.169c1.369,4.926-3.965,9.578-3.965,9.578Z" transform="translate(-12.598 -307.11)" fill="#ff8a5b" stroke="#263238" stroke-linecap="round" stroke-linejoin="round" stroke-width="1"/>
          <path id="Trazado_113975" data-name="Trazado 113975" d="M47.205,330.088s-.824-4.108.682-6.976,5.471-2.6,9.442-1.369a22.236,22.236,0,0,0,5.2,1.233,59.165,59.165,0,0,1-8.618,4.789A52.849,52.849,0,0,1,47.205,330.088Z" transform="translate(-19.431 -312.71)" fill="#ff8a5b" stroke="#263238" stroke-linecap="round" stroke-linejoin="round" stroke-width="1"/>
          <path id="Trazado_113976" data-name="Trazado 113976" d="M36.556,347.377a.357.357,0,0,1-.356-.356V327.456a.356.356,0,1,1,.711,0v19.566A.357.357,0,0,1,36.556,347.377Z" transform="translate(-15.04 -315.252)" fill="#263238"/>
          <path id="Trazado_113977" data-name="Trazado 113977" d="M39.328,348.231H39.28a.353.353,0,0,1-.3-.4c.065-.492,1.719-12.08,7.338-18.517a.353.353,0,1,1,.533.462c-5.477,6.277-7.154,18.031-7.166,18.149a.356.356,0,0,1-.35.308Z" transform="translate(-16.17 -316.105)" fill="#263238"/>
          <path id="Trazado_113978" data-name="Trazado 113978" d="M29.181,348.8h0a.352.352,0,0,1-.35-.356c0-.113.053-11.25-6.573-16.549a.354.354,0,1,1,.445-.551c6.9,5.518,6.846,16.638,6.84,17.112a.352.352,0,0,1-.356.35Z" transform="translate(-9.308 -316.948)" fill="#263238"/>
          <g id="Grupo_960330" data-name="Grupo 960330" transform="translate(25 21.77)">
            <path id="Trazado_113979" data-name="Trazado 113979" d="M43.029,355.611a.23.23,0,0,1-.089-.012.35.35,0,0,1-.249-.433,22.926,22.926,0,0,1,3.2-6.686.351.351,0,0,1,.492-.077.346.346,0,0,1,.077.492,22.589,22.589,0,0,0-3.094,6.449.349.349,0,0,1-.344.261Z" transform="translate(-42.678 -345.671)" fill="#ff8a5b"/>
            <path id="Trazado_113980" data-name="Trazado 113980" d="M46.9,348.344s-.136-3.829,1.506-4.38,3.147.824,4.38,1.642,2.6,1.642,2.6,4.108a45.911,45.911,0,0,1-.96,6.976s-1.369-4.244-3.693-6.158a9.633,9.633,0,0,0-3.829-2.187Z" transform="translate(-44.395 -343.839)" fill="#ff8a5b" stroke="#263238" stroke-linecap="round" stroke-linejoin="round" stroke-width="1"/>
          </g>
          <g id="Grupo_960331" data-name="Grupo 960331" transform="translate(4.653 22.123)">
            <path id="Trazado_113981" data-name="Trazado 113981" d="M27.1,356.6a.356.356,0,0,1-.338-.243,12.6,12.6,0,0,0-3.574-5.3.355.355,0,0,1,.439-.557,13.041,13.041,0,0,1,3.811,5.643.353.353,0,0,1-.231.445A.336.336,0,0,1,27.1,356.6Z" transform="translate(-14.338 -346.874)" fill="#ff8a5b"/>
            <path id="Trazado_113982" data-name="Trazado 113982" d="M19.434,349.814a5.685,5.685,0,0,0-.824-4.244c-1.369-1.778-4.653-1.369-6.295.545s-3.965,7.664-3.965,7.664a13.008,13.008,0,0,1,7.113-2.6c3.829,0,3.965-1.369,3.965-1.369Z" transform="translate(-8.35 -344.435)" fill="#ff8a5b" stroke="#263238" stroke-linecap="round" stroke-linejoin="round" stroke-width="1"/>
          </g>
          <path id="Trazado_113983" data-name="Trazado 113983" d="M34.187,383.82H23.269L17.81,365.76H39.646Z" transform="translate(-7.55 -330.997)" fill="#fff" stroke="#263238" stroke-linecap="round" stroke-linejoin="round" stroke-width="1"/>
          <rect id="Rectángulo_33848" data-name="Rectángulo 33848" width="21.96" height="2.993" transform="translate(10.195 31.77)" fill="#fff" stroke="#263238" stroke-linecap="round" stroke-linejoin="round" stroke-width="1"/>
        </g>
      </g>
      <g id="Threads" transform="translate(223.878 202.16)">
        <g id="Grupo_960333" data-name="Grupo 960333" transform="translate(13.757)">
          <rect id="Rectángulo_33849" data-name="Rectángulo 33849" width="5.133" height="2.97" transform="translate(7.13)" fill="#fff" stroke="#263238" stroke-linecap="round" stroke-linejoin="round" stroke-width="1"/>
          <path id="Trazado_113984" data-name="Trazado 113984" d="M419.974,375.247H400.58l4.594-30.537h10.213Z" transform="translate(-400.58 -342.553)" fill="#858585" stroke="#263238" stroke-linecap="round" stroke-linejoin="round" stroke-width="1"/>
          <line id="Línea_158" data-name="Línea 158" y1="5.003" x2="9.389" transform="translate(3.971 2.199)" fill="none" stroke="#263238" stroke-linecap="round" stroke-linejoin="round" stroke-width="1"/>
          <line id="Línea_159" data-name="Línea 159" y1="5.003" x2="9.389" transform="translate(3.971 4.754)" fill="none" stroke="#263238" stroke-linecap="round" stroke-linejoin="round" stroke-width="1"/>
          <line id="Línea_160" data-name="Línea 160" x1="9.495" y2="5.305" transform="translate(5.909 7.409)" fill="none" stroke="#263238" stroke-linecap="round" stroke-linejoin="round" stroke-width="1"/>
          <line id="Línea_161" data-name="Línea 161" y1="1.63" x2="3.272" transform="translate(5.601 14.35)" fill="none" stroke="#263238" stroke-linecap="round" stroke-linejoin="round" stroke-width="1"/>
          <line id="Línea_162" data-name="Línea 162" x1="13.68" y2="7.148" transform="translate(3.562 19.346)" fill="none" stroke="#263238" stroke-linecap="round" stroke-linejoin="round" stroke-width="1"/>
          <line id="Línea_163" data-name="Línea 163" y1="5.72" x2="10.924" transform="translate(4.991 23.531)" fill="none" stroke="#263238" stroke-linecap="round" stroke-linejoin="round" stroke-width="1"/>
          <line id="Línea_164" data-name="Línea 164" x1="2.655" y2="1.529" transform="translate(1.114 29.76)" fill="none" stroke="#263238" stroke-linecap="round" stroke-linejoin="round" stroke-width="1"/>
          <line id="Línea_165" data-name="Línea 165" x1="7.042" y2="3.675" transform="translate(11.22 27.514)" fill="none" stroke="#263238" stroke-linecap="round" stroke-linejoin="round" stroke-width="1"/>
        </g>
        <g id="Grupo_960334" data-name="Grupo 960334">
          <rect id="Rectángulo_33850" data-name="Rectángulo 33850" width="5.133" height="2.97" transform="translate(7.13)" fill="#fff" stroke="#263238" stroke-linecap="round" stroke-linejoin="round" stroke-width="1"/>
          <path id="Trazado_113985" data-name="Trazado 113985" d="M396.764,375.247H377.37l4.588-30.537H392.17Z" transform="translate(-377.37 -342.553)" fill="#fff" stroke="#263238" stroke-linecap="round" stroke-linejoin="round" stroke-width="1"/>
          <line id="Línea_166" data-name="Línea 166" y1="5.003" x2="9.395" transform="translate(3.965 2.199)" fill="none" stroke="#263238" stroke-linecap="round" stroke-linejoin="round" stroke-width="1"/>
          <line id="Línea_167" data-name="Línea 167" y1="5.003" x2="9.395" transform="translate(3.965 4.754)" fill="none" stroke="#263238" stroke-linecap="round" stroke-linejoin="round" stroke-width="1"/>
          <line id="Línea_168" data-name="Línea 168" x1="9.489" y2="5.305" transform="translate(5.909 7.409)" fill="none" stroke="#263238" stroke-linecap="round" stroke-linejoin="round" stroke-width="1"/>
          <line id="Línea_169" data-name="Línea 169" y1="1.63" x2="3.266" transform="translate(5.601 14.35)" fill="none" stroke="#263238" stroke-linecap="round" stroke-linejoin="round" stroke-width="1"/>
          <line id="Línea_170" data-name="Línea 170" x1="13.674" y2="7.148" transform="translate(3.562 19.346)" fill="none" stroke="#263238" stroke-linecap="round" stroke-linejoin="round" stroke-width="1"/>
          <line id="Línea_171" data-name="Línea 171" y1="5.72" x2="10.918" transform="translate(4.991 23.531)" fill="none" stroke="#263238" stroke-linecap="round" stroke-linejoin="round" stroke-width="1"/>
          <line id="Línea_172" data-name="Línea 172" x1="2.655" y2="1.529" transform="translate(1.108 29.76)" fill="none" stroke="#263238" stroke-linecap="round" stroke-linejoin="round" stroke-width="1"/>
          <line id="Línea_173" data-name="Línea 173" x1="7.042" y2="3.675" transform="translate(11.214 27.514)" fill="none" stroke="#263238" stroke-linecap="round" stroke-linejoin="round" stroke-width="1"/>
        </g>
      </g>
      <g id="Character" transform="translate(46.755 63.877)">
        <g id="Grupo_960343" data-name="Grupo 960343" transform="translate(44.726)">
          <g id="Grupo_960336" data-name="Grupo 960336" transform="translate(0.167 64.467)">
            <path id="Trazado_113986" data-name="Trazado 113986" d="M213.433,216.974S189.92,221.52,183.6,223.1s-8.7,6.324-10.865,11.659-17.586,39.12-18.374,41.093,4.149,3.159,10.272,5.334,9.679,4.546,11.457,2.175,6.324-11.457,6.324-11.457l-1.974,49.593h72.9l-3.159-51.762s2.768-40.3,2.566-41.887-24.3-11.066-26.868-11.262-12.447.4-12.447.4Z" transform="translate(-154.28 -216.537)" fill="#ffa17b"/>
            <g id="Grupo_960335" data-name="Grupo 960335" transform="translate(4.493 8.468)" opacity="0.4">
              <path id="Trazado_113987" data-name="Trazado 113987" d="M200.019,351.236l-.119,3.035a252.85,252.85,0,0,0,70.747,1.1l-.184-2.964a248.485,248.485,0,0,1-70.445-1.174Z" transform="translate(-177.353 -279.861)" fill="#fff"/>
              <path id="Trazado_113988" data-name="Trazado 113988" d="M253.254,265.612c-1.381,1.221-14.024,12.062-28.67,13.022-15.511,1.019-28.972-6.876-29.061-6.923l-17.746-11.534c-.391.877-.806,1.8-1.227,2.738l17.408,11.315c.581.344,14.368,8.44,30.821,7.368,16.507-1.085,30.039-13.39,30.6-13.911a1.447,1.447,0,0,0,.231-.273,54.649,54.649,0,0,1,5.293-6.5c.095-1.529.19-3.023.279-4.457a56.5,56.5,0,0,0-7.937,9.158Z" transform="translate(-167.843 -241.263)" fill="#fff"/>
              <path id="Trazado_113989" data-name="Trazado 113989" d="M163.081,295.38q-.631,1.4-1.221,2.7l21.771,9.566c.545-1.049,1.025-1.98,1.357-2.638l-21.913-9.626Z" transform="translate(-161.86 -257.114)" fill="#fff"/>
              <path id="Trazado_113990" data-name="Trazado 113990" d="M185.97,239.764c7.753,3.983,29.8,15.055,36.838,15.737,7.012.682,30.661-15.731,41-23.193-.8-.439-1.826-.942-3.005-1.488-13.959,9.981-32.866,22.2-37.715,21.735-5.809-.563-24.746-9.727-35.9-15.488-.433.871-.836,1.772-1.221,2.7Z" transform="translate(-171.68 -230.82)" fill="#fff"/>
              <path id="Trazado_113991" data-name="Trazado 113991" d="M201.776,311.029c1.008.308,24.9,7.492,43.292,5.358,15.743-1.826,22.594-7.136,24.509-8.938l-.19-3.106s.071-1.043.19-2.8a11.122,11.122,0,0,0-1.9,3.627c-1.215,1.174-7.486,6.484-22.95,8.274-17.254,2-40.447-4.76-42.006-5.222l-1.144-.5-.124,3.183.166.071a1.369,1.369,0,0,0,.166.059Z" transform="translate(-177.984 -259.623)" fill="#fff"/>
              <path id="Trazado_113992" data-name="Trazado 113992" d="M213.879,265.37c12.8,2.175,28.344-5.257,38.07-13.591,3.491-2.993,7.806-6.265,11.807-9.175.083-1.529.154-2.821.2-3.793-4.558,3.266-9.8,7.184-13.935,10.722-9.2,7.889-23.792,14.942-35.646,12.921-9.644-1.642-25.4-12.406-31.26-16.6-.344.788-.753,1.725-1.221,2.78,6.384,4.558,21.9,15.031,31.983,16.744Z" transform="translate(-170.018 -234.074)" fill="#fff"/>
              <path id="Trazado_113993" data-name="Trazado 113993" d="M271.031,376.792l-.178-2.958c-15.168.782-45.331,1.837-71.725-.314l-.119,2.958c11.706.948,24.124,1.274,35.664,1.274,14.64,0,27.846-.522,36.357-.966Z" transform="translate(-176.99 -288.939)" fill="#fff"/>
              <path id="Trazado_113994" data-name="Trazado 113994" d="M210.927,335.772c17.995,2.6,51.4.036,59.379-.64l-.533-8.772a8.017,8.017,0,0,0-.35.794,1.5,1.5,0,0,0-.071.788l.771,4.232c-7.729.646-41.271,3.2-58.762.664-3.473-.5-7.071-1.12-10.651-1.8l-.119,2.993c3.479.652,6.97,1.245,10.349,1.737Z" transform="translate(-177.634 -269.732)" fill="#fff"/>
              <path id="Trazado_113995" data-name="Trazado 113995" d="M189.241,291.742c1.162.7,17.829,10.527,35.64,8.4,18.066-2.158,30.069-13.976,30.572-14.48a1.277,1.277,0,0,0,.308-.445,7.144,7.144,0,0,1,1.369-1.612c.089-1.322.178-2.7.273-4.119a15.473,15.473,0,0,0-4.2,4.238c-1.458,1.381-12.726,11.576-28.664,13.478-17.035,2.039-33.625-7.913-33.791-8.014-.024-.018-.053-.03-.077-.047l-20-10.55q-.6,1.351-1.221,2.709l19.8,10.444Z" transform="translate(-164.951 -250.276)" fill="#fff"/>
            </g>
            <line id="Línea_174" data-name="Línea 174" y1="23.768" x2="4.931" transform="translate(28.13 31.596)" fill="#fff" stroke="#263238" stroke-linecap="round" stroke-linejoin="round" stroke-width="1"/>
            <path id="Trazado_113996" data-name="Trazado 113996" d="M196.1,225.167c7.107,4.961,27.876,19.2,31.793,18.866,3.6-.3,20-15.677,27.656-23.027-5.821-2.323-11.469-4.345-12.637-4.434-2.566-.2-12.447.4-12.447.4s-23.513,4.546-29.832,6.123a12.875,12.875,0,0,0-4.528,2.075Z" transform="translate(-171.313 -216.533)" fill="#fff" stroke="#263238" stroke-linecap="round" stroke-linejoin="round" stroke-width="1"/>
          </g>
          <path id="Trazado_113997" data-name="Trazado 113997" d="M213.433,216.974S189.92,221.52,183.6,223.1s-8.7,6.324-10.865,11.659-17.586,39.12-18.374,41.093,4.149,3.159,10.272,5.334,9.679,4.546,11.457,2.175,6.324-11.457,6.324-11.457l-1.974,49.593h72.9l-3.159-51.762s2.768-40.3,2.566-41.887-24.3-11.066-26.868-11.262-12.447.4-12.447.4Z" transform="translate(-154.113 -152.07)" fill="none" stroke="#263238" stroke-linecap="round" stroke-linejoin="round" stroke-width="1"/>
          <g id="Grupo_960338" data-name="Grupo 960338" transform="translate(47.46 65.692)">
            <path id="Trazado_113998" data-name="Trazado 113998" d="M280.476,218.6s-.593,11.659-3.159,28.848-2.566,16.4-2.566,24.3,1.974,33.192,1.974,33.192h3.159s-2.566-26.672-2.371-33.589,1.778-20.745,3.556-26.868,2.371-24.3,2.371-24.3Z" transform="translate(-250.638 -218.6)" fill="#fff" stroke="#263238" stroke-linecap="round" stroke-linejoin="round" stroke-width="1"/>
            <g id="Grupo_960337" data-name="Grupo 960337" transform="translate(0 0.219)">
              <path id="Trazado_113999" data-name="Trazado 113999" d="M239.44,218.976l-4.179.96a115.479,115.479,0,0,0-.99,22.523c.788,11.066,1.974,14.421,1.974,14.421s.99-26.868,1.778-31.811,1.417-6.1,1.417-6.1Z" transform="translate(-234.07 -218.97)" fill="#fff" stroke="#263238" stroke-linecap="round" stroke-linejoin="round" stroke-width="1"/>
              <path id="Trazado_114000" data-name="Trazado 114000" d="M236.925,282.936s.4,12.447-.4,25.487-.788,24.5-.788,24.5l3.556.2s-.4-15.014-.4-27.662a127.655,127.655,0,0,0-1.974-22.523Z" transform="translate(-234.75 -245.02)" fill="#fff" stroke="#263238" stroke-linecap="round" stroke-linejoin="round" stroke-width="1"/>
            </g>
          </g>
          <path id="Trazado_114001" data-name="Trazado 114001" d="M247.08,224.557l.593-19.957h20.544l-.391,18.179" transform="translate(-191.908 -147.206)" fill="#fff" stroke="#263238" stroke-linecap="round" stroke-linejoin="round" stroke-width="1"/>
          <path id="Trazado_114002" data-name="Trazado 114002" d="M268.208,210.065l-5-5.465H247.783l-.433,14.593c1.15.45,3.882,1.073,8.636-.314,6.135-1.79,11.552-7.883,12.222-8.66Z" transform="translate(-192.018 -147.206)" fill="#263238" stroke="#263238" stroke-linecap="round" stroke-linejoin="round" stroke-width="1"/>
          <path id="Trazado_114003" data-name="Trazado 114003" d="M221.03,116.465c-4.113,4.113-7.563,9.81-7.735,14.818-.2,5.892-3.657,14.225-5.489,15.037a8.662,8.662,0,0,0-2.436,1.423s3.859,1.832,5.489,1.624a12.9,12.9,0,0,0,3.047-.812,30.175,30.175,0,0,1-2.033,2.436l-.812.812,3.248.812a17.126,17.126,0,0,1-3.859,1.832,12,12,0,0,1-2.644.409,6.164,6.164,0,0,0,4.671,4.878,17.91,17.91,0,0,0,7.516.611l-2.436,2.436s.611.61,4.671.812,6.093-1.014,6.093-1.014l24.989-1.014a5.31,5.31,0,0,0,3.456,3.047c2.845,1.014,4.268,1.423,4.268,1.423s-.409-1.624-.611-2.436-.611-4.066-.611-4.066,1.423,3.657,8.126,3.859,8.938-3.657,8.938-3.657a5.415,5.415,0,0,1-4.066-2.235,11.7,11.7,0,0,1-1.832-3.047,12.527,12.527,0,0,0,4.671.812,7.383,7.383,0,0,0,3.657-1.624s-7.925-5.69-8.328-9.549-1.423-18.9-4.268-23.976-7.723-9.75-20.318-11.991c-6.816-1.209-13.964.782-19.921,4.1a25.647,25.647,0,0,0-5.465,4.25Z" transform="translate(-174.921 -107.769)" fill="#263238" stroke="#263238" stroke-linecap="round" stroke-linejoin="round" stroke-width="1"/>
          <g id="Grupo_960339" data-name="Grupo 960339" transform="translate(43.127 27.219)">
            <path id="Trazado_114004" data-name="Trazado 114004" d="M265.232,153.69A66.68,66.68,0,0,1,234.31,167.1s.047,11.955,6.5,19.939c7.006,8.671,11.309,8.743,13.111,8.606,4.9-.385,14.9-11.961,15.34-13.982a103.528,103.528,0,0,0,1.12-14.563C270.377,162.172,264.562,158.841,265.232,153.69Z" transform="translate(-229.835 -153.69)" fill="#fff" stroke="#263238" stroke-linecap="round" stroke-linejoin="round" stroke-width="1"/>
            <path id="Trazado_114005" data-name="Trazado 114005" d="M227.388,171.045a.634.634,0,0,1-.012-1.268c24.823-.688,33.749-14.445,33.838-14.581a.632.632,0,1,1,1.073.67c-.367.593-9.329,14.462-34.876,15.174h-.018Z" transform="translate(-226.759 -154.182)" fill="#263238"/>
            <path id="Trazado_114006" data-name="Trazado 114006" d="M246.9,188.4a11.409,11.409,0,0,0,4.327,0" transform="translate(-234.962 -167.827)" fill="none" stroke="#263238" stroke-linecap="round" stroke-linejoin="round" stroke-width="1"/>
            <path id="Trazado_114007" data-name="Trazado 114007" d="M277.59,187.953a12.045,12.045,0,0,0,4.991-.113" transform="translate(-247.462 -167.599)" fill="none" stroke="#263238" stroke-linecap="round" stroke-linejoin="round" stroke-width="1"/>
            <path id="Trazado_114008" data-name="Trazado 114008" d="M280.97,184.044c0,.984-.4,1.784-.9,1.784s-.9-.8-.9-1.784.4-1.784.9-1.784S280.97,183.06,280.97,184.044Z" transform="translate(-248.109 -165.326)" fill="#263238"/>
            <path id="Trazado_114009" data-name="Trazado 114009" d="M270.694,179.655a3.123,3.123,0,0,0-2.519-1.322c-2.08-.29-13.36.462-13.84.492l-.2.042a2.112,2.112,0,0,0-.35.172v-.059h-3.515v.059a2.691,2.691,0,0,0-.35-.172l-.2-.042c-.48-.03-11.76-.788-13.84-.492a3.143,3.143,0,0,0-2.519,1.322,1.75,1.75,0,0,0,.024,1.624c.047.1.107.267.184.486.652,1.837,2.389,6.727,8.506,6.959q.418.018.8.018c6.111,0,7.6-2.887,8.517-5.619.077-.237.13-.462.178-.676h.907a4.575,4.575,0,0,0,.178.676c.913,2.732,2.4,5.619,8.517,5.619.261,0,.528,0,.806-.018,6.117-.237,7.854-5.121,8.506-6.959.077-.219.136-.385.184-.486a1.75,1.75,0,0,0,.024-1.624Zm-19.3.652h1.28a3.182,3.182,0,0,0-.237.812h-.806A3.253,3.253,0,0,0,251.4,180.307ZM250.15,182.7c-.9,2.7-2.116,4.914-8.014,4.694-5.216-.2-6.68-4.321-7.308-6.081a5.967,5.967,0,0,0-.243-.628.463.463,0,0,1-.036-.415c.053-.107.326-.456,1.529-.628a11.7,11.7,0,0,1,1.434-.059c3.023,0,9.276.367,12,.551.3.16,1.215.806.628,2.561Zm19.329-2.015c-.065.13-.142.35-.243.634-.622,1.76-2.086,5.88-7.308,6.081-5.886.219-7.113-1.992-8.014-4.694-.587-1.76.326-2.4.628-2.561,3.319-.219,11.848-.723,13.443-.5,1.2.172,1.476.522,1.529.628a.482.482,0,0,1-.036.415Z" transform="translate(-229.375 -163.699)" fill="#fff" stroke="#263238" stroke-linecap="round" stroke-linejoin="round" stroke-width="1"/>
            <path id="Trazado_114010" data-name="Trazado 114010" d="M259.1,198.9s2.146,1.666,3.693,1.547a4.87,4.87,0,0,0,3.456-1.9" transform="translate(-239.931 -171.957)" fill="none" stroke="#263238" stroke-linecap="round" stroke-linejoin="round" stroke-width="1"/>
            <path id="Trazado_114011" data-name="Trazado 114011" d="M256.28,203.916s.871,2.863,6.194,2.62c3.77-.172,4.647-2.975,4.647-2.975" transform="translate(-238.783 -174.001)" fill="none" stroke="#263238" stroke-linecap="round" stroke-linejoin="round" stroke-width="1"/>
            <path id="Trazado_114012" data-name="Trazado 114012" d="M272.16,175.365s3.924-2.128,7.024-1.772a8.947,8.947,0,0,1,4.4,1.428" transform="translate(-245.25 -161.78)" fill="none" stroke="#263238" stroke-linecap="round" stroke-linejoin="round" stroke-width="2"/>
            <path id="Trazado_114013" data-name="Trazado 114013" d="M250.226,175.747a14,14,0,0,0-5.868-.948A15.126,15.126,0,0,0,239,176.227" transform="translate(-231.745 -162.274)" fill="none" stroke="#263238" stroke-linecap="round" stroke-linejoin="round" stroke-width="2"/>
            <path id="Trazado_114014" data-name="Trazado 114014" d="M249.93,184.044c0,.984-.4,1.784-.895,1.784s-.9-.8-.9-1.784.4-1.784.9-1.784S249.93,183.06,249.93,184.044Z" transform="translate(-235.467 -165.326)" fill="#263238"/>
          </g>
          <path id="Trazado_114015" data-name="Trazado 114015" d="M310.944,232.94s9.881,3.159,11.854,5.139,14.225,31.017,17.782,35.759,1.778,6.917,0,8.7-13.04,6.52-17.384,6.917-8.891,1.381-10.865-6.324-2.371-18.771-4.345-24.5-2.566-6.52-2.566-6.52" transform="translate(-215.669 -158.748)" fill="#ffa17b"/>
          <g id="Grupo_960340" data-name="Grupo 960340" transform="translate(90.936 74.186)" opacity="0.4">
            <path id="Trazado_114016" data-name="Trazado 114016" d="M320.431,270.844c-5.062,2.97-7.421,5.2-8.511,6.544.207,1.221.4,2.513.587,3.847.563-.5.9-.83.966-.907a1.277,1.277,0,0,0,.308-.445c.012-.024,1.245-2.436,8.144-6.484a76.1,76.1,0,0,1,11.819-5.216c-.421-.907-.842-1.814-1.251-2.7a78.375,78.375,0,0,0-12.068,5.364Z" transform="translate(-309.253 -246.187)" fill="#fff"/>
            <path id="Trazado_114017" data-name="Trazado 114017" d="M326.355,284.646c-7.338,3.847-10.45,7.616-11.765,10.011.225,1.553.468,3.082.747,4.546a10.211,10.211,0,0,0,.9-.883,1.618,1.618,0,0,0,.332-.723c.006-.047,1.02-5.014,11.155-10.325a39.27,39.27,0,0,1,11.345-3.906q-.649-1.351-1.322-2.786a42.674,42.674,0,0,0-11.4,4.066Z" transform="translate(-310.34 -252.337)" fill="#fff"/>
            <path id="Trazado_114018" data-name="Trazado 114018" d="M319.15,312.912a6.5,6.5,0,0,0,2.057,2.335,25.726,25.726,0,0,1,11.511-10.189,56.467,56.467,0,0,1,13.769-4.226c-.107-.148-.2-.29-.314-.445a22.692,22.692,0,0,1-1.4-2.258,58.028,58.028,0,0,0-13.33,4.25A29.041,29.041,0,0,0,319.15,312.912Z" transform="translate(-312.197 -259.485)" fill="#fff"/>
            <path id="Trazado_114019" data-name="Trazado 114019" d="M307.42,259.79c.32.836.723,1.926,1.215,3.337a.342.342,0,0,1,.053-.047,1.445,1.445,0,0,0,.231-.273c.089-.136,7.925-11.825,17.331-14.99-.5-1.025-.954-1.926-1.345-2.667-8.268,2.981-15.031,11.309-17.479,14.64Z" transform="translate(-307.42 -237.907)" fill="#fff"/>
            <path id="Trazado_114020" data-name="Trazado 114020" d="M313.93,234.6c.611-.439,1.2-.854,1.743-1.251-.776-.261-1.263-.421-1.263-.421l-.48,1.666Z" transform="translate(-310.071 -232.93)" fill="#fff"/>
            <path id="Trazado_114021" data-name="Trazado 114021" d="M310.141,241.764l-1.381,4.783c4.179-3.254,8.7-6.5,12.263-8.986-1.008-.462-2.134-.925-3.236-1.351-2.353,1.66-5,3.562-7.646,5.554Z" transform="translate(-307.966 -234.266)" fill="#fff"/>
          </g>
          <path id="Trazado_114022" data-name="Trazado 114022" d="M310.944,232.94s9.881,3.159,11.854,5.139,14.225,31.017,17.782,35.759,1.778,6.917,0,8.7-13.04,6.52-17.384,6.917-8.891,1.381-10.865-6.324-2.371-18.771-4.345-24.5-2.566-6.52-2.566-6.52" transform="translate(-215.669 -158.748)" fill="none" stroke="#263238" stroke-miterlimit="10" stroke-width="1"/>
          <g id="Grupo_960341" data-name="Grupo 960341" transform="translate(40.707 122.707)">
            <path id="Trazado_114023" data-name="Trazado 114023" d="M307.675,326.532s-1.778-7.705-3.361-10.473-13.437-.4-17.977,1.381-28.053,7.9-35.368,9.679-12.05,3.953-14.622,6.52-14.421,8.494-13.633,9.679,4.546,1.185,7.113,1.185,8.891-1.974,9.484-2.371a2.815,2.815,0,0,1,1.381-.4l-4.345,3.361s.593,1.778,2.768.4,6.123-4.149,6.917-4.742,4.546-1.974,5.732-3.159a11.022,11.022,0,0,0,1.974-3.159s26.868.788,39.315-1.185S307.082,327.914,307.675,326.532Z" transform="translate(-222.677 -314.792)" fill="#fff" stroke="#263238" stroke-linecap="round" stroke-linejoin="round" stroke-width="1"/>
            <path id="Trazado_114024" data-name="Trazado 114024" d="M230.74,360.053s0-.99,2.175-1.778a29.634,29.634,0,0,0,10.272-5.334" transform="translate(-225.961 -330.329)" fill="none" stroke="#263238" stroke-linecap="round" stroke-linejoin="round" stroke-width="1"/>
            <path id="Trazado_114025" data-name="Trazado 114025" d="M253.08,357.961s2.768-1.974,4.345-3.361" transform="translate(-235.059 -331.005)" fill="none" stroke="#263238" stroke-linecap="round" stroke-linejoin="round" stroke-width="1"/>
            <path id="Trazado_114026" data-name="Trazado 114026" d="M226.408,358.43s-.2-1.583,2.371-2.768a36.932,36.932,0,0,0,9.881-5.732" transform="translate(-224.195 -329.103)" fill="none" stroke="#263238" stroke-linecap="round" stroke-linejoin="round" stroke-width="1"/>
          </g>
          <path id="Trazado_114027" data-name="Trazado 114027" d="M175.183,335.235s-1.381-5.139-3.361-14.03-9.679-9.881-13.04-9.086-5.53,3.361-4.546,8.7,9.288,20.745,10.473,22.126,9.484.4,11.659-2.175-1.185-5.53-1.185-5.53Z" transform="translate(-153.998 -190.907)" fill="#fff" stroke="#263238" stroke-linecap="round" stroke-linejoin="round" stroke-width="1"/>
          <g id="Grupo_960342" data-name="Grupo 960342" transform="translate(10.712 144.119)">
            <path id="Trazado_114028" data-name="Trazado 114028" d="M174.245,357.842s6.917-5.139,9.086-6.123,9.881-.99,12.447-.4,5.927,7.705,5.927,7.705-21.931,1.185-25.09,1.185-4.345.593-4.546-1.381" transform="translate(-172.07 -350.918)" fill="#fff" stroke="#263238" stroke-linecap="round" stroke-linejoin="round" stroke-width="1"/>
            <path id="Trazado_114029" data-name="Trazado 114029" d="M195.873,361.594s-5.139-5.334-6.123-6.324" transform="translate(-179.271 -352.69)" fill="none" stroke="#263238" stroke-linecap="round" stroke-linejoin="round" stroke-width="1"/>
            <line id="Línea_175" data-name="Línea 175" x1="5.927" y1="6.917" transform="translate(14.622 1.394)" fill="none" stroke="#263238" stroke-linecap="round" stroke-linejoin="round" stroke-width="1"/>
            <path id="Trazado_114030" data-name="Trazado 114030" d="M210.873,360.11s-3.953-5.732-6.123-7.51" transform="translate(-185.38 -351.603)" fill="none" stroke="#263238" stroke-linecap="round" stroke-linejoin="round" stroke-width="1"/>
          </g>
        </g>
        <g id="Grupo_960347" data-name="Grupo 960347" transform="translate(0 107.07)">
          <g id="Grupo_960345" data-name="Grupo 960345" transform="translate(1.945)">
            <g id="Grupo_960344" data-name="Grupo 960344" transform="translate(6.17)">
              <rect id="Rectángulo_33851" data-name="Rectángulo 33851" width="6.342" height="9.827" transform="translate(0.071)" fill="#ffa17b" stroke="#263238" stroke-linecap="round" stroke-linejoin="round" stroke-width="1"/>
              <line id="Línea_176" data-name="Línea 176" y1="2.762" x2="3.728" transform="translate(0 0.207)" fill="none" stroke="#263238" stroke-linecap="round" stroke-linejoin="round" stroke-width="1"/>
              <line id="Línea_177" data-name="Línea 177" y1="5.317" x2="6.277" transform="translate(0.136)" fill="none" stroke="#263238" stroke-linecap="round" stroke-linejoin="round" stroke-width="1"/>
              <line id="Línea_178" data-name="Línea 178" x2="2.075" y2="3.041" transform="translate(1.102 4.487)" fill="none" stroke="#263238" stroke-linecap="round" stroke-linejoin="round" stroke-width="1"/>
              <line id="Línea_179" data-name="Línea 179" x2="2.353" y2="3.592" transform="translate(2.898 3.106)" fill="none" stroke="#263238" stroke-linecap="round" stroke-linejoin="round" stroke-width="1"/>
              <line id="Línea_180" data-name="Línea 180" x2="1.66" y2="3.041" transform="translate(4.694 1.588)" fill="none" stroke="#263238" stroke-linecap="round" stroke-linejoin="round" stroke-width="1"/>
              <line id="Línea_181" data-name="Línea 181" y1="4.149" x2="5.803" transform="translate(0.551 5.732)" fill="none" stroke="#263238" stroke-linecap="round" stroke-linejoin="round" stroke-width="1"/>
              <line id="Línea_182" data-name="Línea 182" y1="1.381" x2="2.347" transform="translate(3.87 8.221)" fill="none" stroke="#263238" stroke-linecap="round" stroke-linejoin="round" stroke-width="1"/>
            </g>
            <path id="Trazado_114031" data-name="Trazado 114031" d="M132.456,304.52l-1.268,1.452H100.781l-1.268-1.452H81.82v13.544h68.329V304.52Z" transform="translate(-81.82 -294.971)" fill="#fff" stroke="#263238" stroke-linecap="round" stroke-linejoin="round" stroke-width="1"/>
            <path id="Trazado_114032" data-name="Trazado 114032" d="M202.357,330.406H182.975L178.82,296.39h27.692Z" transform="translate(-121.326 -291.66)" fill="#fff" stroke="#263238" stroke-linecap="round" stroke-linejoin="round" stroke-width="1"/>
            <path id="Trazado_114033" data-name="Trazado 114033" d="M215.36,296.39l-.29,34.016h2.051l4.155-34.016Z" transform="translate(-136.09 -291.66)" fill="#fff" stroke="#263238" stroke-linecap="round" stroke-linejoin="round" stroke-width="1"/>
            <rect id="Rectángulo_33852" data-name="Rectángulo 33852" width="30.436" height="2.116" rx="1.058" transform="translate(19.24 13.633)" fill="#fff" stroke="#263238" stroke-linecap="round" stroke-linejoin="round" stroke-width="1"/>
            <path id="Trazado_114034" data-name="Trazado 114034" d="M86.81,327.37v42.214H189.742V355.014a3.825,3.825,0,0,0-3.823-3.823h-71.31a2.852,2.852,0,0,1-2.851-2.851v-5.684A18.208,18.208,0,0,1,120,327.417h0L86.81,327.37Z" transform="translate(-83.852 -304.278)" fill="#fff" stroke="#263238" stroke-linecap="round" stroke-linejoin="round" stroke-width="1"/>
            <path id="Trazado_114035" data-name="Trazado 114035" d="M81.82,327.37v42.214H184.752V351.2H109.619a2.852,2.852,0,0,1-2.851-2.851v-5.684a18.208,18.208,0,0,1,8.245-15.239h0l-33.192-.047Z" transform="translate(-81.82 -304.278)" fill="#fff" stroke="#263238" stroke-linecap="round" stroke-linejoin="round" stroke-width="1"/>
            <circle id="Elipse_4726" data-name="Elipse 4726" cx="6.496" cy="6.496" r="6.496" transform="translate(2.442 50.091)" fill="#858585" stroke="#263238" stroke-linecap="round" stroke-linejoin="round" stroke-width="1"/>
            <path id="Trazado_114036" data-name="Trazado 114036" d="M184.64,344.04l.705,5.773h19.382l.705-5.773Z" transform="translate(-123.697 -311.067)" fill="#858585" stroke="#263238" stroke-linecap="round" stroke-linejoin="round" stroke-width="1"/>
            <path id="Trazado_114037" data-name="Trazado 114037" d="M215.117,344.04l-.047,5.773h2.051l.705-5.773Z" transform="translate(-136.09 -311.067)" fill="#666" stroke="#263238" stroke-linecap="round" stroke-linejoin="round" stroke-width="1"/>
          </g>
          <g id="Grupo_960346" data-name="Grupo 960346" transform="translate(0 43.241)">
            <path id="Trazado_114038" data-name="Trazado 114038" d="M118.264,402.433s-36.636,1.079-39.327.539,8.618-4.309,23.7-6.194,39.866,5.927,39.866,5.927l-24.242-.267Z" transform="translate(-78.539 -375.668)" fill="#ff8a5b" stroke="#263238" stroke-linecap="round" stroke-linejoin="round" stroke-width="1"/>
            <path id="Trazado_114039" data-name="Trazado 114039" d="M183.646,361.391c-2.7.083-5.394.314-8.079.616-4.908.557-14.362-.065-18.066,3.639,0,0-5.388,8.351-7.539,11.854s-3.77,5.655-5.927,6.467-11.315,4.582-11.315,4.582h76.5s11.244.391,15.02-4.185c4.066-4.943-2.863-10.574-6.4-13.218-5.844-4.374-12.269-6.259-19.246-8.185a49.95,49.95,0,0,0-14.948-1.565Z" transform="translate(-100.606 -361.364)" fill="#ff8a5b" stroke="#263238" stroke-linecap="round" stroke-linejoin="round" stroke-width="1"/>
            <path id="Trazado_114040" data-name="Trazado 114040" d="M256.88,395.917s12.05-2.353,22.63-.3,25.564.3,32.617.883,18.517,2.057,18.517,2.057-17.633,2.94-26.743,3.527-17.633,1.174-17.633,1.174-4.7.3-17.047-3.527l-12.34-3.823Z" transform="translate(-151.174 -374.973)" fill="#ff8a5b" stroke="#263238" stroke-linecap="round" stroke-linejoin="round" stroke-width="1"/>
            <path id="Trazado_114041" data-name="Trazado 114041" d="M214.24,402.591a64.853,64.853,0,0,0,16.454-4.113c9.11-3.527,14.4-2.94,21.16-.3s9.11,5,17.047,5.583l-54.661-1.174Z" transform="translate(-133.808 -375.476)" fill="#263238" stroke="#263238" stroke-linecap="round" stroke-linejoin="round" stroke-width="1"/>
          </g>
        </g>
      </g>
    </g>
  </g>
</svg>
