<svg xmlns="http://www.w3.org/2000/svg" xmlns:xlink="http://www.w3.org/1999/xlink" width="392" height="352.178" viewBox="0 0 392 352.178">
  <defs>
    <linearGradient id="linear-gradient" x1="0.428" y1="0.085" x2="0.62" y2="0.83" gradientUnits="objectBoundingBox">
      <stop offset="0" stop-color="#f9c4ae" stop-opacity="0.612"/>
      <stop offset="0.09" stop-color="#fabfa5" stop-opacity="0.471"/>
      <stop offset="0.35" stop-color="#f9c8b3" stop-opacity="0.929"/>
      <stop offset="0.48" stop-color="#f9c3ac"/>
      <stop offset="1" stop-color="#f9b193"/>
    </linearGradient>
    <linearGradient id="linear-gradient-2" x1="0.5" y1="1" x2="0.5" gradientUnits="objectBoundingBox">
      <stop offset="0" stop-color="#fff" stop-opacity="0.702"/>
      <stop offset="0.17" stop-color="#fff" stop-opacity="0.761"/>
      <stop offset="0.72" stop-color="#fff" stop-opacity="0.929"/>
      <stop offset="1" stop-color="#fff"/>
    </linearGradient>
    <linearGradient id="linear-gradient-4" x1="0.5" y1="1" x2="0.5" y2="0" xlink:href="#linear-gradient-2"/>
    <linearGradient id="linear-gradient-5" x1="0.5" y1="1" x2="0.5" y2="0" xlink:href="#linear-gradient-2"/>
    <linearGradient id="linear-gradient-6" y1="0.501" x2="1" y2="0.501" gradientUnits="objectBoundingBox">
      <stop offset="0" stop-color="#fdd6c6"/>
      <stop offset="1" stop-color="#fff0ea"/>
    </linearGradient>
    <linearGradient id="linear-gradient-7" x1="0.5" y1="1" x2="0.5" y2="0" xlink:href="#linear-gradient-2"/>
  </defs>
  <g id="_7543663" data-name="7543663" transform="translate(0.003 -0.005)">
    <g id="OBJECTS" transform="translate(-0.003 0.005)">
      <g id="Grupo_80277" data-name="Grupo 80277">
        <g id="Grupo_80223" data-name="Grupo 80223" transform="translate(13.065 128.867)">
          <path id="Trazado_113838" data-name="Trazado 113838" d="M19.347,152.486a39.233,39.233,0,0,1-4.954-.776c-.019,3.44.15,114.048-.234,123.339,1.907.037,3.8.093,5.7.15.047-6.5-.458-116.2-.523-122.713Z" transform="translate(-13.987 -138.784)" fill="#0055c2"/>
          <path id="Trazado_113839" data-name="Trazado 113839" d="M30.953,151.73a30.685,30.685,0,0,1-4.935.8c-.056,6.505-.056,116.338.224,122.853,1.729.047,3.458.093,5.206.122-.327-9.515-.5-120.3-.486-123.769Z" transform="translate(-14.76 -138.785)" fill="#0055c2"/>
          <path id="Trazado_113840" data-name="Trazado 113840" d="M25.6,152.577a34.421,34.421,0,0,1-5.888-.037c.065,6.515.57,116.226.523,122.713,1.86.056,3.729.122,5.589.178-.28-6.505-.271-116.338-.224-122.853Z" transform="translate(-14.35 -138.838)" fill="#368cfe"/>
          <path id="Trazado_113841" data-name="Trazado 113841" d="M26.323,141.282c-1.393-1.963-2.8-3.393-3.655-3.4-.8,0-2.122,1.262-3.449,3.047a10.917,10.917,0,0,0,7.1.346Z" transform="translate(-14.318 -137.88)" fill="#00133e"/>
          <path id="Trazado_113842" data-name="Trazado 113842" d="M26.009,141.5a10.912,10.912,0,0,1-7.1-.346c-2.215,2.972-4.477,7.375-4.5,9.739v.14a34.215,34.215,0,0,0,15.777.009v-.084C30.187,148.674,28.122,144.477,26.009,141.5Z" transform="translate(-14.003 -138.094)" fill="#bac4ff"/>
          <path id="Trazado_113843" data-name="Trazado 113843" d="M14.008,286.931v.075a24.164,24.164,0,0,0,.14,4.234c5.5-.112,10.992-.112,16.488-.318a23.081,23.081,0,0,0,.14-3.524v-.327c-.047-1.009-.075-2-.112-2.963-5.552-.084-11.01-.346-16.506-.449-.047,1.066-.093,2.15-.15,3.262Z" transform="translate(-13.975 -147.404)" fill="#001675"/>
          <path id="Trazado_113844" data-name="Trazado 113844" d="M14.27,291.028c.953,7.085,5.524,7.963,8.188,7.973,2.711.009,7.4-.86,8.3-8.29C25.262,290.916,19.766,290.916,14.27,291.028Z" transform="translate(-13.994 -147.865)" fill="#fffffb"/>
        </g>
        <g id="Grupo_80229" data-name="Grupo 80229">
          <g id="Grupo_80224" data-name="Grupo 80224">
            <path id="Trazado_113845" data-name="Trazado 113845" d="M189.111,19.378h-.019a5.527,5.527,0,0,0-3.767-4.748c-17.833-6.515-38.845-7.561-57.361-1.925-13.291,4.047-24.918,11.076-33.293,20.077C86.111,23.939,74.334,17.125,60.95,13.33c-18.628-5.281-39.621-3.851-57.3,3a5.434,5.434,0,0,0-3.636,5.4l.963,88.588c-.009.206,0,.411,0,.626v.084h0A4.669,4.669,0,0,0,1.85,113.4c2.047,2.841,6.431,3.533,10.01,2.15a74.034,74.034,0,0,1,45.976-1.925c13.73,3.9,24.984,12.169,31.648,22.273a6.816,6.816,0,0,0,6.346,2.9,6.766,6.766,0,0,0,6.281-3.01c6.449-10.235,17.516-18.712,31.162-22.862a74.046,74.046,0,0,1,46,1.075c3.6,1.318,7.973.542,9.954-2.337a4.777,4.777,0,0,0,.823-3.1h.019L189.1,19.387Z" transform="translate(0.003 -0.596)" fill="#ffa17b"/>
            <path id="Trazado_113846" data-name="Trazado 113846" d="M183.412,40.725h-.019A4.531,4.531,0,0,0,179.889,37a101.623,101.623,0,0,0-53.482-1.439c-12.4,3.2-23.255,8.739-31.078,15.815C87.356,44.436,76.383,39.1,63.915,36.136a101.654,101.654,0,0,0-53.444,2.43c-2.374.776-3.561,2.561-3.412,4.262l.673,62c-.009.159,0,.327,0,.486v.065h0a3.391,3.391,0,0,0,.813,1.86c1.907,2.234,5.991,2.767,9.328,1.673a79.592,79.592,0,0,1,42.873-1.58c22.339,5.627,33.134,19.843,35.4,19.722,2.262.084,13.319-14.9,34.957-20.376a81.923,81.923,0,0,1,42.9.776c3.355,1.028,7.431.421,9.291-1.851a3.31,3.31,0,0,0,.766-2.439h.019L183.394,40.7Z" transform="translate(-0.458 -2.138)" fill="#ff8a5b"/>
            <path id="Trazado_113847" data-name="Trazado 113847" d="M183.092,10.8h-.019a5.693,5.693,0,0,0-3.514-4.944c-16.637-6.8-36.237-7.907-53.491-2.066A69.293,69.293,0,0,0,95.047,24.648,69.592,69.592,0,0,0,63.576,4.365C46.2-1.149,26.629.318,10.141,7.431a5.68,5.68,0,0,0-3.4,5.627l.888,82.148c-.009.215,0,.43,0,.645v.093h0a5.342,5.342,0,0,0,.823,2.468c1.916,2.963,6,3.683,9.337,2.253A61.007,61.007,0,0,1,60.66,98.7c22.357,7.524,33.209,26.4,35.461,26.236,2.262.122,13.263-19.7,34.891-26.89a62.67,62.67,0,0,1,42.9,1.159c3.365,1.374,7.431.579,9.281-2.421a5.455,5.455,0,0,0,.766-3.234h.019l-.9-82.765Z" transform="translate(-0.437 -0.005)" fill="#fff3ee"/>
            <path id="Trazado_113848" data-name="Trazado 113848" d="M94.682,24.307A69.585,69.585,0,0,0,63.576,4.436C46.2-1.079,26.629.388,10.141,7.5a5.68,5.68,0,0,0-3.4,5.627l.888,82.148c-.009.215,0,.43,0,.645v.093h0a5.342,5.342,0,0,0,.823,2.468c1.916,2.963,6,3.683,9.337,2.253A61.007,61.007,0,0,1,60.66,98.772c21.357,7.188,32.2,24.713,35.106,26.133l-1.094-100.6Z" transform="translate(-0.437 -0.075)" fill="#fff"/>
          </g>
          <g id="Grupo_80228" data-name="Grupo 80228" transform="translate(12.546 13.793)">
            <g id="Grupo_80227" data-name="Grupo 80227">
              <g id="Grupo_80225" data-name="Grupo 80225" transform="translate(88.047)">
                <path id="Trazado_113849" data-name="Trazado 113849" d="M183.216,17.957c-26.189-7.655-55.445-1.5-75.437,17.936-.477.458.234,1.215.7.748,19.722-19.179,48.6-25.236,74.446-17.684a.52.52,0,0,0,.28-1Z" transform="translate(-107.621 -14.762)" fill="#ffdbcc"/>
                <path id="Trazado_113850" data-name="Trazado 113850" d="M183.326,28.067c-26.189-7.655-55.445-1.5-75.437,17.936-.477.458.234,1.215.7.748,19.731-19.179,48.6-25.236,74.446-17.684a.52.52,0,0,0,.28-1Z" transform="translate(-107.628 -15.423)" fill="#ffdbcc"/>
                <path id="Trazado_113851" data-name="Trazado 113851" d="M183.436,38.187c-26.189-7.655-55.445-1.5-75.437,17.936-.477.458.234,1.215.7.748,19.721-19.179,48.6-25.236,74.446-17.684a.52.52,0,0,0,.28-1Z" transform="translate(-107.635 -16.084)" fill="#ffdbcc"/>
                <path id="Trazado_113852" data-name="Trazado 113852" d="M183.546,48.307c-26.189-7.655-55.445-1.5-75.437,17.936-.477.458.234,1.215.7.748,19.722-19.179,48.6-25.236,74.446-17.684a.52.52,0,0,0,.28-1Z" transform="translate(-107.643 -16.745)" fill="#ffdbcc"/>
                <path id="Trazado_113853" data-name="Trazado 113853" d="M183.656,58.417c-26.189-7.655-55.445-1.5-75.437,17.936-.477.458.234,1.215.7.748,19.722-19.179,48.6-25.236,74.446-17.684a.52.52,0,0,0,.28-1Z" transform="translate(-107.65 -17.405)" fill="#ffdbcc"/>
                <path id="Trazado_113854" data-name="Trazado 113854" d="M140.65,68.116a74.307,74.307,0,0,0-32.321,18.357c-.477.458.234,1.215.7.748,19.722-19.179,48.6-25.236,74.446-17.684a.52.52,0,0,0,.28-1,79.388,79.388,0,0,0-43.107-.421" transform="translate(-107.657 -18.066)" fill="#ffdbcc"/>
                <path id="Trazado_113855" data-name="Trazado 113855" d="M183.876,78.657c-26.189-7.655-55.445-1.5-75.437,17.936-.477.458.234,1.215.7.748,19.722-19.179,48.6-25.236,74.446-17.684a.52.52,0,0,0,.28-1Z" transform="translate(-107.664 -18.728)" fill="#ffdbcc"/>
                <path id="Trazado_113856" data-name="Trazado 113856" d="M183.986,88.767c-26.189-7.655-55.445-1.5-75.437,17.936-.477.458.234,1.215.7.748,19.722-19.179,48.6-25.236,74.446-17.684a.52.52,0,0,0,.28-1Z" transform="translate(-107.671 -19.388)" fill="#ffdbcc"/>
              </g>
              <g id="Grupo_80226" data-name="Grupo 80226" transform="translate(0 1.095)">
                <path id="Trazado_113857" data-name="Trazado 113857" d="M13.766,19.557c26.021-8.141,55.407-2.533,75.811,16.525.486.449-.206,1.215-.692.766C68.743,18.033,39.74,12.519,14.065,20.557A.523.523,0,0,1,13.766,19.557Z" transform="translate(-13.42 -15.934)" fill="#ffdbcc"/>
                <path id="Trazado_113858" data-name="Trazado 113858" d="M13.876,29.667C39.9,21.526,69.283,27.134,89.687,46.192c.486.449-.206,1.215-.692.766C68.853,28.153,39.85,22.638,14.175,30.667a.523.523,0,0,1-.3-1Z" transform="translate(-13.427 -16.594)" fill="#ffdbcc"/>
                <path id="Trazado_113859" data-name="Trazado 113859" d="M13.986,39.787C40.007,31.646,69.393,37.254,89.8,56.312c.486.449-.206,1.215-.692.766C68.963,38.263,39.96,32.758,14.285,40.787a.523.523,0,0,1-.3-1Z" transform="translate(-13.434 -17.255)" fill="#ffdbcc"/>
                <path id="Trazado_113860" data-name="Trazado 113860" d="M14.1,49.907C40.117,41.766,69.5,47.374,89.907,66.432c.486.449-.206,1.215-.692.766C69.073,48.383,40.07,42.878,14.395,50.907a.523.523,0,0,1-.3-1Z" transform="translate(-13.441 -17.916)" fill="#ffdbcc"/>
                <path id="Trazado_113861" data-name="Trazado 113861" d="M14.206,60.017c26.021-8.141,55.407-2.533,75.811,16.525.486.449-.206,1.215-.692.766C69.183,58.493,40.18,52.988,14.5,61.017a.523.523,0,0,1-.3-1Z" transform="translate(-13.449 -18.577)" fill="#ffdbcc"/>
                <path id="Trazado_113862" data-name="Trazado 113862" d="M14.316,70.137C40.337,62,69.723,67.6,90.127,86.662c.486.449-.206,1.215-.692.766C69.293,68.613,40.29,63.108,14.615,71.137a.523.523,0,0,1-.3-1Z" transform="translate(-13.456 -19.238)" fill="#ffdbcc"/>
                <path id="Trazado_113863" data-name="Trazado 113863" d="M14.426,80.257c26.021-8.141,55.407-2.533,75.811,16.525.486.449-.206,1.215-.692.766C69.4,78.733,40.4,73.228,14.725,81.257a.523.523,0,0,1-.3-1Z" transform="translate(-13.463 -19.899)" fill="#ffdbcc"/>
                <path id="Trazado_113864" data-name="Trazado 113864" d="M14.536,90.367c26.021-8.141,55.407-2.533,75.811,16.525.486.449-.206,1.215-.692.766C69.513,88.843,40.51,83.338,14.835,91.367a.523.523,0,0,1-.3-1Z" transform="translate(-13.47 -20.56)" fill="#ffdbcc"/>
              </g>
            </g>
          </g>
        </g>
        <g id="Grupo_80276" data-name="Grupo 80276" transform="translate(9.246 28.622)">
          <path id="Trazado_113865" data-name="Trazado 113865" d="M355.658,82.775a48.987,48.987,0,0,0-79.652-35.732,16.583,16.583,0,0,1-18.413,1.767A148.217,148.217,0,0,0,185.38,30.63C103.886,31.1,37.431,97.842,37.31,179.345A148.944,148.944,0,0,0,182.9,328.471c83.12,1.832,152.211-65.632,152.286-148.771a151.856,151.856,0,0,0-1.327-20.1,59.244,59.244,0,0,1,11.552-44.331,48.86,48.86,0,0,0,10.253-32.5Z" transform="translate(-11.681 -30.627)" fill="url(#linear-gradient)"/>
          <g id="Grupo_80233" data-name="Grupo 80233" transform="translate(210.924 119.451)">
            <g id="Grupo_80232" data-name="Grupo 80232">
              <g id="Grupo_80230" data-name="Grupo 80230" transform="translate(41.348 6.97)">
                <path id="Trazado_113866" data-name="Trazado 113866" d="M288.258,199.949h0a10.914,10.914,0,0,0,13.1-8.178l2.9-12.5a10.914,10.914,0,0,0-8.178-13.1h0a10.914,10.914,0,0,0-13.1,8.178l-2.9,12.5A10.914,10.914,0,0,0,288.258,199.949Z" transform="translate(-279.795 -165.885)" fill="#ff7b71"/>
                <path id="Trazado_113867" data-name="Trazado 113867" d="M280.09,187.64l2.187-9.44c.365.14.729.29,1.094.439a4.644,4.644,0,0,1,2.823,5.15c-.888,4.842-1.589,9.767-2.533,14.637A10.92,10.92,0,0,1,280.09,187.64Z" transform="translate(-279.796 -166.689)" fill="#ff9b94"/>
              </g>
              <path id="Trazado_113868" data-name="Trazado 113868" d="M316.132,262.577a8.975,8.975,0,0,1-3.468,10.8L310.01,275.1l-2.15-18.534,2.168-3.477c2.617,2.2,5.318,4.234,8.01,6.281l-1.9,3.2Z" transform="translate(-240.28 -164.612)" fill="#ff7b71"/>
              <path id="Trazado_113869" data-name="Trazado 113869" d="M303.589,218.581l8.1-15,14.824,24.03a13.094,13.094,0,0,1,.122,13.562l-8.889,14.973c-2.692-2.056-5.393-4.094-8.01-6.281l8.767-14.076L303.58,218.581Z" transform="translate(-240.001 -161.378)" fill="#d72e6b"/>
              <g id="Grupo_80231" data-name="Grupo 80231">
                <path id="Trazado_113870" data-name="Trazado 113870" d="M248.168,196.124l31.358-.944-7.272,17.17-28.423-3.159a9.01,9.01,0,0,1-7.879-11.609l6.131-20.142c3.187.514,5.842,1.047,9.066,1.6l-2.982,17.076Z" transform="translate(-235.557 -159.67)" fill="#d72e6b"/>
                <path id="Trazado_113871" data-name="Trazado 113871" d="M250.194,163.832h0a3.583,3.583,0,0,1,.636.2l1.327-4.412a1.673,1.673,0,0,1,3.234.851l-1.757,7.945.215.1a1.7,1.7,0,0,1-.944,3.225l-.243-.037-1.066,6.113c-3.225-.551-5.879-1.084-9.066-1.6l3.2-9.936a3.92,3.92,0,0,1,4.458-2.43Z" transform="translate(-236.012 -158.428)" fill="#ff9b94"/>
              </g>
              <path id="Trazado_113872" data-name="Trazado 113872" d="M273,270.986c-.589-8.4-1.028-14.618-1.206-16.749-.542-6.449-1.626-24.479-2.3-42.284a15.264,15.264,0,0,1,15.254-15.843h11.889a15.268,15.268,0,0,1,15.263,15.759c-.617,18.759-1.187,42.275.869,59.006-13.235.393-26.61,1.3-39.78.112Z" transform="translate(-237.773 -160.889)" fill="#fd3d76"/>
              <path id="Trazado_113873" data-name="Trazado 113873" d="M280.858,270.986c-.411-8.4-.72-14.618-.851-16.749-.383-6.449-1.14-24.479-1.608-42.284-.224-8.655,4.627-15.843,10.693-15.843h8.337c6.047,0,10.889,7.141,10.693,15.759-.43,18.759-.832,42.275.608,59.006-9.281.393-18.647,1.3-27.872.112Z" transform="translate(-238.355 -160.889)" fill="#d72e6b"/>
              <path id="Trazado_113874" data-name="Trazado 113874" d="M293.4,312.552l.037-23.152s3.271,9.889,6.085,18.207c0,0,10.412-8.73,16.254-16.59,0,0-2.533-13.123-2.748-14.917-13.235.393-26.61,1.3-39.78.112.542,7.748,1.2,38.845,1.879,48.846,0,0,15.974-9.506,18.273-12.5Z" transform="translate(-238.019 -166.115)" fill="#00133e"/>
            </g>
            <path id="Trazado_113875" data-name="Trazado 113875" d="M290.268,177.47l-1.15,4.514a8.708,8.708,0,0,0,7.711,10.431h0a8.723,8.723,0,0,0,9.365-6.9l2.617-11.524a6.343,6.343,0,0,0-4.552-7.412h0a4.557,4.557,0,0,0-3.711-4.477l-9.4-1.795a7.991,7.991,0,0,0-9.356,6.374h0a7.994,7.994,0,0,0,4.234,8.608l4.253,2.168Z" transform="translate(-238.568 -158.541)" fill="#002767"/>
          </g>
          <g id="Grupo_80235" data-name="Grupo 80235" transform="translate(24.631 145.626)">
            <path id="Trazado_113876" data-name="Trazado 113876" d="M102.835,232.229a17.261,17.261,0,0,0,4.982.617c.327,0,.776-.009,1.243-.019a2.316,2.316,0,0,0,2.262-2.524v-.047a2.286,2.286,0,0,0-2.468-2.112c-.383.037-.757.065-1.131.075a12.745,12.745,0,0,1-4.262-.645,12.194,12.194,0,0,1-3.655-1.925A31.953,31.953,0,1,0,95,236.743a31.812,31.812,0,0,0,3.384-6.431,16.818,16.818,0,0,0,4.44,1.925Z" transform="translate(-36.242 -186.432)" fill="#ff8a5b"/>
            <g id="Grupo_80234" data-name="Grupo 80234" transform="translate(11.522 28.43)">
              <path id="Trazado_113877" data-name="Trazado 113877" d="M56.029,220.579A3.729,3.729,0,1,1,52.3,216.85,3.728,3.728,0,0,1,56.029,220.579Z" transform="translate(-48.57 -216.85)" fill="#fff"/>
              <path id="Trazado_113878" data-name="Trazado 113878" d="M72.849,220.579a3.729,3.729,0,1,1-3.729-3.729A3.728,3.728,0,0,1,72.849,220.579Z" transform="translate(-49.669 -216.85)" fill="#fff"/>
              <path id="Trazado_113879" data-name="Trazado 113879" d="M89.669,220.579a3.729,3.729,0,1,1-3.729-3.729A3.728,3.728,0,0,1,89.669,220.579Z" transform="translate(-50.768 -216.85)" fill="#fff"/>
            </g>
          </g>
          <g id="Grupo_80251" data-name="Grupo 80251" transform="translate(0 163.31)">
            <g id="Grupo_80248" data-name="Grupo 80248" transform="translate(59.448)">
              <g id="Grupo_80236" data-name="Grupo 80236" transform="translate(60.337 37.805)">
                <path id="Trazado_113880" data-name="Trazado 113880" d="M152.87,268.77a4.58,4.58,0,0,0,0,9.16h18.366c2.084-2.972,4.1-6,5.935-9.16Z" transform="translate(-138.717 -247.3)" fill="#fd3d76"/>
                <path id="Trazado_113881" data-name="Trazado 113881" d="M202.067,274a5.238,5.238,0,0,0-5.234-5.234H178.775c-1.832,3.159-3.851,6.178-5.935,9.16h29.227V274Z" transform="translate(-140.321 -247.3)" fill="#ff9b94"/>
                <path id="Trazado_113882" data-name="Trazado 113882" d="M139.929,246.875a5,5,0,0,0-1.514,5.786l9.281,20.759a5.047,5.047,0,0,0,9.188-4.178l-9.263-20.376a4.983,4.983,0,0,0-7.7-1.981h0Z" transform="translate(-138.048 -245.8)" fill="#fd3d76"/>
              </g>
              <g id="Grupo_80243" data-name="Grupo 80243" transform="translate(0 37.796)">
                <g id="Grupo_80240" data-name="Grupo 80240">
                  <rect id="Rectángulo_33818" data-name="Rectángulo 33818" width="4.617" height="23.638" rx="2.2" transform="translate(40.262 75.914)" fill="#bac8e3"/>
                  <rect id="Rectángulo_33819" data-name="Rectángulo 33819" width="2.682" height="15.618" rx="1.28" transform="translate(40.262 75.914)" fill="#fff"/>
                  <path id="Trazado_113883" data-name="Trazado 113883" d="M99.47,323.81h36.583v.608a5.05,5.05,0,0,1-5.047,5.047H104.517a5.05,5.05,0,0,1-5.047-5.047v-.608Z" transform="translate(-75.19 -250.887)" fill="#00133e"/>
                  <path id="Trazado_113884" data-name="Trazado 113884" d="M113.961,249.716a4.923,4.923,0,0,0-4.823-3.926H76.78a3.425,3.425,0,0,0-1.608.393,3.3,3.3,0,0,0-1.617,3.542l12.721,66.352v.028a3.222,3.222,0,0,0,3.159,2.6h38.452l-13.936-69Z" transform="translate(-73.493 -245.79)" fill="#0055c2"/>
                  <path id="Trazado_113885" data-name="Trazado 113885" d="M76.127,245.856a3.256,3.256,0,0,1,3.8,2.57l12.225,63.81h57.127a3.243,3.243,0,1,1,0,6.487H89.5A3.242,3.242,0,0,1,86.3,316.1L73.566,249.66a3.256,3.256,0,0,1,2.57-3.8Z" transform="translate(-73.494 -245.791)" fill="#368cfe"/>
                  <g id="Grupo_80239" data-name="Grupo 80239" transform="translate(23.588 93.925)">
                    <rect id="Rectángulo_33820" data-name="Rectángulo 33820" width="32.442" height="3.907" rx="1.87" transform="translate(2.757 17.88)" fill="#00133e"/>
                    <g id="Grupo_80237" data-name="Grupo 80237" transform="translate(0 21.049)">
                      <path id="Trazado_113886" data-name="Trazado 113886" d="M104.226,371.548a2.748,2.748,0,1,1-2.748-2.748A2.752,2.752,0,0,1,104.226,371.548Z" transform="translate(-98.73 -368.8)" fill="#00133e"/>
                      <path id="Trazado_113887" data-name="Trazado 113887" d="M138.956,371.548a2.748,2.748,0,1,1-2.748-2.748A2.752,2.752,0,0,1,138.956,371.548Z" transform="translate(-100.999 -368.8)" fill="#00133e"/>
                    </g>
                    <g id="Grupo_80238" data-name="Grupo 80238" transform="translate(10.646 21.049)">
                      <path id="Trazado_113888" data-name="Trazado 113888" d="M127.566,371.548a2.748,2.748,0,1,1-2.748-2.748A2.752,2.752,0,0,1,127.566,371.548Z" transform="translate(-110.901 -368.8)" fill="#00133e"/>
                      <path id="Trazado_113889" data-name="Trazado 113889" d="M115.616,371.548a2.748,2.748,0,1,1-2.748-2.748A2.752,2.752,0,0,1,115.616,371.548Z" transform="translate(-110.12 -368.8)" fill="#00133e"/>
                    </g>
                    <path id="Trazado_113890" data-name="Trazado 113890" d="M119.181,346.28h-.832a3.442,3.442,0,0,0-3.44,3.44v16.693h7.7V349.72a3.442,3.442,0,0,0-3.44-3.44Z" transform="translate(-99.787 -346.28)" fill="#00133e"/>
                  </g>
                </g>
                <g id="Grupo_80242" data-name="Grupo 80242" transform="translate(17.425 5.355)">
                  <path id="Trazado_113891" data-name="Trazado 113891" d="M103.963,306.329H103.9a.57.57,0,0,1-.7-.439L92.149,252.24a.589.589,0,0,1,.449-.7h.065a.57.57,0,0,1,.7.439l11.048,53.65A.589.589,0,0,1,103.963,306.329Z" transform="translate(-92.137 -251.52)" fill="#368cfe"/>
                  <path id="Trazado_113892" data-name="Trazado 113892" d="M115.253,306.329h-.065a.57.57,0,0,1-.7-.439l-11.048-53.65a.589.589,0,0,1,.449-.7h.065a.57.57,0,0,1,.7.439l11.048,53.65A.589.589,0,0,1,115.253,306.329Z" transform="translate(-92.874 -251.52)" fill="#368cfe"/>
                  <g id="Grupo_80241" data-name="Grupo 80241" transform="translate(3.424 13.422)">
                    <path id="Trazado_113893" data-name="Trazado 113893" d="M.561,0H15.413V1.252H.561A.562.562,0,0,1,0,.692V.561A.562.562,0,0,1,.561,0Z" transform="translate(15.413 1.252) rotate(180)" fill="#368cfe"/>
                    <path id="Trazado_113894" data-name="Trazado 113894" d="M.561,0H15.413V1.253H.561A.562.562,0,0,1,0,.692V.561A.562.562,0,0,1,.561,0Z" transform="translate(20.553 27.993) rotate(180)" fill="#368cfe"/>
                  </g>
                </g>
              </g>
              <path id="Trazado_113895" data-name="Trazado 113895" d="M105.87,297.088l12.095-42.929a16.228,16.228,0,0,1,15.712-12.179h0A16.236,16.236,0,0,1,149.4,262.253l-9.992,34.835H105.87Z" transform="translate(-75.609 -207.745)" fill="#d72e6b"/>
              <g id="Grupo_80244" data-name="Grupo 80244" transform="translate(27.528 37.793)">
                <path id="Trazado_113896" data-name="Trazado 113896" d="M107.7,268.77a4.58,4.58,0,1,0,0,9.16h18.366c2.084-2.972,4.1-6,5.935-9.16H107.7Z" transform="translate(-102.957 -247.289)" fill="#fd3d76"/>
                <path id="Trazado_113897" data-name="Trazado 113897" d="M156.9,274a5.238,5.238,0,0,0-5.234-5.234H133.605c-1.832,3.159-3.851,6.178-5.935,9.16H156.9V274Z" transform="translate(-104.561 -247.289)" fill="#ff9b94"/>
                <path id="Trazado_113898" data-name="Trazado 113898" d="M124.615,246A4.981,4.981,0,0,0,119,248.033l-15.329,20.843a5.046,5.046,0,0,0,8.646,5.206l15.029-20.609A4.979,4.979,0,0,0,124.615,246h0Z" transform="translate(-102.946 -245.787)" fill="#fd3d76"/>
              </g>
              <g id="Grupo_80246" data-name="Grupo 80246" transform="translate(30.261 89.333)">
                <g id="Grupo_80245" data-name="Grupo 80245" transform="translate(10.655 0.01)">
                  <path id="Trazado_113899" data-name="Trazado 113899" d="M163.4,300.94H117.27v6.384c0,4.692,11.973,8.505,16.674,8.505H163.4a7.435,7.435,0,0,0,7.44-7.44h0a7.435,7.435,0,0,0-7.44-7.44Z" transform="translate(-117.27 -300.94)" fill="#368cfe"/>
                  <path id="Trazado_113900" data-name="Trazado 113900" d="M159.38,308.645l1.131,59.772,20.974-.262a1.664,1.664,0,0,0,1.056-2.935l-7.253-6.141-1.028-50.594a7.442,7.442,0,0,0-7.524-7.356h0a7.442,7.442,0,0,0-7.356,7.524Z" transform="translate(-120.021 -300.952)" fill="#00133e"/>
                </g>
                <path id="Trazado_113901" data-name="Trazado 113901" d="M154.566,300.94h-48.7v6.384a8.506,8.506,0,0,0,8.505,8.505h40.191a7.435,7.435,0,0,0,7.44-7.44h0a7.435,7.435,0,0,0-7.44-7.44Z" transform="translate(-105.87 -300.93)" fill="#002767"/>
                <path id="Trazado_113902" data-name="Trazado 113902" d="M149.188,306.575,133.42,364.216l20.357,5.057a1.665,1.665,0,0,0,1.767-2.57l-5.458-7.786,13.543-48.743a7.432,7.432,0,0,0-5.412-9.02h0a7.432,7.432,0,0,0-9.02,5.412Z" transform="translate(-107.67 -300.929)" fill="#002767"/>
              </g>
              <g id="Grupo_80247" data-name="Grupo 80247" transform="translate(55.83)">
                <path id="Trazado_113903" data-name="Trazado 113903" d="M162.1,211.274s4.972,4.72,2.524,10.571-12.954,5.655-15.254-.15,7.3-14.216,12.74-10.422Z" transform="translate(-134.257 -205.677)" fill="#00133e"/>
                <path id="Trazado_113904" data-name="Trazado 113904" d="M147.293,244.929c-1.159-1.215-1.561-2.841-1.187-5.215.72-4.655,3.355-.047,7.842-.869,4.271-.794,4.458-4.44,6.86-7.561a.63.63,0,0,0-.056-.841,6.362,6.362,0,0,1-1.43-7.318c2-4.9-.439-10.627-6.505-12.506s-16.011-1.916-16.338,11.338a90.516,90.516,0,0,1-1.654,15.693,5.638,5.638,0,0,1-1.084,2.346,13.223,13.223,0,0,1,5.524,1.514,38.866,38.866,0,0,0,8.029,3.421Z" transform="translate(-133.259 -205.638)" fill="#ff9b94"/>
                <path id="Trazado_113905" data-name="Trazado 113905" d="M135.566,232.736s-4.412-10.973-1.122-18.142,11.861-12.59,22.161-6.8,6.711,10.272.925,11.8c-5.038,1.337-11.627-1.72-11.627-1.72s3.449,3.131.879,6.8a.666.666,0,0,1-1.14-.056,4.107,4.107,0,0,0-2.739-2.337c-2.421-.5-3.9,6.337.056,6.468,0,0-2.589,4.683-7.384,3.991Z" transform="translate(-133.226 -205.352)" fill="#00133e"/>
              </g>
            </g>
            <g id="Grupo_80249" data-name="Grupo 80249" transform="translate(0 67.761)">
              <rect id="Rectángulo_33821" data-name="Rectángulo 33821" width="87.177" height="53.313" transform="translate(227.657 5.309) rotate(90)" fill="#00133e"/>
              <rect id="Rectángulo_33822" data-name="Rectángulo 33822" width="87.177" height="53.313" transform="translate(53.313 5.309) rotate(90)" fill="#00133e"/>
              <path id="Trazado_113906" data-name="Trazado 113906" d="M236.787,283.53H66.93v87.177h4.5V288.026H236.787v82.681h4.5V283.53Z" transform="translate(-13.616 -278.221)" fill="#002767"/>
              <rect id="Rectángulo_33823" data-name="Rectángulo 33823" width="227.657" height="5.309" transform="translate(0)" fill="#002767"/>
            </g>
            <g id="Grupo_80250" data-name="Grupo 80250" transform="translate(125.741 30.902)">
              <path id="Trazado_113907" data-name="Trazado 113907" d="M180.189,239.336a1.152,1.152,0,0,1,1.131-.916h42.9a1.752,1.752,0,0,1,1.738,2.131l-6.543,33.321v.019a1.743,1.743,0,0,1-1.71,1.4H172.74l7.449-35.938Z" transform="translate(-146.27 -238.415)" fill="#0055c2"/>
              <path id="Trazado_113908" data-name="Trazado 113908" d="M179.8,238.448a1.745,1.745,0,0,0-2.047,1.383l-6.272,31.947H146.168a1.748,1.748,0,1,0,0,3.5h26.741a1.751,1.751,0,0,0,1.729-1.411l6.552-33.368a1.745,1.745,0,0,0-1.383-2.047Z" transform="translate(-144.42 -238.415)" fill="#368cfe"/>
            </g>
          </g>
          <g id="Grupo_80255" data-name="Grupo 80255" transform="translate(132.162 36.941)">
            <rect id="Rectángulo_33824" data-name="Rectángulo 33824" width="62.997" height="117.432" rx="2.75" fill="url(#linear-gradient-2)"/>
            <path id="Trazado_113909" data-name="Trazado 113909" d="M198.538,77.736h13.328a1.316,1.316,0,0,0,1.318-1.318h0a1.316,1.316,0,0,0-1.318-1.318H198.538a1.316,1.316,0,0,0-1.318,1.318h0A1.316,1.316,0,0,0,198.538,77.736Z" transform="translate(-154.291 -70.473)" fill="#afc6ed"/>
            <g id="Grupo_80252" data-name="Grupo 80252" transform="translate(7.982 13.899)">
              <circle id="Elipse_4714" data-name="Elipse 4714" cx="4.197" cy="4.197" r="4.197" fill="#50d7da"/>
              <path id="Trazado_113989" data-name="Trazado 113989" d="M.67,0H33.679a.67.67,0,0,1,.67.67V4.592a.67.67,0,0,1-.67.67H.67A.67.67,0,0,1,0,4.592V.67A.67.67,0,0,1,.67,0Z" transform="translate(12.683 1.495)" fill="#ffa17b"/>
              <rect id="Rectángulo_33826" data-name="Rectángulo 33826" width="47.033" height="5.262" rx="0.67" transform="translate(0 13.805)" fill="#ffa17b"/>
            </g>
            <g id="Grupo_80253" data-name="Grupo 80253" transform="translate(7.982 46.939)">
              <circle id="Elipse_4715" data-name="Elipse 4715" cx="4.197" cy="4.197" r="4.197" fill="#50d7da"/>
              <path id="Trazado_113988" data-name="Trazado 113988" d="M.67,0H33.679a.67.67,0,0,1,.67.67V4.592a.67.67,0,0,1-.67.67H.67A.67.67,0,0,1,0,4.592V.67A.67.67,0,0,1,.67,0Z" transform="translate(12.683 1.495)" fill="#ffa17b"/>
              <rect id="Rectángulo_33828" data-name="Rectángulo 33828" width="47.033" height="5.262" rx="0.67" transform="translate(0 13.796)" fill="#ffa17b"/>
            </g>
            <g id="Grupo_80254" data-name="Grupo 80254" transform="translate(7.982 79.97)">
              <path id="Trazado_113910" data-name="Trazado 113910" d="M168.223,159.907a4.2,4.2,0,1,1-4.2-4.2A4.2,4.2,0,0,1,168.223,159.907Z" transform="translate(-159.83 -155.71)" fill="#50d7da"/>
              <path id="Trazado_113987" data-name="Trazado 113987" d="M.67,0H33.679a.67.67,0,0,1,.67.67V4.592a.67.67,0,0,1-.67.67H.67A.67.67,0,0,1,0,4.592V.67A.67.67,0,0,1,.67,0Z" transform="translate(12.683 1.495)" fill="#ffa17b"/>
              <path id="Trazado_113984" data-name="Trazado 113984" d="M.67,0H46.363a.67.67,0,0,1,.67.67V4.592a.67.67,0,0,1-.67.67H.67A.67.67,0,0,1,0,4.592V.67A.67.67,0,0,1,.67,0Z" transform="translate(0 13.796)" fill="#ffa17b"/>
            </g>
          </g>
          <g id="Grupo_80256" data-name="Grupo 80256" transform="translate(205.403 36.511)">
            <rect id="Rectángulo_33831" data-name="Rectángulo 33831" width="62.997" height="56.267" rx="2.75" fill="url(#linear-gradient-2)"/>
            <path id="Trazado_113986" data-name="Trazado 113986" d="M0,0H54.781V44.612H0Z" transform="translate(4.103 11.655)" fill="#ffa17b"/>
            <path id="Trazado_113911" data-name="Trazado 113911" d="M276.888,76.566h13.328a1.316,1.316,0,0,0,1.318-1.318h0a1.316,1.316,0,0,0-1.318-1.318H276.888a1.316,1.316,0,0,0-1.318,1.318h0A1.316,1.316,0,0,0,276.888,76.566Z" transform="translate(-232.65 -69.967)" fill="#afc6ed"/>
          </g>
          <g id="Grupo_80257" data-name="Grupo 80257" transform="translate(282.269 21.415)">
            <path id="Trazado_113912" data-name="Trazado 113912" d="M373.908,271.333c-.888-22.011-2.664-107.122-3.206-113.123-5.085,2.281-13.721,2.393-18.824.308-.608,4.084-4.075,89.85-5.991,112.2a14.026,14.026,0,0,0,14.291,15.216h0A14.03,14.03,0,0,0,373.908,271.333Z" transform="translate(-314.107 -60.377)" fill="#00133e"/>
            <path id="Trazado_113913" data-name="Trazado 113913" d="M387.271,118.6c5.281-6.281,13.777-28.2-2.832-42.77-16.142-14.16-50.678-13.983-57.66,17.226s38.555,51.65,60.492,25.535Zm-45.659-6.206c-8.515-.271-5.365-13.758.776-11.2S347.828,112.589,341.613,112.392Zm11.468-20.768c-6.664,7.636-15.16,3.477-15.123-2.7s15.273-17.936,20.871-10.852c6.58,8.309-5.748,13.562-5.748,13.562Z" transform="translate(-312.815 -54.404)" fill="#fff"/>
            <path id="Trazado_113914" data-name="Trazado 113914" d="M359.651,78.706c-5.6-7.075-20.843,4.673-20.871,10.852s8.459,10.337,15.123,2.7c0,0,12.328-5.243,5.748-13.562Z" transform="translate(-313.646 -55.04)" fill="#ffb99c"/>
            <path id="Trazado_113915" data-name="Trazado 113915" d="M343.1,103.587c-6.141-2.561-9.281,10.917-.776,11.2C348.542,114.981,349.234,106.148,343.1,103.587Z" transform="translate(-313.538 -56.787)" fill="#ffb99c"/>
            <path id="Trazado_113916" data-name="Trazado 113916" d="M368.484,151.372a7.239,7.239,0,0,0,3.645-2.991,13.457,13.457,0,0,0,1.14-7.842,45.5,45.5,0,0,0,23.638-15.048c7.328-8.72,19.133-39.163-3.935-59.4C370.55,46.436,322.583,46.67,312.89,90.02c-5.281,23.591,11.057,42.714,31.938,49.435-.608,3.6-.682,8.412,2.5,10.917a9.974,9.974,0,0,0,2.346,1.309c5.1,2.084,13.74,1.972,18.824-.308ZM325.854,92.2c6.982-31.218,41.518-31.386,57.66-17.226,16.618,14.562,8.113,36.48,2.832,42.77-21.937,26.105-67.474,5.683-60.492-25.535Z" transform="translate(-311.889 -53.539)" fill="#ff8a5b"/>
          </g>
          <g id="Grupo_80260" data-name="Grupo 80260" transform="translate(214.992 87.02)">
            <rect id="Rectángulo_33833" data-name="Rectángulo 33833" width="78.035" height="26.563" rx="2.75" fill="url(#linear-gradient-4)"/>
            <path id="Trazado_113917" data-name="Trazado 113917" d="M252.991,137.675a3.785,3.785,0,1,1-3.785-3.785A3.787,3.787,0,0,1,252.991,137.675Z" transform="translate(-240.27 -124.394)" fill="#50d7da"/>
            <path id="Trazado_113918" data-name="Trazado 113918" d="M293.869,140.079H259.314c-.365,0-1.654-.3-1.654-.664V136c0-.365,1.29-.664,1.654-.664h34.555a.666.666,0,0,1,.664.664v3.412A.666.666,0,0,1,293.869,140.079Z" transform="translate(-241.07 -124.488)" fill="#ffa17b"/>
            <g id="Grupo_80259" data-name="Grupo 80259" transform="translate(64.931 4.225)">
              <g id="Grupo_80258" data-name="Grupo 80258">
                <path id="Trazado_113919" data-name="Trazado 113919" d="M310.38,128.25a1,1,0,1,1-1,1A1,1,0,0,1,310.38,128.25Z" transform="translate(-309.38 -128.25)" fill="#c2c9e9"/>
                <path id="Trazado_113920" data-name="Trazado 113920" d="M314.29,128.25a1,1,0,1,1-1,1A1,1,0,0,1,314.29,128.25Z" transform="translate(-309.635 -128.25)" fill="#c2c9e9"/>
                <path id="Trazado_113921" data-name="Trazado 113921" d="M318.19,128.25a1,1,0,1,1-1,1A1,1,0,0,1,318.19,128.25Z" transform="translate(-309.89 -128.25)" fill="#c2c9e9"/>
              </g>
            </g>
          </g>
          <g id="Grupo_80262" data-name="Grupo 80262" transform="translate(246.15 267.96)">
            <path id="Trazado_113922" data-name="Trazado 113922" d="M275.353,372.914a42.392,42.392,0,1,1,81.5-3.262,4.28,4.28,0,0,1-4.159,3.262H275.362Z" transform="translate(-273.245 -317.317)" fill="#0055c2"/>
            <g id="Grupo_80261" data-name="Grupo 80261" transform="translate(3.909 1.741)">
              <path id="Trazado_113923" data-name="Trazado 113923" d="M318.559,373.506a.583.583,0,0,1-.439-.2.564.564,0,0,1-.047-.7l.206-.308c9.375-14.085,19.058-28.657,26.2-43.873a.581.581,0,0,1,.776-.28.592.592,0,0,1,.28.776c-6.917,14.749-16.2,28.853-25.283,42.509,15.478-7.842,27.358-17.02,35.34-27.292a.58.58,0,0,1,.916.71c-8.421,10.852-21.1,20.469-37.7,28.6a.617.617,0,0,1-.252.056Z" transform="translate(-280.076 -319.762)" fill="#368cfe"/>
              <path id="Trazado_113924" data-name="Trazado 113924" d="M318.059,372.923a.581.581,0,0,1-.551-.411c-5.814-18.777-6.889-39.1-7.188-52.734a.591.591,0,0,1,.57-.6h.009a.58.58,0,0,1,.579.57c.29,13.095,1.29,32.349,6.543,50.425a353.129,353.129,0,0,0,8.6-50.22.584.584,0,0,1,.636-.514.577.577,0,0,1,.514.636,350.4,350.4,0,0,1-9.15,52.416.57.57,0,0,1-.551.43h-.009Z" transform="translate(-279.576 -319.18)" fill="#368cfe"/>
              <path id="Trazado_113925" data-name="Trazado 113925" d="M315.91,373.512a.364.364,0,0,1-.14-.019c-15.758-4.028-31.134-15.039-38.265-27.4a.582.582,0,0,1,1.009-.579c6.776,11.749,21.189,22.254,36.181,26.489-2.225-3.785-4.6-7.674-6.9-11.44-6.272-10.272-12.758-20.9-17.618-31.554a.579.579,0,0,1,1.056-.477c4.832,10.59,11.3,21.18,17.553,31.424,2.552,4.178,5.187,8.505,7.627,12.683a.584.584,0,0,1-.5.879Z" transform="translate(-277.427 -319.769)" fill="#368cfe"/>
              <path id="Trazado_113926" data-name="Trazado 113926" d="M280.909,366.889a.57.57,0,0,1-.561-.43.582.582,0,0,1,.411-.71,106.565,106.565,0,0,1,11.973-2.439.58.58,0,0,1,.159,1.15,104.244,104.244,0,0,0-11.842,2.411.816.816,0,0,1-.15.019Z" transform="translate(-277.617 -322.063)" fill="#368cfe"/>
              <path id="Trazado_113927" data-name="Trazado 113927" d="M285.589,356.813h-.1a.582.582,0,0,1-.477-.673,33.858,33.858,0,0,0,.477-7.4.583.583,0,0,1,.551-.608.577.577,0,0,1,.608.551,35.624,35.624,0,0,1-.486,7.655.589.589,0,0,1-.57.486Z" transform="translate(-277.922 -321.071)" fill="#368cfe"/>
              <path id="Trazado_113928" data-name="Trazado 113928" d="M305,354.659a.394.394,0,0,1-.178-.028,60.681,60.681,0,0,1-7.945-3.178.581.581,0,1,1,.5-1.047,58.324,58.324,0,0,0,7.786,3.122.569.569,0,0,1,.374.729.581.581,0,0,1-.551.4Z" transform="translate(-278.677 -321.216)" fill="#368cfe"/>
              <path id="Trazado_113929" data-name="Trazado 113929" d="M299.71,343.494a.356.356,0,0,1-.168-.028.582.582,0,0,1-.383-.729l3.112-10.085a.582.582,0,1,1,1.112.346l-3.112,10.085a.577.577,0,0,1-.551.411Z" transform="translate(-278.845 -320.033)" fill="#368cfe"/>
              <path id="Trazado_113930" data-name="Trazado 113930" d="M295.011,336.914h-.1a33.939,33.939,0,0,1-5.655-1.533.583.583,0,1,1,.4-1.094,33.252,33.252,0,0,0,5.468,1.477.579.579,0,0,1-.1,1.15Z" transform="translate(-278.175 -320.165)" fill="#368cfe"/>
              <path id="Trazado_113931" data-name="Trazado 113931" d="M314.46,357.078a.589.589,0,0,1-.327-.1.583.583,0,0,1-.14-.813,26.118,26.118,0,0,0,3.449-7,.582.582,0,1,1,1.112.346,27.076,27.076,0,0,1-3.6,7.318.586.586,0,0,1-.477.252Z" transform="translate(-279.809 -321.112)" fill="#368cfe"/>
              <path id="Trazado_113932" data-name="Trazado 113932" d="M312.159,339.844a.6.6,0,0,1-.411-.168.57.57,0,0,1,0-.823,56.4,56.4,0,0,0,7.533-9.552.584.584,0,0,1,.991.617,57.375,57.375,0,0,1-7.683,9.749.59.59,0,0,1-.411.178Z" transform="translate(-279.658 -319.823)" fill="#368cfe"/>
              <path id="Trazado_113933" data-name="Trazado 113933" d="M310.811,330.034a.583.583,0,0,1-.355-.122,39.03,39.03,0,0,0-6.739-4.159.581.581,0,0,1,.5-1.047,41.95,41.95,0,0,1,6.935,4.281.582.582,0,0,1,.112.813.575.575,0,0,1-.458.224Z" transform="translate(-279.123 -319.537)" fill="#368cfe"/>
              <path id="Trazado_113934" data-name="Trazado 113934" d="M324.634,344.879a.588.588,0,0,1-.43-.187l-3.935-4.281a.582.582,0,0,1,.86-.785l3.935,4.281a.579.579,0,0,1-.43.972Z" transform="translate(-280.216 -320.503)" fill="#368cfe"/>
              <path id="Trazado_113935" data-name="Trazado 113935" d="M326.909,333.233a.612.612,0,0,1-.421-.178.578.578,0,0,1,.019-.823,88.22,88.22,0,0,1,8.384-7,.581.581,0,0,1,.692.935,85.881,85.881,0,0,0-8.272,6.907.59.59,0,0,1-.4.159Z" transform="translate(-280.622 -319.568)" fill="#368cfe"/>
              <path id="Trazado_113936" data-name="Trazado 113936" d="M334.832,349.543a.585.585,0,0,1-.551-.383L330.6,338.766a.579.579,0,1,1,1.094-.383l3.683,10.393a.577.577,0,0,1-.355.738.729.729,0,0,1-.2.037Z" transform="translate(-280.899 -320.409)" fill="#368cfe"/>
              <path id="Trazado_113937" data-name="Trazado 113937" d="M293.41,372.438a.584.584,0,0,1-.1-1.159c1.028-.2,2.608-.57,4.141-.925s3.14-.738,4.2-.944a.585.585,0,1,1,.215,1.15c-1.028.2-2.608.57-4.141.925s-3.14.738-4.2.944c-.037,0-.075.009-.112.009Z" transform="translate(-278.434 -322.461)" fill="#368cfe"/>
              <path id="Trazado_113938" data-name="Trazado 113938" d="M338.381,372.673h-.075c-1.309-.178-2.991-.365-4.627-.542s-3.327-.365-4.655-.542a.58.58,0,0,1,.159-1.15c1.309.178,2.991.365,4.627.542s3.327.365,4.655.542a.582.582,0,0,1-.084,1.159Z" transform="translate(-280.766 -322.528)" fill="#368cfe"/>
              <path id="Trazado_113939" data-name="Trazado 113939" d="M338.5,364.139a.574.574,0,0,1-.57-.5,28.988,28.988,0,0,0-1.346-5.318.585.585,0,0,1,1.1-.393,29.64,29.64,0,0,1,1.4,5.533.582.582,0,0,1-.486.664h-.084Z" transform="translate(-281.29 -321.686)" fill="#368cfe"/>
              <path id="Trazado_113940" data-name="Trazado 113940" d="M344.349,360.956a.585.585,0,0,1-.028-1.168,118.23,118.23,0,0,0,14.637-1.748.579.579,0,1,1,.206,1.14,119.119,119.119,0,0,1-14.777,1.757h-.037Z" transform="translate(-281.762 -321.718)" fill="#368cfe"/>
              <path id="Trazado_113941" data-name="Trazado 113941" d="M351.152,354.068h-.047a.584.584,0,0,1-.533-.626,40.7,40.7,0,0,0-.1-7.767.583.583,0,0,1,1.159-.131,41.507,41.507,0,0,1,.1,7.991.58.58,0,0,1-.579.533Z" transform="translate(-282.199 -320.869)" fill="#368cfe"/>
            </g>
          </g>
          <g id="Grupo_80271" data-name="Grupo 80271" transform="translate(64.754 70.963)">
            <rect id="Rectángulo_33834" data-name="Rectángulo 33834" width="56.762" height="38.06" rx="2.75" fill="url(#linear-gradient-5)"/>
            <g id="Grupo_80269" data-name="Grupo 80269" transform="translate(43.761 4.075)">
              <g id="Grupo_80268" data-name="Grupo 80268">
                <path id="Trazado_113975" data-name="Trazado 113975" d="M126.99,110.91a1,1,0,1,1-1,1,1,1,0,0,1,1-1Z" transform="translate(-125.99 -110.91)" fill="#50d7da"/>
                <path id="Trazado_113976" data-name="Trazado 113976" d="M130.9,110.91a1,1,0,1,1-1,1A1,1,0,0,1,130.9,110.91Z" transform="translate(-126.245 -110.91)" fill="#50d7da"/>
                <path id="Trazado_113977" data-name="Trazado 113977" d="M134.8,110.91a1,1,0,1,1-1,1A1,1,0,0,1,134.8,110.91Z" transform="translate(-126.5 -110.91)" fill="#50d7da"/>
              </g>
            </g>
            <g id="Grupo_80289" data-name="Grupo 80289" transform="translate(7.197 12.136)">
              <path id="Trazado_113985" data-name="Trazado 113985" d="M.67,0H41.717a.67.67,0,0,1,.67.67v3.4a.67.67,0,0,1-.67.67H.67A.67.67,0,0,1,0,4.069V.67A.67.67,0,0,1,.67,0Z" fill="#fdd6c6"/>
              <rect id="Rectángulo_33839" data-name="Rectángulo 33839" width="42.387" height="4.739" rx="0.67" transform="translate(0 11.085)" fill="url(#linear-gradient-6)"/>
            </g>
          </g>
          <g id="Grupo_80275" data-name="Grupo 80275" transform="translate(64.754 116.303)">
            <rect id="Rectángulo_33837" data-name="Rectángulo 33837" width="56.762" height="38.06" rx="2.75" fill="url(#linear-gradient-7)"/>
            <g id="Grupo_80273" data-name="Grupo 80273" transform="translate(43.761 4.084)">
              <g id="Grupo_80272" data-name="Grupo 80272">
                <path id="Trazado_113978" data-name="Trazado 113978" d="M126.99,159.43a1,1,0,1,1-1,1,1,1,0,0,1,1-1Z" transform="translate(-125.99 -159.43)" fill="#50d7da"/>
                <path id="Trazado_113979" data-name="Trazado 113979" d="M130.9,159.43a1,1,0,1,1-1,1A1,1,0,0,1,130.9,159.43Z" transform="translate(-126.245 -159.43)" fill="#50d7da"/>
                <path id="Trazado_113980" data-name="Trazado 113980" d="M134.8,159.43a1,1,0,1,1-1,1A1,1,0,0,1,134.8,159.43Z" transform="translate(-126.5 -159.43)" fill="#50d7da"/>
              </g>
            </g>
            <g id="Grupo_80274" data-name="Grupo 80274" transform="translate(7.197 11.796)">
              <path id="Trazado_113985-2" data-name="Trazado 113985" d="M.67,0H41.717a.67.67,0,0,1,.67.67v3.4a.67.67,0,0,1-.67.67H.67A.67.67,0,0,1,0,4.069V.67A.67.67,0,0,1,.67,0Z" fill="#fdd6c6"/>
              <rect id="Rectángulo_33839-2" data-name="Rectángulo 33839" width="42.387" height="4.739" rx="0.67" transform="translate(0 11.085)" fill="url(#linear-gradient-6)"/>
            </g>
          </g>
          <g id="Grupo_80292" data-name="Grupo 80292" transform="translate(292.923 181.716)">
            <g id="Grupo_80266" data-name="Grupo 80266">
              <g id="Grupo_80264" data-name="Grupo 80264" transform="translate(0 24.92)">
                <g id="Grupo_80263" data-name="Grupo 80263">
                  <path id="Trazado_113942" data-name="Trazado 113942" d="M356.143,359.309c7.459-1.084,14.413-4.645,13.1-19.254s6.636-18.048,2.561-31.891-16.908-14.4-16.553-25.937c.178-5.692-1.037-15.861-5.29-22.946-7.122-11.842-32.059-11.216-25.629,12.1,2.206,7.991,8.543,12.4,8.87,22.993.234,7.449-3.683,10.674-.271,24.021,3.094,12.067,10.562,12.693,9.562,24.657s4.851,17.544,13.646,16.254Z" transform="translate(-323.287 -251.707)" fill="#ff8a5b"/>
                  <path id="Trazado_113943" data-name="Trazado 113943" d="M358.675,356.654a.872.872,0,0,0,.327-.122.837.837,0,0,0,.262-1.159c-2.309-3.664-2.608-8.291-2.711-12.712-.056-2.168-.075-4.356-.1-6.533-.121-11.665-.252-23.722-4.814-34.592a90.883,90.883,0,0,0-6.131-11.422,84.375,84.375,0,0,1-6.272-11.8,42.039,42.039,0,0,1-1.972-24.722.843.843,0,0,0-1.645-.374,43.776,43.776,0,0,0,2.047,25.722,86.6,86.6,0,0,0,6.384,12.048,89.056,89.056,0,0,1,6.019,11.207c4.43,10.562,4.561,22.46,4.683,33.957.028,2.2.047,4.384.1,6.561.112,4.655.43,9.543,2.972,13.571a.843.843,0,0,0,.832.383Z" transform="translate(-324.024 -251.762)" fill="#d72e6b"/>
                  <path id="Trazado_113944" data-name="Trazado 113944" d="M357.033,330.264a.807.807,0,0,0,.57-.355c4.533-6.5,9.319-12.926,14.235-19.123a.839.839,0,1,0-1.318-1.038c-4.935,6.225-9.739,12.683-14.291,19.207a.846.846,0,0,0,.206,1.168.821.821,0,0,0,.6.14Z" transform="translate(-325.43 -255.478)" fill="#d72e6b"/>
                  <path id="Trazado_113945" data-name="Trazado 113945" d="M357.1,336.046a.849.849,0,0,0,.561-.336,150.382,150.382,0,0,1,12.683-15.188.84.84,0,0,0-1.215-1.159,152.471,152.471,0,0,0-12.824,15.357.85.85,0,0,0,.187,1.178.821.821,0,0,0,.617.15Z" transform="translate(-325.434 -256.11)" fill="#d72e6b"/>
                  <path id="Trazado_113946" data-name="Trazado 113946" d="M357.283,345.68a.807.807,0,0,0,.57-.355,45.383,45.383,0,0,1,8.085-8.889.842.842,0,1,0-1.084-1.29,47.583,47.583,0,0,0-8.384,9.216.84.84,0,0,0,.215,1.168.811.811,0,0,0,.6.14Z" transform="translate(-325.445 -257.145)" fill="#d72e6b"/>
                  <path id="Trazado_113947" data-name="Trazado 113947" d="M354.931,321.263a.824.824,0,0,0,.617-.439.839.839,0,0,0-.346-1.14,145.669,145.669,0,0,0-19.31-8.627.84.84,0,0,0-.57,1.58,146.615,146.615,0,0,1,19.1,8.524.918.918,0,0,0,.514.093Z" transform="translate(-324.037 -255.581)" fill="#d72e6b"/>
                  <path id="Trazado_113948" data-name="Trazado 113948" d="M354.465,325.034a.843.843,0,0,0,.14-1.636l-20-6.421a.839.839,0,0,0-.514,1.6l20,6.421a.849.849,0,0,0,.374.028Z" transform="translate(-323.955 -255.968)" fill="#d72e6b"/>
                  <path id="Trazado_113949" data-name="Trazado 113949" d="M350.1,301.215a.777.777,0,0,0,.551-.336l4.842-6.543a.842.842,0,1,0-1.355-1l-4.842,6.543a.845.845,0,0,0,.794,1.337Z" transform="translate(-324.976 -254.404)" fill="#d72e6b"/>
                  <path id="Trazado_113950" data-name="Trazado 113950" d="M348.253,297.049a.836.836,0,0,0,.617-.43c1.776-3.309,3.711-6.58,5.739-9.73a.839.839,0,1,0-1.411-.907c-2.056,3.187-4.01,6.5-5.8,9.842a.839.839,0,0,0,.346,1.14.783.783,0,0,0,.514.093Z" transform="translate(-324.855 -253.921)" fill="#d72e6b"/>
                  <path id="Trazado_113951" data-name="Trazado 113951" d="M344.962,294.636a.837.837,0,0,0,.075-1.645,90.068,90.068,0,0,1-10.646-3.225.843.843,0,0,0-.589,1.58,93.4,93.4,0,0,0,10.842,3.281.913.913,0,0,0,.318.019Z" transform="translate(-323.938 -254.19)" fill="#d72e6b"/>
                  <path id="Trazado_113952" data-name="Trazado 113952" d="M356.1,352.3a.843.843,0,0,0,.234-1.6,81.673,81.673,0,0,1-9.786-5.309.84.84,0,1,0-.9,1.421,82.475,82.475,0,0,0,9.992,5.421.819.819,0,0,0,.467.065Z" transform="translate(-324.723 -257.819)" fill="#d72e6b"/>
                  <path id="Trazado_113953" data-name="Trazado 113953" d="M340.473,282.435a.851.851,0,0,0,.664-.514,48.914,48.914,0,0,1,9.15-14.609.84.84,0,0,0-1.243-1.131,50.38,50.38,0,0,0-9.468,15.114.837.837,0,0,0,.467,1.094.859.859,0,0,0,.43.056Z" transform="translate(-324.347 -252.634)" fill="#d72e6b"/>
                  <path id="Trazado_113954" data-name="Trazado 113954" d="M337.672,277.529a.82.82,0,0,0,.654-.514l3.468-8.347a.844.844,0,1,0-1.561-.645l-3.468,8.347a.846.846,0,0,0,.458,1.1.909.909,0,0,0,.439.056Z" transform="translate(-324.164 -252.739)" fill="#d72e6b"/>
                  <path id="Trazado_113955" data-name="Trazado 113955" d="M334.713,269.149a.808.808,0,0,0,.5-.262.841.841,0,0,0-.047-1.187c-2.991-2.748-6.131-5.384-9.356-7.833a.84.84,0,1,0-1.019,1.337c3.187,2.421,6.29,5.029,9.244,7.739a.839.839,0,0,0,.692.215Z" transform="translate(-323.364 -252.229)" fill="#d72e6b"/>
                  <path id="Trazado_113956" data-name="Trazado 113956" d="M334.679,263.461a.857.857,0,0,0,.5-.262.841.841,0,0,0-.056-1.187,60.649,60.649,0,0,0-7.309-5.7.842.842,0,1,0-.935,1.4A60.75,60.75,0,0,1,334,263.255a.861.861,0,0,0,.682.215Z" transform="translate(-323.498 -251.999)" fill="#d72e6b"/>
                </g>
                <path id="Trazado_113957" data-name="Trazado 113957" d="M347.122,329.793c-8.8-22.526-10.038-49.1,5.87-65.913a50.4,50.4,0,0,1,3.4,19.133c-.355,11.534,12.468,12.085,16.553,25.937s-3.87,17.282-2.561,31.891-5.645,18.161-13.1,19.254c-6.094.888-10.767-1.514-12.74-7.047,2.72-8.113,5.617-15.824,2.58-23.255Z" transform="translate(-324.425 -252.502)" fill="#e27144" opacity="0.41"/>
              </g>
              <g id="Grupo_80265" data-name="Grupo 80265" transform="translate(26.23)">
                <path id="Trazado_113958" data-name="Trazado 113958" d="M373.016,363c-9.562-1.374-18.488-5.926-16.833-24.647s-8.543-23.124-3.337-40.873,21.638-18.488,21.17-33.274c-.234-7.3,1.29-20.338,6.739-29.423,9.1-15.188,41.069-14.441,32.863,15.459-2.813,10.244-10.926,15.917-11.328,29.479-.28,9.543,4.748,13.665.393,30.788-3.935,15.469-13.506,16.282-12.2,31.62s-6.178,22.488-17.46,20.862Z" transform="translate(-351.351 -225.045)" fill="#ffa17b"/>
                <path id="Trazado_113959" data-name="Trazado 113959" d="M351.378,311.57c16.319,9.655,29.442,25.292,38.592,45.808-1.991,8.655-8.375,12.506-16.955,11.272-9.562-1.374-18.488-5.926-16.833-24.647,1.355-15.357-5.253-21.077-4.8-32.424Z" transform="translate(-351.351 -230.698)" fill="#e27144" opacity="0.45"/>
                <path id="Trazado_113960" data-name="Trazado 113960" d="M372.179,359.392a.822.822,0,0,0,.7-.393c3.206-5.113,3.608-11.338,3.739-17.282.065-2.785.084-5.589.112-8.4.14-14.768.28-30.031,5.954-43.63a116.424,116.424,0,0,1,7.711-14.413,111.039,111.039,0,0,0,8.141-15.413,55.793,55.793,0,0,0,2.561-32.835.843.843,0,1,0-1.645.374,54.131,54.131,0,0,1-2.486,31.835,109.447,109.447,0,0,1-8.029,15.179,116.467,116.467,0,0,0-7.823,14.628c-5.8,13.9-5.944,29.33-6.085,44.257-.028,2.8-.047,5.6-.112,8.375-.131,5.7-.5,11.674-3.486,16.422a.843.843,0,0,0,.262,1.159.814.814,0,0,0,.458.131Z" transform="translate(-352.654 -225.131)" fill="#fd3d76"/>
                <path id="Trazado_113961" data-name="Trazado 113961" d="M375.01,325.568a.865.865,0,0,0,.467-.15.831.831,0,0,0,.206-1.168c-5.842-8.337-12.01-16.609-18.348-24.572a.838.838,0,0,0-1.309,1.047c6.309,7.935,12.468,16.179,18.282,24.5a.831.831,0,0,0,.7.355Z" transform="translate(-351.644 -229.9)" fill="#fd3d76"/>
                <path id="Trazado_113962" data-name="Trazado 113962" d="M375.067,332.976a.861.861,0,0,0,.486-.159.848.848,0,0,0,.187-1.178A195.4,195.4,0,0,0,359.3,312a.84.84,0,0,0-1.215,1.159,193.109,193.109,0,0,1,16.3,19.469.867.867,0,0,0,.692.346Z" transform="translate(-351.776 -230.709)" fill="#fd3d76"/>
                <path id="Trazado_113963" data-name="Trazado 113963" d="M375.26,345.323a.793.793,0,0,0,.467-.15.83.83,0,0,0,.206-1.168,60.156,60.156,0,0,0-10.73-11.749.842.842,0,1,0-1.084,1.29,59.065,59.065,0,0,1,10.431,11.422.84.84,0,0,0,.7.365Z" transform="translate(-352.165 -232.036)" fill="#fd3d76"/>
                <path id="Trazado_113964" data-name="Trazado 113964" d="M377.24,314.021a.812.812,0,0,0,.383-.1A186.427,186.427,0,0,1,402.1,302.936a.84.84,0,0,0-.57-1.58,186.3,186.3,0,0,0-24.7,11.085.835.835,0,0,0-.336,1.14.814.814,0,0,0,.748.439Z" transform="translate(-352.987 -230.027)" fill="#fd3d76"/>
                <path id="Trazado_113965" data-name="Trazado 113965" d="M377.781,318.855a1.176,1.176,0,0,0,.252-.037l25.619-8.272a.839.839,0,0,0-.514-1.6l-25.619,8.272a.843.843,0,0,0-.542,1.056.822.822,0,0,0,.813.579Z" transform="translate(-353.022 -230.524)" fill="#fd3d76"/>
                <path id="Trazado_113966" data-name="Trazado 113966" d="M384.676,288.327a.787.787,0,0,0,.486-.168.848.848,0,0,0,.178-1.178l-6.216-8.375a.842.842,0,0,0-1.355,1l6.216,8.375a.827.827,0,0,0,.682.336Z" transform="translate(-353.066 -228.522)" fill="#fd3d76"/>
                <path id="Trazado_113967" data-name="Trazado 113967" d="M386.962,282.976a.879.879,0,0,0,.393-.1.835.835,0,0,0,.336-1.14c-2.309-4.271-4.814-8.515-7.449-12.59a.839.839,0,0,0-1.411.907c2.608,4.038,5.094,8.244,7.384,12.478a.814.814,0,0,0,.748.439Z" transform="translate(-353.137 -227.901)" fill="#fd3d76"/>
                <path id="Trazado_113968" data-name="Trazado 113968" d="M390.73,279.869a.637.637,0,0,0,.187-.019,119.658,119.658,0,0,0,13.861-4.225.843.843,0,1,0-.589-1.58,116.269,116.269,0,0,1-13.665,4.159.849.849,0,0,0-.626,1.009.831.831,0,0,0,.832.645Z" transform="translate(-353.868 -228.243)" fill="#fd3d76"/>
                <path id="Trazado_113969" data-name="Trazado 113969" d="M376.64,353.8a.84.84,0,0,0,.336-.075,106.734,106.734,0,0,0,12.768-6.954.839.839,0,1,0-.907-1.411,103.328,103.328,0,0,1-12.562,6.842.837.837,0,0,0-.411,1.112.827.827,0,0,0,.776.486Z" transform="translate(-352.947 -232.897)" fill="#fd3d76"/>
                <path id="Trazado_113970" data-name="Trazado 113970" d="M396.585,264.233a.733.733,0,0,0,.308-.065.848.848,0,0,0,.467-1.094A64.4,64.4,0,0,0,385.238,243.8a.84.84,0,0,0-1.243,1.131,62.74,62.74,0,0,1,11.8,18.777.839.839,0,0,0,.794.523Z" transform="translate(-353.469 -226.252)" fill="#fd3d76"/>
                <path id="Trazado_113971" data-name="Trazado 113971" d="M400.688,257.935a.7.7,0,0,0,.308-.065.842.842,0,0,0,.449-1.1l-4.458-10.693a.842.842,0,1,0-1.552.654l4.458,10.693a.836.836,0,0,0,.785.514Z" transform="translate(-354.226 -226.385)" fill="#fd3d76"/>
                <path id="Trazado_113972" data-name="Trazado 113972" d="M403.94,247.194a.824.824,0,0,0,.561-.224c3.776-3.486,7.767-6.832,11.842-9.945a.84.84,0,1,0-1.019-1.337c-4.122,3.15-8.15,6.533-11.964,10.048a.841.841,0,0,0,.58,1.458Z" transform="translate(-354.731 -225.729)" fill="#fd3d76"/>
                <path id="Trazado_113973" data-name="Trazado 113973" d="M404.16,239.907a.824.824,0,0,0,.561-.224,76.636,76.636,0,0,1,9.132-7.141.842.842,0,1,0-.935-1.4,79.114,79.114,0,0,0-9.337,7.3.842.842,0,0,0-.056,1.187.81.81,0,0,0,.636.271Z" transform="translate(-354.745 -225.434)" fill="#fd3d76"/>
              </g>
            </g>
            <path id="Trazado_113974" data-name="Trazado 113974" d="M6.374,0H43.35a6.376,6.376,0,0,1,6.374,6.374v8.1a.686.686,0,0,1-.682.682H.682A.686.686,0,0,1,0,14.478v-8.1A6.376,6.376,0,0,1,6.374,0Z" transform="translate(66.897 141.841) rotate(180)" fill="#00133e"/>
          </g>
        </g>
      </g>
    </g>
  </g>
</svg>
