<svg xmlns="http://www.w3.org/2000/svg" xmlns:xlink="http://www.w3.org/1999/xlink" width="266" height="477" viewBox="0 0 266 477">
  <defs>
    <clipPath id="clip-path">
      <rect id="Rectángulo_347827" data-name="Rectángulo 347827" width="266" height="477" transform="translate(302 1447)" fill="#727997" opacity="0.32"/>
    </clipPath>
  </defs>
  <g id="Enmascarar_grupo_476" data-name="Enmascarar grupo 476" transform="translate(-302 -1447)" clip-path="url(#clip-path)">
    <rect id="Rectángulo_347824" data-name="Rectángulo 347824" width="266" height="477" transform="translate(302 1447)" fill="#fad9be"/>
    <g id="_21472201_Convertido_" data-name="21472201 [Convertido]" transform="translate(184.697 1464.204)">
      <path id="Trazado_736100" data-name="Trazado 736100" d="M368.657,804.8s-3.264,46.812-12,44.4,8.229-51.446,8.229-51.446-32.836-36.746-49.575-41.864c0,0,7.566,53.648-.311,49.163s-18.342-59.944-18.342-59.944S257.828,719.882,240.741,742s-11.353,39.107-5.769,43.249,45.781,20.206,42.589,24.969-33.637,1.869-46.757-9.05c0,0-.4,47.911,22.269,54.878s35.017-3.73,48.949.831S324.31,869.167,316.052,870s-30.089-11.084-44.839-6.338-25.945,6.8-7.418,19.35,55.948,25.033,69.68,12.472c.6-.547,1.169-1.07,1.716-1.57a8.948,8.948,0,0,1-1.716,1.57c2.833,3.73,4.125,16.444,4.7,26.029-.01,1.585.089,3.829.333,6.918h0c.049,1.371.081,2.49.1,3.269-.271,20.822-16.846,50.093-16.846,50.093l3.843,2.956c22.479-27.106,16.256-59.616,16.256-59.616-2.5-24.772,5.337-42.211,5.337-42.211s47.988-5.655,42.09-42.788c0,0-7-24.2-20.637-35.338Z" transform="translate(-147.075 -732.918)" fill="#fcecdb"/>
      <path id="Trazado_736101" data-name="Trazado 736101" d="M893.732,541.374s-14.56,36.842-47.97,73.713c-17.011,18.771-40.513,30.134-49.664,49.693-10.219,21.835-18.347,45.813-18.347,45.813l-60.39-91.365S721.184,517.6,725.515,501.4c5.36-20.036,13.626-32.9,20.581-63.581,1.6-7.051,11.728-40.446,12.561-42.936.362-1.072,3.252-2.719,7-2.714,3.013,0,8.126,2.912,9.415,8.892,6.521,30.237-1.329,50.179-1.24,51.067,2.3,23.238-4.615,40.488.234,45.056.18.17.515.089.991-.215,8.407-5.4,60.585-81.469,67.012-83.111,6.79-1.731,51.656,127.514,51.656,127.514Z" transform="translate(-583.131 -328.756)" fill="#ffb27d"/>
      <path id="Trazado_736102" data-name="Trazado 736102" d="M1115.248,903.67a83.716,83.716,0,0,0-13-3.777c-39.285-.318-81.412,34.039-81.412,34.039,11.464,21.451,56.959,28.1,83.027,20.3,10.919-17.213,18.529-30.3,18.529-30.3S1119.579,915.807,1115.248,903.67Z" transform="translate(-811.794 -711.307)" fill="#efa26f"/>
      <path id="Trazado_736103" data-name="Trazado 736103" d="M914.682,741.529s1.938-20.576-9.075-43.281c-3.53-7.278-7.115-21.35-1.186-31.928s7.978-30.94,7.978-30.94c2.3,23.238-4.615,40.488.234,45.056.18.17.515.089.991-.214C922.933,697.994,918.882,723.668,914.682,741.529Z" transform="translate(-721.692 -512.007)" fill="#efa26f"/>
      <path id="Trazado_736104" data-name="Trazado 736104" d="M550.147,1517.429s0,13.439-2.394,60.538H399.78c35.16-74.98,65.73-138.087,65.73-138.087s80.922,38.353,84.64,77.549Z" transform="translate(-343.845 -1118.172)" fill="#f99746"/>
      <path id="Trazado_736105" data-name="Trazado 736105" d="M615.374,1570.62c-13.074,1.232-29.244,8.924-29.244,8.924,8.771,15.729,45.5,24.358,67.693,28.549,20.26,3.826,29.623,8.064,36.731,8.4,0-.377,0-.552,0-.552a36.6,36.6,0,0,0-3.225-11.582c-17.339-19.35-71.96-33.735-71.96-33.735Z" transform="translate(-484.254 -1216.681)" fill="#e68635"/>
      <path id="Trazado_736106" data-name="Trazado 736106" d="M1438.964,300.189l-18.885,27.685-18.532,27.168a4.243,4.243,0,0,1-3.853,1.7c-4.447-.422-9.95-6.836-14.237-10.386l-.434-.358a13.376,13.376,0,0,1-1.775-18.781l28.324-34.238h0l8.4-10.157a13.376,13.376,0,0,1,18.781-1.775l.433.357A13.377,13.377,0,0,1,1438.964,300.189Z" transform="translate(-1081.053 -242.733)" fill="#ffb27d"/>
      <path id="Trazado_736107" data-name="Trazado 736107" d="M1380.555,481.42a13.3,13.3,0,0,0-2.313,8.431l19.461,20.161a4.244,4.244,0,0,0,3.854-1.7l11.782-17.274A70.754,70.754,0,0,0,1380.555,481.42Z" transform="translate(-1081.063 -396.003)" fill="#efa26f"/>
      <path id="Trazado_736108" data-name="Trazado 736108" d="M864.886,408.87c-2.446,7-4.391,13.532-5.976,19.732,0,0,5.355,1.985,8.128.611S872.075,409.945,864.886,408.87Z" transform="translate(-689.784 -341.339)" fill="#ffc197"/>
      <g id="Grupo_1014468" data-name="Grupo 1014468" transform="translate(150.015 4.156)">
        <path id="Trazado_736109" data-name="Trazado 736109" d="M1200.112,152.258a35.442,35.442,0,1,0,29.387,40.6,35.44,35.44,0,0,0-29.387-40.6Zm-10.83,67.57a32.99,32.99,0,1,1,37.8-27.353A32.992,32.992,0,0,1,1189.282,219.828Z" transform="translate(-1065.95 -151.806)" fill="#ffb93e"/>
        <rect id="Rectángulo_347804" data-name="Rectángulo 347804" width="19.36" height="18.091" transform="matrix(0.987, 0.158, -0.158, 0.987, 116.103, 53.345)" fill="#2a3d6b"/>
        <rect id="Rectángulo_347805" data-name="Rectángulo 347805" width="8.614" height="12.413" transform="matrix(0.849, -0.528, 0.528, 0.849, 53.84, 77.299)" fill="#2a3d6b"/>
        <circle id="Elipse_7836" data-name="Elipse 7836" cx="87.659" cy="87.659" r="87.659" transform="translate(21.537 69.979)" fill="#233d82"/>
        <circle id="Elipse_7837" data-name="Elipse 7837" cx="77.214" cy="77.214" r="77.214" transform="translate(0 157.638) rotate(-45)" fill="#729fe3"/>
        <circle id="Elipse_7838" data-name="Elipse 7838" cx="72.818" cy="72.818" r="72.818" transform="translate(36.378 84.82)" fill="#c8dcfa"/>
        <path id="Trazado_736110" data-name="Trazado 736110" d="M873.084,513.93a87.657,87.657,0,0,1,155.895-39.751A87.657,87.657,0,1,0,887.028,576.912,87.343,87.343,0,0,1,873.084,513.93Z" transform="translate(-847.174 -365.648)" fill="#405a99"/>
        <path id="Trazado_736111" data-name="Trazado 736111" d="M1093.108,604.04A77.213,77.213,0,0,1,968.02,694.569a77.212,77.212,0,1,0,125.088-90.527Z" transform="translate(-922.01 -492.55)" fill="#405a99"/>
        <path id="Trazado_736112" data-name="Trazado 736112" d="M1208.8,769.581a5.354,5.354,0,1,0,4.44,6.134A5.353,5.353,0,0,0,1208.8,769.581Zm-1.408,8.777a3.533,3.533,0,1,1,4.048-2.929A3.533,3.533,0,0,1,1207.4,778.358Z" transform="translate(-1098.76 -617.228)" fill="#c65447"/>
        <g id="Grupo_1014463" data-name="Grupo 1014463" transform="translate(49.271 147.947)">
          <path id="Trazado_736113" data-name="Trazado 736113" d="M1037.284,760l-56.007-8.077-.027.17,55.726,9.836a4.144,4.144,0,0,1,.042-.984,4.29,4.29,0,0,1,.269-.949Z" transform="translate(-981.25 -751.92)" fill="#c65447"/>
          <path id="Trazado_736114" data-name="Trazado 736114" d="M1261.119,792.413l-20.888-3.013a4.173,4.173,0,0,1-.03,1.117,4.256,4.256,0,0,1-.32,1.067l20.783,3.669.456-2.842Z" transform="translate(-1176.12 -780.16)" fill="#c65447"/>
        </g>
        <g id="Grupo_1014465" data-name="Grupo 1014465" transform="translate(72.801 100.553)">
          <circle id="Elipse_7839" data-name="Elipse 7839" cx="16.695" cy="16.695" r="16.695" transform="translate(0 23.611) rotate(-45)" fill="#6ea7fb"/>
          <path id="Trazado_736115" data-name="Trazado 736115" d="M1169.917,651.9a1.227,1.227,0,1,0-1.406,1.018A1.225,1.225,0,0,0,1169.917,651.9Zm-2.012-.323a.809.809,0,1,1,.67.927A.808.808,0,0,1,1167.9,651.575Z" transform="translate(-1145.096 -628.092)" fill="#c65447"/>
          <g id="Grupo_1014464" data-name="Grupo 1014464" transform="translate(9.885 21.393)">
            <path id="Trazado_736116" data-name="Trazado 736116" d="M1129.639,648.3,1116.8,646.45l-.007.039,12.775,2.256a.948.948,0,0,1,.01-.224,1.057,1.057,0,0,1,.062-.217Z" transform="translate(-1116.79 -646.45)" fill="#c65447"/>
            <path id="Trazado_736117" data-name="Trazado 736117" d="M1180.969,655.73l-4.787-.69a.906.906,0,0,1-.007.256,1,1,0,0,1-.074.244l4.765.841Z" transform="translate(-1161.479 -652.922)" fill="#c65447"/>
          </g>
        </g>
        <g id="Grupo_1014467" data-name="Grupo 1014467" transform="translate(108.194 106.225)">
          <circle id="Elipse_7840" data-name="Elipse 7840" cx="16.695" cy="16.695" r="16.695" transform="translate(0 23.611) rotate(-45)" fill="#6ea7fb"/>
          <path id="Trazado_736118" data-name="Trazado 736118" d="M1313.475,674.907a1.227,1.227,0,1,0-1.405,1.018A1.224,1.224,0,0,0,1313.475,674.907Zm-2.012-.323a.809.809,0,1,1,.671.927A.809.809,0,0,1,1311.463,674.584Z" transform="translate(-1288.655 -651.1)" fill="#233d82"/>
          <g id="Grupo_1014466" data-name="Grupo 1014466" transform="translate(22.371 9.87)">
            <path id="Trazado_736119" data-name="Trazado 736119" d="M1316.164,635.569l1.852-12.842-.04-.007L1315.72,635.5a.987.987,0,0,1,.224.01,1.055,1.055,0,0,1,.217.062Z" transform="translate(-1314.556 -622.72)" fill="#233d82"/>
            <path id="Trazado_736120" data-name="Trazado 736120" d="M1311.651,686.9l.691-4.788a.9.9,0,0,1-.257-.007,1,1,0,0,1-.244-.074L1311,686.8Z" transform="translate(-1311 -667.408)" fill="#233d82"/>
          </g>
        </g>
        <rect id="Rectángulo_347806" data-name="Rectángulo 347806" width="6.868" height="6.868" transform="matrix(0.987, 0.158, -0.158, 0.987, 117.188, 86.031)" fill="#2a3d6b"/>
        <rect id="Rectángulo_347807" data-name="Rectángulo 347807" width="6.868" height="6.868" transform="matrix(0.987, 0.158, -0.158, 0.987, 95.478, 221.421)" fill="#2a3d6b"/>
        <rect id="Rectángulo_347808" data-name="Rectángulo 347808" width="6.868" height="6.868" transform="matrix(0.158, -0.987, 0.987, 0.158, 37.581, 149.649)" fill="#2a3d6b"/>
        <rect id="Rectángulo_347809" data-name="Rectángulo 347809" width="6.868" height="6.868" transform="matrix(0.158, -0.987, 0.987, 0.158, 172.981, 171.355)" fill="#2a3d6b"/>
        <rect id="Rectángulo_347810" data-name="Rectángulo 347810" width="6.868" height="6.868" transform="translate(80.311 91.63) rotate(-20.89)" fill="#2a3d6b"/>
        <rect id="Rectángulo_347811" data-name="Rectángulo 347811" width="6.868" height="6.868" transform="translate(129.203 219.739) rotate(-20.89)" fill="#2a3d6b"/>
        <rect id="Rectángulo_347812" data-name="Rectángulo 347812" width="6.868" height="6.868" transform="translate(43.187 186.533) rotate(-110.89)" fill="#2a3d6b"/>
        <rect id="Rectángulo_347813" data-name="Rectángulo 347813" width="6.868" height="6.868" transform="translate(171.297 137.622) rotate(-110.89)" fill="#2a3d6b"/>
        <rect id="Rectángulo_347814" data-name="Rectángulo 347814" width="6.868" height="6.868" transform="translate(51.188 114.846) rotate(-50.86)" fill="#2a3d6b"/>
        <rect id="Rectángulo_347815" data-name="Rectángulo 347815" width="6.868" height="6.868" transform="translate(157.534 201.392) rotate(-50.86)" fill="#2a3d6b"/>
        <rect id="Rectángulo_347816" data-name="Rectángulo 347816" width="6.868" height="6.868" transform="translate(66.396 215.644) rotate(-140.86)" fill="#2a3d6b"/>
        <rect id="Rectángulo_347817" data-name="Rectángulo 347817" width="6.868" height="6.868" transform="translate(152.955 109.301) rotate(-140.86)" fill="#2a3d6b"/>
        <rect id="Rectángulo_347818" data-name="Rectángulo 347818" width="38.592" height="18.091" rx="9.045" transform="matrix(0.987, 0.158, -0.158, 0.987, 108.479, 40.158)" fill="#2b478b"/>
        <rect id="Rectángulo_347819" data-name="Rectángulo 347819" width="20.092" height="12.413" rx="6.206" transform="matrix(0.849, -0.528, 0.528, 0.849, 45.536, 74.681)" fill="#2b478b"/>
        <path id="Trazado_736121" data-name="Trazado 736121" d="M915.883,461.355c2.258-.542,5.367-3.151,5.818-.535s1.615,13.633.9,19.937c-1.057,1.588-12.723-9.344-12.723-9.344l6-10.058Z" transform="translate(-878.204 -383.775)" fill="#ffb27d"/>
      </g>
      <g id="Grupo_1014469" data-name="Grupo 1014469" transform="translate(319.147 131.081)">
        <path id="Trazado_736122" data-name="Trazado 736122" d="M1506.94,692.322l-2.815,1.07-18.939,7.2a12.423,12.423,0,0,1-1.341.426,12.937,12.937,0,0,1-15.295-7.9l-.278-.727a12.936,12.936,0,0,1,7.475-16.638l17.654-6.708,1.282-.488,2.815-1.07a12.932,12.932,0,0,1,16.636,7.475l.279.727a12.935,12.935,0,0,1-7.475,16.638Z" transform="translate(-1467.435 -666.644)" fill="#ffb27d"/>
        <path id="Trazado_736123" data-name="Trazado 736123" d="M1507.259,724.976c-3.161,1.2-8.882,3.323-11.942,3.762-.865.126-2.461-.345-3.95-1.977a11.683,11.683,0,0,1-2.381-4.295,13.593,13.593,0,0,1-.648-2.741,11.559,11.559,0,0,1,.1-3.262,3.257,3.257,0,0,1,1.807-2.327s.01,0,.015-.007a75,75,0,0,1,11.486-4.5,4.991,4.991,0,0,1,6.191,2.766l.4,1.087,2.032,5.567a4.767,4.767,0,0,1-3.109,5.929Z" transform="translate(-1483.132 -698.864)" fill="#ffd3b6"/>
        <path id="Trazado_736124" data-name="Trazado 736124" d="M1513.182,734.49c-3.16,1.2-8.883,3.323-11.942,3.762-.866.126-2.46-.345-3.949-1.977-.16-.37-.306-.762-.444-1.181a13.783,13.783,0,0,1-.648-2.741,11.573,11.573,0,0,1,.1-3.262,3.257,3.257,0,0,1,1.807-2.327s.01,0,.015-.007a74.982,74.982,0,0,1,11.486-4.5,5.443,5.443,0,0,1,4.65.737l2.032,5.567a4.767,4.767,0,0,1-3.109,5.929Z" transform="translate(-1489.055 -708.379)" fill="#ffc197"/>
      </g>
      <g id="Grupo_1014470" data-name="Grupo 1014470" transform="translate(330.048 162.871)">
        <path id="Trazado_736125" data-name="Trazado 736125" d="M1537.267,813.675l-14.6,3.977a8.388,8.388,0,0,1-10.266-5.872l-.451-1.652a8.388,8.388,0,0,1,5.872-10.266l14.6-3.977a8.387,8.387,0,0,1,10.266,5.873l.451,1.652A8.388,8.388,0,0,1,1537.267,813.675Z" transform="translate(-1511.653 -795.593)" fill="#ffb27d"/>
        <path id="Trazado_736126" data-name="Trazado 736126" d="M1537.274,828.671a65.72,65.72,0,0,1-10.073,2.118c-.925.052-2.776-.73-3.984-3.161a11.039,11.039,0,0,1-1.072-4.206,8.423,8.423,0,0,1,.325-2.5,2.593,2.593,0,0,1,1.652-1.669.034.034,0,0,0,.015-.007,65.183,65.183,0,0,1,9.755-2.722c2.234-.392,4.352.683,4.874,2.524l.377,1.316,1.125,3.95c.52,1.827-.8,3.772-2.991,4.354Z" transform="translate(-1519.557 -811.304)" fill="#ffd3b6"/>
        <path id="Trazado_736127" data-name="Trazado 736127" d="M1539.655,835.384a65.691,65.691,0,0,1-10.073,2.118c-.924.052-2.776-.73-3.984-3.161a9.213,9.213,0,0,1-.294-2.014,8.353,8.353,0,0,1,.326-2.5,2.6,2.6,0,0,1,1.651-1.669c.007,0,.01,0,.015-.008a64.635,64.635,0,0,1,9.756-2.717,4.409,4.409,0,0,1,4.472,1.644l1.125,3.95c.52,1.827-.8,3.772-2.991,4.354Z" transform="translate(-1521.938 -818.016)" fill="#ffc197"/>
      </g>
      <g id="Grupo_1014471" data-name="Grupo 1014471" transform="translate(313.585 98.013)">
        <path id="Trazado_736128" data-name="Trazado 736128" d="M1485.349,564.726c-.1.037-.207.071-.316.108l-19.146,4.916c-8.419,2.165-17.124-2.391-19.348-10.123l-1.139-3.959c-2.135-7.421,2.456-15.181,10.278-17.7l6.321-1.625,12.824-3.291c8.419-2.164,17.124,2.391,19.346,10.123l1.139,3.959c2.106,7.322-2.332,14.967-9.962,17.593Z" transform="translate(-1444.878 -532.515)" fill="#ffb27d"/>
        <path id="Trazado_736129" data-name="Trazado 736129" d="M1518.542,582.174l-9.3,4.191c-.015,0-.032.007-.06.015a9.732,9.732,0,0,1-1.124.232c-.155.024-.316.042-.47.059a1.061,1.061,0,0,1-.2,0,1.479,1.479,0,0,1-1.285-2.09,9.23,9.23,0,0,0,.525-6.306l-.222-.811a.083.083,0,0,0-.007-.025l-.72-2.64a9.909,9.909,0,0,0-3.372-5.14c-.19-.155-.387-.3-.589-.439a2.672,2.672,0,0,1,.782-4.756c.019-.008.037-.01.059-.017l10.209-1.543c2.525-.685,4.953,1.257,5.644,3.779l.821,3.008,1.745,6.415C1521.662,578.634,1521.064,581.489,1518.542,582.174Z" transform="translate(-1486.844 -555.308)" fill="#ffd3b6"/>
        <path id="Trazado_736130" data-name="Trazado 736130" d="M1523.834,594.863l-9.3,4.191a.586.586,0,0,0-.059.015c-.217.042-.9.155-1.793.293a1.479,1.479,0,0,1-1.284-2.091,9.231,9.231,0,0,0,.525-6.306l-.222-.811a.075.075,0,0,0-.008-.025l-.72-2.64a9.909,9.909,0,0,0-3.372-5.14,2.594,2.594,0,0,1,1.464-1.043c.018-.007.037-.01.059-.017l10.209-1.543a4.643,4.643,0,0,1,5.192,2.635l1.745,6.415C1526.955,591.323,1526.356,594.178,1523.834,594.863Z" transform="translate(-1492.137 -567.997)" fill="#ffc197"/>
      </g>
      <path id="Trazado_736131" data-name="Trazado 736131" d="M146.542,1386.988s-8.627-23.58-22.953-33.71c0,0-6.665,47.993-15.517,46.2s11.282-52.941,11.282-52.941-35.176-34.265-52.171-38.2c0,0,11.22,52.819,3.076,48.9S47.9,1298.9,47.9,1298.9,18.212,1282.407.01,1292.352v55.369c13.931,5.516,35.474,13.588,33.387,17.222s-19.053,4.183-33.387.283v38.566c3.258,4.154,7.269,7.251,12.2,8.4,23.018,5.366,34.558-6.125,48.722-2.548s23,10.679,14.854,12.077-30.678-8.947-45.013-3.21-25.327,8.544-6.041,19.748,57.346,21.032,70.131,7.6h0c.558-.591,1.09-1.15,1.6-1.684,0,0,.006-.006.009-.01a8.8,8.8,0,0,1-1.61,1.694c3.073,3.512,5.235,16.072,6.471,25.563.1,1.571.352,3.787.8,6.821.149,1.409.26,2.55.331,3.332.334,6.134-.693,13.1-2.311,19.865H106.3a76.627,76.627,0,0,0-1.054-26.679h0c-4.2-24.458,2.4-42.334,2.4-42.334h0c.1-.021,47.309-8.968,38.9-45.44Z" transform="translate(-0.01 -1152.031)" fill="#fcecdb"/>
      <path id="Trazado_736132" data-name="Trazado 736132" d="M1328.749,1422.305c-7.488-27.645-54.136-19.006-54.136-19.006s-31.675,48.375-40.892,49.53,19.006-46.65,19.006-46.65c-17.854-1.728-63.351,20.158-63.351,20.158s2.88,56.44-6.336,55.289,0-50.1,0-50.1c-17.277,5.182-33.4,25.342-33.4,25.342-20.157,32.827,23.037,57.015,23.037,57.015s.577,19.58-11.519,42.043h0a66.554,66.554,0,0,0-5.5,11.2h4.71q.576-1.9,1.278-3.655a.037.037,0,0,1,.008-.022.466.466,0,0,1,.022-.05c.323-.729.787-1.764,1.364-3.026v-.006s0,0,0-.006c1.439-2.816,2.41-4.9,3.026-6.4,0-.006,0-.008.005-.013,4.312-8.844,10.524-20.365,14.666-22.783a9.113,9.113,0,0,1-1.008-2.162c.32.69.657,1.408,1.008,2.162,8.062,17.277,48.379,20.157,70.839,15.549s12.669-10.941.574-21.225-37.435-7.57-44.923-11.6,3.457-8.062,18.429-6.91,22.459,16.126,46.651,18.428,42.617-43.194,42.617-43.194c-16.7,5.182-46.65-4.031-47.8-9.79s43.194-5.183,50.1-6.911,19.006-15.549,11.518-43.194Z" transform="translate(-915.8 -1107.321)" fill="#fcecdb"/>
      <path id="Trazado_736133" data-name="Trazado 736133" d="M610.976,1311.549c-9.775-3.592-7.711,11.373-13.877,29.056s-28.235,33.028-18.475,43.333c21.1,16.469,70.158,18.976,104.426,36.393,11.022-3.9,11.2-28.553,11.022-46.3s14.78-25.511,6.316-31.245C661.757,1342.782,618.286,1320.565,610.976,1311.549Z" transform="translate(-476.747 -1021.074)" fill="#f99746"/>
      <path id="Trazado_736134" data-name="Trazado 736134" d="M832.693,673.894c1.615-46.059-8.478-63.27-9.861-85.852-.4-6.464,12.031-43.062,11.513-66.958-3.89-11.971-29.924,34.635-34.278,53.754S783.784,644.782,803.213,664s29.48,9.893,29.48,9.893Z" transform="translate(-639.703 -424.427)" fill="#ffb27d"/>
    </g>
  </g>
</svg>
