<svg xmlns="http://www.w3.org/2000/svg" xmlns:xlink="http://www.w3.org/1999/xlink" width="137" height="136" viewBox="0 0 137 136">
  <defs>
    <clipPath id="clip-path">
      <path id="Trazado_728238" data-name="Trazado 728238" d="M120.635,300.99v2.967a.459.459,0,0,1-.285.38V301.37A.459.459,0,0,0,120.635,300.99Z" transform="translate(-120.35 -300.99)" fill="#4b3d46"/>
    </clipPath>
    <clipPath id="clip-path-2">
      <path id="Trazado_728242" data-name="Trazado 728242" d="M113.09,308.744v-2.967a.467.467,0,0,1,.273-.368v2.967A.451.451,0,0,0,113.09,308.744Z" transform="translate(-113.09 -305.41)" fill="#4b3d46"/>
    </clipPath>
    <clipPath id="clip-path-3">
      <path id="Trazado_728245" data-name="Trazado 728245" d="M131.515,307.27v2.967a.459.459,0,0,1-.285.38V307.65A.459.459,0,0,0,131.515,307.27Z" transform="translate(-131.23 -307.27)" fill="#4b3d46"/>
    </clipPath>
    <clipPath id="clip-path-4">
      <path id="Trazado_728248" data-name="Trazado 728248" d="M106.53,310.3V307.33a2.386,2.386,0,0,0,1.4,1.958v2.967A2.363,2.363,0,0,1,106.53,310.3Z" transform="translate(-106.53 -307.33)" fill="#3d3138"/>
    </clipPath>
    <clipPath id="clip-path-5">
      <path id="Trazado_728254" data-name="Trazado 728254" d="M122.2,313.46v2.967a7.44,7.44,0,0,1-6.716,0V313.46A7.44,7.44,0,0,0,122.2,313.46Z" transform="translate(-115.48 -313.46)" fill="#4b3d46"/>
    </clipPath>
    <clipPath id="clip-path-6">
      <path id="Trazado_728283" data-name="Trazado 728283" d="M107.72,310.233l.047-14.833a2.37,2.37,0,0,0,1.388,1.958l-.047,14.833A2.347,2.347,0,0,1,107.72,310.233Z" transform="translate(-107.72 -295.4)" fill="#eadcd3"/>
    </clipPath>
    <clipPath id="clip-path-7">
      <path id="Trazado_728288" data-name="Trazado 728288" d="M120.922,300.1l-.047,14.833a7.415,7.415,0,0,1-6.7,0l.047-14.833A7.416,7.416,0,0,0,120.922,300.1Z" transform="translate(-114.17 -300.1)" fill="#eadcd3"/>
    </clipPath>
    <clipPath id="clip-path-8">
      <path id="Trazado_728297" data-name="Trazado 728297" d="M111.882,291.619a.664.664,0,0,1-.392-.546l.024-6.5a.664.664,0,0,0,.392.546,2.086,2.086,0,0,0,1.875,0,.656.656,0,0,0,.38-.534l-.024,6.5a.656.656,0,0,1-.38.534A2.086,2.086,0,0,1,111.882,291.619Z" transform="translate(-111.49 -284.57)" fill="none"/>
    </clipPath>
    <clipPath id="clip-path-9">
      <path id="Trazado_728300" data-name="Trazado 728300" d="M115.688,283.362l-.024,6.5a1.319,1.319,0,0,1-.771,1.08,4.172,4.172,0,0,1-3.75,0,1.327,1.327,0,0,1-.783-1.092l.024-6.5a1.327,1.327,0,0,0,.783,1.092,4.172,4.172,0,0,0,3.75,0A1.319,1.319,0,0,0,115.688,283.362Z" transform="translate(-110.36 -283.35)" fill="none"/>
    </clipPath>
    <clipPath id="clip-path-10">
      <path id="Trazado_728308" data-name="Trazado 728308" d="M107.942,293.9a.664.664,0,0,1-.392-.546l.024-6.5a.664.664,0,0,0,.392.546,2.086,2.086,0,0,0,1.875,0,.656.656,0,0,0,.38-.534l-.024,6.5a.656.656,0,0,1-.38.534A2.086,2.086,0,0,1,107.942,293.9Z" transform="translate(-107.55 -286.85)" fill="none"/>
    </clipPath>
    <clipPath id="clip-path-11">
      <path id="Trazado_728311" data-name="Trazado 728311" d="M111.758,285.642l-.024,6.5a1.32,1.32,0,0,1-.771,1.08,4.172,4.172,0,0,1-3.75,0,1.327,1.327,0,0,1-.783-1.092l.024-6.5a1.327,1.327,0,0,0,.783,1.092,4.172,4.172,0,0,0,3.75,0A1.319,1.319,0,0,0,111.758,285.642Z" transform="translate(-106.43 -285.63)" fill="none"/>
    </clipPath>
    <clipPath id="clip-path-12">
      <path id="Trazado_728319" data-name="Trazado 728319" d="M115.322,293.689a.664.664,0,0,1-.392-.546l.024-6.5a.664.664,0,0,0,.392.546,2.086,2.086,0,0,0,1.875,0,.632.632,0,0,0,.38-.534l-.024,6.5a.656.656,0,0,1-.38.534A2.086,2.086,0,0,1,115.322,293.689Z" transform="translate(-114.93 -286.64)" fill="none"/>
    </clipPath>
    <clipPath id="clip-path-13">
      <path id="Trazado_728322" data-name="Trazado 728322" d="M119.128,285.422l-.024,6.5a1.32,1.32,0,0,1-.771,1.08,4.172,4.172,0,0,1-3.75,0,1.327,1.327,0,0,1-.783-1.092l.024-6.5a1.327,1.327,0,0,0,.783,1.092,4.172,4.172,0,0,0,3.75,0A1.319,1.319,0,0,0,119.128,285.422Z" transform="translate(-113.8 -285.41)" fill="none"/>
    </clipPath>
    <clipPath id="clip-path-14">
      <path id="Trazado_728330" data-name="Trazado 728330" d="M111.382,295.969a.664.664,0,0,1-.392-.546l.024-6.5a.664.664,0,0,0,.392.546,2.086,2.086,0,0,0,1.875,0,.656.656,0,0,0,.38-.534l-.024,6.5a.656.656,0,0,1-.38.534A2.086,2.086,0,0,1,111.382,295.969Z" transform="translate(-110.99 -288.92)" fill="none"/>
    </clipPath>
    <clipPath id="clip-path-15">
      <path id="Trazado_728333" data-name="Trazado 728333" d="M115.2,287.712l-.024,6.5a1.32,1.32,0,0,1-.771,1.08,4.172,4.172,0,0,1-3.75,0,1.327,1.327,0,0,1-.783-1.092l.024-6.5a1.327,1.327,0,0,0,.783,1.092,4.172,4.172,0,0,0,3.75,0A1.32,1.32,0,0,0,115.2,287.712Z" transform="translate(-109.87 -287.7)" fill="none"/>
    </clipPath>
    <clipPath id="clip-path-16">
      <path id="Trazado_728342" data-name="Trazado 728342" d="M119.57,275.542v20.624c0,.083-.059.154-.166.214a.854.854,0,0,1-.759,0,.261.261,0,0,1-.154-.225V275.53a.277.277,0,0,0,.166.225.855.855,0,0,0,.759,0A.26.26,0,0,0,119.57,275.542Z" transform="translate(-118.49 -275.53)" fill="#adb2cc"/>
    </clipPath>
    <clipPath id="clip-path-17">
      <path id="Trazado_728346" data-name="Trazado 728346" d="M115.48,278v20.624c0,.083-.059.154-.166.214a.854.854,0,0,1-.759,0,.261.261,0,0,1-.154-.225V277.99a.277.277,0,0,0,.166.225.854.854,0,0,0,.759,0A.26.26,0,0,0,115.48,278Z" transform="translate(-114.4 -277.99)" fill="#adb2cc"/>
    </clipPath>
    <clipPath id="clip-path-18">
      <path id="Trazado_728350" data-name="Trazado 728350" d="M121.711,281.812v.463a.363.363,0,0,1-.214.3,1.156,1.156,0,0,1-1.044,0,.364.364,0,0,1-.214-.308V281.8a.379.379,0,0,0,.214.309,1.156,1.156,0,0,0,1.044,0A.363.363,0,0,0,121.711,281.812Z" transform="translate(-120.24 -281.8)" fill="#eadcd3"/>
    </clipPath>
    <clipPath id="clip-path-19">
      <path id="Trazado_728354" data-name="Trazado 728354" d="M123.061,282.572v.463a.363.363,0,0,1-.214.3,1.156,1.156,0,0,1-1.044,0,.364.364,0,0,1-.214-.309v-.463a.379.379,0,0,0,.214.309,1.156,1.156,0,0,0,1.044,0A.363.363,0,0,0,123.061,282.572Z" transform="translate(-121.59 -282.56)" fill="#eadcd3"/>
    </clipPath>
    <clipPath id="clip-path-20">
      <path id="Trazado_728358" data-name="Trazado 728358" d="M124.431,283.372v.463a.363.363,0,0,1-.214.3,1.156,1.156,0,0,1-1.044,0,.364.364,0,0,1-.214-.309v-.463a.379.379,0,0,0,.214.309,1.156,1.156,0,0,0,1.044,0A.363.363,0,0,0,124.431,283.372Z" transform="translate(-122.96 -283.36)" fill="#eadcd3"/>
    </clipPath>
    <clipPath id="clip-path-21">
      <path id="Trazado_728362" data-name="Trazado 728362" d="M125.771,284.142v.463a.363.363,0,0,1-.214.3,1.156,1.156,0,0,1-1.044,0,.364.364,0,0,1-.214-.309v-.463a.379.379,0,0,0,.214.309,1.156,1.156,0,0,0,1.044,0A.363.363,0,0,0,125.771,284.142Z" transform="translate(-124.3 -284.13)" fill="#eadcd3"/>
    </clipPath>
    <clipPath id="clip-path-22">
      <path id="Trazado_728366" data-name="Trazado 728366" d="M127.151,284.942v.463a.363.363,0,0,1-.214.3,1.156,1.156,0,0,1-1.044,0,.364.364,0,0,1-.214-.309v-.463a.379.379,0,0,0,.214.309,1.156,1.156,0,0,0,1.044,0A.363.363,0,0,0,127.151,284.942Z" transform="translate(-125.68 -284.93)" fill="#eadcd3"/>
    </clipPath>
    <clipPath id="clip-path-23">
      <path id="Trazado_728370" data-name="Trazado 728370" d="M128.491,285.712v.463a.363.363,0,0,1-.214.3,1.156,1.156,0,0,1-1.044,0,.364.364,0,0,1-.214-.309V285.7a.379.379,0,0,0,.214.309,1.156,1.156,0,0,0,1.044,0A.363.363,0,0,0,128.491,285.712Z" transform="translate(-127.02 -285.7)" fill="#eadcd3"/>
    </clipPath>
    <clipPath id="clip-path-24">
      <path id="Trazado_728373" data-name="Trazado 728373" d="M122.282,297.879a.664.664,0,0,1-.392-.546l.024-6.5a.664.664,0,0,0,.392.546,2.086,2.086,0,0,0,1.875,0,.656.656,0,0,0,.38-.534l-.024,6.5a.656.656,0,0,1-.38.534A2.086,2.086,0,0,1,122.282,297.879Z" transform="translate(-121.89 -290.83)" fill="none"/>
    </clipPath>
    <clipPath id="clip-path-25">
      <path id="Trazado_728376" data-name="Trazado 728376" d="M126.088,289.622l-.024,6.5a1.319,1.319,0,0,1-.771,1.08,4.172,4.172,0,0,1-3.75,0,1.327,1.327,0,0,1-.783-1.092l.024-6.5a1.327,1.327,0,0,0,.783,1.092,4.172,4.172,0,0,0,3.75,0A1.32,1.32,0,0,0,126.088,289.622Z" transform="translate(-120.76 -289.61)" fill="none"/>
    </clipPath>
    <clipPath id="clip-path-26">
      <path id="Trazado_728384" data-name="Trazado 728384" d="M118.342,300.159a.664.664,0,0,1-.392-.546l.024-6.5a.664.664,0,0,0,.392.546,2.086,2.086,0,0,0,1.875,0,.656.656,0,0,0,.38-.534l-.024,6.5a.656.656,0,0,1-.38.534A2.086,2.086,0,0,1,118.342,300.159Z" transform="translate(-117.95 -293.11)" fill="none"/>
    </clipPath>
    <clipPath id="clip-path-27">
      <path id="Trazado_728387" data-name="Trazado 728387" d="M122.158,291.9l-.024,6.5a1.319,1.319,0,0,1-.771,1.08,4.172,4.172,0,0,1-3.75,0,1.327,1.327,0,0,1-.783-1.092l.024-6.5a1.327,1.327,0,0,0,.783,1.092,4.172,4.172,0,0,0,3.75,0A1.32,1.32,0,0,0,122.158,291.9Z" transform="translate(-116.83 -291.89)" fill="none"/>
    </clipPath>
  </defs>
  <g id="Grupo_1023226" data-name="Grupo 1023226" transform="translate(2450.273 8813)">
    <g id="Grupo_1014074" data-name="Grupo 1014074" transform="translate(-3418.273 -10071)">
      <g id="Grupo_958245" data-name="Grupo 958245">
        <rect id="Rectángulo_340365" data-name="Rectángulo 340365" width="137" height="136" rx="12" transform="translate(968 1258)" fill="#12263f"/>
      </g>
    </g>
    <g id="Grupo_1014079" data-name="Grupo 1014079" transform="translate(-3580.45 -12140.001)">
      <g id="Grupo_1011996" data-name="Grupo 1011996" transform="translate(1176.901 3341.562)">
        <g id="Grupo_1011881" data-name="Grupo 1011881" transform="translate(0 1.08)">
          <path id="Trazado_728179" data-name="Trazado 728179" d="M140.759,360l29.6-17.369-47.2-27.566L93.14,332.5,138.4,358.94Z" transform="translate(-91.562 -267.26)" fill="#a1c2d1" opacity="0.3"/>
          <g id="Grupo_1011880" data-name="Grupo 1011880">
            <g id="Grupo_1011863" data-name="Grupo 1011863" transform="translate(30.283)">
              <g id="Grupo_1011859" data-name="Grupo 1011859" transform="translate(0 9.79)">
                <g id="Grupo_1011857" data-name="Grupo 1011857" transform="translate(14.845)">
                  <path id="Trazado_728180" data-name="Trazado 728180" d="M145.3,291.26l-.036,26.011-1.187.688.036-26.011Z" transform="translate(-127.182 -281.494)" fill="#f8a40a"/>
                  <path id="Trazado_728181" data-name="Trazado 728181" d="M146.773,293.376l-.036,26.011-16.9-9.754.024-26.023Z" transform="translate(-129.84 -282.922)" fill="#ffb700"/>
                  <path id="Trazado_728182" data-name="Trazado 728182" d="M147.956,292.8l-1.187.688-16.91-9.766,1.187-.688Z" transform="translate(-129.836 -283.03)" fill="#fdda4c"/>
                </g>
                <g id="Grupo_1011858" data-name="Grupo 1011858" transform="translate(0 24.801)">
                  <path id="Trazado_728183" data-name="Trazado 728183" d="M146.436,312.15l-.012,1.91-14.9,8.663.012-1.91Z" transform="translate(-114.682 -302.396)" fill="#f8a40a"/>
                  <path id="Trazado_728184" data-name="Trazado 728184" d="M134.18,320.984l-.012,1.91-16.838-9.742V311.23Z" transform="translate(-117.33 -302.568)" fill="#2f98cd"/>
                  <path id="Trazado_728185" data-name="Trazado 728185" d="M149.085,313.684l-14.9,8.663-16.85-9.754,14.9-8.662Z" transform="translate(-117.33 -303.93)" fill="#fbc70e"/>
                </g>
              </g>
              <g id="Grupo_1011862" data-name="Grupo 1011862" transform="translate(1.989)">
                <g id="Grupo_1011860" data-name="Grupo 1011860" transform="translate(0 31.814)">
                  <path id="Trazado_728186" data-name="Trazado 728186" d="M141.667,301.59a26.092,26.092,0,0,0-.237,2.694C141.477,303.382,141.549,302.48,141.667,301.59Z" transform="translate(-114.821 -301.59)" fill="#f3a984"/>
                  <path id="Trazado_728187" data-name="Trazado 728187" d="M141.436,303.87c-.024.546-.036,1.092-.036,1.649C141.412,304.962,141.424,304.416,141.436,303.87Z" transform="translate(-114.826 -301.164)" fill="#f3a984"/>
                  <path id="Trazado_728188" data-name="Trazado 728188" d="M120,319.4c-1.187.973-2.207,6.977,2.587,6.847,2.48-.071,4.64-1.756,6.788-3.109,6.894-4.343,15.486-5.862,14.169-14.477-.119-.8-.332-4.141-.937-4.533-.439-.273-2.919.605-3.477.688-5.364.89-6.93-.807-7.82-.2-4.224,2.872-9.22,5.008-11.427,6.325-1.021.605,1.009,7.713.119,8.449Z" transform="translate(-119.006 -301.126)" fill="#3d3138"/>
                </g>
                <path id="Trazado_728189" data-name="Trazado 728189" d="M140.593,287.655a19.961,19.961,0,0,0-3.916-1.222l-.641-.142a7.851,7.851,0,0,0-4.758.392c-.047.024-.047,9.778-.047,9.778h9.351v-8.817Z" transform="translate(-116.725 -272.668)" fill="#f3a984"/>
                <path id="Trazado_728190" data-name="Trazado 728190" d="M135.292,286.5a5.455,5.455,0,0,0-2.124-.237c-3.334.225-6.467,2.907-8.129,4.711,0,0-1.875,1.91-2.468,2.706.665,1-2.338,4.675-1.424,5.458.724.617,4.13-2.112,6.752-3.418,3.75-1.863,4.7-3.738,6.5-4.735a8.408,8.408,0,0,1,.9-.415v-4.046Z" transform="translate(-118.639 -272.64)" fill="#c9222d"/>
                <path id="Trazado_728191" data-name="Trazado 728191" d="M145.478,291.919c-.2-2.243-2.753-3.477-4.616-4.616-.273,1.839-1.068,3.536-2.943,4.165a2.419,2.419,0,0,1-2.836-.854c-.985-1.305-.866-2.955-.7-4.6a9.165,9.165,0,0,0-2.421.688,4.425,4.425,0,0,0-1.816,1.519,5.424,5.424,0,0,0-.427,1.828,12.357,12.357,0,0,1-.676,2.065c-.32.771-.843,1.5-1.092,2.278a6.243,6.243,0,0,0-.285,2.646,22.334,22.334,0,0,0,1.282,3.928c.866,2.777.475,5.743.107,8.437-.071.558,3.133,2.041,6,2.136a9.221,9.221,0,0,0,5.957-1.768c.854-.664-.2-2.931.38-6.349.605-3.607,2.978-6.681,3.963-10.205a3.709,3.709,0,0,0,.131-1.317Z" transform="translate(-117.397 -272.684)" fill="#dc303c"/>
                <path id="Trazado_728192" data-name="Trazado 728192" d="M143.772,289.52c-5.791,1.21-3.631,13.2-10.822,11.2,1.21.676,3.987,2.361,3.987,3.7.166,2.836-.261,3.37-.843,6.254,2.266-.3,4.153-1.471,4.26-1.982a18.784,18.784,0,0,0-.107-2.29c-.487-8.769,6.455-13.017,3.512-16.874Z" transform="translate(-116.404 -272.029)" fill="#c9222d"/>
                <path id="Trazado_728193" data-name="Trazado 728193" d="M135.6,278.34a3.559,3.559,0,0,0,6.811,1.448,3.482,3.482,0,0,0,.309-1.448,3.57,3.57,0,0,0-3.56-3.56,3.371,3.371,0,0,0-.854.107A3.562,3.562,0,0,0,135.6,278.34Z" transform="translate(-115.909 -274.78)" fill="#10191b"/>
                <g id="Grupo_1011861" data-name="Grupo 1011861" transform="translate(13.182 0.909)">
                  <path id="Trazado_728194" data-name="Trazado 728194" d="M139.277,288.378c.107,3.453-5.921,3.512-5.826.261.119-4.521.38-5.043,2.361-5.743a5.554,5.554,0,0,1,1.685-.356c2.088-.036,1.282,1.1,1.2,1.9-.237,2.361.546,2.694.581,3.928Z" transform="translate(-129.493 -274.241)" fill="#f3a984"/>
                  <path id="Trazado_728195" data-name="Trazado 728195" d="M139.275,288.377c-.036-1.246-.819-1.566-.581-3.928.083-.8.89-1.934-1.2-1.9a4.926,4.926,0,0,0-1.685.356c-1.958.688-2.231,1.21-2.35,5.553,1.661-.166,3.133-2.148,4.83-.973a3.328,3.328,0,0,1,.973,1.353,2.873,2.873,0,0,0,.024-.463Z" transform="translate(-129.491 -274.239)" fill="#ee9c76"/>
                  <path id="Trazado_728196" data-name="Trazado 728196" d="M137.383,287.267c.178-.142.344-.3.51-.451a9.222,9.222,0,0,0,1.626-1.839,5.829,5.829,0,0,0-.487-6.989,5.306,5.306,0,0,0-5.15-1.388,7.583,7.583,0,0,0-1.4.581,3.763,3.763,0,0,0-1.068.748,4.193,4.193,0,0,0-.487.712,3.615,3.615,0,0,0-.368.89c-.356,1.412.593,2.848.047,4.236-.119.309-.3.581-.4.89a1.079,1.079,0,0,0,.036.937c.154.261.368.392.463.676.131.392.214.807.332,1.21a5.793,5.793,0,0,0,.463,1.27c.534.961,1.317,1.021,2.29.653a12.988,12.988,0,0,0,3.6-2.136Z" transform="translate(-130.115 -275.384)" fill="#ffbfa2"/>
                  <path id="Trazado_728197" data-name="Trazado 728197" d="M133.547,284.751c.427-1.721,2.444-2.29,3.3-3.726a10.738,10.738,0,0,0,1.46-3.655,5.352,5.352,0,0,0-4.414-.771,7.581,7.581,0,0,0-1.4.581,3.764,3.764,0,0,0-1.068.748,3.543,3.543,0,0,0-.475.712,3.616,3.616,0,0,0-.368.89c-.356,1.412.593,2.848.047,4.236-.119.309-.3.581-.4.89a1.079,1.079,0,0,0,.036.937c.154.261.368.392.463.688.131.392.214.807.332,1.21a5.8,5.8,0,0,0,.463,1.27,1.436,1.436,0,0,0,1.5.854c1.092-1.305.142-3.263.546-4.853Z" transform="translate(-130.111 -275.384)" fill="#ffbfa2"/>
                  <path id="Trazado_728198" data-name="Trazado 728198" d="M138.59,277.837a4.511,4.511,0,0,0-.736-.617,10.738,10.738,0,0,1-1.46,3.655c-.866,1.436-2.872,2.005-3.3,3.726-.392,1.59.546,3.536-.546,4.853a3.132,3.132,0,0,0,.8-.2,12.989,12.989,0,0,0,3.6-2.136c.178-.142.344-.3.51-.451a9.222,9.222,0,0,0,1.626-1.839A5.829,5.829,0,0,0,138.59,277.837Z" transform="translate(-129.661 -275.234)" fill="#f8b495"/>
                  <path id="Trazado_728199" data-name="Trazado 728199" d="M141.554,280.819c-.095-2.741-.973-3.145-1.946-4.082a5.055,5.055,0,0,0-3.679-1.187,7.593,7.593,0,0,0-3.785,1.21,1.249,1.249,0,0,0-.131.083,2.989,2.989,0,0,0-1.6,2.124c-.036.285-.166.878.059,1.1.19.19,1.139.107,1.329.107.581,0,1.092-.415,1.7-.32a1.211,1.211,0,0,1,.949.842c.095.332.036.712.225,1.009.2.32.617.427.89.688.558.51.51,1.543,1.187,1.887a2.083,2.083,0,0,0,1.341-.036,1.188,1.188,0,0,1,1.258.3c.083.13-.036.273-.024.439,0,.214-.059,1.056-.059,1.056a.778.778,0,0,0,.285-.071,2.771,2.771,0,0,0,.783-.878,7.055,7.055,0,0,0,1.234-4.26Z" transform="translate(-130.073 -275.546)" fill="#242a31"/>
                  <path id="Trazado_728200" data-name="Trazado 728200" d="M138.006,282.092c.937-.059,1.175,1.1.534,1.994a4.7,4.7,0,0,1-.759.7c-1.673,1.424-2.1-.119-1.566-.605,1.234-1.127.617-2.017,1.792-2.1Z" transform="translate(-129.017 -274.327)" fill="#f8b495"/>
                  <path id="Trazado_728201" data-name="Trazado 728201" d="M137.258,284.067c.107-.095,1.175-.724.451-1.151a.316.316,0,0,0-.451.273,3.1,3.1,0,0,1,0,.332.3.3,0,0,1-.071.178c-.095.154-.415.3-.356.522C136.89,284.423,137.2,284.114,137.258,284.067Z" transform="translate(-128.863 -274.178)" fill="#f3a984"/>
                </g>
              </g>
              <path id="Trazado_728202" data-name="Trazado 728202" d="M145.665,295.763c-.273-3.311-1.483-5.008-2.694-6.028-1.009-.842-1.7-.309-2.29.8a11.813,11.813,0,0,0-.712,8.022c1.151,5.221.985,13.385,5.435,8.295.5-.57.451.451.57.059.024-.059.427-.083.427-.214C146.46,305.731,146.21,302.4,145.665,295.763Z" transform="translate(-113.174 -272.066)" fill="#dc303c"/>
            </g>
            <g id="Grupo_1011879" data-name="Grupo 1011879" transform="translate(0 23.555)">
              <g id="Grupo_1011866" data-name="Grupo 1011866" transform="translate(56.354 20.185)">
                <g id="Grupo_1011864" data-name="Grupo 1011864" transform="translate(0.083)">
                  <path id="Trazado_728203" data-name="Trazado 728203" d="M140.74,312.867l.736-.427L153.8,345.263l-.736.439Z" transform="translate(-139.114 -311.491)" fill="#8f747d"/>
                  <path id="Trazado_728204" data-name="Trazado 728204" d="M139.37,312.079l.736-.439,1.626.949-.736.427Z" transform="translate(-139.37 -311.64)" fill="#a38b93"/>
                  <path id="Trazado_728205" data-name="Trazado 728205" d="M141,312.947l12.329,32.834-1.638-.949L139.37,312.01Z" transform="translate(-139.37 -311.571)" fill="#6b5864"/>
                </g>
                <g id="Grupo_1011865" data-name="Grupo 1011865" transform="translate(0 7.167)">
                  <path id="Trazado_728206" data-name="Trazado 728206" d="M149.81,318.107l.748-.427,1.626.937-.736.427Z" transform="translate(-137.338 -317.68)" fill="#a38b93"/>
                  <path id="Trazado_728207" data-name="Trazado 728207" d="M153.152,318.9l.736-.427-12.472,18.512-.736.427Z" transform="translate(-139.042 -317.533)" fill="#4b3d46"/>
                  <path id="Trazado_728208" data-name="Trazado 728208" d="M151.772,318.04l1.638.937-12.472,18.512-1.638-.937Z" transform="translate(-139.3 -317.613)" fill="#6b5864"/>
                </g>
              </g>
              <g id="Grupo_1011867" data-name="Grupo 1011867" transform="translate(39.859 37.011)">
                <path id="Trazado_728209" data-name="Trazado 728209" d="M126.07,339.645,149.2,326.2v.9L126.07,340.547Z" transform="translate(-125.275 -325.749)" fill="#4b3d46"/>
                <path id="Trazado_728210" data-name="Trazado 728210" d="M125.41,339.265l23.128-13.445.783.451-23.128,13.445Z" transform="translate(-125.398 -325.82)" fill="#62515c"/>
                <path id="Trazado_728211" data-name="Trazado 728211" d="M126.2,337.6v.9l-.8-.451.012-.9Z" transform="translate(-125.4 -323.705)" fill="#382e35"/>
              </g>
              <g id="Grupo_1011870" data-name="Grupo 1011870" transform="translate(32.787 33.914)">
                <g id="Grupo_1011868" data-name="Grupo 1011868" transform="translate(0.071)">
                  <path id="Trazado_728212" data-name="Trazado 728212" d="M120.87,324.427l.748-.427,12.317,32.834-.736.427Z" transform="translate(-119.244 -323.063)" fill="#a38b93"/>
                  <path id="Trazado_728213" data-name="Trazado 728213" d="M119.5,323.637l.736-.427,1.638.937-.748.427Z" transform="translate(-119.5 -323.21)" fill="#a38b93"/>
                  <path id="Trazado_728214" data-name="Trazado 728214" d="M121.126,324.507l12.329,32.834-1.626-.949L119.5,323.57Z" transform="translate(-119.5 -323.143)" fill="#8f747d"/>
                </g>
                <g id="Grupo_1011869" data-name="Grupo 1011869" transform="translate(0 7.155)">
                  <path id="Trazado_728215" data-name="Trazado 728215" d="M129.95,329.667l.736-.427,1.638.937-.748.439Z" transform="translate(-117.478 -329.24)" fill="#a38b93"/>
                  <path id="Trazado_728216" data-name="Trazado 728216" d="M133.282,330.469l.748-.439-12.483,18.512-.736.439Z" transform="translate(-119.184 -329.093)" fill="#6b5864"/>
                  <path id="Trazado_728217" data-name="Trazado 728217" d="M131.912,329.6l1.626.949-12.472,18.512-1.626-.949Z" transform="translate(-119.44 -329.173)" fill="#8f747d"/>
                </g>
              </g>
              <g id="Grupo_1011873" data-name="Grupo 1011873" transform="translate(23.97 2.646)">
                <g id="Grupo_1011871" data-name="Grupo 1011871" transform="translate(0.071)">
                  <path id="Trazado_728218" data-name="Trazado 728218" d="M113.45,298.089l.736-.439,12.329,32.834-.736.427Z" transform="translate(-111.812 -296.713)" fill="#8f747d"/>
                  <path id="Trazado_728219" data-name="Trazado 728219" d="M112.07,297.287l.736-.427,1.638.937-.736.439Z" transform="translate(-112.07 -296.86)" fill="#a38b93"/>
                  <path id="Trazado_728220" data-name="Trazado 728220" d="M113.708,298.169l12.329,32.823-1.638-.937L112.07,297.22Z" transform="translate(-112.07 -296.793)" fill="#6b5864"/>
                </g>
                <g id="Grupo_1011872" data-name="Grupo 1011872" transform="translate(0 7.155)">
                  <path id="Trazado_728221" data-name="Trazado 728221" d="M122.52,303.317l.736-.427,1.638.949-.736.427Z" transform="translate(-110.048 -302.89)" fill="#a38b93"/>
                  <path id="Trazado_728222" data-name="Trazado 728222" d="M125.862,304.117l.736-.427L114.126,322.2l-.736.427Z" transform="translate(-111.752 -302.741)" fill="#4b3d46"/>
                  <path id="Trazado_728223" data-name="Trazado 728223" d="M124.482,303.25l1.638.949-12.472,18.512-1.638-.949Z" transform="translate(-112.01 -302.823)" fill="#6b5864"/>
                </g>
              </g>
              <g id="Grupo_1011874" data-name="Grupo 1011874" transform="translate(8.674 19.508)">
                <path id="Trazado_728224" data-name="Trazado 728224" d="M99.78,324.895l23.128-13.445v.9L99.78,325.8Z" transform="translate(-98.997 -310.999)" fill="#4b3d46"/>
                <path id="Trazado_728225" data-name="Trazado 728225" d="M99.12,324.5l23.128-13.433.783.451L99.9,324.966Z" transform="translate(-99.12 -311.07)" fill="#62515c"/>
                <path id="Trazado_728226" data-name="Trazado 728226" d="M99.9,322.853v.9l-.783-.451v-.914Z" transform="translate(-99.12 -308.957)" fill="#382e35"/>
              </g>
              <g id="Grupo_1011877" data-name="Grupo 1011877" transform="translate(1.59 15.652)">
                <g id="Grupo_1011875" data-name="Grupo 1011875" transform="translate(0.071)">
                  <path id="Trazado_728227" data-name="Trazado 728227" d="M94.59,309.047l.736-.427,12.329,32.823-.736.427Z" transform="translate(-92.952 -307.671)" fill="#a38b93"/>
                  <path id="Trazado_728228" data-name="Trazado 728228" d="M93.21,308.247l.736-.427,1.638.949-.736.427Z" transform="translate(-93.21 -307.82)" fill="#a38b93"/>
                  <path id="Trazado_728229" data-name="Trazado 728229" d="M94.848,309.129l12.329,32.823-1.638-.937L93.21,308.18Z" transform="translate(-93.21 -307.753)" fill="#8f747d"/>
                </g>
                <g id="Grupo_1011876" data-name="Grupo 1011876" transform="translate(0 7.167)">
                  <path id="Trazado_728230" data-name="Trazado 728230" d="M103.66,314.287l.736-.427,1.638.937-.736.427Z" transform="translate(-91.188 -313.86)" fill="#a38b93"/>
                  <path id="Trazado_728231" data-name="Trazado 728231" d="M107,315.077l.736-.427L95.266,333.162l-.736.427Z" transform="translate(-92.892 -313.713)" fill="#6b5864"/>
                  <path id="Trazado_728232" data-name="Trazado 728232" d="M105.622,314.22l1.638.937L94.788,333.669l-1.638-.937Z" transform="translate(-93.15 -313.793)" fill="#8f747d"/>
                </g>
              </g>
              <g id="Grupo_1011878" data-name="Grupo 1011878">
                <path id="Trazado_728233" data-name="Trazado 728233" d="M156.275,316.68v2.136l-26.6,15.462v-2.136Z" transform="translate(-84.744 -290.515)" fill="#d2b2a3"/>
                <path id="Trazado_728234" data-name="Trazado 728234" d="M136.734,333.827v2.136L91.82,309.786l.012-2.136Z" transform="translate(-91.808 -292.2)" fill="#eadcd3"/>
                <path id="Trazado_728235" data-name="Trazado 728235" d="M163.329,320.807l-26.6,15.462L91.81,310.092l26.6-15.462Z" transform="translate(-91.81 -294.63)" fill="#f5ebe4"/>
              </g>
            </g>
          </g>
        </g>
        <g id="Grupo_1011995" data-name="Grupo 1011995" transform="translate(16.043)">
          <g id="Grupo_1011896" data-name="Grupo 1011896" transform="translate(1.424 30.657)">
            <g id="Grupo_1011884" data-name="Grupo 1011884" transform="translate(16.399 1.525)">
              <path id="Trazado_728236" data-name="Trazado 728236" d="M120.635,300.99v2.967a.459.459,0,0,1-.285.38V301.37A.459.459,0,0,0,120.635,300.99Z" transform="translate(-120.35 -300.99)" fill="#4b3d46"/>
              <g id="Grupo_1011883" data-name="Grupo 1011883" clip-path="url(#clip-path)">
                <g id="Grupo_1011882" data-name="Grupo 1011882">
                  <path id="Trazado_728237" data-name="Trazado 728237" d="M120.635,300.99v2.967a.459.459,0,0,1-.285.38V301.37a.459.459,0,0,0,.285-.38Z" transform="translate(-120.35 -300.99)" fill="#4b3d46"/>
                </g>
              </g>
            </g>
            <path id="Trazado_728239" data-name="Trazado 728239" d="M121.676,301.31v2.967l-8.366,4.865v-2.967Z" transform="translate(-105.265 -299.405)" fill="#4b3d46"/>
            <g id="Grupo_1011887" data-name="Grupo 1011887" transform="translate(7.784 6.77)">
              <path id="Trazado_728240" data-name="Trazado 728240" d="M113.09,308.744v-2.967a.467.467,0,0,1,.273-.368v2.967A.451.451,0,0,0,113.09,308.744Z" transform="translate(-113.09 -305.41)" fill="#4b3d46"/>
              <g id="Grupo_1011886" data-name="Grupo 1011886" clip-path="url(#clip-path-2)">
                <g id="Grupo_1011885" data-name="Grupo 1011885" transform="translate(-0.012)">
                  <path id="Trazado_728241" data-name="Trazado 728241" d="M113.353,305.41v2.967a.451.451,0,0,0-.273.368v-2.967a.467.467,0,0,1,.273-.368Z" transform="translate(-113.08 -305.41)" fill="#4b3d46"/>
                </g>
              </g>
            </g>
            <g id="Grupo_1011890" data-name="Grupo 1011890" transform="translate(29.31 8.977)">
              <path id="Trazado_728243" data-name="Trazado 728243" d="M131.515,307.27v2.967a.459.459,0,0,1-.285.38V307.65A.459.459,0,0,0,131.515,307.27Z" transform="translate(-131.23 -307.27)" fill="#4b3d46"/>
              <g id="Grupo_1011889" data-name="Grupo 1011889" clip-path="url(#clip-path-3)">
                <g id="Grupo_1011888" data-name="Grupo 1011888">
                  <path id="Trazado_728244" data-name="Trazado 728244" d="M131.515,307.27v2.967a.459.459,0,0,1-.285.38V307.65a.459.459,0,0,0,.285-.38Z" transform="translate(-131.23 -307.27)" fill="#4b3d46"/>
                </g>
              </g>
            </g>
            <g id="Grupo_1011893" data-name="Grupo 1011893" transform="translate(0 9.048)">
              <path id="Trazado_728246" data-name="Trazado 728246" d="M106.53,310.3V307.33a2.386,2.386,0,0,0,1.4,1.958v2.967A2.363,2.363,0,0,1,106.53,310.3Z" transform="translate(-106.53 -307.33)" fill="#3d3138"/>
              <g id="Grupo_1011892" data-name="Grupo 1011892" clip-path="url(#clip-path-4)">
                <g id="Grupo_1011891" data-name="Grupo 1011891" transform="translate(0 -0.012)">
                  <path id="Trazado_728247" data-name="Trazado 728247" d="M107.93,309.278v2.967a2.363,2.363,0,0,1-1.4-1.958V307.32a2.387,2.387,0,0,0,1.4,1.958Z" transform="translate(-106.53 -307.32)" fill="#3d3138"/>
                </g>
              </g>
            </g>
            <path id="Trazado_728249" data-name="Trazado 728249" d="M133.127,307.59l-.012,2.967-11.985,6.966.012-2.967Z" transform="translate(-103.805 -298.233)" fill="#62515c"/>
            <path id="Trazado_728250" data-name="Trazado 728250" d="M116.942,314.3l-.012,2.967-9.22-5.328V308.97Z" transform="translate(-106.31 -297.976)" fill="#3d3138"/>
            <path id="Trazado_728251" data-name="Trazado 728251" d="M135.849,308.3a.407.407,0,0,1,0,.771l-11.985,6.966a7.415,7.415,0,0,1-6.7,0l-9.22-5.328c-1.851-1.068-1.863-2.812-.024-3.88l11.985-6.966a1.458,1.458,0,0,1,1.329,0l1.721,1a.407.407,0,0,1,0,.771l-8.366,4.865a.391.391,0,0,0,0,.736l8.591,4.96a1.408,1.408,0,0,0,1.27,0l8.366-4.865a1.458,1.458,0,0,1,1.329,0l1.721,1Z" transform="translate(-106.527 -299.705)" fill="#6b5864"/>
            <g id="Grupo_1011895" data-name="Grupo 1011895" transform="translate(10.62 16.322)">
              <path id="Trazado_728252" data-name="Trazado 728252" d="M122.2,313.46v2.967a7.44,7.44,0,0,1-6.716,0V313.46A7.44,7.44,0,0,0,122.2,313.46Z" transform="translate(-115.48 -313.46)" fill="#4b3d46"/>
              <g id="Grupo_1011894" data-name="Grupo 1011894" clip-path="url(#clip-path-5)">
                <path id="Trazado_728253" data-name="Trazado 728253" d="M122.2,313.46v2.967a7.44,7.44,0,0,1-6.716,0V313.46a7.44,7.44,0,0,0,6.716,0Z" transform="translate(-115.48 -313.46)" fill="#4b3d46"/>
              </g>
            </g>
          </g>
          <g id="Grupo_1011897" data-name="Grupo 1011897" transform="translate(10.514 32.075)">
            <path id="Trazado_728255" data-name="Trazado 728255" d="M114.19,307.22l.012,2.575,3.489,2.029-.012-2.575Z" transform="translate(-114.19 -299.72)" fill="#d7c4b8"/>
            <path id="Trazado_728256" data-name="Trazado 728256" d="M117.13,310.11l.012,2.575,12.994-7.5-.012-2.575Z" transform="translate(-113.641 -300.581)" fill="#eadcd3"/>
            <path id="Trazado_728257" data-name="Trazado 728257" d="M114.19,308.4l3.489,2.029,12.994-7.5-3.489-2.029Z" transform="translate(-114.19 -300.9)" fill="#f5ebe4"/>
          </g>
          <path id="Trazado_728258" data-name="Trazado 728258" d="M142.328,308.581a61.362,61.362,0,0,0,6.871,4.865c.748.427.878-.32-2.338,1.543s-7.678,5.1-8.425,4.675a84.841,84.841,0,0,0-8.425-3.975c-.866-.368-.237-3.2-1.1-3.584-4.141-1.816-8.14-3.809-10.787-6.562.166-.047.32-.095.487-.142s.32-.095.487-.142c.617-.19,1.424-.475,2.029-.7l.309-.119a23.842,23.842,0,0,0,7.155-4.129l.2-.178A19.529,19.529,0,0,0,130.5,298.4a35.768,35.768,0,0,1,10.7,5.731c.89.664.249,3.785,1.1,4.45Z" transform="translate(-102.943 -269.292)" fill="#fdda4c"/>
          <path id="Trazado_728259" data-name="Trazado 728259" d="M129.887,306.7s-.071-.071-.131-.047a.721.721,0,0,1-.142.059l.024-.356s-.024-.071-.059-.083a9.727,9.727,0,0,0-1.009-.119,2.526,2.526,0,0,0-.036-.3.089.089,0,0,0-.107-.083.347.347,0,0,1-.451-.4.087.087,0,0,0-.119-.095.574.574,0,0,1-.249.095c-.2.059-.32-.071-.368-.392a.087.087,0,0,0-.047-.119.556.556,0,0,0-.392,0c-.142.036-.214.047-.32-.083-.024-.024,0-.083-.036-.107-.166-.142-.5-.047-.736,0a1.8,1.8,0,0,0,.142-.617.076.076,0,0,0-.095-.071,7.319,7.319,0,0,1-1,.178l.356-.641c.024-.047-.012-.095-.071-.095-.3.071-.605.131-.9.2-.047,0-.024.071.024.071.261-.036.522-.083.783-.131-.119.214-.237.427-.368.641a.07.07,0,0,0,.059.107,7.819,7.819,0,0,0,1.056-.166,1.735,1.735,0,0,1-.178.581c-.024.047,0,.119.059.119.131-.012.261-.036.4-.048.059,0,.214-.059.261-.036.095.047.095.154.166.225.19.178.439-.024.653,0a.394.394,0,0,0,.142.451.591.591,0,0,0,.593.036.514.514,0,0,0,.57.475c0,.095.024.19.024.285a.081.081,0,0,0,.083.083,4.648,4.648,0,0,1,.7.059c.095.012.214,0,.273.095.036.059-.024.285-.024.344a.087.087,0,0,0,.107.083.889.889,0,0,0,.19-.059c.012.059.024.107.036.166,0,.036.071.047.095.012a.377.377,0,0,0,.012-.32Z" transform="translate(-101.823 -268.355)" fill="#dc303c"/>
          <path id="Trazado_728260" data-name="Trazado 728260" d="M133.449,306.061a.49.49,0,0,1-.107.024,1.212,1.212,0,0,1-.843-.047,2.864,2.864,0,0,0-.949-.178c-1.139-.119-2.278-.249-3.418-.368-.19-.024-.427-.012-.5.154a.328.328,0,0,0,0,.237.865.865,0,0,0,.546.51,3.223,3.223,0,0,0,.748.154,6.553,6.553,0,0,1,1.234.332.259.259,0,0,1,.095.059c.036.059-.024.131-.071.19a5.37,5.37,0,0,1-1.614.842,21.135,21.135,0,0,0-2.041.937.971.971,0,0,0-.38.309.356.356,0,0,0,.024.451c.142.13.368.071.558,0,.463-.166.926-.332,1.388-.51.107-.036.843-.344.819-.083,0,.154-.4.309-.522.38-.309.19-.617.392-.937.581a1.708,1.708,0,0,0-.842.866c-.036.131-.047.237.059.309a.678.678,0,0,0,.344.047,1.4,1.4,0,0,0,.581-.285,10.212,10.212,0,0,1,1.4-.807,5.524,5.524,0,0,1,.724-.309c.32-.083.178.2.024.332a6.12,6.12,0,0,0-.961.878,1.821,1.821,0,0,0-.32.522c-.059.214.178.309.356.261a1.459,1.459,0,0,0,.475-.273c.344-.285.688-.558,1.032-.843a2.319,2.319,0,0,1,.475-.368c.131-.059.261-.036.225.131a2.472,2.472,0,0,1-.32.605,1.224,1.224,0,0,0-.131.463c0,.071,0,.166.071.19a.17.17,0,0,0,.166-.036,1.993,1.993,0,0,0,.748-.617,5.886,5.886,0,0,1,.748-.8,5.321,5.321,0,0,1,1.756-1.222c.4-.154.843-.237,1.234-.427a.563.563,0,0,0,.249-.19.523.523,0,0,0,.024-.356c-.071-.368-.059-.736-.166-1.1a3.5,3.5,0,0,0-.451-1.009.674.674,0,0,0-.356-.32.7.7,0,0,0-.486.083,6.922,6.922,0,0,1-.688.273Z" transform="translate(-101.457 -267.97)" fill="#ffbfa2"/>
          <path id="Trazado_728261" data-name="Trazado 728261" d="M132.5,309.583a3.026,3.026,0,0,0,2.409.225c1.851-.356,11.143-2.682,12.828-5.031.427-.593-.142-1.293-.475-2.089-.249-.605-2.741-1.222-3.382-.937-1,.439-8.271,3.05-11.154,4.723a2.133,2.133,0,0,0-.949.878A2.338,2.338,0,0,0,132.5,309.583Z" transform="translate(-100.411 -268.68)" fill="#dc303c"/>
          <g id="Grupo_1011898" data-name="Grupo 1011898" transform="translate(22.902 31.007)">
            <path id="Trazado_728262" data-name="Trazado 728262" d="M124.642,300v4.2a.224.224,0,0,0,.059.095.352.352,0,0,0,.309,0,.1.1,0,0,0,.059-.095V300h-.439Z" transform="translate(-124.63 -300)" fill="#adb2cc"/>
            <path id="Trazado_728263" data-name="Trazado 728263" d="M125.592,300.69v4.2a.225.225,0,0,0,.059.095.352.352,0,0,0,.309,0,.1.1,0,0,0,.059-.095v-4.2h-.439Z" transform="translate(-124.453 -299.871)" fill="#adb2cc"/>
            <path id="Trazado_728264" data-name="Trazado 728264" d="M126.412,301.11v4.2a.225.225,0,0,0,.059.095.352.352,0,0,0,.309,0,.1.1,0,0,0,.059-.095v-4.2H126.4Z" transform="translate(-124.3 -299.793)" fill="#adb2cc"/>
            <path id="Trazado_728265" data-name="Trazado 728265" d="M127.362,301.81v4.2a.225.225,0,0,0,.059.095.352.352,0,0,0,.309,0,.1.1,0,0,0,.059-.095v-4.2h-.439Z" transform="translate(-124.122 -299.662)" fill="#adb2cc"/>
          </g>
          <g id="Grupo_1011899" data-name="Grupo 1011899" transform="translate(12.531 26.201)">
            <path id="Trazado_728266" data-name="Trazado 728266" d="M132.12,306.507l2.053-1.187v.427l-2.053,1.187Z" transform="translate(-112.861 -294.201)" fill="#8b91ad"/>
            <path id="Trazado_728267" data-name="Trazado 728267" d="M115.89,297.137l2.053-1.187L137.2,307.069l-2.053,1.187Z" transform="translate(-115.89 -295.95)" fill="#adb2cc"/>
            <path id="Trazado_728268" data-name="Trazado 728268" d="M135.149,308.069v.427L115.89,297.377v-.427Z" transform="translate(-115.89 -295.763)" fill="#737a9c"/>
          </g>
          <g id="Grupo_1011900" data-name="Grupo 1011900" transform="translate(28.93 34.021)">
            <path id="Trazado_728269" data-name="Trazado 728269" d="M131.763,307.278l-2.053-1.2v.427l2.053,1.187Z" transform="translate(-129.71 -301.879)" fill="#8b91ad"/>
            <path id="Trazado_728270" data-name="Trazado 728270" d="M139.049,303.727,137,302.54l-7.286,4.2,2.053,1.2Z" transform="translate(-129.71 -302.54)" fill="#adb2cc"/>
            <path id="Trazado_728271" data-name="Trazado 728271" d="M131.44,307.753v.415l7.286-4.2v-.427Z" transform="translate(-129.387 -302.353)" fill="#737a9c"/>
          </g>
          <g id="Grupo_1011901" data-name="Grupo 1011901" transform="translate(13.148 12.745)">
            <path id="Trazado_728272" data-name="Trazado 728272" d="M127.386,293.007l3.6-2.077-.036,12.377-3.6,2.089Z" transform="translate(-114.368 -283.43)" fill="#4b3d46"/>
            <path id="Trazado_728273" data-name="Trazado 728273" d="M116.44,286.687l3.584-2.077,12.994,7.5-3.6,2.077Z" transform="translate(-116.404 -284.61)" fill="#6b5864"/>
            <path id="Trazado_728274" data-name="Trazado 728274" d="M129.427,293.86l-.036,12.389-12.982-7.5.036-12.389Z" transform="translate(-116.41 -284.283)" fill="#3d3138"/>
          </g>
          <g id="Grupo_1011902" data-name="Grupo 1011902" transform="translate(13.184 9.386)">
            <path id="Trazado_728275" data-name="Trazado 728275" d="M126.62,288.5l2.872-1.661,1.626,4.853-3.6,2.077Z" transform="translate(-114.54 -280.836)" fill="#62515c"/>
            <path id="Trazado_728276" data-name="Trazado 728276" d="M117.86,283.453l2.872-1.673,10.395,6-2.872,1.661Z" transform="translate(-116.175 -281.78)" fill="#6b5864"/>
            <path id="Trazado_728277" data-name="Trazado 728277" d="M128.52,289.183l.9,5.269-12.982-7.5,1.685-3.762Z" transform="translate(-116.44 -281.517)" fill="#3d3138"/>
          </g>
          <g id="Grupo_1011903" data-name="Grupo 1011903" transform="translate(7.096 18.369)">
            <path id="Trazado_728278" data-name="Trazado 728278" d="M128.456,295.67l-.012,4.153-6.194,3.6.012-4.153Z" transform="translate(-109.268 -288.17)" fill="#d7c4b8"/>
            <path id="Trazado_728279" data-name="Trazado 728279" d="M124.3,299.88l-.012,4.153-12.982-7.5.012-4.153Z" transform="translate(-111.31 -288.785)" fill="#eadcd3"/>
            <path id="Trazado_728280" data-name="Trazado 728280" d="M130.5,296.85l-6.194,3.6-12.982-7.5,6.194-3.6Z" transform="translate(-111.308 -289.35)" fill="#f5ebe4"/>
          </g>
          <g id="Grupo_1011910" data-name="Grupo 1011910" transform="translate(2.836 21.965)">
            <g id="Grupo_1011906" data-name="Grupo 1011906" transform="translate(0 3.584)">
              <path id="Trazado_728281" data-name="Trazado 728281" d="M107.72,310.233l.047-14.833a2.37,2.37,0,0,0,1.388,1.958l-.047,14.833A2.347,2.347,0,0,1,107.72,310.233Z" transform="translate(-107.72 -295.4)" fill="#eadcd3"/>
              <g id="Grupo_1011905" data-name="Grupo 1011905" clip-path="url(#clip-path-6)">
                <g id="Grupo_1011904" data-name="Grupo 1011904">
                  <path id="Trazado_728282" data-name="Trazado 728282" d="M109.156,297.358l-.047,14.833a2.347,2.347,0,0,1-1.388-1.958l.047-14.833a2.37,2.37,0,0,0,1.388,1.958Z" transform="translate(-107.72 -295.4)" fill="#eadcd3"/>
                </g>
              </g>
            </g>
            <path id="Trazado_728284" data-name="Trazado 728284" d="M122.715,298.7l-.036,14.833-2.86,1.661.047-14.833Z" transform="translate(-105.461 -291.2)" fill="#d7c4b8"/>
            <path id="Trazado_728285" data-name="Trazado 728285" d="M115.2,300.669l-.047,14.833-6.254-3.619.036-14.833Z" transform="translate(-107.5 -291.508)" fill="#eadcd3"/>
            <g id="Grupo_1011909" data-name="Grupo 1011909" transform="translate(7.654 9.161)">
              <path id="Trazado_728286" data-name="Trazado 728286" d="M120.922,300.1l-.047,14.833a7.415,7.415,0,0,1-6.7,0l.047-14.833A7.416,7.416,0,0,0,120.922,300.1Z" transform="translate(-114.17 -300.1)" fill="#eadcd3"/>
              <g id="Grupo_1011908" data-name="Grupo 1011908" clip-path="url(#clip-path-7)">
                <g id="Grupo_1011907" data-name="Grupo 1011907">
                  <path id="Trazado_728287" data-name="Trazado 728287" d="M120.922,300.1l-.047,14.833a7.415,7.415,0,0,1-6.7,0l.047-14.833a7.416,7.416,0,0,0,6.7,0Z" transform="translate(-114.17 -300.1)" fill="#eadcd3"/>
                </g>
              </g>
            </g>
            <path id="Trazado_728289" data-name="Trazado 728289" d="M124.967,299.88l-2.848,1.661a7.416,7.416,0,0,1-6.7,0l-6.265-3.619c-1.851-1.068-1.863-2.812-.024-3.88l2.848-1.661,12.994,7.5Z" transform="translate(-107.713 -292.38)" fill="#f5ebe4"/>
          </g>
          <g id="Grupo_1011911" data-name="Grupo 1011911" transform="translate(4.011 20.256)">
            <path id="Trazado_728290" data-name="Trazado 728290" d="M117.442,298.068l3.6-2.088-.012,3.216-3.6,2.077Z" transform="translate(-107.082 -289.999)" fill="#30272d"/>
            <path id="Trazado_728291" data-name="Trazado 728291" d="M108.72,293.029l3.584-2.089,10.359,5.981-3.6,2.088Z" transform="translate(-108.708 -290.94)" fill="#62515c"/>
            <path id="Trazado_728292" data-name="Trazado 728292" d="M119.069,298.681l-.012,3.2-10.348-5.969.012-3.216Z" transform="translate(-108.71 -290.612)" fill="#62515c"/>
          </g>
          <g id="Grupo_1011912" data-name="Grupo 1011912" transform="translate(0 15.889)">
            <path id="Trazado_728293" data-name="Trazado 728293" d="M129.059,295.33v.392l-9.719,5.648v-.392Z" transform="translate(-102.715 -285.754)" fill="#eadcd3"/>
            <path id="Trazado_728294" data-name="Trazado 728294" d="M121.946,301.6v.392L105.38,292.4v-.392Z" transform="translate(-105.321 -286.373)" fill="#d7c4b8"/>
            <path id="Trazado_728295" data-name="Trazado 728295" d="M131.614,296.836l-9.719,5.648L105.33,292.9l9.719-5.637Z" transform="translate(-105.33 -287.26)" fill="#f5ebe4"/>
          </g>
          <g id="Grupo_1011921" data-name="Grupo 1011921" transform="translate(5.969 9.725)">
            <g id="Grupo_1011915" data-name="Grupo 1011915" transform="translate(1.341 2.973)">
              <g id="Grupo_1011914" data-name="Grupo 1011914" clip-path="url(#clip-path-8)">
                <g id="Grupo_1011913" data-name="Grupo 1011913" transform="translate(-0.012)">
                  <path id="Trazado_728296" data-name="Trazado 728296" d="M114.15,284.582l-.024,6.5a.656.656,0,0,1-.38.534,2.086,2.086,0,0,1-1.875,0,.664.664,0,0,1-.392-.546l.024-6.5a.664.664,0,0,0,.392.546,2.086,2.086,0,0,0,1.875,0,.656.656,0,0,0,.38-.534Z" transform="translate(-111.48 -284.57)" fill="#50424b"/>
                </g>
              </g>
            </g>
            <g id="Grupo_1011920" data-name="Grupo 1011920">
              <g id="Grupo_1011919" data-name="Grupo 1011919" transform="translate(0 1.525)">
                <g id="Grupo_1011918" data-name="Grupo 1011918" clip-path="url(#clip-path-9)">
                  <g id="Grupo_1011916" data-name="Grupo 1011916">
                    <path id="Trazado_728298" data-name="Trazado 728298" d="M115.688,283.362l-.024,6.5a1.319,1.319,0,0,1-.771,1.08,4.172,4.172,0,0,1-3.75,0,1.327,1.327,0,0,1-.783-1.092l.024-6.5a1.327,1.327,0,0,0,.783,1.092,4.172,4.172,0,0,0,3.75,0,1.319,1.319,0,0,0,.771-1.08Z" transform="translate(-110.36 -283.35)" fill="#dc303c"/>
                  </g>
                  <g id="Grupo_1011917" data-name="Grupo 1011917" transform="translate(0.012 5.138)">
                    <path id="Trazado_728299" data-name="Trazado 728299" d="M115.674,287.692a13.912,13.912,0,0,1-5.3,1.092v.249a13.841,13.841,0,0,0,5.3-1.234v-.119Z" transform="translate(-110.37 -287.68)" fill="#c9222d"/>
                  </g>
                </g>
              </g>
              <path id="Trazado_728301" data-name="Trazado 728301" d="M114.9,282.51a1.148,1.148,0,0,1,.012,2.172,4.172,4.172,0,0,1-3.75,0,1.148,1.148,0,0,1-.012-2.172A4.172,4.172,0,0,1,114.9,282.51Zm-2.8,1.626a2.086,2.086,0,0,0,1.875,0,.572.572,0,0,0,0-1.08,2.061,2.061,0,0,0-1.863,0,.572.572,0,0,0,0,1.08h0Z" transform="translate(-110.356 -282.065)" fill="#e74f59"/>
            </g>
            <path id="Trazado_728302" data-name="Trazado 728302" d="M113.756,282.365a.568.568,0,0,1,0,1.08,2.086,2.086,0,0,1-1.875,0,.57.57,0,0,1,0-1.08,2.061,2.061,0,0,1,1.863,0Z" transform="translate(-110.148 -282.051)" fill="#5c4c56"/>
            <path id="Trazado_728303" data-name="Trazado 728303" d="M113.753,282.365a2.061,2.061,0,0,0-1.863,0,.632.632,0,0,0-.38.534v.676a.679.679,0,0,0,.392.546,2.086,2.086,0,0,0,1.875,0,.641.641,0,0,0,.38-.534V282.9a.664.664,0,0,0-.392-.546Z" transform="translate(-110.145 -282.051)" fill="#4b3d46"/>
            <path id="Trazado_728304" data-name="Trazado 728304" d="M113.753,282.365a2.061,2.061,0,0,0-1.863,0,.572.572,0,0,0,0,1.08,2.086,2.086,0,0,0,1.875,0,.641.641,0,0,0,.38-.534.665.665,0,0,0-.392-.558Z" transform="translate(-110.146 -282.051)" fill="#6b5864"/>
            <path id="Trazado_728305" data-name="Trazado 728305" d="M113.3,282.531a1.257,1.257,0,0,0-1.127,0,.346.346,0,0,0,0,.653,1.257,1.257,0,0,0,1.127,0,.373.373,0,0,0,.225-.32.389.389,0,0,0-.237-.332Z" transform="translate(-110.064 -282.003)" fill="#32272d"/>
            <path id="Trazado_728306" data-name="Trazado 728306" d="M115.672,287.753a9.616,9.616,0,0,1-5.292-1.934v.131a9.809,9.809,0,0,0,5.292,2.088v-.285Z" transform="translate(-110.356 -281.779)" fill="#c9222d"/>
          </g>
          <g id="Grupo_1011930" data-name="Grupo 1011930" transform="translate(1.305 12.43)">
            <g id="Grupo_1011924" data-name="Grupo 1011924" transform="translate(1.329 2.973)">
              <g id="Grupo_1011923" data-name="Grupo 1011923" clip-path="url(#clip-path-10)">
                <g id="Grupo_1011922" data-name="Grupo 1011922" transform="translate(0)">
                  <path id="Trazado_728307" data-name="Trazado 728307" d="M110.22,286.862l-.024,6.5a.656.656,0,0,1-.38.534,2.086,2.086,0,0,1-1.875,0,.664.664,0,0,1-.392-.546l.024-6.5a.664.664,0,0,0,.392.546,2.086,2.086,0,0,0,1.875,0,.656.656,0,0,0,.38-.534Z" transform="translate(-107.55 -286.85)" fill="#50424b"/>
                </g>
              </g>
            </g>
            <g id="Grupo_1011929" data-name="Grupo 1011929">
              <g id="Grupo_1011928" data-name="Grupo 1011928" transform="translate(0 1.525)">
                <g id="Grupo_1011927" data-name="Grupo 1011927" clip-path="url(#clip-path-11)">
                  <g id="Grupo_1011925" data-name="Grupo 1011925">
                    <path id="Trazado_728309" data-name="Trazado 728309" d="M111.758,285.642l-.024,6.5a1.32,1.32,0,0,1-.771,1.08,4.172,4.172,0,0,1-3.75,0,1.327,1.327,0,0,1-.783-1.092l.024-6.5a1.327,1.327,0,0,0,.783,1.092,4.172,4.172,0,0,0,3.75,0,1.319,1.319,0,0,0,.771-1.08Z" transform="translate(-106.43 -285.63)" fill="#ffb700"/>
                  </g>
                  <g id="Grupo_1011926" data-name="Grupo 1011926" transform="translate(0 5.162)">
                    <path id="Trazado_728310" data-name="Trazado 728310" d="M111.734,289.98a14.14,14.14,0,0,1-5.3,1.092v.249a14.046,14.046,0,0,0,5.3-1.222Z" transform="translate(-106.43 -289.98)" fill="#f8a40a"/>
                  </g>
                </g>
              </g>
              <path id="Trazado_728312" data-name="Trazado 728312" d="M110.971,284.79a1.148,1.148,0,0,1,.012,2.172,4.172,4.172,0,0,1-3.75,0,1.148,1.148,0,0,1-.012-2.172A4.172,4.172,0,0,1,110.971,284.79Zm-2.8,1.626a2.086,2.086,0,0,0,1.875,0,.572.572,0,0,0,0-1.08,2.061,2.061,0,0,0-1.863,0,.572.572,0,0,0,0,1.08h0Z" transform="translate(-106.426 -284.345)" fill="#fdda4c"/>
            </g>
            <path id="Trazado_728313" data-name="Trazado 728313" d="M109.826,284.645a.568.568,0,0,1,0,1.08,2.086,2.086,0,0,1-1.875,0,.57.57,0,0,1,0-1.08,2.061,2.061,0,0,1,1.863,0Z" transform="translate(-106.218 -284.331)" fill="#5c4c56"/>
            <path id="Trazado_728314" data-name="Trazado 728314" d="M109.823,284.645a2.061,2.061,0,0,0-1.863,0,.632.632,0,0,0-.38.534v.676a.679.679,0,0,0,.392.546,2.086,2.086,0,0,0,1.875,0,.641.641,0,0,0,.38-.534v-.688a.664.664,0,0,0-.392-.546Z" transform="translate(-106.215 -284.331)" fill="#4b3d46"/>
            <path id="Trazado_728315" data-name="Trazado 728315" d="M109.823,284.645a2.061,2.061,0,0,0-1.863,0,.572.572,0,0,0,0,1.08,2.086,2.086,0,0,0,1.875,0,.641.641,0,0,0,.38-.534.665.665,0,0,0-.392-.558Z" transform="translate(-106.216 -284.331)" fill="#6b5864"/>
            <path id="Trazado_728316" data-name="Trazado 728316" d="M109.3,284.84a1.083,1.083,0,0,0-1.009,0c-.285.166-.273.427,0,.593a1.107,1.107,0,0,0,1.021,0,.332.332,0,0,0,.2-.285.336.336,0,0,0-.214-.3Z" transform="translate(-106.121 -284.276)" fill="#32272d"/>
            <path id="Trazado_728317" data-name="Trazado 728317" d="M111.742,290.033a9.616,9.616,0,0,1-5.292-1.934v.131a9.81,9.81,0,0,0,5.292,2.089v-.285Z" transform="translate(-106.426 -284.059)" fill="#f8a40a"/>
          </g>
          <g id="Grupo_1011937" data-name="Grupo 1011937" transform="translate(10.051 12.169)">
            <g id="Grupo_1011933" data-name="Grupo 1011933" transform="translate(1.341 2.984)">
              <g id="Grupo_1011932" data-name="Grupo 1011932" clip-path="url(#clip-path-12)">
                <g id="Grupo_1011931" data-name="Grupo 1011931" transform="translate(-0.012 0)">
                  <path id="Trazado_728318" data-name="Trazado 728318" d="M117.59,286.652l-.024,6.5a.656.656,0,0,1-.38.534,2.086,2.086,0,0,1-1.875,0,.664.664,0,0,1-.392-.546l.024-6.5a.663.663,0,0,0,.392.546,2.086,2.086,0,0,0,1.875,0,.632.632,0,0,0,.38-.534Z" transform="translate(-114.92 -286.64)" fill="#50424b"/>
                </g>
              </g>
            </g>
            <g id="Grupo_1011936" data-name="Grupo 1011936">
              <g id="Grupo_1011935" data-name="Grupo 1011935" transform="translate(0 1.525)">
                <g id="Grupo_1011934" data-name="Grupo 1011934" clip-path="url(#clip-path-13)">
                  <path id="Trazado_728320" data-name="Trazado 728320" d="M119.128,285.422l-.024,6.5a1.32,1.32,0,0,1-.771,1.08,4.172,4.172,0,0,1-3.75,0,1.327,1.327,0,0,1-.783-1.092l.024-6.5a1.327,1.327,0,0,0,.783,1.092,4.172,4.172,0,0,0,3.75,0,1.319,1.319,0,0,0,.771-1.08Z" transform="translate(-113.8 -285.41)" fill="#15d9fd"/>
                  <path id="Trazado_728321" data-name="Trazado 728321" d="M119.114,289.762a13.912,13.912,0,0,1-5.3,1.092v.249a13.841,13.841,0,0,0,5.3-1.234v-.119Z" transform="translate(-113.798 -284.6)" fill="#19a4c0"/>
                </g>
              </g>
              <path id="Trazado_728323" data-name="Trazado 728323" d="M118.341,284.57a1.148,1.148,0,0,1,.012,2.172,4.172,4.172,0,0,1-3.75,0,1.148,1.148,0,0,1-.012-2.172A4.172,4.172,0,0,1,118.341,284.57Zm-2.8,1.626a2.086,2.086,0,0,0,1.875,0,.57.57,0,0,0,0-1.08,2.061,2.061,0,0,0-1.863,0,.572.572,0,0,0,0,1.08h0Z" transform="translate(-113.796 -284.125)" fill="#79e2f7"/>
            </g>
            <path id="Trazado_728324" data-name="Trazado 728324" d="M117.2,284.425a.568.568,0,0,1,0,1.08,2.086,2.086,0,0,1-1.875,0,.57.57,0,0,1,0-1.08,2.061,2.061,0,0,1,1.863,0Z" transform="translate(-113.588 -284.111)" fill="#5c4c56"/>
            <path id="Trazado_728325" data-name="Trazado 728325" d="M117.193,284.425a2.061,2.061,0,0,0-1.863,0,.632.632,0,0,0-.38.534v.676a.679.679,0,0,0,.392.546,2.086,2.086,0,0,0,1.875,0,.641.641,0,0,0,.38-.534v-.688a.664.664,0,0,0-.392-.546Z" transform="translate(-113.585 -284.111)" fill="#4b3d46"/>
            <path id="Trazado_728326" data-name="Trazado 728326" d="M117.193,284.425a2.061,2.061,0,0,0-1.863,0,.572.572,0,0,0,0,1.08,2.086,2.086,0,0,0,1.875,0,.641.641,0,0,0,.38-.534.665.665,0,0,0-.392-.558Z" transform="translate(-113.586 -284.111)" fill="#6b5864"/>
            <path id="Trazado_728327" data-name="Trazado 728327" d="M116.744,284.591a1.257,1.257,0,0,0-1.127,0,.346.346,0,0,0,0,.653,1.257,1.257,0,0,0,1.127,0,.373.373,0,0,0,.225-.32.389.389,0,0,0-.237-.332Z" transform="translate(-113.504 -284.063)" fill="#32272d"/>
            <path id="Trazado_728328" data-name="Trazado 728328" d="M119.112,289.813a9.616,9.616,0,0,1-5.292-1.934v.13a9.81,9.81,0,0,0,5.292,2.089v-.285Z" transform="translate(-113.796 -283.838)" fill="#eadcd3"/>
          </g>
          <g id="Grupo_1011945" data-name="Grupo 1011945" transform="translate(5.387 14.886)">
            <g id="Grupo_1011940" data-name="Grupo 1011940" transform="translate(1.329 2.973)">
              <g id="Grupo_1011939" data-name="Grupo 1011939" clip-path="url(#clip-path-14)">
                <g id="Grupo_1011938" data-name="Grupo 1011938" transform="translate(0 0)">
                  <path id="Trazado_728329" data-name="Trazado 728329" d="M113.66,288.932l-.024,6.5a.656.656,0,0,1-.38.534,2.086,2.086,0,0,1-1.875,0,.664.664,0,0,1-.392-.546l.024-6.5a.664.664,0,0,0,.392.546,2.086,2.086,0,0,0,1.875,0,.656.656,0,0,0,.38-.534Z" transform="translate(-110.99 -288.92)" fill="#50424b"/>
                </g>
              </g>
            </g>
            <g id="Grupo_1011944" data-name="Grupo 1011944">
              <g id="Grupo_1011943" data-name="Grupo 1011943" transform="translate(0 1.525)">
                <g id="Grupo_1011942" data-name="Grupo 1011942" clip-path="url(#clip-path-15)">
                  <g id="Grupo_1011941" data-name="Grupo 1011941">
                    <path id="Trazado_728331" data-name="Trazado 728331" d="M115.2,287.712l-.024,6.5a1.32,1.32,0,0,1-.771,1.08,4.172,4.172,0,0,1-3.75,0,1.327,1.327,0,0,1-.783-1.092l.024-6.5a1.327,1.327,0,0,0,.783,1.092,4.172,4.172,0,0,0,3.75,0,1.32,1.32,0,0,0,.771-1.08Z" transform="translate(-109.87 -287.7)" fill="#817ac4"/>
                  </g>
                  <path id="Trazado_728332" data-name="Trazado 728332" d="M115.174,292.042a13.912,13.912,0,0,1-5.3,1.092v.249a13.84,13.84,0,0,0,5.3-1.234v-.119Z" transform="translate(-109.87 -286.892)" fill="#5d5798"/>
                </g>
              </g>
              <path id="Trazado_728334" data-name="Trazado 728334" d="M114.411,286.86a1.148,1.148,0,0,1,.012,2.172,4.173,4.173,0,0,1-3.75,0,1.148,1.148,0,0,1-.012-2.172A4.172,4.172,0,0,1,114.411,286.86Zm-2.8,1.626a2.086,2.086,0,0,0,1.875,0,.572.572,0,0,0,0-1.08,2.061,2.061,0,0,0-1.863,0,.572.572,0,0,0,0,1.08h0Z" transform="translate(-109.866 -286.415)" fill="#9c95db"/>
            </g>
            <path id="Trazado_728335" data-name="Trazado 728335" d="M113.266,286.715a.568.568,0,0,1,0,1.08,2.086,2.086,0,0,1-1.875,0,.57.57,0,0,1,0-1.08,2.061,2.061,0,0,1,1.863,0Z" transform="translate(-109.658 -286.401)" fill="#5c4c56"/>
            <path id="Trazado_728336" data-name="Trazado 728336" d="M113.263,286.715a2.061,2.061,0,0,0-1.863,0,.632.632,0,0,0-.38.534v.676a.679.679,0,0,0,.392.546,2.086,2.086,0,0,0,1.875,0,.641.641,0,0,0,.38-.534v-.688a.664.664,0,0,0-.392-.546Z" transform="translate(-109.655 -286.401)" fill="#4b3d46"/>
            <path id="Trazado_728337" data-name="Trazado 728337" d="M113.263,286.715a2.061,2.061,0,0,0-1.863,0,.572.572,0,0,0,0,1.08,2.086,2.086,0,0,0,1.875,0,.641.641,0,0,0,.38-.534.665.665,0,0,0-.392-.558Z" transform="translate(-109.656 -286.401)" fill="#6b5864"/>
            <path id="Trazado_728338" data-name="Trazado 728338" d="M112.742,286.9a1.083,1.083,0,0,0-1.009,0c-.285.166-.273.427,0,.593a1.107,1.107,0,0,0,1.021,0,.332.332,0,0,0,.2-.285.336.336,0,0,0-.214-.3Z" transform="translate(-109.561 -286.348)" fill="#32272d"/>
            <path id="Trazado_728339" data-name="Trazado 728339" d="M115.182,292.093a9.616,9.616,0,0,1-5.292-1.934v.13a9.809,9.809,0,0,0,5.292,2.089v-.285Z" transform="translate(-109.866 -286.13)" fill="#5d5798"/>
          </g>
          <g id="Grupo_1011949" data-name="Grupo 1011949" transform="translate(15.61 1.679)">
            <g id="Grupo_1011948" data-name="Grupo 1011948" transform="translate(0.006 0.291)">
              <path id="Trazado_728340" data-name="Trazado 728340" d="M119.57,275.542v20.624c0,.083-.059.154-.166.214a.854.854,0,0,1-.759,0,.261.261,0,0,1-.154-.225V275.53a.277.277,0,0,0,.166.225.855.855,0,0,0,.759,0A.26.26,0,0,0,119.57,275.542Z" transform="translate(-118.49 -275.53)" fill="#adb2cc"/>
              <g id="Grupo_1011947" data-name="Grupo 1011947" clip-path="url(#clip-path-16)">
                <g id="Grupo_1011946" data-name="Grupo 1011946">
                  <path id="Trazado_728341" data-name="Trazado 728341" d="M119.57,275.542v20.624c0,.083-.059.154-.166.214a.854.854,0,0,1-.759,0,.261.261,0,0,1-.154-.225V275.53a.277.277,0,0,0,.166.225.855.855,0,0,0,.759,0,.26.26,0,0,0,.154-.214Z" transform="translate(-118.49 -275.53)" fill="#adb2cc"/>
                </g>
              </g>
            </g>
            <path id="Trazado_728343" data-name="Trazado 728343" d="M119.4,275.374a.23.23,0,0,1,0,.439.854.854,0,0,1-.759,0,.23.23,0,0,1,0-.439A.854.854,0,0,1,119.4,275.374Z" transform="translate(-118.485 -275.285)" fill="#dddefa"/>
          </g>
          <g id="Grupo_1011953" data-name="Grupo 1011953" transform="translate(10.757 4.586)">
            <g id="Grupo_1011952" data-name="Grupo 1011952" transform="translate(0.006 0.303)">
              <path id="Trazado_728344" data-name="Trazado 728344" d="M115.48,278v20.624c0,.083-.059.154-.166.214a.854.854,0,0,1-.759,0,.261.261,0,0,1-.154-.225V277.99a.277.277,0,0,0,.166.225.854.854,0,0,0,.759,0A.26.26,0,0,0,115.48,278Z" transform="translate(-114.4 -277.99)" fill="#adb2cc"/>
              <g id="Grupo_1011951" data-name="Grupo 1011951" clip-path="url(#clip-path-17)">
                <g id="Grupo_1011950" data-name="Grupo 1011950">
                  <path id="Trazado_728345" data-name="Trazado 728345" d="M115.48,278v20.624c0,.083-.059.154-.166.214a.854.854,0,0,1-.759,0,.261.261,0,0,1-.154-.225V277.99a.277.277,0,0,0,.166.225.854.854,0,0,0,.759,0,.26.26,0,0,0,.154-.214Z" transform="translate(-114.4 -277.99)" fill="#adb2cc"/>
                </g>
              </g>
            </g>
            <path id="Trazado_728347" data-name="Trazado 728347" d="M115.315,277.824a.231.231,0,0,1,0,.439.854.854,0,0,1-.759,0,.231.231,0,0,1,0-.439A.854.854,0,0,1,115.315,277.824Z" transform="translate(-114.395 -277.735)" fill="#dddefa"/>
          </g>
          <g id="Grupo_1011978" data-name="Grupo 1011978" transform="translate(17.693 8.989)">
            <g id="Grupo_1011957" data-name="Grupo 1011957">
              <g id="Grupo_1011956" data-name="Grupo 1011956" transform="translate(0 0.421)">
                <path id="Trazado_728348" data-name="Trazado 728348" d="M121.711,281.812v.463a.363.363,0,0,1-.214.3,1.156,1.156,0,0,1-1.044,0,.364.364,0,0,1-.214-.308V281.8a.379.379,0,0,0,.214.309,1.156,1.156,0,0,0,1.044,0A.363.363,0,0,0,121.711,281.812Z" transform="translate(-120.24 -281.8)" fill="#eadcd3"/>
                <g id="Grupo_1011955" data-name="Grupo 1011955" clip-path="url(#clip-path-18)">
                  <g id="Grupo_1011954" data-name="Grupo 1011954">
                    <path id="Trazado_728349" data-name="Trazado 728349" d="M121.711,281.812v.463a.363.363,0,0,1-.214.3,1.156,1.156,0,0,1-1.044,0,.364.364,0,0,1-.214-.308V281.8a.379.379,0,0,0,.214.309,1.156,1.156,0,0,0,1.044,0,.363.363,0,0,0,.214-.3Z" transform="translate(-120.24 -281.8)" fill="#eadcd3"/>
                  </g>
                </g>
              </g>
              <path id="Trazado_728351" data-name="Trazado 728351" d="M121.5,281.57a.321.321,0,0,1,0,.605,1.156,1.156,0,0,1-1.044,0,.321.321,0,0,1,0-.605A1.156,1.156,0,0,1,121.5,281.57Z" transform="translate(-120.24 -281.445)" fill="#f5ebe4"/>
            </g>
            <g id="Grupo_1011961" data-name="Grupo 1011961" transform="translate(1.59 0.914)">
              <g id="Grupo_1011960" data-name="Grupo 1011960" transform="translate(0.012 0.409)">
                <path id="Trazado_728352" data-name="Trazado 728352" d="M123.061,282.572v.463a.363.363,0,0,1-.214.3,1.156,1.156,0,0,1-1.044,0,.364.364,0,0,1-.214-.309v-.463a.379.379,0,0,0,.214.309,1.156,1.156,0,0,0,1.044,0A.363.363,0,0,0,123.061,282.572Z" transform="translate(-121.59 -282.56)" fill="#eadcd3"/>
                <g id="Grupo_1011959" data-name="Grupo 1011959" clip-path="url(#clip-path-19)">
                  <g id="Grupo_1011958" data-name="Grupo 1011958">
                    <path id="Trazado_728353" data-name="Trazado 728353" d="M123.061,282.572v.463a.363.363,0,0,1-.214.3,1.156,1.156,0,0,1-1.044,0,.364.364,0,0,1-.214-.309v-.463a.379.379,0,0,0,.214.309,1.156,1.156,0,0,0,1.044,0,.363.363,0,0,0,.214-.3Z" transform="translate(-121.59 -282.56)" fill="#eadcd3"/>
                  </g>
                </g>
              </g>
              <path id="Trazado_728355" data-name="Trazado 728355" d="M122.838,282.34a.321.321,0,0,1,0,.605,1.156,1.156,0,0,1-1.044,0,.321.321,0,0,1,0-.605A1.156,1.156,0,0,1,122.838,282.34Z" transform="translate(-121.58 -282.215)" fill="#f5ebe4"/>
            </g>
            <g id="Grupo_1011965" data-name="Grupo 1011965" transform="translate(3.223 1.851)">
              <g id="Grupo_1011964" data-name="Grupo 1011964" transform="translate(0.004 0.421)">
                <path id="Trazado_728356" data-name="Trazado 728356" d="M124.431,283.372v.463a.363.363,0,0,1-.214.3,1.156,1.156,0,0,1-1.044,0,.364.364,0,0,1-.214-.309v-.463a.379.379,0,0,0,.214.309,1.156,1.156,0,0,0,1.044,0A.363.363,0,0,0,124.431,283.372Z" transform="translate(-122.96 -283.36)" fill="#eadcd3"/>
                <g id="Grupo_1011963" data-name="Grupo 1011963" clip-path="url(#clip-path-20)">
                  <g id="Grupo_1011962" data-name="Grupo 1011962">
                    <path id="Trazado_728357" data-name="Trazado 728357" d="M124.431,283.372v.463a.363.363,0,0,1-.214.3,1.156,1.156,0,0,1-1.044,0,.364.364,0,0,1-.214-.309v-.463a.379.379,0,0,0,.214.309,1.156,1.156,0,0,0,1.044,0,.363.363,0,0,0,.214-.3Z" transform="translate(-122.96 -283.36)" fill="#eadcd3"/>
                  </g>
                </g>
              </g>
              <path id="Trazado_728359" data-name="Trazado 728359" d="M124.219,283.13a.321.321,0,0,1,0,.605,1.156,1.156,0,0,1-1.044,0c-.3-.166-.285-.439,0-.605A1.156,1.156,0,0,1,124.219,283.13Z" transform="translate(-122.956 -283.005)" fill="#f5ebe4"/>
            </g>
            <g id="Grupo_1011969" data-name="Grupo 1011969" transform="translate(4.813 2.765)">
              <g id="Grupo_1011968" data-name="Grupo 1011968" transform="translate(0.004 0.421)">
                <path id="Trazado_728360" data-name="Trazado 728360" d="M125.771,284.142v.463a.363.363,0,0,1-.214.3,1.156,1.156,0,0,1-1.044,0,.364.364,0,0,1-.214-.309v-.463a.379.379,0,0,0,.214.309,1.156,1.156,0,0,0,1.044,0A.363.363,0,0,0,125.771,284.142Z" transform="translate(-124.3 -284.13)" fill="#eadcd3"/>
                <g id="Grupo_1011967" data-name="Grupo 1011967" clip-path="url(#clip-path-21)">
                  <g id="Grupo_1011966" data-name="Grupo 1011966">
                    <path id="Trazado_728361" data-name="Trazado 728361" d="M125.771,284.142v.463a.363.363,0,0,1-.214.3,1.156,1.156,0,0,1-1.044,0,.364.364,0,0,1-.214-.309v-.463a.379.379,0,0,0,.214.309,1.156,1.156,0,0,0,1.044,0,.363.363,0,0,0,.214-.3Z" transform="translate(-124.3 -284.13)" fill="#eadcd3"/>
                  </g>
                </g>
              </g>
              <path id="Trazado_728363" data-name="Trazado 728363" d="M125.559,283.9a.321.321,0,0,1,0,.605,1.156,1.156,0,0,1-1.044,0c-.3-.166-.285-.439,0-.605A1.156,1.156,0,0,1,125.559,283.9Z" transform="translate(-124.296 -283.775)" fill="#f5ebe4"/>
            </g>
            <g id="Grupo_1011973" data-name="Grupo 1011973" transform="translate(6.443 3.714)">
              <g id="Grupo_1011972" data-name="Grupo 1011972" transform="translate(0.012 0.421)">
                <path id="Trazado_728364" data-name="Trazado 728364" d="M127.151,284.942v.463a.363.363,0,0,1-.214.3,1.156,1.156,0,0,1-1.044,0,.364.364,0,0,1-.214-.309v-.463a.379.379,0,0,0,.214.309,1.156,1.156,0,0,0,1.044,0A.363.363,0,0,0,127.151,284.942Z" transform="translate(-125.68 -284.93)" fill="#eadcd3"/>
                <g id="Grupo_1011971" data-name="Grupo 1011971" clip-path="url(#clip-path-22)">
                  <g id="Grupo_1011970" data-name="Grupo 1011970">
                    <path id="Trazado_728365" data-name="Trazado 728365" d="M127.151,284.942v.463a.363.363,0,0,1-.214.3,1.156,1.156,0,0,1-1.044,0,.364.364,0,0,1-.214-.309v-.463a.379.379,0,0,0,.214.309,1.156,1.156,0,0,0,1.044,0,.363.363,0,0,0,.214-.3Z" transform="translate(-125.68 -284.93)" fill="#eadcd3"/>
                  </g>
                </g>
              </g>
              <path id="Trazado_728367" data-name="Trazado 728367" d="M126.928,284.7a.321.321,0,0,1,0,.605,1.156,1.156,0,0,1-1.044,0,.321.321,0,0,1,0-.605A1.156,1.156,0,0,1,126.928,284.7Z" transform="translate(-125.67 -284.575)" fill="#f5ebe4"/>
            </g>
            <g id="Grupo_1011977" data-name="Grupo 1011977" transform="translate(8.045 4.628)">
              <g id="Grupo_1011976" data-name="Grupo 1011976" transform="translate(0 0.421)">
                <path id="Trazado_728368" data-name="Trazado 728368" d="M128.491,285.712v.463a.363.363,0,0,1-.214.3,1.156,1.156,0,0,1-1.044,0,.364.364,0,0,1-.214-.309V285.7a.379.379,0,0,0,.214.309,1.156,1.156,0,0,0,1.044,0A.363.363,0,0,0,128.491,285.712Z" transform="translate(-127.02 -285.7)" fill="#eadcd3"/>
                <g id="Grupo_1011975" data-name="Grupo 1011975" clip-path="url(#clip-path-23)">
                  <g id="Grupo_1011974" data-name="Grupo 1011974">
                    <path id="Trazado_728369" data-name="Trazado 728369" d="M128.491,285.712v.463a.363.363,0,0,1-.214.3,1.156,1.156,0,0,1-1.044,0,.364.364,0,0,1-.214-.309V285.7a.379.379,0,0,0,.214.309,1.156,1.156,0,0,0,1.044,0,.363.363,0,0,0,.214-.3Z" transform="translate(-127.02 -285.7)" fill="#eadcd3"/>
                  </g>
                </g>
              </g>
              <path id="Trazado_728371" data-name="Trazado 728371" d="M128.278,285.47a.321.321,0,0,1,0,.605,1.156,1.156,0,0,1-1.044,0,.321.321,0,0,1,0-.605A1.156,1.156,0,0,1,128.278,285.47Z" transform="translate(-127.02 -285.345)" fill="#f5ebe4"/>
            </g>
          </g>
          <g id="Grupo_1011986" data-name="Grupo 1011986" transform="translate(18.31 17.153)">
            <g id="Grupo_1011981" data-name="Grupo 1011981" transform="translate(1.341 2.973)">
              <g id="Grupo_1011980" data-name="Grupo 1011980" clip-path="url(#clip-path-24)">
                <g id="Grupo_1011979" data-name="Grupo 1011979" transform="translate(-0.012 0)">
                  <path id="Trazado_728372" data-name="Trazado 728372" d="M124.55,290.842l-.024,6.5a.656.656,0,0,1-.38.534,2.086,2.086,0,0,1-1.875,0,.664.664,0,0,1-.392-.546l.024-6.5a.664.664,0,0,0,.392.546,2.086,2.086,0,0,0,1.875,0,.656.656,0,0,0,.38-.534Z" transform="translate(-121.88 -290.83)" fill="#50424b"/>
                </g>
              </g>
            </g>
            <g id="Grupo_1011985" data-name="Grupo 1011985">
              <g id="Grupo_1011984" data-name="Grupo 1011984" transform="translate(0 1.525)">
                <g id="Grupo_1011983" data-name="Grupo 1011983" clip-path="url(#clip-path-25)">
                  <g id="Grupo_1011982" data-name="Grupo 1011982">
                    <path id="Trazado_728374" data-name="Trazado 728374" d="M126.088,289.622l-.024,6.5a1.319,1.319,0,0,1-.771,1.08,4.172,4.172,0,0,1-3.75,0,1.327,1.327,0,0,1-.783-1.092l.024-6.5a1.327,1.327,0,0,0,.783,1.092,4.172,4.172,0,0,0,3.75,0,1.32,1.32,0,0,0,.771-1.08Z" transform="translate(-120.76 -289.61)" fill="#e85c16"/>
                  </g>
                  <path id="Trazado_728375" data-name="Trazado 728375" d="M126.074,293.952a13.913,13.913,0,0,1-5.3,1.092v.249a13.842,13.842,0,0,0,5.3-1.234v-.119Z" transform="translate(-120.758 -288.802)" fill="#b9450b"/>
                </g>
              </g>
              <path id="Trazado_728377" data-name="Trazado 728377" d="M125.3,288.77a1.148,1.148,0,0,1,.012,2.172,4.172,4.172,0,0,1-3.75,0,1.148,1.148,0,0,1-.012-2.172A4.172,4.172,0,0,1,125.3,288.77Zm-2.8,1.626a2.086,2.086,0,0,0,1.875,0,.572.572,0,0,0,0-1.08,2.061,2.061,0,0,0-1.863,0,.572.572,0,0,0,0,1.08h0Z" transform="translate(-120.756 -288.325)" fill="#ff8331"/>
            </g>
            <path id="Trazado_728378" data-name="Trazado 728378" d="M124.156,288.625a.568.568,0,0,1,0,1.08,2.086,2.086,0,0,1-1.875,0,.57.57,0,0,1,0-1.08,2.061,2.061,0,0,1,1.863,0Z" transform="translate(-120.548 -288.311)" fill="#5c4c56"/>
            <path id="Trazado_728379" data-name="Trazado 728379" d="M124.153,288.625a2.061,2.061,0,0,0-1.863,0,.632.632,0,0,0-.38.534v.676a.679.679,0,0,0,.392.546,2.086,2.086,0,0,0,1.875,0,.641.641,0,0,0,.38-.534v-.688a.664.664,0,0,0-.392-.546Z" transform="translate(-120.545 -288.311)" fill="#4b3d46"/>
            <path id="Trazado_728380" data-name="Trazado 728380" d="M124.153,288.625a2.061,2.061,0,0,0-1.863,0,.572.572,0,0,0,0,1.08,2.086,2.086,0,0,0,1.875,0,.641.641,0,0,0,.38-.534.665.665,0,0,0-.392-.558Z" transform="translate(-120.546 -288.311)" fill="#6b5864"/>
            <path id="Trazado_728381" data-name="Trazado 728381" d="M123.7,288.791a1.257,1.257,0,0,0-1.127,0,.346.346,0,0,0,0,.653,1.257,1.257,0,0,0,1.127,0,.373.373,0,0,0,.225-.32.389.389,0,0,0-.237-.332Z" transform="translate(-120.464 -288.263)" fill="#32272d"/>
            <path id="Trazado_728382" data-name="Trazado 728382" d="M126.072,294.013a9.617,9.617,0,0,1-5.292-1.934v.131a9.809,9.809,0,0,0,5.292,2.089v-.285Z" transform="translate(-120.756 -288.038)" fill="#b9450b"/>
          </g>
          <g id="Grupo_1011993" data-name="Grupo 1011993" transform="translate(13.646 19.858)">
            <g id="Grupo_1011989" data-name="Grupo 1011989" transform="translate(1.329 2.973)">
              <g id="Grupo_1011988" data-name="Grupo 1011988" clip-path="url(#clip-path-26)">
                <g id="Grupo_1011987" data-name="Grupo 1011987" transform="translate(0 0)">
                  <path id="Trazado_728383" data-name="Trazado 728383" d="M120.62,293.122l-.024,6.5a.656.656,0,0,1-.38.534,2.086,2.086,0,0,1-1.875,0,.664.664,0,0,1-.392-.546l.024-6.5a.664.664,0,0,0,.392.546,2.086,2.086,0,0,0,1.875,0,.656.656,0,0,0,.38-.534Z" transform="translate(-117.95 -293.11)" fill="#50424b"/>
                </g>
              </g>
            </g>
            <g id="Grupo_1011992" data-name="Grupo 1011992">
              <g id="Grupo_1011991" data-name="Grupo 1011991" transform="translate(0 1.525)">
                <g id="Grupo_1011990" data-name="Grupo 1011990" clip-path="url(#clip-path-27)">
                  <path id="Trazado_728385" data-name="Trazado 728385" d="M122.158,291.9l-.024,6.5a1.319,1.319,0,0,1-.771,1.08,4.172,4.172,0,0,1-3.75,0,1.327,1.327,0,0,1-.783-1.092l.024-6.5a1.327,1.327,0,0,0,.783,1.092,4.172,4.172,0,0,0,3.75,0,1.32,1.32,0,0,0,.771-1.08Z" transform="translate(-116.83 -291.89)" fill="#6eba5b"/>
                  <path id="Trazado_728386" data-name="Trazado 728386" d="M122.144,296.242a13.912,13.912,0,0,1-5.3,1.092v.249a13.841,13.841,0,0,0,5.3-1.234v-.119Z" transform="translate(-116.828 -291.08)" fill="#548e45"/>
                </g>
              </g>
              <path id="Trazado_728388" data-name="Trazado 728388" d="M121.371,291.05a1.148,1.148,0,0,1,.012,2.172,4.172,4.172,0,0,1-3.75,0,1.148,1.148,0,0,1-.012-2.172A4.172,4.172,0,0,1,121.371,291.05Zm-2.8,1.626a2.086,2.086,0,0,0,1.875,0,.572.572,0,0,0,0-1.08,2.061,2.061,0,0,0-1.863,0,.572.572,0,0,0,0,1.08h0Z" transform="translate(-116.826 -290.605)" fill="#eadcd3"/>
            </g>
            <path id="Trazado_728389" data-name="Trazado 728389" d="M120.226,290.9a.568.568,0,0,1,0,1.08,2.086,2.086,0,0,1-1.875,0,.57.57,0,0,1,0-1.08,2.061,2.061,0,0,1,1.863,0Z" transform="translate(-116.618 -290.591)" fill="#5c4c56"/>
            <path id="Trazado_728390" data-name="Trazado 728390" d="M120.223,290.9a2.061,2.061,0,0,0-1.863,0,.632.632,0,0,0-.38.534v.676a.679.679,0,0,0,.392.546,2.086,2.086,0,0,0,1.875,0,.641.641,0,0,0,.38-.534v-.688a.663.663,0,0,0-.392-.546Z" transform="translate(-116.615 -290.591)" fill="#4b3d46"/>
            <path id="Trazado_728391" data-name="Trazado 728391" d="M120.223,290.9a2.061,2.061,0,0,0-1.863,0,.572.572,0,0,0,0,1.08,2.086,2.086,0,0,0,1.875,0,.641.641,0,0,0,.38-.534.665.665,0,0,0-.392-.558Z" transform="translate(-116.616 -290.591)" fill="#6b5864"/>
            <path id="Trazado_728392" data-name="Trazado 728392" d="M119.7,291.1a1.083,1.083,0,0,0-1.009,0c-.285.166-.273.427,0,.593a1.107,1.107,0,0,0,1.02,0,.332.332,0,0,0,.2-.285.335.335,0,0,0-.214-.3Z" transform="translate(-116.521 -290.536)" fill="#32272d"/>
            <path id="Trazado_728393" data-name="Trazado 728393" d="M122.142,296.293a9.616,9.616,0,0,1-5.292-1.934v.131a9.809,9.809,0,0,0,5.292,2.088v-.285Z" transform="translate(-116.826 -290.319)" fill="#548e45"/>
          </g>
          <path id="Trazado_728394" data-name="Trazado 728394" d="M106.651,288.575h-.131a4.651,4.651,0,0,1,.558-1.875,9.143,9.143,0,0,1,2.16-2.373c.142-.119.285-.249.427-.38a24.665,24.665,0,0,0,3.37-3.667l.107.083a24.993,24.993,0,0,1-3.394,3.69c-.142.131-.285.249-.427.38a9.244,9.244,0,0,0-2.136,2.326,4.557,4.557,0,0,0-.546,1.8Z" transform="translate(-105.108 -272.674)" fill="#ffb700"/>
          <path id="Trazado_728395" data-name="Trazado 728395" d="M114.4,293.674l-.131-.024a3.853,3.853,0,0,0-.344-2.005c-.024-.083-.059-.166-.083-.237a13.842,13.842,0,0,1-.712-5.779c.036-.356.083-.724.119-1.08a14.5,14.5,0,0,0,.166-2.041,7.213,7.213,0,0,0-.712-3.026.1.1,0,0,1-.095.024.149.149,0,0,1-.071-.131.1.1,0,0,1,.083-.095c.047,0,.131,0,.2.142a7.269,7.269,0,0,1,.724,3.085,16.708,16.708,0,0,1-.166,2.053c-.047.356-.095.712-.119,1.068a13.973,13.973,0,0,0,.7,5.72c.024.083.059.166.083.237a3.973,3.973,0,0,1,.344,2.077Zm-1.768-14.3.059.083c-.024-.036-.036-.047-.047-.047v-.036Z" transform="translate(-103.984 -272.86)" fill="#817ac4"/>
          <path id="Trazado_728396" data-name="Trazado 728396" d="M118.1,295.5l-.131-.036c.32-1.068.653-2.16.961-3.239a13.163,13.163,0,0,0,.368-1.531,9,9,0,0,0,.012-2.112c-.19-2.2-.866-5.233-3.038-7.179-.2-.19-.427-.368-.641-.534a5.24,5.24,0,0,1-1.6-1.744c-.024-.036-.036-.083-.059-.119a1.119,1.119,0,0,0-.392-.57l-.036.249-.131-.024.071-.427.071.024c.3.095.427.4.546.676.024.036.036.083.059.119a4.931,4.931,0,0,0,1.566,1.685c.214.178.439.356.653.546,2.207,1.982,2.9,5.043,3.085,7.274a9.364,9.364,0,0,1-.024,2.148,13.993,13.993,0,0,1-.368,1.543c-.309,1.08-.629,2.172-.961,3.24Z" transform="translate(-103.822 -273.056)" fill="#6eba5b"/>
          <path id="Trazado_728397" data-name="Trazado 728397" d="M122.752,294.987h-.131a15.971,15.971,0,0,0-.344-5.767,32.119,32.119,0,0,0-1.4-4.058c-.071-.19-.142-.368-.225-.558l-.071-.178a12.091,12.091,0,0,0-2.089-3.892c-.261-.285-.546-.558-.831-.819a5.155,5.155,0,0,1-1.673-2.207c0-.024-.024-.095-.047-.095-.024-.036-.036.107-.036.107a.089.089,0,0,1-.083-.059.151.151,0,0,1,.024-.142.121.121,0,0,1,.119-.047c.107.024.142.142.154.19a5.016,5.016,0,0,0,1.626,2.148c.285.261.581.534.843.819a12.507,12.507,0,0,1,2.112,3.94l.071.178c.071.19.142.368.225.558a32.293,32.293,0,0,1,1.4,4.07,15.678,15.678,0,0,1,.344,5.8Z" transform="translate(-103.374 -273.236)" fill="#e85c16"/>
          <g id="Grupo_1011994" data-name="Grupo 1011994" transform="translate(5.494)">
            <path id="Trazado_728398" data-name="Trazado 728398" d="M111.313,280.835l-1.353-.8v.285l1.353.783Z" transform="translate(-109.96 -272.718)" fill="#adb2cc"/>
            <path id="Trazado_728399" data-name="Trazado 728399" d="M124,274.653l-1.353-.783-12.685,7.322,1.353.8Z" transform="translate(-109.96 -273.87)" fill="#dddefa"/>
            <path id="Trazado_728400" data-name="Trazado 728400" d="M111.1,281.863v.273l12.685-7.322v-.285Z" transform="translate(-109.747 -273.747)" fill="#adb2cc"/>
          </g>
        </g>
        <path id="Trazado_728401" data-name="Trazado 728401" d="M143.674,310.44c-.083-.095-.142-.071-.237,0s-.119.178-.237.237a.392.392,0,0,1-.5-.178.078.078,0,0,0-.142.024.335.335,0,0,1-.534.166c-.036-.024-.095-.036-.119.012-.214.427-.546,1.021-1.127.8-.036,0-.071,0-.083.036-.071.131-.154.261-.225.392a.839.839,0,0,1-.166-.119.075.075,0,0,0-.107.012l-.273.534c-.059.107-.083.2-.2.273-.166.095-.047.012-.166.036a.468.468,0,0,0-.415.261c-.036.059-.059.154-.107.19a.708.708,0,0,1-.463.107c-.083,0-.154-.036-.237,0a.332.332,0,0,0-.178.2.818.818,0,0,1-.036.095c-.012.059-.036.107-.047.166-.047.214-.237.249-.546.095a.058.058,0,0,0-.107-.012c-.166.261-.5.748-.854.392-.024-.024-.071-.012-.095,0a1.785,1.785,0,0,0-.261.463c-.071.19-.095.605-.356.178a.049.049,0,0,0-.059-.024.442.442,0,0,0-.237.225,1.35,1.35,0,0,1-.119.225c-.142.119-.273-.024-.415-.024a.329.329,0,0,0-.273.154.806.806,0,0,0-.083.237c-.024.071.012.083-.047.13-.083.059-.344-.071-.392-.095a.545.545,0,0,0-.071.546c0,.024.047.012.047-.012-.036-.13-.036-.356.119-.427.047-.024.309.083.368.095.024,0,.047,0,.047-.036a.967.967,0,0,1,.071-.368.359.359,0,0,1,.451-.024c.024,0,.047.012.071.012a.24.24,0,0,0,.166-.095c.095-.107.154-.415.332-.4.024,0,.047.071.071.083a.991.991,0,0,0,.237.095c.024,0,.059,0,.059-.036a2.109,2.109,0,0,1,.344-.783c.344.285.712-.047.926-.368a.369.369,0,0,0,.475.13.541.541,0,0,0,.261-.32c.071-.178.119-.392.392-.356.095,0,.166.071.261.047a.374.374,0,0,0,.261-.166,2.2,2.2,0,0,0,.131-.225.354.354,0,0,1,.368-.214.22.22,0,0,1,.083.024c.32-.142.451-.558.593-.866a.6.6,0,0,0,.19.107.092.092,0,0,0,.095-.024,1.186,1.186,0,0,1,.2-.332c.095-.059.107,0,.2-.024a1.023,1.023,0,0,0,.427-.095,1.66,1.66,0,0,0,.617-.748.5.5,0,0,0,.641-.154.492.492,0,0,0,.415.166.551.551,0,0,0,.273-.071.93.93,0,0,0,.2-.19c.095,0,.107,0,.142-.059.024-.024,0-.071-.012-.095Z" transform="translate(-83.914 -267.056)" fill="#dc303c"/>
      </g>
      <g id="Grupo_1012866" data-name="Grupo 1012866" transform="translate(1141.66 3354.036)">
        <path id="Trazado_730137" data-name="Trazado 730137" d="M624.566,376.461l1.9,1.1c5.128,2.96,13.52,2.96,18.649,0l1.9-1.1c5.128-2.96,5.128-7.809,0-10.77l-1.9-1.1c-5.128-2.961-13.52-2.961-18.649,0l-1.9,1.1C619.438,368.651,619.438,373.5,624.566,376.461Z" transform="translate(-620.72 -281.372)" fill="#a1c2d1" opacity="0.3"/>
        <g id="Grupo_1012865" data-name="Grupo 1012865" transform="translate(3.194)">
          <g id="woman">
            <path id="Trazado_730138" data-name="Trazado 730138" d="M624.693,308.958c-.268-.117.653-.152-1.655.793-4.382,1.795-10.793,5.3-9.126,7.623a2.441,2.441,0,0,0,1.993.967c.664-.093,7.052-5.268,8.613-6.4.361-.268.769-2.716.175-2.984Z" transform="translate(-589.797 -290.225)" fill="#ffbfa2"/>
            <path id="Trazado_730139" data-name="Trazado 730139" d="M608.484,310.308c.559-.49,1.154-.944,1.725-1.41a9.235,9.235,0,0,1,2.832-1.737c.245-.082.49-.175.734-.256a1.179,1.179,0,0,1,.746.082c.291.1.583.21.874.338a3.042,3.042,0,0,1,.606.326,2.114,2.114,0,0,1,.676.944,4.771,4.771,0,0,1,.256,1.142.645.645,0,0,1-.07.443c-.14.186-.42.152-.629.07-.338-.14-.629-.385-.967-.536a2.733,2.733,0,0,0-1.853-.035c-.163.047-.478.233-.49.42v.07a2.219,2.219,0,0,0-.618,1.539c-.233.058-.455.117-.688.163-.3.07-1.282.373-1.5.42a1.717,1.717,0,0,1-1.247-.163,1.59,1.59,0,0,1-.268-.221c-.373-.373-.583-1.2-.128-1.585Z" transform="translate(-575.417 -290.56)" fill="#ffbfa2"/>
            <path id="Trazado_730140" data-name="Trazado 730140" d="M624.116,312.635c-3.17-2.063-4.394-5.385-3.24-6.492,1.981-1.888,3.695-.629,8.194,3.31.1.082.2.175.3.256,1.107.944,2.2,1.9,3.217,2.937a17.158,17.158,0,0,1,1.6,1.853,4.088,4.088,0,0,1,.315.466,2.166,2.166,0,0,1,.187.548,5.14,5.14,0,0,1,.291,1.457,1.889,1.889,0,0,1-2.657,1.946,15.446,15.446,0,0,1-4.464-3.3c-1.294-1.259.338-.326-3.753-3Z" transform="translate(-607.717 -290.824)" fill="#ffbfa2"/>
            <path id="Trazado_730141" data-name="Trazado 730141" d="M623.622,305.741c.886-1.037,2.576-.431,3.59.047a15.534,15.534,0,0,1,2.8,1.772c.455.35.851.781,1.305,1.154.513.431,1.037.874,1.527,1.317a2.245,2.245,0,0,1,.956,1.457,2.861,2.861,0,0,1-.466,1.585,7.745,7.745,0,0,1-1.294,1.469c-.373.35-.746.7-1.131,1.026a3.066,3.066,0,0,1-.513.35,1.9,1.9,0,0,1-1.41.035,4.43,4.43,0,0,1-1.247-.711,8.357,8.357,0,0,1-1.445-1.352c-.4-.49-.8-.956-1.166-1.48a13.048,13.048,0,0,1-1.678-3.159c-.373-1.084-.641-2.541.175-3.5Z" transform="translate(-609.612 -290.842)" fill="#f5ebe4"/>
            <path id="Trazado_730142" data-name="Trazado 730142" d="M637.591,366.4c.012.233.3.571.408.769.21.385.466.769.653,1.166a13.2,13.2,0,0,1,.525,1.667c.338,1.1.688,2.191,1.026,3.3a6.621,6.621,0,0,1,.326,1.34,2.312,2.312,0,0,1-.221,1.34,3.145,3.145,0,0,1-2,1.282,2.043,2.043,0,0,1-1.387.082,2.071,2.071,0,0,1-.793-.793,19.658,19.658,0,0,1-1.982-4.732,7.7,7.7,0,0,1-.49-2.7,3.789,3.789,0,0,1,.361-1.48,2.737,2.737,0,0,1,.455-.653c.175-.186.361-.28.466-.513a5.348,5.348,0,0,1,.7-1.387,1.154,1.154,0,0,1,1.247-.152,1.854,1.854,0,0,1,.909,1.014c0,.14-.2.28-.21.431v.035Z" transform="translate(-628.663 -280.967)" fill="#0f1317"/>
            <path id="Trazado_730143" data-name="Trazado 730143" d="M626.527,361.9c.4.291.746.641,1.131.944s.781.536,1.154.839c.828.676,1.69,1.317,2.564,1.9a21.517,21.517,0,0,1,1.981,1.387,5.636,5.636,0,0,1,1.259,1.422.89.89,0,0,1,.163.828,2.964,2.964,0,0,1-.42.862,2.93,2.93,0,0,1-1.235,1.259,2.259,2.259,0,0,1-1.655-.047,5.564,5.564,0,0,1-2.2-1.573,5.112,5.112,0,0,0-2.121-1.632,8.646,8.646,0,0,1-2.04-.8,2.445,2.445,0,0,1-.967-1.667c-.1-.769.186-1.55.14-2.331a5.323,5.323,0,0,1-.058-1.55,1.179,1.179,0,0,1,1-.769,1.8,1.8,0,0,1,1.259.408l.023.513Z" transform="translate(-611.829 -281.606)" fill="#0f1317"/>
            <path id="Trazado_730144" data-name="Trazado 730144" d="M635.949,337.98a49.03,49.03,0,0,1-1.527,8.613c-.42,1.55-.5,3.124-.944,4.65-.338,1.166-1,2.215-2.331,1.865-1.224-.326-3.357-2.529-3.567-5.292-.117-1.48-.058-3.6-.14-5.082-.186-3.077-3.147-12.937,2.879-14.9,1.084-.35,2.11-2.1,3.217-2.04.653.035,1.131.664,1.422,1.282a15.271,15.271,0,0,1,1.177,6.76C636.135,335.229,636.065,336.6,635.949,337.98Z" transform="translate(-615.983 -287.427)" fill="#32272d"/>
            <path id="Trazado_730145" data-name="Trazado 730145" d="M636.078,342.18c-.245,3.357-.862,6.679-1.41,10a49.3,49.3,0,0,0-.618,10.408c.035.8.082,1.608.128,2.424a3.24,3.24,0,0,1-.7,2.692,1.945,1.945,0,0,1-1.352.408,3.034,3.034,0,0,1-1.958-.851c-.664-.629-.513-1.352-.49-2.226.082-2.646-1.107-5.14-1.48-7.762a26.605,26.605,0,0,1-.151-3.975,18.41,18.41,0,0,1,1.643-7.285c.245-.571.606-1.2,1.212-1.305l5.175-2.506Z" transform="translate(-617.663 -284.715)" fill="#32272d"/>
            <path id="Trazado_730146" data-name="Trazado 730146" d="M630.739,333.583c.023-.14.047-.268.082-.408a13.018,13.018,0,0,1,1.7-4.685c.221-.338,1.119-1.76,1.41-.909a5.8,5.8,0,0,1-.012,1.795,13.856,13.856,0,0,1,.408-1.352,1.823,1.823,0,0,1,.233-.478c.326-.455.723-.186,1.457-.023.874.21,1.783.152,2.669.28,2.809.42,3.019,1.037,4.884-.5a22.071,22.071,0,0,1-.128,5.222c.058,2.762-1.993,3-2.086,4.452-.21,3.38-.606,10.059-1.049,13.4a12.218,12.218,0,0,1-1.41,3.73c-.664,1.305-1.329,2.028-2.553,1.888a3.376,3.376,0,0,1-1.818-1.2,5.88,5.88,0,0,1-.35-1.294c-.245-.816-.466-1.632-.653-2.459-.152-.664-.14-1.329-.291-1.981-.385-1.69-.839-3.368-1.247-5.047-.268-1.084-.536-2.168-.793-3.252a19.384,19.384,0,0,1-.7-4.825,14.428,14.428,0,0,1,.28-2.354Z" transform="translate(-628.14 -287.18)" fill="#4c4147"/>
            <g id="people">
              <g id="Grupo_1012862" data-name="Grupo 1012862">
                <path id="Trazado_730147" data-name="Trazado 730147" d="M636.859,300.037c-.1.781-.21,1.6-.385,2.448a12.182,12.182,0,0,0,1.457,8.951,4.531,4.531,0,0,0,1.387,1.772c1.853,1.212,2.273-.513,2.215-1.807-.082-1.818.338-3.625.245-5.466a17.194,17.194,0,0,1,.07-4.9,4.733,4.733,0,0,1,2.075-2.984,2.911,2.911,0,0,0,.478-4.243,3.776,3.776,0,0,0-2.494-.932,3.355,3.355,0,0,0-1.783.373,4.172,4.172,0,0,0-1.049.921,10.371,10.371,0,0,0-2.215,5.863Z" transform="translate(-636.183 -292.877)" fill="#b56a3e"/>
                <g id="Grupo_1012860" data-name="Grupo 1012860" transform="translate(0.521 13.913)">
                  <path id="Trazado_730148" data-name="Trazado 730148" d="M631,306.175a13.246,13.246,0,0,1,3.112-1.212c.221-.047.956.233,1.177.186a8.185,8.185,0,0,1,4.93.4c.047.023.047,10.129.047,10.129H630.58l.42-9.5Z" transform="translate(-625.332 -304.792)" fill="#f3a984"/>
                  <path id="Trazado_730149" data-name="Trazado 730149" d="M626.921,310.963c-.023-.186-1,1.084-.932.851.629-2.063,3.951-4.592,5.653-5.618.28,1.911,1.107,3.66,3.054,4.313a2.519,2.519,0,0,0,2.937-.874,5.41,5.41,0,0,0,.828-3.555c-.07-1.387-.245-1.27.4-1.259a7.241,7.241,0,0,1,2.04.431c1.492.478,2.086,2.145,2.856,3.392,1.166,1.876,2.354,3.858,2.506,6.061.21,3.007-1.492,5.711-1.7,8.672a16.1,16.1,0,0,0-.093,3.264,19.147,19.147,0,0,0,.548,2.821c.245.839.594,1.655.781,2.518a3.3,3.3,0,0,1-.151,2.121,2.985,2.985,0,0,1-1.4,1.305,19.524,19.524,0,0,1-2.8,1.014c-2.2.7-4.347,1.317-6.585,1.842a7.586,7.586,0,0,1-4.441-.023,6.007,6.007,0,0,1-1.725-.629,2.635,2.635,0,0,1-.921-1.62,5.734,5.734,0,0,1,.618-3.112c1.608-3.788,3.975-7.436,2.844-11.737-.571-2.156-4.2-9.406-4.289-10.152Z" transform="translate(-625.985 -304.814)" fill="#eadcd3"/>
                </g>
                <g id="Grupo_1012861" data-name="Grupo 1012861" transform="translate(4.809 1.074)">
                  <path id="Trazado_730150" data-name="Trazado 730150" d="M632.92,307.228c-.1,3.566,6.131,3.636,6.037.268-.128-4.685-.385-5.222-2.436-5.944a5.635,5.635,0,0,0-1.748-.361c-2.168-.047-1.329,1.142-1.247,1.958.245,2.448-.571,2.786-.606,4.068Z" transform="translate(-631.039 -292.575)" fill="#f3a984"/>
                  <path id="Trazado_730151" data-name="Trazado 730151" d="M633.6,304.25c-.14,1.1-.571,1.539-.606,2.471-.093,3.31,5.257,3.6,5.956.944a9.056,9.056,0,0,1-5.35-3.415Z" transform="translate(-631.11 -292.068)" fill="#f3a984"/>
                  <path id="Trazado_730152" data-name="Trazado 730152" d="M636.143,301.561a5.636,5.636,0,0,0-1.748-.361c-2.168-.047-1.329,1.142-1.247,1.958a7.211,7.211,0,0,1,0,1.6,9.036,9.036,0,0,0,5.35,3.415,2.5,2.5,0,0,0,.082-.676c-.128-4.685-.385-5.222-2.436-5.944Z" transform="translate(-630.66 -292.573)" fill="#ee9c76"/>
                  <path id="Trazado_730153" data-name="Trazado 730153" d="M632.591,305.966c-.175-.152-.361-.3-.524-.466a9.678,9.678,0,0,1-1.69-1.9,6.04,6.04,0,0,1,.5-7.238,5.483,5.483,0,0,1,5.338-1.434,8.2,8.2,0,0,1,1.445.594,4.1,4.1,0,0,1,1.107.769,3.9,3.9,0,0,1,.5.734,3.758,3.758,0,0,1,.385.921c.361,1.457-.606,2.949-.058,4.394.117.315.3.606.42.921a1.164,1.164,0,0,1-.035.967c-.163.268-.385.408-.478.711-.128.408-.221.839-.338,1.247a6.337,6.337,0,0,1-.478,1.317c-.559,1-1.364,1.061-2.366.664a13.212,13.212,0,0,1-3.718-2.215Z" transform="translate(-628.099 -293.644)" fill="#ffbfa2"/>
                  <path id="Trazado_730154" data-name="Trazado 730154" d="M629.653,299.267c.1-2.844.932-3.322,2.016-4.231a5.763,5.763,0,0,1,3.811-1.235,7.929,7.929,0,0,1,3.916,1.247c.047.035.093.058.14.093a3.953,3.953,0,0,1,1.469,1.5,3.737,3.737,0,0,1,.361,1.107c.117.723-.513,1.026-1.142,1.224a7.863,7.863,0,0,1-2.937-.2,3.321,3.321,0,0,0-1.224.012,1.148,1.148,0,0,0-.862.793,2.945,2.945,0,0,0,.221,1.247,2.156,2.156,0,0,1-.932,2.191,1.024,1.024,0,0,1-1.142.093c-.4-.186-.8-.49-1.235-.221-.408.245-.256.781-.152,1.154.023.07.175.606-.047.618a6.42,6.42,0,0,1-2.261-5.42Z" transform="translate(-629.648 -293.798)" fill="#d08a62"/>
                </g>
              </g>
            </g>
            <path id="Trazado_730155" data-name="Trazado 730155" d="M642.188,346.16c-.245,3.357-1.55,5.793-2.1,9.115a49.3,49.3,0,0,0-.618,10.408c.035.734.047,1.48.117,2.215a5.261,5.261,0,0,1-.023,1.958,2.021,2.021,0,0,1-1.364,1.084,3.511,3.511,0,0,1-1.294.175,1.592,1.592,0,0,1-1.585-1.6c-.163-.816-.093-1.632-.2-2.436a18.161,18.161,0,0,0-.42-2.075c-.361-1.539-.874-3.042-1.1-4.616a26.613,26.613,0,0,1-.151-3.974,25.521,25.521,0,0,1,1.935-8.59c.245-.571.315.1.921,0l5.874-1.62Z" transform="translate(-630.078 -284.057)" fill="#4c4147"/>
            <path id="Trazado_730156" data-name="Trazado 730156" d="M636.52,300.712c-.967-.07-1.212,1.142-.548,2.063a4.672,4.672,0,0,0,.793.723c1.737,1.48,2.168-.117,1.62-.629-1.282-1.166-.641-2.086-1.865-2.168Z" transform="translate(-629.002 -291.582)" fill="#ffbfa2"/>
            <path id="Trazado_730157" data-name="Trazado 730157" d="M637.206,302.776c-.117-.1-1.212-.758-.466-1.2a.323.323,0,0,1,.466.28c.012.117-.023.233,0,.35a.366.366,0,0,0,.07.186c.093.163.431.315.361.548-.058.21-.385-.1-.443-.163Z" transform="translate(-629.071 -291.444)" fill="#f3a984"/>
          </g>
          <g id="Grupo_1012864" data-name="Grupo 1012864" transform="translate(27.663 17.842)">
            <path id="Trazado_730158" data-name="Trazado 730158" d="M604.8,323.963c1.573.746,2.622-2.529,3.089-3.765.221-.583.571-.874-.175-2.028C606.307,315.979,602.753,323,604.8,323.963Z" transform="translate(-589.61 -306.602)" fill="#c9222d"/>
            <path id="Trazado_730159" data-name="Trazado 730159" d="M616.021,319.038c1.562-2.413-.991-4.254-1.783-5.2-1.282-1.527-2.051-1.282-2.424-1.259-1.41.093-2.821-.851-3.9,1.084-1.562,2.786-.594,6.679.746,7.681,1.562,1.166,5.49.606,7.378-2.308Z" transform="translate(-601.362 -307.482)" fill="#c9222d"/>
            <g id="Grupo_1012863" data-name="Grupo 1012863" transform="translate(3.666)">
              <path id="Trazado_730160" data-name="Trazado 730160" d="M604.721,317.006l12.728,7.355c.851.49,1.573.268,1.783-.571a3.627,3.627,0,0,0-.909-2.914l-6.364-7.623a2.366,2.366,0,0,0-1.737-1l-6.364.268c-.758.035-1.119.781-.909,1.853a4.024,4.024,0,0,0,1.783,2.622Zm6.364-3.823a2.332,2.332,0,0,1,.583.513l6.364,7.623a2.358,2.358,0,0,1,.618,1.958c-.1.431-.49.793-1.2.385l-12.728-7.355a2.7,2.7,0,0,1-1.2-1.772c-.1-.559-.012-1.224.618-1.247l6.364-.268a1.136,1.136,0,0,1,.583.163Z" transform="translate(-602.89 -307.512)" fill="#291321"/>
              <path id="Trazado_730161" data-name="Trazado 730161" d="M609.756,313.832c.163.093.3.023.3-.175a7.454,7.454,0,0,0-.629-2.436c-.408-1.061-.641-1.725-.3-2.086.256-.28.664-.221,1.072.163a2.138,2.138,0,0,1,.688,1.329.863.863,0,0,1-.163.559c-.093.1-.047.35.093.525s.326.245.408.128a1.382,1.382,0,0,0,.256-.909,3.433,3.433,0,0,0-1.107-2.2c-.653-.606-1.317-.711-1.725-.28-.571.594-.117,1.772.28,2.8a6.627,6.627,0,0,1,.559,2.051.635.635,0,0,0,.3.513Z" transform="translate(-601.48 -308.185)" fill="#291321"/>
            </g>
            <path id="Trazado_730162" data-name="Trazado 730162" d="M607.032,332c-1,6.236-2.751,12.879-3.3,19.278-.151,1.76-.163,3.683,1.364,4.86a7.492,7.492,0,0,0,3.438,1.5c1.527.2,3.089-.186,4.627-.058a11.881,11.881,0,0,1,5.093,1.608,3.4,3.4,0,0,0,2.3.769,2.512,2.512,0,0,0,1.608-1.935c.583-2,.431-4.429.571-6.527a41.739,41.739,0,0,0-.1-6.935,28.377,28.377,0,0,0-4.138-12.751,1.34,1.34,0,0,1-.35.559,7.14,7.14,0,0,1-2.727,1.27,11.97,11.97,0,0,1-5.979-.315A4.852,4.852,0,0,1,607.02,332Z" transform="translate(-603.668 -304.274)" fill="#c9222d"/>
            <path id="Trazado_730163" data-name="Trazado 730163" d="M616.985,324.871c-2.04-.967,1.48-7.937,2.9-5.8a11.029,11.029,0,0,0-.862-1.224,9.471,9.471,0,0,0-1.457-1.6s-1.317-1.1-1.329-1.1c-.256-.035-.408.548-.443.711-.35,1.748-3.555,3.975-4.884,2.191-1.271-1.737.851-5.385-.221-5.734a8.31,8.31,0,0,0-1.7-.035c-1.807.047-1.783.385-2.4,1.888-4.278,10.49-.2,12.11-1.434,21.061-.035.28-.07.373.128.525a5.021,5.021,0,0,0,1.48.548c.35.117.7.233,1.061.326a14.554,14.554,0,0,0,2.984.594c1.562.07,5.3-.361,5.933-2.191a8.916,8.916,0,0,0,.07-2.016,29.085,29.085,0,0,1,.513-3.87,28.232,28.232,0,0,1,1.061-3.765c.175-.478.326-1.119.525-1.585,0,0-.956,1.527-1.923,1.072Z" transform="translate(-601.791 -307.51)" fill="#dc303c"/>
          </g>
        </g>
        <path id="Trazado_730164" data-name="Trazado 730164" d="M609.949,309.743a.246.246,0,0,0,.163.14.5.5,0,0,0,.291-.012c.35-.093.664-.268,1-.385a1.509,1.509,0,0,1,.816-.093c.163.035.42.14.431.326a.449.449,0,0,1-.21.338,1.4,1.4,0,0,1-.2.128,12.166,12.166,0,0,1-2.914,1.084,2.239,2.239,0,0,1,.618-1.539Z" transform="translate(-569.237 -290.147)" fill="#ffbfa2"/>
        <path id="Trazado_730165" data-name="Trazado 730165" d="M636.719,326.488c-.268-.466-.769-6.853-.839-11.539-.058-4.044,2.051-6.877,3.695-6.748,1.55.128,2.669,2.914,1.9,9.254a40.55,40.55,0,0,0-.466,8.089c.338,3.823,1.166,9.453,1.818,10.455a3.8,3.8,0,0,1,.8.816,7.154,7.154,0,0,1,1.527,4.138c.023.175.128.455-.012.594s-.688.163-.874-.583c-.513-2.1-1.037-1.6-.536-.128.583,1.7,2.436,3.986-.28,3-.734-.268-.967-.082-1.737-1.387a16.43,16.43,0,0,1-1.643-4.685,96.67,96.67,0,0,0-3.368-11.259Z" transform="translate(-632.744 -290.341)" fill="#ffbfa2"/>
        <path id="Trazado_730166" data-name="Trazado 730166" d="M638.594,315.2c-.058-4.254,2.11-7.32,4.1-7.1,1.713.2,2.949,3.054,2.075,9.721-.047.373-.14.991-.233,1.737a5.24,5.24,0,0,1-5.8-.245c-.07-1.4-.117-2.821-.14-4.126Z" transform="translate(-635.75 -290.359)" fill="#f5ebe4"/>
      </g>
    </g>
  </g>
</svg>
