<svg xmlns="http://www.w3.org/2000/svg" width="137" height="136" viewBox="0 0 137 136">
  <g id="Grupo_1014107" data-name="Grupo 1014107" transform="translate(-1124.727 -3683)">
    <g id="Grupo_1014080" data-name="Grupo 1014080" transform="translate(156.727 2425)">
      <g id="Grupo_958245" data-name="Grupo 958245">
        <rect id="Rectángulo_340365" data-name="Rectángulo 340365" width="137" height="136" rx="12" transform="translate(968 1258)" fill="#12263f"/>
      </g>
    </g>
    <g id="Grupo_1011236" data-name="Grupo 1011236" transform="translate(1138.5 3697.669)">
      <g id="Grupo_1011216" data-name="Grupo 1011216" transform="translate(0 65.053)" opacity="0.3">
        <path id="Trazado_727031" data-name="Trazado 727031" d="M407.62,258.553,376.6,239.277l54.027-31.5,32,18.608-51.95,30.275Z" transform="translate(-376.6 -207.78)" fill="#a1c2d1"/>
      </g>
      <path id="Trazado_727032" data-name="Trazado 727032" d="M427.085,156.05c-1.552.672-2.566,3.775-2.517,7.135.037,2.419-1.735,3.018-2.15,4.2-.757,2.15-2.773,3.58-2.871,5.571,3.616,1.943,6.524-2.126,7.551-3.274,3.262-3.641,2.676-4.85,2.663-12.9-.012.073.122.1.159.037a.233.233,0,0,0,0-.22l-2.835-.55Z" transform="translate(-396.394 -154.199)" fill="#b56a3e"/>
      <path id="Trazado_727033" data-name="Trazado 727033" d="M414.119,228.273c-.892.049-1.026-1.21-1.124-1.918-1.845-13.378.171-17.166.513-19.255a5.591,5.591,0,0,1,.648-2.676c1.393-1.772,4.484-.073,5.217,2.175.305.929-.391,2.309-.611,3.225-2.517,10.3-1.246,18.253-4.631,18.437Z" transform="translate(-376.953 -143.635)" fill="#ee9c76"/>
      <path id="Trazado_727034" data-name="Trazado 727034" d="M414.343,219.09c-.122,4.679-1.7,5.449,1.625,8.406.941.843,3.861,1.869,3.7,2.932a3.5,3.5,0,0,1-2.456,1.784c-1.845.134-2.749-1.857-4.288-2.468-1.026-.4-3.494-.538-2.725-3.714.11-.44.257-.867.379-1.307.366-1.234-.183-1.075,1.038-2.028,1.271-1,.11.794,2.737-3.6Z" transform="translate(-374.526 -140.219)" fill="#ee9c76"/>
      <path id="Trazado_727035" data-name="Trazado 727035" d="M415.115,225.674c.293.88,1.222,1.442,1.759,2.285.305.477-.2.831-.538.819-3.238-.11-4.765-2.248-6.158-4.447-.892,2.969.354,3.58,2.395,4.386,1.674.66,3.861,3.9,6.292,2.016,2.725-2.114-1.723-2.932-3.751-5.058Z" transform="translate(-374.369 -139.057)" fill="#1a0f15"/>
      <path id="Trazado_727036" data-name="Trazado 727036" d="M417.95,165.9a13.9,13.9,0,0,1,3.531-.293c.232.012.9.525,1.136.538a8.7,8.7,0,0,1,4.887,1.894c.049.037-3.018,10.312-3.018,10.312l-9.848-2.932,3.3-9.53Z" transform="translate(-387.956 -152.086)" fill="#ffbfa2"/>
      <path id="Trazado_727037" data-name="Trazado 727037" d="M418.242,187.008c-.538.208.159-1.808-.269-2.187-.757-.66-1.5,1.161-2.541-.318a25.085,25.085,0,0,1-1.039-2.92c-.66-1.759-7.844-16.567-.709-15.064,3.409.721,4.594,7.844,5.278,12.01a34.531,34.531,0,0,0,1.429,4.093,3.416,3.416,0,0,1-2.138,4.386Z" transform="translate(-376.067 -151.901)" fill="#f8b495"/>
      <path id="Trazado_727038" data-name="Trazado 727038" d="M424.371,195.055c2.859.086,3.58,1.417,4.007-1.637.684-4.863,3.421-12.755,3.507-18.656.11-7.1-.4-7.147-4.973-8.65,0,0,1.051,4.435-.1,5.241-2.37,1.686-5.913-1.808-5.351-5.522-2.676.733-7.331,3.372-7.416,6.9-.1,4.007,2.2,5.877,1.7,9.86a62.191,62.191,0,0,1-1.8,8.247c-.281,1.112,1.5,3.067,2.456,3.335a18.574,18.574,0,0,0,7.978.855Z" transform="translate(-391.469 -152.03)" fill="#4b3d46"/>
      <path id="Trazado_727039" data-name="Trazado 727039" d="M426.645,207.14c-.122,5.254-1.588,11.534-1.759,16.8a48.175,48.175,0,0,0,.281,6.9c.147.757-1.625,2.7-2.309,2.334-.464-.257-1.014-2.334-1.051-2.871-.22-3.006-1.711-5.779-2.358-8.723-.916-4.178.122-11.216,1.943-11.643l5.254-2.786Z" transform="translate(-392.558 -142.869)" fill="#f3a984"/>
      <path id="Trazado_727040" data-name="Trazado 727040" d="M420.949,226.623c.147,2.7,2.15,4.887,3.6,7.013.22.33-.11,1.014-.122,1.417-.012.513.342,1-2.272,1.258-1.234.122-1.833.22-3.7-3.7-.4-.831-1.185-1.442-1.136-2.456.037-.782.586-1.454.7-2.224.11-.867-.318-1.869.244-2.553a1.487,1.487,0,0,1,2.395.476l.318.77Z" transform="translate(-388.352 -138.919)" fill="#f3a984"/>
      <path id="Trazado_727041" data-name="Trazado 727041" d="M424.285,232.985c-.5-.733-1.075-1.478-1.613-2.248.147,1.21-.159,2.224-1.576,2.175-2.48.073-2.773-2.883-3.543-5.021a5.542,5.542,0,0,0-.525,1.613c-.049,1.026.733,1.625,1.136,2.456.342.709,1.613,3.225,2.285,3.714,1.552,1.124,5.645-.024,3.824-2.688Z" transform="translate(-388.096 -138.267)" fill="#1a0f15"/>
      <path id="Trazado_727042" data-name="Trazado 727042" d="M431.273,184.65c.281.672,1.747,7.355,1.955,7.941.464,1.381-.379,2.59-.024,4.007.33,1.344.562,2.7.794,4.056.33,1.967.672,3.922,1,5.889a15.979,15.979,0,0,1-.037,7.013,2.666,2.666,0,0,1-1.039,1.662,3.4,3.4,0,0,1-1.6.379,15.41,15.41,0,0,0-6.769,1.82,5.017,5.017,0,0,1-1.784.855c-.892.122-1.772-.391-2.676-.367-1.454.037-2.737,1.43-4.166,1.124a2.977,2.977,0,0,1-1.8-1.539c-1.332-2.272-1.3-5.009-1.637-7.551-.171-1.3-.489-2.529-.6-3.849-.122-1.429-.183-2.871-.183-4.3.024-5.278,1.405-12.865,3.873-17.581-.086,1.833,11.167,5.73,14.674.44Z" transform="translate(-393.471 -147.954)" fill="#32272d"/>
      <g id="Grupo_1011217" data-name="Grupo 1011217" transform="translate(29.364)">
        <path id="Trazado_727043" data-name="Trazado 727043" d="M417.111,167.325c-.525,3.6,5.5,4.435,5.816,1.026.44-4.753.244-5.327-1.649-6.317a5.438,5.438,0,0,0-1.649-.586c-2.089-.305-1.417.99-1.442,1.833C418.126,165.786,417.307,166.03,417.111,167.325Z" transform="translate(-415.919 -153.012)" fill="#f3a984"/>
        <path id="Trazado_727044" data-name="Trazado 727044" d="M415.961,166.742c-.171-.171-.33-.342-.5-.525a9.5,9.5,0,0,1-1.552-2.077,6.16,6.16,0,0,1,1.136-7.306,5.588,5.588,0,0,1,5.535-1,7.787,7.787,0,0,1,1.417.733,3.081,3.081,0,0,1,1.5,1.674,4.7,4.7,0,0,1,.318.965c.244,1.515-.867,2.944-.428,4.447.1.33.257.635.342.977a1.139,1.139,0,0,1-.122.977c-.2.257-.428.379-.55.672-.171.4-.293.831-.452,1.246a5.957,5.957,0,0,1-.6,1.3,1.679,1.679,0,0,1-2.456.477,13.8,13.8,0,0,1-3.58-2.566Z" transform="translate(-411.923 -154.323)" fill="#ffbfa2"/>
        <path id="Trazado_727045" data-name="Trazado 727045" d="M413.157,159.611c.342-2.871,1.234-3.287,2.407-4.117a5.828,5.828,0,0,1,3.971-.916,8,8,0,0,1,3.873,1.613.935.935,0,0,0,.134.1,3.9,3.9,0,0,1,1.356,1.662,3.823,3.823,0,0,1,.269,1.161c.061.745-.611,1-1.271,1.148a8.216,8.216,0,0,1-2.957-.452,3.312,3.312,0,0,0-1.246-.086,1.2,1.2,0,0,0-.953.721,2.9,2.9,0,0,0,.122,1.283,2.181,2.181,0,0,1-1.136,2.138,1.052,1.052,0,0,1-1.173,0c-.391-.22-.77-.562-1.234-.33-.428.22-.318.77-.257,1.161.012.073.122.635-.1.623a6.542,6.542,0,0,1-1.833-5.693Z" transform="translate(-413.077 -154.535)" fill="#d08a62"/>
        <path id="Trazado_727046" data-name="Trazado 727046" d="M423.867,160.086a2.9,2.9,0,0,0,.122,1.283,2.181,2.181,0,0,1-1.136,2.138,1.052,1.052,0,0,1-1.173,0c-.391-.22-.77-.562-1.234-.33-.428.22-.183.562-.122.953,0,.049.11,0,.1.391a3.623,3.623,0,0,1-.1.782,7.324,7.324,0,0,1-2.065-6.06,5.351,5.351,0,0,1,1.112-3.1,13.173,13.173,0,0,1,2.37,1.552,16.108,16.108,0,0,1,2.114,2.37Z" transform="translate(-418.178 -154.179)" fill="#d08a62"/>
        <path id="Trazado_727047" data-name="Trazado 727047" d="M420.317,161.032c-.977-.147-1.332,1.051-.733,2.053a4.635,4.635,0,0,0,.745.806c1.637,1.649,2.211.061,1.7-.489-1.2-1.3-.477-2.175-1.7-2.358Z" transform="translate(-417.708 -153.097)" fill="#ffbfa2"/>
        <path id="Trazado_727048" data-name="Trazado 727048" d="M420.775,163.144c-.11-.11-1.173-.867-.367-1.258.22-.11.44.1.452.33,0,.122-.037.232-.037.354a.369.369,0,0,0,.061.2c.086.171.415.354.33.586C421.141,163.559,420.836,163.205,420.775,163.144Z" transform="translate(-417.726 -152.912)" fill="#f3a984"/>
      </g>
      <path id="Trazado_727049" data-name="Trazado 727049" d="M423.055,176.186c-.623-4.521,1.429-7.99,3.348-8.076,1.82-.086,3.482,2.871,3.458,10.08,0,1.759.183,7.477.073,11.35-.061,2.04-3.006.586-3.616.147-2.028-1.442-2.053-4.606-3.274-13.5Z" transform="translate(-400.562 -151.525)" fill="#ffbfa2"/>
      <g id="Grupo_1011233" data-name="Grupo 1011233" transform="translate(5.669 35.694)">
        <g id="Grupo_1011220" data-name="Grupo 1011220" transform="translate(0.379 23.189)">
          <g id="Grupo_1011218" data-name="Grupo 1011218" transform="translate(0.086)">
            <path id="Trazado_727050" data-name="Trazado 727050" d="M444.716,204.109l-.855-.489L429.7,241.336l.855.489Z" transform="translate(-429.7 -202.533)" fill="#8f747d"/>
            <path id="Trazado_727051" data-name="Trazado 727051" d="M430.895,203.231l-.843-.5-1.882,1.087.855.489Z" transform="translate(-414.01 -202.73)" fill="#a38b93"/>
            <path id="Trazado_727052" data-name="Trazado 727052" d="M442.33,204.215l-14.16,37.716,1.869-1.087,14.16-37.7Z" transform="translate(-427.315 -202.639)" fill="#6b5864"/>
          </g>
          <g id="Grupo_1011219" data-name="Grupo 1011219" transform="translate(0 8.223)">
            <path id="Trazado_727053" data-name="Trazado 727053" d="M442.555,209.961l-.843-.5-1.882,1.087.855.489Z" transform="translate(-439.83 -209.46)" fill="#a38b93"/>
            <path id="Trazado_727054" data-name="Trazado 727054" d="M430.5,210.839l-.855-.489,14.331,21.271.843.489Z" transform="translate(-429.64 -209.263)" fill="#4b3d46"/>
            <path id="Trazado_727055" data-name="Trazado 727055" d="M429.969,209.87l-1.869,1.075,14.319,21.271,1.882-1.087Z" transform="translate(-427.245 -209.369)" fill="#6b5864"/>
          </g>
        </g>
        <g id="Grupo_1011221" data-name="Grupo 1011221" transform="translate(8.907 42.518)">
          <path id="Trazado_727056" data-name="Trazado 727056" d="M439.9,234.411,413.33,218.98v1.039L439.9,235.462Z" transform="translate(-413.33 -218.455)" fill="#4b3d46"/>
          <path id="Trazado_727057" data-name="Trazado 727057" d="M440.068,233.993,413.494,218.55l-.9.525,26.574,15.431Z" transform="translate(-412.59 -218.55)" fill="#62515c"/>
          <path id="Trazado_727058" data-name="Trazado 727058" d="M412.59,231.7v1.051l.9-.525V231.19Z" transform="translate(-386.016 -215.747)" fill="#382e35"/>
        </g>
        <g id="Grupo_1011224" data-name="Grupo 1011224" transform="translate(27.465 38.95)">
          <g id="Grupo_1011222" data-name="Grupo 1011222" transform="translate(0.086)">
            <path id="Trazado_727059" data-name="Trazado 727059" d="M422.546,217.009l-.855-.489-14.16,37.716.843.489Z" transform="translate(-407.53 -215.433)" fill="#a38b93"/>
            <path id="Trazado_727060" data-name="Trazado 727060" d="M408.725,216.131l-.843-.5L406,216.717l.855.489Z" transform="translate(-391.84 -215.63)" fill="#a38b93"/>
            <path id="Trazado_727061" data-name="Trazado 727061" d="M420.173,217.115,406,254.831l1.882-1.075,14.16-37.716Z" transform="translate(-405.157 -215.539)" fill="#8f747d"/>
          </g>
          <g id="Grupo_1011223" data-name="Grupo 1011223" transform="translate(0 8.223)">
            <path id="Trazado_727062" data-name="Trazado 727062" d="M420.385,222.861l-.843-.5-1.882,1.087.855.5Z" transform="translate(-417.66 -222.36)" fill="#a38b93"/>
            <path id="Trazado_727063" data-name="Trazado 727063" d="M408.325,223.751l-.855-.5L421.8,244.521l.843.489Z" transform="translate(-407.47 -222.163)" fill="#6b5864"/>
            <path id="Trazado_727064" data-name="Trazado 727064" d="M407.8,222.77l-1.869,1.087,14.319,21.259,1.882-1.087Z" transform="translate(-405.075 -222.269)" fill="#8f747d"/>
          </g>
        </g>
        <g id="Grupo_1011227" data-name="Grupo 1011227" transform="translate(37.594 3.03)">
          <g id="Grupo_1011225" data-name="Grupo 1011225" transform="translate(0.086)">
            <path id="Trazado_727065" data-name="Trazado 727065" d="M414.253,187.609l-.843-.489-14.16,37.716.843.489Z" transform="translate(-399.25 -186.033)" fill="#8f747d"/>
            <path id="Trazado_727066" data-name="Trazado 727066" d="M400.435,186.731l-.855-.5-1.869,1.087.843.489Z" transform="translate(-383.55 -186.23)" fill="#a38b93"/>
            <path id="Trazado_727067" data-name="Trazado 727067" d="M411.87,187.715l-14.16,37.716,1.882-1.075,14.16-37.716Z" transform="translate(-396.867 -186.139)" fill="#6b5864"/>
          </g>
          <g id="Grupo_1011226" data-name="Grupo 1011226" transform="translate(0 8.235)">
            <path id="Trazado_727068" data-name="Trazado 727068" d="M412.095,193.459l-.855-.489-1.869,1.075.843.5Z" transform="translate(-409.37 -192.97)" fill="#a38b93"/>
            <path id="Trazado_727069" data-name="Trazado 727069" d="M400.023,194.351l-.843-.5,14.331,21.271.843.489Z" transform="translate(-399.18 -192.775)" fill="#4b3d46"/>
            <path id="Trazado_727070" data-name="Trazado 727070" d="M399.522,193.37l-1.882,1.087,14.331,21.259,1.882-1.075Z" transform="translate(-396.797 -192.881)" fill="#6b5864"/>
          </g>
        </g>
        <g id="Grupo_1011228" data-name="Grupo 1011228" transform="translate(44.741 22.407)">
          <path id="Trazado_727071" data-name="Trazado 727071" d="M410.574,217.953,384,202.51v1.051l26.574,15.431Z" transform="translate(-384 -201.997)" fill="#4b3d46"/>
          <path id="Trazado_727072" data-name="Trazado 727072" d="M410.738,217.533,384.164,202.09l-.9.513,26.574,15.443Z" transform="translate(-383.26 -202.09)" fill="#62515c"/>
          <path id="Trazado_727073" data-name="Trazado 727073" d="M383.26,215.243v1.039l.9-.513V214.73Z" transform="translate(-356.686 -199.287)" fill="#382e35"/>
        </g>
        <g id="Grupo_1011231" data-name="Grupo 1011231" transform="translate(63.3 17.984)">
          <g id="Grupo_1011229" data-name="Grupo 1011229" transform="translate(0.086)">
            <path id="Trazado_727074" data-name="Trazado 727074" d="M393.216,199.851l-.855-.5L378.2,237.066l.855.5Z" transform="translate(-378.2 -198.275)" fill="#a38b93"/>
            <path id="Trazado_727075" data-name="Trazado 727075" d="M379.395,198.959l-.843-.489-1.882,1.075.855.5Z" transform="translate(-362.51 -198.47)" fill="#a38b93"/>
            <path id="Trazado_727076" data-name="Trazado 727076" d="M390.83,199.957l-14.16,37.716,1.869-1.087L392.7,198.87Z" transform="translate(-375.815 -198.381)" fill="#8f747d"/>
          </g>
          <g id="Grupo_1011230" data-name="Grupo 1011230" transform="translate(0 8.223)">
            <path id="Trazado_727077" data-name="Trazado 727077" d="M391.055,205.689l-.843-.489-1.882,1.087.855.489Z" transform="translate(-388.33 -205.2)" fill="#a38b93"/>
            <path id="Trazado_727078" data-name="Trazado 727078" d="M379,206.579l-.855-.489,14.331,21.259.843.5Z" transform="translate(-378.14 -205.003)" fill="#6b5864"/>
            <path id="Trazado_727079" data-name="Trazado 727079" d="M378.469,205.6l-1.869,1.087,14.319,21.271,1.882-1.087Z" transform="translate(-375.745 -205.111)" fill="#8f747d"/>
          </g>
        </g>
        <g id="Grupo_1011232" data-name="Grupo 1011232">
          <path id="Trazado_727080" data-name="Trazado 727080" d="M417.35,208.35l.012,2.456,30.556,17.765v-2.456Z" transform="translate(-417.35 -178.294)" fill="#d2b2a3"/>
          <path id="Trazado_727081" data-name="Trazado 727081" d="M375.12,228.348V230.8l51.6-30.08-.012-2.444Z" transform="translate(-344.551 -180.528)" fill="#eadcd3"/>
          <path id="Trazado_727082" data-name="Trazado 727082" d="M375.11,213.818l30.557,17.765,51.6-30.068L426.706,183.75Z" transform="translate(-375.086 -183.75)" fill="#f5ebe4"/>
          <path id="Trazado_727083" data-name="Trazado 727083" d="M403.711,199.734c-.183.22-.806,0-1.674-.721l-1.2-.965c.2-.11.4-.22.6-.318l2.273,2Z" transform="translate(-352.971 -180.65)" fill="#546282"/>
          <path id="Trazado_727084" data-name="Trazado 727084" d="M411.087,194.614c2.48,2.15,9.408,5.2,12.45,6.6-.538-.244-.672-.745-1.381-1.222a102.672,102.672,0,0,1-8.992-6.964l10.08-5.486L447.9,201.871l-41.614,24.252L381.63,211.792l29.457-17.166Z" transform="translate(-373.688 -182.909)" fill="#fdda4c"/>
        </g>
      </g>
      <path id="Trazado_727085" data-name="Trazado 727085" d="M428.867,197.018c.1-.391,1.662,2.175-.2-.745-3.519-5.547-10.458-16.665-13.22-13.83a3.626,3.626,0,0,0-.977,3.03c.281.892,9.664,10.788,11.191,12.462C427.145,199.547,428.635,197.9,428.867,197.018Z" transform="translate(-389.734 -148.447)" fill="#ffbfa2"/>
      <g id="Grupo_1011234" data-name="Grupo 1011234" transform="translate(39.357 29.229)">
        <path id="Trazado_727086" data-name="Trazado 727086" d="M417.016,193.525a6.547,6.547,0,0,0-.7-1.6c-.415-.538-.941-.977-1.344-1.515-.66-.88-5.266-10.581-5.669-11.35-1.246-2.334-4.716,2.9-4.508,2.761.2.709,7.111,8.956,7.147,9.188.147.843-.33,1.686.757,2.6,1.271,1.075-.22,4.276.941,4.459a3.947,3.947,0,0,0,1.417-.379c.965-.318,1.991-3.592,1.955-4.166Z" transform="translate(-404.789 -178.458)" fill="#f8b495"/>
        <path id="Trazado_727087" data-name="Trazado 727087" d="M408.683,192.386c-.061.171-.11.354-.159.525-.073.257-.122.525-.183.806a2.934,2.934,0,0,1-.2.635,1.106,1.106,0,0,1-.428.489.5.5,0,0,1-.55-.024c-.305-.281.049-.965.134-1.332a1.278,1.278,0,0,0,.037-.525,6.261,6.261,0,0,0-.305-.794,3.812,3.812,0,0,1-.183-.916,10.513,10.513,0,0,1,1.82,1.136Z" transform="translate(-398.973 -175.622)" fill="#ffbfa2"/>
      </g>
      <path id="Trazado_727088" data-name="Trazado 727088" d="M413.562,193.843s.061.049.086.073a1.329,1.329,0,0,0,.831.342,3.138,3.138,0,0,1,.99.269c1.148.4,2.309.819,3.458,1.222.183.061.415.183.415.379a.347.347,0,0,1-.11.232.97.97,0,0,1-.757.244,4.707,4.707,0,0,1-.794-.2,6.205,6.205,0,0,0-1.344-.244.22.22,0,0,0-.122.024c-.061.049-.049.134-.012.208a5.55,5.55,0,0,0,1.161,1.552,21.836,21.836,0,0,1,1.527,1.845,1.188,1.188,0,0,1,.232.464.386.386,0,0,1-.232.428c-.2.061-.391-.1-.538-.244-.367-.379-.733-.745-1.1-1.124-.085-.086-.648-.709-.745-.464-.061.159.244.489.33.611.208.33.415.66.635.99a1.779,1.779,0,0,1,.4,1.222c-.024.147-.061.257-.208.269a.861.861,0,0,1-.354-.11,1.369,1.369,0,0,1-.428-.55,10.342,10.342,0,0,0-.965-1.417,5.413,5.413,0,0,0-.55-.623c-.269-.232-.269.122-.171.305a6.9,6.9,0,0,1,.525,1.283,1.915,1.915,0,0,1,.061.648c-.049.232-.305.22-.464.086a1.382,1.382,0,0,1-.33-.489c-.208-.428-.4-.855-.611-1.283a2.5,2.5,0,0,0-.281-.574c-.1-.11-.244-.147-.281.024a2.967,2.967,0,0,0,.024.733,1.393,1.393,0,0,1-.086.5c-.024.073-.085.159-.159.147s-.11-.061-.147-.11a2.272,2.272,0,0,1-.428-.941,5.344,5.344,0,0,0-.354-1.112,5.643,5.643,0,0,0-1.124-1.992c-.318-.342-.7-.623-.99-.977a.559.559,0,0,1-.147-.293.67.67,0,0,1,.134-.354c.232-.318.4-.684.66-.99a4.073,4.073,0,0,1,.892-.758.793.793,0,0,1,.489-.147.76.76,0,0,1,.428.305,5.987,5.987,0,0,0,.538.574Z" transform="translate(-374.625 -146.017)" fill="#ffbfa2"/>
      <g id="Grupo_1011235" data-name="Grupo 1011235" transform="translate(44.802 43.611)">
        <path id="Trazado_727089" data-name="Trazado 727089" d="M406.005,194.142a2.133,2.133,0,0,0,.623.379l1.478.525.269.99-1.967-.916a4.994,4.994,0,0,1-.6-.342l.2-.648Z" transform="translate(-402.841 -189.365)" fill="#291321"/>
        <path id="Trazado_727090" data-name="Trazado 727090" d="M401.523,196.513l5.779,2.8a2.188,2.188,0,0,0-1.063-1.662L400.57,194.9l.953,1.6Z" transform="translate(-395.365 -189.195)" fill="#404b63"/>
        <path id="Trazado_727091" data-name="Trazado 727091" d="M402.883,195.37l3.25,2.871c-.2.11-.4.208-.6.318l-2.835-2.285.171-.9Z" transform="translate(-396.799 -189.09)" fill="#546282"/>
        <path id="Trazado_727092" data-name="Trazado 727092" d="M408.562,194.542l1.393.806c.55.318,1,.061,1-.574a2.2,2.2,0,0,0-1-1.723l-1.393-.806c-.55-.318-1-.061-1,.574A2.2,2.2,0,0,0,408.562,194.542Zm1.393-1.026a1.3,1.3,0,0,1,.586,1.014c0,.379-.257.525-.586.342l-1.393-.806a1.3,1.3,0,0,1-.586-1.014c0-.379.257-.525.586-.342Z" transform="translate(-407.56 -189.814)" fill="#291321"/>
        <path id="Trazado_727093" data-name="Trazado 727093" d="M405.04,195.632l1.527,1.246-.391-1.368-.965-.77Z" transform="translate(-400.092 -189.23)" fill="#4b3d46"/>
        <path id="Trazado_727094" data-name="Trazado 727094" d="M405.73,191.647a.136.136,0,0,1,.171-.122,1.566,1.566,0,0,1-.049-.745c.122-.623.709-.733,1.307-.244l.648.525a2.351,2.351,0,0,1,.867,2,.691.691,0,0,1-.232.428,11.891,11.891,0,0,0,1.075,2.737,1.815,1.815,0,0,0-.33.232A12.434,12.434,0,0,1,408,193.6a1.341,1.341,0,0,1-.635-.293l-.648-.525a2.1,2.1,0,0,1-.44-.489.288.288,0,0,1-.159-.061l-.183-.147a.533.533,0,0,1-.2-.452Zm1.063.721.648.525c.379.305.733.232.819-.159a1.5,1.5,0,0,0-.538-1.258l-.648-.525c-.379-.305-.733-.232-.818.159A1.5,1.5,0,0,0,406.793,192.368Z" transform="translate(-403.885 -190.23)" fill="#4b3d46"/>
      </g>
      <path id="Trazado_727095" data-name="Trazado 727095" d="M406.918,190.069a1.544,1.544,0,0,1,.257-.305.879.879,0,0,1,1.075,0,1.384,1.384,0,0,1,.379.648,2.86,2.86,0,0,1-.085,1.857,3.982,3.982,0,0,0-.183.489,10.513,10.513,0,0,0-1.82-1.136,2.716,2.716,0,0,1,.367-1.539Z" transform="translate(-359.293 -146.763)" fill="#ffbfa2"/>
    </g>
    <g id="Grupo_1014106" data-name="Grupo 1014106" transform="translate(897.24 3564.872)">
      <path id="Trazado_716840" data-name="Trazado 716840" d="M307.69,173.31l35.32,20.4,9.12-5.26-35.32-20.4Z" fill="#3d556b" opacity="0.3"/>
      <g id="Grupo_1008284" data-name="Grupo 1008284">
        <path id="Trazado_716841" data-name="Trazado 716841" d="M343.01,193.71l-2.12-1.23v-1.21l2.12,1.23Z" fill="#bcbec0"/>
        <path id="Trazado_716842" data-name="Trazado 716842" d="M352.13,188.45l-9.12,5.26V192.5l9.12-5.28Z" fill="#a7a9ac"/>
        <path id="Trazado_716843" data-name="Trazado 716843" d="M352.13,187.22l-9.12,5.28-2.12-1.23,9.12-5.28Z" fill="#d1d3d4"/>
      </g>
      <g id="Grupo_1008285" data-name="Grupo 1008285">
        <path id="Trazado_716844" data-name="Trazado 716844" d="M309.81,174.54l-2.12-1.23v-1.22l2.12,1.23Z" fill="#bcbec0"/>
        <path id="Trazado_716845" data-name="Trazado 716845" d="M318.94,169.27l-9.13,5.27v-1.22l9.13-5.28Z" fill="#a7a9ac"/>
        <path id="Trazado_716846" data-name="Trazado 716846" d="M318.94,168.04l-9.13,5.28-2.12-1.23,9.12-5.27Z" fill="#d1d3d4"/>
      </g>
      <g id="Grupo_1008286" data-name="Grupo 1008286">
        <path id="Trazado_716847" data-name="Trazado 716847" d="M313.98,127.31a1.231,1.231,0,0,1-1.15,0,.416.416,0,0,1-.24-.31v43.04h0a.413.413,0,0,0,.24.34,1.292,1.292,0,0,0,1.15,0,.4.4,0,0,0,.24-.35V126.99a.4.4,0,0,1-.24.33Z" fill="#a7a9ac"/>
        <path id="Trazado_716848" data-name="Trazado 716848" d="M312.82,126.65a1.2,1.2,0,0,1,.57-.14l.22.02a1.074,1.074,0,0,1,.37.12c.32.19.32.48,0,.66a1.231,1.231,0,0,1-1.15,0,.347.347,0,0,1,0-.66Z" fill="#d1d3d4"/>
      </g>
      <g id="Grupo_1008287" data-name="Grupo 1008287">
        <path id="Trazado_716849" data-name="Trazado 716849" d="M321.14,130.5l.21-.19-.2-.11h0a.1.1,0,0,0-.03-.01l-4.7.09-.13-.54-.2-.12-.48.28-.33,1.02-4.72,5.36a.372.372,0,0,0-.05.16.037.037,0,0,0,.01.03h0a.031.031,0,0,1,.02.01l.19.11,8.58-5.01,1.82-1.03v-.05Zm-9.77,5.3,4.17-4.75.69-.53,4.41-.08-9.27,5.36Z" fill="#414042"/>
        <path id="Trazado_716850" data-name="Trazado 716850" d="M321.31,130.3l-4.7.08-.33-.65-.48.27-.33,1.03-4.72,5.36s-.06.11-.05.15.05.06.1.03l10.46-6.04a.354.354,0,0,0,.1-.14c0-.06-.01-.1-.06-.1Zm-10.08,5.81,4.41-5.01.8-.46,4.41-.08Z"/>
        <path id="Trazado_716851" data-name="Trazado 716851" d="M318.72,140.93v-1.8l1.49-9.12-1.82.04a6.026,6.026,0,0,1-2.53,5.11c-2.8,1.27-2.54-2.18-2.54-2.18l-1.82,2.06,1.5,7.39v1.8s-3.52,17.7-3.51,18.08a46.213,46.213,0,0,0,12.74-7.36l-3.51-14.03Z" fill="#ff8400"/>
        <path id="Trazado_716852" data-name="Trazado 716852" d="M313,142.43a48.431,48.431,0,0,0,5.72-3.3C317.04,141.09,313,142.43,313,142.43Z" fill="#ba6000"/>
        <path id="Trazado_716853" data-name="Trazado 716853" d="M313,144.23a48.431,48.431,0,0,0,5.72-3.3C317.04,142.89,313,144.23,313,144.23Z" fill="#ba6000"/>
      </g>
      <g id="Grupo_1008288" data-name="Grupo 1008288">
        <path id="Trazado_716854" data-name="Trazado 716854" d="M325.14,132.82l.21-.19-.2-.11h0a.1.1,0,0,0-.03-.01l-4.7.08-.13-.54-.21-.12-.48.28-.32,1.02-4.72,5.37s-.06.11-.05.15c0,.01.01.02.02.03h0a.035.035,0,0,1,.01.02l.19.1,8.58-5.01,1.81-1.02v-.05Zm-9.76,5.29,4.17-4.74.69-.54,4.41-.08-9.27,5.35Z" fill="#414042"/>
        <path id="Trazado_716855" data-name="Trazado 716855" d="M325.32,132.62l-4.7.09-.33-.66-.48.27-.33,1.02-4.71,5.36s-.06.11-.05.15.05.06.1.03l10.46-6.04a.457.457,0,0,0,.1-.14c.01-.06,0-.1-.05-.1Zm-10.08,5.81,4.41-5.02.8-.46,4.41-.08-9.62,5.55Z"/>
        <path id="Trazado_716856" data-name="Trazado 716856" d="M322.72,143.25v-1.8l1.49-9.12-1.82.04a6.019,6.019,0,0,1-2.54,5.11c-2.79,1.27-2.54-2.18-2.54-2.18l-1.82,2.06,1.49,7.39v1.8s-3.52,17.7-3.51,18.08a46.213,46.213,0,0,0,12.74-7.36l-3.51-14.03Z" fill="#24d2c1"/>
        <path id="Trazado_716857" data-name="Trazado 716857" d="M317,144.76a48.431,48.431,0,0,0,5.72-3.3C321.04,143.42,317,144.76,317,144.76Z" fill="#0a8074"/>
        <path id="Trazado_716858" data-name="Trazado 716858" d="M317,146.56a49.405,49.405,0,0,0,5.72-3.31C321.04,145.21,317,146.56,317,146.56Z" fill="#0a8074"/>
      </g>
      <g id="Grupo_1008289" data-name="Grupo 1008289">
        <path id="Trazado_716859" data-name="Trazado 716859" d="M328.7,134.87l.21-.19-.2-.11h0s-.02-.02-.03-.02l-4.7.09-.13-.54-.2-.12-.48.28-.33,1.02-4.72,5.36a.372.372,0,0,0-.05.16c0,.01.01.02.02.03h.02l.18.12,8.58-5.01,1.82-1.03v-.05Zm-9.77,5.3,4.17-4.74.69-.53,4.41-.08-9.28,5.35Z" fill="#414042"/>
        <path id="Trazado_716860" data-name="Trazado 716860" d="M328.88,134.67l-4.7.09-.33-.66-.48.28-.33,1.02-4.72,5.36a.372.372,0,0,0-.05.16c.01.04.05.06.1.03l10.46-6.04a.5.5,0,0,0,.1-.14c.01-.06-.01-.1-.05-.1Zm-10.08,5.81,4.41-5.01.8-.46,4.41-.08Z"/>
        <path id="Trazado_716861" data-name="Trazado 716861" d="M326.28,145.3v-1.8l1.49-9.12-1.82.04a6.019,6.019,0,0,1-2.54,5.11c-2.79,1.27-2.53-2.18-2.53-2.18l-1.82,2.06,1.5,7.39v1.8s-3.52,17.7-3.51,18.08a46.213,46.213,0,0,0,12.74-7.36l-3.51-14.03Z" fill="#e31b25"/>
        <path id="Trazado_716862" data-name="Trazado 716862" d="M320.56,146.8a48.431,48.431,0,0,0,5.72-3.3C324.6,145.46,320.56,146.8,320.56,146.8Z" fill="#9c251f"/>
        <path id="Trazado_716863" data-name="Trazado 716863" d="M320.56,148.61a47.723,47.723,0,0,0,5.72-3.31C324.6,147.26,320.56,148.61,320.56,148.61Z" fill="#9c251f"/>
      </g>
      <g id="Grupo_1008290" data-name="Grupo 1008290">
        <path id="Trazado_716864" data-name="Trazado 716864" d="M331.72,136.62l.21-.19-.2-.11h0a.1.1,0,0,0-.04-.01l-4.7.09-.13-.54-.2-.12-.48.28-.33,1.02-4.72,5.36a.372.372,0,0,0-.05.16c0,.01,0,.02.02.03h0a.031.031,0,0,0,.01.02l.19.11,8.59-5.01,1.82-1.03v-.05Zm-9.77,5.3,4.17-4.74.69-.53,4.41-.08-9.28,5.36Z" fill="#414042"/>
        <path id="Trazado_716865" data-name="Trazado 716865" d="M331.89,136.43l-4.7.08-.33-.65-.47.27-.33,1.02-4.71,5.36a.372.372,0,0,0-.05.16c.01.04.05.06.1.03l10.46-6.04s.09-.08.09-.14-.01-.1-.05-.1Zm-10.08,5.81,4.41-5.01.8-.46,4.41-.08-9.61,5.55Z"/>
        <path id="Trazado_716866" data-name="Trazado 716866" d="M329.3,147.06v-1.8l1.5-9.12-1.82.04a6.018,6.018,0,0,1-2.53,5.11c-2.79,1.27-2.54-2.18-2.54-2.18l-1.82,2.06,1.5,7.39v1.8s-3.52,17.7-3.52,18.08a46.012,46.012,0,0,0,12.74-7.36l-3.51-14.03Z" fill="#1d374e"/>
        <path id="Trazado_716867" data-name="Trazado 716867" d="M323.58,148.56a49.405,49.405,0,0,0,5.72-3.31C327.62,147.21,323.58,148.56,323.58,148.56Z" fill="#0f2034"/>
        <path id="Trazado_716868" data-name="Trazado 716868" d="M323.58,150.36a49.405,49.405,0,0,0,5.72-3.31C327.62,149.01,323.58,150.36,323.58,150.36Z" fill="#0f2034"/>
      </g>
      <g id="Grupo_1008291" data-name="Grupo 1008291">
        <path id="Trazado_716869" data-name="Trazado 716869" d="M335.07,138.57l.21-.19-.2-.11h0a.1.1,0,0,0-.03-.01l-4.7.09-.12-.54-.2-.12-.48.28-.33,1.02-4.72,5.36a.372.372,0,0,0-.05.16c0,.01.01.02.02.03h0l.02.01.18.11,8.58-5,1.81-1.03v-.05Zm-9.77,5.3,4.17-4.74.7-.54,4.41-.08-9.28,5.36Z" fill="#414042"/>
        <path id="Trazado_716870" data-name="Trazado 716870" d="M335.25,138.37l-4.7.09-.33-.65-.48.27-.33,1.02-4.72,5.36s-.06.11-.05.15.05.06.1.04l10.46-6.04a.5.5,0,0,0,.1-.14c0-.05-.01-.1-.05-.1Zm-10.08,5.81,4.41-5.02.8-.46,4.41-.08-9.62,5.55Z"/>
        <path id="Trazado_716871" data-name="Trazado 716871" d="M332.65,149.01v-1.8l1.5-9.12-1.82.04a6,6,0,0,1-2.54,5.1c-2.79,1.28-2.53-2.18-2.53-2.18l-1.82,2.06,1.5,7.39v1.8s-3.52,17.7-3.51,18.08a46.153,46.153,0,0,0,12.74-7.35L332.66,149Z" fill="#ff8400"/>
        <path id="Trazado_716872" data-name="Trazado 716872" d="M326.93,150.51a48.431,48.431,0,0,0,5.72-3.3C330.97,149.17,326.93,150.51,326.93,150.51Z" fill="#ba6000"/>
        <path id="Trazado_716873" data-name="Trazado 716873" d="M326.93,152.31a48.431,48.431,0,0,0,5.72-3.3C330.97,150.97,326.93,152.31,326.93,152.31Z" fill="#ba6000"/>
      </g>
      <g id="Grupo_1008292" data-name="Grupo 1008292">
        <path id="Trazado_716874" data-name="Trazado 716874" d="M338.58,140.58l.21-.19-.2-.11h0s-.02-.02-.03-.02l-4.7.09-.13-.53-.2-.12-.48.27-.33,1.02L328,146.36s-.06.11-.05.15c0,.02,0,.03.01.04h0l.01.01.19.11,8.59-5.01,1.81-1.03v-.05Zm-9.77,5.3,4.17-4.74.69-.53,4.41-.08-9.28,5.36Z" fill="#414042"/>
        <path id="Trazado_716875" data-name="Trazado 716875" d="M338.76,140.38l-4.7.09-.33-.65-.48.28-.33,1.03-4.71,5.36a.372.372,0,0,0-.05.16c0,.04.05.06.09.03l10.46-6.04a.416.416,0,0,0,.1-.15c0-.06-.02-.1-.05-.1Zm-10.08,5.81,4.41-5.02.8-.45,4.41-.08-9.61,5.55Z"/>
        <path id="Trazado_716876" data-name="Trazado 716876" d="M336.16,151.01v-1.8l1.5-9.12-1.82.04a6.01,6.01,0,0,1-2.54,5.11c-2.8,1.27-2.53-2.18-2.53-2.18l-1.82,2.06,1.5,7.39v1.81s-3.52,17.7-3.51,18.08a46.012,46.012,0,0,0,12.74-7.36l-3.51-14.03Z" fill="#e31b25"/>
        <path id="Trazado_716877" data-name="Trazado 716877" d="M330.45,152.51a47.878,47.878,0,0,0,5.71-3.3C334.48,151.17,330.45,152.51,330.45,152.51Z" fill="#9c251f"/>
        <path id="Trazado_716878" data-name="Trazado 716878" d="M330.45,154.32a48.832,48.832,0,0,0,5.71-3.31C334.48,152.97,330.45,154.32,330.45,154.32Z" fill="#9c251f"/>
      </g>
      <g id="Grupo_1008293" data-name="Grupo 1008293">
        <path id="Trazado_716879" data-name="Trazado 716879" d="M341.92,142.49l.21-.19-.2-.11h0s-.02-.02-.03-.02l-4.7.08-.13-.54-.21-.12-.47.28-.32,1.02-4.72,5.36s-.06.11-.05.15c0,.02.01.02.02.03h0a.031.031,0,0,0,.01.02l.19.1,8.59-5,1.81-1.03v-.05Zm-9.77,5.3,4.17-4.74.69-.54,4.41-.08-9.28,5.35Z" fill="#414042"/>
        <path id="Trazado_716880" data-name="Trazado 716880" d="M342.09,142.29l-4.7.09-.33-.65-.48.28-.33,1.02-4.71,5.36a.372.372,0,0,0-.05.16c0,.04.04.06.09.03l10.47-6.04a.5.5,0,0,0,.1-.14c0-.05-.01-.1-.05-.1Zm-10.08,5.81,4.41-5.01.8-.46,4.4-.08Z"/>
        <path id="Trazado_716881" data-name="Trazado 716881" d="M339.5,152.93v-1.8l1.49-9.12-1.82.04a6.019,6.019,0,0,1-2.54,5.11c-2.8,1.27-2.54-2.17-2.54-2.17l-1.82,2.06,1.5,7.39v1.8s-3.52,17.7-3.51,18.08A46.153,46.153,0,0,0,343,166.97l-3.51-14.03Z" fill="#1d374e"/>
        <path id="Trazado_716882" data-name="Trazado 716882" d="M333.77,154.43a48.431,48.431,0,0,0,5.72-3.3C337.81,153.09,333.77,154.43,333.77,154.43Z" fill="#0f2034"/>
        <path id="Trazado_716883" data-name="Trazado 716883" d="M333.77,156.23a48.431,48.431,0,0,0,5.72-3.3C337.81,154.89,333.77,156.23,333.77,156.23Z" fill="#0f2034"/>
      </g>
      <g id="Grupo_1008294" data-name="Grupo 1008294">
        <path id="Trazado_716884" data-name="Trazado 716884" d="M345.27,144.44l.2-.19-.2-.11h0a.07.07,0,0,0-.04-.02l-4.7.08-.13-.53-.2-.12-.48.27-.33,1.02-4.71,5.36a.372.372,0,0,0-.05.16c0,.01,0,.02.02.03h.02l.18.11,8.58-5.01,1.82-1.03v-.05Zm-9.77,5.3,4.16-4.74.69-.53,4.41-.08-9.27,5.36Z" fill="#414042"/>
        <path id="Trazado_716885" data-name="Trazado 716885" d="M345.45,144.24l-4.7.09-.33-.65-.48.27-.32,1.03-4.72,5.36a.372.372,0,0,0-.05.16.054.054,0,0,0,.09.03l10.47-6.05a.477.477,0,0,0,.09-.14c0-.05-.01-.09-.05-.09Zm-10.08,5.81,4.41-5.01.8-.46,4.41-.08Z"/>
        <path id="Trazado_716886" data-name="Trazado 716886" d="M342.85,154.87v-1.8l1.5-9.11-1.82.04a6.019,6.019,0,0,1-2.54,5.11c-2.8,1.27-2.53-2.18-2.53-2.18l-1.82,2.06,1.5,7.39v1.81s-3.52,17.69-3.51,18.09a46.012,46.012,0,0,0,12.74-7.36l-3.51-14.03Z" fill="#ff8400"/>
        <path id="Trazado_716887" data-name="Trazado 716887" d="M337.13,156.37a48.431,48.431,0,0,0,5.72-3.3C341.17,155.03,337.13,156.37,337.13,156.37Z" fill="#ba6000"/>
        <path id="Trazado_716888" data-name="Trazado 716888" d="M337.13,158.18a47.723,47.723,0,0,0,5.72-3.31C341.17,156.83,337.13,158.18,337.13,158.18Z" fill="#ba6000"/>
      </g>
      <g id="Grupo_1008295" data-name="Grupo 1008295">
        <path id="Trazado_716889" data-name="Trazado 716889" d="M348.78,146.45l.21-.19-.2-.11h0a.1.1,0,0,0-.03-.01l-4.7.08-.12-.54-.2-.12-.48.28-.33,1.02-4.71,5.36s-.07.11-.05.16c0,.01.01.02.02.03h0l.01.01.19.11,8.58-5.01,1.81-1.03v-.05Zm-9.77,5.3,4.17-4.74.7-.54,4.41-.08-9.28,5.36Z" fill="#414042"/>
        <path id="Trazado_716890" data-name="Trazado 716890" d="M348.96,146.25l-4.7.09-.33-.66-.47.28-.33,1.02-4.72,5.36a.372.372,0,0,0-.05.16c0,.05.05.06.09.03l10.47-6.04a.5.5,0,0,0,.1-.14c0-.06-.01-.1-.05-.1Zm-10.08,5.81,4.41-5.01.8-.46,4.41-.08Z"/>
        <path id="Trazado_716891" data-name="Trazado 716891" d="M346.36,156.88v-1.8l1.49-9.11-1.82.04a6.019,6.019,0,0,1-2.54,5.11c-2.79,1.27-2.53-2.18-2.53-2.18L339.14,151l1.5,7.39v1.8s-3.52,17.7-3.51,18.08a46.213,46.213,0,0,0,12.74-7.36l-3.51-14.03Z" fill="#24d2c1"/>
        <path id="Trazado_716892" data-name="Trazado 716892" d="M340.64,158.38a50.168,50.168,0,0,0,5.72-3.3C344.68,157.04,340.64,158.38,340.64,158.38Z" fill="#0a8074"/>
        <path id="Trazado_716893" data-name="Trazado 716893" d="M340.64,160.19a50.168,50.168,0,0,0,5.72-3.3C344.68,158.85,340.64,160.19,340.64,160.19Z" fill="#0a8074"/>
      </g>
      <g id="Grupo_1008296" data-name="Grupo 1008296">
        <path id="Trazado_716894" data-name="Trazado 716894" d="M347.09,146.44a1.292,1.292,0,0,1-1.15,0,.416.416,0,0,1-.24-.31v43.05h0a.4.4,0,0,0,.24.33,1.292,1.292,0,0,0,1.15,0,.4.4,0,0,0,.24-.35V146.12a.4.4,0,0,1-.24.33Z" fill="#a7a9ac"/>
        <path id="Trazado_716895" data-name="Trazado 716895" d="M345.93,145.77a1.2,1.2,0,0,1,.57-.13h.22a1.346,1.346,0,0,1,.37.13c.32.18.32.48,0,.67a1.292,1.292,0,0,1-1.15,0,.347.347,0,0,1,0-.66Z" fill="#d1d3d4"/>
      </g>
      <g id="Grupo_1008297" data-name="Grupo 1008297">
        <path id="Trazado_716896" data-name="Trazado 716896" d="M350.07,148.63a1.267,1.267,0,0,1,.58-1,.378.378,0,0,1,.39-.04L310.7,124.28h0a.414.414,0,0,0-.41.04,1.267,1.267,0,0,0-.58,1,.393.393,0,0,0,.18.38l40.09,23.16.24.14a.4.4,0,0,1-.16-.37Z" fill="#a7a9ac"/>
        <path id="Trazado_716897" data-name="Trazado 716897" d="M351.22,147.96a1.166,1.166,0,0,1-.17.57l-.12.18a1.157,1.157,0,0,1-.29.26c-.32.18-.58.03-.58-.34a1.267,1.267,0,0,1,.58-1c.32-.18.58-.03.58.33Z" fill="#d1d3d4"/>
      </g>
      <g id="Grupo_1008298" data-name="Grupo 1008298">
        <path id="Trazado_716898" data-name="Trazado 716898" d="M316.72,127.18v-.07l-.2-.11a.707.707,0,0,0-.56.1,1.7,1.7,0,0,0-.65.65,1.977,1.977,0,0,0-.28,1.02c0,.66.45.7.76.62v.48l.13.07.24-.61-.4-.24c-.2.02-.48-.01-.48-.47a1.5,1.5,0,0,1,.2-.77,1.432,1.432,0,0,1,.49-.48s.25-.16.43-.07a.474.474,0,0,1,.2.37l.25.15a.748.748,0,0,0-.12-.65Z" fill="#bcbec0"/>
        <path id="Trazado_716899" data-name="Trazado 716899" d="M316.16,129.79l-.24.14v-.48c-.31.08-.76.04-.76-.61a1.969,1.969,0,0,1,.27-1.02,1.911,1.911,0,0,1,.65-.64s.34-.23.6-.1c.19.1.29.42.29.83l-.26-.15c-.03-.2-.09-.33-.2-.38a.51.51,0,0,0-.43.07,1.189,1.189,0,0,0-.49.47,1.523,1.523,0,0,0-.2.77c0,.46.29.49.48.47l.28.16v.47Z" fill="#808285"/>
      </g>
      <g id="Grupo_1008299" data-name="Grupo 1008299">
        <path id="Trazado_716900" data-name="Trazado 716900" d="M320.73,129.5v-.07l-.2-.11a.694.694,0,0,0-.56.1,1.685,1.685,0,0,0-.65.65,1.951,1.951,0,0,0-.28,1.02c0,.65.45.69.76.61v.48l.13.07.24-.61-.41-.23c-.19.02-.48-.01-.48-.47a1.405,1.405,0,0,1,.2-.77,1.554,1.554,0,0,1,.49-.48.536.536,0,0,1,.44-.07.474.474,0,0,1,.2.37l.26.15a.771.771,0,0,0-.12-.66Z" fill="#bcbec0"/>
        <path id="Trazado_716901" data-name="Trazado 716901" d="M320.16,132.11l-.24.14v-.48c-.31.08-.76.04-.76-.62a1.886,1.886,0,0,1,.28-1.02,1.632,1.632,0,0,1,.65-.64.708.708,0,0,1,.6-.09c.2.09.29.42.29.83l-.25-.15a.478.478,0,0,0-.2-.38c-.18-.09-.43.07-.44.07a1.327,1.327,0,0,0-.49.48,1.5,1.5,0,0,0-.2.77c0,.46.29.5.48.47l.28.16v.47Z" fill="#808285"/>
      </g>
      <g id="Grupo_1008300" data-name="Grupo 1008300">
        <path id="Trazado_716902" data-name="Trazado 716902" d="M324.28,131.55v-.08l-.2-.11a.694.694,0,0,0-.56.1,1.685,1.685,0,0,0-.65.65,1.951,1.951,0,0,0-.28,1.02c0,.66.45.7.76.61v.48l.12.07.24-.61-.41-.23c-.19.03-.48,0-.48-.47a1.405,1.405,0,0,1,.2-.77,1.452,1.452,0,0,1,.49-.48s.25-.16.43-.07c.11.05.17.18.2.37l.26.15a.748.748,0,0,0-.12-.65Z" fill="#bcbec0"/>
        <path id="Trazado_716903" data-name="Trazado 716903" d="M323.72,134.17l-.24.14v-.48c-.31.08-.76.04-.76-.62a1.91,1.91,0,0,1,.28-1.02,1.8,1.8,0,0,1,.65-.64.688.688,0,0,1,.6-.1c.19.1.29.42.29.83l-.25-.15a.468.468,0,0,0-.2-.38.51.51,0,0,0-.43.07,1.346,1.346,0,0,0-.49.48,1.5,1.5,0,0,0-.2.77c0,.46.29.5.49.47l.28.16v.47Z" fill="#808285"/>
      </g>
      <g id="Grupo_1008301" data-name="Grupo 1008301">
        <path id="Trazado_716904" data-name="Trazado 716904" d="M327.3,133.31v-.08l-.2-.11a.707.707,0,0,0-.56.1,1.685,1.685,0,0,0-.65.65,1.886,1.886,0,0,0-.28,1.02c0,.65.45.7.76.62v.48l.13.07.24-.61-.4-.24c-.2.03-.48-.01-.48-.47a1.405,1.405,0,0,1,.2-.77,1.346,1.346,0,0,1,.49-.48s.25-.16.43-.07a.474.474,0,0,1,.2.37l.26.15a.807.807,0,0,0-.12-.66Z" fill="#bcbec0"/>
        <path id="Trazado_716905" data-name="Trazado 716905" d="M326.74,135.92l-.24.14v-.48c-.31.08-.76.04-.76-.61a1.886,1.886,0,0,1,.28-1.02,1.632,1.632,0,0,1,.65-.64.688.688,0,0,1,.6-.1c.19.1.29.42.29.83l-.25-.15a.5.5,0,0,0-.2-.38c-.18-.09-.43.07-.43.07a1.346,1.346,0,0,0-.49.48,1.5,1.5,0,0,0-.2.77c0,.46.29.49.48.46l.28.17v.47Z" fill="#808285"/>
      </g>
      <g id="Grupo_1008302" data-name="Grupo 1008302">
        <path id="Trazado_716906" data-name="Trazado 716906" d="M330.66,135.25v-.08l-.2-.11a.738.738,0,0,0-.56.1,1.885,1.885,0,0,0-.65.65,1.977,1.977,0,0,0-.28,1.02c0,.65.45.7.76.62v.48l.13.07.25-.61-.41-.23c-.19.03-.48-.01-.48-.47a1.5,1.5,0,0,1,.2-.77,1.346,1.346,0,0,1,.49-.48s.25-.17.43-.07c.11.05.17.18.2.37l.26.15a.846.846,0,0,0-.12-.66Z" fill="#bcbec0"/>
        <path id="Trazado_716907" data-name="Trazado 716907" d="M330.09,137.87l-.25.14v-.48c-.31.08-.76.04-.76-.61a1.91,1.91,0,0,1,.28-1.02,1.8,1.8,0,0,1,.65-.64s.34-.22.59-.09c.2.09.29.42.29.83l-.25-.15a.478.478,0,0,0-.2-.38c-.18-.09-.43.07-.43.07a1.173,1.173,0,0,0-.49.48,1.491,1.491,0,0,0-.19.77c0,.46.29.5.48.47l.28.16v.47Z" fill="#808285"/>
      </g>
      <g id="Grupo_1008303" data-name="Grupo 1008303">
        <path id="Trazado_716908" data-name="Trazado 716908" d="M334.17,137.26v-.08l-.2-.11a.721.721,0,0,0-.56.1,1.632,1.632,0,0,0-.65.64,1.977,1.977,0,0,0-.28,1.02c0,.65.45.7.76.61v.49l.13.07.24-.61-.41-.24c-.19.03-.48,0-.48-.47a1.5,1.5,0,0,1,.2-.77,1.274,1.274,0,0,1,.49-.47s.25-.16.43-.07a.478.478,0,0,1,.2.38l.25.15a.748.748,0,0,0-.12-.65Z" fill="#bcbec0"/>
        <path id="Trazado_716909" data-name="Trazado 716909" d="M333.6,139.88l-.24.14v-.48c-.31.08-.76.04-.76-.61a1.862,1.862,0,0,1,.28-1.02,1.7,1.7,0,0,1,.65-.64s.34-.22.59-.1c.2.1.3.41.3.83l-.26-.15a.453.453,0,0,0-.2-.38c-.18-.09-.43.07-.43.07a1.254,1.254,0,0,0-.49.48,1.5,1.5,0,0,0-.2.77c0,.46.29.49.48.47l.28.16v.47Z" fill="#808285"/>
      </g>
      <g id="Grupo_1008304" data-name="Grupo 1008304">
        <path id="Trazado_716910" data-name="Trazado 716910" d="M337.49,139.17v-.08l-.2-.11a.77.77,0,0,0-.57.11,1.8,1.8,0,0,0-.65.64,2,2,0,0,0-.28,1.02c0,.66.45.7.76.62v.48l.12.07.24-.61-.4-.23c-.2.02-.49-.01-.48-.47a1.371,1.371,0,0,1,.2-.76,1.432,1.432,0,0,1,.49-.48.536.536,0,0,1,.44-.07.5.5,0,0,1,.2.38l.26.15a.746.746,0,0,0-.13-.65Z" fill="#bcbec0"/>
        <path id="Trazado_716911" data-name="Trazado 716911" d="M336.93,141.79l-.24.14v-.48c-.31.08-.76.04-.76-.62a1.91,1.91,0,0,1,.28-1.02,1.632,1.632,0,0,1,.65-.64s.34-.23.6-.09c.19.09.29.42.29.83l-.25-.15c-.03-.2-.09-.33-.2-.38-.19-.09-.43.07-.44.07a1.673,1.673,0,0,0-.49.48,1.491,1.491,0,0,0-.19.77c0,.45.29.5.48.47l.28.16v.47Z" fill="#808285"/>
      </g>
      <g id="Grupo_1008305" data-name="Grupo 1008305">
        <path id="Trazado_716912" data-name="Trazado 716912" d="M340.85,141.12v-.07l-.2-.11a.7.7,0,0,0-.56.11,1.7,1.7,0,0,0-.65.64,1.977,1.977,0,0,0-.28,1.02c0,.66.45.7.76.62v.48l.13.07.24-.6-.41-.24c-.19.03-.48-.01-.48-.47a1.5,1.5,0,0,1,.2-.77,1.452,1.452,0,0,1,.49-.48s.25-.16.43-.07a.478.478,0,0,1,.2.38l.25.15a.771.771,0,0,0-.12-.66Z" fill="#bcbec0"/>
        <path id="Trazado_716913" data-name="Trazado 716913" d="M340.29,143.74l-.24.13v-.48c-.31.08-.76.04-.76-.62a2,2,0,0,1,.28-1.02,1.722,1.722,0,0,1,.65-.64.673.673,0,0,1,.59-.1c.2.1.29.42.29.83l-.26-.15c-.03-.2-.09-.33-.2-.38a.51.51,0,0,0-.43.07,1.372,1.372,0,0,0-.49.47,1.523,1.523,0,0,0-.2.77c0,.46.29.5.49.47l.28.16v.47Z" fill="#808285"/>
      </g>
      <g id="Grupo_1008306" data-name="Grupo 1008306">
        <path id="Trazado_716914" data-name="Trazado 716914" d="M344.36,143.13v-.08l-.2-.11a.79.79,0,0,0-.56.1,1.8,1.8,0,0,0-.65.65,1.944,1.944,0,0,0-.27,1.02c0,.66.45.7.76.62v.48l.13.07.24-.61-.4-.23c-.2.03-.49-.01-.48-.47a1.405,1.405,0,0,1,.2-.77,1.274,1.274,0,0,1,.49-.47.536.536,0,0,1,.44-.07.474.474,0,0,1,.2.37l.26.15a.807.807,0,0,0-.12-.66Z" fill="#bcbec0"/>
        <path id="Trazado_716915" data-name="Trazado 716915" d="M343.8,145.74l-.24.14v-.48c-.31.08-.76.04-.76-.61a1.886,1.886,0,0,1,.28-1.02,1.632,1.632,0,0,1,.65-.64s.34-.23.59-.1c.2.1.29.42.29.83l-.26-.15a.5.5,0,0,0-.2-.38c-.18-.09-.43.07-.44.07a1.346,1.346,0,0,0-.49.48,1.5,1.5,0,0,0-.2.77c0,.46.29.5.48.47l.28.16v.47Z" fill="#808285"/>
      </g>
    </g>
  </g>
</svg>
