<svg id="Grupo_1023357" data-name="Grupo 1023357" xmlns="http://www.w3.org/2000/svg" width="450.175" height="329.148" viewBox="0 0 450.175 329.148">
  <g id="Grupo_1010761" data-name="Grupo 1010761" transform="translate(0 60.578)">
    <g id="Grupo_1010758" data-name="Grupo 1010758" transform="translate(0 6.442)">
      <g id="Grupo_1008361" data-name="Grupo 1008361" transform="translate(0 0)">
        <path id="Trazado_717140" data-name="Trazado 717140" d="M482.4,318.532l-266.158,153.7L32.23,365.974,298.388,212.3Z" transform="translate(-32.23 -210.107)" opacity="0.3"/>
        <path id="Trazado_717141" data-name="Trazado 717141" d="M482.4,317.822,216.247,471.5,32.23,365.263l266.158-153.7Z" transform="translate(-32.23 -211.56)" fill="#2a4e68"/>
        <g id="Grupo_1008358" data-name="Grupo 1008358" transform="translate(53.131 91.355)">
          <g id="Grupo_1008356" data-name="Grupo 1008356" transform="translate(10.786 22.463)">
            <path id="Trazado_717142" data-name="Trazado 717142" d="M119.683,262.628,75.738,287.994l-5.808-3.349,43.945-25.365,5.778,3.349ZM75.738,286.957l42.108-24.328-3.971-2.311-42.137,24.3,3.971,2.311Z" transform="translate(-22.133 -231.692)" fill="#fff"/>
            <path id="Trazado_717143" data-name="Trazado 717143" d="M84.935,267.933c-3.023,1.748-6.4,2.371-7.941,1.511-1.511-.889-.385-2.845,2.608-4.593,2.993-1.719,6.4-2.371,7.941-1.511,1.511.859.415,2.845-2.608,4.563Zm-4.415-2.548c-2.489,1.452-3.437,3.052-2.608,3.526s3.615-.059,6.134-1.511c2.489-1.452,3.437-3.052,2.578-3.526-.83-.474-3.615.059-6.1,1.511Z" transform="translate(-9.58 -224.462)" fill="#fff"/>
            <path id="Trazado_717144" data-name="Trazado 717144" d="M191.691,329.571c-26.788,15.468-45.96,24.18-52.627,23.884a3.485,3.485,0,0,1-2.1-.622l-.089-.059v-.089c-2.785-7.823-21.069-22.461-35.737-34.225-9.216-7.378-17.187-13.779-20.12-17.394-7.556-9.393-9.3-15.468-9.334-15.527l1.274-.119s1.748,6.045,9.245,15.35c2.845,3.556,10.816,9.9,20,17.276,14.7,11.794,33.01,26.432,35.885,34.433a2.03,2.03,0,0,0,1.067.237c4.8.208,20.861-5.926,51.649-23.676,30.758-17.78,41.337-27.054,41.011-29.81a.827.827,0,0,0-.415-.622c-13.868-1.689-39.233-12.238-59.65-20.713-12.742-5.3-23.765-9.9-29.9-11.527a182.231,182.231,0,0,0-26.58-5.334l.207-.741a180.643,180.643,0,0,1,26.906,5.393c6.252,1.659,17.305,6.282,30.106,11.616,20.387,8.475,45.752,19.054,59.294,20.624h.148l.119.059a1.612,1.612,0,0,1,1.067,1.215c.474,3.852-14.609,14.935-41.4,30.4Z" transform="translate(-18.697 -229.709)" fill="#fff"/>
            <path id="Trazado_717145" data-name="Trazado 717145" d="M146.046,277.854l-.948.5c-1.867-1.215-3.7-3.911-5.778-7.053-2.578-3.852-5.482-8.208-9.216-10.816a45.029,45.029,0,0,0-7.882-4.563c-2.134-1.007-4.771-2.282-9.512-4.978-10.194,4.089-25.395,12.357-27.825,13.72.533.652,1.9,2.489,1.808,3.941v.355H86.07a28.042,28.042,0,0,1-6.845-1.037c-2.341,1.422-16.683,10.164-23.765,16.061a98.575,98.575,0,0,1,8.653,5.482,45.927,45.927,0,0,0,7.912,4.563c4.5,2.134,12.06,3.823,18.728,5.3,5.423,1.215,10.134,2.252,12.209,3.349l-.859.563c-1.926-1.008-6.727-2.074-11.823-3.2-6.756-1.511-14.431-3.2-19.083-5.452a46.219,46.219,0,0,1-8.09-4.652c-1.808-1.245-4.03-2.815-8.949-5.66l-.356-.207.3-.267c7.616-6.43,24.358-16.505,24.536-16.594l.326-.207.415.118a29.057,29.057,0,0,0,6.015,1.067,7.906,7.906,0,0,0-1.867-3.467l-.237-.237.356-.178c.178-.089,17.631-9.779,28.773-14.164l.444-.178.356.207c4.919,2.845,7.645,4.149,9.808,5.156a47.958,47.958,0,0,1,8.09,4.682c3.852,2.7,6.815,7.112,9.393,11.023,1.956,2.934,3.823,5.719,5.541,6.815Z" transform="translate(-53.8 -249.97)" fill="#fff"/>
          </g>
          <path id="Trazado_717146" data-name="Trazado 717146" d="M226.1,349.452a1.207,1.207,0,0,1-.474,0L57.435,252.346s-.119-.207,0-.267a.577.577,0,0,1,.444,0L226.1,349.185S226.221,349.363,226.1,349.452Z" transform="translate(-35.981 -223.453)" fill="#fff"/>
          <path id="Trazado_717147" data-name="Trazado 717147" d="M129.508,283.732l-40,23.113L70.48,279.405,96.231,264.53l33.277,19.2ZM89.741,306.164l38.878-22.432-32.359-18.7L71.25,279.465Z" transform="translate(-10.267 -198.923)" fill="#fff"/>
          <path id="Trazado_717148" data-name="Trazado 717148" d="M148.166,290.142,96.724,319.863,77.7,292.394l37.189-21.484,33.277,19.2Zm-51.234,29.04,50.316-29.04-32.388-18.7L78.411,292.483l18.491,26.7Z" transform="translate(3.908 -186.397)" fill="#fff"/>
          <path id="Trazado_717149" data-name="Trazado 717149" d="M164.389,296.522l-59.205,34.2L86.16,303.278l44.952-25.958Zm-59,33.544,58.079-33.544-32.359-18.668L86.9,303.367Z" transform="translate(20.516 -173.813)" fill="#fff"/>
          <path id="Trazado_717150" data-name="Trazado 717150" d="M181.049,245.014,79.528,303.627s-.326.089-.444,0q-.222-.133,0-.267L180.6,244.747a1.079,1.079,0,0,1,.445,0c.119.059.119.178,0,.267Z" transform="translate(6.406 -237.812)" fill="#fff"/>
          <path id="Trazado_717151" data-name="Trazado 717151" d="M113.773,362.252s-.326.089-.445,0-.119-.178,0-.267c55.857-32.24,55.857-84.719,0-116.959-.119-.089-.119-.207,0-.267a.577.577,0,0,1,.445,0c27.173,15.675,42.137,36.566,42.137,58.761s-14.964,43.056-42.137,58.761Z" transform="translate(73.681 -237.824)" fill="#fff"/>
          <path id="Trazado_717152" data-name="Trazado 717152" d="M161.755,323.271a1.235,1.235,0,0,1-.385.03c-.148-.059-.207-.178-.118-.267l35.47-35.855L84,262.051c-.148-.03-.237-.148-.178-.237a.444.444,0,0,1,.415-.118l113.4,25.276-35.855,36.241s0,.029-.059.029Z" transform="translate(15.891 -204.503)" fill="#fff"/>
          <path id="Trazado_717153" data-name="Trazado 717153" d="M122.153,310.459a.6.6,0,0,1-.356.03c-.178-.03-.207-.148-.148-.237l30.61-36.448-63.8-14.312c-.178-.03-.267-.148-.178-.237a.4.4,0,0,1,.415-.089l64.45,14.461-30.907,36.8s-.03,0-.059.059Z" transform="translate(24.616 -209.501)" fill="#fff"/>
          <path id="Trazado_717154" data-name="Trazado 717154" d="M91.849,301.587a1.025,1.025,0,0,1-.356.03c-.148-.059-.207-.148-.148-.237l31.647-38.107-27.2-6.4c-.178-.03-.237-.148-.178-.237a.4.4,0,0,1,.415-.089l27.854,6.549-.148.178-31.8,38.285-.059.059Z" transform="translate(30.651 -214.644)" fill="#fff"/>
          <path id="Trazado_717155" data-name="Trazado 717155" d="M95.021,273.761c-11.971,6.9-25.988,13.512-28.388,12.12s9.008-9.482,20.98-16.416c11.972-6.9,26.017-13.512,28.417-12.12s-9.008,9.482-20.98,16.416Zm-6.964-4.03c-14.283,8.238-22.521,14.964-20.98,15.883,1.541.889,13.216-3.852,27.5-12.12,14.283-8.238,22.55-14.964,21.009-15.883-1.541-.889-13.216,3.882-27.5,12.12Z" transform="translate(-18.451 -213.398)" fill="#fff"/>
          <path id="Trazado_717156" data-name="Trazado 717156" d="M96.221,274.443c-10.549,6.075-22.906,11.883-25.039,10.668-2.134-1.245,7.912-8.356,18.461-14.461,10.549-6.075,22.906-11.883,25.039-10.638s-7.912,8.356-18.461,14.46Zm-6.134-3.526c-12.534,7.23-19.794,13.157-18.461,13.927s11.557-3.408,24.121-10.638c12.534-7.26,19.794-13.157,18.461-13.927s-11.557,3.408-24.121,10.668Z" transform="translate(-9.457 -208.125)" fill="#fff"/>
          <path id="Trazado_717157" data-name="Trazado 717157" d="M94.08,273.218c-14.4,8.327-31.262,16.268-34.136,14.609-2.874-1.63,10.9-11.379,25.306-19.706,14.4-8.3,31.262-16.239,34.137-14.609,2.874,1.659-10.875,11.408-25.276,19.705Zm-8.386-4.83c-17.216,9.956-27.173,18.105-25.276,19.172,1.867,1.067,15.972-4.652,33.218-14.609s27.173-18.105,25.306-19.172-16,4.652-33.218,14.609Z" transform="translate(-31.704 -220.975)" fill="#fff"/>
          <path id="Trazado_717158" data-name="Trazado 717158" d="M81.56,254.676a1.077,1.077,0,0,1-.444,0l-11.26-6.49s-.119-.178,0-.267a.578.578,0,0,1,.444,0l11.26,6.49S81.678,254.616,81.56,254.676Z" transform="translate(-11.598 -231.62)" fill="#fff"/>
          <path id="Trazado_717159" data-name="Trazado 717159" d="M89.96,268.992a1.08,1.08,0,0,1-.445,0l-9.6-5.541s-.119-.178,0-.267a.4.4,0,0,1,.444,0l9.6,5.541S90.079,268.9,89.96,268.992Z" transform="translate(8.152 -201.696)" fill="#fff"/>
          <path id="Trazado_717160" data-name="Trazado 717160" d="M86.71,270.857a1.081,1.081,0,0,1-.445,0l-9.6-5.541s-.119-.178,0-.267a.579.579,0,0,1,.444,0l9.6,5.541S86.829,270.768,86.71,270.857Z" transform="translate(1.772 -197.99)" fill="#fff"/>
          <path id="Trazado_717161" data-name="Trazado 717161" d="M61.94,266.02a1.079,1.079,0,0,1-.444,0l-11.26-6.49s-.119-.178,0-.267a.4.4,0,0,1,.445,0l11.26,6.49S62.058,265.961,61.94,266.02Z" transform="translate(-50.116 -209.392)" fill="#fff"/>
          <path id="Trazado_717162" data-name="Trazado 717162" d="M108.862,248.164,50.693,281.738a1.08,1.08,0,0,1-.444,0c-.119-.059-.119-.178,0-.267L108.388,247.9a1.079,1.079,0,0,1,.445,0c.118.059.118.178,0,.267Z" transform="translate(-50.16 -231.628)" fill="#fff"/>
          <path id="Trazado_717163" data-name="Trazado 717163" d="M79.044,251.116l-12.949,7.5-2.045-1.185L77,249.96Z" transform="translate(-22.891 -227.527)" fill="#fff"/>
          <path id="Trazado_717164" data-name="Trazado 717164" d="M68.784,257.065l-12.949,7.467-2.045-1.156,12.949-7.5Z" transform="translate(-43.033 -215.905)" fill="#fff"/>
          <path id="Trazado_717165" data-name="Trazado 717165" d="M99.036,253.829c-6.993,4.03-15.083,5.689-18.431,3.763s-.474-6.608,6.489-10.638c6.993-4.03,15.083-5.689,18.431-3.763S106,249.8,99.036,253.829Zm-11.023-6.371c-6.252,3.615-9.245,8-6.489,9.6,2.726,1.571,10.342-.148,16.624-3.763,6.252-3.615,9.216-8,6.49-9.6s-10.342.148-16.594,3.763Z" transform="translate(6.87 -242.39)" fill="#fff"/>
          <path id="Trazado_717166" data-name="Trazado 717166" d="M90,265.3l-9.631,5.571a1.081,1.081,0,0,1-.445,0q-.178-.133,0-.267l9.631-5.571s.326-.089.445,0S90.122,265.214,90,265.3Z" transform="translate(8.109 -198.006)" fill="#fff"/>
          <g id="Grupo_1008357" data-name="Grupo 1008357" transform="translate(102.446 0.357)">
            <path id="Trazado_717167" data-name="Trazado 717167" d="M132.433,250.689,95.808,271.846a.945.945,0,0,1-.889,0c-.237-.148-.237-.355,0-.5l36.389-21.009,2.341-6.845-11.438,1.571L85.821,266.068a.944.944,0,0,1-.889,0c-.267-.148-.267-.385,0-.533l36.655-21.158,13.749-1.867-2.815,8.179Z" transform="translate(-84.733 -242.51)" fill="#fff"/>
            <path id="Trazado_717168" data-name="Trazado 717168" d="M93.206,250.864a3.264,3.264,0,0,1-2.963,0,.9.9,0,0,1,0-1.719,3.264,3.264,0,0,1,2.963,0A.915.915,0,0,1,93.206,250.864Zm-2.045-1.185c-.326.178-.326.474,0,.652a1.255,1.255,0,0,0,1.126,0,.35.35,0,0,0,0-.652A1.255,1.255,0,0,0,91.161,249.679Z" transform="translate(-75.137 -230.181)" fill="#fff"/>
            <path id="Trazado_717169" data-name="Trazado 717169" d="M90.131,252.615a3.264,3.264,0,0,1-2.963,0c-.8-.474-.8-1.245,0-1.689a3.265,3.265,0,0,1,2.963,0C90.96,251.4,90.96,252.17,90.131,252.615Zm-2.045-1.185a.35.35,0,0,0,0,.652,1.255,1.255,0,0,0,1.126,0c.326-.178.326-.474,0-.652A1.255,1.255,0,0,0,88.086,251.429Z" transform="translate(-81.13 -226.686)" fill="#fff"/>
          </g>
        </g>
        <g id="Grupo_1008359" data-name="Grupo 1008359" transform="translate(189.173 10.757)">
          <path id="Trazado_717170" data-name="Trazado 717170" d="M179.13,217.2l-79.563,45.93-3.5-2.015,79.563-45.93Z" transform="translate(-96.07 -215.19)" fill="#bcbec0"/>
          <path id="Trazado_717171" data-name="Trazado 717171" d="M182.17,218.975l-79.563,45.93L99.14,262.89,178.7,216.96Z" transform="translate(-90.043 -211.715)" fill="#bcbec0"/>
          <path id="Trazado_717172" data-name="Trazado 717172" d="M165.11,224.665l-59.443,34.314-3.467-2.015,59.443-34.314Z" transform="translate(-84.035 -200.544)" fill="#bcbec0"/>
          <path id="Trazado_717173" data-name="Trazado 717173" d="M152.316,229.525l-43.589,25.128-3.467-1.985,43.56-25.158Z" transform="translate(-78.028 -191.003)" fill="#bcbec0"/>
          <path id="Trazado_717174" data-name="Trazado 717174" d="M191.36,224.275,111.8,270.205l-3.467-1.985,79.533-45.96Z" transform="translate(-72.001 -201.31)" fill="#bcbec0"/>
          <path id="Trazado_717175" data-name="Trazado 717175" d="M138.474,236.925l-23.617,13.631-3.467-1.985,23.587-13.631Z" transform="translate(-65.993 -176.416)" fill="#bcbec0"/>
          <path id="Trazado_717176" data-name="Trazado 717176" d="M197.48,227.815l-79.563,45.93-3.467-2.015,79.563-45.93Z" transform="translate(-59.986 -194.36)" fill="#bcbec0"/>
          <path id="Trazado_717177" data-name="Trazado 717177" d="M179.71,233.081,120.268,267.4l-2.608-1.482L177.1,231.57Z" transform="translate(-53.684 -183.032)" fill="#bcbec0"/>
          <path id="Trazado_717178" data-name="Trazado 717178" d="M203.63,231.325l-79.563,45.96-3.5-2.015,79.563-45.93Z" transform="translate(-47.971 -187.41)" fill="#bcbec0"/>
        </g>
        <g id="Grupo_1008360" data-name="Grupo 1008360" transform="translate(269.684 57.25)">
          <path id="Trazado_717179" data-name="Trazado 717179" d="M172.607,240.075l-43.56,25.158-3.467-2.015,43.56-25.158Z" transform="translate(-118.646 -216.784)" fill="#bcbec0"/>
          <path id="Trazado_717180" data-name="Trazado 717180" d="M184.049,240.595l-51.442,29.692-3.467-2.015,51.412-29.692Z" transform="translate(-111.657 -215.763)" fill="#bcbec0"/>
          <path id="Trazado_717181" data-name="Trazado 717181" d="M200.4,239.305,135.057,277l-3.467-1.985,65.339-37.722Z" transform="translate(-106.847 -218.296)" fill="#bcbec0"/>
          <path id="Trazado_717182" data-name="Trazado 717182" d="M210.229,240.155,138.7,281.493l-3.5-2.015,71.562-41.308Z" transform="translate(-99.76 -216.568)" fill="#bcbec0"/>
          <path id="Trazado_717183" data-name="Trazado 717183" d="M206.466,242.805l-65.339,37.722-3.467-2.015L203,240.79Z" transform="translate(-94.93 -211.424)" fill="#bcbec0"/>
          <path id="Trazado_717184" data-name="Trazado 717184" d="M216.259,243.635,144.7,284.943l-3.467-2.015,71.562-41.278Z" transform="translate(-87.921 -209.736)" fill="#bcbec0"/>
          <path id="Trazado_717185" data-name="Trazado 717185" d="M189.373,250.8l-42.226,24.358-3.467-2.015,42.2-24.358Z" transform="translate(-83.111 -195.738)" fill="#bcbec0"/>
          <path id="Trazado_717186" data-name="Trazado 717186" d="M197.641,252.3l-46.434,26.788-3.5-1.985,46.434-26.817Z" transform="translate(-75.2 -192.793)" fill="#bcbec0"/>
          <path id="Trazado_717187" data-name="Trazado 717187" d="M177.244,258.155l-23.587,13.631-3.5-2.015,23.617-13.631Z" transform="translate(-70.39 -181.289)" fill="#bcbec0"/>
          <path id="Trazado_717188" data-name="Trazado 717188" d="M289.152,280.188,208.67,326.652l-85.43-49.308,80.481-46.464ZM208.67,325.615l78.644-45.427-83.593-48.271-78.674,45.4,83.622,48.271Z" transform="translate(-123.24 -230.88)" fill="#fff"/>
          <path id="Trazado_717189" data-name="Trazado 717189" d="M213.182,236.883l-79.563,45.93-.889-.5,79.533-45.96Z" transform="translate(-104.609 -220.141)" fill="#f6f6f6"/>
          <path id="Trazado_717190" data-name="Trazado 717190" d="M207.082,233.343l-79.563,45.93-.919-.5,79.563-45.96Z" transform="translate(-116.644 -227.091)" fill="#f6f6f6"/>
          <path id="Trazado_717191" data-name="Trazado 717191" d="M219.331,240.423l-79.563,45.93-.919-.533,79.563-45.93Z" transform="translate(-92.594 -213.191)" fill="#fff"/>
          <path id="Trazado_717192" data-name="Trazado 717192" d="M225.452,243.953l-79.563,45.93-.919-.5,79.563-45.96Z" transform="translate(-80.579 -206.261)" fill="#fff"/>
        </g>
      </g>
    </g>
    <g id="Grupo_1010759" data-name="Grupo 1010759" transform="translate(276.394 0)">
      <path id="Trazado_720430" data-name="Trazado 720430" d="M164.391,298.593a26.54,26.54,0,0,0-7.457-6.224c-14.627-8.432-38.29-8.432-52.917,0a25.746,25.746,0,0,0-7.457,6.224h-3.5v9.58h.029c.229,5.363,3.843,10.669,10.928,14.771,14.628,8.432,38.29,8.432,52.917,0,7.084-4.1,10.7-9.408,10.928-14.771h.029v-9.58Z" transform="translate(-93.017 -276.982)" fill="#121214"/>
      <path id="Trazado_720431" data-name="Trazado 720431" d="M156.933,319.755c-14.628,8.432-38.29,8.432-52.917,0s-14.628-22.114,0-30.546,38.29-8.432,52.917,0,14.628,22.113,0,30.546Z" transform="translate(-93.045 -282.885)" fill="#535359"/>
      <path id="Trazado_720432" data-name="Trazado 720432" d="M104.213,316.777c-13.107-7.572-13.107-19.876,0-27.448s34.446-7.572,47.525,0c13.107,7.572,13.107,19.876,0,27.448S117.32,324.349,104.213,316.777Zm45.747-26.416c-12.1-7-31.836-7-43.94,0s-12.1,18.385,0,25.354c12.132,7,31.836,7,43.94,0C162.063,308.746,162.063,297.36,149.96,290.362Z" transform="translate(-90.546 -281.456)" fill="#303033"/>
      <path id="Trazado_720433" data-name="Trazado 720433" d="M123.668,297.041a12.455,12.455,0,0,1-11.214,0c-3.1-1.778-3.1-4.675,0-6.482a12.454,12.454,0,0,1,11.214,0C126.765,292.337,126.765,295.234,123.668,297.041Z" transform="translate(-61.128 -271.041)" fill="#121214"/>
      <path id="Trazado_720434" data-name="Trazado 720434" d="M110.068,296.231a12.454,12.454,0,0,1-11.214,0c-3.1-1.778-3.1-4.675,0-6.482a12.454,12.454,0,0,1,11.214,0C113.165,291.527,113.165,294.424,110.068,296.231Z" transform="translate(-86.535 -272.554)" fill="#121214"/>
    </g>
    <g id="Grupo_1010760" data-name="Grupo 1010760" transform="translate(343.141 69.892)">
      <path id="Trazado_717201" data-name="Trazado 717201" d="M191.778,323.13h0l-5.244-3.022a1.459,1.459,0,0,0-.622-.978l-4.651-2.7-.178-.089h0l-.889-.533h0l-.118-.059-1.363-.8a1.4,1.4,0,0,0-1.155-.059l-64.291-37.182-.178-.089h0l-9.125-2.844-2.874-.889,2.222,2.074,7.022,6.488h0s.119.089.148.119l64.32,37.182a1.46,1.46,0,0,0,.622.978l.741.415h0l.77.444h0l.918.533h0l.77.445h0l4.059,2.37h0a1.393,1.393,0,0,0,1.155.059l5.244,3.052h0a1.412,1.412,0,0,0,1.422-.148,4.357,4.357,0,0,0,1.985-3.437,1.366,1.366,0,0,0-.592-1.274Z" transform="translate(-101.001 -272.379)" opacity="0.3"/>
      <g id="Grupo_1008363" data-name="Grupo 1008363">
        <path id="Trazado_717202" data-name="Trazado 717202" d="M103.282,275.424l-2.222-2.044,2.9.889Z" transform="translate(-101.06 -273.38)" fill="#303033"/>
        <path id="Trazado_717203" data-name="Trazado 717203" d="M111.7,276.5l-2.785,4.829-7.022-6.488h0a.554.554,0,0,1-.119-.267,1.142,1.142,0,0,1,.474-.829.4.4,0,0,1,.3-.059h0l9.125,2.815Z" transform="translate(-99.666 -272.799)" fill="#d1c699"/>
      </g>
      <g id="Grupo_1008364" data-name="Grupo 1008364" transform="translate(8.799 3.631)">
        <path id="Trazado_717204" data-name="Trazado 717204" d="M172.854,312.571l-2.815,4.888-65.416-37.834a1.421,1.421,0,0,1-.593-1.3,4.357,4.357,0,0,1,1.985-3.437,1.359,1.359,0,0,1,1.392-.148l65.416,37.8Z" transform="translate(-104.03 -274.606)" fill="#ff8400"/>
        <path id="Trazado_717205" data-name="Trazado 717205" d="M107.06,278.378v-.918l44.885,25.983v.918Z" transform="translate(-98.083 -269.003)" fill="#535359"/>
        <path id="Trazado_717206" data-name="Trazado 717206" d="M122.54,287.358v-.948l5.362,3.141v.918Z" transform="translate(-67.7 -251.437)" fill="#535359"/>
        <path id="Trazado_717207" data-name="Trazado 717207" d="M128.105,287.646a4.356,4.356,0,0,0-1.985,3.437c0,1.274.889,1.778,1.985,1.156a4.357,4.357,0,0,0,1.985-3.437C130.09,287.528,129.2,287.024,128.105,287.646Z" transform="translate(-60.674 -249.533)" fill="#ff9d26"/>
        <path id="Trazado_717208" data-name="Trazado 717208" d="M127.2,288.058a1.355,1.355,0,0,0-.622,1.066c0,.385.267.533.622.356a1.389,1.389,0,0,0,.622-1.066C127.824,288.029,127.558,287.851,127.2,288.058Z" transform="translate(-59.771 -248.375)" fill="#303033"/>
      </g>
      <g id="Grupo_1008365" data-name="Grupo 1008365" transform="translate(73.653 40.853)">
        <path id="Trazado_717209" data-name="Trazado 717209" d="M137.149,291.527,133.83,297.3l-7.229-4.177a1.673,1.673,0,0,1-.681-1.541,5.247,5.247,0,0,1,2.37-4.089,1.7,1.7,0,0,1,1.689-.178l7.229,4.177Z" transform="translate(-125.92 -287.169)" fill="#a7a9ac"/>
        <path id="Trazado_717210" data-name="Trazado 717210" d="M130.72,288.9a5.2,5.2,0,0,0-2.37,4.089c0,1.511,1.067,2.133,2.37,1.363a5.17,5.17,0,0,0,2.341-4.089C133.061,288.753,132.024,288.16,130.72,288.9Z" transform="translate(-121.151 -284.395)" fill="#bcbec0"/>
        <path id="Trazado_717211" data-name="Trazado 717211" d="M130.98,289.052a5.2,5.2,0,0,0-2.37,4.088,1.708,1.708,0,0,0,.681,1.541l-.77-.444a1.743,1.743,0,0,1-.681-1.541,5.246,5.246,0,0,1,2.37-4.089,1.634,1.634,0,0,1,1.659-.148l.741.444a1.65,1.65,0,0,0-1.659.178Z" transform="translate(-122.152 -284.961)" fill="#939598"/>
        <path id="Trazado_717212" data-name="Trazado 717212" d="M130.4,288.732a5.17,5.17,0,0,0-2.341,4.089,1.743,1.743,0,0,0,.681,1.541l-.741-.444a1.657,1.657,0,0,1-.711-1.541,5.2,5.2,0,0,1,2.37-4.088,1.65,1.65,0,0,1,1.659-.178l.77.444a1.687,1.687,0,0,0-1.689.148Z" transform="translate(-123.231 -285.619)" fill="#939598"/>
        <path id="Trazado_717213" data-name="Trazado 717213" d="M129.841,288.412a5.28,5.28,0,0,0-2.37,4.088,1.6,1.6,0,0,0,.711,1.511l-.77-.445a1.651,1.651,0,0,1-.681-1.511,5.246,5.246,0,0,1,2.37-4.089,1.65,1.65,0,0,1,1.659-.178l.77.444a1.648,1.648,0,0,0-1.659.178Z" transform="translate(-124.33 -286.247)" fill="#939598"/>
        <path id="Trazado_717214" data-name="Trazado 717214" d="M129.3,288.088a5.247,5.247,0,0,0-2.37,4.089,1.743,1.743,0,0,0,.681,1.54l-.77-.444a1.673,1.673,0,0,1-.681-1.541,5.246,5.246,0,0,1,2.37-4.089,1.568,1.568,0,0,1,1.659-.148l.77.415a1.651,1.651,0,0,0-1.659.178Z" transform="translate(-125.449 -286.871)" fill="#939598"/>
      </g>
      <g id="Grupo_1008366" data-name="Grupo 1008366" transform="translate(81.296 45.559)">
        <path id="Trazado_717215" data-name="Trazado 717215" d="M137.981,292.409l-2.815,4.859-6.074-3.5a1.421,1.421,0,0,1-.593-1.3,4.356,4.356,0,0,1,1.985-3.437,1.331,1.331,0,0,1,1.422-.119Z" transform="translate(-128.5 -288.758)" fill="#ff2456"/>
        <path id="Trazado_717216" data-name="Trazado 717216" d="M132.535,290.2a4.4,4.4,0,0,0-1.985,3.437c0,1.244.889,1.778,1.985,1.155a4.4,4.4,0,0,0,1.985-3.437C134.52,290.114,133.631,289.581,132.535,290.2Z" transform="translate(-124.476 -286.433)" fill="#ff4d75"/>
      </g>
    </g>
  </g>
  <g id="Grupo_1010766" data-name="Grupo 1010766" transform="translate(35.22 0)">
    <g id="Grupo_1010757" data-name="Grupo 1010757" transform="translate(0 0)">
      <g id="Grupo_1010748" data-name="Grupo 1010748" transform="translate(0)">
        <g id="Grupo_1009816" data-name="Grupo 1009816" transform="translate(155.425 72)">
          <g id="Grupo_1009812" data-name="Grupo 1009812" transform="translate(0 1.983)">
            <path id="Trazado_721052" data-name="Trazado 721052" d="M507.956,407.825,354.2,319.025v-39.5l153.756,88.747Z" transform="translate(-354.2 -264.191)" fill="#16a89f"/>
            <path id="Trazado_721053" data-name="Trazado 721053" d="M383.67,348.487V308.939L410.278,293.6v39.548Z" transform="translate(-229.915 -204.853)" fill="#0a8074"/>
            <path id="Trazado_721054" data-name="Trazado 721054" d="M507.956,380.677,354.2,291.929l26.556-15.339,153.808,88.748Z" transform="translate(-354.2 -276.59)" fill="#24d2c1"/>
          </g>
          <g id="Grupo_1009814" data-name="Grupo 1009814" transform="translate(2.556 35.374)">
            <path id="Trazado_721055" data-name="Trazado 721055" d="M368.1,291.342v23.687l-13.409-7.722V283.62Z" transform="translate(-354.69 -280.333)" fill="#303033"/>
            <path id="Trazado_721056" data-name="Trazado 721056" d="M354.69,286.277l5.635-3.287,13.409,7.774L368.1,294Z" transform="translate(-354.69 -282.99)" fill="#535359"/>
            <path id="Trazado_721057" data-name="Trazado 721057" d="M362.895,308.167,357.26,311.4V287.715l5.635-3.235Z" transform="translate(-343.851 -276.706)" fill="#121214"/>
            <g id="Grupo_1009813" data-name="Grupo 1009813" transform="translate(1.356 9.652)">
              <path id="Trazado_721058" data-name="Trazado 721058" d="M365.656,297.059l-10.7-6.156,5.322-6.052Z" transform="translate(-354.908 -284.798)" fill="#ff8400"/>
              <path id="Trazado_721059" data-name="Trazado 721059" d="M360.22,285.518l4.7,10.748-9.391-5.426,4.7-5.322Zm.1-.626-5.374,6,10.7,6.156-5.374-12.209h0Z" transform="translate(-354.95 -284.84)"/>
              <path id="Trazado_721060" data-name="Trazado 721060" d="M356.2,285.33l-.469,3.026,1.461.261-1.1,1.983,1.983-2.191-1.67-.209.835-2.035Z" transform="translate(-351.66 -282.774)"/>
            </g>
          </g>
          <g id="Grupo_1009815" data-name="Grupo 1009815" transform="translate(1.982)">
            <path id="Trazado_721061" data-name="Trazado 721061" d="M508.335,370.682l-153.756-88.8V278.7l153.756,88.8Z" transform="translate(-354.58 -265.709)" fill="#a7a9ac"/>
            <path id="Trazado_721062" data-name="Trazado 721062" d="M384.05,309.4v-3.182l22.539-12.991v3.13Z" transform="translate(-230.294 -204.43)" fill="#535359"/>
            <path id="Trazado_721063" data-name="Trazado 721063" d="M508.335,378,354.58,289.2l22.539-12.991,153.756,88.8Z" transform="translate(-354.58 -276.21)" fill="#bcbec0"/>
            <path id="Trazado_721064" data-name="Trazado 721064" d="M509.868,369.939,356.06,281.14l6.991-4.07,153.808,88.8Z" transform="translate(-348.338 -272.583)" fill="#939598"/>
            <path id="Trazado_721065" data-name="Trazado 721065" d="M512.822,364.773l-1.356.73-150.1-86.66-3.5,2.035-1.356-.783,4.852-2.765Z" transform="translate(-346.44 -271.487)" fill="#303033"/>
            <path id="Trazado_721066" data-name="Trazado 721066" d="M510.369,364.28l-3.5,2.035-150.1-86.66,3.5-2.035Z" transform="translate(-345.344 -270.264)" fill="#535359"/>
          </g>
        </g>
        <g id="Grupo_1009828" data-name="Grupo 1009828" transform="translate(211.46)">
          <g id="Grupo_1009817" data-name="Grupo 1009817" transform="translate(14.348 33.913)">
            <path id="Trazado_721067" data-name="Trazado 721067" d="M370.39,288.679l4.018-2.348V270.47l-4.018,2.3Z" transform="translate(-356.303 -262.331)" fill="#174666"/>
            <path id="Trazado_721068" data-name="Trazado 721068" d="M381.777,293.4V277.489L367.69,269.35v15.913Z" transform="translate(-367.69 -267.054)" fill="#2b5e85"/>
            <path id="Trazado_721069" data-name="Trazado 721069" d="M381.777,279.345l4.018-2.3-14.087-8.139-4.017,2.3Z" transform="translate(-367.69 -268.91)" fill="#3576ab"/>
          </g>
          <g id="Grupo_1009818" data-name="Grupo 1009818" transform="translate(12.783 41.687)">
            <path id="Trazado_721070" data-name="Trazado 721070" d="M369.6,280.122l2.713-1.565V271.67l-2.713,1.565Z" transform="translate(-358.07 -265.044)" fill="#535359"/>
            <path id="Trazado_721071" data-name="Trazado 721071" d="M378.92,284.213v-6.887L367.39,270.7v6.835Z" transform="translate(-367.39 -269.135)" fill="#a7a9ac"/>
            <path id="Trazado_721072" data-name="Trazado 721072" d="M378.92,278.591l2.713-1.565L370.1,270.4l-2.713,1.565Z" transform="translate(-367.39 -270.4)" fill="#bcbec0"/>
            <path id="Trazado_721073" data-name="Trazado 721073" d="M371.708,274.492l2.713-1.565-3.548-2.087-2.713,1.565Z" transform="translate(-364.143 -268.544)" fill="#939598"/>
            <path id="Trazado_721074" data-name="Trazado 721074" d="M368.37,271.857l.626.365.887-.47,1.774,1.044.678-.418-2.452-1.409Z" transform="translate(-363.257 -267.996)" fill="#303033"/>
            <path id="Trazado_721075" data-name="Trazado 721075" d="M368.49,271.59l1.826,1.044.835-.47-1.774-1.044Z" transform="translate(-362.751 -267.363)" fill="#535359"/>
          </g>
          <g id="Grupo_1009819" data-name="Grupo 1009819" transform="translate(0 76.591)">
            <path id="Trazado_721076" data-name="Trazado 721076" d="M367.64,311.467l11.843-6.887V278.65l-11.843,6.835Z" transform="translate(-353.553 -270.511)" fill="#174666"/>
            <path id="Trazado_721077" data-name="Trazado 721077" d="M379.027,312.522V286.539L364.94,278.4v25.983Z" transform="translate(-364.94 -271.565)" fill="#2b5e85"/>
            <path id="Trazado_721078" data-name="Trazado 721078" d="M379.027,292.064l11.843-6.835-14.087-8.139-11.843,6.835Z" transform="translate(-364.94 -277.09)" fill="#3576ab"/>
          </g>
          <g id="Grupo_1009822" data-name="Grupo 1009822" transform="translate(2.452 58.852)">
            <g id="Grupo_1009820" data-name="Grupo 1009820">
              <path id="Trazado_721079" data-name="Trazado 721079" d="M365.41,274.62v19.357l1.826,1.043V275.664Z" transform="translate(-365.41 -269.768)" fill="#a7a9ac"/>
              <path id="Trazado_721080" data-name="Trazado 721080" d="M365.41,278.542l1.826,1.044,8.348-4.852-1.826-1.043Z" transform="translate(-365.41 -273.69)" fill="#bcbec0"/>
              <path id="Trazado_721081" data-name="Trazado 721081" d="M365.76,278.742V298.1l8.348-4.8V273.89Z" transform="translate(-363.934 -272.846)" fill="#535359"/>
              <path id="Trazado_721082" data-name="Trazado 721082" d="M366.31,275.681v19.356l2.609-1.461V274.22Z" transform="translate(-361.615 -271.455)" fill="#303033"/>
              <path id="Trazado_721083" data-name="Trazado 721083" d="M368.164,274.35l-.47.261v17.843l-1.3.73v.574l1.774-1.044Z" transform="translate(-361.277 -270.907)" fill="#121214"/>
              <path id="Trazado_721084" data-name="Trazado 721084" d="M367.694,274.4l-1.3.73v17.843l1.3-.73Z" transform="translate(-361.277 -270.696)" fill="#535359"/>
            </g>
            <g id="Grupo_1009821" data-name="Grupo 1009821" transform="translate(10.539 6.104)">
              <path id="Trazado_721085" data-name="Trazado 721085" d="M367.43,275.78v19.356l1.826,1.1V276.824Z" transform="translate(-367.43 -270.98)" fill="#a7a9ac"/>
              <path id="Trazado_721086" data-name="Trazado 721086" d="M367.43,279.66l1.826,1.044,8.348-4.8-1.826-1.044Z" transform="translate(-367.43 -274.86)" fill="#bcbec0"/>
              <path id="Trazado_721087" data-name="Trazado 721087" d="M367.78,279.86v19.409l8.348-4.852V275.06Z" transform="translate(-365.954 -274.017)" fill="#535359"/>
              <path id="Trazado_721088" data-name="Trazado 721088" d="M368.33,276.841V296.25l2.557-1.513V275.38Z" transform="translate(-363.634 -272.667)" fill="#303033"/>
              <path id="Trazado_721089" data-name="Trazado 721089" d="M370.184,275.51l-.47.261-.052,17.843-1.252.73v.574l1.774-.991Z" transform="translate(-363.297 -272.119)" fill="#121214"/>
              <path id="Trazado_721090" data-name="Trazado 721090" d="M369.714,275.56l-1.3.783v17.791l1.252-.73Z" transform="translate(-363.297 -271.908)" fill="#535359"/>
            </g>
          </g>
          <g id="Grupo_1009823" data-name="Grupo 1009823" transform="translate(0 37.669)">
            <path id="Trazado_721091" data-name="Trazado 721091" d="M367.64,297.746l11.843-6.835V271.19l-11.843,6.835Z" transform="translate(-353.553 -263.051)" fill="#174666"/>
            <path id="Trazado_721092" data-name="Trazado 721092" d="M379.027,298.8V279.079L364.94,270.94v19.722Z" transform="translate(-364.94 -264.105)" fill="#2b5e85"/>
            <path id="Trazado_721093" data-name="Trazado 721093" d="M379.027,284.6l11.843-6.835-14.087-8.139-11.843,6.835Z" transform="translate(-364.94 -269.63)" fill="#3576ab"/>
          </g>
          <g id="Grupo_1009826" data-name="Grupo 1009826" transform="translate(2.452 4.017)">
            <g id="Grupo_1009824" data-name="Grupo 1009824">
              <path id="Trazado_721094" data-name="Trazado 721094" d="M365.41,264.1v35.321l1.826,1.044V265.143Z" transform="translate(-365.41 -259.3)" fill="#a7a9ac"/>
              <path id="Trazado_721095" data-name="Trazado 721095" d="M365.41,267.98l1.826,1.043,8.348-4.8-1.826-1.044Z" transform="translate(-365.41 -263.18)" fill="#bcbec0"/>
              <path id="Trazado_721096" data-name="Trazado 721096" d="M365.76,268.18V303.5l8.348-4.8V263.38Z" transform="translate(-363.934 -262.336)" fill="#535359"/>
              <path id="Trazado_721097" data-name="Trazado 721097" d="M366.31,265.161v35.374l2.609-1.513V263.7Z" transform="translate(-361.615 -260.987)" fill="#303033"/>
              <path id="Trazado_721098" data-name="Trazado 721098" d="M368.164,263.83l-.47.261V297.9l-1.3.731v.574l1.774-1.043Z" transform="translate(-361.277 -260.439)" fill="#121214"/>
              <path id="Trazado_721099" data-name="Trazado 721099" d="M367.694,263.88l-1.3.782v33.756l1.3-.731Z" transform="translate(-361.277 -260.228)" fill="#535359"/>
            </g>
            <g id="Grupo_1009825" data-name="Grupo 1009825" transform="translate(10.539 6.052)">
              <path id="Trazado_721100" data-name="Trazado 721100" d="M367.43,265.26v35.374l1.826,1.043V266.3Z" transform="translate(-367.43 -260.46)" fill="#a7a9ac"/>
              <path id="Trazado_721101" data-name="Trazado 721101" d="M367.43,269.14l1.826,1.043,8.348-4.8-1.826-1.044Z" transform="translate(-367.43 -264.34)" fill="#bcbec0"/>
              <path id="Trazado_721102" data-name="Trazado 721102" d="M367.78,269.34v35.374l8.348-4.8V264.54Z" transform="translate(-365.954 -263.497)" fill="#535359"/>
              <path id="Trazado_721103" data-name="Trazado 721103" d="M368.33,266.373v35.322l2.557-1.513V264.86Z" transform="translate(-363.634 -262.147)" fill="#303033"/>
              <path id="Trazado_721104" data-name="Trazado 721104" d="M370.184,264.99l-.47.313-.052,33.756-1.252.783v.522l1.774-.991Z" transform="translate(-363.297 -261.599)" fill="#121214"/>
              <path id="Trazado_721105" data-name="Trazado 721105" d="M369.714,265.05l-1.3.731v33.809l1.252-.783Z" transform="translate(-363.297 -261.346)" fill="#535359"/>
            </g>
          </g>
          <g id="Grupo_1009827" data-name="Grupo 1009827" transform="translate(2.452)">
            <path id="Trazado_721106" data-name="Trazado 721106" d="M377.775,274.443l-12.365-7.1V263.33l12.365,7.148Z" transform="translate(-365.41 -258.53)" fill="#2b5e85"/>
            <path id="Trazado_721107" data-name="Trazado 721107" d="M367.78,272.587v-3.965l8.348-4.852v4.018Z" transform="translate(-355.415 -256.674)" fill="#174666"/>
            <path id="Trazado_721108" data-name="Trazado 721108" d="M377.775,274.358,365.41,267.21l8.348-4.8,12.365,7.1Z" transform="translate(-365.41 -262.41)" fill="#3576ab"/>
          </g>
        </g>
        <g id="Grupo_1009856" data-name="Grupo 1009856" transform="translate(26.609 51.548)">
          <g id="Grupo_1009837" data-name="Grupo 1009837" transform="translate(125.999)">
            <path id="Trazado_721109" data-name="Trazado 721109" d="M502.094,355.243,358.93,272.6l-5.27,9.5v67.826l153.756,88.747V370.9Z" transform="translate(-353.66 -270.983)" fill="#a7a9ac"/>
            <path id="Trazado_721110" data-name="Trazado 721110" d="M487.8,291.13,358.98,365.477V433.3L487.8,358.9Z" transform="translate(-331.224 -192.835)" fill="#939598"/>
            <g id="Grupo_1009836" data-name="Grupo 1009836" transform="translate(4.852 7.722)">
              <g id="Grupo_1009829" data-name="Grupo 1009829">
                <path id="Trazado_721111" data-name="Trazado 721111" d="M371.233,288.118v1.617l-16.643-9.6,4.33-6.365.313.157-3.548,5.217Z" transform="translate(-354.59 -273.77)" fill="#939598"/>
                <path id="Trazado_721112" data-name="Trazado 721112" d="M370.348,280.739v7.252L354.8,279.017l3.548-5.217Z" transform="translate(-353.704 -273.644)" fill="#808285"/>
              </g>
              <g id="Grupo_1009831" data-name="Grupo 1009831" transform="translate(107.738 59.687)">
                <path id="Trazado_721113" data-name="Trazado 721113" d="M389.483,300.706v1.617L375.24,294.08v-8.87l1.1.626v7.252Z" transform="translate(-375.24 -285.21)" fill="#939598"/>
                <path id="Trazado_721114" data-name="Trazado 721114" d="M388.6,292.9v7.3l-13.148-7.617V285.33Z" transform="translate(-374.354 -284.704)" fill="#808285"/>
                <g id="Grupo_1009830" data-name="Grupo 1009830" transform="translate(21.809 12.574)">
                  <path id="Trazado_721115" data-name="Trazado 721115" d="M396.116,306.142l-16.7-9.652v-8.87l1.1.626v7.3l14.765,8.5Z" transform="translate(-379.42 -287.62)" fill="#939598"/>
                  <path id="Trazado_721116" data-name="Trazado 721116" d="M394.4,303.549l-14.765-8.5v-7.3l11.217,6.47Z" transform="translate(-378.535 -287.114)" fill="#808285"/>
                </g>
              </g>
              <g id="Grupo_1009832" data-name="Grupo 1009832" transform="translate(85.982 47.113)">
                <path id="Trazado_721117" data-name="Trazado 721117" d="M385.261,298.3v1.617L371.07,291.67V282.8l1.1.626v7.252Z" transform="translate(-371.07 -282.8)" fill="#939598"/>
                <path id="Trazado_721118" data-name="Trazado 721118" d="M384.375,290.485v7.3l-13.1-7.617V282.92Z" transform="translate(-370.185 -282.294)" fill="#808285"/>
              </g>
              <g id="Grupo_1009833" data-name="Grupo 1009833" transform="translate(64.174 34.487)">
                <path id="Trazado_721119" data-name="Trazado 721119" d="M381.133,295.876v1.617L366.89,289.3V280.38l1.1.678v7.252Z" transform="translate(-366.89 -280.38)" fill="#939598"/>
                <path id="Trazado_721120" data-name="Trazado 721120" d="M380.248,288.075v7.252L367.1,287.762V280.51Z" transform="translate(-366.005 -279.832)" fill="#808285"/>
              </g>
              <g id="Grupo_1009834" data-name="Grupo 1009834" transform="translate(42.365 21.913)">
                <path id="Trazado_721121" data-name="Trazado 721121" d="M376.953,293.518v1.565l-14.243-8.191V277.97l1.148.626v7.3Z" transform="translate(-362.71 -277.97)" fill="#939598"/>
                <path id="Trazado_721122" data-name="Trazado 721122" d="M376.026,285.707v7.3l-13.1-7.617v-7.3Z" transform="translate(-361.782 -277.464)" fill="#808285"/>
              </g>
              <g id="Grupo_1009835" data-name="Grupo 1009835" transform="translate(20.609 9.339)">
                <path id="Trazado_721123" data-name="Trazado 721123" d="M372.783,291.056v1.617l-14.243-8.191V275.56l1.1.626v7.3Z" transform="translate(-358.54 -275.56)" fill="#939598"/>
                <path id="Trazado_721124" data-name="Trazado 721124" d="M371.9,283.3v7.252l-13.148-7.565v-7.3Z" transform="translate(-357.654 -275.054)" fill="#808285"/>
              </g>
            </g>
            <path id="Trazado_721125" data-name="Trazado 721125" d="M384.927,288.13l-2.817,1.617,5.322,15.652,2.817-1.617Z" transform="translate(-233.676 -205.487)" fill="#939598"/>
            <path id="Trazado_721126" data-name="Trazado 721126" d="M500.652,354.933,357.487,272.29l-2.817,1.617L497.834,356.55Z" transform="translate(-349.4 -272.29)" fill="#bcbec0"/>
          </g>
          <path id="Trazado_721127" data-name="Trazado 721127" d="M508.892,304.514,381.327,378.131,353.31,362.009,480.875,288.34Z" transform="translate(-229.137 -204.601)" fill="#303033"/>
          <g id="Grupo_1009841" data-name="Grupo 1009841" transform="translate(5.165 7.845)">
            <path id="Trazado_721128" data-name="Trazado 721128" d="M455.728,274.088a.186.186,0,0,0,.157-.1h0a2.767,2.767,0,0,1,2.556.313l23.009,13.3a2.616,2.616,0,0,1,.365.261h0a8.272,8.272,0,0,1,3.339,6.156v.365a2.667,2.667,0,0,1-1.1,2.4h0l-125.217,72.26-28.122-22.8,125.06-72.156Z" transform="translate(-329.572 -273.794)" fill="#535359"/>
            <path id="Trazado_721129" data-name="Trazado 721129" d="M330.64,289.949v.313a6.448,6.448,0,0,0,2.974,5.113l23.009,13.3a1.938,1.938,0,0,0,2.348,0,2.685,2.685,0,0,1-1.409-.417l-23.009-13.3a6.586,6.586,0,0,1-2.974-5.113v-.313a2.28,2.28,0,0,1,.626-1.722c-.939,0-1.565.835-1.565,2.139Z" transform="translate(-329.91 -214.681)" fill="#535359"/>
            <path id="Trazado_721130" data-name="Trazado 721130" d="M330.82,289.542v.313a6.587,6.587,0,0,0,2.974,5.113l23.009,13.3a3.281,3.281,0,0,0,1.409.417,2.172,2.172,0,0,0,.626-1.722v-.313a6.587,6.587,0,0,0-2.974-5.113l-23.009-13.3a3.281,3.281,0,0,0-1.409-.417A2.369,2.369,0,0,0,330.82,289.542Z" transform="translate(-329.15 -214.639)" fill="#939598"/>
            <path id="Trazado_721131" data-name="Trazado 721131" d="M334.2,288.978l23.009,13.3a6.586,6.586,0,0,1,2.974,5.113v.313c0,1.878-1.357,2.661-2.974,1.722l-23.009-13.3a6.586,6.586,0,0,1-2.974-5.113V290.7c0-1.878,1.3-2.661,2.974-1.722Zm0-.835c-2.035-1.2-3.7-.209-3.7,2.139v.365a8.273,8.273,0,0,0,3.7,6.417l23.009,13.3c2.035,1.2,3.7.209,3.7-2.139v-.365a8.273,8.273,0,0,0-3.7-6.417l-23.009-13.3Z" transform="translate(-330.5 -215.432)" fill="#303033"/>
            <g id="Grupo_1009840" data-name="Grupo 1009840" transform="translate(6.156 77.113)">
              <g id="Grupo_1009838" data-name="Grupo 1009838" transform="translate(13.304 7.722)">
                <path id="Trazado_721132" data-name="Trazado 721132" d="M334.32,290.556l.887-.417h0a1.49,1.49,0,0,1,1.357.209A4.357,4.357,0,0,1,338.6,293.9a1.409,1.409,0,0,1-.678,1.357l-.574.313-.1-.209a2.215,2.215,0,0,1-.626-.261,4.433,4.433,0,0,1-2.035-3.548,1.6,1.6,0,0,1,.052-.522l-.261-.417Z" transform="translate(-333.851 -290.054)" fill="#bcbec0"/>
                <path id="Trazado_721133" data-name="Trazado 721133" d="M334.23,291.55a4.51,4.51,0,0,0,2.035,3.548c1.148.626,2.035.1,2.035-1.2a4.341,4.341,0,0,0-2.035-3.5c-1.148-.678-2.035-.1-2.035,1.2Z" transform="translate(-334.23 -289.795)" fill="#85878a"/>
                <path id="Trazado_721134" data-name="Trazado 721134" d="M334.43,291.09a2.2,2.2,0,0,0,1.043,1.774.628.628,0,0,0,.887-.1.476.476,0,0,1-.417-.156,2.2,2.2,0,0,1-1.044-1.774c0-.209,0-.365.157-.469-.365,0-.626.261-.626.73Z" transform="translate(-333.387 -288.761)" fill="#bcbec0"/>
                <path id="Trazado_721135" data-name="Trazado 721135" d="M334.562,290.84a2.283,2.283,0,0,0,1.043,1.774.834.834,0,0,0,.417.156,1.039,1.039,0,0,0,.1-.47,2.282,2.282,0,0,0-1.043-1.774.831.831,0,0,0-.417-.157.637.637,0,0,0-.157.47Z" transform="translate(-333.049 -288.719)" fill="#4a4a4a"/>
              </g>
              <g id="Grupo_1009839" data-name="Grupo 1009839">
                <path id="Trazado_721136" data-name="Trazado 721136" d="M331.78,289.129l.887-.47h0a1.489,1.489,0,0,1,1.356.209,4.432,4.432,0,0,1,2.035,3.548,1.409,1.409,0,0,1-.678,1.356l-.574.313-.156-.209a2.216,2.216,0,0,1-.626-.261,4.558,4.558,0,0,1-2.035-3.5,1.606,1.606,0,0,1,.052-.522l-.261-.417Z" transform="translate(-331.258 -288.574)" fill="#bcbec0"/>
                <path id="Trazado_721137" data-name="Trazado 721137" d="M331.68,290.1a4.655,4.655,0,0,0,2.035,3.548c1.1.626,2.035.1,2.035-1.2a4.655,4.655,0,0,0-2.035-3.548C332.619,288.277,331.68,288.8,331.68,290.1Z" transform="translate(-331.68 -288.296)" fill="#85878a"/>
                <path id="Trazado_721138" data-name="Trazado 721138" d="M331.88,289.63a2.369,2.369,0,0,0,1.043,1.774.628.628,0,0,0,.887-.1.526.526,0,0,1-.417-.157,2.153,2.153,0,0,1-.991-1.774c0-.209,0-.365.1-.47-.365,0-.574.261-.574.73Z" transform="translate(-330.836 -287.197)" fill="#bcbec0"/>
                <path id="Trazado_721139" data-name="Trazado 721139" d="M332.012,289.37a2.154,2.154,0,0,0,.991,1.774.833.833,0,0,0,.417.157.7.7,0,0,0,.1-.47,2.283,2.283,0,0,0-1.044-1.774.832.832,0,0,0-.417-.157,1.04,1.04,0,0,0-.1.47Z" transform="translate(-330.499 -287.197)" fill="#4a4a4a"/>
              </g>
            </g>
          </g>
          <g id="Grupo_1009842" data-name="Grupo 1009842" transform="translate(36.052 23.843)">
            <path id="Trazado_721140" data-name="Trazado 721140" d="M545.219,325.277,515.532,346.46,444.628,387l-24.365,10.382L336.42,348.964l124.9-72.1Z" transform="translate(-336.42 -276.86)" fill="#e6e7e8"/>
            <path id="Trazado_721141" data-name="Trazado 721141" d="M477.446,295.427,352.49,367.583v-9.339l124.956-72.1Z" transform="translate(-268.647 -237.723)" fill="#939598"/>
          </g>
          <g id="Grupo_1009846" data-name="Grupo 1009846" transform="translate(120.73 74.47)">
            <path id="Trazado_721142" data-name="Trazado 721142" d="M477.878,286.858a.185.185,0,0,0,.156-.1h0a2.749,2.749,0,0,1,2.556.313l23.009,13.3a2.615,2.615,0,0,1,.365.261h0a8.272,8.272,0,0,1,3.339,6.156v.365a2.667,2.667,0,0,1-1.1,2.4h0L380.992,381.814l-28.122-22.8,125.06-72.156Z" transform="translate(-351.722 -286.564)" fill="#535359"/>
            <path id="Trazado_721143" data-name="Trazado 721143" d="M352.79,302.719v.313a6.448,6.448,0,0,0,2.974,5.113l23.009,13.3a1.865,1.865,0,0,0,2.348,0,2.688,2.688,0,0,1-1.409-.417l-23.008-13.3a6.586,6.586,0,0,1-2.974-5.113V302.3a2.368,2.368,0,0,1,.626-1.722c-.939,0-1.565.835-1.565,2.139Z" transform="translate(-352.06 -227.451)" fill="#535359"/>
            <path id="Trazado_721144" data-name="Trazado 721144" d="M352.97,302.354v.313a6.587,6.587,0,0,0,2.974,5.113l23.009,13.3a2.687,2.687,0,0,0,1.409.418,2.368,2.368,0,0,0,.626-1.722v-.365a6.587,6.587,0,0,0-2.974-5.113L355,301a3.283,3.283,0,0,0-1.409-.417,2.368,2.368,0,0,0-.626,1.722Z" transform="translate(-351.3 -227.451)" fill="#939598"/>
            <path id="Trazado_721145" data-name="Trazado 721145" d="M356.354,301.748l23.009,13.3a6.586,6.586,0,0,1,2.974,5.113v.365c0,1.878-1.357,2.661-2.974,1.722l-23.009-13.3a6.586,6.586,0,0,1-2.974-5.113v-.313c0-1.878,1.3-2.661,2.974-1.722h0Zm0-.835c-2.035-1.2-3.7-.209-3.7,2.139v.365a8.273,8.273,0,0,0,3.7,6.418l23.009,13.3c2.035,1.148,3.7.209,3.7-2.139v-.313a8.272,8.272,0,0,0-3.7-6.417l-23.009-13.3h0Z" transform="translate(-352.65 -228.202)" fill="#303033"/>
            <g id="Grupo_1009845" data-name="Grupo 1009845" transform="translate(6.156 77.113)">
              <g id="Grupo_1009843" data-name="Grupo 1009843" transform="translate(13.304 7.722)">
                <path id="Trazado_721146" data-name="Trazado 721146" d="M356.47,303.326l.887-.417h0a1.489,1.489,0,0,1,1.357.209,4.571,4.571,0,0,1,2.035,3.548,1.41,1.41,0,0,1-.678,1.357l-.574.313-.156-.209a2.212,2.212,0,0,1-.626-.261,4.511,4.511,0,0,1-2.035-3.548,1.6,1.6,0,0,1,.052-.522l-.261-.417Z" transform="translate(-356 -302.824)" fill="#bcbec0"/>
                <path id="Trazado_721147" data-name="Trazado 721147" d="M356.38,304.343a4.51,4.51,0,0,0,2.035,3.548c1.148.626,2.035.1,2.035-1.2a4.511,4.511,0,0,0-2.035-3.548C357.319,302.517,356.38,303.039,356.38,304.343Z" transform="translate(-356.38 -302.588)" fill="#85878a"/>
                <path id="Trazado_721148" data-name="Trazado 721148" d="M356.622,303.86a2.378,2.378,0,0,0,.991,1.774c.417.209.731.156.887-.1a.476.476,0,0,1-.417-.156,2.2,2.2,0,0,1-1.043-1.774c0-.209,0-.365.1-.469-.365,0-.574.261-.574.73Z" transform="translate(-355.579 -301.532)" fill="#bcbec0"/>
                <path id="Trazado_721149" data-name="Trazado 721149" d="M356.67,303.6a2.2,2.2,0,0,0,1.044,1.774.832.832,0,0,0,.417.156,1.038,1.038,0,0,0,.1-.469,2.283,2.283,0,0,0-1.043-1.774.834.834,0,0,0-.417-.156C356.67,303.234,356.67,303.391,356.67,303.6Z" transform="translate(-355.157 -301.532)" fill="#4a4a4a"/>
              </g>
              <g id="Grupo_1009844" data-name="Grupo 1009844">
                <path id="Trazado_721150" data-name="Trazado 721150" d="M353.93,301.9l.887-.47h0a1.49,1.49,0,0,1,1.357.209,4.511,4.511,0,0,1,2.035,3.548,1.409,1.409,0,0,1-.678,1.357l-.574.261-.157-.209a2.212,2.212,0,0,1-.626-.261,4.417,4.417,0,0,1-2.035-3.5,1.611,1.611,0,0,1,.052-.522l-.261-.417Z" transform="translate(-353.408 -301.344)" fill="#bcbec0"/>
                <path id="Trazado_721151" data-name="Trazado 721151" d="M353.83,302.831a4.654,4.654,0,0,0,2.035,3.548c1.1.626,2.035.1,2.035-1.148a4.743,4.743,0,0,0-2.035-3.548c-1.1-.626-2.035-.1-2.035,1.2Z" transform="translate(-353.83 -301.024)" fill="#85878a"/>
                <path id="Trazado_721152" data-name="Trazado 721152" d="M354.03,302.39a2.283,2.283,0,0,0,1.044,1.774.628.628,0,0,0,.887-.1.7.7,0,0,1-.417-.156,2.2,2.2,0,0,1-1.043-1.774c0-.209,0-.365.1-.47-.365,0-.574.261-.574.731Z" transform="translate(-352.986 -300.009)" fill="#bcbec0"/>
                <path id="Trazado_721153" data-name="Trazado 721153" d="M354.12,302.182a2.283,2.283,0,0,0,1.044,1.774.833.833,0,0,0,.417.156.783.783,0,0,0,.1-.522,2.283,2.283,0,0,0-1.043-1.774.834.834,0,0,0-.417-.156,1.039,1.039,0,0,0-.1.47Z" transform="translate(-352.607 -300.009)" fill="#4a4a4a"/>
              </g>
            </g>
          </g>
          <g id="Grupo_1009855" data-name="Grupo 1009855" transform="translate(0 72.73)">
            <path id="Trazado_721154" data-name="Trazado 721154" d="M477.944,369.235l-143.164-82.7-5.269,9.548v67.774l153.756,88.8V384.835Z" transform="translate(-329.51 -284.923)" fill="#a7a9ac"/>
            <g id="Grupo_1009854" data-name="Grupo 1009854" transform="translate(4.852 7.722)">
              <g id="Grupo_1009847" data-name="Grupo 1009847">
                <path id="Trazado_721155" data-name="Trazado 721155" d="M347.083,302.11v1.565l-16.643-9.6,4.33-6.365.313.157-3.548,5.217Z" transform="translate(-330.44 -287.71)" fill="#939598"/>
                <path id="Trazado_721156" data-name="Trazado 721156" d="M346.2,294.679v7.3l-15.548-9.026,3.548-5.217Z" transform="translate(-329.555 -287.583)" fill="#808285"/>
              </g>
              <g id="Grupo_1009849" data-name="Grupo 1009849" transform="translate(107.738 59.687)">
                <path id="Trazado_721157" data-name="Trazado 721157" d="M365.333,314.646v1.617l-14.243-8.191V299.15l1.1.626v7.3Z" transform="translate(-351.09 -299.15)" fill="#939598"/>
                <path id="Trazado_721158" data-name="Trazado 721158" d="M364.448,306.835v7.3L351.3,306.574v-7.3Z" transform="translate(-350.204 -298.644)" fill="#808285"/>
                <g id="Grupo_1009848" data-name="Grupo 1009848" transform="translate(21.809 12.574)">
                  <path id="Trazado_721159" data-name="Trazado 721159" d="M371.913,320.082l-16.643-9.6V301.56l1.043.626v7.3l14.817,8.557Z" transform="translate(-355.27 -301.56)" fill="#939598"/>
                  <path id="Trazado_721160" data-name="Trazado 721160" d="M370.288,317.541l-14.818-8.557v-7.3l11.27,6.47Z" transform="translate(-354.426 -301.054)" fill="#808285"/>
                </g>
              </g>
              <g id="Grupo_1009850" data-name="Grupo 1009850" transform="translate(85.982 47.113)">
                <path id="Trazado_721161" data-name="Trazado 721161" d="M361.111,312.236v1.617l-14.191-8.191V296.74l1.043.626v7.3Z" transform="translate(-346.92 -296.74)" fill="#939598"/>
                <path id="Trazado_721162" data-name="Trazado 721162" d="M360.268,304.425v7.3l-13.148-7.565v-7.3Z" transform="translate(-346.077 -296.234)" fill="#808285"/>
              </g>
              <g id="Grupo_1009851" data-name="Grupo 1009851" transform="translate(64.174 34.539)">
                <path id="Trazado_721163" data-name="Trazado 721163" d="M356.984,309.826v1.617L342.74,303.2v-8.87l1.1.626v7.3Z" transform="translate(-342.74 -294.33)" fill="#939598"/>
                <path id="Trazado_721164" data-name="Trazado 721164" d="M356.1,302.015v7.3l-13.148-7.565v-7.3Z" transform="translate(-341.854 -293.824)" fill="#808285"/>
              </g>
              <g id="Grupo_1009852" data-name="Grupo 1009852" transform="translate(42.365 21.965)">
                <path id="Trazado_721165" data-name="Trazado 721165" d="M352.8,307.416v1.617l-14.243-8.243V291.92l1.1.626v7.3Z" transform="translate(-338.56 -291.92)" fill="#939598"/>
                <path id="Trazado_721166" data-name="Trazado 721166" d="M351.918,299.605v7.3l-13.148-7.565v-7.3Z" transform="translate(-337.674 -291.414)" fill="#808285"/>
              </g>
              <g id="Grupo_1009853" data-name="Grupo 1009853" transform="translate(20.609 9.391)">
                <path id="Trazado_721167" data-name="Trazado 721167" d="M348.633,305.006v1.617L334.39,298.38v-8.87l1.1.626v7.252Z" transform="translate(-334.39 -289.51)" fill="#939598"/>
                <path id="Trazado_721168" data-name="Trazado 721168" d="M347.748,297.2v7.3L334.6,296.882V289.63Z" transform="translate(-333.504 -289.004)" fill="#808285"/>
              </g>
            </g>
            <path id="Trazado_721169" data-name="Trazado 721169" d="M360.777,302.08,357.96,303.7l5.322,15.6,2.817-1.617Z" transform="translate(-209.526 -219.385)" fill="#939598"/>
            <path id="Trazado_721170" data-name="Trazado 721170" d="M476.5,368.925l-143.164-82.7-2.817,1.617,143.164,82.7Z" transform="translate(-325.251 -286.23)" fill="#bcbec0"/>
          </g>
        </g>
        <g id="Grupo_1009857" data-name="Grupo 1009857" transform="translate(146.504 91.826)">
          <path id="Trazado_721171" data-name="Trazado 721171" d="M373.951,296.758l7.983-4.644c-1.774-1.148-3.6-5.739-6.574-7.826s-3.078-1.565-7.826-4.278a137.119,137.119,0,0,0-12.574,6.209,3.218,3.218,0,0,1,.835,1.774l11.374,6.574,6.73,2.243Z" transform="translate(-342.073 -280.01)" fill="#ff4d75"/>
          <path id="Trazado_721172" data-name="Trazado 721172" d="M366.264,281.952a12.834,12.834,0,0,1-3.026-.522,119.571,119.571,0,0,0-10.748,7.252c4.748,2.713,3.861,2.765,7.461,4.487s11.583,2.765,13.565,3.809l8.087-4.644-3.913-3.809-11.374-6.574Z" transform="translate(-352.49 -274.021)" fill="#ff4d75"/>
          <path id="Trazado_721173" data-name="Trazado 721173" d="M428.165,299.829c-9.652-1.148-32.139-12.261-39.339-14.191a77.934,77.934,0,0,0-11.739-2.348l-9.443,5.478-9.444,5.426s.731,2.609,4.07,6.783,22.591,17.113,24.522,22.748c1.409,1.1,9.756-2.243,23.635-10.226h0c13.878-7.983,19.669-12.835,17.739-13.617Z" transform="translate(-328.409 -266.177)" fill="#ff4d75"/>
        </g>
        <g id="Grupo_1009858" data-name="Grupo 1009858" transform="translate(92.765 122.817)">
          <path id="Trazado_721174" data-name="Trazado 721174" d="M367.459,298.106c-1.774-1.148-3.6-5.739-6.574-7.826s-3.078-1.565-7.826-4.33c-4.9,1.93-7.409,9.652-7.409,10.435l9.235,5.322,4.435,1.1,8.139-4.7Z" transform="translate(-327.598 -285.95)" fill="#ff4d75"/>
          <path id="Trazado_721175" data-name="Trazado 721175" d="M342.19,292.238c4.748,2.713,3.861,2.765,7.461,4.487s11.582,2.765,13.565,3.809l8.139-4.7-1.878-2.557-9.235-5.322c-1.3,0-14.713,1.461-18.052,4.278Z" transform="translate(-342.19 -277.473)" fill="#ff4d75"/>
          <path id="Trazado_721176" data-name="Trazado 721176" d="M417.985,305.859c-9.652-1.148-32.139-12.261-39.339-14.191a77.891,77.891,0,0,0-11.739-2.348l-9.443,5.478-9.443,5.478s.73,2.609,4.069,6.783,22.591,17.113,24.574,22.7c1.409,1.1,9.756-2.243,23.635-10.226h0c13.878-7.983,19.669-12.835,17.739-13.617Z" transform="translate(-317.603 -271.738)" fill="#ff4d75"/>
        </g>
        <g id="Grupo_1009864" data-name="Grupo 1009864" transform="translate(161.947 52.121)">
          <g id="Grupo_1009861" data-name="Grupo 1009861" transform="translate(8.713 42.73)">
            <g id="Grupo_1009859" data-name="Grupo 1009859" transform="translate(1.122)">
              <path id="Trazado_721177" data-name="Trazado 721177" d="M358.958,280.975a.733.733,0,0,0-.209-.209,1.227,1.227,0,0,0-1.2,0c-.1,0-.157.157-.209.209h0v4.9s.052.261.261.313a1.227,1.227,0,0,0,1.2,0c.157-.1.261-.209.261-.313v-4.9h-.1Z" transform="translate(-357.314 -280.506)" fill="#121214"/>
              <path id="Trazado_721178" data-name="Trazado 721178" d="M358.77,281.425a1.227,1.227,0,0,1-1.2,0c-.313-.209-.313-.47,0-.678a1.227,1.227,0,0,1,1.2,0C359.083,280.955,359.083,281.216,358.77,281.425Z" transform="translate(-357.335 -280.59)" fill="#e6dab0"/>
            </g>
            <path id="Trazado_721179" data-name="Trazado 721179" d="M358.127,282.065a.734.734,0,0,0-.209-.209c-.313-.209-.157-.209-.47,0-.1,0-.157.1-.209.209h0l.469,5.113.47-5.113h0Z" transform="translate(-356.614 -275.909)" fill="#bcbec0"/>
            <g id="Grupo_1009860" data-name="Grupo 1009860" transform="translate(0 2.191)">
              <path id="Trazado_721180" data-name="Trazado 721180" d="M359.165,281.467l-.261-.261a1.905,1.905,0,0,0-1.513,0c-.1.1-.209.156-.261.261h0v3.444a.814.814,0,0,0,.313.417,1.561,1.561,0,0,0,1.513,0,.489.489,0,0,0,.313-.417v-3.444h-.052Z" transform="translate(-357.078 -280.841)" fill="#303033"/>
              <path id="Trazado_721181" data-name="Trazado 721181" d="M358.946,282.054a1.56,1.56,0,0,1-1.513,0c-.417-.261-.417-.626,0-.887a1.906,1.906,0,0,1,1.513,0C359.363,281.427,359.363,281.793,358.946,282.054Z" transform="translate(-357.12 -281.01)" fill="#e6dab0"/>
            </g>
          </g>
          <g id="Grupo_1009862" data-name="Grupo 1009862" transform="translate(3.809 33.861)">
            <path id="Trazado_721182" data-name="Trazado 721182" d="M366.771,280.925l-3.5-2.035-7.1,4.122,3.548,2.035Z" transform="translate(-356.18 -278.89)" fill="#174666"/>
            <path id="Trazado_721183" data-name="Trazado 721183" d="M363.9,279.28,356.86,283.4v8.348l7.043-4.07Z" transform="translate(-353.312 -277.245)" fill="#2b5e85"/>
            <path id="Trazado_721184" data-name="Trazado 721184" d="M359.728,281.715l-3.548-2.035v8.348l3.548,2.035Z" transform="translate(-356.18 -275.558)" fill="#3576ab"/>
          </g>
          <g id="Grupo_1009863" data-name="Grupo 1009863">
            <path id="Trazado_721185" data-name="Trazado 721185" d="M357.66,309.826l50.66-29.269V273.67l-50.66,29.269Z" transform="translate(-346.13 -267.044)" fill="#6d6e71"/>
            <path id="Trazado_721186" data-name="Trazado 721186" d="M366.98,291.523v-6.887l-11.53-6.626v6.835Z" transform="translate(-355.45 -248.741)" fill="#a7a9ac"/>
            <path id="Trazado_721187" data-name="Trazado 721187" d="M366.98,308.3l50.661-29.269L406.163,272.4,355.45,301.67Z" transform="translate(-355.45 -272.4)" fill="#bcbec0"/>
            <path id="Trazado_721188" data-name="Trazado 721188" d="M359.768,304.2l50.661-29.27-3.548-2.087-50.66,29.27Z" transform="translate(-352.203 -270.544)" fill="#939598"/>
            <path id="Trazado_721189" data-name="Trazado 721189" d="M356.42,301.561l.678.417,48.835-28.226,1.774,1.044.678-.417-2.452-1.409Z" transform="translate(-351.359 -269.996)" fill="#303033"/>
            <path id="Trazado_721190" data-name="Trazado 721190" d="M356.55,301.346l1.774.991,48.834-28.174-1.774-1.043Z" transform="translate(-350.811 -269.364)" fill="#535359"/>
          </g>
        </g>
        <g id="Grupo_1009870" data-name="Grupo 1009870" transform="translate(67.252 109.408)">
          <g id="Grupo_1009867" data-name="Grupo 1009867" transform="translate(51.704 17.935)">
            <g id="Grupo_1009865" data-name="Grupo 1009865" transform="translate(1.148)">
              <path id="Trazado_721191" data-name="Trazado 721191" d="M349.047,287.2a.732.732,0,0,0-.209-.209,1.228,1.228,0,0,0-1.2,0c-.1,0-.156.157-.209.209h0v4.9s.052.261.261.313a1.228,1.228,0,0,0,1.2,0c.157-.1.261-.209.261-.313v-4.9h-.1Z" transform="translate(-347.43 -286.765)" fill="#121214"/>
              <path id="Trazado_721192" data-name="Trazado 721192" d="M348.87,287.613a1.229,1.229,0,0,1-1.2,0c-.313-.209-.313-.47,0-.678a1.592,1.592,0,0,1,1.2,0C349.183,287.144,349.183,287.4,348.87,287.613Z" transform="translate(-347.409 -286.818)" fill="#e6dab0"/>
            </g>
            <path id="Trazado_721193" data-name="Trazado 721193" d="M348.217,288.285a.734.734,0,0,0-.209-.209c-.313-.209-.157-.209-.47,0-.1,0-.157.157-.209.209h0l.47,5.113.469-5.113h0Z" transform="translate(-346.704 -282.168)" fill="#bcbec0"/>
            <g id="Grupo_1009866" data-name="Grupo 1009866" transform="translate(0 2.204)">
              <path id="Trazado_721194" data-name="Trazado 721194" d="M349.255,287.687l-.261-.261a1.906,1.906,0,0,0-1.513,0,.63.63,0,0,0-.261.261h0v3.443a.814.814,0,0,0,.313.417,1.561,1.561,0,0,0,1.513,0,.489.489,0,0,0,.313-.417v-3.443h-.1Z" transform="translate(-347.168 -287.113)" fill="#303033"/>
              <path id="Trazado_721195" data-name="Trazado 721195" d="M349.036,288.284a1.561,1.561,0,0,1-1.513,0c-.417-.209-.417-.626,0-.887a1.907,1.907,0,0,1,1.513,0C349.454,287.657,349.454,288.023,349.036,288.284Z" transform="translate(-347.21 -287.24)" fill="#e6dab0"/>
            </g>
          </g>
          <g id="Grupo_1009868" data-name="Grupo 1009868" transform="translate(46.8 9.078)">
            <path id="Trazado_721196" data-name="Trazado 721196" d="M356.913,287.155l-3.548-2.035-7.1,4.07,3.548,2.035Z" transform="translate(-346.27 -285.12)" fill="#174666"/>
            <path id="Trazado_721197" data-name="Trazado 721197" d="M354.046,285.51l-7.1,4.07v8.348l7.043-4.07Z" transform="translate(-343.402 -283.475)" fill="#2b5e85"/>
            <path id="Trazado_721198" data-name="Trazado 721198" d="M349.818,287.935,346.27,285.9v8.348l3.548,2.035Z" transform="translate(-346.27 -281.831)" fill="#3576ab"/>
          </g>
          <g id="Grupo_1009869" data-name="Grupo 1009869">
            <path id="Trazado_721199" data-name="Trazado 721199" d="M339.51,320.806l50.661-29.322V284.65L339.51,313.92Z" transform="translate(-327.98 -278.024)" fill="#6d6e71"/>
            <path id="Trazado_721200" data-name="Trazado 721200" d="M348.831,302.5v-6.887L337.3,288.99v6.835Z" transform="translate(-337.3 -259.721)" fill="#a7a9ac"/>
            <path id="Trazado_721201" data-name="Trazado 721201" d="M348.831,319.276l50.66-29.27-11.478-6.626L337.3,312.649Z" transform="translate(-337.3 -283.38)" fill="#bcbec0"/>
            <path id="Trazado_721202" data-name="Trazado 721202" d="M341.618,315.176l50.713-29.269-3.6-2.087L338.07,313.089Z" transform="translate(-334.052 -281.524)" fill="#939598"/>
            <path id="Trazado_721203" data-name="Trazado 721203" d="M338.28,312.541l.626.365,48.887-28.174,1.774,1.043.626-.417-2.4-1.409Z" transform="translate(-333.167 -280.976)" fill="#303033"/>
            <path id="Trazado_721204" data-name="Trazado 721204" d="M338.4,312.274l1.826,1.043,48.834-28.174-1.774-1.043Z" transform="translate(-332.661 -280.343)" fill="#535359"/>
          </g>
        </g>
        <g id="Grupo_1009875" data-name="Grupo 1009875" transform="translate(0 161.738)">
          <g id="Grupo_1009871" data-name="Grupo 1009871" transform="translate(0 1.93)">
            <path id="Trazado_721205" data-name="Trazado 721205" d="M478.218,425.067l-153.808-88.8V296.72l153.808,88.8Z" transform="translate(-324.41 -281.381)" fill="#16a89f"/>
            <path id="Trazado_721206" data-name="Trazado 721206" d="M353.89,365.687V326.139L380.446,310.8v39.548Z" transform="translate(-200.082 -222)" fill="#0a8074"/>
            <path id="Trazado_721207" data-name="Trazado 721207" d="M478.218,397.919l-153.808-88.8,26.608-15.339,153.756,88.8Z" transform="translate(-324.41 -293.78)" fill="#24d2c1"/>
          </g>
          <g id="Grupo_1009873" data-name="Grupo 1009873" transform="translate(2.556 35.374)">
            <path id="Trazado_721208" data-name="Trazado 721208" d="M338.309,308.584v23.687L324.9,324.549V300.81Z" transform="translate(-324.9 -297.575)" fill="#303033"/>
            <path id="Trazado_721209" data-name="Trazado 721209" d="M324.9,303.425l5.687-3.235L344,307.912l-5.687,3.287Z" transform="translate(-324.9 -300.19)" fill="#535359"/>
            <path id="Trazado_721210" data-name="Trazado 721210" d="M333.157,325.357l-5.687,3.287V304.957l5.687-3.287Z" transform="translate(-314.061 -293.948)" fill="#121214"/>
            <g id="Grupo_1009872" data-name="Grupo 1009872" transform="translate(1.409 9.704)">
              <path id="Trazado_721211" data-name="Trazado 721211" d="M335.865,314.259l-10.7-6.157,5.374-6.052Z" transform="translate(-325.17 -302.05)" fill="#ff8400"/>
              <path id="Trazado_721212" data-name="Trazado 721212" d="M330.44,302.676l4.7,10.748L325.744,308l4.7-5.322Zm.1-.626-5.374,6,10.7,6.209-5.374-12.209h0Z" transform="translate(-325.17 -302.05)"/>
              <path id="Trazado_721213" data-name="Trazado 721213" d="M326.462,302.53l-.522,2.974,1.513.313-1.148,1.93,1.982-2.139-1.617-.209.783-2.035Z" transform="translate(-321.923 -300.026)"/>
            </g>
          </g>
          <g id="Grupo_1009874" data-name="Grupo 1009874" transform="translate(1.983)">
            <path id="Trazado_721214" data-name="Trazado 721214" d="M478.6,387.83l-153.808-88.8V295.9L478.6,384.7Z" transform="translate(-324.79 -282.909)" fill="#a7a9ac"/>
            <path id="Trazado_721215" data-name="Trazado 721215" d="M354.27,326.552v-3.13l22.539-12.991v3.131Z" transform="translate(-200.462 -221.63)" fill="#535359"/>
            <path id="Trazado_721216" data-name="Trazado 721216" d="M478.6,395.2,324.79,306.4l22.539-12.991,153.808,88.8Z" transform="translate(-324.79 -293.41)" fill="#bcbec0"/>
            <path id="Trazado_721217" data-name="Trazado 721217" d="M480.036,387.087,326.28,298.34l6.991-4.07,153.756,88.8Z" transform="translate(-318.506 -289.783)" fill="#939598"/>
            <path id="Trazado_721218" data-name="Trazado 721218" d="M482.99,381.973l-1.3.73L331.53,296.043l-3.5,1.983-1.3-.73,4.8-2.765Z" transform="translate(-316.608 -288.687)" fill="#303033"/>
            <path id="Trazado_721219" data-name="Trazado 721219" d="M480.631,381.48l-3.5,2.035L326.98,296.8l3.5-1.983Z" transform="translate(-315.554 -287.464)" fill="#535359"/>
          </g>
        </g>
        <g id="Grupo_1009887" data-name="Grupo 1009887" transform="translate(43.774 90)">
          <g id="Grupo_1009876" data-name="Grupo 1009876" transform="translate(11.896 76.591)">
            <path id="Trazado_721220" data-name="Trazado 721220" d="M337.78,328.717l11.791-6.835V295.9l-11.791,6.835Z" transform="translate(-323.693 -287.761)" fill="#174666"/>
            <path id="Trazado_721221" data-name="Trazado 721221" d="M349.167,329.772V303.789L335.08,295.65v26.035Z" transform="translate(-335.08 -288.815)" fill="#2b5e85"/>
            <path id="Trazado_721222" data-name="Trazado 721222" d="M349.167,309.314l11.791-6.835-14.087-8.139-11.791,6.835Z" transform="translate(-335.08 -294.34)" fill="#3576ab"/>
          </g>
          <g id="Grupo_1009879" data-name="Grupo 1009879" transform="translate(14.348 58.904)">
            <g id="Grupo_1009877" data-name="Grupo 1009877">
              <path id="Trazado_721223" data-name="Trazado 721223" d="M335.55,291.87v19.409l1.826,1.044V292.913Z" transform="translate(-335.55 -287.07)" fill="#a7a9ac"/>
              <path id="Trazado_721224" data-name="Trazado 721224" d="M335.55,295.75l1.826,1.043,8.348-4.8-1.878-1.043Z" transform="translate(-335.55 -290.95)" fill="#bcbec0"/>
              <path id="Trazado_721225" data-name="Trazado 721225" d="M335.9,295.95v19.409l8.348-4.8V291.15Z" transform="translate(-334.074 -290.107)" fill="#535359"/>
              <path id="Trazado_721226" data-name="Trazado 721226" d="M336.45,292.983V312.34l2.557-1.461V291.47Z" transform="translate(-331.754 -288.757)" fill="#303033"/>
              <path id="Trazado_721227" data-name="Trazado 721227" d="M338.3,291.6l-.47.261V309.7l-1.3.783v.522l1.774-.991Z" transform="translate(-331.417 -288.209)" fill="#121214"/>
              <path id="Trazado_721228" data-name="Trazado 721228" d="M337.834,291.65l-1.3.783v17.844l1.3-.783Z" transform="translate(-331.417 -287.998)" fill="#535359"/>
            </g>
            <g id="Grupo_1009878" data-name="Grupo 1009878" transform="translate(10.487 6.052)">
              <path id="Trazado_721229" data-name="Trazado 721229" d="M337.56,293.03v19.409l1.826,1.043V294.074Z" transform="translate(-337.56 -288.23)" fill="#a7a9ac"/>
              <path id="Trazado_721230" data-name="Trazado 721230" d="M337.56,296.91l1.826,1.044,8.348-4.8-1.826-1.044Z" transform="translate(-337.56 -292.11)" fill="#bcbec0"/>
              <path id="Trazado_721231" data-name="Trazado 721231" d="M337.91,297.11v19.409l8.348-4.8V292.31Z" transform="translate(-336.084 -291.266)" fill="#535359"/>
              <path id="Trazado_721232" data-name="Trazado 721232" d="M338.46,294.143V313.5l2.609-1.461V292.63Z" transform="translate(-333.764 -289.917)" fill="#303033"/>
              <path id="Trazado_721233" data-name="Trazado 721233" d="M340.314,292.76l-.47.313v17.843l-1.3.731v.574l1.774-1.043Z" transform="translate(-333.427 -289.369)" fill="#121214"/>
              <path id="Trazado_721234" data-name="Trazado 721234" d="M339.844,292.82l-1.3.73v17.843l1.3-.731Z" transform="translate(-333.427 -289.116)" fill="#535359"/>
            </g>
          </g>
          <g id="Grupo_1009880" data-name="Grupo 1009880" transform="translate(11.896 37.722)">
            <path id="Trazado_721235" data-name="Trazado 721235" d="M337.78,315.006l11.791-6.887V288.45l-11.791,6.835Z" transform="translate(-323.693 -280.311)" fill="#174666"/>
            <path id="Trazado_721236" data-name="Trazado 721236" d="M349.167,316.061V296.339L335.08,288.2v19.722Z" transform="translate(-335.08 -281.365)" fill="#2b5e85"/>
            <path id="Trazado_721237" data-name="Trazado 721237" d="M349.167,301.864l11.791-6.835-14.087-8.139-11.791,6.835Z" transform="translate(-335.08 -286.89)" fill="#3576ab"/>
          </g>
          <g id="Grupo_1009883" data-name="Grupo 1009883" transform="translate(14.348 4.017)">
            <g id="Grupo_1009881" data-name="Grupo 1009881">
              <path id="Trazado_721238" data-name="Trazado 721238" d="M335.55,281.35v35.374l1.826,1.043V282.393Z" transform="translate(-335.55 -276.55)" fill="#a7a9ac"/>
              <path id="Trazado_721239" data-name="Trazado 721239" d="M335.55,285.23l1.826,1.043,8.348-4.8-1.878-1.043Z" transform="translate(-335.55 -280.43)" fill="#bcbec0"/>
              <path id="Trazado_721240" data-name="Trazado 721240" d="M335.9,285.43V320.8l8.348-4.8V280.63Z" transform="translate(-334.074 -279.586)" fill="#535359"/>
              <path id="Trazado_721241" data-name="Trazado 721241" d="M336.45,282.463v35.322l2.557-1.461V280.95Z" transform="translate(-331.754 -278.237)" fill="#303033"/>
              <path id="Trazado_721242" data-name="Trazado 721242" d="M338.3,281.08l-.47.313V315.2l-1.3.73v.574l1.774-1.043Z" transform="translate(-331.417 -277.689)" fill="#121214"/>
              <path id="Trazado_721243" data-name="Trazado 721243" d="M337.834,281.14l-1.3.73v33.809l1.3-.731Z" transform="translate(-331.417 -277.436)" fill="#535359"/>
            </g>
            <g id="Grupo_1009882" data-name="Grupo 1009882" transform="translate(10.487 6.104)">
              <path id="Trazado_721244" data-name="Trazado 721244" d="M337.56,282.52v35.322l1.826,1.043V283.564Z" transform="translate(-337.56 -277.72)" fill="#a7a9ac"/>
              <path id="Trazado_721245" data-name="Trazado 721245" d="M337.56,286.4l1.826,1.043,8.348-4.852-1.826-.991Z" transform="translate(-337.56 -281.6)" fill="#bcbec0"/>
              <path id="Trazado_721246" data-name="Trazado 721246" d="M337.91,286.642v35.321l8.348-4.8V281.79Z" transform="translate(-336.084 -280.799)" fill="#535359"/>
              <path id="Trazado_721247" data-name="Trazado 721247" d="M338.46,283.581v35.374l2.609-1.513V282.12Z" transform="translate(-333.764 -279.407)" fill="#303033"/>
              <path id="Trazado_721248" data-name="Trazado 721248" d="M340.314,282.25l-.47.261v33.809l-1.3.73v.574l1.774-1.044Z" transform="translate(-333.427 -278.859)" fill="#121214"/>
              <path id="Trazado_721249" data-name="Trazado 721249" d="M339.844,282.3l-1.3.73v33.809l1.3-.73Z" transform="translate(-333.427 -278.648)" fill="#535359"/>
            </g>
          </g>
          <g id="Grupo_1009884" data-name="Grupo 1009884" transform="translate(14.348)">
            <path id="Trazado_721250" data-name="Trazado 721250" d="M347.863,291.7l-12.313-7.148V280.59l12.313,7.1Z" transform="translate(-335.55 -275.738)" fill="#2b5e85"/>
            <path id="Trazado_721251" data-name="Trazado 721251" d="M337.91,289.847V285.83l8.348-4.8V285Z" transform="translate(-325.597 -273.882)" fill="#174666"/>
            <path id="Trazado_721252" data-name="Trazado 721252" d="M347.863,291.608l-12.313-7.1,8.3-4.852,12.365,7.148Z" transform="translate(-335.55 -279.66)" fill="#3576ab"/>
          </g>
          <g id="Grupo_1009885" data-name="Grupo 1009885" transform="translate(5.165 49.774)">
            <path id="Trazado_721253" data-name="Trazado 721253" d="M336,302.053l8.139-4.7V290.47L336,295.218Z" transform="translate(-324.47 -283.844)" fill="#535359"/>
            <path id="Trazado_721254" data-name="Trazado 721254" d="M345.32,303.613v-6.835L333.79,290.1v6.887Z" transform="translate(-333.79 -285.404)" fill="#a7a9ac"/>
            <path id="Trazado_721255" data-name="Trazado 721255" d="M345.32,300.574l8.139-4.748L341.981,289.2l-8.191,4.7Z" transform="translate(-333.79 -289.2)" fill="#bcbec0"/>
            <path id="Trazado_721256" data-name="Trazado 721256" d="M338.15,296.422l8.191-4.7-3.6-2.087-8.191,4.7Z" transform="translate(-330.585 -287.344)" fill="#939598"/>
            <path id="Trazado_721257" data-name="Trazado 721257" d="M334.76,293.787l.678.417,6.313-3.652,1.826,1.043.678-.417-2.5-1.409Z" transform="translate(-329.699 -286.796)" fill="#303033"/>
            <path id="Trazado_721258" data-name="Trazado 721258" d="M334.89,293.572l1.774.991,6.365-3.6L341.2,289.92Z" transform="translate(-329.151 -286.164)" fill="#535359"/>
          </g>
          <g id="Grupo_1009886" data-name="Grupo 1009886" transform="translate(0 48.991)">
            <path id="Trazado_721259" data-name="Trazado 721259" d="M335.5,308.819l4.069-2.3V290.61l-4.069,2.348Z" transform="translate(-321.413 -282.471)" fill="#174666"/>
            <path id="Trazado_721260" data-name="Trazado 721260" d="M346.887,313.5V297.639L332.8,289.5v15.861Z" transform="translate(-332.8 -287.152)" fill="#2b5e85"/>
            <path id="Trazado_721261" data-name="Trazado 721261" d="M346.887,299.537l4.07-2.348L336.87,289.05,332.8,291.4Z" transform="translate(-332.8 -289.05)" fill="#3576ab"/>
          </g>
        </g>
      </g>
      <g id="Grupo_1010744" data-name="Grupo 1010744" transform="translate(238.795 105.202)">
        <path id="Trazado_719920" data-name="Trazado 719920" d="M139.747,313.029c11.8,6.8,30.995,6.8,42.791,0s11.8-17.875,0-24.736c-11.8-6.8-30.995-6.8-42.791,0S127.951,306.168,139.747,313.029Z" transform="translate(-94.391 -119.651)" opacity="0.3"/>
        <path id="Trazado_719921" data-name="Trazado 719921" d="M152.141,273.933s-4.634,7.463-5.958,8.847c-1.324,1.444-11.5-.241-11.736-1.565s6.2-5.176,5.9-5.838c-.361-.662-4.273,1.444-4.574.6-.361-.843,3.19-3.852,4.935-4.574,2.768-1.144,8.486-.722,8.486-.722l2.287.722.722,2.528Z" transform="translate(-76.512 -182.809)" fill="#121214"/>
        <path id="Trazado_719922" data-name="Trazado 719922" d="M131.748,300.667c1.324-1.926,4.634-5.718,7.4-10.833a53.557,53.557,0,0,1,5.838-7.764c-.662-7.042-1.023-14.565-1.023-14.565s8.306-6.319,9.449-.481c1.2,5.9.662,8.847,1.324,13.9a17.547,17.547,0,0,1-.963,6.38c-2.167,5.417-14.685,15.106-16.671,17.032C135.178,307.167,130.424,302.593,131.748,300.667Z" transform="translate(-61.475 -213.214)" fill="#f0c6b4"/>
        <path id="Trazado_719923" data-name="Trazado 719923" d="M134.707,286.461c-1.083-4.574-1.685-5.176-2.468-14.986-.361-5.055-2.528-11.194,4.333-10.713,13,.843,12.217,11.856,12.217,11.856s.241,5.778.542,11.315c1.023,4.875-13.6,7.764-14.685,2.528Z" transform="translate(-56.791 -232.35)" fill="#16a89f"/>
        <path id="Trazado_719924" data-name="Trazado 719924" d="M147.762,262.479a29.177,29.177,0,0,0,3.009,5.357l1.565,3.972-7.162,5.417-7.4.722-2.648-2.648s.421-6.2-.963-9.389a18.742,18.742,0,0,1,2.407-5l7.7-1.384a18.475,18.475,0,0,0,3.611,3.009Z" transform="translate(-74.962 -238.4)" fill="#f0c6b4"/>
        <path id="Trazado_719925" data-name="Trazado 719925" d="M138.728,284.088a11.025,11.025,0,0,0-5.176.9c-1.083.6-1.926,2.708.12,5.477,3.551,4.755,6.2,8.968,8.125,10.111s3.852.9,4.935-.6c.662-.9.3-11.014.3-11.014l-8.366-4.875Z" transform="translate(-59.308 -115.265)" fill="#944f00"/>
        <path id="Trazado_719926" data-name="Trazado 719926" d="M152.774,272.06s-2.769,28.407-1.444,38.458c2.829,20.824,1.264,35.689,1.2,39.662-.241,5.417-13.722,3.972-13.662-3.912-.421-25.819-2.889-32.68-5.116-45.379s-1.5-20.162-1.5-20.162c6.921-.722,20.523-8.667,20.523-8.667Z" transform="translate(-63.483 -175.519)" fill="#0f2034"/>
        <path id="Trazado_719927" data-name="Trazado 719927" d="M137.256,257.3s-.963,5.3-.481,7.1a4.785,4.785,0,0,0,.9,1.324,5.389,5.389,0,0,0-.241,2.227c.18.963,2.768,7.463,4.032,9.088.782,1.083,7.042-.843,7.042-.843l-3.13-16.671-8.125-2.227Z" transform="translate(-86.062 -249.592)" fill="#f0c6b4"/>
        <path id="Trazado_719928" data-name="Trazado 719928" d="M150.126,285.47s-12.278,1.866-13.241,2.648c-2.588,2.046-1.565,6.68,3.37,7.944,3.37.782,16.25,1.625,18.477,1.625s4.273-.963,4.514-2.768c.12-1.144-.542-8.366-.542-8.366l-12.578-1.083Z" transform="translate(-93.997 -108.221)" fill="#944f00"/>
        <path id="Trazado_719929" data-name="Trazado 719929" d="M135.069,276.2a38.418,38.418,0,0,0,8.486-7.824s9.991-.843,15.708-7.463c3.25,1.324,9.329,1.2,12.217,8.847,2.107,5.537-3.009,29.19-3.009,29.19l-5.6,13.662L143.134,316.7s-7.222-.3-7.4-1.926a183.98,183.98,0,0,0-3.13-22.088c-1.384-6.8,2.528-16.491,2.528-16.491Z" transform="translate(-83.454 -231.475)" fill="#24d2c1"/>
        <path id="Trazado_719930" data-name="Trazado 719930" d="M169.7,272.179a28.388,28.388,0,0,1,0,11.856c-1.444,6.68-15.768,8.245-15.768,8.245s-2.407,23.652-1.2,32.56c1.745,13-1.264,34.065-1.5,38.037-.361,5.417-16.25,4.273-16.009-3.611.9-13.241,2.167-23.652.361-36.412s-4.454-18.537-2.949-52c6.921-.542,37.013,1.264,37.013,1.264Z" transform="translate(-81.007 -182.077)" fill="#1d374e"/>
        <path id="Trazado_719931" data-name="Trazado 719931" d="M169.053,264.44c-9.509,7.643-23.171,13.06-23.171,13.06s-2.889,15.107-9.991,17.032a5.135,5.135,0,0,1-3.611-.18v8.366s3.009,6.079,8.787,7.282c4.273.9,21.426.481,28.166-6.019-1.565-13.12-.542-25.578-.181-39.481Z" transform="translate(-80.544 -213.76)" fill="#1d374e"/>
        <path id="Trazado_719932" data-name="Trazado 719932" d="M145.152,287.9s3.611-17.634-9.87-22.208c-.12-.662,2.347-3.491,3.671-3.31,14.2,4.514,11.254,23.352,11.254,23.352l-1.5,2.949Z" transform="translate(-79.815 -224.155)" fill="#1d374e"/>
        <path id="Trazado_719933" data-name="Trazado 719933" d="M141.011,285.044s3.37-18.236-8.727-24.134c0,0,2.227.481,3.491.722,11.315,3.37,9.208,20.583,9.208,20.583l-1.5,2.889h-2.468Z" transform="translate(-56.475 -231.475)" fill="#1d374e"/>
        <path id="Trazado_719934" data-name="Trazado 719934" d="M135.585,262.283a9.545,9.545,0,0,0-.421,5.477c.722,2.708,3.25,5.357,3.31,7.343,0,0,1.2-2.648,2.648-1.2s1.2,5.958,3.792,8.065c1.745,1.444,11.134.12,12.1-2.407s4.213-8.847,1.745-16.25-14.2-8.065-19.74-6.741c-7.463,1.805-3.551,5.657-3.551,5.657Z" transform="translate(-83.969 -256.019)" fill="#ff8400"/>
        <path id="Trazado_719935" data-name="Trazado 719935" d="M150.936,258.558c-6.018-1.745-14.986-.18-14.986-.18S147.987,254.706,150.936,258.558Z" transform="translate(-84.335 -252.113)" fill="#ba6000"/>
        <path id="Trazado_719936" data-name="Trazado 719936" d="M162.755,274.106s-9.75-7.4-11.736-6.981c-1.384.241-6.38,2.347-7.041,4.634-.6,2.227,1.565,6.8,7.1,7.042,2.107.963,6.139,2.949,8.245,2.768,1.083-.06,1.805-.12,1.805-.12Z" transform="translate(-143.88 -200.375)" fill="#121214"/>
        <path id="Trazado_719937" data-name="Trazado 719937" d="M163.67,266.484c-2.528,3.792-3.792,7.342-5.236,9.69-4.875.181-14.866,1.444-17.333,1.144s-3.912,6.921-1.625,7.342,20.162,4.032,22.208,2.889c4.875-2.708,12.88-15.166,12.88-15.166s-10.472-6.62-10.893-5.838Z" transform="translate(-122.286 -203.525)" fill="#f0c6b4"/>
        <path id="Trazado_719938" data-name="Trazado 719938" d="M150.41,288.13c2.407-4.033,2.468-3.25,6.079-12.4,1.866-4.755.421-11.676-6.38-12.4s-9.75,8.546-9.75,8.546-1.264,4.273-3.19,9.449c-2.407,4.333,10.713,11.435,13.241,6.741Z" transform="translate(-96.207 -219.514)" fill="#16a89f"/>
      </g>
    </g>
  </g>
</svg>
