<svg id="Grupo_1023338" data-name="Grupo 1023338" xmlns="http://www.w3.org/2000/svg" width="334.23" height="341.485" viewBox="0 0 334.23 341.485">
  <g id="Grupo_1010780" data-name="Grupo 1010780" transform="translate(0 102.156)">
    <g id="Grupo_1008430" data-name="Grupo 1008430" transform="translate(0 0)">
      <g id="Grupo_1008404" data-name="Grupo 1008404" transform="translate(23.888 65.498)">
        <path id="Trazado_717346" data-name="Trazado 717346" d="M426.172,419.578,323.548,315.96,115.83,384.547,218.454,488.164Z" transform="translate(-115.83 -314.333)" opacity="0.3"/>
        <path id="Trazado_717347" data-name="Trazado 717347" d="M426.172,419.038,323.548,315.42,115.83,384.007,218.454,487.625Z" transform="translate(-115.83 -315.42)" fill="#2a4e68"/>
        <g id="Grupo_1008400" data-name="Grupo 1008400" transform="translate(30.905 43.017)">
          <path id="Trazado_717348" data-name="Trazado 717348" d="M188.63,337.675l-6.085,2.862-.663,4.338-4.518,3.283-4.157,1.2-7.711-1.506-9.187-10.392,2.952-4.639,9.488-1.175,7.922,1.868,6.958-2.018Z" transform="translate(-31.125 -326.081)" fill="#f0c6b4"/>
          <path id="Trazado_717349" data-name="Trazado 717349" d="M218.822,346.569l-4.609,1.506-3.916-3.133-3.886-1.446-2.892-3.675,1.054-.331,5.874,1.867Z" transform="translate(-203.52 -310.004)" fill="#121214"/>
          <path id="Trazado_717350" data-name="Trazado 717350" d="M245.444,343.431s-8.856.542-11.928.964-7.018,1.747-10.03,2.078a210.653,210.653,0,0,0-26.688,2.771c-1.476.271-5.241-2.349-5.241-2.349s-4.127-2.259-4.127-2.862,4.4.934,7.591.934c13.314.03,21.025-3.133,26.627-4.157s9.488-.813,12.892-1.145a69.775,69.775,0,0,0,8.042-1.476l2.892,5.241Z" transform="translate(-181.707 -312.62)" fill="#f0c6b4"/>
          <path id="Trazado_717351" data-name="Trazado 717351" d="M207.213,349.054l-2.741,2.741-1.807-.181-3.554-3.283,3.193-1.2.6-.874,4.217-.723Z" transform="translate(-178.627 -297.851)" fill="#121214"/>
          <path id="Trazado_717352" data-name="Trazado 717352" d="M232.364,346.762s-4.307.723-7.8,1.6c-3.464.873-6.928,2.349-9.85,3.072-7.139,1.777-16.356,2.018-26.808,5.6-1.175.392-2.56,2.349-3.494,1.355-.9-.994.994-4.187,3.072-4.7,10.181-2.53,18.1-5.783,21.6-6.807,3.524-1.054,4.639-.512,9.187-1.687,4.518-1.175,11.085-3.735,11.085-3.735l3.012,5.362Z" transform="translate(-158.808 -306.04)" fill="#f0c6b4"/>
          <path id="Trazado_717353" data-name="Trazado 717353" d="M232.448,346.224l-4.127,3.645-38.074,15.723L168.41,342.73l44.73-7.32,8.374-.211,3.7.6,7.982,8.042Z" transform="translate(-112.143 -318.636)" fill="#364685"/>
          <path id="Trazado_717354" data-name="Trazado 717354" d="M185.136,338.234l-1.958,1.9h3.856l4.127,7.56-18.193,3.133-2.952-.6-4.307-4.337h0l-4.277-4.337.633-1.747,13.886-7.47Z" transform="translate(-49.077 -324.411)" fill="#364685"/>
          <path id="Trazado_717355" data-name="Trazado 717355" d="M161.544,340.5s-8.133,0-9.82-1.687c-1.687-1.717,2.078-5.693,2.078-5.693l7.56-2.862,8.223-.06,4.307,4.639-7.048,4.91-5.3.723Z" transform="translate(-1.268 -328.697)" fill="#f0c6b4"/>
          <path id="Trazado_717356" data-name="Trazado 717356" d="M157.641,333.524c-.994-1.9-5.151-2.169-5.151-2.169l3.1-1.3,3.645,1.3.151,1.175a10.056,10.056,0,0,1-1.747,1.024Z" transform="translate(9.624 -328.979)" fill="#3c2415"/>
          <path id="Trazado_717357" data-name="Trazado 717357" d="M151.69,331.452a2.461,2.461,0,0,1,.663,3.675l3.494-.9-.06-2.47-1.687-.663A13.517,13.517,0,0,0,151.69,331.452Z" transform="translate(15.575 -326.906)" fill="#3c2415"/>
          <path id="Trazado_717358" data-name="Trazado 717358" d="M150.956,335.27a31.186,31.186,0,0,0,8.765-1.416c2.681-.723,5.181-2.892,10.151-3.705,4.97-.843,10.784-.422,13.1.633,1.958.9,1.145,1.747,1.325,2.259.693.331,2.349.362,2.711,1.807.392,1.687-1.9,4.789-5.693,6.868-3.765,2.048-8.253,2.2-10.723,3.163s-5.241,2.259-6.536,3.645a2.145,2.145,0,0,1,0-2.169,4.062,4.062,0,0,0-1.235,1.355c-.3-1.928.09-3.856,2.922-5.091s5.572-1.084,9.368-2.38a46.491,46.491,0,0,0,4.368-1.626c1.837-.843,2.8-1.2,3.374-2.229.753-1.356-1.476-1.536-2.319-2.109-.392-.693.6-1.867-1.747-2.259-1.657-.271-3.072.09-5.241.6-1.6.361-3.976.9-5.181,1.325-2.862,1.024-4.669,2.651-7.922,3.434a12.1,12.1,0,0,1-8.916-1.084,10.591,10.591,0,0,0,2.651.06,8.034,8.034,0,0,1-3.253-1.084Z" transform="translate(-13.331 -329.701)" fill="#603913"/>
          <path id="Trazado_717359" data-name="Trazado 717359" d="M154.685,330.85a7.391,7.391,0,0,0-2.741.9S154.956,331,154.685,330.85Z" transform="translate(15.953 -327.389)" fill="#3c2415"/>
          <path id="Trazado_717360" data-name="Trazado 717360" d="M167.47,335.985,178.4,347.009l3.584-1.175-10.9-11.024Z" transform="translate(-58.099 -319.421)" fill="#0f1734"/>
          <path id="Trazado_717361" data-name="Trazado 717361" d="M169.783,336.348c-.9.3-.9,1.265,0,2.2a3.7,3.7,0,0,0,3.283,1.115c.9-.3.9-1.265,0-2.2A3.68,3.68,0,0,0,169.783,336.348Z" transform="translate(-54.779 -316.501)" fill="#ff9d26"/>
          <path id="Trazado_717362" data-name="Trazado 717362" d="M197.417,336.181s2.169,1.536,1.627,3.283c-.512,1.717-9.187,14.669-10.422,15.181a17.284,17.284,0,0,1-7.53,0c-4.368-.934-6.506-2.53-14.759-5.362-.934-.3-2.771.06-4.759-.392-1.988-.482-4.639-3.012-3.163-3.916,1.446-.9,6.536.12,6.536.12a5.4,5.4,0,0,1,2.018-.12c.572.452.693,1.9,1.837,2.259,3.826,1.115,15,2.711,15,2.711s2.169-4.368,4.97-9.277c-1.054.572,5.994-4.849,5.994-4.849l2.681.392Z" transform="translate(-46.659 -317.389)" fill="#f0c6b4"/>
          <path id="Trazado_717363" data-name="Trazado 717363" d="M210.275,336s-17.44,1.145-20.422.843c-3.8,1.476-13.615,5.813-16.567,7.922a4.272,4.272,0,0,1-.331,1.717l-2.862.6s-4.458,3.072-6.325,2.44-.361-4.066.3-4.518a54.764,54.764,0,0,1,5.753-1.9s9.187-7.2,11.386-8.344a17.177,17.177,0,0,1,7.53-2.048c3.4-.241,15.573-.934,17.892-1.054s11.205-2.44,12.862,1.3c.663.693-2.018,2.651-2.018,2.651l-7.139.392Z" transform="translate(-81.837 -327.415)" fill="#f0c6b4"/>
        </g>
        <g id="Grupo_1008401" data-name="Grupo 1008401" transform="translate(77.924 90.429)">
          <path id="Trazado_717364" data-name="Trazado 717364" d="M173.03,353.455l-6.054,2.831-.693,4.368-4.518,3.283-4.127,1.175-7.711-1.506-9.217-10.392,2.952-4.609,9.518-1.2,7.922,1.868,6.928-2.018Z" transform="translate(-15.555 -341.803)" fill="#f0c6b4"/>
          <path id="Trazado_717365" data-name="Trazado 717365" d="M203.212,362.319l-4.639,1.536-3.916-3.133-3.886-1.476L187.91,355.6l1.054-.361,5.874,1.9Z" transform="translate(-187.91 -325.726)" fill="#121214"/>
          <path id="Trazado_717366" data-name="Trazado 717366" d="M229.844,359.2s-8.856.542-11.928.964-7.018,1.777-10.031,2.078a213.793,213.793,0,0,0-26.688,2.741c-1.476.271-5.241-2.349-5.241-2.349s-4.127-2.259-4.127-2.862,4.4.934,7.591.934c13.344.06,21.025-3.133,26.627-4.157s9.488-.813,12.892-1.145a69.75,69.75,0,0,0,8.042-1.476l2.892,5.241Z" transform="translate(-166.137 -328.362)" fill="#f0c6b4"/>
          <path id="Trazado_717367" data-name="Trazado 717367" d="M191.633,364.814l-2.741,2.741-1.837-.181-3.554-3.313,3.223-1.2.572-.874,4.217-.693Z" transform="translate(-163.048 -313.552)" fill="#121214"/>
          <path id="Trazado_717368" data-name="Trazado 717368" d="M216.7,362.531s-4.307.723-7.771,1.6c-3.494.874-6.928,2.319-9.85,3.072-7.139,1.777-16.386,2.018-26.808,5.6-1.175.392-2.56,2.349-3.494,1.355-.9-.994.994-4.187,3.072-4.7,10.181-2.53,18.1-5.783,21.627-6.838s4.639-.512,9.187-1.687c4.518-1.175,11.085-3.735,11.085-3.735l3.012,5.362Z" transform="translate(-143.148 -321.782)" fill="#f0c6b4"/>
          <path id="Trazado_717369" data-name="Trazado 717369" d="M216.848,361.984l-4.127,3.645-38.074,15.723L152.81,358.46l44.7-7.32,8.4-.181,3.7.572,7.952,8.042Z" transform="translate(-96.543 -334.338)" fill="#303033"/>
          <path id="Trazado_717370" data-name="Trazado 717370" d="M169.526,353.984l-1.988,1.9h3.886l4.127,7.561-18.193,3.133L154.4,366l-4.307-4.337h0l-4.277-4.338.633-1.777,13.856-7.47Z" transform="translate(-33.467 -340.133)" fill="#e6e7e8"/>
          <path id="Trazado_717371" data-name="Trazado 717371" d="M145.934,356.252s-8.133,0-9.82-1.687c-1.687-1.717,2.078-5.693,2.078-5.693l7.56-2.862,8.223-.06,4.307,4.639-7.048,4.91-5.3.723Z" transform="translate(14.342 -344.419)" fill="#f0c6b4"/>
          <path id="Trazado_717372" data-name="Trazado 717372" d="M141.991,349.3c-.994-1.9-5.121-2.2-5.121-2.2l3.1-1.3,3.645,1.3.151,1.175a10.057,10.057,0,0,1-1.747,1.024Z" transform="translate(25.274 -344.7)" fill="#3c2415"/>
          <path id="Trazado_717373" data-name="Trazado 717373" d="M136.08,347.212a2.427,2.427,0,0,1,.663,3.645l3.494-.874-.06-2.47-1.687-.663a17.167,17.167,0,0,0-2.41.361Z" transform="translate(31.185 -342.608)" fill="#3c2415"/>
          <path id="Trazado_717374" data-name="Trazado 717374" d="M135.314,351.039a32.118,32.118,0,0,0,8.765-1.416c2.681-.723,5.181-2.892,10.151-3.735s10.784-.422,13.1.663c1.958.874,1.145,1.717,1.325,2.259.693.361,2.349.361,2.711,1.807.422,1.687-1.9,4.819-5.663,6.868s-8.253,2.2-10.693,3.163c-2.47.964-5.271,2.229-6.536,3.645a2.108,2.108,0,0,1,.03-2.169,4.06,4.06,0,0,0-1.235,1.355c-.331-1.928.09-3.855,2.922-5.09s5.572-1.114,9.368-2.41c1.2-.422,3.012-.994,4.368-1.6,1.837-.843,2.8-1.2,3.374-2.229.753-1.355-1.446-1.536-2.319-2.109-.392-.693.6-1.868-1.747-2.259-1.657-.271-3.072.09-5.241.572a51.118,51.118,0,0,0-5.181,1.355c-2.862,1.024-4.669,2.651-7.922,3.434a12,12,0,0,1-8.916-1.114,11.581,11.581,0,0,0,2.621.09,8.032,8.032,0,0,1-3.253-1.084Z" transform="translate(2.311 -345.442)" fill="#603913"/>
          <path id="Trazado_717375" data-name="Trazado 717375" d="M139.085,346.6a7.39,7.39,0,0,0-2.741.9S139.356,346.781,139.085,346.6Z" transform="translate(31.523 -343.111)" fill="#3c2415"/>
          <path id="Trazado_717376" data-name="Trazado 717376" d="M151.86,351.765l10.934,11.024,3.584-1.2-10.9-11.024Z" transform="translate(-42.489 -335.142)"/>
          <path id="Trazado_717377" data-name="Trazado 717377" d="M154.173,352.12c-.9.3-.9,1.265,0,2.169a3.7,3.7,0,0,0,3.283,1.114c.9-.3.9-1.265,0-2.2a3.623,3.623,0,0,0-3.283-1.114Z" transform="translate(-39.169 -332.244)" fill="#bcbec0"/>
          <path id="Trazado_717378" data-name="Trazado 717378" d="M181.817,351.962s2.169,1.536,1.627,3.283c-.542,1.717-9.187,14.7-10.422,15.181a17.282,17.282,0,0,1-7.53,0c-4.4-.934-6.506-2.53-14.76-5.362-.934-.331-2.771.06-4.759-.392s-4.639-3.042-3.163-3.916c1.446-.9,6.536.121,6.536.121a5.289,5.289,0,0,1,1.988-.121c.572.452.693,1.868,1.837,2.259,3.8,1.115,14.97,2.681,14.97,2.681s2.169-4.368,4.97-9.277c-1.024.542,5.994-4.85,5.994-4.85l2.681.361Z" transform="translate(-31.089 -333.11)" fill="#f0c6b4"/>
          <path id="Trazado_717379" data-name="Trazado 717379" d="M194.673,351.743s-17.47,1.145-20.422.843c-3.8,1.446-13.615,5.813-16.6,7.922a4.274,4.274,0,0,1-.331,1.717l-2.862.6s-4.458,3.073-6.326,2.44c-1.837-.632-.331-4.036.331-4.518a54.8,54.8,0,0,1,5.753-1.9s9.187-7.2,11.386-8.344a17.19,17.19,0,0,1,7.53-2.018c3.4-.241,15.6-.934,17.892-1.054,2.319-.15,11.205-2.44,12.862,1.3.663.693-2.018,2.651-2.018,2.651l-7.139.392Z" transform="translate(-66.235 -343.103)" fill="#f0c6b4"/>
        </g>
        <g id="Grupo_1008402" data-name="Grupo 1008402" transform="translate(171.542 6.085)">
          <path id="Trazado_717380" data-name="Trazado 717380" d="M148.07,320.061l9.85,9.91,7.892-2.62-9.82-9.91Z" transform="translate(-124.123 -317.44)" fill="#e6e7e8"/>
          <path id="Trazado_717381" data-name="Trazado 717381" d="M152.04,321.371l9.82,9.91,7.922-2.591-9.85-9.94Z" transform="translate(-140.052 -314.804)"/>
          <path id="Trazado_717382" data-name="Trazado 717382" d="M156.02,322.691l9.82,9.91,7.922-2.621-9.82-9.91Z" transform="translate(-156.02 -312.148)" fill="#bcbec0"/>
        </g>
        <g id="Grupo_1008403" data-name="Grupo 1008403" transform="translate(183.41 18.073)">
          <path id="Trazado_717383" data-name="Trazado 717383" d="M144.13,324.041l9.82,9.91,7.892-2.621-9.82-9.91Z" transform="translate(-120.153 -321.42)" fill="#364685"/>
          <path id="Trazado_717384" data-name="Trazado 717384" d="M148.1,325.351l9.82,9.91,7.922-2.621-9.85-9.91Z" transform="translate(-136.112 -318.784)" fill="#0f1734"/>
          <path id="Trazado_717385" data-name="Trazado 717385" d="M152.08,326.641l9.82,9.94,7.922-2.62L160,324.05Z" transform="translate(-152.08 -316.128)" fill="#ff9d26"/>
        </g>
      </g>
      <g id="Grupo_1008408" data-name="Grupo 1008408" transform="translate(0.09 0)">
        <path id="Trazado_717386" data-name="Trazado 717386" d="M290.063,463.754l146.18-84.4L267.05,281.67l-146.21,84.4Z" transform="translate(-120.84 -280.043)" opacity="0.3"/>
        <path id="Trazado_717387" data-name="Trazado 717387" d="M290.063,463.214l146.18-84.4L267.05,281.13l-146.21,84.4Z" transform="translate(-120.84 -281.13)" fill="#2a4e68"/>
        <g id="Grupo_1008405" data-name="Grupo 1008405" transform="translate(107.684 78.368)">
          <path id="Trazado_717388" data-name="Trazado 717388" d="M173.376,314.711l-4.579,3.675,1.355,4.338-2.892,3.855-3.464,1.777-8.133-.3L142.05,319.41l.753-4.91,8.615-2.591,8.524.6,5.783-3.012Z" transform="translate(-29.546 -302.414)" fill="#f0c6b4"/>
          <path id="Trazado_717389" data-name="Trazado 717389" d="M201.732,329.549l-3.765,2.169-5.211-2.44-4.428-.813-4.458-3.1.873-.512,6.536.934Z" transform="translate(-183.87 -271.527)" fill="#ff4d75"/>
          <path id="Trazado_717390" data-name="Trazado 717390" d="M237.209,324.8c-13.615,3.675-26.567,6.6-29.338,7.47s-5.964,2.771-8.765,3.524c-2.771.753-12.531,2.319-24.519,6.717-1.3.482-6.145-1.476-6.145-1.476s-5.03-1.567-5.271-2.139c-.271-.572,4.669.241,7.771-.241,12.892-1.988,18.886-6.205,23.826-8.073,4.94-1.837,8.765-2.229,11.928-3.072,3.163-.813,12.561-5.964,18.826-9.067a32.682,32.682,0,0,1,7.229,1.536s3.946,4.488,4.458,4.789Z" transform="translate(-156.966 -284.425)" fill="#f0c6b4"/>
          <path id="Trazado_717391" data-name="Trazado 717391" d="M185.583,332.684l-1.416,3.1-1.837.09-4.94-2.651,2.56-1.657.151-.934,3.765-1.325Z" transform="translate(-148.202 -262.553)" fill="#ff4d75"/>
          <path id="Trazado_717392" data-name="Trazado 717392" d="M218.053,327.463c-12.952,4.729-21.266,6.687-24.248,8.042-2.952,1.386-5.633,3.313-8.133,4.458-6.085,2.8-14.88,4.458-23.344,9.488-.934.542-1.416,2.651-2.771,1.837-1.325-.813-.934-4.187.843-5,8.675-4.006,14.85-8.314,17.772-9.88,2.922-1.536,4.247-1.2,8.1-3.042,3.825-1.837,11.9-7.711,22.922-12.471,2.048-.843,8.283,6.235,8.856,6.567Z" transform="translate(-124.586 -279.623)" fill="#f0c6b4"/>
          <path id="Trazado_717393" data-name="Trazado 717393" d="M198.188,324.256l-2.319,4.127L176.892,340.1,151.56,324.889l23.043-8.163,8.012-1.476,3.856.03,11.326,6.536Z" transform="translate(-83.003 -290.844)" fill="#ff4d75"/>
          <path id="Trazado_717394" data-name="Trazado 717394" d="M166.8,315.9l-1.024,2.169,3.7-.6,7.44,6.687L160.8,329.934l-3.133-.12-6.145-3.555h0l-6.115-3.524-.181-1.807,10-9.338Z" transform="translate(-42.666 -298.209)" fill="#ff4d75"/>
          <path id="Trazado_717395" data-name="Trazado 717395" d="M149.534,318.605s-7.832,1.235-10.271-.151c-2.41-1.416-.572-5.813-.572-5.813l5.994-3.886,7.922-1.3,6.3,3.825-4.579,5.813Z" transform="translate(-2.933 -306.519)" fill="#f0c6b4"/>
          <path id="Trazado_717396" data-name="Trazado 717396" d="M145.544,310.512c-1.837-1.687-5.964-1.325-5.964-1.325l2.41-1.717,4.1.693.663,1.114a5.609,5.609,0,0,1-1.235,1.235Z" transform="translate(4.521 -306.499)" fill="#3c2415"/>
          <path id="Trazado_717397" data-name="Trazado 717397" d="M138.22,308.963c2.892,1.054,2.319,3.434,2.319,3.434l2.982-1.386-1.2-2.38-1.928-.392a13.62,13.62,0,0,0-2.169.693Z" transform="translate(11.845 -304.949)" fill="#3c2415"/>
          <path id="Trazado_717398" data-name="Trazado 717398" d="M137.707,316.643a26.446,26.446,0,0,0,7.832-2.681c2.259-1.114,3.7-3.554,8.1-5.151,4.428-1.566,10.241-2.048,12.952-1.355,2.289.572,1.9,1.506,2.289,1.988.813.241,2.44,0,3.434,1.325,1.175,1.566.362,4.94-2.38,7.5-2.711,2.56-6.958,3.374-8.916,4.669-1.928,1.3-4.066,2.952-4.639,4.518a2.265,2.265,0,0,1-.964-2.078,2.619,2.619,0,0,0-.572,1.476c-1.2-1.807-1.657-3.765.512-5.362s4.88-1.9,7.952-3.735a35.481,35.481,0,0,0,3.494-2.229c1.386-1.084,2.139-1.6,2.259-2.681.12-1.416-2.109-1.265-3.193-1.687-.693-.6-.271-1.9-2.741-1.928-1.747,0-2.922.572-4.789,1.386a43.621,43.621,0,0,0-4.4,2.078c-2.289,1.416-3.283,3.283-6.085,4.518-2.8,1.265-5.512,1.3-9.127.3a11.366,11.366,0,0,0,2.59-.331,10.068,10.068,0,0,1-3.645-.542Z" transform="translate(-15.835 -307.147)" fill="#603913"/>
          <path id="Trazado_717399" data-name="Trazado 717399" d="M150.58,316.377l15.573,9.006L169.1,323.7l-15.573-9.006Z" transform="translate(-50.968 -291.971)" fill="#ab183a"/>
          <path id="Trazado_717400" data-name="Trazado 717400" d="M153.122,316.158c-.753.422-.271,1.386.994,2.109a4.548,4.548,0,0,0,3.675.6c.723-.422.3-1.386-.994-2.139s-2.922-.994-3.675-.572Z" transform="translate(-46.582 -289.432)" fill="#ff9d26"/>
          <path id="Trazado_717401" data-name="Trazado 717401" d="M175.935,313.89s2.8,1.145,3.072,2.892-2.2,15.6-3.163,16.236-4.4,1.3-7.259,1.145c-4.669-.241-7.44-1.446-16.687-2.922-1.024-.181-2.651.482-4.789.361-2.139-.151-5.844-2.229-4.85-3.313s6.386-.874,6.386-.874a4.4,4.4,0,0,1,1.867-.422c.753.361,1.536,1.717,2.8,1.928,4.187.512,15.693.331,15.693.331s.12-4.548.572-9.7c-.753.693,3.554-5.6,3.554-5.6H175.9Z" transform="translate(-35.328 -293.58)" fill="#f0c6b4"/>
          <path id="Trazado_717402" data-name="Trazado 717402" d="M189.991,315.584s-16.356,3.735-19.338,3.916c-3.012,1.988-10.512,7.681-12.41,10.181a4.09,4.09,0,0,1,.452,1.717l-2.5.994s-2.922,3.675-5,3.313c-2.078-.331-2.2-3.856-1.747-4.4a39.934,39.934,0,0,1,4.7-2.711s5.6-8.374,7.2-9.789a12.936,12.936,0,0,1,6.356-3.133c3.193-.753,14.639-3.253,16.778-3.735,2.169-.482,9.729-4.066,13.012-.693.964.572-.753,2.862-.753,2.862Z" transform="translate(-75.59 -301.78)" fill="#f0c6b4"/>
        </g>
        <g id="Grupo_1008406" data-name="Grupo 1008406" transform="translate(37.411 37.868)">
          <path id="Trazado_717403" data-name="Trazado 717403" d="M196.706,301.261l-4.548,3.675,1.355,4.307-2.892,3.855-3.434,1.777-8.133-.271L165.44,305.96l.753-4.91,8.615-2.59,8.494.6,5.783-3.012Z" transform="translate(-53.057 -288.977)" fill="#f0c6b4"/>
          <path id="Trazado_717404" data-name="Trazado 717404" d="M225.042,316.059l-3.765,2.169-5.211-2.41-4.4-.813-4.458-3.133.874-.482,6.506.934Z" transform="translate(-207.21 -258.111)" fill="#ff4d75"/>
          <path id="Trazado_717405" data-name="Trazado 717405" d="M248.305,311.739s-8.314,1.867-11.085,2.741-5.964,2.771-8.735,3.524-12.531,2.319-24.489,6.717c-1.3.482-6.145-1.446-6.145-1.446s-5.03-1.566-5.271-2.139c-.271-.6,4.639.241,7.741-.241,12.892-1.988,18.886-6.2,23.8-8.072,4.94-1.837,8.765-2.2,11.9-3.042a55.421,55.421,0,0,0,7.079-2.651l5.151,4.609Z" transform="translate(-186.376 -266.682)" fill="#f0c6b4"/>
          <path id="Trazado_717406" data-name="Trazado 717406" d="M208.9,319.244l-1.386,3.042-1.837.12-4.94-2.651,2.53-1.657.181-.934,3.735-1.325Z" transform="translate(-171.582 -249.157)" fill="#ff4d75"/>
          <path id="Trazado_717407" data-name="Trazado 717407" d="M229.663,314.479s-3.825,1.356-6.807,2.711c-2.952,1.386-5.6,3.313-8.1,4.458-6.085,2.771-14.88,4.458-23.314,9.458-.934.572-1.416,2.651-2.741,1.837s-.934-4.187.843-5c8.675-4.006,14.82-8.343,17.742-9.85,2.922-1.536,4.247-1.2,8.073-3.042a95.129,95.129,0,0,0,9.006-5.271l5.332,4.7Z" transform="translate(-153.727 -261.35)" fill="#f0c6b4"/>
          <path id="Trazado_717408" data-name="Trazado 717408" d="M238.306,310.776l-2.319,4.157-29.579,20.934L174.93,317.1l39.821-13.826,7.982-1.476h3.856l11.326,6.567Z" transform="translate(-123.242 -277.407)" fill="#ff4d75"/>
          <path id="Trazado_717409" data-name="Trazado 717409" d="M190.167,302.427l-1.054,2.169,3.7-.6,7.47,6.657-16.145,5.783-3.133-.121-6.115-3.524h0l-6.115-3.524-.181-1.807,10-9.307Z" transform="translate(-66.157 -284.752)" fill="#ff4d75"/>
          <path id="Trazado_717410" data-name="Trazado 717410" d="M172.884,305.155s-7.832,1.265-10.241-.151-.572-5.813-.572-5.813l5.994-3.886,7.922-1.3,6.265,3.825-4.579,5.813-4.789,1.506Z" transform="translate(-26.433 -293.082)" fill="#f0c6b4"/>
          <path id="Trazado_717411" data-name="Trazado 717411" d="M168.874,297.072c-1.837-1.687-5.934-1.326-5.934-1.326l2.41-1.717,4.1.693.693,1.115A6.241,6.241,0,0,1,168.9,297.1Z" transform="translate(-18.959 -293.042)" fill="#3c2415"/>
          <path id="Trazado_717412" data-name="Trazado 717412" d="M161.61,295.5c2.892,1.054,2.289,3.434,2.289,3.434l2.982-1.385-1.2-2.35-1.928-.392a11.638,11.638,0,0,0-2.139.723Z" transform="translate(-11.695 -291.472)" fill="#3c2415"/>
          <path id="Trazado_717413" data-name="Trazado 717413" d="M161.117,303.184a26.742,26.742,0,0,0,7.832-2.681c2.229-1.114,3.675-3.584,8.1-5.151,4.4-1.566,10.211-2.018,12.952-1.355,2.289.572,1.9,1.506,2.289,1.988.813.241,2.44,0,3.4,1.325,1.175,1.566.361,4.94-2.38,7.47-2.711,2.56-6.928,3.374-8.886,4.669-1.928,1.3-4.036,2.952-4.639,4.518a2.265,2.265,0,0,1-.964-2.078,2.769,2.769,0,0,0-.6,1.476c-1.2-1.807-1.657-3.735.512-5.362s4.88-1.9,7.952-3.735a35.448,35.448,0,0,0,3.494-2.229c1.386-1.084,2.139-1.6,2.229-2.681.12-1.416-2.109-1.265-3.193-1.657-.693-.632-.271-1.9-2.741-1.9a11.359,11.359,0,0,0-4.789,1.356,43.613,43.613,0,0,0-4.4,2.078c-2.289,1.416-3.283,3.253-6.085,4.518s-5.482,1.295-9.127.3a11.344,11.344,0,0,0,2.59-.331,9.873,9.873,0,0,1-3.615-.542Z" transform="translate(-39.366 -293.702)" fill="#603913"/>
          <path id="Trazado_717414" data-name="Trazado 717414" d="M164.679,294.52a4.8,4.8,0,0,0-2.229,1.3S165.011,294.64,164.679,294.52Z" transform="translate(-12.054 -292.056)" fill="#3c2415"/>
          <path id="Trazado_717415" data-name="Trazado 717415" d="M173.96,302.927l15.573,8.976,2.922-1.687-15.543-8.976Z" transform="translate(-74.469 -278.534)" fill="#ab183a"/>
          <path id="Trazado_717416" data-name="Trazado 717416" d="M176.5,302.7c-.753.422-.3,1.386.994,2.109,1.265.753,2.922.994,3.675.572.723-.422.3-1.386-.994-2.109-1.3-.753-2.922-.994-3.645-.572Z" transform="translate(-70.079 -276.016)" fill="#ff9d26"/>
          <path id="Trazado_717417" data-name="Trazado 717417" d="M199.255,300.43s2.771,1.145,3.072,2.892c.271,1.747-2.2,15.573-3.133,16.236-.964.633-4.4,1.3-7.259,1.175-4.639-.241-7.41-1.446-16.657-2.922-1.024-.151-2.651.482-4.789.361-2.139-.151-5.844-2.229-4.85-3.283.994-1.084,6.386-.874,6.386-.874a4.4,4.4,0,0,1,1.868-.422c.753.361,1.536,1.717,2.8,1.9,4.187.512,15.693.331,15.693.331s.09-4.548.572-9.7c-.753.693,3.554-5.6,3.554-5.6h2.771Z" transform="translate(-58.798 -280.164)" fill="#f0c6b4"/>
          <path id="Trazado_717418" data-name="Trazado 717418" d="M213.351,302.134s-16.326,3.735-19.338,3.916c-3.012,1.988-10.482,7.681-12.38,10.151a4.089,4.089,0,0,1,.452,1.717l-2.5.994s-2.922,3.645-5,3.313-2.2-3.856-1.747-4.4a39.942,39.942,0,0,1,4.7-2.711s5.573-8.343,7.169-9.759a12.7,12.7,0,0,1,6.325-3.133c3.193-.753,14.609-3.253,16.778-3.735s9.7-4.066,12.982-.693c.964.572-.753,2.862-.753,2.862l-6.717,1.446Z" transform="translate(-99.07 -288.344)" fill="#f0c6b4"/>
        </g>
        <g id="Grupo_1008407" data-name="Grupo 1008407" transform="translate(119.763 9.187)">
          <path id="Trazado_717419" data-name="Trazado 717419" d="M172.53,287.915l13.976,8.073,6.446-3.7-13.976-8.1Z" transform="translate(-153.011 -284.18)" fill="#ff4d75"/>
          <path id="Trazado_717420" data-name="Trazado 717420" d="M175.77,289.785l13.976,8.072,6.446-3.7-13.976-8.1Z" transform="translate(-166.011 -280.417)" fill="#ab183a"/>
          <path id="Trazado_717421" data-name="Trazado 717421" d="M179.01,291.655l13.976,8.073,6.446-3.7-13.976-8.1Z" transform="translate(-179.01 -276.655)" fill="#ff9d26"/>
        </g>
      </g>
      <g id="Grupo_1008413" data-name="Grupo 1008413" transform="translate(231.411 160.792)">
        <path id="Trazado_717422" data-name="Trazado 717422" d="M141.773,392.342h0l5.332-3.072a1.417,1.417,0,0,1,.663-.994l4.729-2.741.151-.09h0l.9-.542h0l.12-.09,1.386-.783a1.425,1.425,0,0,1,1.175-.06l65.364-37.8.181-.09h0l9.277-2.862,2.922-.9-2.259,2.078-7.139,6.6h0a.825.825,0,0,1-.151.121l-65.394,37.772a1.484,1.484,0,0,1-.633.994l-.753.422h0l-.783.452h0l-.934.542h0l-.753.422h0l-4.127,2.379h0a1.426,1.426,0,0,1-1.175.06l-5.332,3.072h0a1.38,1.38,0,0,1-1.416-.151,4.429,4.429,0,0,1-2.018-3.494,1.362,1.362,0,0,1,.6-1.3Z" transform="translate(-141.11 -340.744)" opacity="0.3"/>
        <g id="Grupo_1008409" data-name="Grupo 1008409" transform="translate(80.756)">
          <path id="Trazado_717423" data-name="Trazado 717423" d="M141.743,343.9,144,341.79l-2.922.934Z" transform="translate(-131.803 -341.79)" fill="#303033"/>
          <path id="Trazado_717424" data-name="Trazado 717424" d="M141.79,344.99l2.831,4.91,7.139-6.6h0a.682.682,0,0,0,.09-.3,1.072,1.072,0,0,0-.482-.843.391.391,0,0,0-.3-.06h0l-9.277,2.892Z" transform="translate(-141.79 -341.194)" fill="#d1c699"/>
        </g>
        <g id="Grupo_1008410" data-name="Grupo 1008410" transform="translate(13.464 3.722)">
          <path id="Trazado_717425" data-name="Trazado 717425" d="M144.04,381.625l2.861,4.94,66.508-38.435a1.48,1.48,0,0,0,.6-1.325,4.429,4.429,0,0,0-2.018-3.494,1.433,1.433,0,0,0-1.446-.151L144.04,381.594Z" transform="translate(-143.438 -343.026)" fill="#16a89f"/>
          <path id="Trazado_717426" data-name="Trazado 717426" d="M192.714,346.814v-.934L147.08,372.3v.934Z" transform="translate(-131.296 -337.282)" fill="#535359"/>
          <path id="Trazado_717427" data-name="Trazado 717427" d="M168.012,355.764v-.934l-5.452,3.193v.9Z" transform="translate(-153.222 -319.273)" fill="#535359"/>
          <path id="Trazado_717428" data-name="Trazado 717428" d="M168.148,356.084a4.429,4.429,0,0,1,2.018,3.494c0,1.3-.9,1.807-2.018,1.175a4.531,4.531,0,0,1-2.018-3.524C166.13,355.933,167.034,355.421,168.148,356.084Z" transform="translate(-166.13 -317.334)" fill="#ff9d26"/>
          <path id="Trazado_717429" data-name="Trazado 717429" d="M167.223,356.479a1.378,1.378,0,0,1,.633,1.084c0,.391-.271.542-.633.362a1.378,1.378,0,0,1-.633-1.084C166.59,356.45,166.861,356.269,167.223,356.479Z" transform="translate(-165.204 -316.134)" fill="#303033"/>
        </g>
        <g id="Grupo_1008411" data-name="Grupo 1008411" transform="translate(5.934 41.535)">
          <path id="Trazado_717430" data-name="Trazado 717430" d="M165.93,360.01l3.4,5.874,7.35-4.247a1.772,1.772,0,0,0,.693-1.566,5.288,5.288,0,0,0-2.41-4.157,1.678,1.678,0,0,0-1.687-.181l-7.35,4.247Z" transform="translate(-165.207 -355.579)" fill="#a7a9ac"/>
          <path id="Trazado_717431" data-name="Trazado 717431" d="M170.78,357.326a5.287,5.287,0,0,1,2.41,4.157c0,1.536-1.084,2.139-2.41,1.386a5.288,5.288,0,0,1-2.41-4.157C168.37,357.175,169.454,356.573,170.78,357.326Z" transform="translate(-168.37 -352.715)" fill="#bcbec0"/>
          <path id="Trazado_717432" data-name="Trazado 717432" d="M169.537,357.475a5.287,5.287,0,0,1,2.41,4.157,1.772,1.772,0,0,1-.693,1.566l.783-.452a1.772,1.772,0,0,0,.693-1.566,5.287,5.287,0,0,0-2.41-4.157,1.661,1.661,0,0,0-1.687-.151l-.783.452a1.678,1.678,0,0,1,1.687.181Z" transform="translate(-166.344 -353.315)" fill="#939598"/>
          <path id="Trazado_717433" data-name="Trazado 717433" d="M169.017,357.155a5.256,5.256,0,0,1,2.38,4.157,1.772,1.772,0,0,1-.693,1.566l.783-.452a1.737,1.737,0,0,0,.693-1.566,5.287,5.287,0,0,0-2.41-4.157,1.661,1.661,0,0,0-1.687-.151L167.3,357a1.736,1.736,0,0,1,1.687.151Z" transform="translate(-164.137 -353.959)" fill="#939598"/>
          <path id="Trazado_717434" data-name="Trazado 717434" d="M168.417,356.861a5.288,5.288,0,0,1,2.41,4.157,1.679,1.679,0,0,1-.693,1.536l.753-.452a1.653,1.653,0,0,0,.723-1.566,5.334,5.334,0,0,0-2.41-4.157,1.594,1.594,0,0,0-1.687-.151l-.783.452a1.734,1.734,0,0,1,1.687.151Z" transform="translate(-161.85 -354.629)" fill="#939598"/>
          <path id="Trazado_717435" data-name="Trazado 717435" d="M167.857,356.545a5.288,5.288,0,0,1,2.41,4.157,1.679,1.679,0,0,1-.693,1.536l.783-.452a1.64,1.64,0,0,0,.693-1.566,5.335,5.335,0,0,0-2.41-4.157,1.678,1.678,0,0,0-1.687-.181l-.783.452a1.675,1.675,0,0,1,1.687.181Z" transform="translate(-159.604 -355.277)" fill="#939598"/>
        </g>
        <g id="Grupo_1008412" data-name="Grupo 1008412" transform="translate(0.09 46.314)">
          <path id="Trazado_717436" data-name="Trazado 717436" d="M168.51,360.884l2.862,4.94,6.2-3.584a1.423,1.423,0,0,0,.6-1.3,4.429,4.429,0,0,0-2.018-3.494,1.38,1.38,0,0,0-1.416-.151l-6.205,3.585Z" transform="translate(-167.938 -357.166)" fill="#ff2456"/>
          <path id="Trazado_717437" data-name="Trazado 717437" d="M172.588,358.631a4.475,4.475,0,0,1,2.018,3.494c0,1.265-.9,1.807-2.018,1.175a4.429,4.429,0,0,1-2.018-3.494C170.57,358.51,171.474,358,172.588,358.631Z" transform="translate(-170.57 -354.762)" fill="#ff4d75"/>
        </g>
      </g>
      <g id="Grupo_1008418" data-name="Grupo 1008418" transform="translate(0 50.996)">
        <path id="Trazado_717438" data-name="Trazado 717438" d="M286.962,348.632h0l-5.332-3.072a1.416,1.416,0,0,0-.633-.994l-4.729-2.741-.151-.09h0l-.9-.512h0l-.12-.09-1.386-.813a1.426,1.426,0,0,0-1.175-.06l-65.364-37.8a2.059,2.059,0,0,0-.211-.09h0l-9.277-2.891-2.922-.9,2.229,2.078,7.139,6.627h0a.819.819,0,0,0,.151.12l65.364,37.8a1.484,1.484,0,0,0,.632.994l.753.422h0l.753.452h0l.934.542h0l.753.452h0l4.127,2.38h0a1.416,1.416,0,0,0,1.175.06l5.332,3.072h0a1.38,1.38,0,0,0,1.416-.151,4.475,4.475,0,0,0,2.018-3.494,1.332,1.332,0,0,0-.6-1.3Z" transform="translate(-194.7 -297.034)" opacity="0.3"/>
        <g id="Grupo_1008414" data-name="Grupo 1008414">
          <path id="Trazado_717439" data-name="Trazado 717439" d="M226.839,300.169l-2.229-2.109,2.922.9Z" transform="translate(-224.61 -298.06)" fill="#303033"/>
          <path id="Trazado_717440" data-name="Trazado 717440" d="M231.591,301.221l-2.831,4.94-7.139-6.6h0a.682.682,0,0,1-.09-.3,1.073,1.073,0,0,1,.482-.843.6.6,0,0,1,.3-.06h0l9.277,2.861Z" transform="translate(-219.391 -297.456)" fill="#d1c699"/>
        </g>
        <g id="Grupo_1008415" data-name="Grupo 1008415" transform="translate(8.916 3.722)">
          <path id="Trazado_717441" data-name="Trazado 717441" d="M269.362,337.894l-2.861,4.94L199.992,304.4a1.444,1.444,0,0,1-.6-1.325,4.429,4.429,0,0,1,2.018-3.494,1.379,1.379,0,0,1,1.416-.15l66.508,38.435Z" transform="translate(-199.39 -299.296)" fill="#ff8400"/>
          <path id="Trazado_717442" data-name="Trazado 717442" d="M204.43,303.054v-.9l45.664,26.386v.934Z" transform="translate(-195.303 -293.552)" fill="#535359"/>
          <path id="Trazado_717443" data-name="Trazado 717443" d="M202.29,312.034V311.1l5.482,3.163v.934Z" transform="translate(-146.535 -275.543)" fill="#535359"/>
          <path id="Trazado_717444" data-name="Trazado 717444" d="M201.208,312.351a4.475,4.475,0,0,0-2.018,3.494c0,1.3.9,1.807,2.018,1.145a4.429,4.429,0,0,0,2.018-3.494c0-1.3-.9-1.807-2.018-1.175Z" transform="translate(-132.652 -273.631)" fill="#ff9d26"/>
          <path id="Trazado_717445" data-name="Trazado 717445" d="M200.283,312.749a1.378,1.378,0,0,0-.633,1.084c0,.391.271.572.633.361a1.378,1.378,0,0,0,.633-1.084C200.915,312.719,200.644,312.539,200.283,312.749Z" transform="translate(-131.726 -272.404)" fill="#303033"/>
        </g>
        <g id="Grupo_1008416" data-name="Grupo 1008416" transform="translate(74.852 41.565)">
          <path id="Trazado_717446" data-name="Trazado 717446" d="M208.376,316.26l-3.4,5.874-7.35-4.247a1.679,1.679,0,0,1-.693-1.536,5.334,5.334,0,0,1,2.41-4.157,1.678,1.678,0,0,1,1.687-.181Z" transform="translate(-196.93 -311.859)" fill="#a7a9ac"/>
          <path id="Trazado_717447" data-name="Trazado 717447" d="M199.08,313.6a5.256,5.256,0,0,0-2.379,4.157c0,1.536,1.084,2.169,2.379,1.386a5.334,5.334,0,0,0,2.41-4.157C201.489,313.454,200.4,312.822,199.08,313.6Z" transform="translate(-189.35 -309.024)" fill="#bcbec0"/>
          <path id="Trazado_717448" data-name="Trazado 717448" d="M200.343,313.755a5.288,5.288,0,0,0-2.41,4.157,1.736,1.736,0,0,0,.693,1.566l-.753-.452a1.7,1.7,0,0,1-.693-1.566,5.334,5.334,0,0,1,2.41-4.157,1.677,1.677,0,0,1,1.687-.181l.783.452a1.678,1.678,0,0,0-1.687.181Z" transform="translate(-191.367 -309.626)" fill="#939598"/>
          <path id="Trazado_717449" data-name="Trazado 717449" d="M200.9,313.435a5.256,5.256,0,0,0-2.38,4.157,1.772,1.772,0,0,0,.693,1.566l-.783-.452a1.736,1.736,0,0,1-.693-1.566,5.334,5.334,0,0,1,2.41-4.157,1.678,1.678,0,0,1,1.687-.181l.783.452a1.674,1.674,0,0,0-1.687.181Z" transform="translate(-193.613 -310.269)" fill="#939598"/>
          <path id="Trazado_717450" data-name="Trazado 717450" d="M201.453,313.131a5.288,5.288,0,0,0-2.41,4.157,1.679,1.679,0,0,0,.693,1.536l-.753-.452a1.7,1.7,0,0,1-.693-1.566,5.287,5.287,0,0,1,2.41-4.157,1.645,1.645,0,0,1,1.717-.151l.783.452a1.731,1.731,0,0,0-1.687.151Z" transform="translate(-195.85 -310.93)" fill="#939598"/>
          <path id="Trazado_717451" data-name="Trazado 717451" d="M202.023,312.785a5.288,5.288,0,0,0-2.41,4.157,1.772,1.772,0,0,0,.693,1.566l-.753-.452a1.64,1.64,0,0,1-.693-1.566,5.288,5.288,0,0,1,2.41-4.157,1.678,1.678,0,0,1,1.687-.181l.783.452a1.678,1.678,0,0,0-1.687.181Z" transform="translate(-198.107 -311.577)" fill="#939598"/>
        </g>
        <g id="Grupo_1008417" data-name="Grupo 1008417" transform="translate(82.623 46.314)">
          <path id="Trazado_717452" data-name="Trazado 717452" d="M204.589,317.154l-2.862,4.94-6.175-3.585a1.423,1.423,0,0,1-.6-1.3,4.429,4.429,0,0,1,2.018-3.494,1.379,1.379,0,0,1,1.416-.151l6.2,3.584Z" transform="translate(-194.95 -313.436)" fill="#ff2456"/>
          <path id="Trazado_717453" data-name="Trazado 717453" d="M196.768,314.9a4.429,4.429,0,0,0-2.018,3.494c0,1.3.9,1.807,2.018,1.175a4.523,4.523,0,0,0,2.018-3.494C198.786,314.807,197.883,314.265,196.768,314.9Z" transform="translate(-188.545 -311.028)" fill="#ff4d75"/>
        </g>
      </g>
      <g id="Grupo_1008423" data-name="Grupo 1008423" transform="translate(86.532 108.33)">
        <path id="Trazado_717454" data-name="Trazado 717454" d="M212.54,437.509h0l-1.446-5.994a1.4,1.4,0,0,0,.271-1.145l-1.265-5.331-.06-.181h0l-.241-1.024h0v-.151l-.422-1.566a1.547,1.547,0,0,0-.753-.9l-17.561-73.436-.09-.181h0l-4.307-8.705-1.356-2.741v3.072l.151,9.7h0v.211l17.561,73.436a1.4,1.4,0,0,0-.271,1.145l.211.843h0l.211.874h0l.241,1.024h0l.211.874h0l1.114,4.639h0a1.445,1.445,0,0,0,.753.9l1.446,5.994h0a1.354,1.354,0,0,0,1.084.934,4.55,4.55,0,0,0,3.946-.934,1.493,1.493,0,0,0,.542-1.325Z" transform="translate(-185.31 -335.005)" opacity="0.3"/>
        <g id="Grupo_1008419" data-name="Grupo 1008419" transform="translate(0.181)">
          <path id="Trazado_717455" data-name="Trazado 717455" d="M193.87,338.843l-.03-3.073,1.355,2.771Z" transform="translate(-193.84 -335.77)" fill="#303033"/>
          <path id="Trazado_717456" data-name="Trazado 717456" d="M198.043,345.548l-5.512,1.325-.12-9.729h0a.592.592,0,0,1,.12-.271,1.2,1.2,0,0,1,.934-.241.313.313,0,0,1,.241.181h0l4.307,8.705Z" transform="translate(-192.38 -334.072)" fill="#d1c699"/>
        </g>
        <g id="Grupo_1008420" data-name="Grupo 1008420" transform="translate(0.309 10.594)">
          <path id="Trazado_717457" data-name="Trazado 717457" d="M209.917,415.082l-5.572,1.325-17.862-74.7a1.518,1.518,0,0,1,.542-1.356,4.55,4.55,0,0,1,3.946-.934,1.431,1.431,0,0,1,1.084.964Z" transform="translate(-186.46 -339.287)" fill="#e31b25"/>
          <path id="Trazado_717458" data-name="Trazado 717458" d="M189.07,343.573l.663-.633,12.229,51.3-.663.633Z" transform="translate(-186.367 -331.937)" fill="#535359"/>
          <path id="Trazado_717459" data-name="Trazado 717459" d="M188.49,360.963l.663-.633,1.476,6.145-.663.663Z" transform="translate(-173.286 -296.945)" fill="#535359"/>
          <path id="Trazado_717460" data-name="Trazado 717460" d="M190.966,364.226a4.473,4.473,0,0,0-3.946.964,1.225,1.225,0,0,0,.542,2.259,4.55,4.55,0,0,0,3.946-.934C192.442,365.612,192.2,364.618,190.966,364.226Z" transform="translate(-168.593 -289.365)" fill="#ff9d26"/>
          <path id="Trazado_717461" data-name="Trazado 717461" d="M188.477,364.541a1.321,1.321,0,0,0-1.2.271c-.3.271-.211.6.151.693a1.33,1.33,0,0,0,1.235-.3c.3-.271.211-.6-.181-.693Z" transform="translate(-167.279 -288.566)" fill="#303033"/>
        </g>
        <g id="Grupo_1008421" data-name="Grupo 1008421" transform="translate(17.588 84.718)">
          <path id="Trazado_717462" data-name="Trazado 717462" d="M194.268,373.458l-6.6,1.566-1.988-8.253a1.741,1.741,0,0,1,.633-1.6,5.248,5.248,0,0,1,4.669-1.115,1.717,1.717,0,0,1,1.3,1.115l1.988,8.253Z" transform="translate(-185.65 -363.895)" fill="#a7a9ac"/>
          <path id="Trazado_717463" data-name="Trazado 717463" d="M190.991,366.8a5.248,5.248,0,0,0-4.669,1.115c-1.114,1.054-.813,2.259.633,2.711a5.354,5.354,0,0,0,4.669-1.145c1.114-1.054.813-2.259-.663-2.681Z" transform="translate(-183.669 -358.382)" fill="#bcbec0"/>
          <path id="Trazado_717464" data-name="Trazado 717464" d="M191.265,367.115a5.271,5.271,0,0,0-4.669,1.115,1.693,1.693,0,0,0-.632,1.566l-.211-.874a1.741,1.741,0,0,1,.633-1.6,5.339,5.339,0,0,1,4.669-1.115,1.717,1.717,0,0,1,1.3,1.115l.211.874a1.717,1.717,0,0,0-1.3-1.114Z" transform="translate(-184.154 -359.541)" fill="#939598"/>
          <path id="Trazado_717465" data-name="Trazado 717465" d="M191.455,366.474a5.264,5.264,0,0,0-4.669,1.145,1.7,1.7,0,0,0-.663,1.566l-.211-.874a1.718,1.718,0,0,1,.633-1.6,5.27,5.27,0,0,1,4.669-1.115,1.667,1.667,0,0,1,1.3,1.115l.211.873a1.718,1.718,0,0,0-1.3-1.115Z" transform="translate(-184.796 -360.797)" fill="#939598"/>
          <path id="Trazado_717466" data-name="Trazado 717466" d="M191.565,365.844a5.361,5.361,0,0,0-4.669,1.115,1.692,1.692,0,0,0-.633,1.566l-.211-.873a1.669,1.669,0,0,1,.633-1.566,5.249,5.249,0,0,1,4.669-1.114,1.717,1.717,0,0,1,1.3,1.114l.211.874A1.718,1.718,0,0,0,191.565,365.844Z" transform="translate(-185.357 -362.064)" fill="#939598"/>
          <path id="Trazado_717467" data-name="Trazado 717467" d="M191.715,365.235a5.249,5.249,0,0,0-4.669,1.114,1.67,1.67,0,0,0-.633,1.566l-.211-.874a1.741,1.741,0,0,1,.633-1.6,5.338,5.338,0,0,1,4.669-1.115,1.717,1.717,0,0,1,1.3,1.115l.211.873a1.667,1.667,0,0,0-1.3-1.114Z" transform="translate(-185.959 -363.324)" fill="#939598"/>
        </g>
        <g id="Grupo_1008422" data-name="Grupo 1008422" transform="translate(20.096 93.394)">
          <path id="Trazado_717468" data-name="Trazado 717468" d="M192.524,374.8l-5.572,1.325-1.657-6.958a1.375,1.375,0,0,1,.542-1.325,4.459,4.459,0,0,1,3.946-.934,1.354,1.354,0,0,1,1.084.934Z" transform="translate(-185.27 -366.776)" fill="#ff2456"/>
          <path id="Trazado_717469" data-name="Trazado 717469" d="M189.746,369.206a4.391,4.391,0,0,0-3.916.964,1.225,1.225,0,0,0,.542,2.259,4.465,4.465,0,0,0,3.916-.934C191.222,370.622,190.981,369.6,189.746,369.206Z" transform="translate(-183.576 -362.145)" fill="#ff4d75"/>
        </g>
      </g>
      <g id="Grupo_1008428" data-name="Grupo 1008428" transform="translate(60.386 144.717)">
        <path id="Trazado_717470" data-name="Trazado 717470" d="M238.933,438.263h0l-3.012-5.362a1.417,1.417,0,0,0-.06-1.175l-2.681-4.759-.09-.151h0l-.512-.9h0l-.06-.151-.783-1.416a1.417,1.417,0,0,0-.994-.633l-36.959-65.845s-.09-.121-.12-.151h0l-6.536-7.2-2.078-2.289.873,2.952,2.771,9.308h0a1.178,1.178,0,0,0,.06.181l36.989,65.845a1.427,1.427,0,0,0,.06,1.175l.422.753h0l.422.753h0l.512.934h0l.452.783h0l2.35,4.157h0a1.444,1.444,0,0,0,.994.663l3.012,5.362h0a1.423,1.423,0,0,0,1.3.6,4.5,4.5,0,0,0,3.524-1.988,1.431,1.431,0,0,0,.151-1.446Z" transform="translate(-184.895 -347.085)" opacity="0.3"/>
        <g id="Grupo_1008424" data-name="Grupo 1008424">
          <path id="Trazado_717471" data-name="Trazado 717471" d="M203.224,350.8l-.873-2.952,2.048,2.289Z" transform="translate(-202.35 -347.85)" fill="#303033"/>
          <path id="Trazado_717472" data-name="Trazado 717472" d="M207.891,355.89l-4.94,2.771-2.771-9.307h0a.807.807,0,0,1,.06-.3,1.073,1.073,0,0,1,.843-.482.368.368,0,0,1,.271.09h0l6.536,7.2Z" transform="translate(-199.306 -346.401)" fill="#d1c699"/>
        </g>
        <g id="Grupo_1008425" data-name="Grupo 1008425" transform="translate(3.571 9.006)">
          <path id="Trazado_717473" data-name="Trazado 717473" d="M230.386,418.463l-4.97,2.8-37.622-66.99a1.436,1.436,0,0,1,.151-1.446,4.5,4.5,0,0,1,3.524-1.988,1.423,1.423,0,0,1,1.3.6l37.622,66.99Z" transform="translate(-187.66 -350.84)" fill="#202b57"/>
          <path id="Trazado_717474" data-name="Trazado 717474" d="M191.39,355.213l.452-.783L217.656,400.4l-.452.813Z" transform="translate(-186.166 -343.616)" fill="#535359"/>
          <path id="Trazado_717475" data-name="Trazado 717475" d="M190.17,370.833l.482-.813,3.1,5.512-.482.813Z" transform="translate(-158.589 -312.247)" fill="#535359"/>
          <path id="Trazado_717476" data-name="Trazado 717476" d="M191.428,373.09a4.5,4.5,0,0,0-3.524,1.988c-.663,1.115-.151,2.018,1.145,2.018a4.453,4.453,0,0,0,3.524-1.988C193.235,373.994,192.723,373.09,191.428,373.09Z" transform="translate(-149.997 -306.07)" fill="#ff9d26"/>
          <path id="Trazado_717477" data-name="Trazado 717477" d="M189.387,373.55a1.382,1.382,0,0,0-1.084.6c-.211.362-.06.633.361.633a1.381,1.381,0,0,0,1.084-.6c.211-.361.06-.633-.331-.633Z" transform="translate(-148.77 -305.144)" fill="#303033"/>
        </g>
        <g id="Grupo_1008426" data-name="Grupo 1008426" transform="translate(40.601 75.424)">
          <path id="Trazado_717478" data-name="Trazado 717478" d="M196.374,381.023l-5.9,3.313-4.157-7.41a1.678,1.678,0,0,1,.181-1.687,5.246,5.246,0,0,1,4.187-2.35,1.632,1.632,0,0,1,1.536.723l4.157,7.41Z" transform="translate(-186.16 -372.89)" fill="#a7a9ac"/>
          <path id="Trazado_717479" data-name="Trazado 717479" d="M190.646,375.35a5.326,5.326,0,0,0-4.187,2.349c-.783,1.325-.181,2.41,1.356,2.41A5.326,5.326,0,0,0,192,377.76C192.785,376.434,192.182,375.35,190.646,375.35Z" transform="translate(-181.998 -367.94)" fill="#bcbec0"/>
          <path id="Trazado_717480" data-name="Trazado 717480" d="M191.243,375.614a5.326,5.326,0,0,0-4.187,2.349,1.609,1.609,0,0,0-.181,1.687l-.422-.783a1.677,1.677,0,0,1,.181-1.687,5.246,5.246,0,0,1,4.187-2.349,1.631,1.631,0,0,1,1.536.723l.452.783a1.632,1.632,0,0,0-1.536-.723Z" transform="translate(-183.017 -368.986)" fill="#939598"/>
          <path id="Trazado_717481" data-name="Trazado 717481" d="M191.594,375.054a5.326,5.326,0,0,0-4.187,2.35,1.678,1.678,0,0,0-.181,1.687l-.452-.783a1.751,1.751,0,0,1,.181-1.687,5.246,5.246,0,0,1,4.187-2.349,1.632,1.632,0,0,1,1.536.723l.452.783A1.693,1.693,0,0,0,191.594,375.054Z" transform="translate(-184.332 -370.113)" fill="#939598"/>
          <path id="Trazado_717482" data-name="Trazado 717482" d="M191.883,374.513a5.326,5.326,0,0,0-4.187,2.349,1.678,1.678,0,0,0-.181,1.687l-.422-.783a1.73,1.73,0,0,1,.181-1.717,5.41,5.41,0,0,1,4.187-2.349,1.6,1.6,0,0,1,1.536.723l.422.783a1.761,1.761,0,0,0-1.536-.723Z" transform="translate(-185.554 -371.26)" fill="#939598"/>
          <path id="Trazado_717483" data-name="Trazado 717483" d="M192.233,373.934a5.41,5.41,0,0,0-4.187,2.349,1.609,1.609,0,0,0-.181,1.687l-.452-.783a1.678,1.678,0,0,1,.181-1.687,5.326,5.326,0,0,1,4.187-2.349,1.631,1.631,0,0,1,1.536.723l.452.783A1.632,1.632,0,0,0,192.233,373.934Z" transform="translate(-186.868 -372.367)" fill="#939598"/>
        </g>
        <g id="Grupo_1008427" data-name="Grupo 1008427" transform="translate(45.259 83.256)">
          <path id="Trazado_717484" data-name="Trazado 717484" d="M193.768,382.328l-5,2.8-3.494-6.235a1.379,1.379,0,0,1,.151-1.416,4.5,4.5,0,0,1,3.524-1.988,1.356,1.356,0,0,1,1.3.6l3.494,6.235Z" transform="translate(-185.14 -375.49)" fill="#ff2456"/>
          <path id="Trazado_717485" data-name="Trazado 717485" d="M188.9,377.56a4.5,4.5,0,0,0-3.524,1.988c-.633,1.115-.151,2.018,1.145,2.048a4.5,4.5,0,0,0,3.524-1.988C190.712,378.494,190.2,377.59,188.9,377.56Z" transform="translate(-181.602 -371.325)" fill="#ff4d75"/>
        </g>
      </g>
      <g id="Grupo_1008429" data-name="Grupo 1008429" transform="translate(74.28 70.149)">
        <path id="Trazado_717486" data-name="Trazado 717486" d="M209.45,321.284a13.253,13.253,0,0,0,6.386-1.446,4.726,4.726,0,0,0,2.711-4.036c0-1.958-1.446-3.916-3.946-5.362l-4.7-2.741a17.9,17.9,0,0,0-8.675-2.169,12.914,12.914,0,0,0-6.386,1.476,4.691,4.691,0,0,0-2.681,4.036c0,1.958,1.446,3.916,3.946,5.362l4.7,2.741a17.9,17.9,0,0,0,8.675,2.169Z" transform="translate(-192.16 -302.183)" opacity="0.3"/>
        <path id="Trazado_717487" data-name="Trazado 717487" d="M192.37,310.587h0v-3.855l2.289.422a.437.437,0,0,0,.09-.06c3.645-2.078,10.121-1.747,14.458.723l4.7,2.741c.211.121.422.271.633.422l3.012.573v3.976h0a4.12,4.12,0,0,1-2.38,3.4c-3.645,2.108-10.121,1.777-14.458-.723l-4.7-2.711c-2.41-1.385-3.645-3.163-3.645-4.85h0Z" transform="translate(-191.798 -301.788)" fill="#bdaf83"/>
        <path id="Trazado_717488" data-name="Trazado 717488" d="M194.755,305.808c-3.615,2.109-3.072,5.844,1.265,8.344l4.7,2.711c4.338,2.5,10.814,2.831,14.458.723,3.615-2.109,3.072-5.844-1.265-8.344l-4.7-2.711C204.876,304.031,198.4,303.7,194.755,305.808Z" transform="translate(-191.803 -304.419)" fill="#e6dab0"/>
      </g>
    </g>
  </g>
  <g id="Grupo_1010781" data-name="Grupo 1010781" transform="translate(37.294 0)">
    <g id="Grupo_1010653" data-name="Grupo 1010653" transform="translate(110.435)">
      <g id="Grupo_1010652" data-name="Grupo 1010652" transform="translate(0)">
        <path id="Trazado_724139" data-name="Trazado 724139" d="M377.24,345.614l.454,5.632,2.608-5.594-1.4-1.512Z" transform="translate(-329.706 -331.643)" fill="#100c06"/>
        <g id="Grupo_1010651" data-name="Grupo 1010651" transform="translate(0 27.743)">
          <path id="Trazado_724140" data-name="Trazado 724140" d="M407.589,395.518l-9,8.316-6.8,6.691a9.513,9.513,0,0,1-4.158,2.344l-8.467-7.371a14.889,14.889,0,0,1,2.646-3.856l14.818-15.952c3.931-29.333,8.694-33.189,8.694-33.189v.076c-.567,2.873,3.062,31.375,2.306,42.9Z" transform="translate(-364.401 -336.145)" fill="#ff7f24"/>
          <path id="Trazado_724141" data-name="Trazado 724141" d="M368.77,423.929c.113.227,0-3.213,4.271-10.962s4.045-10.206,4.612-10.433,13.419,0,13.419,0a60.69,60.69,0,0,1,0,6.426v1.55l-2.344,3.515H387.9a15.534,15.534,0,0,0-.794,4.045c-.34,4.612-9.677,9-14.1,7.787-4.385-1.247-4.385-2.155-4.272-1.928Z" transform="translate(-308.308 -197.326)" fill="#100c06"/>
          <path id="Trazado_724142" data-name="Trazado 724142" d="M409.654,406.235s-5.179,1.928-7.787,2.155l-.567-1.058a8.246,8.246,0,0,0-6.653,2.306c-2.911,2.911-7.22,7.447-17.577,4.385,0,0-4.612-.907-1.134-3.364,3.478-2.495,18.485-12.852,18.6-12.512s13.419,0,13.419,0,2.381,1.814,1.7,8.127Z" transform="translate(-349.343 -209.268)" fill="#100c06"/>
          <path id="Trazado_724143" data-name="Trazado 724143" d="M373.841,404.322c.151,15.763,2.835,19.77,4.839,32.547,1.361,8.807,0,41.732,0,41.732a3.553,3.553,0,0,0,1.134,3.137,6.073,6.073,0,0,0,1.512,1.134,14.681,14.681,0,0,0,10.055,1.134,11.115,11.115,0,0,0,2.835-1.134c1.739-.983,2.608-2.268,2.646-3.591,0,0,2.117-23.89,2.344-33.227a66.705,66.705,0,0,0-3.7-22.151c-1.474-4.233-.491-37.99-.491-37.99,1.21-11.227-.567-16.972-.567-16.972s-19.052,5.443-19.392,5.179c-1.55,5.784-1.512,20.072-1.172,30.2Z" transform="translate(-335.19 -290.44)" fill="#21161c"/>
          <path id="Trazado_724144" data-name="Trazado 724144" d="M367.347,376.71s2.608,16.746,2.986,20.261a4.687,4.687,0,0,0,2.608,3.553c.227,1.21.416,2.306.68,3.251,6.275,25.818,12.059,37.876,13.457,46.684,1.361,8.808,0,41.732,0,41.732-.265,1.512.6,3.138,2.608,4.271a14.681,14.681,0,0,0,10.055,1.134c.529-.113,1.021-.3,1.512-.454h0a11.312,11.312,0,0,0,1.361-.643c1.739-.983,2.608-2.268,2.646-3.591,0,0,2.117-23.928,2.344-33.227a66.706,66.706,0,0,0-3.7-22.151c-1.474-4.234-.491-37.99-.491-37.99,2.306-23.361-4.2-29.371-4.2-29.371l-7.069,1.4-13.268,2.608s-4.65-3.251-7.371.945a7.507,7.507,0,0,0-.454,2.722l-3.7-1.134Z" transform="translate(-319.624 -287.021)" fill="#36252e"/>
          <path id="Trazado_724145" data-name="Trazado 724145" d="M366.05,425.373c.416,2.608,2.76,5.292,5.368,7.409a31.111,31.111,0,0,0,4.99,3.289c3.478,1.7,14.553.491,16.973-.454a21.527,21.527,0,0,1,5.1-.869,8.435,8.435,0,0,0,2.382-.567c2.23-.945,5.1-5.519,5.67-8.2,1.436-6.88,3.213-20.337,3.478-21.32l1.7-9.412.265-1.436,5.557-19.392.907-3.137.945-3.326L400.827,350.3l-.718.378-17.955,1.928s-.453.113-1.21.34c-3.4.983-12.815,3.856-13.835,5.632v.076c-1.21,2.419-1.021,18.9.794,24.041.794,2.268.567,8.694.113,15.309-.454,7.144-1.21,14.515-1.21,17.2,0,3.327-1.323,5.784-.68,10.206Z" transform="translate(-326.114 -342.261)" fill="#ff9c33"/>
          <path id="Trazado_724146" data-name="Trazado 724146" d="M369.3,371.937c0,3.024,2,6.048,6.01,8.354,7.976,4.612,20.942,4.612,28.955,0,3.629-2.117,5.632-4.8,5.935-7.56,0-.265.038-.529.038-.794a6.186,6.186,0,0,0-.151-1.436,1.108,1.108,0,0,0-.076-.34c-.643,2.381-2.533,4.725-5.746,6.54a8.723,8.723,0,0,1-1.323.68c-8.052,3.894-20.072,3.667-27.632-.68-3.213-1.852-5.141-4.158-5.746-6.54A7.215,7.215,0,0,0,369.3,371.937Z" transform="translate(-329.628 -287.049)" fill="#140e11"/>
          <path id="Trazado_724147" data-name="Trazado 724147" d="M395.958,371.886a2.262,2.262,0,0,1-.567,2.495l-.038.038c-.3.34-2.268,2.268-2.419,2.419-.264.076-7.825-5.9-7.825-5.9l-.794-1.247L387,367.01h0a3.246,3.246,0,0,1,3.138-.453,8.833,8.833,0,0,1,5.859,5.33Z" transform="translate(-372.238 -297.582)" fill="#fff"/>
          <path id="Trazado_724148" data-name="Trazado 724148" d="M394.557,372.6c.491,1.739-.378,2.911-2.041,2.986h-.643a4.451,4.451,0,0,1-.945-.151c-2.608-.68-5.216-3.062-5.821-5.33a3.658,3.658,0,0,1-.113-.869,2.092,2.092,0,0,1,2.268-2.193,4.306,4.306,0,0,1,1.323.151h.151a9.34,9.34,0,0,1,5.254,3.931c.113.227.227.416.34.643a6.035,6.035,0,0,1,.265.756Z" transform="translate(-373.408 -295.723)" fill="#eff1f1"/>
          <path id="Trazado_724149" data-name="Trazado 724149" d="M405.974,371.813a1.8,1.8,0,0,1-.076.189c-.68,1.4-1.21,2.57-1.663,3.553-.189.416-.378.831-.567,1.172-1.965,3.856-2.8,4.309-7.976,9.564-2.419,2.344-10.7,3.7-9.375.189.529-1.474,1.4-3.44,2.192-5.217,1.058-2.268,1.966-4.271,2.079-4.46-.151,0-1.134.265-2.192.416-1.7.265-3.667.416-3.251-.567.567-1.285,4.8-4.12,6.577-5.292h0c.34-.227.6-.378.718-.454a.117.117,0,0,1,.076-.038,28.152,28.152,0,0,0,2.873-1.7c.491-.3.983-.643,1.474-.907.718-.454,1.436-.869,2.079-1.21a4.3,4.3,0,0,1,1.323.151h.151a9.339,9.339,0,0,1,5.254,3.931c.113.227.227.416.34.643Z" transform="translate(-385.09 -295.695)" fill="#faab8b"/>
          <g id="Grupo_1010650" data-name="Grupo 1010650" transform="translate(69.534 85.001)">
            <path id="Trazado_724150" data-name="Trazado 724150" d="M372.23,379.1h0v0Z" transform="translate(-372.23 -347.196)" fill="#24222d"/>
            <path id="Trazado_724151" data-name="Trazado 724151" d="M369.428,371.378v-.718a5.576,5.576,0,0,1-.038.794h.038Z" transform="translate(-358.692 -370.66)" fill="#3e4052"/>
          </g>
          <path id="Trazado_724152" data-name="Trazado 724152" d="M370.87,361.92c.756,4.536,3.818,12.588,3.818,12.588,4.65-1.1,15.952-16.216,17.426-18.258a35.946,35.946,0,0,1-1.777-7.862c-7.371-1.512-12.247,5.368-15.65,8.43a24.219,24.219,0,0,0-3.4,3.78c-.151.378-.265.832-.416,1.323Z" transform="translate(-317.439 -348.173)" fill="#faab8b"/>
          <path id="Trazado_724153" data-name="Trazado 724153" d="M372.12,357.295c0,.416.113,1.058.151,1.474,3.478.794,9.79-1.058,12.437-3.4a15.331,15.331,0,0,0,3.893-5.557s-2.344,4.045-6.124,5.632a30.05,30.05,0,0,1-10.357,1.852Z" transform="translate(-318.651 -343.623)" fill="#f99b79"/>
        </g>
        <path id="Trazado_724154" data-name="Trazado 724154" d="M364.886,369.713a5.739,5.739,0,0,0,.416,1.512c1.021,2.8,2.759,29.674,2.8,30.278a56.02,56.02,0,0,0,11.492.227c2.306-.265,4.082-.454,4.347-.454h.038c.6-6.729-.718-38.746-3.931-45.437-.076-.189-.3-.3-.491-.416h-.076a5.026,5.026,0,0,0-4.309-.3c-.34.113-.68.227-1.021.378a10.189,10.189,0,0,0-1.1.567c-4.574,2.608-8.278,8.467-8.278,13.041v.6Z" transform="translate(-286.393 -302.027)" fill="#ffac40"/>
        <path id="Trazado_724155" data-name="Trazado 724155" d="M395.154,369.086c0,5.1-17.5,27.028-17.5,27.028a10.551,10.551,0,0,1-4.347,2.344l-8.505-6.691a16.649,16.649,0,0,1,2.419-4.007l11.945-20.034s15.99-3.78,15.99,1.361Z" transform="translate(-297.534 -269.798)" fill="#eff1f1"/>
        <path id="Trazado_724156" data-name="Trazado 724156" d="M381.848,378.066a2.263,2.263,0,0,1-.567,2.495l-.038.038c-.3.34-2.268,2.268-2.419,2.419-.265.076-7.825-5.9-7.825-5.9l-.794-1.247,2.684-2.684h0a3.245,3.245,0,0,1,3.137-.454,8.832,8.832,0,0,1,5.859,5.33Z" transform="translate(-304.791 -252.658)" fill="#fff"/>
        <path id="Trazado_724157" data-name="Trazado 724157" d="M372.11,357.484v1.21c3.478.794,9-.983,11.643-3.327a15.332,15.332,0,0,0,3.893-5.557s-2.344,4.045-6.124,5.595a25.727,25.727,0,0,1-9.412,2Z" transform="translate(-317.658 -315.88)" fill="#f99b79"/>
        <path id="Trazado_724158" data-name="Trazado 724158" d="M369.9,361.272a16.17,16.17,0,0,1,.907,5.1,37.172,37.172,0,0,0,1.663,9.11,17.251,17.251,0,0,0,1.89,4.12h0c.34.529.567.869.718,1.134.718,1.172,7.069,0,10.811-1.588,3.742-1.55,6.124-5.594,6.124-5.594.453-.643.831-1.21,1.172-1.777,2.646-4.5,1.89-7.031,7.144-13.8-1.474-18.182-15.007-16.67-15.007-16.67-15.952,0-15.385,19.921-15.385,19.921Z" transform="translate(-321.988 -339.589)" fill="#faab8b"/>
        <path id="Trazado_724159" data-name="Trazado 724159" d="M389.743,356.847a6.378,6.378,0,0,0-4.65-.6,7.118,7.118,0,0,0-1.7.6c-2.117,1.021-13.8,2.382-13.759-2.457a12.972,12.972,0,0,1,2.419-7.56,3.863,3.863,0,0,0,.265-.378c3.7-4.8,12.663-7.145,21.017-4.536,7.674,2.381,8.43,9.6,8.09,14.629-.3,4.763-6.2,16.254-5.9,16.935a8.927,8.927,0,0,1-1.247-2.835,24.507,24.507,0,0,1,.643-2.948l-2-1.512.189,4.045v.945a5.287,5.287,0,0,1-1.021,3.667h0s-2.344,4.045-6.124,5.595c-3.742,1.588-9.942,2.949-11.189,1.323-.189-.227,0-.378-.34-.869h0a18.473,18.473,0,0,1-1.89-4.158s1.7,2.608,3.969,2.608c2.306,0,9.3-1.323,11.113-3.667a12.617,12.617,0,0,0,1.437-2.873,30.789,30.789,0,0,0,1.739-12.285,15.4,15.4,0,0,0-.189-2.306c-.076-.6-.378-1.323-.983-1.436Z" transform="translate(-322.137 -340.834)" fill="#100c06"/>
        <path id="Trazado_724160" data-name="Trazado 724160" d="M370.407,352.022a20.727,20.727,0,0,0,.68-2.948c.227-1.323.945-3.553,3.44-3.1,3.478.643-.076,7.976-1.323,8.656s-2.8-2.57-2.8-2.57h0Z" transform="translate(-299.588 -326.711)" fill="#faab8b"/>
        <path id="Trazado_724161" data-name="Trazado 724161" d="M378.361,349.27s-3.024.265-3.591,1.1,2,7.749,3.4,8.2,6.464-.189,6.464-.189.718-4.46.68-5.481-5.027-3.44-6.918-3.591Z" transform="translate(-325.081 -317.381)" fill="#100c06"/>
        <path id="Trazado_724162" data-name="Trazado 724162" d="M381.812,354.24c1.4-.491,1.777-1.928.491-2.684-1.361-.832-3.024-1.739-4.461-1.663a6.328,6.328,0,0,0-2.533.6c-.718.567,1.361,3.969,2.306,4.12a8.447,8.447,0,0,0,4.158-.378Z" transform="translate(-324.638 -315.661)" fill="#faab8b"/>
      </g>
      <path id="Trazado_724163" data-name="Trazado 724163" d="M380.448,378.767c.491,1.739-.378,2.911-2.041,2.986h-.643a4.454,4.454,0,0,1-.945-.151c-2.608-.681-5.216-3.062-5.821-5.33a3.664,3.664,0,0,1-.113-.869,2.174,2.174,0,0,1,.189-.983,2.2,2.2,0,0,1,2.079-1.21,4.306,4.306,0,0,1,1.323.151h.151a9.339,9.339,0,0,1,5.254,3.931c.113.227.227.416.34.643a6.039,6.039,0,0,1,.265.756Z" transform="translate(-305.961 -250.826)" fill="#eff1f1"/>
      <path id="Trazado_724164" data-name="Trazado 724164" d="M391.864,377.993a1.779,1.779,0,0,1-.076.189c-.68,1.4-1.21,2.57-1.663,3.553-.189.416-.378.832-.567,1.172-1.965,3.856-2.8,4.309-7.976,9.564-2.419,2.344-10.7,3.7-9.375.189.529-1.474,1.4-3.44,2.192-5.216,1.058-2.268,1.966-4.271,2.079-4.46-.151,0-1.134.265-2.192.416-1.7.265-3.667.416-3.251-.567.567-1.285,4.8-4.12,6.577-5.292h0c.34-.227.6-.378.718-.454a.117.117,0,0,1,.076-.038,28.174,28.174,0,0,0,2.873-1.7c.491-.3.983-.643,1.474-.907.718-.454,1.436-.87,2.079-1.21a4.308,4.308,0,0,1,1.323.151h.151a9.34,9.34,0,0,1,5.254,3.931c.113.227.227.416.34.643Z" transform="translate(-317.643 -250.771)" fill="#faab8b"/>
    </g>
    <g id="Grupo_1010654" data-name="Grupo 1010654" transform="translate(0 67.922)">
      <path id="Trazado_724166" data-name="Trazado 724166" d="M394.2,372.16l8.845,80.176-5.443,3.138-8.77-80.213Z" transform="translate(-285.823 -321.667)" fill="#ded3ba"/>
      <path id="Trazado_724167" data-name="Trazado 724167" d="M395.109,372.98l8.77,80.213-5.481-3.175-8.127-74.241Z" transform="translate(-292.101 -319.387)" fill="#efe7d5"/>
      <path id="Trazado_724168" data-name="Trazado 724168" d="M423.993,382.26,414.013,481l-5.443,3.175L419.23,379.5Z" transform="translate(-381.391 -301.261)" fill="#ded3ba"/>
      <path id="Trazado_724169" data-name="Trazado 724169" d="M425.971,381.835l-10.66,104.67-5.481-3.175L420.49,378.66Z" transform="translate(-388.132 -303.596)" fill="#efe7d5"/>
      <path id="Trazado_724170" data-name="Trazado 724170" d="M590.962,447.5,510.068,494.41,356.71,405.881l80.856-46.911Z" transform="translate(-352.325 -358.336)" fill="#efe7d5"/>
      <path id="Trazado_724171" data-name="Trazado 724171" d="M366.7,388.06l8.845,80.176-5.443,3.138L361.29,391.16Z" transform="translate(-154.217 -277.464)" fill="#ded3ba"/>
      <path id="Trazado_724172" data-name="Trazado 724172" d="M367.531,388.88l8.807,80.213-5.481-3.175-8.127-74.241Z" transform="translate(-160.458 -275.184)" fill="#efe7d5"/>
      <path id="Trazado_724173" data-name="Trazado 724173" d="M445.186,385.388v1.285l-30.505,17.615-5.368,3.1-4.838,2.8L355.56,438.649v-1.285a7.606,7.606,0,0,1,.34-2.23,11.047,11.047,0,0,1,2.268-3.931,7.828,7.828,0,0,1,1.739-1.436L440.8,382.818a4.31,4.31,0,0,1,1.512-.567,2.59,2.59,0,0,1,1.588.265,1.671,1.671,0,0,1,.416.3,3.574,3.574,0,0,1,.869,2.533Z" transform="translate(-202.202 -293.692)" fill="#ded3ba"/>
      <path id="Trazado_724174" data-name="Trazado 724174" d="M396.453,398.16l-9.98,98.736-5.443,3.175L391.652,395.4Z" transform="translate(-249.748 -257.058)" fill="#ded3ba"/>
      <path id="Trazado_724175" data-name="Trazado 724175" d="M398.4,397.735,387.781,502.406,382.3,499.23l10.622-104.67Z" transform="translate(-256.499 -259.393)" fill="#efe7d5"/>
      <path id="Trazado_724176" data-name="Trazado 724176" d="M359,359.1q76.66,44.284,153.358,88.53a2.893,2.893,0,0,0-1.588-.265,4.3,4.3,0,0,0-1.512.567L355.9,359.4a6.6,6.6,0,0,1,.718-.378,3.24,3.24,0,0,1,1.588-.189,1.407,1.407,0,0,1,.756.265Z" transform="translate(-270.659 -358.802)" fill="#e6ddc7"/>
      <path id="Trazado_724177" data-name="Trazado 724177" d="M382.505,371.38a7.052,7.052,0,0,0-1.739,1.437,11.041,11.041,0,0,0-2.268,3.931,7.668,7.668,0,0,0-.378,2.23v1.247L410.478,398.9l5.481,3.175,4.763,2.76L514.543,459l5.481,3.175,4.8,2.759,6.653,3.856v-1.285a7.61,7.61,0,0,1,.34-2.23,11.046,11.046,0,0,1,2.268-3.931,7.823,7.823,0,0,1,1.739-1.436L382.467,371.38Z" transform="translate(-378.12 -323.835)" fill="#e6ddc7"/>
    </g>
    <path id="Trazado_724178" data-name="Trazado 724178" d="M368.02,396.8l94.8,54.736,54.055-31.224-94.8-54.7Z" transform="translate(-320.996 -271.955)" fill="#fffbf0"/>
    <path id="Trazado_724179" data-name="Trazado 724179" d="M370.36,369.936l82.368,47.553,3.44-1.966L373.8,367.97Z" transform="translate(-269.129 -265.394)" fill="#ffac40"/>
    <g id="Grupo_1010655" data-name="Grupo 1010655" transform="translate(163.772 96.588)">
      <path id="Trazado_724180" data-name="Trazado 724180" d="M395.154,369.086c0,5.1-17.5,27.028-17.5,27.028a10.551,10.551,0,0,1-4.347,2.344l-8.505-6.691a16.649,16.649,0,0,1,2.419-4.007l11.945-20.034s15.99-3.78,15.99,1.361Z" transform="translate(-350.871 -366.386)" fill="#ffac40"/>
      <path id="Trazado_724181" data-name="Trazado 724181" d="M381.848,378.066a2.263,2.263,0,0,1-.567,2.495l-.038.038c-.3.34-2.268,2.268-2.419,2.419-.265.076-7.825-5.9-7.825-5.9l-.794-1.247,2.684-2.684h0a3.245,3.245,0,0,1,3.137-.454,8.832,8.832,0,0,1,5.859,5.33Z" transform="translate(-358.128 -349.245)" fill="#fff"/>
      <path id="Trazado_724182" data-name="Trazado 724182" d="M380.448,378.767c.491,1.739-.378,2.911-2.041,2.986h-.643a4.454,4.454,0,0,1-.945-.151c-2.608-.681-5.216-3.062-5.821-5.33a3.664,3.664,0,0,1-.113-.869,2.174,2.174,0,0,1,.189-.983,2.2,2.2,0,0,1,2.079-1.21,4.306,4.306,0,0,1,1.323.151h.151a9.339,9.339,0,0,1,5.254,3.931c.113.227.227.416.34.643a6.039,6.039,0,0,1,.265.756Z" transform="translate(-359.299 -347.414)" fill="#eff1f1"/>
      <path id="Trazado_724183" data-name="Trazado 724183" d="M391.864,377.993a1.779,1.779,0,0,1-.076.189c-.68,1.4-1.21,2.57-1.663,3.553-.189.416-.378.832-.567,1.172-1.965,3.856-2.8,4.309-7.976,9.564-2.419,2.344-10.7,3.7-9.375.189.529-1.474,1.4-3.44,2.192-5.216,1.058-2.268,1.966-4.271,2.079-4.46-.151,0-1.134.265-2.192.416-1.7.265-3.667.416-3.251-.567.567-1.285,4.8-4.12,6.577-5.292h0c.34-.227.6-.378.718-.454a.117.117,0,0,1,.076-.038,28.174,28.174,0,0,0,2.873-1.7c.491-.3.983-.643,1.474-.907.718-.454,1.436-.87,2.079-1.21a4.308,4.308,0,0,1,1.323.151h.151a9.34,9.34,0,0,1,5.254,3.931c.113.227.227.416.34.643Z" transform="translate(-370.98 -347.358)" fill="#faab8b"/>
    </g>
    <g id="Grupo_1010656" data-name="Grupo 1010656" transform="translate(117.674 84.734)">
      <path id="Trazado_724184" data-name="Trazado 724184" d="M380.94,375.724l8.467,7.333a9.637,9.637,0,0,0,4.2-2.344l6.766-6.728,2.457-2.268-11.3-8.467-7.938,8.543a16.869,16.869,0,0,0-2.646,3.893Z" transform="translate(-373.455 -363.25)" fill="#ff7f24"/>
      <path id="Trazado_724185" data-name="Trazado 724185" d="M395.958,371.886a2.262,2.262,0,0,1-.567,2.495l-.038.038c-.3.34-2.268,2.268-2.419,2.419-.264.076-7.825-5.9-7.825-5.9l-.794-1.247L387,367.01h0a3.246,3.246,0,0,1,3.138-.453,8.833,8.833,0,0,1,5.859,5.33Z" transform="translate(-379.477 -354.573)" fill="#fff"/>
      <path id="Trazado_724186" data-name="Trazado 724186" d="M384.992,369.187a2.287,2.287,0,0,0,.151.832,2.323,2.323,0,0,0,.265.643s-.038,0,0,.038a9.192,9.192,0,0,0,5.557,4.612,4.456,4.456,0,0,0,.945.151,1.835,1.835,0,0,0,.642,0,2.394,2.394,0,0,0,1.172-.378,1.258,1.258,0,0,0,.378-.227,2.113,2.113,0,0,0,.454-2.344,2.561,2.561,0,0,0-.265-.756c0-.038-.038-.038-.038-.075a3.824,3.824,0,0,0-.265-.567,2.288,2.288,0,0,0-.265-.378,8.651,8.651,0,0,0-4.952-3.516c-.038-.038-.076-.038-.151-.038h-.038a4.626,4.626,0,0,0-.718-.076,2.861,2.861,0,0,0-.567-.038,2.207,2.207,0,0,0-2.117,1.172,1.989,1.989,0,0,0-.189.983Z" transform="translate(-380.645 -352.63)" fill="#eff1f1"/>
      <path id="Trazado_724187" data-name="Trazado 724187" d="M385.11,383.392c.34,1.739,2.495,3.213,5.254,3.289a.9.9,0,0,0,.945-.6c.794-2.268,2.646-8.43,3.893-8.543a3.966,3.966,0,0,1-.34.756,7.534,7.534,0,0,0-.643,4.234c.075.416.983.832,1.172.454a9.7,9.7,0,0,1,1.663-2.873,10.98,10.98,0,0,0,1.134-2.193c.265-1.172.378-2.079.378-2.079v-1.021a26.305,26.305,0,0,1,.151-3.213,3.8,3.8,0,0,0-.265-.567,2.291,2.291,0,0,0-.265-.378,8.65,8.65,0,0,0-4.952-3.515c-.038-.038-.076-.038-.151-.038h-.038c-.567.718-1.323,1.588-2.155,2.495l-.567.567a.037.037,0,0,0-.038.038c-.151.151-.227.265-.378.416,0,0-.038,0,0,.038a17.411,17.411,0,0,0-4.461,9.564,16.1,16.1,0,0,0-.265,3.213Z" transform="translate(-385.11 -352.547)" fill="#f99b79"/>
    </g>
    <path id="Trazado_724188" data-name="Trazado 724188" d="M421.886,408.8l19.052-11-.34-.189-35.684-20.6-.113.075a11.563,11.563,0,0,1-5.519,1.663h-.151c-2.873-.076-5.557-1.663-11.453-5.1-1.436-.832-3.024-1.777-4.876-2.835l-.113-.076-5.254,3.024.34.189a6.188,6.188,0,0,1,2,1.965,3.473,3.473,0,0,1-.34,4.8,10.346,10.346,0,0,1-2.306,1.852l-.34.189.34.189,44.756,25.818Zm18.107-11-18.107,10.471-44.151-25.478a9.62,9.62,0,0,0,2.041-1.739,3.975,3.975,0,0,0,.416-5.406,7.414,7.414,0,0,0-1.814-1.928l4.309-2.495c1.777,1.02,3.364,1.965,4.763,2.8,5.935,3.515,8.656,5.1,11.68,5.179a11.069,11.069,0,0,0,5.822-1.663L440.069,397.8Z" transform="translate(-278.206 -257.721)" fill="#47313d"/>
    <path id="Trazado_724189" data-name="Trazado 724189" d="M411.082,397.474l.151-.151a2.271,2.271,0,0,1,1.55-.529h.113s.454.038.794.075a12.524,12.524,0,0,0,8.241-1.21l.151-.113c3.44-2.041,2.57-4.007,2.192-4.952a1.928,1.928,0,0,1-.151-.416c-.038-.416.643-.718.869-.794l.6-.189-.567-.227L392.56,375.36l-5.33,3.062,23.89,19.052Zm1.7-1.172a2.869,2.869,0,0,0-1.7.529L388.062,378.5l4.536-2.608L424.35,389.2c-.34.227-.756.567-.68,1.059a1.127,1.127,0,0,0,.189.529c.416.945,1.1,2.533-1.966,4.385l-.151.075a12.038,12.038,0,0,1-7.938,1.172c-.34-.038-.6-.076-.831-.113h-.151Z" transform="translate(-302.33 -244.849)" fill="#47313d"/>
  </g>
</svg>
