<svg id="Grupo_1023332" data-name="Grupo 1023332" xmlns="http://www.w3.org/2000/svg" width="385.458" height="330.386" viewBox="0 0 385.458 330.386">
  <g id="Grupo_1008382" data-name="Grupo 1008382" transform="translate(0 47.432)">
    <g id="Grupo_1008377" data-name="Grupo 1008377" transform="translate(0 94.155)">
      <path id="Trazado_717233" data-name="Trazado 717233" d="M606.908,350.186,520.178,478.9,262.16,420.956,348.89,292.24Z" transform="translate(-262.16 -290.103)" opacity="0.3"/>
      <path id="Trazado_717234" data-name="Trazado 717234" d="M606.908,349.566l-86.73,128.716L262.16,420.336,348.89,291.62Z" transform="translate(-262.16 -291.62)" fill="#2a4e68"/>
      <g id="Grupo_1008374" data-name="Grupo 1008374" transform="translate(37.298 62.703)">
        <path id="Trazado_717235" data-name="Trazado 717235" d="M325.861,317.56,300.352,355.41l-8.652-1.93,25.509-37.849,8.687,1.93Zm-26.336,36.781,24.44-36.3-5.929-1.344L293.6,353l5.964,1.344Z" transform="translate(-227.17 -295.568)" fill="#fff"/>
        <path id="Trazado_717236" data-name="Trazado 717236" d="M453.054,368.96c-15.547,23.1-28.542,37.16-35.678,38.642a4.861,4.861,0,0,1-2.654-.1h-.138l-.1-.138c-9.032-7.377-39.539-17.753-64.048-26.095-15.409-5.24-28.715-9.755-34.575-12.72-15.271-7.756-21.889-13.582-21.958-13.651l1.206-.448s6.584,5.791,21.683,13.478c5.757,2.93,19.028,7.411,34.368,12.651,24.544,8.342,55.051,18.718,64.392,26.233a3.331,3.331,0,0,0,1.31,0c5.136-1.034,16.96-11.617,34.85-38.125,17.856-26.508,21.51-38.918,18.959-41.71a1.571,1.571,0,0,0-.931-.517c-15.719,1.93-50.362-2.344-78.181-5.791-17.408-2.137-32.437-4-40.125-4.1-20.1-.241-31.645,1.448-31.748,1.482l-.345-.793s11.824-1.758,32.162-1.517c7.791.1,22.889,1.965,40.366,4.1,27.818,3.447,62.462,7.722,77.767,5.791h.31a3.241,3.241,0,0,1,2.034.965c3.551,3.861-3.344,19.3-18.925,42.4Z" transform="translate(-221.786 -295.364)" fill="#fff"/>
        <path id="Trazado_717237" data-name="Trazado 717237" d="M363.709,330.01l-.586.758c-2.9-.758-6.929-3.1-11.582-5.791-5.722-3.309-12.168-7.1-18.063-8.79a79.626,79.626,0,0,0-11.789-2.654c-3-.483-6.756-1.1-13.789-2.689-7.377,7.515.069,26.267,1.585,28.439l.242.379-.621.172c-3.516.965-31.128,12.065-34.471,20.338,7.032,1.586,10.479,2.585,13.306,3.378a79.478,79.478,0,0,0,11.789,2.654c6.343,1.034,15.512.793,23.613.586,6.584-.172,12.272-.345,15.305.241l-.448.793c-2.758-.517-8.618-.379-14.788-.207-8.2.207-17.477.483-24.061-.621a83.231,83.231,0,0,1-12.065-2.689c-2.861-.827-6.377-1.861-13.754-3.482l-.551-.138.1-.345c2.723-8.377,29.3-19.3,34.782-21.1-1.93-3.481-8.756-21.889-.931-29.128l.31-.31.552.138c7.377,1.655,11.169,2.275,14.237,2.792a96.039,96.039,0,0,1,12.065,2.723c6.1,1.792,12.651,5.584,18.442,8.963,4.343,2.516,8.48,4.929,11.134,5.619Z" transform="translate(-272.98 -309.81)" fill="#fff"/>
        <path id="Trazado_717238" data-name="Trazado 717238" d="M308.668,324.289a.989.989,0,0,1-.931.241l-24.13-5.412c-.379-.1-.552-.345-.414-.551a.934.934,0,0,1,.931-.242l24.1,5.412c.379.1.552.345.414.552Z" transform="translate(-248.102 -289.059)" fill="#fff"/>
      </g>
      <path id="Trazado_717239" data-name="Trazado 717239" d="M507.129,343.677a.989.989,0,0,1-.931.241L293.027,296.038c-.379-.1-.552-.345-.414-.552a1.059,1.059,0,0,1,.965-.241l213.171,47.881c.379.069.552.31.414.551Z" transform="translate(-187.752 -282.801)" fill="#535359"/>
      <path id="Trazado_717240" data-name="Trazado 717240" d="M318.419,295.569l-35.264,52.293a.88.88,0,0,1-.483.138c-.172-.035-.276-.172-.207-.276l35.264-52.293a.878.878,0,0,1,.483-.138C318.384,295.328,318.488,295.466,318.419,295.569Z" transform="translate(-212.523 -282.642)" fill="#fff"/>
      <path id="Trazado_717241" data-name="Trazado 717241" d="M338.4,299.493l-38.711,57.464a.922.922,0,0,1-.448.1c-.207-.034-.31-.172-.207-.276l38.711-57.429a.7.7,0,0,1,.483-.1c.207.035.276.172.207.276Z" transform="translate(-172.037 -272.984)" fill="#fff"/>
      <path id="Trazado_717242" data-name="Trazado 717242" d="M340.5,299.979l-38.711,57.464a.921.921,0,0,1-.448.1c-.207-.034-.276-.172-.207-.276l38.711-57.429a.84.84,0,0,1,.448-.138C340.47,299.738,340.573,299.876,340.5,299.979Z" transform="translate(-166.838 -271.85)" fill="#fff"/>
      <path id="Trazado_717243" data-name="Trazado 717243" d="M390.3,309.483,340.9,382.8a.7.7,0,0,1-.483.1c-.207-.035-.276-.138-.207-.276l49.4-73.32a.88.88,0,0,1,.483-.138c.172.035.276.172.207.276Z" transform="translate(-71.229 -248.676)" fill="#535359"/>
      <g id="Grupo_1008375" data-name="Grupo 1008375" transform="translate(177.532 35.766)">
        <path id="Trazado_717244" data-name="Trazado 717244" d="M444.153,331.822a1.018,1.018,0,0,1-.931.241l-129.1-29.025c-.379-.069-.551-.31-.414-.551a1.089,1.089,0,0,1,.965-.241l129.1,29.025c.379.069.551.31.413.552Z" transform="translate(-313.649 -301.437)" fill="#535359"/>
        <path id="Trazado_717245" data-name="Trazado 717245" d="M318.655,305.79a1.291,1.291,0,0,1-.276.207,1.017,1.017,0,0,1-1-.1l-3.585-3c-.241-.172-.138-.448.172-.586a1,1,0,0,1,1,.1l3.585,3s.138.276.069.379Z" transform="translate(-313.661 -301.432)" fill="#535359"/>
        <path id="Trazado_717246" data-name="Trazado 717246" d="M321.2,302.563a1.275,1.275,0,0,1-.517.276l-6.136.793c-.379.035-.793-.1-.862-.31-.1-.207.138-.448.552-.517l6.1-.793c.379-.069.793.1.862.31C321.236,302.39,321.2,302.494,321.2,302.563Z" transform="translate(-313.657 -301.996)" fill="#535359"/>
        <path id="Trazado_717247" data-name="Trazado 717247" d="M356.872,311.205a1.4,1.4,0,0,1-.517.241l-6.136.793c-.414.069-.793-.069-.862-.31-.1-.207.138-.448.552-.483l6.136-.793a.917.917,0,0,1,.862.31v.241Z" transform="translate(-226.368 -280.821)" fill="#535359"/>
        <path id="Trazado_717248" data-name="Trazado 717248" d="M355.054,313.365a.736.736,0,0,1-.276.172,1.017,1.017,0,0,1-1-.1l-3.585-3c-.207-.207-.138-.448.172-.586a1.083,1.083,0,0,1,1.034.1l3.585,2.964s.172.276.069.379Z" transform="translate(-224.55 -282.98)" fill="#535359"/>
      </g>
      <g id="Grupo_1008376" data-name="Grupo 1008376" transform="translate(104.746 19.506)">
        <path id="Trazado_717249" data-name="Trazado 717249" d="M345.369,309.61a.988.988,0,0,1-.931.241L293.007,298.3c-.379-.069-.552-.31-.414-.517a.911.911,0,0,1,.931-.241l51.4,11.548c.379.1.552.345.414.552Z" transform="translate(-292.546 -296.712)" fill="#535359"/>
        <path id="Trazado_717250" data-name="Trazado 717250" d="M297.544,301.036a1.288,1.288,0,0,1-.276.207,1,1,0,0,1-1-.1l-3.585-2.965c-.241-.172-.138-.448.207-.586a1.016,1.016,0,0,1,1,.1l3.585,3s.172.276.069.379Z" transform="translate(-292.533 -296.722)" fill="#535359"/>
        <path id="Trazado_717251" data-name="Trazado 717251" d="M300.073,297.835a1.276,1.276,0,0,1-.517.276l-6.136.793c-.379.034-.793-.1-.862-.31-.069-.241.172-.448.551-.517l6.136-.793c.379-.034.793.1.862.31A.588.588,0,0,1,300.073,297.835Z" transform="translate(-292.546 -297.279)" fill="#535359"/>
        <path id="Trazado_717252" data-name="Trazado 717252" d="M313.213,301.447a1.4,1.4,0,0,1-.517.241l-6.136.793a.917.917,0,0,1-.862-.31c-.069-.207.172-.448.552-.517l6.1-.793c.414-.069.793.1.862.31.035.069,0,.172,0,.241Z" transform="translate(-260.39 -288.549)" fill="#535359"/>
        <path id="Trazado_717253" data-name="Trazado 717253" d="M311.415,303.526a1.287,1.287,0,0,1-.275.207,1.017,1.017,0,0,1-1-.1l-3.585-2.964c-.241-.172-.138-.448.172-.586a1.017,1.017,0,0,1,1,.1l3.585,3s.172.276.069.379Z" transform="translate(-258.592 -290.628)" fill="#535359"/>
      </g>
      <path id="Trazado_717254" data-name="Trazado 717254" d="M351.36,311.757l-1.344,1.93L328.85,308.93l1.344-1.93Z" transform="translate(-98.961 -253.983)" fill="#535359"/>
      <path id="Trazado_717255" data-name="Trazado 717255" d="M318.511,304.407l-1.31,1.965-21.131-4.757,1.31-1.965Z" transform="translate(-179.178 -271.97)" fill="#535359"/>
    </g>
    <g id="Grupo_1008381" data-name="Grupo 1008381" transform="translate(20.544 0)">
      <path id="Trazado_717256" data-name="Trazado 717256" d="M638.614,373.122,469.463,470.779,273.7,357.747,442.851,260.09Z" transform="translate(-273.7 -257.953)" opacity="0.3"/>
      <path id="Trazado_717257" data-name="Trazado 717257" d="M638.614,372.5,469.463,470.159,273.7,357.127,442.851,259.47Z" transform="translate(-273.7 -259.47)" fill="#2a4e68"/>
      <path id="Trazado_717258" data-name="Trazado 717258" d="M489.712,358.906a1.1,1.1,0,0,1-1.034,0L324.767,264.248c-.276-.172-.276-.448,0-.586a1.031,1.031,0,0,1,1,0L489.712,358.32c.276.172.276.414,0,.586Z" transform="translate(-149.239 -249.528)" fill="#535359"/>
      <path id="Trazado_717259" data-name="Trazado 717259" d="M388.784,263.942,299.33,315.58a1.255,1.255,0,0,1-.517,0,.144.144,0,0,1,0-.276l89.453-51.672a1.257,1.257,0,0,1,.517,0c.138.069.138.207,0,.31Z" transform="translate(-212.497 -249.36)" fill="#535359"/>
      <path id="Trazado_717260" data-name="Trazado 717260" d="M388.061,271.992l-68.77,39.677s-.379.1-.517,0c-.138-.069-.138-.207,0-.31l68.736-39.677a1.257,1.257,0,0,1,.517,0c.138.069.138.207,0,.31Z" transform="translate(-163.653 -229.661)" fill="#535359"/>
      <path id="Trazado_717261" data-name="Trazado 717261" d="M389.671,272.933,320.9,312.609a1.257,1.257,0,0,1-.517,0c-.138-.069-.138-.207,0-.31l68.736-39.676s.379-.1.517,0c.138.069.138.207,0,.31Z" transform="translate(-159.713 -227.396)" fill="#535359"/>
      <path id="Trazado_717262" data-name="Trazado 717262" d="M441.238,291.378l-96.347,55.637a1.255,1.255,0,0,1-.517,0q-.207-.155,0-.31l96.347-55.6s.379-.1.483,0c.138.069.138.207,0,.31Z" transform="translate(-101.006 -182.173)" fill="#535359"/>
      <g id="Grupo_1008378" data-name="Grupo 1008378" transform="translate(227.223 54.266)">
        <path id="Trazado_717263" data-name="Trazado 717263" d="M438.828,332.5a1.1,1.1,0,0,1-1.034,0l-97.967-56.567c-.276-.172-.276-.414,0-.586a1.1,1.1,0,0,1,1.034,0l97.968,56.568C439.1,332.082,439.1,332.357,438.828,332.5Z" transform="translate(-339.608 -275.213)" fill="#535359"/>
        <path id="Trazado_717264" data-name="Trazado 717264" d="M342.076,279.464a1.842,1.842,0,0,1-.379.138c-.414.034-.793-.1-.862-.345l-1.207-3.551c-.069-.241.172-.448.586-.483a.916.916,0,0,1,.862.31l1.207,3.551a.578.578,0,0,1-.207.379Z" transform="translate(-339.617 -275.198)" fill="#535359"/>
        <path id="Trazado_717265" data-name="Trazado 717265" d="M347.04,276.612a1.916,1.916,0,0,1-.655.1l-6.17-.69c-.414-.034-.655-.276-.586-.482.069-.242.448-.379.862-.31l6.17.689c.414.035.655.276.586.483C347.247,276.508,347.143,276.543,347.04,276.612Z" transform="translate(-339.617 -275.207)" fill="#535359"/>
        <path id="Trazado_717266" data-name="Trazado 717266" d="M373.652,292.837a1.917,1.917,0,0,1-.655.1l-6.17-.69c-.379-.034-.655-.276-.552-.483.069-.241.448-.379.862-.345l6.17.689c.379.069.655.276.586.483,0,.1-.1.172-.207.207Z" transform="translate(-274.432 -235.554)" fill="#535359"/>
        <path id="Trazado_717267" data-name="Trazado 717267" d="M370.146,294.844a1.032,1.032,0,0,1-.379.1c-.379.035-.793-.1-.862-.31l-1.207-3.551c-.069-.207.172-.448.586-.483s.793.1.862.345l1.206,3.585a.45.45,0,0,1-.207.379Z" transform="translate(-270.926 -237.561)" fill="#535359"/>
      </g>
      <g id="Grupo_1008379" data-name="Grupo 1008379" transform="translate(170.449 21.492)">
        <path id="Trazado_717268" data-name="Trazado 717268" d="M363.388,288.938a1.1,1.1,0,0,1-1.034,0l-38.987-22.51c-.276-.172-.276-.414,0-.586a1.1,1.1,0,0,1,1.034,0l39.022,22.51c.276.172.276.414,0,.586Z" transform="translate(-323.114 -265.686)" fill="#535359"/>
        <path id="Trazado_717269" data-name="Trazado 717269" d="M325.606,269.964a1.335,1.335,0,0,1-.379.1c-.414.034-.793-.1-.862-.31l-1.206-3.551c-.069-.241.172-.448.586-.483s.793.1.862.31l1.207,3.551a.45.45,0,0,1-.207.379Z" transform="translate(-323.147 -265.671)" fill="#535359"/>
        <path id="Trazado_717270" data-name="Trazado 717270" d="M330.569,267.1a1.913,1.913,0,0,1-.655.1l-6.17-.689c-.379-.034-.655-.276-.586-.483.069-.241.448-.379.862-.31l6.17.69c.379.034.655.276.586.483A.311.311,0,0,1,330.569,267.1Z" transform="translate(-323.146 -265.705)" fill="#535359"/>
        <path id="Trazado_717271" data-name="Trazado 717271" d="M340.082,273.44a1.919,1.919,0,0,1-.655.1l-6.17-.69c-.379-.034-.655-.276-.552-.483.069-.207.448-.379.862-.31l6.17.69c.379.034.655.276.586.483a.311.311,0,0,1-.207.207Z" transform="translate(-299.808 -250.188)" fill="#535359"/>
        <path id="Trazado_717272" data-name="Trazado 717272" d="M336.576,275.488a1.031,1.031,0,0,1-.379.1c-.414.035-.793-.1-.862-.345l-1.207-3.551c-.069-.241.172-.448.586-.483s.793.1.862.345l1.206,3.55a.578.578,0,0,1-.207.379Z" transform="translate(-296.302 -252.237)" fill="#535359"/>
      </g>
      <path id="Trazado_717273" data-name="Trazado 717273" d="M368.549,292.433,366,293.915l-16.1-9.273,2.585-1.482Z" transform="translate(-87.229 -201.498)" fill="#535359"/>
      <path id="Trazado_717274" data-name="Trazado 717274" d="M343.195,277.778l-2.551,1.517-16.063-9.273,2.585-1.482Z" transform="translate(-149.19 -237.275)" fill="#535359"/>
      <g id="Grupo_1008380" data-name="Grupo 1008380" transform="translate(52.19 49.535)">
        <path id="Trazado_717275" data-name="Trazado 717275" d="M360.882,286.7,311.14,315.416l-6.55-3.792,49.742-28.715ZM311.14,314.244,358.848,286.7l-4.516-2.62-47.708,27.543,4.516,2.585Z" transform="translate(-250.298 -251.645)" fill="#fff"/>
        <path id="Trazado_717276" data-name="Trazado 717276" d="M320.536,292.137c-3.378,1.965-7.273,2.689-8.962,1.689-1.724-1-.448-3.206,2.93-5.171,3.413-1.965,7.273-2.689,9-1.724,1.724,1,.448,3.24-2.965,5.171Zm-5-2.9c-2.827,1.62-3.9,3.447-2.93,4,.931.517,4.1-.069,6.929-1.689,2.827-1.655,3.9-3.447,2.964-4s-4.1.069-6.929,1.689Z" transform="translate(-235.082 -242.843)" fill="#fff"/>
        <path id="Trazado_717277" data-name="Trazado 717277" d="M442.19,362.381c-30.335,17.511-52.052,27.37-59.635,27.06a4.146,4.146,0,0,1-2.379-.689l-.1-.069v-.1c-3.137-8.859-23.82-25.44-40.469-38.78-10.479-8.376-19.476-15.615-22.785-19.683-8.584-10.652-10.548-17.511-10.548-17.58l1.413-.138s2,6.825,10.445,17.374c3.24,4.033,12.2,11.2,22.648,19.545,16.65,13.34,37.367,29.921,40.642,38.987a2.228,2.228,0,0,0,1.207.276c5.446.207,23.647-6.687,58.463-26.819,34.85-20.131,46.847-30.645,46.433-33.782a.788.788,0,0,0-.483-.689c-15.685-1.9-44.434-13.857-67.529-23.475-14.443-6.032-26.887-11.2-33.851-13.065-18.235-4.895-29.956-6.032-30.094-6.032l.241-.827s12,1.138,30.473,6.1c7.066,1.9,19.614,7.1,34.092,13.134,23.1,9.617,51.81,21.544,67.15,23.337h.172l.138.069A1.682,1.682,0,0,1,489,327.91c.552,4.378-16.546,16.925-46.846,34.437Z" transform="translate(-246.186 -249.246)" fill="#fff"/>
        <path id="Trazado_717278" data-name="Trazado 717278" d="M393.392,305.416l-1.1.586c-2.1-1.379-4.171-4.447-6.55-8-2.9-4.378-6.2-9.307-10.445-12.237a50.592,50.592,0,0,0-8.928-5.171c-2.413-1.172-5.412-2.585-10.755-5.653-11.582,4.619-28.749,14.03-31.507,15.546.62.758,2.137,2.827,2.034,4.481v.379h-.689a33.242,33.242,0,0,1-7.756-1.172c-2.654,1.586-18.89,11.513-26.922,18.2,5.343,3.1,7.791,4.826,9.79,6.2a51.011,51.011,0,0,0,8.963,5.171c5.067,2.447,13.651,4.343,21.2,6.032,6.171,1.379,11.479,2.551,13.823,3.792l-.965.621c-2.172-1.138-7.618-2.344-13.375-3.619-7.653-1.689-16.339-3.619-21.614-6.171a55.083,55.083,0,0,1-9.169-5.274c-2.034-1.413-4.55-3.171-10.135-6.412l-.448-.241.345-.31c8.618-7.273,27.612-18.684,27.784-18.821l.379-.207.483.138a33.134,33.134,0,0,0,6.791,1.206c-.207-1.758-2.1-3.9-2.1-3.93l-.241-.276.414-.207c.207-.1,19.959-11.065,32.576-16.029l.517-.207.414.241c5.584,3.206,8.652,4.688,11.1,5.86a52.614,52.614,0,0,1,9.135,5.309c4.378,3.034,7.722,8.032,10.652,12.479,2.241,3.344,4.343,6.481,6.274,7.722Z" transform="translate(-288.84 -273.84)" fill="#fff"/>
      </g>
    </g>
  </g>
  <g id="Grupo_1010718" data-name="Grupo 1010718" transform="translate(55.676)">
    <g id="Grupo_1010646" data-name="Grupo 1010646" transform="translate(0)">
      <g id="Grupo_1010639" data-name="Grupo 1010639">
        <path id="Trazado_723964" data-name="Trazado 723964" d="M385.442,499.347,340.3,473.191l28.374-16.47L253.939,390.16l-123.779,71.9,114.776,66.562,41.388-24.022,47.233,26.07Z" transform="translate(-118.938 -231.821)" fill="#a0a2c1" opacity="0.2"/>
        <path id="Trazado_723965" data-name="Trazado 723965" d="M188.27,454.258l.256-5.163s-1.707-2.688-.981-8.405,6.315-19.755,2.56-40.535-15.574,3.456-15.36,6.912.512,17.408,1.621,27.9-7.979,31.66-8.875,32.3l-.9.64s-3.2,2.133-3.072,2.432c.085.3,4.395,1.621,4.395,1.621l6.912-1.237,6.315-6.23s.9-1.024,3.883-4.395l2.944-3.371.3-2.56Z" transform="translate(-9.961 -226.37)" fill="#f99b79"/>
        <path id="Trazado_723966" data-name="Trazado 723966" d="M193.041,405.24c-.427-.3-6.955,1.963-13.014,11.051s-8.875,8.747-10.027,8.662c0,0-8.747-.171-7.851,2.6s4.907,4.139,7.382,4.139,13.44.256,14.208-.469,3.371-9.9,6.016-10.027c0,0,.811-.213.9,4.181.043,4.395.171,8.32.171,8.32H192.7s-.683-9.259.939-11.99,2.9-4.608,2.9-6.272c0-3.84-.768-8.277-3.456-10.2Z" transform="translate(-14.647 -182.643)" fill="#140e11"/>
        <path id="Trazado_723967" data-name="Trazado 723967" d="M167.476,398.575c.939,10.838,1.621,18.6,1.835,45.783,0,1.664-4.864,15.446-8.7,22.059-4.267,7.382,15.275-5.461,14.592-5.248-.725.256,6.016-3.456,6.016-3.456s-1.195-12.288,0-20.651c4.822-32.171,1.621-30.593-.128-42.881l-13.654,4.352Z" transform="translate(-21.467 -218.688)" fill="#faab8b"/>
        <g id="Grupo_1010638" data-name="Grupo 1010638">
          <path id="Trazado_723968" data-name="Trazado 723968" d="M128.68,458.108,219.989,511.1l173.1-99.971L301.826,358.18Z" transform="translate(-123.773 -336.292)" fill="#fffbf0"/>
          <g id="Grupo_1010630" data-name="Grupo 1010630" transform="translate(122.158 87.511)">
            <path id="Trazado_723969" data-name="Trazado 723969" d="M156.16,392.056,217.9,375.97v1.109l-43.863,25.259Z" transform="translate(-156.16 -365.687)" fill="#24181e"/>
            <path id="Trazado_723970" data-name="Trazado 723970" d="M156.16,398.819l43.863-25.259L217.9,383.843,174.038,409.1Z" transform="translate(-156.16 -373.56)" fill="#47313d"/>
            <path id="Trazado_723971" data-name="Trazado 723971" d="M170.92,375.278l-2.645,1.536-2.475-1.408,2.645-1.536Z" transform="translate(-124.668 -372.547)" fill="#ded3ba"/>
            <path id="Trazado_723972" data-name="Trazado 723972" d="M170.1,375.791l-2.645,1.536-2.475-1.451,2.645-1.536Z" transform="translate(-127.347 -371.012)" fill="#ded3ba"/>
            <path id="Trazado_723973" data-name="Trazado 723973" d="M169.28,376.228l-2.645,1.536-2.475-1.408,2.645-1.536Z" transform="translate(-130.026 -369.444)" fill="#ded3ba"/>
            <path id="Trazado_723974" data-name="Trazado 723974" d="M168.427,376.741l-2.645,1.536-2.432-1.451,2.6-1.536Z" transform="translate(-132.672 -367.908)" fill="#ded3ba"/>
            <path id="Trazado_723975" data-name="Trazado 723975" d="M167.65,377.178,165,378.714l-2.475-1.408,2.645-1.536Z" transform="translate(-135.351 -366.34)" fill="#ded3ba"/>
            <path id="Trazado_723976" data-name="Trazado 723976" d="M166.83,377.691l-2.645,1.536-2.475-1.451,2.645-1.536Z" transform="translate(-138.029 -364.805)" fill="#ded3ba"/>
            <path id="Trazado_723977" data-name="Trazado 723977" d="M166.01,378.128l-2.645,1.536-2.475-1.408,2.645-1.536Z" transform="translate(-140.708 -363.237)" fill="#ded3ba"/>
            <path id="Trazado_723978" data-name="Trazado 723978" d="M165.19,378.641l-2.645,1.536-2.475-1.451,2.645-1.536Z" transform="translate(-143.387 -361.702)" fill="#ded3ba"/>
            <path id="Trazado_723979" data-name="Trazado 723979" d="M164.37,379.121l-2.645,1.493-2.475-1.408,2.645-1.536Z" transform="translate(-146.066 -360.133)" fill="#ded3ba"/>
            <path id="Trazado_723980" data-name="Trazado 723980" d="M163.55,379.558l-2.645,1.536-2.475-1.408,2.645-1.536Z" transform="translate(-148.744 -358.565)" fill="#ded3ba"/>
            <path id="Trazado_723981" data-name="Trazado 723981" d="M162.7,380.071l-2.6,1.536-2.475-1.45,2.645-1.536Z" transform="translate(-151.391 -357.03)" fill="#ded3ba"/>
            <path id="Trazado_723982" data-name="Trazado 723982" d="M161.92,380.508l-2.645,1.536-2.475-1.408,2.645-1.536Z" transform="translate(-154.069 -355.462)" fill="#ded3ba"/>
            <path id="Trazado_723983" data-name="Trazado 723983" d="M173.09,375.741l-4.608,2.688-2.432-1.451,4.608-2.688Z" transform="translate(-123.851 -371.175)" fill="#ded3ba"/>
            <path id="Trazado_723984" data-name="Trazado 723984" d="M170.388,376.441l-2.645,1.536-2.432-1.451,2.645-1.536Z" transform="translate(-126.269 -368.889)" fill="#ded3ba"/>
            <path id="Trazado_723985" data-name="Trazado 723985" d="M169.61,376.878l-2.645,1.536-2.475-1.408,2.645-1.536Z" transform="translate(-128.948 -367.32)" fill="#ded3ba"/>
            <path id="Trazado_723986" data-name="Trazado 723986" d="M168.79,377.391l-2.645,1.536-2.475-1.451,2.645-1.536Z" transform="translate(-131.627 -365.785)" fill="#ded3ba"/>
            <path id="Trazado_723987" data-name="Trazado 723987" d="M167.97,377.828l-2.645,1.536-2.475-1.408,2.645-1.536Z" transform="translate(-134.305 -364.217)" fill="#ded3ba"/>
            <path id="Trazado_723988" data-name="Trazado 723988" d="M167.15,378.341l-2.645,1.536-2.475-1.451,2.645-1.536Z" transform="translate(-136.984 -362.682)" fill="#ded3ba"/>
            <path id="Trazado_723989" data-name="Trazado 723989" d="M166.33,378.778l-2.645,1.536-2.475-1.408,2.645-1.536Z" transform="translate(-139.663 -361.114)" fill="#ded3ba"/>
            <path id="Trazado_723990" data-name="Trazado 723990" d="M165.477,379.258l-2.645,1.536-2.432-1.408,2.6-1.536Z" transform="translate(-142.309 -359.546)" fill="#ded3ba"/>
            <path id="Trazado_723991" data-name="Trazado 723991" d="M164.658,379.771l-2.6,1.536-2.475-1.451,2.645-1.536Z" transform="translate(-144.988 -358.01)" fill="#ded3ba"/>
            <path id="Trazado_723992" data-name="Trazado 723992" d="M163.88,380.208l-2.646,1.536-2.475-1.408,2.645-1.536Z" transform="translate(-147.666 -356.442)" fill="#ded3ba"/>
            <path id="Trazado_723993" data-name="Trazado 723993" d="M171.55,376.588l-2.645,1.536-2.475-1.408,2.646-1.536Z" transform="translate(-122.61 -368.268)" fill="#ded3ba"/>
            <path id="Trazado_723994" data-name="Trazado 723994" d="M175.7,378.071,171,380.8l-2.475-1.451,2.048-1.195-3.328-1.92L169.9,374.7Z" transform="translate(-119.931 -369.836)" fill="#ded3ba"/>
            <path id="Trazado_723995" data-name="Trazado 723995" d="M173.858,377.031l-2.645,1.536-2.432-1.451,2.6-1.536Z" transform="translate(-114.933 -366.961)" fill="#ded3ba"/>
            <path id="Trazado_723996" data-name="Trazado 723996" d="M171.93,377.311l-2.645,1.536L166.81,377.4l2.645-1.536Z" transform="translate(-121.369 -366.046)" fill="#ded3ba"/>
            <path id="Trazado_723997" data-name="Trazado 723997" d="M173.08,377.468,170.435,379,167.96,377.6l2.645-1.536Z" transform="translate(-117.612 -365.393)" fill="#ded3ba"/>
            <path id="Trazado_723998" data-name="Trazado 723998" d="M170.73,377.1l-2.645,1.536-2.475-1.451,2.645-1.536Z" transform="translate(-125.289 -366.732)" fill="#ded3ba"/>
            <path id="Trazado_723999" data-name="Trazado 723999" d="M171.077,377.748l-2.645,1.536L166,377.876l2.6-1.536Z" transform="translate(-124.015 -364.478)" fill="#ded3ba"/>
            <path id="Trazado_724000" data-name="Trazado 724000" d="M172.26,377.981l-2.645,1.536-2.475-1.451,2.645-1.536Z" transform="translate(-120.291 -363.858)" fill="#ded3ba"/>
            <path id="Trazado_724001" data-name="Trazado 724001" d="M169.91,377.538l-2.645,1.536-2.475-1.408,2.645-1.536Z" transform="translate(-127.968 -365.164)" fill="#ded3ba"/>
            <path id="Trazado_724002" data-name="Trazado 724002" d="M170.257,378.261l-2.6,1.536-2.475-1.451,2.645-1.536Z" transform="translate(-126.694 -362.943)" fill="#ded3ba"/>
            <path id="Trazado_724003" data-name="Trazado 724003" d="M171.44,378.418l-2.645,1.536-2.475-1.408,2.645-1.536Z" transform="translate(-122.97 -362.29)" fill="#ded3ba"/>
            <path id="Trazado_724004" data-name="Trazado 724004" d="M169.09,378.051l-2.645,1.536-2.475-1.451,2.645-1.536Z" transform="translate(-130.646 -363.629)" fill="#ded3ba"/>
            <path id="Trazado_724005" data-name="Trazado 724005" d="M168.237,378.488l-2.645,1.536-2.432-1.408,2.6-1.536Z" transform="translate(-133.293 -362.061)" fill="#ded3ba"/>
            <path id="Trazado_724006" data-name="Trazado 724006" d="M167.46,379l-2.645,1.536-2.475-1.408,2.645-1.579Z" transform="translate(-135.971 -360.526)" fill="#ded3ba"/>
            <path id="Trazado_724007" data-name="Trazado 724007" d="M166.64,379.438l-2.645,1.536-2.475-1.408,2.645-1.536Z" transform="translate(-138.65 -358.958)" fill="#ded3ba"/>
            <path id="Trazado_724008" data-name="Trazado 724008" d="M165.82,379.918l-2.645,1.536-2.475-1.408,2.646-1.536Z" transform="translate(-141.329 -357.389)" fill="#ded3ba"/>
            <path id="Trazado_724009" data-name="Trazado 724009" d="M169.48,378.7l-2.645,1.536-2.475-1.408,2.645-1.536Z" transform="translate(-129.372 -361.375)" fill="#ded3ba"/>
            <path id="Trazado_724010" data-name="Trazado 724010" d="M168.66,379.211l-2.645,1.536L163.54,379.3l2.645-1.536Z" transform="translate(-132.051 -359.84)" fill="#ded3ba"/>
            <path id="Trazado_724011" data-name="Trazado 724011" d="M167.84,379.648l-2.645,1.536-2.475-1.408,2.645-1.536Z" transform="translate(-134.73 -358.272)" fill="#ded3ba"/>
            <path id="Trazado_724012" data-name="Trazado 724012" d="M167.02,380.128l-2.646,1.536-2.475-1.408,2.645-1.536Z" transform="translate(-137.409 -356.703)" fill="#ded3ba"/>
            <path id="Trazado_724013" data-name="Trazado 724013" d="M166.2,380.641l-2.645,1.536-2.475-1.451,2.645-1.536Z" transform="translate(-140.087 -355.168)" fill="#ded3ba"/>
            <path id="Trazado_724014" data-name="Trazado 724014" d="M181.3,378.9l-16.6,9.643-2.475-1.408,16.6-9.643Z" transform="translate(-136.331 -360.721)" fill="#ded3ba"/>
            <path id="Trazado_724015" data-name="Trazado 724015" d="M165,380.431l-2.645,1.536-2.475-1.451,2.645-1.536Z" transform="translate(-144.008 -355.854)" fill="#ded3ba"/>
            <path id="Trazado_724016" data-name="Trazado 724016" d="M165.347,381.078l-2.645,1.536-2.432-1.408,2.645-1.536Z" transform="translate(-142.734 -353.6)" fill="#ded3ba"/>
            <path id="Trazado_724017" data-name="Trazado 724017" d="M166.53,381.311l-2.645,1.536L161.41,381.4l2.645-1.536Z" transform="translate(-139.009 -352.979)" fill="#ded3ba"/>
            <path id="Trazado_724018" data-name="Trazado 724018" d="M166.859,380.868l-6.144,3.584L158.24,383l6.144-3.541Z" transform="translate(-149.365 -354.286)" fill="#ded3ba"/>
            <path id="Trazado_724019" data-name="Trazado 724019" d="M165.9,381.558l-4.395,2.56-2.475-1.408,4.395-2.56Z" transform="translate(-146.784 -352.032)" fill="#ded3ba"/>
            <path id="Trazado_724020" data-name="Trazado 724020" d="M165.71,381.748l-2.645,1.536-2.475-1.408,2.645-1.536Z" transform="translate(-141.688 -351.411)" fill="#ded3ba"/>
            <path id="Trazado_724021" data-name="Trazado 724021" d="M164.89,382.228l-2.645,1.536-2.475-1.408,2.645-1.536Z" transform="translate(-144.367 -349.843)" fill="#ded3ba"/>
            <path id="Trazado_724022" data-name="Trazado 724022" d="M164.389,380.711l-4.395,2.56-2.475-1.451,4.395-2.56Z" transform="translate(-151.717 -354.939)" fill="#ded3ba"/>
            <path id="Trazado_724023" data-name="Trazado 724023" d="M174.038,390.872v-1.109L156.16,379.48v1.109Z" transform="translate(-156.16 -354.221)" fill="#140e11"/>
          </g>
          <path id="Trazado_724024" data-name="Trazado 724024" d="M143.244,387.27l-9.984,90.5,6.144,3.541,9.9-90.541Z" transform="translate(-108.811 -241.262)" fill="#ded3ba"/>
          <path id="Trazado_724025" data-name="Trazado 724025" d="M144.6,388.09l-9.9,90.541,6.187-3.542,9.174-83.842Z" transform="translate(-104.107 -238.583)" fill="#efe7d5"/>
          <path id="Trazado_724026" data-name="Trazado 724026" d="M127.53,385.005v1.451l34.433,19.883,6.059,3.5L173.483,413,228.7,445.124v-1.45a8.587,8.587,0,0,0-.384-2.517,12.465,12.465,0,0,0-2.56-4.438,8.833,8.833,0,0,0-1.963-1.621L132.479,382.1a4.865,4.865,0,0,0-1.707-.64,2.925,2.925,0,0,0-1.792.3,1.9,1.9,0,0,0-.469.341,4.036,4.036,0,0,0-.981,2.859Z" transform="translate(-127.53 -260.331)" fill="#ded3ba"/>
          <path id="Trazado_724027" data-name="Trazado 724027" d="M153,397.725l11.264,111.448,6.144,3.584L158.419,394.61Z" transform="translate(-44.325 -217.284)" fill="#ded3ba"/>
          <path id="Trazado_724028" data-name="Trazado 724028" d="M154.27,397.354,166.26,515.5l6.187-3.584L160.457,393.77Z" transform="translate(-40.176 -220.028)" fill="#efe7d5"/>
          <path id="Trazado_724029" data-name="Trazado 724029" d="M300.973,358.354q-86.53,49.986-173.1,99.928a2.925,2.925,0,0,1,1.792-.3,4.868,4.868,0,0,1,1.707.64l173.1-99.928a7.447,7.447,0,0,0-.811-.427,3.657,3.657,0,0,0-1.792-.213,1.588,1.588,0,0,0-.853.3Z" transform="translate(-126.419 -336.807)" fill="#fffbf0"/>
          <path id="Trazado_724030" data-name="Trazado 724030" d="M185.949,378.71l-5.419,3.157,11.264,111.448,6.144,3.541Z" transform="translate(45.609 -269.225)" fill="#ded3ba"/>
          <path id="Trazado_724031" data-name="Trazado 724031" d="M181.8,381.421l11.99,118.147,6.187-3.541L187.987,377.88Z" transform="translate(49.758 -271.937)" fill="#efe7d5"/>
          <path id="Trazado_724032" data-name="Trazado 724032" d="M323.15,370.59a7.963,7.963,0,0,1,1.963,1.622,12.464,12.464,0,0,1,2.56,4.437,8.659,8.659,0,0,1,.427,2.517v1.408l-36.524,21.078-6.187,3.584-5.376,3.115-105.9,61.143-6.187,3.584-5.419,3.115L155,480.545v-1.451a8.587,8.587,0,0,0-.384-2.517,12.466,12.466,0,0,0-2.56-4.437,8.836,8.836,0,0,0-1.963-1.622l173.1-99.928Z" transform="translate(-53.831 -295.752)" fill="#e6ddc7"/>
          <g id="Grupo_1010631" data-name="Grupo 1010631" transform="translate(11.264)">
            <path id="Trazado_724033" data-name="Trazado 724033" d="M171.6,354.5l-1.92-1.109a2.834,2.834,0,0,0-2.688,0l1.749,1.28c.939-.555,2.816-.085,2.816-.128Z" transform="translate(-9.887 -353.05)" fill="#fffbf0"/>
            <path id="Trazado_724034" data-name="Trazado 724034" d="M132.133,376.452,130.17,375.3l.043,23.681,2.005,1.152Z" transform="translate(-130.17 -280.365)" fill="#ded3ba"/>
            <path id="Trazado_724035" data-name="Trazado 724035" d="M286.943,354.367l-2.176-1.237L130.95,441.964l1.963,1.152Z" transform="translate(-127.622 -352.789)" fill="#fffbf0"/>
            <path id="Trazado_724036" data-name="Trazado 724036" d="M133.489,442.81a7.092,7.092,0,0,0-2.859,5.5l.085,23.681L291.19,379.278,291.1,355.6c0-2.133-1.493-2.987-3.8-1.664L133.489,442.81Z" transform="translate(-128.668 -352.227)" fill="#efe7d5"/>
            <path id="Trazado_724037" data-name="Trazado 724037" d="M135.461,375.1,133.5,373.95a7.349,7.349,0,0,0-3.328,5.76l1.963,1.152A7.349,7.349,0,0,1,135.461,375.1Z" transform="translate(-130.17 -284.775)" fill="#fffbf0"/>
          </g>
          <g id="Grupo_1010632" data-name="Grupo 1010632" transform="translate(70.189 6.809)">
            <path id="Trazado_724038" data-name="Trazado 724038" d="M210.788,355.857a1.173,1.173,0,0,0-.768-.085,1.572,1.572,0,0,0-.725.213.21.21,0,0,0-.128.043l-62.508,36.1-2.219-1.109,62.508-36.1s.256-.128.384-.171a1.7,1.7,0,0,1,.811-.085.688.688,0,0,1,.384.128h0c.725.384,1.451.725,2.219,1.109Z" transform="translate(-142.477 -354.646)" fill="#47313d"/>
            <path id="Trazado_724039" data-name="Trazado 724039" d="M163.868,376.593a1.168,1.168,0,0,0,.213.171l-1.323.768-12.032,6.955a1.672,1.672,0,0,1-.213-.171.686.686,0,0,1-.213-.469v-.256l.853-4.608L162.93,372.2l1.621-.939-.811,4.608v.256a1.577,1.577,0,0,0,.213.469Z" transform="translate(-123.334 -300.372)" fill="#140e11"/>
            <path id="Trazado_724040" data-name="Trazado 724040" d="M149.484,417.486l-2.048-1.024a.132.132,0,0,1-.085-.043h0a3.422,3.422,0,0,1-.341-.256,2.021,2.021,0,0,1-.3-.512,2.169,2.169,0,0,1-.128-.725l-2.6-47.788a3.546,3.546,0,0,1,.128-1.152,5.238,5.238,0,0,1,1.067-2.048,3.872,3.872,0,0,1,.9-.768l2.219,1.109a3.071,3.071,0,0,0-.9.768,4.731,4.731,0,0,0-1.067,2.048,5.294,5.294,0,0,0-.128,1.152l2.6,47.788v.3a2.252,2.252,0,0,0,.128.512A1.359,1.359,0,0,0,149.484,417.486Z" transform="translate(-143.98 -326.8)" fill="#24181e"/>
            <path id="Trazado_724041" data-name="Trazado 724041" d="M161.526,384.1v1.536l-10.411-6.016h0l-.768-.426a.622.622,0,0,1-.128-.085s-.085-.085-.085-.128a.618.618,0,0,0-.085-.128c0-.043-.043-.085-.085-.128a.156.156,0,0,0-.043-.128v-.256l.768-4.309,1.621-.939-.853,4.608v.256a1.573,1.573,0,0,0,.213.469.426.426,0,0,0,.213.171l9.643,5.547Z" transform="translate(-124.575 -294.394)" fill="#24181e"/>
            <path id="Trazado_724042" data-name="Trazado 724042" d="M166.944,374.193v1.536a.871.871,0,0,1-.085.384,1.825,1.825,0,0,1-.853.853l-8.918,5.163a4.652,4.652,0,0,1-1.067.427,5.249,5.249,0,0,1-2.3,0,3.292,3.292,0,0,1-1.067-.427v-1.536a3.3,3.3,0,0,0,1.067.427,5.248,5.248,0,0,0,2.3,0,3.285,3.285,0,0,0,1.067-.427L166,375.43a2.412,2.412,0,0,0,.64-.512h0a1.328,1.328,0,0,0,.3-.768Z" transform="translate(-115.657 -290.931)" fill="#24181e"/>
            <path id="Trazado_724043" data-name="Trazado 724043" d="M174.327,379.387a1.328,1.328,0,0,1-.3.768h0a1.887,1.887,0,0,1-.64.512l-8.918,5.163a3.292,3.292,0,0,1-1.067.427,5.251,5.251,0,0,1-2.3,0,3.29,3.29,0,0,1-1.067-.427l-9.643-5.547,12.032-6.955,1.365-.768,9.643,5.547a1.89,1.89,0,0,1,.64.512,1.329,1.329,0,0,1,.3.768Z" transform="translate(-123.04 -296.125)" fill="#47313d"/>
            <path id="Trazado_724044" data-name="Trazado 724044" d="M213.943,405.406a5.237,5.237,0,0,1-1.067,2.048,2.924,2.924,0,0,1-.9.725l-62.508,36.1a2.639,2.639,0,0,1-.811.3,1.625,1.625,0,0,1-.768-.128h-.085a1.359,1.359,0,0,1-.555-.64,2.406,2.406,0,0,1-.171-.512V443l-2.6-47.788a3.543,3.543,0,0,1,.128-1.152,5.235,5.235,0,0,1,1.067-2.048,2.923,2.923,0,0,1,.9-.726l62.508-36.1a.21.21,0,0,0,.128-.043,2.1,2.1,0,0,1,.683-.213,1.625,1.625,0,0,1,.768.128.132.132,0,0,1,.085.043,1.358,1.358,0,0,1,.555.64,1.911,1.911,0,0,1,.171.853l2.6,47.788a3.543,3.543,0,0,1-.128,1.152Z" transform="translate(-142.347 -353.719)" fill="#33242c"/>
            <path id="Trazado_724045" data-name="Trazado 724045" d="M147.7,436.345s-.256,0-.341-.085a.753.753,0,0,1-.341-.384l-.128-.384v-.256l-2.261-40.492a3.82,3.82,0,0,1,.085-.981,5,5,0,0,1,.939-1.835,2.358,2.358,0,0,1,.725-.6l62.508-36.1a3.392,3.392,0,0,1,.555-.213h.085a1.2,1.2,0,0,1,.341.043.753.753,0,0,1,.341.384,1.425,1.425,0,0,1,.128.64l2.261,40.492a3.986,3.986,0,0,1-.085.981,5,5,0,0,1-.939,1.835,2.357,2.357,0,0,1-.725.6l-62.508,36.1a5.243,5.243,0,0,1-.555.213H147.7Z" transform="translate(-141.857 -353.424)" fill="#fff"/>
          </g>
          <path id="Trazado_724046" data-name="Trazado 724046" d="M165.85,428.014l44.2-26.71s9.174,5.035,14.422,12.331l11.435-6.912,18.475,10.155,2.3-22.7,3.669-2.219-3.029,29.7-45.911,27.691.469-4.438c-3.755,2.9-6.656,4.736-6.656,4.779l-39.34-21.718Z" transform="translate(-2.347 -225.94)" fill="#fffbf0"/>
          <path id="Trazado_724047" data-name="Trazado 724047" d="M213.4,393.43q-24.257,14.657-48.471,29.27h0a2.059,2.059,0,0,0,.213-.085,3.267,3.267,0,0,1,1.92-.085,7.357,7.357,0,0,1,1.835.683l44.2-26.71Z" transform="translate(-5.352 -221.138)" fill="#fffbf0"/>
          <g id="Grupo_1010636" data-name="Grupo 1010636" transform="translate(127.351 49.579)">
            <path id="Trazado_724048" data-name="Trazado 724048" d="M185.366,379.739a22.219,22.219,0,0,0-9.131-4.139,14.4,14.4,0,0,0-10.838,2.346s-.64.981,1.109,2.987c0,0,6.059-1.237,8.96-.171,0,0,3.2,1.664,3.371,2.517,0,0-6.059-.469-6.23.811,0,0-.469,1.28,3.627,1.877a33.548,33.548,0,0,0,9.387-.341l-.683-5.462.384-.512Z" transform="translate(-131.549 -329.903)" fill="#f99b79"/>
            <path id="Trazado_724049" data-name="Trazado 724049" d="M168.8,385.038c0,2.944,2.389,3.968,5.334,2.262s5.333-5.462,5.333-8.448-2.389-3.968-5.333-2.261S168.8,382.051,168.8,385.038Z" transform="translate(-120.06 -328.461)" fill="#24181e"/>
            <path id="Trazado_724050" data-name="Trazado 724050" d="M175.3,377.83l1.451-1.92s28.843,10.838,39.852,10.07l-8.022,12.758s-37.932-8.448-39.425-11.307l6.187-9.558Z" transform="translate(-118.884 -327.952)" fill="#24181e"/>
            <path id="Trazado_724051" data-name="Trazado 724051" d="M180.3,393.563s-1.749-1.749-1.408-5.376-6.059-8.406-7.3-8.406a6.484,6.484,0,0,0-2.944,1.323s-2.859-1.622-3.627-2.816-4.949,4.352-5.333,6.4c-.341,2.091,2.56,7.083,4.139,8.832,1.621,1.75,6.827,3.328,6.827,3.328l5.632,3.755,4.011-7.083Z" transform="translate(-149.907 -320.729)" fill="#faab8b"/>
            <g id="Grupo_1010635" data-name="Grupo 1010635">
              <g id="Grupo_1010634" data-name="Grupo 1010634" transform="translate(0 7.04)">
                <path id="Trazado_724052" data-name="Trazado 724052" d="M189.305,407.426s2.475,2.048,2.475,7.979c0,2.134-1.536,4.352-2.688,5.717a5.346,5.346,0,0,0-1.365,3.541V435.63h-2.091V423.214s-1.92-2.048-6.571,4.565-6.7,5.589-11.9,5.845-11.008-2.987-9.558-4.224,8.406-1.749,9.558-3.243,6.187-8.662,9.344-11.648,9.771-7.254,12.843-7.168Z" transform="translate(-157.377 -232.318)" fill="#140e11"/>
                <path id="Trazado_724053" data-name="Trazado 724053" d="M177.547,370.971s-1.707,2.944-1.707,11.691,3.968,17.665,8.875,21.206l8.278,1.365,8.406-10.411,5.291-16.683-7.211-6.272-8.235-3.541-3.285-2.005h-6.784l-3.669,4.693Z" transform="translate(-97.062 -366.32)" fill="#faab8b"/>
                <g id="Grupo_1010633" data-name="Grupo 1010633" transform="translate(29.112 197.381)">
                  <path id="Trazado_724054" data-name="Trazado 724054" d="M164.2,412.821a1.167,1.167,0,0,1,.213-.171C164.328,412.693,164.285,412.778,164.2,412.821Z" transform="translate(-164.2 -412.352)" fill="#24222e"/>
                  <path id="Trazado_724055" data-name="Trazado 724055" d="M164.31,412.665s.085-.085.128-.085C164.4,412.58,164.353,412.665,164.31,412.665Z" transform="translate(-163.841 -412.58)" fill="#24222e"/>
                </g>
              </g>
              <path id="Trazado_724056" data-name="Trazado 724056" d="M273.1,393.564c5.5-13.526-6.528-17.494-6.528-17.494l-7.637,1.963c-2.219,8.662-23.51,8.448-23.51,8.448l-9.43,8.32s-5.205,4.864-7.979,7.979a20.724,20.724,0,0,0-4.309,7.126c-.555,1.621-1.152,3.328-1.621,4.907l-.256.768-.384,1.28v.085a23.052,23.052,0,0,0-.683,3.029c-.341,2.688,3.456,8.32,6.016,13.483-4.736-1.45-16.3-5.077-19.926-5.461-4.309-.427-24.534,10.5-24.534,10.5-3.925,3.115-7.51,5.974-9.046,8.064-2.432,3.328-2.9,11.35-2.859,17.323,0,2.731,2.048,5.206,6.144,7.51,2.261-1.237,21.078-.043,29.526,6.1,20.054,14.678,32.812,18.475,51.244,10.07,16.683-7.6,21.291-15.4,20.523-22.571s-8.662-27.307-7.808-37.462,7.595-20.566,13.056-34.091Z" transform="translate(-147.471 -327.429)" fill="#33242c"/>
              <path id="Trazado_724057" data-name="Trazado 724057" d="M178.876,369.961c-.9.427-6.23,10.24-1.792,17.792l4.438,7.552s7.125-3.8,6.656,1.536c-.427,5.334-2.432,12.2-4.651,17.792s-1.109,17.11,9.771,14.678,14.891-4.992,20.651-6.827,9.558-9.6,6.87-17.152c-2.645-7.552-2.9-16.427-3.8-18.9-.9-2.432-4.907-21.76-21.121-21.76-13.1,0-17.11,5.333-17.11,5.333Z" transform="translate(-98.69 -364.67)" fill="#140e11"/>
              <path id="Trazado_724058" data-name="Trazado 724058" d="M182,370.71a13.765,13.765,0,0,1,2.091,9.216,27.372,27.372,0,0,1-2.773,8.832c-1.237,2.773-2.6,5.5-3.669,8.363a11.157,11.157,0,0,0-.811,4.395,8.033,8.033,0,0,0,1.493,4.224,7.526,7.526,0,0,1-1.664-4.224,11.669,11.669,0,0,1,.683-4.523c.939-2.9,2.219-5.717,3.328-8.534a25.941,25.941,0,0,0,2.347-8.619,14.9,14.9,0,0,0-.341-4.352,10.033,10.033,0,0,0-1.749-3.8l1.109-.939Z" transform="translate(-94.437 -344.939)" fill="#140e11"/>
              <path id="Trazado_724059" data-name="Trazado 724059" d="M184.983,367.453a49.232,49.232,0,0,1,4.907,9.557,28.046,28.046,0,0,1,1.408,5.248c.256,1.792.384,3.542.768,5.248a17.059,17.059,0,0,0,1.835,4.907,15.926,15.926,0,0,1,1.621,5.12,17.327,17.327,0,0,1-1.579,10.454,17.476,17.476,0,0,0,1.195-10.411,16.691,16.691,0,0,0-1.749-4.949,17.6,17.6,0,0,1-2.048-4.992c-.469-1.749-.64-3.584-.981-5.291a25.95,25.95,0,0,0-1.536-4.992,49.556,49.556,0,0,0-5.163-9.259l1.28-.683Z" transform="translate(-71.516 -355.719)" fill="#140e11"/>
            </g>
            <path id="Trazado_724060" data-name="Trazado 724060" d="M187.645,394.242c0,3.84-3.115,5.163-7,2.944-3.84-2.219-7-7.168-7-11.008s3.115-5.163,7-2.944C184.488,385.453,187.645,390.4,187.645,394.242Z" transform="translate(-104.217 -307.541)" fill="#47313d"/>
            <path id="Trazado_724061" data-name="Trazado 724061" d="M224.471,402.567l-33.665,6.144a4.875,4.875,0,0,1-3.669-.811l-24.107-17.11c-1.195-.64-1.621-1.963-1.024-3.627a7.11,7.11,0,0,1,1.323-2.219c.128-.171.3-.341.427-.512a11.724,11.724,0,0,1,5.888-3.456.606.606,0,0,0,.256-.085h.085a4.322,4.322,0,0,1,3.84.725h0l17.494,13.568,22.315-7.723,10.795,15.1Z" transform="translate(-143.133 -312.111)" fill="#47313d"/>
          </g>
          <g id="Grupo_1010637" data-name="Grupo 1010637" transform="translate(158.031 136.152)">
            <path id="Trazado_724062" data-name="Trazado 724062" d="M171.427,402.94l-5.717,56.108,2.987-1.792,5.376-52.823Z" transform="translate(-160.836 -326.223)" fill="#e6ddc7"/>
            <path id="Trazado_724063" data-name="Trazado 724063" d="M164.578,403.58l7.467,4.139.171-1.664,36.652,20.225.128.085c.128-1.237.256-2.475.384-3.669l-39.3-21.675a6.277,6.277,0,0,0-1.835-.683,3.653,3.653,0,0,0-1.92.085c-.085,0-.128.085-.213.085a2.931,2.931,0,0,0-1.195,1.195,3.6,3.6,0,0,0-.341,1.877Z" transform="translate(-164.568 -335.013)" fill="#ded3ba"/>
            <path id="Trazado_724064" data-name="Trazado 724064" d="M170.851,403.264l.171-1.664,36.652,20.224.171.085,3.2,1.749.256,1.92,8.7,66.348-3.413-1.877-8.32-63.831-31.617-17.408-2.645-1.493-5.717,56.108-3.371-1.877Z" transform="translate(-163.416 -330.601)" fill="#ded3ba"/>
            <path id="Trazado_724065" data-name="Trazado 724065" d="M178.587,419.02l1.707-18.816.3-3.072.469-4.822,3.285,1.792-2.688,26.326-3.029,29.7-.427,3.968L174.96,452.3c.128-1.237,3.542-33.238,3.542-33.238Z" transform="translate(-130.618 -360.949)" fill="#ded3ba"/>
            <path id="Trazado_724066" data-name="Trazado 724066" d="M177.07,432.3l3.8-2.3,2.987-1.792L219.7,406.525l2.9-1.707-.256-1.92.427-3.968-45.911,27.692-.427,3.968.256,1.92Z" transform="translate(-125.816 -339.323)" fill="#e6ddc7"/>
            <path id="Trazado_724067" data-name="Trazado 724067" d="M181.874,394.092l2.987-1.792h0l-5.717,55.98-.427,3.968s1.024,8.192,1.451,11.094l7.51,57.175-2.987,1.792-8.7-66.348-.256-1.92,6.1-59.948Z" transform="translate(-128.102 -360.982)" fill="#e6ddc7"/>
            <path id="Trazado_724068" data-name="Trazado 724068" d="M177.521,417.9l1.707.939,1.28-12.63-3.8,2.3-.171,1.707Z" transform="translate(-125.456 -315.541)" fill="#ded3ba"/>
            <path id="Trazado_724069" data-name="Trazado 724069" d="M179.387,391.88l-2.987,1.792,3.285,1.792,2.944-1.792Z" transform="translate(-125.914 -362.354)" fill="#fffbf0"/>
            <path id="Trazado_724070" data-name="Trazado 724070" d="M177.1,413.114l3.243,1.792h.043L226.3,387.172l-3.285-1.792Z" transform="translate(-123.627 -383.588)" fill="#fffbf0"/>
            <path id="Trazado_724071" data-name="Trazado 724071" d="M177.24,439.86l21.5-12.971,20.737-12.544h0l3.669-2.219,2.688-26.326-3.669,2.219-42.241,25.515Z" transform="translate(-123.17 -382.216)" fill="#e6ddc7"/>
            <path id="Trazado_724072" data-name="Trazado 724072" d="M178.45,407.582l-1.28,12.63,2.987-1.792,1.28-12.63Z" transform="translate(-123.398 -316.913)" fill="#e6ddc7"/>
            <path id="Trazado_724073" data-name="Trazado 724073" d="M186.57,402.017l8.192,62.722,3.413,1.877-8.7-66.306Z" transform="translate(-92.691 -334.815)" fill="#ded3ba"/>
            <path id="Trazado_724074" data-name="Trazado 724074" d="M190.847,384.96l-2.987,1.792,3.285,1.792,2.944-1.792Z" transform="translate(-88.476 -384.96)" fill="#fffbf0"/>
            <path id="Trazado_724075" data-name="Trazado 724075" d="M190.646,413.5l2.688-26.326,2.987-1.792L190.177,445.5s8.832,66.007,8.96,68.055l-2.987,1.792-8.96-68.055,3.456-33.836Z" transform="translate(-90.665 -383.588)" fill="#e6ddc7"/>
            <path id="Trazado_724076" data-name="Trazado 724076" d="M186.53,419.875l3.2,1.792.427-3.968,2.6-25.729-3.627,2.219-2.219,21.8v.213C186.786,417.443,186.658,418.68,186.53,419.875Z" transform="translate(-92.821 -362.06)" fill="#ded3ba"/>
          </g>
        </g>
      </g>
      <path id="Trazado_724077" data-name="Trazado 724077" d="M203.356,406.933l-18.219,10.539L141.36,392.213a9.28,9.28,0,0,0,2.3-1.878,3.643,3.643,0,0,0,.384-4.992A6.094,6.094,0,0,0,142,383.338l4.693-2.688c9.216,5.333,12.5,7.765,16.128,7.851a11.984,11.984,0,0,0,5.717-1.664l34.9,20.139Z" transform="translate(-82.35 -262.888)" fill="#ffac40"/>
      <path id="Trazado_724078" data-name="Trazado 724078" d="M204.452,375.546l-16.64,9.557L164.6,371.535l16.64-9.515Z" transform="translate(-6.43 -323.748)" fill="#efe7d5"/>
      <path id="Trazado_724079" data-name="Trazado 724079" d="M169.41,388.19l-8.15-17.579,21.718-3.371,8.149,17.579Z" transform="translate(-17.341 -306.695)" fill="#efe7d5"/>
      <path id="Trazado_724080" data-name="Trazado 724080" d="M186.1,389.722l-20.139-5.8,14.08-16.3,20.139,5.845Z" transform="translate(-1.988 -305.454)" fill="#fff"/>
      <path id="Trazado_724081" data-name="Trazado 724081" d="M158.09,379.686l4.267-9.856,23.937,3.456-4.267,9.856Z" transform="translate(-27.697 -298.234)" fill="#fff"/>
      <g id="Grupo_1010640" data-name="Grupo 1010640" transform="translate(51.408 89.18)">
        <path id="Trazado_724082" data-name="Trazado 724082" d="M152.594,378.963c0,1.323-1.28,2.389-2.56,2.987a10.523,10.523,0,0,1-7.894,0c-1.28-.6-2.56-1.664-2.56-2.987V377.47h0a3.312,3.312,0,0,0,.981,2.176c2.091,2.133,8.15,2.347,10.71.256a3.481,3.481,0,0,0,1.323-2.261v1.365Z" transform="translate(-139.574 -362.456)" fill="#efe7d5"/>
        <path id="Trazado_724083" data-name="Trazado 724083" d="M152.6,379.192a3.159,3.159,0,0,1-1.323,2.475c-2.517,2.134-8.619,1.92-10.71-.256a3.078,3.078,0,0,1-.939-2.6,3.377,3.377,0,0,1,1.493-1.877s0-.085-.3,2.261v.213a2.644,2.644,0,0,0,1.536,2.133,8.05,8.05,0,0,0,7.382,0,2.644,2.644,0,0,0,1.536-2.133c0-.3,0,.085-.3-2.475a3.4,3.4,0,0,1,1.579,2.261Z" transform="translate(-139.578 -364.221)" fill="#fff"/>
        <path id="Trazado_724084" data-name="Trazado 724084" d="M148.7,375.951c-.384-2.688-6.827-2.645-7.168,0-1.792,14.336-1.621,12.8-1.664,13.142a2.645,2.645,0,0,0,1.536,2.133,8.049,8.049,0,0,0,7.381,0,2.644,2.644,0,0,0,1.536-2.133c0-.3.171,1.195-1.664-13.142Zm-4.821-1.749c3.243-.811,5.973,1.579,3.5,2.987-1.835,1.067-4.864.469-5.376-.9-.384-1.024.768-1.835,1.835-2.09Z" transform="translate(-138.626 -373.951)" fill="#ad1126"/>
        <path id="Trazado_724085" data-name="Trazado 724085" d="M145.5,375.245s0-.256-.085-.341c-.3-.555-1.408-.768-2.048-.725a2.072,2.072,0,0,0-1.621.725,1.113,1.113,0,0,0-.128.469v.469c0,1.024,2.133,1.451,3.285.811,0,0,.555-.341.555-.811v-.555Zm-3.2-1.109c3.243-.811,5.973,1.579,3.5,2.987-1.835,1.067-4.864.469-5.376-.9-.384-1.024.768-1.835,1.835-2.091Z" transform="translate(-137.083 -373.885)" fill="#c21930"/>
        <path id="Trazado_724086" data-name="Trazado 724086" d="M144.49,374.27v.555c0,.469-.555.811-.555.811-1.152.683-3.285.256-3.285-.811v-.469c0,.939,2.091,1.365,3.285.725A.94.94,0,0,0,144.49,374.27Z" transform="translate(-136.078 -372.91)" fill="#efe7d5"/>
        <path id="Trazado_724087" data-name="Trazado 724087" d="M144.4,374.778a.847.847,0,0,1-.469,1.152c-1.195.64-3.243.213-3.285-.725h0a.972.972,0,0,1,.128-.469,2.15,2.15,0,0,1,1.621-.725c.64,0,1.749.171,2.048.725Zm-.384.085c-.384-.725-2.475-.811-2.944,0-.555,1.024,1.451,1.536,2.56.939A.691.691,0,0,0,144.021,374.864Z" transform="translate(-136.078 -373.759)" fill="#fff"/>
        <path id="Trazado_724088" data-name="Trazado 724088" d="M143.756,374.641a1.155,1.155,0,0,1,0,.555,1.05,1.05,0,0,0-.555-.427,2.1,2.1,0,0,0-2.432.469h0a1.312,1.312,0,0,1,0-.6c.469-.811,2.56-.725,2.944,0Z" transform="translate(-135.813 -373.58)" fill="#ded3ba"/>
        <path id="Trazado_724089" data-name="Trazado 724089" d="M143.727,374.806h0a1.463,1.463,0,0,1-.384.384,2.236,2.236,0,0,1-2.6-.341h0a2.1,2.1,0,0,1,2.432-.469,1.385,1.385,0,0,1,.555.427Z" transform="translate(-135.784 -373.147)" fill="#ded3ba"/>
        <path id="Trazado_724090" data-name="Trazado 724090" d="M140.65,374.323v0Z" transform="translate(-136.078 -372.878)" fill="#b6bd00"/>
        <path id="Trazado_724091" data-name="Trazado 724091" d="M140.37,375.088a2.207,2.207,0,0,0,.64.768,4.266,4.266,0,0,0,.9.427,5.279,5.279,0,0,0,2.005.213,3.631,3.631,0,0,0,.981-.171,2.083,2.083,0,0,0,.469-.171,4,4,0,0,0,.427-.213c.085,0,.128-.085.213-.128a.746.746,0,0,0,.213-.171,2.344,2.344,0,0,0,.3-.384.86.86,0,0,0,.128-.469.844.844,0,0,0-.085-.469,1.136,1.136,0,0,1,.128.512.859.859,0,0,1-.128.469,1.62,1.62,0,0,1-.512.555c-.085.043-.128.085-.213.128a6.306,6.306,0,0,1-.939.427,3.952,3.952,0,0,1-.981.171h-1.024a2.53,2.53,0,0,1-.981-.213,2.985,2.985,0,0,1-.9-.469,2.757,2.757,0,0,1-.384-.341.886.886,0,0,1-.256-.427Z" transform="translate(-136.993 -372.747)" fill="#fff"/>
        <path id="Trazado_724092" data-name="Trazado 724092" d="M151.875,377.51a1.942,1.942,0,0,1-.213.853,3.721,3.721,0,0,1-.469.768,8.215,8.215,0,0,1-.6.64,4.423,4.423,0,0,1-.725.512,5.846,5.846,0,0,1-1.621.64,7.906,7.906,0,0,1-1.749.3,7.986,7.986,0,0,1-1.749,0,7.859,7.859,0,0,1-1.749-.213h-.213a.525.525,0,0,0-.213-.085,1.624,1.624,0,0,1-.427-.128c-.085,0-.128-.043-.213-.085l-.213-.085-.213-.085a2.014,2.014,0,0,1-.213-.085l-.213-.085a.525.525,0,0,0-.213-.085c-.128-.085-.256-.128-.384-.213a4.309,4.309,0,0,1-.683-.555,4.323,4.323,0,0,0,.683.555,1.737,1.737,0,0,0,.384.213c.085,0,.128.085.213.085l.213.085a2.005,2.005,0,0,1,.213.085l.213.085.213.085a2.056,2.056,0,0,1,.213.085,1.619,1.619,0,0,1,.427.128.385.385,0,0,1,.213.043H143a7.522,7.522,0,0,0,.853.171,1.449,1.449,0,0,1,.427.043h2.176a12.516,12.516,0,0,0,1.749-.3,7.546,7.546,0,0,0,1.621-.64,2.807,2.807,0,0,0,.725-.512,2.866,2.866,0,0,0,.6-.64,4.216,4.216,0,0,0,.469-.725,1.942,1.942,0,0,0,.213-.854Z" transform="translate(-138.855 -362.326)" fill="#fff"/>
      </g>
      <g id="Grupo_1010641" data-name="Grupo 1010641" transform="translate(40.997 94.94)">
        <path id="Trazado_724093" data-name="Trazado 724093" d="M150.164,380.313c0,1.323-1.28,2.389-2.56,2.987a10.526,10.526,0,0,1-7.894,0c-1.28-.6-2.56-1.664-2.56-2.987V378.82h0a3.312,3.312,0,0,0,.981,2.176c2.091,2.133,8.15,2.347,10.71.256a3.481,3.481,0,0,0,1.323-2.261v1.365Z" transform="translate(-137.101 -363.806)" fill="#efe7d5"/>
        <path id="Trazado_724094" data-name="Trazado 724094" d="M150.159,380.542a3.159,3.159,0,0,1-1.323,2.475c-2.517,2.133-8.619,1.92-10.71-.256a3.079,3.079,0,0,1-.939-2.6,3.378,3.378,0,0,1,1.493-1.877s0-.085-.3,2.261v.213a2.645,2.645,0,0,0,1.536,2.134,8.049,8.049,0,0,0,7.381,0,2.644,2.644,0,0,0,1.536-2.134c0-.3,0,.085-.3-2.475a3.4,3.4,0,0,1,1.579,2.261Z" transform="translate(-137.138 -365.571)" fill="#fff"/>
        <path id="Trazado_724095" data-name="Trazado 724095" d="M146.272,377.3c-.384-2.688-6.827-2.645-7.168,0-1.792,14.336-1.621,12.8-1.664,13.142a2.644,2.644,0,0,0,1.536,2.133,8.048,8.048,0,0,0,7.381,0,2.645,2.645,0,0,0,1.536-2.133c0-.3.171,1.195-1.664-13.142Zm-4.821-1.792c3.243-.81,5.973,1.579,3.5,2.987-1.835,1.067-4.864.469-5.376-.9-.384-1.024.768-1.835,1.835-2.091Z" transform="translate(-136.154 -375.301)" fill="#24181e"/>
        <path id="Trazado_724096" data-name="Trazado 724096" d="M143.065,376.595s0-.256-.085-.341c-.3-.555-1.408-.768-2.048-.725a2.072,2.072,0,0,0-1.621.725,1.112,1.112,0,0,0-.128.469v.469c0,1.024,2.133,1.451,3.285.768,0,0,.555-.341.555-.768v-.555Zm-3.2-1.11c3.243-.81,5.973,1.579,3.5,2.987-1.835,1.067-4.864.469-5.376-.9-.384-1.024.768-1.835,1.835-2.091Z" transform="translate(-134.611 -375.235)" fill="#47313d"/>
        <path id="Trazado_724097" data-name="Trazado 724097" d="M142.06,375.62v.555c0,.469-.555.768-.555.768-1.152.683-3.285.256-3.285-.768v-.469c.043.939,2.091,1.365,3.285.725a.94.94,0,0,0,.555-.811Z" transform="translate(-133.605 -374.26)" fill="#efe7d5"/>
        <path id="Trazado_724098" data-name="Trazado 724098" d="M141.975,376.086a.9.9,0,0,1-.469,1.194c-1.195.64-3.243.213-3.285-.725h0a.971.971,0,0,1,.128-.469,2.15,2.15,0,0,1,1.621-.726c.64,0,1.749.171,2.048.726Zm-.384.085c-.384-.725-2.475-.811-2.944,0-.555,1.024,1.451,1.536,2.56.939A.691.691,0,0,0,141.591,376.171Z" transform="translate(-133.605 -375.109)" fill="#fff"/>
        <path id="Trazado_724099" data-name="Trazado 724099" d="M141.326,375.992a1.155,1.155,0,0,1,0,.555,1.05,1.05,0,0,0-.555-.427,2.1,2.1,0,0,0-2.432.469h0a1.312,1.312,0,0,1,0-.6c.469-.81,2.56-.725,2.944,0Z" transform="translate(-133.341 -374.93)" fill="#ded3ba"/>
        <path id="Trazado_724100" data-name="Trazado 724100" d="M141.3,376.146h0a1.461,1.461,0,0,1-.384.384,2.235,2.235,0,0,1-2.6-.341h0a2.1,2.1,0,0,1,2.432-.469,1.385,1.385,0,0,1,.555.427Z" transform="translate(-133.311 -374.53)" fill="#ded3ba"/>
        <path id="Trazado_724101" data-name="Trazado 724101" d="M138.21,375.673v0Z" transform="translate(-133.638 -374.227)" fill="#b6bd00"/>
        <path id="Trazado_724102" data-name="Trazado 724102" d="M137.973,376.471a2.2,2.2,0,0,0,.64.768,4.265,4.265,0,0,0,.9.427,5.284,5.284,0,0,0,2.005.213,3.634,3.634,0,0,0,.981-.171,2.087,2.087,0,0,0,.469-.171,4,4,0,0,0,.427-.213c.085,0,.128-.085.213-.128a.333.333,0,0,0,.171-.171,2.347,2.347,0,0,0,.3-.384.86.86,0,0,0,.128-.469,1.083,1.083,0,0,0-.085-.512,1.137,1.137,0,0,1,.128.512.86.86,0,0,1-.128.469,1.621,1.621,0,0,1-.512.555c-.085.043-.128.085-.213.128a6.29,6.29,0,0,1-.939.427,3.942,3.942,0,0,1-.981.171h-1.024a2.533,2.533,0,0,1-.981-.213,2.988,2.988,0,0,1-.9-.469,2.767,2.767,0,0,1-.384-.341.885.885,0,0,1-.256-.427Z" transform="translate(-134.553 -374.129)" fill="#fff"/>
        <path id="Trazado_724103" data-name="Trazado 724103" d="M149.445,378.85a1.942,1.942,0,0,1-.213.853,3.719,3.719,0,0,1-.469.768,8.168,8.168,0,0,1-.6.64,4.423,4.423,0,0,1-.725.512,5.843,5.843,0,0,1-1.621.64,7.911,7.911,0,0,1-1.749.3,8.009,8.009,0,0,1-1.749,0,7.854,7.854,0,0,1-1.749-.213h-.213a.525.525,0,0,0-.213-.085,1.623,1.623,0,0,1-.427-.128c-.085,0-.128-.043-.213-.085l-.213-.085-.213-.085a2.042,2.042,0,0,1-.213-.085l-.213-.085a.525.525,0,0,0-.213-.085c-.128-.085-.256-.128-.384-.213a4.291,4.291,0,0,1-.683-.555,4.3,4.3,0,0,0,.683.555,1.724,1.724,0,0,0,.384.213c.085,0,.128.085.213.085l.213.085a2.023,2.023,0,0,1,.213.085l.213.085.213.085a2.05,2.05,0,0,1,.213.085,1.626,1.626,0,0,1,.427.128.384.384,0,0,1,.213.043h.213a7.583,7.583,0,0,0,.853.171,1.451,1.451,0,0,1,.427.043h2.176a10.953,10.953,0,0,0,1.707-.3,7.54,7.54,0,0,0,1.621-.64,2.8,2.8,0,0,0,.725-.512,2.869,2.869,0,0,0,.6-.64,4.212,4.212,0,0,0,.469-.725,1.942,1.942,0,0,0,.213-.853Z" transform="translate(-136.382 -363.708)" fill="#fff"/>
      </g>
      <g id="Grupo_1010642" data-name="Grupo 1010642" transform="translate(30.117 100.573)">
        <path id="Trazado_724104" data-name="Trazado 724104" d="M147.6,381.633c0,1.323-1.28,2.389-2.56,2.987a10.526,10.526,0,0,1-7.894,0c-1.28-.6-2.56-1.664-2.56-2.987V380.14h0a3.313,3.313,0,0,0,.981,2.176c2.091,2.133,8.15,2.347,10.71.256a3.481,3.481,0,0,0,1.323-2.261v1.365Z" transform="translate(-134.584 -365.126)" fill="#efe7d5"/>
        <path id="Trazado_724105" data-name="Trazado 724105" d="M147.609,381.862a3.159,3.159,0,0,1-1.323,2.475c-2.517,2.134-8.619,1.92-10.71-.256a3.078,3.078,0,0,1-.939-2.6,3.378,3.378,0,0,1,1.493-1.877s0-.085-.3,2.261v.213a2.644,2.644,0,0,0,1.536,2.133,8.049,8.049,0,0,0,7.382,0,2.644,2.644,0,0,0,1.536-2.133c0-.3,0,.085-.3-2.475a3.4,3.4,0,0,1,1.579,2.261Z" transform="translate(-134.589 -366.891)" fill="#fff"/>
        <path id="Trazado_724106" data-name="Trazado 724106" d="M143.722,378.621c-.384-2.688-6.827-2.645-7.168,0-1.792,14.336-1.621,12.8-1.664,13.142a2.644,2.644,0,0,0,1.536,2.133,8.049,8.049,0,0,0,7.382,0,2.645,2.645,0,0,0,1.536-2.133c0-.3.171,1.195-1.664-13.142Zm-4.822-1.792c3.243-.811,5.973,1.579,3.5,2.987-1.835,1.067-4.864.469-5.376-.9-.384-1.024.768-1.835,1.835-2.091Z" transform="translate(-133.604 -376.621)" fill="#49c4ff"/>
        <path id="Trazado_724107" data-name="Trazado 724107" d="M140.515,377.9s0-.256-.085-.341c-.3-.555-1.408-.768-2.048-.726a2.072,2.072,0,0,0-1.621.726,1.111,1.111,0,0,0-.128.469v.469c0,1.024,2.133,1.451,3.285.81,0,0,.555-.341.555-.81v-.555Zm-3.2-1.109c3.243-.811,5.973,1.579,3.5,2.987-1.835,1.067-4.864.469-5.376-.9-.384-1.024.768-1.835,1.835-2.091Z" transform="translate(-132.061 -376.588)" fill="#59d3ff"/>
        <path id="Trazado_724108" data-name="Trazado 724108" d="M139.51,376.93v.555c0,.469-.555.811-.555.811-1.152.683-3.285.256-3.285-.811v-.469c0,.939,2.091,1.365,3.285.725a.94.94,0,0,0,.555-.811Z" transform="translate(-131.055 -375.613)" fill="#efe7d5"/>
        <path id="Trazado_724109" data-name="Trazado 724109" d="M139.425,377.438a.847.847,0,0,1-.469,1.152c-1.195.64-3.243.213-3.285-.725h0a.972.972,0,0,1,.128-.469,2.149,2.149,0,0,1,1.621-.725c.64,0,1.749.171,2.048.725Zm-.384.085c-.384-.725-2.475-.811-2.944,0-.555,1.024,1.451,1.536,2.56.939A.691.691,0,0,0,139.041,377.523Z" transform="translate(-131.055 -376.462)" fill="#fff"/>
        <path id="Trazado_724110" data-name="Trazado 724110" d="M138.776,377.311a1.155,1.155,0,0,1,0,.555,1.052,1.052,0,0,0-.555-.427,2.1,2.1,0,0,0-2.432.469h0a1.313,1.313,0,0,1,0-.6c.469-.811,2.56-.725,2.944,0Z" transform="translate(-130.79 -376.25)" fill="#ded3ba"/>
        <path id="Trazado_724111" data-name="Trazado 724111" d="M138.747,377.466h0a1.46,1.46,0,0,1-.384.384,2.235,2.235,0,0,1-2.6-.341h0a2.1,2.1,0,0,1,2.432-.469,1.384,1.384,0,0,1,.555.427Z" transform="translate(-130.761 -375.85)" fill="#ded3ba"/>
        <path id="Trazado_724112" data-name="Trazado 724112" d="M135.66,376.993v0Z" transform="translate(-131.088 -375.547)" fill="#b6bd00"/>
        <path id="Trazado_724113" data-name="Trazado 724113" d="M135.39,377.748a2.2,2.2,0,0,0,.64.768,4.266,4.266,0,0,0,.9.427,5.283,5.283,0,0,0,2.005.213,3.636,3.636,0,0,0,.981-.171,2.068,2.068,0,0,0,.469-.171,3.99,3.99,0,0,0,.427-.213c.085,0,.128-.086.213-.128a.75.75,0,0,0,.213-.171,2.353,2.353,0,0,0,.3-.384.861.861,0,0,0,.128-.47.843.843,0,0,0-.085-.469,1.136,1.136,0,0,1,.128.512.861.861,0,0,1-.128.469,1.618,1.618,0,0,1-.512.554c-.085.043-.128.086-.213.128a6.275,6.275,0,0,1-.939.427,3.951,3.951,0,0,1-.981.171h-1.024a2.533,2.533,0,0,1-.981-.213,2.981,2.981,0,0,1-.9-.469,2.756,2.756,0,0,1-.384-.341.886.886,0,0,1-.256-.427Z" transform="translate(-131.97 -375.449)" fill="#fff"/>
        <path id="Trazado_724114" data-name="Trazado 724114" d="M146.885,380.17a1.942,1.942,0,0,1-.213.853,3.715,3.715,0,0,1-.469.768,8.2,8.2,0,0,1-.6.64,4.439,4.439,0,0,1-.725.512,5.846,5.846,0,0,1-1.621.64,7.908,7.908,0,0,1-1.749.3,8,8,0,0,1-1.749,0,7.862,7.862,0,0,1-1.749-.213H137.8a.525.525,0,0,0-.213-.085,1.628,1.628,0,0,1-.427-.128c-.085,0-.128-.043-.213-.085l-.213-.085-.213-.085a2.03,2.03,0,0,1-.213-.085l-.213-.085a.526.526,0,0,0-.213-.085c-.128-.085-.256-.128-.384-.213a4.3,4.3,0,0,1-.683-.555,4.307,4.307,0,0,0,.683.555,1.734,1.734,0,0,0,.384.213c.085,0,.128.085.213.085l.213.085a2.008,2.008,0,0,1,.213.085l.213.085.213.085a2.04,2.04,0,0,1,.213.085,1.617,1.617,0,0,1,.427.128.384.384,0,0,1,.213.043h.213a7.533,7.533,0,0,0,.853.171,1.45,1.45,0,0,1,.427.043h2.176a12.48,12.48,0,0,0,1.749-.3,7.537,7.537,0,0,0,1.621-.64,2.8,2.8,0,0,0,.725-.512,2.866,2.866,0,0,0,.6-.64,4.218,4.218,0,0,0,.469-.725,1.944,1.944,0,0,0,.213-.854Z" transform="translate(-133.865 -365.028)" fill="#fff"/>
      </g>
      <g id="Grupo_1010645" data-name="Grupo 1010645" transform="translate(77.271 41.382)">
        <path id="Trazado_724115" data-name="Trazado 724115" d="M160.007,369.53l-6.1.384-.213.6h-1.024c-1.835.128-4.651.9-5.547,2.475a2.778,2.778,0,0,0-.085,2.645c.981,1.963,6.656,3.755,11.051,1.408a3.683,3.683,0,0,0,1.536-1.365,3.278,3.278,0,0,0,.384-1.536h0V369.53Z" transform="translate(-142.044 -340.597)" fill="#ff9c33"/>
        <g id="Grupo_1010644" data-name="Grupo 1010644" transform="translate(0 1.397)">
          <g id="Grupo_1010643" data-name="Grupo 1010643">
            <path id="Trazado_724116" data-name="Trazado 724116" d="M153.087,369.035c.725.427.725,1.067,0,1.493a2.72,2.72,0,0,1-2.56,0c-.725-.427-.725-1.067,0-1.493A2.719,2.719,0,0,1,153.087,369.035Z" transform="translate(-131.454 -344.656)" fill="#24181e"/>
            <path id="Trazado_724117" data-name="Trazado 724117" d="M150.652,363.86a24.253,24.253,0,0,1,1.493,6.869c.3,3.968,3.029,14.934,3.029,14.934h-3.627l-2.048-7.126,1.195-14.635Z" transform="translate(-133.03 -360.516)" fill="#24181e"/>
            <path id="Trazado_724118" data-name="Trazado 724118" d="M155.264,381.4C150.1,379.135,147.2,366.8,147.2,366.8c1.067-.811,1.323-3.669,1.323-3.669,2.176-.427,3.627,1.579,4.651,2.517a9.49,9.49,0,0,1,1.024,1.109C156.374,371.413,155.264,381.4,155.264,381.4Z" transform="translate(-140.544 -363.076)" fill="#ff9c33"/>
            <path id="Trazado_724119" data-name="Trazado 724119" d="M154.232,392.012a2.245,2.245,0,0,1-2.389,0,3.486,3.486,0,0,1-1.152-2.176V379.425s0-11.606-1.067-14.635a6.32,6.32,0,0,0-1.024-1.11h.384l4.608.811h0c.128.213.853,1.664.3,7.51h0a5,5,0,0,1-.555,2.219s.085,7.894.555,10.966a41.323,41.323,0,0,1,.3,6.827Z" transform="translate(-135.97 -361.104)" fill="#33242c"/>
            <path id="Trazado_724120" data-name="Trazado 724120" d="M149.139,367.734a14.97,14.97,0,0,1-1.152-1.792,8.038,8.038,0,0,1-.6-1.792l.811,1.536.9,2.048Z" transform="translate(-139.923 -359.569)" fill="#3e4053"/>
            <path id="Trazado_724121" data-name="Trazado 724121" d="M153.3,375.145v1.28l-.256.427L147.8,364.99c.725.981,1.579,2.048,2.3,2.859a14.116,14.116,0,0,1,3.243,7.3Z" transform="translate(-138.584 -356.824)" fill="#3e4053"/>
            <path id="Trazado_724122" data-name="Trazado 724122" d="M159.448,391.326c-.427,1.707-1.195,3.243-5.248,3.584h-.725a6.836,6.836,0,0,1-1.749-.128.542.542,0,0,1-.256-.043,3.414,3.414,0,0,1-1.323-.427c-1.067-.6-1.024-3.285-.64-5.931a39.612,39.612,0,0,1,.981-4.651,13,13,0,0,0-.256-6.187,20.33,20.33,0,0,0-1.067-3.072,16.675,16.675,0,0,0-1.28-2.432c-.341-.512-.683-1.067-1.067-1.579-.256-.341-.512-.64-.768-.981a.626.626,0,0,1-.171.085h0a41.285,41.285,0,0,1,4.352-4.395,3.711,3.711,0,0,1,.427-.341h0a6.9,6.9,0,0,1,1.195-.853l.427-.085a3.319,3.319,0,0,0,.043.555,7.435,7.435,0,0,0,.683,2.347,27.178,27.178,0,0,0,2.645,3.755,8.383,8.383,0,0,0,.768.9,14.113,14.113,0,0,1,3.243,7.3v10.411a7.587,7.587,0,0,1-.171,2.176Z" transform="translate(-144.856 -360.418)" fill="#33242c"/>
            <path id="Trazado_724123" data-name="Trazado 724123" d="M147.76,371.18Z" transform="translate(-138.715 -336.603)" fill="#24222d"/>
            <path id="Trazado_724124" data-name="Trazado 724124" d="M155.82,379.49h0a20.551,20.551,0,0,0-3.285-6.23,28.467,28.467,0,0,0-3.541-3.8l.6-1.024-1.109-.171a3.7,3.7,0,0,1-1.28-2.048c-.085-.384-.128-.683-.171-.81v-.085l1.408-1.664h0s.341,2.133,3.157,5.419a16,16,0,0,1,2.944,4.907,21.823,21.823,0,0,1,1.28,5.5Z" transform="translate(-141.099 -361.169)" fill="#47313d"/>
            <path id="Trazado_724125" data-name="Trazado 724125" d="M151.17,376.112a66.248,66.248,0,0,0,.512-7.595l-.683-.384.469-.555a11.861,11.861,0,0,0-1.067-2.944l-1.792-1.195.384.939s.085.171.213.469c.64,1.963,1.493,6.229,1.451,15.19v.128h0s.213-1.835.469-4.1h0Z" transform="translate(-135.938 -361.888)" fill="#47313d"/>
            <path id="Trazado_724126" data-name="Trazado 724126" d="M151.144,369.455v.171c0,.555-.085,2.347-.171,3.8a15.162,15.162,0,0,1-.171,1.749c-.213,1.493-.811,4.949-1.067,8.021-.256,2.944-.555,6.315-.555,6.784v.043a.908.908,0,0,1-.512.725,2.679,2.679,0,0,1-1.835.256,1.882,1.882,0,0,1-.683-.256.908.908,0,0,1-.512-.725V378.372l.6-11.819v-.213a1.248,1.248,0,0,1,.384-.9.587.587,0,0,1,.171-.128,1.455,1.455,0,0,1,1.28-.085,2.166,2.166,0,0,1,.64.3,5.07,5.07,0,0,1,2.475,3.883Z" transform="translate(-145.64 -356.382)" fill="#47313d"/>
          </g>
          <path id="Trazado_724127" data-name="Trazado 724127" d="M149.241,367.23l-.043,11.392-.128-11.392Z" transform="translate(-134.435 -349.507)" fill="#47313d"/>
        </g>
        <path id="Trazado_724128" data-name="Trazado 724128" d="M153.21,367.008l-.128-.811-.64-3.157-4.736.128a5.516,5.516,0,0,1-.256,1.621l4.779,2.944Z" transform="translate(-139.727 -361.798)" fill="#ff9c33"/>
        <path id="Trazado_724129" data-name="Trazado 724129" d="M152.136,363.65a1.194,1.194,0,0,1,0,.939,1.6,1.6,0,0,1-.555.512c-1.579.854-3.627.213-3.968-.512a1.193,1.193,0,0,1,0-.939,2.76,2.76,0,0,1,2.005-.9C150.387,362.711,151.795,362.967,152.136,363.65Z" transform="translate(-139.507 -362.749)" fill="#ffac40"/>
        <path id="Trazado_724130" data-name="Trazado 724130" d="M147.36,363.725l.171-.085-.128.256Z" transform="translate(-140.021 -359.838)" fill="#24222d"/>
      </g>
      <path id="Trazado_724131" data-name="Trazado 724131" d="M161,371.075v14.891l-9.088,5.248V373.763c2.048-2.005,4.395-3.541,4.053-11.52l2.261-1.323c0,2.389-.427,8.7,2.773,10.2Z" transform="translate(-47.886 -327.341)" fill="#ff9c33"/>
      <path id="Trazado_724132" data-name="Trazado 724132" d="M154.44,362.362V383.1s2.773-14.635,3.072-17.408l-.6-.256.853-1.152.469-4.352-3.8,2.432Z" transform="translate(-39.621 -330.575)" fill="#ff9c33"/>
      <path id="Trazado_724133" data-name="Trazado 724133" d="M164.065,358.69l-2.091,1.237-.128.085-2.091,1.237-3.925,26.923s.768-.64,1.28-.384c.469.256,1.237,2.3,4.779.341l.128-.085A11.273,11.273,0,0,0,166.8,382.2a2.406,2.406,0,0,1,1.28-1.067l-3.925-22.4Z" transform="translate(-35.08 -334.626)" fill="#ff9c33"/>
    </g>
    <g id="Grupo_1010648" data-name="Grupo 1010648" transform="translate(135.556 54.443)">
      <path id="Trazado_724134" data-name="Trazado 724134" d="M210.5,383.219l-21.377,12.2L159.3,378.056l21.377-12.246Z" transform="translate(-159.3 -365.81)" fill="#fff"/>
      <g id="Grupo_1010647" data-name="Grupo 1010647" transform="translate(8.993 3.584)">
        <path id="Trazado_724135" data-name="Trazado 724135" d="M163.55,366.65l20.737,8.022s1.024.512-.6,1.28a3.119,3.119,0,0,1-2.517.341l-8.79-3.072-8.79-6.571Z" transform="translate(-154.409 -366.65)" fill="#24171e"/>
        <path id="Trazado_724136" data-name="Trazado 724136" d="M183.017,380.878s.512.213-.171.9a3.007,3.007,0,0,1-2.432.811c-.341-.171-18.945-11.606-18.945-11.606l.128-1.963,4.651-.427,3.285,1.024,2.816,1.877-1.109.981Z" transform="translate(-161.204 -360.312)" fill="#47313d"/>
        <path id="Trazado_724137" data-name="Trazado 724137" d="M192.693,379.29c0,1.749-3.925.6-4.1.555a4.688,4.688,0,0,1,2.091,2.432c.341,1.451-3.243,3.627-5.888,4.1s-7.467-4.267-9.088-5.675a10.658,10.658,0,0,0-4.267-1.92,14.559,14.559,0,0,0-4.822-2.645c-5.12-.939-4.907,1.152-4.907,1.152-.64-1.238-.085-4.822-.085-4.822l.64-1.109a17.224,17.224,0,0,0,5.206.683,40.327,40.327,0,0,1,11.307,2.347c-2.859-2.262-10.027-5.078-12.374-5.931l.6-.341.512-.213,3.157-1.237s3.968,2.048,5.12,2.645a9.286,9.286,0,0,1,2.432,2.176s6.144,3.456,8.662,4.48a30.679,30.679,0,0,1,5.931,3.371Z" transform="translate(-161.408 -366.617)" fill="#33232c"/>
        <path id="Trazado_724138" data-name="Trazado 724138" d="M179.373,373.83c-4.48-1.664-13.056-1.365-13.056-1.365l-.256-.683s-.981.427-1.024.427a17.437,17.437,0,0,1-3.5-.683l-.128-1.536s.128.213.811.469a17.228,17.228,0,0,0,5.206.683,40.325,40.325,0,0,1,11.307,2.347c-2.859-2.261-10.027-5.078-12.374-5.931-.469-.171-.768-.3-.768-.3s1.664-.256,1.749-.3h.085c.512.085,3.072.811,3.072.811l.128.64.811-.3a40.556,40.556,0,0,1,7.979,5.8Z" transform="translate(-161.4 -365.637)" fill="#47313d"/>
      </g>
    </g>
  </g>
</svg>
