<svg xmlns="http://www.w3.org/2000/svg" width="105" height="105" viewBox="0 0 105 105">
  <g id="Grupo_1014232" data-name="Grupo 1014232" transform="translate(-464 -1592)">
    <path id="Trazado_733049" data-name="Trazado 733049" d="M52.5,0A52.5,52.5,0,1,1,0,52.5,52.5,52.5,0,0,1,52.5,0Z" transform="translate(464 1592)" fill="#ff6e33"/>
    <g id="produccion" transform="translate(484 1613)">
      <g id="Grupo_1014188" data-name="Grupo 1014188">
        <g id="Grupo_1014169" data-name="Grupo 1014169">
          <path id="Trazado_733117" data-name="Trazado 733117" d="M46,10.78A2.9,2.9,0,0,1,47,13a3,3,0,0,1-6,0,2.9,2.9,0,0,1,1-2.22v-.01a2.982,2.982,0,0,1,4,0Z" fill="#fcd770"/>
        </g>
        <g id="Grupo_1014170" data-name="Grupo 1014170">
          <path id="Trazado_733118" data-name="Trazado 733118" d="M46,1v9.77a2.982,2.982,0,0,0-4,0V1Z" fill="#ccd1d9"/>
        </g>
        <g id="Grupo_1014171" data-name="Grupo 1014171">
          <path id="Trazado_733119" data-name="Trazado 733119" d="M24,56H60v6H24Z" fill="#ccd1d9"/>
        </g>
        <g id="Grupo_1014172" data-name="Grupo 1014172">
          <path id="Trazado_733120" data-name="Trazado 733120" d="M30,52H62v4H24V52h6Z" fill="#969faa"/>
        </g>
        <g id="Grupo_1014173" data-name="Grupo 1014173">
          <path id="Trazado_733121" data-name="Trazado 733121" d="M58,34l2,6H47l-3-6H58Z" fill="#b27946"/>
        </g>
        <g id="Grupo_1014174" data-name="Grupo 1014174">
          <path id="Trazado_733122" data-name="Trazado 733122" d="M44,34l-3,6H28l2-6H44Z" fill="#b27946"/>
        </g>
        <g id="Grupo_1014175" data-name="Grupo 1014175">
          <path id="Trazado_733123" data-name="Trazado 733123" d="M44,52V34l3,6H58V52Z" fill="#d3a06c"/>
        </g>
        <g id="Grupo_1014176" data-name="Grupo 1014176">
          <path id="Trazado_733124" data-name="Trazado 733124" d="M44,34V52H34.06A1.942,1.942,0,0,0,36,50.06V47.94A1.942,1.942,0,0,0,34.06,46H33l-.46-.93A1.936,1.936,0,0,0,30.8,44a4.457,4.457,0,0,0-.8.18V40H41Z" fill="#d3a06c"/>
        </g>
        <g id="Grupo_1014177" data-name="Grupo 1014177">
          <path id="Trazado_733125" data-name="Trazado 733125" d="M38,22H50V34H38Z" fill="#d3a06c"/>
        </g>
        <g id="Grupo_1014178" data-name="Grupo 1014178">
          <path id="Trazado_733126" data-name="Trazado 733126" d="M42,22h4v4H42Z" fill="#b27946"/>
        </g>
        <g id="Grupo_1014179" data-name="Grupo 1014179">
          <path id="Trazado_733127" data-name="Trazado 733127" d="M10,15v1l-.59.2a3.6,3.6,0,0,0-1.75,1.28,3.534,3.534,0,0,0,.37,4.55L10,24v4l-.48-.24a13.729,13.729,0,0,1-5.49-5.02A13.594,13.594,0,0,1,15.6,2h4.74a5.657,5.657,0,0,1,4,9.66L24,12H13A3,3,0,0,0,10,15Z" fill="#656d78"/>
        </g>
        <g id="Grupo_1014180" data-name="Grupo 1014180">
          <path id="Trazado_733128" data-name="Trazado 733128" d="M28,46v6H17A12.984,12.984,0,0,1,4.01,39.19a8.715,8.715,0,0,1,3.78-7.08L10,38a8,8,0,0,0,8,8H28Z" fill="#b4dd7f"/>
        </g>
        <g id="Grupo_1014181" data-name="Grupo 1014181">
          <path id="Trazado_733129" data-name="Trazado 733129" d="M24,56v6H4V39.32a.57.57,0,0,1,.01-.13A12.984,12.984,0,0,0,17,52h7Z" fill="#b4dd7f"/>
        </g>
        <g id="Grupo_1014182" data-name="Grupo 1014182">
          <path id="Trazado_733130" data-name="Trazado 733130" d="M23.67,46H18a8,8,0,0,1-8-8H20.16A19.438,19.438,0,0,1,23.67,46Z" fill="#b4dd7f"/>
        </g>
        <g id="Grupo_1014183" data-name="Grupo 1014183">
          <path id="Trazado_733131" data-name="Trazado 733131" d="M20.15,38H10L7.79,32.11A8.644,8.644,0,0,1,10,31a19.428,19.428,0,0,1,8,4.57A19.872,19.872,0,0,1,20.15,38Z" fill="#a0d468"/>
        </g>
        <g id="Grupo_1014184" data-name="Grupo 1014184">
          <path id="Trazado_733132" data-name="Trazado 733132" d="M30.8,44a1.936,1.936,0,0,1,1.74,1.07L33,46h1.06A1.942,1.942,0,0,1,36,47.94v2.12A1.942,1.942,0,0,1,34.06,52H28V46l1.43-1.43a1.811,1.811,0,0,1,.57-.39,4.457,4.457,0,0,1,.8-.18Z" fill="#f0d0b4"/>
        </g>
        <g id="Grupo_1014185" data-name="Grupo 1014185">
          <path id="Trazado_733133" data-name="Trazado 733133" d="M25.43,17.43a1.942,1.942,0,0,1-.5,3.11L24,21v2H15l-5-7V15a3,3,0,0,1,3-3H24v1.97A4.905,4.905,0,0,0,25.43,17.43Z" fill="#f0d0b4"/>
        </g>
        <g id="Grupo_1014186" data-name="Grupo 1014186">
          <path id="Trazado_733134" data-name="Trazado 733134" d="M18,29v6.57A19.428,19.428,0,0,0,10,31V24L8.03,22.03a3.534,3.534,0,0,1-.37-4.55A3.6,3.6,0,0,1,9.41,16.2L10,16l5,7,1,6Z" fill="#f0d0b4"/>
        </g>
        <g id="Grupo_1014187" data-name="Grupo 1014187">
          <path id="Trazado_733135" data-name="Trazado 733135" d="M24,23v2a4,4,0,0,1-4,4H16l-1-6Z" fill="#e6e9ed"/>
        </g>
      </g>
      <path id="Trazado_733136" data-name="Trazado 733136" d="M63,51H59V41h2.387L58.72,33H51V28.618l.031-.015A7.181,7.181,0,0,0,47.82,15h-.376A3.905,3.905,0,0,0,47,10.382V1H45V9.142a3.592,3.592,0,0,0-2,0V1H41v9.382A3.905,3.905,0,0,0,40.556,15H40.18a7.181,7.181,0,0,0-3.211,13.6l.031.015V33H29.279l-2.667,8H29v2.635a2.809,2.809,0,0,0-.274.226L27.586,45H24.471A20.193,20.193,0,0,0,19,35.134V30h1a5.006,5.006,0,0,0,5-5V21.618l.376-.188A2.922,2.922,0,0,0,27,18.8a2.957,2.957,0,0,0-.86-2.077A3.866,3.866,0,0,1,25,13.974V12.415l.05-.05A6.657,6.657,0,0,0,20.343,1H15.6A14.6,14.6,0,0,0,9,28.615V30.31A9.754,9.754,0,0,0,3.013,39H3c0,.048.007.1.007.143S3,39.263,3,39.324V63H61V57h2Zm-6,0H45V38.236L46.382,41H57Zm1.613-12H47.618l-2-4H57.279ZM42,13a2,2,0,1,1,2,2A2,2,0,0,1,42,13Zm-7,9.181A5.186,5.186,0,0,1,40.18,17h7.64A5.171,5.171,0,0,1,51,26.256V21H37v5.256A5.136,5.136,0,0,1,35,22.181ZM43,23h2v2H43Zm-4,0h2v4h6V23h2V33H39ZM30.721,35H42.382l-2,4H29.387Zm10.9,6L43,38.236V51H36.833A2.916,2.916,0,0,0,37,50.063V47.938A2.94,2.94,0,0,0,34.063,45h-.444l-.188-.376A2.913,2.913,0,0,0,31,43.014V41ZM29,46.414l1.14-1.14a.966.966,0,0,1,1.5.244L32.382,47h1.681a.938.938,0,0,1,.937.938v2.125a.938.938,0,0,1-.937.937H29ZM18.023,37h-7.33L9.015,32.524a7.869,7.869,0,0,1,1.013-.474A18.276,18.276,0,0,1,18.023,37Zm1.635,2a18.246,18.246,0,0,1,2.765,6H18a7.006,7.006,0,0,1-6.92-6ZM17,33.4a20.343,20.343,0,0,0-6-3.129V23.586L8.74,21.325a2.517,2.517,0,0,1,.881-4.135l4.43,6.2L14.82,28H13v2h4ZM20,28H16.847l-.666-4H23v1A3,3,0,0,1,20,28Zm4.482-8.359L23,20.382V22H15.515L11,15.679V15a2,2,0,0,1,2-2H23v.974a5.851,5.851,0,0,0,1.726,4.166A.945.945,0,0,1,25,18.8a.933.933,0,0,1-.518.838ZM3,15.6A12.611,12.611,0,0,1,15.6,3h4.747a4.657,4.657,0,0,1,3.293,7.949L23.586,11H13a4,4,0,0,0-4,4v.28a4.524,4.524,0,0,0-1.675,7.459L9,24.414v1.908A12.512,12.512,0,0,1,3,15.6ZM7.348,33.778,9.01,38.21A9.006,9.006,0,0,0,18,47h9v4H17A12.008,12.008,0,0,1,5.01,39.195a7.742,7.742,0,0,1,2.338-5.417ZM5,46.174A13.991,13.991,0,0,0,17,53h6v8H5ZM59,61H25V57H59Zm2-6H25V53H61Z"/>
    </g>
  </g>
</svg>
