<svg xmlns="http://www.w3.org/2000/svg" width="105" height="105" viewBox="0 0 105 105">
  <g id="Grupo_1014234" data-name="Grupo 1014234" transform="translate(-1032 -1592)">
    <circle id="Elipse_4626" data-name="Elipse 4626" cx="52.5" cy="52.5" r="52.5" transform="translate(1032 1592)" fill="#ff6e33"/>
    <g id="inspeccion" transform="translate(1052.983 1612.567)">
      <path id="Trazado_733170" data-name="Trazado 733170" d="M259.95,293.033v6.2a1.037,1.037,0,0,1-1.033,1.033H255.1a6.238,6.238,0,0,1-.238.609,12.2,12.2,0,0,1-2.025,3.317l1.9,3.3a1.032,1.032,0,0,1-.372,1.416l-5.373,3.1a1.011,1.011,0,0,1-1.209-.145.9.9,0,0,1-.2-.238l-1.9-3.3a12.609,12.609,0,0,1-4.547,0l-.744,1.292-1.157,2a1.03,1.03,0,0,1-1.405.382L236,310.941l-3.534-2.036a1.032,1.032,0,0,1-.372-1.416l1.9-3.3a12.188,12.188,0,0,1-2.263-3.927h-3.813a1.037,1.037,0,0,1-1.033-1.033v-3.059l.073-.073,1.808-1.818a20.252,20.252,0,0,0,7.471,2.656,7.221,7.221,0,0,0,6.52,6.4c.217.021.444.031.662.031a7.229,7.229,0,0,0,7.233-7.233,7.446,7.446,0,0,0-.331-2.17,19.237,19.237,0,0,0,2.511-1.87,16.774,16.774,0,0,0,1.633-1.581A11.142,11.142,0,0,1,255.1,292h3.813A1.036,1.036,0,0,1,259.95,293.033Zm0,0" transform="translate(-198.951 -254.366)" fill="#37474f"/>
      <path id="Trazado_733171" data-name="Trazado 733171" d="M256.85,304.447v6.593a1.085,1.085,0,0,1-.114.486,1.111,1.111,0,0,1-.982.609H251.7a12.927,12.927,0,0,1-2.407,4.175l2.015,3.5a1.087,1.087,0,0,1-.393,1.5l-3.131,1.808a.9.9,0,0,1-.2-.238l-1.9-3.3a12.608,12.608,0,0,1-4.547,0l-.744,1.292c-.362.031-.733.982-1.116.982-.827,0-.248,1.178-1.033,1.034L236,322.2l-3.534-2.036a1.032,1.032,0,0,1-.372-1.416l1.9-3.3a12.189,12.189,0,0,1-2.263-3.927h-3.813a1.037,1.037,0,0,1-1.033-1.033v-3.059l2.067-2.108c1.488.579,5.6,2.862,7.233,3.1.413,3.844,0,2.066,3.1,5.166.884.884,2.439,1.54,3.472,1,.217.021.444.031.662.031a7.229,7.229,0,0,0,7.233-7.233,7.446,7.446,0,0,0-.331-2.17,19.232,19.232,0,0,0,2.511-1.87h2.924a1.1,1.1,0,0,1,1.1,1.1Zm0,0" transform="translate(-198.95 -265.625)" fill="#607d8b"/>
      <path id="Trazado_733172" data-name="Trazado 733172" d="M17.953,29.1a7.228,7.228,0,0,0,7.233,7.233,7.031,7.031,0,0,0,2.253-.362,20.084,20.084,0,0,0,2.676,7.73l-.806.806L27.46,41.3a12.606,12.606,0,0,1-4.547,0l-1.9,3.3a1.029,1.029,0,0,1-1.405.382l-5.374-3.1a1.031,1.031,0,0,1-.372-1.415l1.9-3.3A12.176,12.176,0,0,1,13.5,33.236H9.686A1.036,1.036,0,0,1,8.652,32.2V26a1.037,1.037,0,0,1,1.033-1.033H13.5a12.181,12.181,0,0,1,2.263-3.927l-1.9-3.3a1.032,1.032,0,0,1,.372-1.416l5.374-3.1a1.029,1.029,0,0,1,1.405.382l1.9,3.3a12.606,12.606,0,0,1,4.547,0l1.9-3.3a1.029,1.029,0,0,1,1.405-.382L36.088,16.3a20.457,20.457,0,0,0-6.376,7.171,7.145,7.145,0,0,0-4.526-1.6A7.228,7.228,0,0,0,17.953,29.1Zm0,0" transform="translate(-7.587 -11.102)" fill="#607d8b"/>
      <path id="Trazado_733173" data-name="Trazado 733173" d="M180.4,8.827c-.548,0-1.075.021-1.6.062h-.01a.015.015,0,0,0-.011,0,.014.014,0,0,0-.01,0,20.69,20.69,0,0,0-19.035,20.522v.083a20.709,20.709,0,0,0,17.619,20.44c.475.072.961.134,1.457.176h.051c.506.031,1.023.052,1.54.052a20.445,20.445,0,0,0,11.036-3.2,19.563,19.563,0,0,0,4.144-3.451A20.658,20.658,0,0,0,180.4,8.827Zm-1.561,37.056c-.579-.062-1.147-.145-1.715-.258a16.44,16.44,0,0,1-7.616-3.792c-.258-.227-.516-.465-.765-.713a16.52,16.52,0,0,1,10.106-28.138h.021a16.564,16.564,0,0,1,11.7,3.379v.01a15.94,15.94,0,0,1,1.55,1.364,16.461,16.461,0,0,1,4.753,10.013l.062.837a16.509,16.509,0,0,1-4.815,12.535c-.155.155-.3.3-.465.444a16.488,16.488,0,0,1-12.782,4.32Zm0,0" transform="translate(-140.069 -7.361)" fill="#f57c00"/>
      <path id="Trazado_733174" data-name="Trazado 733174" d="M197.938,28.962A20.624,20.624,0,0,0,178.8,9.3h-.01a.015.015,0,0,0-.011,0,.014.014,0,0,0-.01,0A20.69,20.69,0,0,0,159.735,29.82V29.9a20.709,20.709,0,0,0,17.619,20.44c.475.072.961.134,1.457.176h.051a20.447,20.447,0,0,0,9.476-3.152,19.575,19.575,0,0,0,4.144-3.451A20.566,20.566,0,0,0,197.969,29.9c0-.32-.01-.63-.031-.94ZM192.12,41.528c-.155.155-.3.3-.465.444a16.488,16.488,0,0,1-12.782,4.32h-.031a16.783,16.783,0,0,1-4.815-.258c-2.748-.558-2.769-1.829-4.991-3.792-.258-.227-.517-.465-.765-.713a16.466,16.466,0,0,1-4.836-11.687,17.7,17.7,0,0,1,.134-2.087,16.457,16.457,0,0,1,4.7-9.61c3.606-3.6,5.859-5.188,10.582-4.753h.021a16.564,16.564,0,0,1,11.7,3.379v.01a15.939,15.939,0,0,1,1.55,1.364,16.461,16.461,0,0,1,4.753,10.013l.062.837a16.509,16.509,0,0,1-4.815,12.535Zm0,0" transform="translate(-140.069 -7.769)" fill="#ff9801"/>
      <path id="Trazado_733175" data-name="Trazado 733175" d="M315.525,262.365A16.521,16.521,0,0,1,301,266.426a9.816,9.816,0,0,1,14.529-4.061Zm0,0" transform="translate(-263.939 -228.162)" fill="#707070"/>
      <path id="Trazado_733176" data-name="Trazado 733176" d="M254.9,166.209c-.155.155-.3.3-.465.444a9.816,9.816,0,0,0-14.529,4.061,16.44,16.44,0,0,1-7.616-3.792,18.54,18.54,0,0,1,2.191-3.162l-2.935-5.094a1.592,1.592,0,0,1,.579-2.18l8.3-4.795a1.588,1.588,0,0,1,2.17.589l2.935,5.095a19.432,19.432,0,0,1,7.027,0l2.935-5.095a1.588,1.588,0,0,1,2.17-.589l1.994,1.147a16.51,16.51,0,0,1-4.753,13.371Zm0,0" transform="translate(-202.852 -132.45)" fill="#37474f"/>
      <path id="Trazado_733177" data-name="Trazado 733177" d="M226.611,81.475l-1.994-1.147a1.588,1.588,0,0,0-2.17.589l-2.935,5.095a19.432,19.432,0,0,0-7.027,0l-2.935-5.095a1.588,1.588,0,0,0-2.17-.589l-8.3,4.795a1.592,1.592,0,0,0-.579,2.18l2.935,5.094a18.539,18.539,0,0,0-2.191,3.162c-.258-.227-.516-.465-.765-.713a16.508,16.508,0,0,1-4.7-13.774l2.893.837a1.584,1.584,0,0,0,1.932-1.147l1.478-5.683a19.6,19.6,0,0,0,3.472-.63,19.9,19.9,0,0,0,3.3-1.24l4.185,4.133a1.6,1.6,0,0,0,2.253-.011l6.728-6.82a1.362,1.362,0,0,0,.289-.414,15.939,15.939,0,0,1,1.55,1.364,16.461,16.461,0,0,1,4.753,10.013Zm0,0" transform="translate(-169.807 -61.088)" fill="#02a9f4"/>
      <path id="Trazado_733178" data-name="Trazado 733178" d="M221.264,45.28v.01a1.362,1.362,0,0,1-.289.414l-6.728,6.82a1.6,1.6,0,0,1-2.253.011L207.81,48.4a19.9,19.9,0,0,1-3.3,1.24,19.6,19.6,0,0,1-3.472.63l-1.478,5.683a1.584,1.584,0,0,1-1.932,1.147l-2.893-.837A16.522,16.522,0,0,1,221.264,45.28Zm0,0" transform="translate(-170.763 -36.28)" fill="#37474f"/>
      <path id="Trazado_733179" data-name="Trazado 733179" d="M47.217,345.383l-8.763,8.763-7.306-7.306.176-.165,8.587-8.6a2.071,2.071,0,0,1,2.924,0l3.007,3.007,1.374,1.374a2.071,2.071,0,0,1,0,2.924Zm0,0" transform="translate(-27.314 -295.546)" fill="#0377bc"/>
      <path id="Trazado_733180" data-name="Trazado 733180" d="M46.587,343.162l-8.763,8.763-5.25-5.25,8.587-8.6a2.071,2.071,0,0,1,2.924,0l3.007,3.007a2.013,2.013,0,0,1-.506,2.077Zm0,0" transform="translate(-28.564 -295.546)" fill="#02a9f4"/>
      <path id="Trazado_733181" data-name="Trazado 733181" d="M18.5,420.864l-2.191,2.191a2.052,2.052,0,0,1-2.924,0L9,418.673a1.928,1.928,0,0,1-.465-.733A2.068,2.068,0,0,1,9,415.749l2.2-2.191Zm0,0" transform="translate(-7.363 -362.264)" fill="#545c60"/>
      <path id="Trazado_733182" data-name="Trazado 733182" d="M16.571,418.932,14.5,420.988a2.052,2.052,0,0,1-2.924,0L8.532,417.94A2.068,2.068,0,0,1,9,415.749l2.2-2.191Zm0,0" transform="translate(-7.363 -362.264)" fill="#7f8e94"/>
      <path id="Trazado_733183" data-name="Trazado 733183" d="M126.059,311.137l4.384-4.384,4.384,4.384-4.384,4.384Zm0,0" transform="translate(-110.539 -268.608)" fill="#545c60"/>
      <path id="Trazado_733184" data-name="Trazado 733184" d="M167.272,269.038l-1.881,1.891-.723.723a2.071,2.071,0,0,1-2.924,0l-.579-.579-3.8-3.813a2.059,2.059,0,0,1,0-2.914l2.624-2.624a20.431,20.431,0,0,0,7.285,7.316Zm0,0" transform="translate(-137.459 -229.121)" fill="#d84315"/>
      <path id="Trazado_733185" data-name="Trazado 733185" d="M165.391,272.581l-1.881,1.891-.723.723a2.036,2.036,0,0,1-1.622.589l-3.8-3.813a2.058,2.058,0,0,1,0-2.914l1.963-1.963A20.166,20.166,0,0,0,165.391,272.581Zm0,0" transform="translate(-137.459 -233.831)" fill="#ff5722"/>
      <path id="Trazado_733186" data-name="Trazado 733186" d="M317.26,320.714a7.229,7.229,0,0,1-7.233,7.233,7.659,7.659,0,0,1-1.55-.165,7.221,7.221,0,0,1-5.6-6.034c-.01-.073-.02-.155-.031-.227.475.072.961.134,1.457.176h.051c.506.031,1.023.052,1.54.052a20.48,20.48,0,0,0,8.236-1.715,19.556,19.556,0,0,0,2.8-1.488,7.446,7.446,0,0,1,.331,2.17Zm0,0" transform="translate(-265.56 -278.946)" fill="#707070"/>
      <path id="Trazado_733187" data-name="Trazado 733187" d="M314.378,331.315a7.237,7.237,0,0,1-5.683,7.068,7.221,7.221,0,0,1-5.6-6.035c.476,0,.951-.021,1.426-.052h.051c.506.031,1.023.052,1.54.052a20.48,20.48,0,0,0,8.236-1.715q.031.34.031.682Zm0,0" transform="translate(-265.779 -289.548)" fill="#9e9e9e"/>
      <path id="Trazado_733188" data-name="Trazado 733188" d="M93.5,95.734a20.059,20.059,0,0,0,.186,2.738,7.031,7.031,0,0,1-2.253.362,4.05,4.05,0,0,1-.506-.031,7.227,7.227,0,0,1,.506-14.436,4.744,4.744,0,0,1,.548.031,7.028,7.028,0,0,1,3.978,1.571A20.467,20.467,0,0,0,93.5,95.734Zm0,0" transform="translate(-73.835 -73.6)" fill="#707070"/>
      <path id="Trazado_733189" data-name="Trazado 733189" d="M90.773,96.189a21.892,21.892,0,0,0,.155,2.614,7.227,7.227,0,0,1,.506-14.436,4.74,4.74,0,0,1,.548.031,7.239,7.239,0,0,1,1.519.961,22.6,22.6,0,0,0-2.728,10.83Zm0,0" transform="translate(-73.835 -73.601)" fill="#9e9e9e"/>
      <path id="Trazado_733190" data-name="Trazado 733190" d="M293.637,260.1a1.034,1.034,0,0,1-.942-1.456,10.848,10.848,0,0,1,16.06-4.488,1.033,1.033,0,1,1-1.177,1.7,8.781,8.781,0,0,0-13,3.634A1.034,1.034,0,0,1,293.637,260.1Zm0,0" transform="translate(-256.582 -220.799)"/>
      <path id="Trazado_733191" data-name="Trazado 733191" d="M173.043,43.834a21.7,21.7,0,1,1,21.7-21.7A21.7,21.7,0,0,1,173.043,43.834Zm0-41.334a19.634,19.634,0,1,0,19.633,19.634A19.634,19.634,0,0,0,173.043,2.5Zm0,0" transform="translate(-132.711 0)"/>
      <path id="Trazado_733192" data-name="Trazado 733192" d="M202.873,68.659a17.559,17.559,0,1,1,12.422-5.137,17.559,17.559,0,0,1-12.422,5.137Zm0-33.052a15.493,15.493,0,1,0,10.96,4.533,15.493,15.493,0,0,0-10.96-4.533Zm0,0" transform="translate(-162.508 -29.031)"/>
      <path id="Trazado_733193" data-name="Trazado 733193" d="M30.98,414.473a1.03,1.03,0,0,1-.731-.3l-7.307-7.307A1.033,1.033,0,1,1,24.4,405.4l7.307,7.308a1.033,1.033,0,0,1-.731,1.764Zm0,0" transform="translate(-19.843 -354.836)"/>
      <path id="Trazado_733194" data-name="Trazado 733194" d="M7.484,350.8a3.091,3.091,0,0,1-2.192-.907L.908,345.509a3.1,3.1,0,0,1,0-4.384l10.96-10.96a3.176,3.176,0,0,1,4.384,0l4.385,4.384a3.1,3.1,0,0,1,0,4.384L9.676,349.893a3.092,3.092,0,0,1-2.193.906Zm-.731-2.368a1.034,1.034,0,0,0,1.462,0l10.961-10.96a1.036,1.036,0,0,0,0-1.462l-4.385-4.384a1.058,1.058,0,0,0-1.461,0L2.369,342.586a1.033,1.033,0,0,0,0,1.461Zm0,0" transform="translate(0 -288.367)"/>
      <path id="Trazado_733195" data-name="Trazado 733195" d="M123.1,309.185a1.03,1.03,0,0,1-.73-.3l-4.385-4.384a1.033,1.033,0,0,1,0-1.461l4.385-4.384a1.033,1.033,0,0,1,1.461,0l4.384,4.384a1.033,1.033,0,0,1,0,1.461l-4.383,4.384a1.032,1.032,0,0,1-.731.3Zm-2.923-5.418,2.923,2.923,2.922-2.923-2.922-2.923Zm0,0" transform="translate(-103.191 -261.239)"/>
      <path id="Trazado_733196" data-name="Trazado 733196" d="M155.852,268.08a3.111,3.111,0,0,1-2.192-.9l-4.387-4.4a3.092,3.092,0,0,1,0-4.375l2.624-2.624.762.7.724.737-2.649,2.649a1.029,1.029,0,0,0,0,1.453l4.382,4.393a1.029,1.029,0,0,0,1.462,0l2.6-2.612a1.033,1.033,0,0,1,1.465,1.457l-2.607,2.617a3.085,3.085,0,0,1-2.189.9Zm0,0" transform="translate(-130.101 -223.915)"/>
      <path id="Trazado_733197" data-name="Trazado 733197" d="M302.6,321.542a8.227,8.227,0,0,1-8.221-7.432,1.033,1.033,0,0,1,2.056-.2,6.2,6.2,0,0,0,12.364-.631,6.332,6.332,0,0,0-.294-1.892,1.033,1.033,0,0,1,1.972-.617,8.271,8.271,0,0,1-7.878,10.777Zm0,0" transform="translate(-258.135 -271.508)"/>
      <path id="Trazado_733198" data-name="Trazado 733198" d="M224.928,160.6a1.034,1.034,0,0,1-.9-1.532,19.654,19.654,0,0,1,1.843-2.77l-2.577-4.472a2.624,2.624,0,0,1,.954-3.59l8.3-4.8a2.625,2.625,0,0,1,2-.258,2.593,2.593,0,0,1,1.59,1.232l2.574,4.469a20.422,20.422,0,0,1,5.95,0l2.578-4.475a2.59,2.59,0,0,1,1.587-1.226,2.622,2.622,0,0,1,1.989.254l2,1.149a1.033,1.033,0,0,1-1.029,1.792l-2-1.147a.56.56,0,0,0-.425-.054.536.536,0,0,0-.331.257l-2.938,5.1a1.037,1.037,0,0,1-1.08.5,18.485,18.485,0,0,0-6.658,0,1.042,1.042,0,0,1-1.08-.5l-2.935-5.094a.545.545,0,0,0-.335-.263.56.56,0,0,0-.429.057l-8.292,4.79a.558.558,0,0,0-.2.766l2.936,5.1a1.03,1.03,0,0,1-.113,1.19,17.539,17.539,0,0,0-2.067,2.986,1.033,1.033,0,0,1-.907.536Zm0,0" transform="translate(-195.488 -125.092)"/>
      <path id="Trazado_733199" data-name="Trazado 733199" d="M190.6,75.6a2.682,2.682,0,0,1-.657-.083l-2.924-.846a1.033,1.033,0,1,1,.575-1.985l2.894.837a.539.539,0,0,0,.391-.068.548.548,0,0,0,.252-.339l1.479-5.69a1.034,1.034,0,0,1,.907-.769,18.631,18.631,0,0,0,3.29-.6,18.839,18.839,0,0,0,3.125-1.175,1.035,1.035,0,0,1,1.173.2l4.185,4.133a.559.559,0,0,0,.8-.012l6.717-6.809a.714.714,0,0,0,.07-.083,1.032,1.032,0,0,1,1.989.384v.01a1.014,1.014,0,0,1-.073.381,2.328,2.328,0,0,1-.49.733l-6.752,6.845a2.642,2.642,0,0,1-3.719.015l-3.672-3.627a20.58,20.58,0,0,1-5.731,1.584l-1.3,4.992a2.619,2.619,0,0,1-2.532,1.971Zm0,0" transform="translate(-163.337 -53.693)"/>
      <path id="Trazado_733200" data-name="Trazado 733200" d="M230.988,305.6a2.076,2.076,0,0,1-1.02-.269l-5.383-3.105a2.063,2.063,0,0,1-.748-2.831l1.544-2.677a13.111,13.111,0,0,1-1.725-2.992h-3.1a2.069,2.069,0,0,1-2.067-2.066V288.6a1.033,1.033,0,1,1,2.067,0v3.059h3.813a1.033,1.033,0,0,1,.976.695,11.1,11.1,0,0,0,2.072,3.593,1.033,1.033,0,0,1,.11,1.188l-1.9,3.3,5.367,3.1,1.895-3.3a1.028,1.028,0,0,1,1.082-.5,11.659,11.659,0,0,0,4.174,0,1.032,1.032,0,0,1,1.082.5l1.9,3.3,5.367-3.1-1.907-3.3a1.033,1.033,0,0,1,.11-1.188,11.111,11.111,0,0,0,2.071-3.593,1.033,1.033,0,0,1,.976-.695h3.813v-6.2h-3.813a1.032,1.032,0,0,1-.97-.678,10.35,10.35,0,0,0-.579-1.35l-.007-.015a1.033,1.033,0,1,1,1.825-.969,9.423,9.423,0,0,1,.441.945h3.1a2.069,2.069,0,0,1,2.067,2.067v6.2a2.069,2.069,0,0,1-2.067,2.066h-3.1a13.1,13.1,0,0,1-1.726,2.992l1.547,2.682a2.064,2.064,0,0,1-.748,2.825l-5.376,3.1a2.07,2.07,0,0,1-1.569.2,2.033,2.033,0,0,1-1.254-.973l-1.542-2.673a13.683,13.683,0,0,1-3.463,0l-1.548,2.684a2.024,2.024,0,0,1-1.248.964A2.085,2.085,0,0,1,230.988,305.6Zm0,0" transform="translate(-191.59 -246.792)"/>
      <path id="Trazado_733201" data-name="Trazado 733201" d="M84.068,92.507a8.267,8.267,0,1,1,0-16.534A8.153,8.153,0,0,1,89.243,77.8a1.034,1.034,0,0,1-1.3,1.608,6.1,6.1,0,0,0-3.876-1.372,6.2,6.2,0,0,0,0,12.4,6,6,0,0,0,1.921-.307,1.033,1.033,0,0,1,.662,1.957,8.051,8.051,0,0,1-2.583.416Zm0,0" transform="translate(-66.468 -66.24)"/>
      <path id="Trazado_733202" data-name="Trazado 733202" d="M12.761,38.782a2.072,2.072,0,0,1-1.019-.268L6.358,35.408a2.063,2.063,0,0,1-.748-2.831L7.155,29.9a13.08,13.08,0,0,1-1.726-2.991h-3.1A2.069,2.069,0,0,1,.262,24.841v-6.2a2.068,2.068,0,0,1,2.066-2.066h3.1a13.1,13.1,0,0,1,1.726-2.992L5.608,10.9a2.064,2.064,0,0,1,.748-2.825l5.376-3.1a2.07,2.07,0,0,1,1.569-.2,2.034,2.034,0,0,1,1.254.973L16.1,8.418a13.686,13.686,0,0,1,3.464,0l1.548-2.684a2.023,2.023,0,0,1,1.248-.964,2.068,2.068,0,0,1,1.559.2l5.331,3.074a1.034,1.034,0,0,1-1.033,1.79L22.892,6.764,21,10.065a1.03,1.03,0,0,1-1.082.5,11.658,11.658,0,0,0-4.173,0,1.026,1.026,0,0,1-1.082-.5l-1.9-3.3-5.367,3.1,1.908,3.3a1.034,1.034,0,0,1-.11,1.188,11.113,11.113,0,0,0-2.072,3.593,1.033,1.033,0,0,1-.976.695H2.328v6.2H6.141a1.034,1.034,0,0,1,.976.695A11.106,11.106,0,0,0,9.19,29.129a1.033,1.033,0,0,1,.11,1.188l-1.9,3.3,5.367,3.1,1.895-3.3a1.028,1.028,0,0,1,1.082-.5,11.635,11.635,0,0,0,4.173,0,1.026,1.026,0,0,1,1.083.5l1.85,3.213a1.034,1.034,0,1,1-1.792,1.032l-1.5-2.6a13.686,13.686,0,0,1-3.464,0l-1.548,2.684a2.024,2.024,0,0,1-1.248.963,2.09,2.09,0,0,1-.54.071Zm0,0" transform="translate(-0.229 -3.741)"/>
    </g>
  </g>
</svg>
