<svg xmlns="http://www.w3.org/2000/svg" width="105" height="105" viewBox="0 0 105 105">
  <g id="Grupo_1014236" data-name="Grupo 1014236" transform="translate(-1032 -1916)">
    <g id="Grupo_1014235" data-name="Grupo 1014235">
      <circle id="Elipse_4626" data-name="Elipse 4626" cx="52.5" cy="52.5" r="52.5" transform="translate(1032 1916)" fill="#ff6e33"/>
      <g id="contrato" transform="translate(1056.331 1935.316)">
        <path id="Trazado_733232" data-name="Trazado 733232" d="M86.259,18.927V69.01a2.186,2.186,0,0,1-2.179,2.179H44.859A2.185,2.185,0,0,1,42.68,69.01V10.179A2.185,2.185,0,0,1,44.859,8H76.453v8.716a2.185,2.185,0,0,0,2.179,2.179h7.593Zm0,0" transform="translate(-36.868 -6.911)" fill="#e6e7e8"/>
        <path id="Trazado_733233" data-name="Trazado 733233" d="M136.617,277.951a2.173,2.173,0,0,0-.643-1.536l-5.262-5.262,2.571-.512,10.786,10.786-1.6,1.6a2.121,2.121,0,0,0-2.636.327,2.157,2.157,0,0,0,0,3.072,2.18,2.18,0,0,0-3.083,3.083,2.18,2.18,0,1,0-3.083,3.083,2.179,2.179,0,0,0-3.421,2.648l-.817.817a2.18,2.18,0,0,1-3.083-3.083,2.173,2.173,0,0,1-1.536.643,2.214,2.214,0,0,1-1.547-.643,2.17,2.17,0,0,1,0-3.073,2.179,2.179,0,0,1-3.073-3.083,2.2,2.2,0,0,1-1.547.631,2.175,2.175,0,0,1-1.536-3.715l2.309-2.31.773-.773,4.522-4.532a4.342,4.342,0,0,0,3.563-1.242l4.619,4.619a2.184,2.184,0,0,0,3.726-1.547Zm0,0" transform="translate(-100.605 -233.784)" fill="#ffc477"/>
        <g id="Grupo_1014228" data-name="Grupo 1014228" transform="translate(11.107 33.773)">
          <path id="Trazado_733234" data-name="Trazado 733234" d="M220.728,429.367a2.158,2.158,0,0,1,0,3.073,2.18,2.18,0,0,1-3.073,0l-1.547-1.536a2.162,2.162,0,0,1-.338-.436,2.182,2.182,0,0,1,3.421-2.648Zm0,0" transform="translate(-197.239 -402.784)" fill="#ffdaaa"/>
          <path id="Trazado_733235" data-name="Trazado 733235" d="M241.792,405.15l1.536,1.547a2.172,2.172,0,0,1,.643,1.536,2.216,2.216,0,0,1-.643,1.547,2.178,2.178,0,0,1-3.083,0l-1.536-1.547a2.18,2.18,0,0,1,3.083-3.083Zm0,0" transform="translate(-216.756 -383.197)" fill="#ffdaaa"/>
          <path id="Trazado_733236" data-name="Trazado 733236" d="M266.008,384.088a2.18,2.18,0,0,1-3.083,3.083l-1.536-1.547a2.18,2.18,0,0,1,3.083-3.083Zm0,0" transform="translate(-236.353 -363.672)" fill="#ffdaaa"/>
          <path id="Trazado_733237" data-name="Trazado 733237" d="M288.582,361.454a2.18,2.18,0,1,1-3.083,3.083l-1.536-1.547a2.157,2.157,0,0,1,0-3.072,2.121,2.121,0,0,1,2.636-.327,1.573,1.573,0,0,1,.447.327Zm0,0" transform="translate(-255.844 -344.121)" fill="#ffdaaa"/>
          <path id="Trazado_733238" data-name="Trazado 733238" d="M94.556,256.563,90.034,261.1l-.773.773-2.309,2.31-5.393-5.393L92.344,248h4.62l8.857,8.857a2.18,2.18,0,1,1-3.083,3.083l-4.619-4.619A4.342,4.342,0,0,1,94.556,256.563Zm0,0" transform="translate(-81.559 -248)" fill="#ffdaaa"/>
        </g>
        <path id="Trazado_733239" data-name="Trazado 733239" d="M239.965,251.083,243.047,248l10.778,10.788-3.082,3.079Zm0,0" transform="translate(-207.286 -214.23)" fill="#3d9ae2"/>
        <path id="Trazado_733240" data-name="Trazado 733240" d="M58.918,236.141,69.7,225.356l3.083,3.083L62,239.225Zm0,0" transform="translate(-50.894 -194.666)" fill="#3d9ae2"/>
        <path id="Trazado_733241" data-name="Trazado 733241" d="M266.415,200.452l-9.01-9.01-6.166,6.166,1.547,1.536L263.56,209.93l1.547,1.536,1.308-1.308,4.859-4.848Zm0,0" transform="translate(-217.024 -165.371)" fill="#1e81ce"/>
        <path id="Trazado_733242" data-name="Trazado 733242" d="M20.361,174.48,8.039,186.8l4.717,4.728,1.438,1.438,12.333-12.333Zm0,0" transform="translate(-6.944 -150.719)" fill="#1e81ce"/>
        <path id="Trazado_733243" data-name="Trazado 733243" d="M290.68,8l9.772,10.895h-7.593a2.185,2.185,0,0,1-2.179-2.179Zm0,0" transform="translate(-251.094 -6.911)" fill="#bcbec0"/>
        <path id="Trazado_733244" data-name="Trazado 733244" d="M55.015,182.952,41.149,169.085a1.12,1.12,0,0,0-1.541,0l-6.163,6.163a1.09,1.09,0,0,0,0,1.541l.77.77-2.081,2.081-1.669.332-3.183-3.183a1.09,1.09,0,0,0-.77-.319H22.341l-1.993-1.992a1.089,1.089,0,0,0,0-1.541l-6.162-6.164a1.089,1.089,0,0,0-1.542,0L.319,179.1a1.089,1.089,0,0,0,0,1.541L6.482,186.8a1.089,1.089,0,0,0,1.541,0l7.074,7.074a3.243,3.243,0,0,0,2.774,4.653,3.216,3.216,0,0,0,3.085,3.08,3.217,3.217,0,0,0,3.076,3.076,3.262,3.262,0,0,0,5.556,2.14l1.158,1.158a3.256,3.256,0,0,0,5.571-2.138,3.213,3.213,0,0,0,3.078-3.08,3.222,3.222,0,0,0,3.083-3.082,3.254,3.254,0,0,0,2.141-5.556l-1.152-1.153,3.078-3.085.77.771a1.089,1.089,0,0,0,1.541,0L55.02,184.5a1.09,1.09,0,0,0,0-1.541ZM34.6,187.189a1.089,1.089,0,0,1,0,1.541,1.112,1.112,0,0,1-1.541,0l-4.622-4.621a1.089,1.089,0,0,0-1.541,0,3.269,3.269,0,0,1-4.624,0l-1.536,1.54a5.451,5.451,0,0,0,1.342.966L16.5,192.2l-3.856-3.851,9.7-9.7h3.72Zm-27.346-2.7L2.629,179.87l10.786-10.786,4.622,4.622Zm11.556-8.474,1.538,1.541L11.1,186.8l-1.541-1.541ZM27.274,205.6a1.073,1.073,0,0,1-.762-.313,1.089,1.089,0,0,1-.012-1.525l.012-.012,2.239-2.239.84-.838-1.538-1.545-.843.843-2.248,2.239-.01.012a1.09,1.09,0,0,1-1.525-1.553l3.084-3.082-1.541-1.54L21.89,199.13a1.09,1.09,0,1,1-1.542-1.54l3.082-3.081-1.541-1.541-3.083,3.081a1.114,1.114,0,0,1-1.54,0,1.09,1.09,0,0,1,0-1.541l7.283-7.286a5.419,5.419,0,0,0,3.044-.882l3.929,3.929a3.348,3.348,0,0,0,4.623,0,3.268,3.268,0,0,0,0-4.622l-3.824-3.824,9.6,9.6-.327.327a3.232,3.232,0,0,0-4.091,2.974,3.22,3.22,0,0,0-3.082,3.111,3.159,3.159,0,0,0-3.078,3.05,3.23,3.23,0,0,0-2.977,4.081l-.327.327a1.079,1.079,0,0,1-.769.3Zm6.556.846a1.114,1.114,0,0,1-1.541,0L30.749,204.9a1.09,1.09,0,0,1,1.537-1.538l1.545,1.538a1.076,1.076,0,0,1,.319.769,1.09,1.09,0,0,1-.319.775Zm3.081-3.082a1.089,1.089,0,0,1-1.541,0l-1.541-1.541a1.089,1.089,0,0,1,0-1.542,1.076,1.076,0,0,1,.769-.319,1.09,1.09,0,0,1,.77.319l1.541,1.541a1.09,1.09,0,0,1,0,1.542Zm3.08-3.082a1.114,1.114,0,0,1-1.54,0l-1.541-1.541a1.09,1.09,0,0,1,1.541-1.541l1.541,1.541a1.09,1.09,0,0,1,.319.77A1.077,1.077,0,0,1,39.992,200.284Zm3.083-3.081a1.089,1.089,0,0,1-1.542,0l-1.54-1.54a1.091,1.091,0,1,1,1.542-1.544l1.537,1.544a1.088,1.088,0,0,1,0,1.54Zm.386-7.319-9.244-9.244,1.54-1.541L45,188.345Zm4.623-1.54L35.756,176.018l4.623-4.623L52.7,183.722Zm0,0" transform="translate(0 -143.786)"/>
        <path id="Trazado_733245" data-name="Trazado 733245" d="M36.859,345.431V328H34.68v17.431a3.268,3.268,0,0,0,3.268,3.268H52.111v-2.179H37.948a1.09,1.09,0,0,1-1.089-1.089Zm0,0" transform="translate(-29.957 -283.332)"/>
        <path id="Trazado_733246" data-name="Trazado 733246" d="M292.485,373.074a1.089,1.089,0,0,1-1.089,1.09H282.68v2.179H291.4a3.269,3.269,0,0,0,3.268-3.268V360h-2.179Zm0,0" transform="translate(-244.184 -310.974)"/>
        <path id="Trazado_733247" data-name="Trazado 733247" d="M36.859,3.268a1.09,1.09,0,0,1,1.089-1.089H68.453V9.8a3.268,3.268,0,0,0,3.268,3.268h6.537V30.5h2.179V12.016a1.088,1.088,0,0,0-.279-.728L70.353.361A1.088,1.088,0,0,0,69.543,0H37.948A3.268,3.268,0,0,0,34.68,3.268V26.147h2.179ZM70.632,9.8V3.938l6.245,6.956H71.722A1.09,1.09,0,0,1,70.632,9.8Zm0,0" transform="translate(-29.957 0)"/>
        <path id="Trazado_733248" data-name="Trazado 733248" d="M82.68,48h2.179v2.179H82.68Zm0,0" transform="translate(-71.42 -41.463)"/>
        <path id="Trazado_733249" data-name="Trazado 733249" d="M114.68,48H123.4v2.179H114.68Zm0,0" transform="translate(-99.063 -41.463)"/>
        <path id="Trazado_733250" data-name="Trazado 733250" d="M82.68,80H95.753v2.179H82.68Zm0,0" transform="translate(-71.42 -69.106)"/>
        <path id="Trazado_733251" data-name="Trazado 733251" d="M82.68,128h4.358v2.179H82.68Zm0,0" transform="translate(-71.42 -110.569)"/>
        <path id="Trazado_733252" data-name="Trazado 733252" d="M130.68,128h26.147v2.179H130.68Zm0,0" transform="translate(-112.884 -110.569)"/>
        <path id="Trazado_733253" data-name="Trazado 733253" d="M146.68,176h16.342v2.179H146.68Zm0,0" transform="translate(-126.705 -152.032)"/>
      </g>
    </g>
  </g>
</svg>
