<svg xmlns="http://www.w3.org/2000/svg" width="105" height="105" viewBox="0 0 105 105">
  <g id="Grupo_1014237" data-name="Grupo 1014237" transform="translate(-748 -1916)">
    <circle id="Elipse_4625" data-name="Elipse 4625" cx="52.5" cy="52.5" r="52.5" transform="translate(748 1916)" fill="#ff6e33"/>
    <g id="Grupo_1014227" data-name="Grupo 1014227" transform="translate(-2.195 3)">
      <g id="evaluacion_1_" data-name="evaluacion (1)" transform="translate(769 1934)">
        <g id="Grupo_1014225" data-name="Grupo 1014225">
          <g id="Grupo_1014211" data-name="Grupo 1014211">
            <path id="Trazado_733210" data-name="Trazado 733210" d="M61,43V61H58L47,45l8-7Z" fill="#ff826e"/>
          </g>
          <g id="Grupo_1014212" data-name="Grupo 1014212">
            <path id="Trazado_733211" data-name="Trazado 733211" d="M15.75,59,16,61H4l1-8H15Z" fill="#ff826e"/>
          </g>
          <g id="Grupo_1014213" data-name="Grupo 1014213">
            <path id="Trazado_733212" data-name="Trazado 733212" d="M9,19V35.49a2.525,2.525,0,0,0,.2.98l1.41,3.29a17.6,17.6,0,0,1-4.87-9.04l-.39-1.95A2.148,2.148,0,0,0,5,27.95V7A2.006,2.006,0,0,1,7,5H41a2.006,2.006,0,0,1,2,2V24.04a3.58,3.58,0,0,0-2.06,1.02l-.45.45A2.623,2.623,0,0,0,39,25V14a1,1,0,0,0-1-1H10a1,1,0,0,0-1,1Z" fill="#969faa"/>
          </g>
          <g id="Grupo_1014214" data-name="Grupo 1014214">
            <path id="Trazado_733213" data-name="Trazado 733213" d="M15.8,53H38a1,1,0,0,0,1-1V43.14l.01-.01A10.942,10.942,0,0,0,43,44.5V57a2.006,2.006,0,0,1-2,2H15.75L15,53l.11-.28Z" fill="#969faa"/>
          </g>
          <g id="Grupo_1014215" data-name="Grupo 1014215">
            <path id="Trazado_733214" data-name="Trazado 733214" d="M38,53H9V14a1,1,0,0,1,1-1H38a1,1,0,0,1,1,1V52A1,1,0,0,1,38,53Z" fill="#69d6f4"/>
          </g>
          <g id="Grupo_1014216" data-name="Grupo 1014216">
            <path id="Trazado_733215" data-name="Trazado 733215" d="M35,42v6a1,1,0,0,1-1,1H28a1,1,0,0,1-1-1V42a1,1,0,0,1,1-1h6A1,1,0,0,1,35,42Z" fill="#e6e9ed"/>
          </g>
          <g id="Grupo_1014217" data-name="Grupo 1014217">
            <path id="Trazado_733216" data-name="Trazado 733216" d="M32.43,29l2.58,2.26A2.786,2.786,0,0,0,33.83,31,2.834,2.834,0,0,0,31,33.83v.09a2.8,2.8,0,0,0,.71,1.88L32.78,37H28a1,1,0,0,1-1-1V30a1,1,0,0,1,1-1h4.42Z" fill="#e6e9ed"/>
          </g>
          <g id="Grupo_1014218" data-name="Grupo 1014218">
            <path id="Trazado_733217" data-name="Trazado 733217" d="M29.6,23.6A2.162,2.162,0,0,0,29,25H28a1,1,0,0,1-1-1V18a1,1,0,0,1,1-1h6a1,1,0,0,1,1,1v6a1.007,1.007,0,0,1-.77.98l-1.64-1.46A2.1,2.1,0,0,0,31.22,23h-.16a2.081,2.081,0,0,0-1.46.6Z" fill="#e6e9ed"/>
          </g>
          <g id="Grupo_1014219" data-name="Grupo 1014219">
            <path id="Trazado_733218" data-name="Trazado 733218" d="M40.49,25.51l.45-.45A3.58,3.58,0,0,1,43,24.04a2.81,2.81,0,0,1,.5-.04,3.618,3.618,0,0,1,2.56,1.06l1.31,1.31a33.887,33.887,0,0,1,7.21,10.65L55,38l-8,7-3.89-.49c-.04,0-.07-.01-.11-.01a10.942,10.942,0,0,1-3.99-1.37,10.5,10.5,0,0,1-2.76-2.22L32.78,37l-1.07-1.2A2.8,2.8,0,0,1,31,33.92v-.09A2.834,2.834,0,0,1,33.83,31a2.786,2.786,0,0,1,1.18.26L32.43,29h-.01L29.7,26.62a2.107,2.107,0,0,1-.7-1.56V25a2.162,2.162,0,0,1,.6-1.4,2.081,2.081,0,0,1,1.46-.6h.16a2.1,2.1,0,0,1,1.37.52l1.64,1.46,2.01,1.78,1.05-1.05A2.406,2.406,0,0,1,39,25a2.623,2.623,0,0,1,1.49.51Z" fill="#f0d0b4"/>
          </g>
          <g id="Grupo_1014220" data-name="Grupo 1014220">
            <path id="Trazado_733219" data-name="Trazado 733219" d="M10.61,39.76,9.2,36.47a2.525,2.525,0,0,1-.2-.98v-.02A2.458,2.458,0,0,1,11.47,33a2.466,2.466,0,0,1,2.21,1.37L14,35l1.28,2.55A16.25,16.25,0,0,1,16.89,43,16.435,16.435,0,0,1,17,44.86a16.372,16.372,0,0,1-1.17,6.06l-.72,1.8L15,53H5A66.349,66.349,0,0,1,1,30.3V29.2A2.185,2.185,0,0,1,3.2,27a2.168,2.168,0,0,1,1.8.95,2.148,2.148,0,0,1,.35.82l.39,1.95A17.6,17.6,0,0,0,10.61,39.76Z" fill="#f0d0b4"/>
          </g>
          <g id="Grupo_1014221" data-name="Grupo 1014221">
            <path id="Trazado_733220" data-name="Trazado 733220" d="M55,17v3a3,3,0,0,1-6,0V17h6Z" fill="#ccd1d9"/>
          </g>
          <g id="Grupo_1014222" data-name="Grupo 1014222">
            <path id="Trazado_733221" data-name="Trazado 733221" d="M53.18,1H50.82a7.821,7.821,0,0,0-4.34,14.32L49,17h6l2.52-1.68A7.817,7.817,0,0,0,53.18,1Z" fill="#ffeaa7"/>
          </g>
          <g id="Grupo_1014223" data-name="Grupo 1014223">
            <path id="Trazado_733222" data-name="Trazado 733222" d="M55.1,11H53.4l-.19-1.91a1.21,1.21,0,0,1-.01-.19,1.9,1.9,0,0,1,3.8,0v.2A1.9,1.9,0,0,1,55.1,11Z" fill="#fcd770"/>
          </g>
          <g id="Grupo_1014224" data-name="Grupo 1014224">
            <path id="Trazado_733223" data-name="Trazado 733223" d="M48.9,7a1.9,1.9,0,0,1,1.89,2.09L50.6,11H48.9A1.9,1.9,0,0,1,47,9.1V8.9A1.9,1.9,0,0,1,48.9,7Z" fill="#fcd770"/>
          </g>
        </g>
        <g id="Grupo_1014226" data-name="Grupo 1014226">
          <path id="Trazado_733224" data-name="Trazado 733224" d="M20,8h8v2H20Z"/>
          <path id="Trazado_733225" data-name="Trazado 733225" d="M12,18h4v2H12Z"/>
          <path id="Trazado_733226" data-name="Trazado 733226" d="M18,18h6v2H18Z"/>
          <path id="Trazado_733227" data-name="Trazado 733227" d="M12,22H22v2H12Z"/>
          <path id="Trazado_733228" data-name="Trazado 733228" d="M12,30h4v2H12Z"/>
          <path id="Trazado_733229" data-name="Trazado 733229" d="M18,30h6v2H18Z"/>
          <path id="Trazado_733230" data-name="Trazado 733230" d="M55.5,36.625a34.82,34.82,0,0,0-7.421-10.962l-1.31-1.31A4.572,4.572,0,0,0,44,23.048V14.385a8.824,8.824,0,0,0,1.926,1.767L48,17.535V20a4,4,0,1,0,8,0V17.535l2.074-1.383A8.816,8.816,0,0,0,53.184,0H50.817a8.821,8.821,0,0,0-7.826,4.773A2.977,2.977,0,0,0,41,4H7A3,3,0,0,0,4,7V26.115A3.145,3.145,0,0,0,3.2,26,3.2,3.2,0,0,0,0,29.2v1.1A67.241,67.241,0,0,0,3.979,53.1L2.867,62H17.133l-.25-2H41a3,3,0,0,0,3-3V45.633l2.431.3L57.474,62H62V42.531l-6.175-5.146Zm-8.835-9.548a32.833,32.833,0,0,1,7,10.336l.134.313-7.116,6.226-3.447-.431A10,10,0,0,1,37,40.242l-4.536-5.1A1.9,1.9,0,0,1,32,33.828a1.829,1.829,0,0,1,3.122-1.293l3.171,3.172,1.414-1.414-3.172-3.172a3.816,3.816,0,0,0-.913-.656l-5.26-4.6a1.064,1.064,0,0,1,.7-1.863h.152a1.065,1.065,0,0,1,.707.269l8.414,7.479,1.329-1.494-3.972-3.531L38,26.414a1.447,1.447,0,0,1,2,0l2.293,2.293,1.414-1.414-1.764-1.764a2.687,2.687,0,0,1,3.41.239ZM17.708,48H24V46H17.946c.025-.381.054-.761.054-1.145,0-.285-.011-.57-.025-.855H24V42H17.757a17.438,17.438,0,0,0-1.587-4.9L15.618,36H22V34H14.618l-.041-.081A3.44,3.44,0,0,0,10,32.34V14H38V24.19a3.252,3.252,0,0,0-1.414.81l-.391.391-.454-.4A2,2,0,0,0,36,24V18a2,2,0,0,0-2-2H28a2,2,0,0,0-2,2v6a2,2,0,0,0,2,2h.164a3.053,3.053,0,0,0,.881,1.369l.722.631H28a2,2,0,0,0-2,2v6a2,2,0,0,0,2,2h4.329l1.788,2.012C34.078,40.01,34.04,40,34,40H28a2,2,0,0,0-2,2v6a2,2,0,0,0,2,2h6a2,2,0,0,0,2-2V42.082a11.96,11.96,0,0,0,2,1.62V52H16.477l.284-.709A17.3,17.3,0,0,0,17.708,48ZM28.2,24H28V18h6v5.44l-.749-.665A3.06,3.06,0,0,0,31.215,22h-.152A3.062,3.062,0,0,0,28.2,24Zm2.421,12H28V30h4.052l.331.289A3.893,3.893,0,0,0,30,33.925,3.815,3.815,0,0,0,30.622,36ZM34,48H28V42h6ZM49.7,10H48.9a.9.9,0,0,1-.9-.9V8.9a.9.9,0,0,1,.9-.9.9.9,0,0,1,.9.989ZM54.2,8.989A.9.9,0,0,1,55.1,8a.9.9,0,0,1,.9.9v.2a.9.9,0,0,1-.9.9h-.794ZM52,22a2,2,0,0,1-2-2V18h4v2A2,2,0,0,1,52,22Zm-.9-6,.4-4h.99l.4,4ZM50.816,2h2.367a6.816,6.816,0,0,1,3.781,12.488L54.892,15.87,54.505,12h.6A2.9,2.9,0,0,0,58,9.1V8.9a2.9,2.9,0,1,0-5.785.288L52.3,10h-.59l.081-.812A2.9,2.9,0,1,0,46,8.9v.2A2.9,2.9,0,0,0,48.9,12h.6l-.387,3.87-2.072-1.382A6.816,6.816,0,0,1,50.816,2ZM7,6H41a1,1,0,0,1,1,1V23.268a4.588,4.588,0,0,0-1.684,1.017c-.1-.041-.21-.063-.316-.094V14a2,2,0,0,0-2-2H10a2,2,0,0,0-2,2V34.358a16.569,16.569,0,0,1-1.275-3.833L6.334,28.57A3.175,3.175,0,0,0,6,27.677V7A1,1,0,0,1,7,6ZM2,29.2a1.2,1.2,0,0,1,2.373-.235l.391,1.955a18.508,18.508,0,0,0,5,9.4l.436,1.017a3.817,3.817,0,0,1-.1,3.215l1.789.9a5.81,5.81,0,0,0,.144-4.9L10.12,36.075a1.493,1.493,0,0,1-.12-.6,1.472,1.472,0,0,1,2.788-.659L14.381,38A15.407,15.407,0,0,1,16,44.855a15.253,15.253,0,0,1-1.1,5.693L14.323,52H5.717A65.229,65.229,0,0,1,2,30.295ZM5.133,60l.75-6h8.234l.75,6ZM41,58H16.633l-.5-4H38a2,2,0,0,0,2-2V44.728a11.97,11.97,0,0,0,2,.609V57A1,1,0,0,1,41,58Zm19,2H58.526l-10.2-14.833,6.688-5.853L60,43.469Z"/>
        </g>
      </g>
      <path id="Trazado_733231" data-name="Trazado 733231" d="M31.292,39.43v2.323h2.195V39.43a4.278,4.278,0,0,0,.361-8.224l-2.222-.742a2.091,2.091,0,0,1,.66-4.075h.207a2.092,2.092,0,0,1,2.092,2.091v.1l2.195-.1a4.286,4.286,0,0,0-3.292-4.158V22H31.292v2.323a4.278,4.278,0,0,0-.361,8.224l2.222.742a2.091,2.091,0,0,1-.66,4.075h-.207a2.092,2.092,0,0,1-2.092-2.091v-1.2H28v1.2a4.284,4.284,0,0,0,3.292,4.157Z" transform="translate(798.61 1931.526)"/>
    </g>
  </g>
</svg>
