<svg xmlns="http://www.w3.org/2000/svg" width="105" height="105" viewBox="0 0 105 105">
  <g id="Grupo_1014116" data-name="Grupo 1014116" transform="translate(-1021 -1431)">
    <circle id="Elipse_4626" data-name="Elipse 4626" cx="52.5" cy="52.5" r="52.5" transform="translate(1021 1431)" fill="#ff6e33"/>
    <g id="presupuesto" transform="translate(1042.017 1453)">
      <path id="Trazado_733071" data-name="Trazado 733071" d="M142.526,18.541V55.127c0,.073,0,.146,0,.219a4.724,4.724,0,0,1-4.719,4.5H111.247a4.723,4.723,0,0,1-4.724-4.723V12.768a4.717,4.717,0,0,1,4.724-4.724H132.34a4.708,4.708,0,0,1,2.051.47c1.276.614,1.635,1.39,3.929,3.735,2.638,2.865,3.268,3.158,3.806,4.4A4.672,4.672,0,0,1,142.526,18.541Z" transform="translate(-93.141 -7.07)" fill="#ffc477"/>
      <path id="Trazado_733072" data-name="Trazado 733072" d="M169.035,18.54V55.126c0,.073,0,.146,0,.219a4.738,4.738,0,0,1-1.066.12H141.409a4.723,4.723,0,0,1-4.724-4.723V8.384c0-.074,0-.147,0-.22a4.745,4.745,0,0,1,1.066-.12H158.85a4.731,4.731,0,0,1,3.452,1.5l2.529,2.705,2.9,3.029a4.753,4.753,0,0,1,1.31,3.263Z" transform="translate(-119.651 -7.069)" fill="#ffdaaa"/>
      <path id="Trazado_733073" data-name="Trazado 733073" d="M281.111,181.571v26.558a6.676,6.676,0,0,1-6.675,6.675H257.089a6.676,6.676,0,0,1-6.675-6.675V181.571a6.672,6.672,0,0,1,6.675-6.675h17.346A6.675,6.675,0,0,1,281.111,181.571Z" transform="translate(-219.608 -153.717)" fill="#4cba68"/>
      <path id="Trazado_733074" data-name="Trazado 733074" d="M301.143,181.571v26.558a6.64,6.64,0,0,1-1.293,3.948,6.647,6.647,0,0,1-2.622.536H279.881a6.676,6.676,0,0,1-6.675-6.675V179.38a6.64,6.64,0,0,1,1.293-3.948,6.648,6.648,0,0,1,2.622-.536h17.346A6.675,6.675,0,0,1,301.143,181.571Z" transform="translate(-239.64 -153.717)" fill="#7ccc92"/>
      <path id="Trazado_733075" data-name="Trazado 733075" d="M361.155,366.967v3.119a1,1,0,0,1-1,1h-3.12a1,1,0,0,1-1-1v-3.119a1,1,0,0,1,1-1h3.12A1,1,0,0,1,361.155,366.967Z" transform="translate(-312.442 -321.652)" fill="#2c733f"/>
      <path id="Trazado_733076" data-name="Trazado 733076" d="M309.819,209.23v3.342a2.152,2.152,0,0,1-2.152,2.152H290.449a2.153,2.153,0,0,1-2.152-2.152V209.23a2.153,2.153,0,0,1,2.152-2.152h17.217A2.152,2.152,0,0,1,309.819,209.23Z" transform="translate(-252.903 -182.002)" fill="#1e81ce"/>
      <path id="Trazado_733077" data-name="Trazado 733077" d="M336.328,209.23v3.342a2.152,2.152,0,0,1-2.152,2.152H320.61a2.153,2.153,0,0,1-2.152-2.152V209.23a2.153,2.153,0,0,1,2.152-2.152h13.565A2.152,2.152,0,0,1,336.328,209.23Z" transform="translate(-279.412 -182.002)" fill="#3d9ae2"/>
      <g id="Grupo_1014165" data-name="Grupo 1014165" transform="translate(35.394 36.16)">
        <path id="Trazado_733078" data-name="Trazado 733078" d="M293.414,366.967v3.119a1,1,0,0,1-1,1H289.3a1,1,0,0,1-1-1v-3.119a1,1,0,0,1,1-1h3.12A1,1,0,0,1,293.414,366.967Z" transform="translate(-288.297 -357.812)" fill="#2c733f"/>
        <path id="Trazado_733079" data-name="Trazado 733079" d="M361.155,299.606v3.119a1,1,0,0,1-1,1h-3.12a1,1,0,0,1-1-1v-3.119a1,1,0,0,1,1-1h3.12A1,1,0,0,1,361.155,299.606Z" transform="translate(-347.836 -298.608)" fill="#2c733f"/>
      </g>
      <path id="Trazado_733080" data-name="Trazado 733080" d="M429.712,299.606v3.119a1,1,0,0,1-1,1h-3.119a1,1,0,0,1-1-1v-3.119a1,1,0,0,1,1-1h3.119A1,1,0,0,1,429.712,299.606Z" transform="translate(-372.697 -262.448)" fill="#ee8700"/>
      <g id="Grupo_1014166" data-name="Grupo 1014166" transform="translate(35.394 36.16)">
        <path id="Trazado_733081" data-name="Trazado 733081" d="M293.414,299.606v3.119a1,1,0,0,1-1,1H289.3a1,1,0,0,1-1-1v-3.119a1,1,0,0,1,1-1h3.12A1,1,0,0,1,293.414,299.606Z" transform="translate(-288.297 -298.608)" fill="#2c733f"/>
        <path id="Trazado_733082" data-name="Trazado 733082" d="M361.155,431.028v3.12a1,1,0,0,1-1,1h-3.12a1,1,0,0,1-1-1v-3.12a1,1,0,0,1,1-1h3.12A1,1,0,0,1,361.155,431.028Z" transform="translate(-347.836 -414.116)" fill="#2c733f"/>
        <path id="Trazado_733083" data-name="Trazado 733083" d="M293.414,431.028v3.12a1,1,0,0,1-1,1H289.3a1,1,0,0,1-1-1v-3.12a1,1,0,0,1,1-1h3.12A1,1,0,0,1,293.414,431.028Z" transform="translate(-288.297 -414.116)" fill="#2c733f"/>
      </g>
      <path id="Trazado_733084" data-name="Trazado 733084" d="M429.712,367.451v9.687a1.7,1.7,0,0,1-1.7,1.7H426.3a1.7,1.7,0,0,1-1.7-1.7v-9.687a1.483,1.483,0,0,1,1.483-1.483h2.15A1.483,1.483,0,0,1,429.712,367.451Z" transform="translate(-372.697 -321.651)" fill="#ee8700"/>
      <g id="Grupo_1014167" data-name="Grupo 1014167" transform="translate(35.394 36.16)">
        <path id="Trazado_733085" data-name="Trazado 733085" d="M361.155,366.967v.928a1,1,0,0,1-1,1h-3.12a1,1,0,0,1-1-1v-.928a1,1,0,0,1,1-1h3.12A1,1,0,0,1,361.155,366.967Z" transform="translate(-347.836 -357.812)" fill="#317f46"/>
        <path id="Trazado_733086" data-name="Trazado 733086" d="M293.414,366.967v.928a1,1,0,0,1-1,1H289.3a1,1,0,0,1-1-1v-.928a1,1,0,0,1,1-1h3.12A1,1,0,0,1,293.414,366.967Z" transform="translate(-288.297 -357.812)" fill="#317f46"/>
        <path id="Trazado_733087" data-name="Trazado 733087" d="M361.155,299.606v.928a1,1,0,0,1-1,1h-3.12a1,1,0,0,1-1-1v-.928a1,1,0,0,1,1-1h3.12A1,1,0,0,1,361.155,299.606Z" transform="translate(-347.836 -298.608)" fill="#317f46"/>
      </g>
      <path id="Trazado_733088" data-name="Trazado 733088" d="M429.712,299.606v.928a1,1,0,0,1-1,1h-3.119a1,1,0,0,1-1-1v-.928a1,1,0,0,1,1-1h3.119A1,1,0,0,1,429.712,299.606Z" transform="translate(-372.697 -262.448)" fill="#ff9811"/>
      <g id="Grupo_1014168" data-name="Grupo 1014168" transform="translate(35.394 36.16)">
        <path id="Trazado_733089" data-name="Trazado 733089" d="M293.414,299.606v.928a1,1,0,0,1-1,1H289.3a1,1,0,0,1-1-1v-.928a1,1,0,0,1,1-1h3.12A1,1,0,0,1,293.414,299.606Z" transform="translate(-288.297 -298.608)" fill="#317f46"/>
        <path id="Trazado_733090" data-name="Trazado 733090" d="M361.155,431.028v.929a1,1,0,0,1-1,1h-3.12a1,1,0,0,1-1-1v-.929a1,1,0,0,1,1-1h3.12A1,1,0,0,1,361.155,431.028Z" transform="translate(-347.836 -414.116)" fill="#317f46"/>
        <path id="Trazado_733091" data-name="Trazado 733091" d="M293.414,431.028v.929a1,1,0,0,1-1,1H289.3a1,1,0,0,1-1-1v-.929a1,1,0,0,1,1-1h3.12A1,1,0,0,1,293.414,431.028Z" transform="translate(-288.297 -414.116)" fill="#317f46"/>
      </g>
      <path id="Trazado_733092" data-name="Trazado 733092" d="M429.712,367.451v7.5a1.7,1.7,0,0,1-1.7,1.7H426.3a1.7,1.7,0,0,1-1.7-1.7v-7.5a1.483,1.483,0,0,1,1.483-1.483h2.15A1.483,1.483,0,0,1,429.712,367.451Z" transform="translate(-372.697 -321.651)" fill="#ff9811"/>
      <path id="Trazado_733093" data-name="Trazado 733093" d="M344.4,20.058h-5.919a1.816,1.816,0,0,1-1.816-1.816V11.924a4.718,4.718,0,0,1,1.4,1.029l2.53,2.705,2.895,3.03A4.677,4.677,0,0,1,344.4,20.058Z" transform="translate(-295.411 -10.48)" fill="#ffb655"/>
      <path id="Trazado_733094" data-name="Trazado 733094" d="M88.253,463.964a2.319,2.319,0,0,1-2.313,2.313H71.769a2.313,2.313,0,0,1,0-4.626H85.94A2.32,2.32,0,0,1,88.253,463.964Z" transform="translate(-60.563 -405.748)" fill="#aa6100"/>
      <path id="Trazado_733095" data-name="Trazado 733095" d="M88.253,425.759a2.319,2.319,0,0,1-2.313,2.313H71.769a2.313,2.313,0,0,1,0-4.626H85.94A2.32,2.32,0,0,1,88.253,425.759Z" transform="translate(-60.563 -372.169)" fill="#cc7400"/>
      <path id="Trazado_733096" data-name="Trazado 733096" d="M88.253,387.555a2.319,2.319,0,0,1-2.313,2.313H71.769a2.313,2.313,0,0,1,0-4.626H85.94A2.32,2.32,0,0,1,88.253,387.555Z" transform="translate(-60.563 -338.591)" fill="#ee8700"/>
      <path id="Trazado_733097" data-name="Trazado 733097" d="M88.253,349.349a2.319,2.319,0,0,1-2.313,2.313H71.769a2.32,2.32,0,0,1-2.313-2.313,2.319,2.319,0,0,1,2.313-2.313H85.94A2.32,2.32,0,0,1,88.253,349.349Z" transform="translate(-60.563 -305.012)" fill="#ff9811"/>
      <path id="Trazado_733098" data-name="Trazado 733098" d="M85.94,313.46H71.769a2.32,2.32,0,0,1-2.313-2.313h0a2.32,2.32,0,0,1,2.313-2.313H85.94a2.32,2.32,0,0,1,2.313,2.313h0A2.32,2.32,0,0,1,85.94,313.46Z" transform="translate(-60.563 -271.436)" fill="#ffa733"/>
      <path id="Trazado_733099" data-name="Trazado 733099" d="M26.649,384.833a7.526,7.526,0,0,0-7.844-7.208H15.856a7.536,7.536,0,0,0,.645,15.059h2.3v0c.21.008.422.011.636,0a7.66,7.66,0,0,0,1.4-.191,7.537,7.537,0,0,0,5.809-7.065v-.008C26.657,385.225,26.657,385.03,26.649,384.833Z" transform="translate(-7.096 -331.891)" fill="#cc7400"/>
      <path id="Trazado_733100" data-name="Trazado 733100" d="M73.177,386.857v.008a7.537,7.537,0,0,1-5.809,7.065,7.54,7.54,0,0,1-5.8-7.015c0-.017,0-.033,0-.05v-.008a7.539,7.539,0,0,1,5.807-7.6,7.538,7.538,0,0,1,5.8,7.016C73.184,386.468,73.184,386.663,73.177,386.857Z" transform="translate(-53.623 -333.329)" fill="#ee8700"/>
      <path id="Trazado_733101" data-name="Trazado 733101" d="M54.828,20.266H50.358V11.471a5.712,5.712,0,0,0-1.579-3.936L45.892,4.513c-2.451-2.525-2.76-3.238-4.22-3.947A5.711,5.711,0,0,0,39.2,0H18.106a5.7,5.7,0,0,0-5.7,5.7V36.424h-1.2a3.285,3.285,0,0,0-2.333,5.6,3.275,3.275,0,0,0-.954,2.313,3.372,3.372,0,0,0,.065.65A8.286,8.286,0,0,0,9.168,61.509L25.377,61.5a3.285,3.285,0,0,0,2.333-5.6,3.27,3.27,0,0,0,.95-2.15h1.233v.659A7.6,7.6,0,0,0,37.481,62H54.828a7.6,7.6,0,0,0,7.588-7.588V27.854A7.6,7.6,0,0,0,54.828,20.266ZM42.225,3.444C46.05,7.487,46.912,8.4,47.074,8.571c0,0,0,0,0,0h0l0,.006h0a.021.021,0,0,0,.007.007l0,0s0,0,0,0,0,0,0,0,0,0,0,0H42.224V3.444ZM11.206,38.372H25.378a1.339,1.339,0,1,1,0,2.678H11.206a1.339,1.339,0,1,1,0-2.678Zm0,4.626H25.378a1.339,1.339,0,1,1,0,2.678H15.589a7.933,7.933,0,0,0-1.233-.446,8.21,8.21,0,0,0-1.948-.286c-.191,0-.382,0-.573,0H10.017a1.317,1.317,0,0,1-.15-.612A1.342,1.342,0,0,1,11.206,43Zm15.51,5.966A1.341,1.341,0,0,1,25.378,50.3H19.927a8.193,8.193,0,0,0-1.653-2.678h7.1A1.342,1.342,0,0,1,26.717,48.964ZM6.468,47.215a8.4,8.4,0,0,0-1.534,1.967H3.8A6.432,6.432,0,0,1,6.468,47.215Zm-3.7,3.794H4.182a8.408,8.408,0,0,0-.265,1.46h-1.5A6.4,6.4,0,0,1,2.763,51.009Zm.157,4.827a6.389,6.389,0,0,1-.458-1.541H3.95A7.35,7.35,0,0,0,4.3,55.836Zm1.215,1.826c.6,0,.945,0,1.026,0a8.225,8.225,0,0,0,1.31,1.585A6.434,6.434,0,0,1,4.135,57.662Zm8.31,2.022a6.461,6.461,0,1,1,4.093-11.214A6.455,6.455,0,0,1,12.446,59.685Zm12.932-.129H17.517a8.343,8.343,0,0,0,2.093-2.678h5.768a1.339,1.339,0,1,1,0,2.678Zm1.328-5.8a1.34,1.34,0,0,1-1.328,1.176h-5.1a8.368,8.368,0,0,0,.118-2.678h4.978A1.34,1.34,0,0,1,26.706,53.753Zm3.187-1.948H28.135a3.232,3.232,0,0,0-.425-.528,3.28,3.28,0,0,0,0-4.626,3.28,3.28,0,0,0,0-4.626,3.29,3.29,0,0,0-2.333-5.6H14.356V5.7a3.755,3.755,0,0,1,3.75-3.75H40.277v7.63a.974.974,0,0,0,.974.974h7.044c.2.789.078.528.116,9.714H37.481a7.6,7.6,0,0,0-7.588,7.588V51.805Zm30.7,2.607a5.768,5.768,0,0,1-5.762,5.762H37.482a5.769,5.769,0,0,1-5.762-5.762V27.854a5.769,5.769,0,0,1,5.762-5.762H54.828a5.768,5.768,0,0,1,5.762,5.762V54.412Z" transform="translate(0)"/>
      <path id="Trazado_733102" data-name="Trazado 733102" d="M287.135,207.185h-3.313a1.243,1.243,0,0,1-1.239-1.239V202.6a1.243,1.243,0,0,1,1.239-1.239H301.04a1.241,1.241,0,0,1,1.239,1.239v3.342a1.241,1.241,0,0,1-1.239,1.239h-9.967a.913.913,0,1,0,0,1.826h9.967a3.069,3.069,0,0,0,3.065-3.066V202.6a3.069,3.069,0,0,0-3.065-3.065H283.822a3.066,3.066,0,0,0-3.065,3.065v3.342a3.066,3.066,0,0,0,3.065,3.066h3.313a.913.913,0,0,0,0-1.826Z" transform="translate(-246.276 -175.375)"/>
      <path id="Trazado_733103" data-name="Trazado 733103" d="M282.668,365.371h3.12a1.913,1.913,0,0,0,1.911-1.911V360.34a1.913,1.913,0,0,0-1.911-1.911h-3.12a1.914,1.914,0,0,0-1.911,1.911v3.119A1.914,1.914,0,0,0,282.668,365.371Zm-.085-5.031a.086.086,0,0,1,.085-.085h3.12a.086.086,0,0,1,.085.085v3.119a.086.086,0,0,1-.085.085h-3.12a.086.086,0,0,1-.085-.085Z" transform="translate(-246.276 -315.025)"/>
      <path id="Trazado_733104" data-name="Trazado 733104" d="M422.087,291.068h-3.119a1.913,1.913,0,0,0-1.911,1.911V296.1a1.913,1.913,0,0,0,1.911,1.911h3.119A1.913,1.913,0,0,0,424,296.1v-3.119A1.913,1.913,0,0,0,422.087,291.068Zm.085,5.03a.085.085,0,0,1-.085.085h-3.119a.086.086,0,0,1-.085-.085c.038-3.086-.079-3.2.085-3.2h3.119a.085.085,0,0,1,.085.085Z" transform="translate(-366.07 -255.821)"/>
      <path id="Trazado_733105" data-name="Trazado 733105" d="M282.668,298.01h3.12A1.913,1.913,0,0,0,287.7,296.1v-3.119a1.913,1.913,0,0,0-1.911-1.911h-3.12a1.914,1.914,0,0,0-1.911,1.911V296.1A1.914,1.914,0,0,0,282.668,298.01Zm-.085-5.03a.086.086,0,0,1,.085-.085h3.12a.086.086,0,0,1,.085.085V296.1a.086.086,0,0,1-.085.085h-3.12a.086.086,0,0,1-.085-.085Z" transform="translate(-246.276 -255.821)"/>
      <path id="Trazado_733106" data-name="Trazado 733106" d="M287.2,423.135a1.91,1.91,0,0,0-1.43-.644h-3.12a1.906,1.906,0,0,0-1.429.644,2.612,2.612,0,0,0-.482,1.948v2.439a1.914,1.914,0,0,0,1.911,1.911h3.12a1.913,1.913,0,0,0,1.911-1.911v-2.439A2.633,2.633,0,0,0,287.2,423.135Zm-1.43,4.472c-3.083-.038-3.206.079-3.206-.085,0-3.3-.037-3.2.085-3.2h3.12c.15,0,.057.208.085.766A12.982,12.982,0,0,1,285.765,427.607Z" transform="translate(-246.253 -371.33)"/>
      <path id="Trazado_733107" data-name="Trazado 733107" d="M421.6,358.428h-2.15a2.4,2.4,0,0,0-2.4,2.4v9.687a2.619,2.619,0,0,0,2.615,2.616h1.712A2.618,2.618,0,0,0,424,370.511v-9.687A2.4,2.4,0,0,0,421.6,358.428Zm.57,12.083a.79.79,0,0,1-.789.79H419.67a.791.791,0,0,1-.789-.79v-9.687a.57.57,0,0,1,.57-.57h2.15a.57.57,0,0,1,.57.57v9.687Z" transform="translate(-366.069 -315.025)"/>
      <path id="Trazado_733108" data-name="Trazado 733108" d="M166.575,173.553h0c-1.113-.409-1.918-.7-1.918-1.736,0-.94.624-1.417,1.856-1.417,1.307,0,1.659.575,2.119.575a.877.877,0,0,0,.778-.9c0-.761-1.241-1.138-2.35-1.237v-.686a.865.865,0,0,0-1.73,0v.8a2.83,2.83,0,0,0-2.35,2.96c0,2.125,1.565,2.713,2.822,3.186,1.231.463,2.2.828,2.2,2.234,0,1.161-.645,1.75-1.916,1.75-1.861,0-1.878-1.256-2.588-1.256a.913.913,0,0,0-.794.9c0,.72,1.072,1.665,2.623,1.911v.663a.865.865,0,0,0,1.73,0v-.681a3.126,3.126,0,0,0,2.623-3.376C169.683,174.7,167.959,174.062,166.575,173.553Z" transform="translate(-142.522 -147.03)"/>
      <path id="Trazado_733109" data-name="Trazado 733109" d="M353.509,422.491h-3.12a1.91,1.91,0,0,0-1.43.644,2.622,2.622,0,0,0-.481,1.948v2.439a1.913,1.913,0,0,0,1.911,1.911h3.12a1.913,1.913,0,0,0,1.91-1.911V424.4a1.913,1.913,0,0,0-1.91-1.91Zm0,5.116c-3.083-.038-3.206.079-3.206-.085V424.4a.085.085,0,0,1,.085-.084h3.12a.084.084,0,0,1,.084.084C353.556,427.491,353.671,427.607,353.509,427.607Z" transform="translate(-305.793 -371.33)"/>
      <path id="Trazado_733110" data-name="Trazado 733110" d="M353.531,291.068h-3.12a1.913,1.913,0,0,0-1.911,1.911V296.1a1.913,1.913,0,0,0,1.911,1.911h3.12a1.882,1.882,0,0,0,.7-.132,1.914,1.914,0,0,0,1.215-1.78v-3.119A1.914,1.914,0,0,0,353.531,291.068Zm.084,5.03a.085.085,0,0,1-.084.085h-3.12a.086.086,0,0,1-.085-.085v-3.119c0-.164.113-.049,3.206-.085a.084.084,0,0,1,.084.085V296.1Z" transform="translate(-305.815 -255.821)"/>
      <path id="Trazado_733111" data-name="Trazado 733111" d="M354.226,358.56a1.882,1.882,0,0,0-.7-.132h-3.12a1.913,1.913,0,0,0-1.911,1.911v3.119a1.913,1.913,0,0,0,1.911,1.911h3.12a1.913,1.913,0,0,0,1.91-1.911v-3.119A1.913,1.913,0,0,0,354.226,358.56Zm-.611,4.9a.085.085,0,0,1-.084.085h-3.12a.086.086,0,0,1-.085-.085v-3.119a.086.086,0,0,1,.085-.085h3.12a.084.084,0,0,1,.084.085Z" transform="translate(-305.815 -315.025)"/>
      <path id="Trazado_733112" data-name="Trazado 733112" d="M320.96,104.868h2.294a.913.913,0,1,0,0-1.826H320.96a.913.913,0,1,0,0,1.826Z" transform="translate(-280.809 -90.564)"/>
      <path id="Trazado_733113" data-name="Trazado 733113" d="M157.083,104.868h16.192a.913.913,0,1,0,0-1.826H157.083a.913.913,0,0,0,0,1.826Z" transform="translate(-136.776 -90.564)"/>
      <path id="Trazado_733114" data-name="Trazado 733114" d="M159.985,142.3a.913.913,0,1,0,0-1.826h-2.9a.913.913,0,0,0,0,1.826Z" transform="translate(-136.776 -123.462)"/>
      <path id="Trazado_733115" data-name="Trazado 733115" d="M227.709,141.385a.913.913,0,0,0-.913-.913H211.212a.913.913,0,1,0,0,1.826H226.8A.913.913,0,0,0,227.709,141.385Z" transform="translate(-184.35 -123.462)"/>
      <path id="Trazado_733116" data-name="Trazado 733116" d="M79.352,401.468c0-.229.085-.3.164-.339a1.569,1.569,0,0,1,1.324.089,1.044,1.044,0,0,0,.494.15c.9,0,1.613-1.673-.538-2.043v-.058a.925.925,0,0,0-1.851,0v.176a2.076,2.076,0,0,0-1.411,2.079c0,1.557,1.131,1.982,1.958,2.293.788.3,1.06.426,1.06.962,0,.335-.09.645-.745.645-.954,0-.84-.754-1.554-.754a.954.954,0,0,0-.882.946c0,.633.658,1.233,1.575,1.476v.069a.925.925,0,1,0,1.851,0v-.093a2.288,2.288,0,0,0,1.575-2.343C82.37,401.948,79.352,402.364,79.352,401.468Z" transform="translate(-67.517 -350.105)"/>
    </g>
  </g>
</svg>
