<svg xmlns="http://www.w3.org/2000/svg" width="105" height="105" viewBox="0 0 105 105">
  <g id="Grupo_1014233" data-name="Grupo 1014233" transform="translate(-748 -1592)">
    <circle id="Elipse_4625" data-name="Elipse 4625" cx="52.5" cy="52.5" r="52.5" transform="translate(748 1592)" fill="#ff6e33"/>
    <g id="orden" transform="translate(769 1613)">
      <g id="Grupo_1014200" data-name="Grupo 1014200">
        <g id="Grupo_1014189" data-name="Grupo 1014189">
          <path id="Trazado_733137" data-name="Trazado 733137" d="M59,45H9a2,2,0,0,1-2-2V13a2,2,0,0,1,2-2H59a2,2,0,0,1,2,2V43A2,2,0,0,1,59,45Z" fill="#969faa"/>
        </g>
        <g id="Grupo_1014190" data-name="Grupo 1014190">
          <path id="Trazado_733138" data-name="Trazado 733138" d="M15,15H57V41H15Z" fill="#69d6f4"/>
        </g>
        <g id="Grupo_1014191" data-name="Grupo 1014191">
          <path id="Trazado_733139" data-name="Trazado 733139" d="M19,25h4V37H19Z" fill="#dfb28b"/>
        </g>
        <g id="Grupo_1014192" data-name="Grupo 1014192">
          <path id="Trazado_733140" data-name="Trazado 733140" d="M31,23v4H27V37H23V21l2,.5Z" fill="#ccd1d9"/>
        </g>
        <g id="Grupo_1014193" data-name="Grupo 1014193">
          <path id="Trazado_733141" data-name="Trazado 733141" d="M29,36.62a1.581,1.581,0,0,0,.04.38H27V27h6v8.79A3.955,3.955,0,0,0,30.62,35,1.613,1.613,0,0,0,29,36.62Z" fill="#e6e9ed"/>
        </g>
        <g id="Grupo_1014194" data-name="Grupo 1014194">
          <path id="Trazado_733142" data-name="Trazado 733142" d="M35,55H51v6H35Z" fill="#b4dd7f"/>
        </g>
        <g id="Grupo_1014195" data-name="Grupo 1014195">
          <path id="Trazado_733143" data-name="Trazado 733143" d="M15,55v6H3V56a1,1,0,0,1,1-1H15Z" fill="#b4dd7f"/>
        </g>
        <g id="Grupo_1014196" data-name="Grupo 1014196">
          <path id="Trazado_733144" data-name="Trazado 733144" d="M51,11v4a3.349,3.349,0,0,0-2.1,5.07L46.07,22.9A3.349,3.349,0,0,0,41,25a2.015,2.015,0,0,0-2-2,2.006,2.006,0,0,0-2,2,3.341,3.341,0,0,0-5.07-2.1L29.1,20.07A3.341,3.341,0,0,0,27,15V11a3.341,3.341,0,0,0,2.1-5.07L31.93,3.1a3.348,3.348,0,0,0,1.79.53A3.36,3.36,0,0,0,37,1h4a3.36,3.36,0,0,0,3.28,2.63,3.348,3.348,0,0,0,1.79-.53L48.9,5.93A3.341,3.341,0,0,0,51,11Zm-6,2a6,6,0,1,0-6,6A6,6,0,0,0,45,13Z" fill="#ffc729"/>
        </g>
        <g id="Grupo_1014197" data-name="Grupo 1014197">
          <path id="Trazado_733145" data-name="Trazado 733145" d="M39,7a6,6,0,1,1-6,6A6,6,0,0,1,39,7Zm2,6a2,2,0,1,0-2,2A2.006,2.006,0,0,0,41,13Z" fill="#fcd770"/>
        </g>
        <g id="Grupo_1014198" data-name="Grupo 1014198">
          <path id="Trazado_733146" data-name="Trazado 733146" d="M49,37a2.006,2.006,0,0,1,2-2,2.015,2.015,0,0,1,2,2v9.53A18.874,18.874,0,0,1,51,55H35a9.993,9.993,0,0,1-4-8V45.85c0-.28-.01-.57-.02-.85a20,20,0,0,0-.58-4,21.517,21.517,0,0,0-.83-2.58l-.43-1.07a2.014,2.014,0,0,1-.1-.35,1.581,1.581,0,0,1-.04-.38A1.613,1.613,0,0,1,30.62,35a3.955,3.955,0,0,1,2.38.79,1.558,1.558,0,0,1,.2.16,3.985,3.985,0,0,1,1.36,2.39l.29,1.76A1.083,1.083,0,0,0,37,39.92V25a2.006,2.006,0,0,1,2-2,2.015,2.015,0,0,1,2,2V35a2.006,2.006,0,0,1,2-2,2.015,2.015,0,0,1,2,2,2.006,2.006,0,0,1,2-2,2.015,2.015,0,0,1,2,2Z" fill="#f0d0b4"/>
        </g>
        <g id="Grupo_1014199" data-name="Grupo 1014199">
          <path id="Trazado_733147" data-name="Trazado 733147" d="M7,39.43A2.433,2.433,0,0,1,9.43,37h.08a.985.985,0,0,1,.79.39l5.45,7a5,5,0,0,1,.41.61h.01a5.981,5.981,0,0,1,.53,4.91L15,55H5L1.22,39.89A7.352,7.352,0,0,1,1,38.08a7.433,7.433,0,0,1,2.18-5.26L7,29Z" fill="#f0d0b4"/>
        </g>
      </g>
      <g id="Grupo_1014201" data-name="Grupo 1014201">
        <path id="Trazado_733148" data-name="Trazado 733148" d="M39,20a7,7,0,1,0-7-7A7.008,7.008,0,0,0,39,20ZM39,8a5,5,0,1,1-5,5A5.006,5.006,0,0,1,39,8Z"/>
        <path id="Trazado_733149" data-name="Trazado 733149" d="M39,16a3,3,0,1,0-3-3A3,3,0,0,0,39,16Zm0-4a1,1,0,1,1-1,1A1,1,0,0,1,39,12Z"/>
        <path id="Trazado_733150" data-name="Trazado 733150" d="M54,46.528V46h5a3,3,0,0,0,3-3V13a3,3,0,0,0-3-3H51.148a2.344,2.344,0,0,1-1.406-3.535l.431-.677L46.21,1.826l-.677.431a2.32,2.32,0,0,1-2.163.188,2.32,2.32,0,0,1-1.4-1.662L41.8,0H36.2l-.174.783a2.32,2.32,0,0,1-1.4,1.662,2.324,2.324,0,0,1-2.163-.188l-.677-.431L27.826,5.788l.431.677A2.344,2.344,0,0,1,26.852,10H9a3,3,0,0,0-3,3V28.586L2.474,32.113A8.434,8.434,0,0,0,.253,40.131l3.474,13.9A2,2,0,0,0,2,56v4H0v2H62V60H52V55.22a20.054,20.054,0,0,0,2-8.692Zm-2,0A18.029,18.029,0,0,1,50.362,54h-15A9.038,9.038,0,0,1,32,47V45.852a20.916,20.916,0,0,0-1.5-7.8l-.429-1.07A.986.986,0,0,1,30,36.618.618.618,0,0,1,30.618,36a2.981,2.981,0,0,1,2.951,2.5l.294,1.758A2.083,2.083,0,0,0,38,39.917V25a1,1,0,0,1,2,0V40h2V35a1,1,0,0,1,2,0v5h2V35a1,1,0,0,1,2,0v5h2V37a1,1,0,0,1,2,0ZM32,28v2H28V28Zm-3.918,8H28V32h4v2.212A4.982,4.982,0,0,0,30.618,34a2.617,2.617,0,0,0-2.536,2ZM32,26V24.04l.466-.3A2.342,2.342,0,0,1,36,25.151V39.918c0,.085-.149.1-.164.014l-.294-1.759A4.971,4.971,0,0,0,34,35.333V26Zm-2,0H26V36H24V22.281l6,1.5Zm-8,2H20V26h2Zm-2,2h2v2H20Zm0,4h2v2H20Zm2-14.281V24H18V38H28.322l.318.795c.159.4.286.8.417,1.205H16V16h8v4.219ZM29.6,42a18.726,18.726,0,0,1,.312,2H16.684c-.052-.072-.09-.152-.145-.222L15.156,42ZM17.644,50.231A6.764,6.764,0,0,0,17.677,46H30v1a11.043,11.043,0,0,0,4,8.461V60H16V55.162ZM60,13V43a1,1,0,0,1-1,1H54V42h4V14H52V12h7A1,1,0,0,1,60,13Zm-8.852,3H56V40H54V37a2.99,2.99,0,0,0-4.116-2.78A2.973,2.973,0,0,0,45,32.78a2.908,2.908,0,0,0-3-.6V25.15a2.342,2.342,0,0,1,3.534-1.407l.677.431,3.963-3.963-.431-.677A2.344,2.344,0,0,1,51.148,16ZM28,11.722a4.352,4.352,0,0,0,2.318-5.6l1.807-1.807a4.353,4.353,0,0,0,3.27-.025A4.362,4.362,0,0,0,37.723,2h2.555a4.351,4.351,0,0,0,5.6,2.318l1.807,1.807A4.352,4.352,0,0,0,50,11.723v2.556a4.351,4.351,0,0,0-2.318,5.6l-1.807,1.807a4.328,4.328,0,0,0-4.831,1.135,2.967,2.967,0,0,0-4.09,0,4.328,4.328,0,0,0-4.831-1.135l-1.807-1.807A4.351,4.351,0,0,0,28,14.278V11.722Zm.445,5.65a2.322,2.322,0,0,1-.188,2.162l-.431.677L29.113,21.5,26,20.719V16h.852a2.315,2.315,0,0,1,1.593,1.372ZM9,12H26v2H14V40.514l-2.911-3.742A2.034,2.034,0,0,0,9.427,36,3.394,3.394,0,0,0,8,36.321V13A1,1,0,0,1,9,12ZM2,38.083a6.4,6.4,0,0,1,1.888-4.557L6,31.414v8.013a3.467,3.467,0,0,0,.361,1.533L10.1,48.447l1.789-.9L8.151,40.066A1.433,1.433,0,0,1,8,39.427,1.449,1.449,0,0,1,9.51,38h0l5.449,7.005a4.939,4.939,0,0,1,.787,4.592L14.279,54H5.78L2.192,39.646A6.408,6.408,0,0,1,2,38.083ZM4,56H14v4H4Zm32,4V56H50v4Z"/>
        <path id="Trazado_733151" data-name="Trazado 733151" d="M10,24h2v8H10Z"/>
        <path id="Trazado_733152" data-name="Trazado 733152" d="M44,28h2v2H44Z"/>
        <path id="Trazado_733153" data-name="Trazado 733153" d="M48,28h6v2H48Z"/>
        <path id="Trazado_733154" data-name="Trazado 733154" d="M48,24h6v2H48Z"/>
      </g>
    </g>
  </g>
</svg>
