<svg xmlns="http://www.w3.org/2000/svg" width="105" height="105" viewBox="0 0 105 105">
  <g id="Grupo_1014239" data-name="Grupo 1014239" transform="translate(-464 -2240)">
    <path id="Trazado_733049" data-name="Trazado 733049" d="M52.5,0A52.5,52.5,0,1,1,0,52.5,52.5,52.5,0,0,1,52.5,0Z" transform="translate(464 2240)" fill="#ff6e33"/>
    <g id="administracion" transform="translate(485.499 2264.001)">
      <path id="Trazado_733254" data-name="Trazado 733254" d="M74.907,208v14.18a2.094,2.094,0,0,0-.028-.35,1.929,1.929,0,0,0-1.645-1.531,1.6,1.6,0,0,0-.217-.009H71.125v6.617l3.781,3.781v5.672H56v-4.727l3.781-3.781v-4.727H57.891A1.9,1.9,0,0,0,56,225.016V208h4.727v1.891H70.18V208Z" transform="translate(-49.383 -183.422)" fill="#f98800"/>
      <path id="Trazado_733255" data-name="Trazado 733255" d="M74.907,208,56,236.36H74.907Z" transform="translate(-49.383 -183.422)" fill="#f05a29"/>
      <path id="Trazado_733256" data-name="Trazado 733256" d="M461.672,456.945v4.727H456l1.891-1.891-.945-2.836h1.891l.945-.945Z" transform="translate(-402.116 -402.117)" fill="#acdd12"/>
      <path id="Trazado_733257" data-name="Trazado 733257" d="M413.672,461.672s-5.672-.009-5.672,0v-4.727l1.891-.945.945.945h1.891l-.945,2.836Z" transform="translate(-359.788 -402.117)" fill="#acdd12"/>
      <path id="Trazado_733258" data-name="Trazado 733258" d="M443.781,466.836l-1.891,1.891L440,466.836l.945-2.836h1.891Z" transform="translate(-388.007 -409.171)" fill="#387f29"/>
      <path id="Trazado_733259" data-name="Trazado 733259" d="M415.563,112h-3.781l-3.781.945v4.727h11.344v-4.727Z" transform="translate(-359.788 -98.766)" fill="#aedef8"/>
      <path id="Trazado_733260" data-name="Trazado 733260" d="M422.617,48l-2.836,2.836-1.891-.945H416v.945a1.891,1.891,0,0,0,1.891,1.891h0v.945l.945,1.891h3.781l.945-1.891v-.945h0a1.891,1.891,0,0,0,1.891-1.891v-.945h-2.836Z" transform="translate(-366.843 -42.328)" fill="#fac8b2"/>
      <path id="Trazado_733261" data-name="Trazado 733261" d="M441.891,112,440,115.781l1.891,1.891,1.891-1.891Z" transform="translate(-388.007 -98.766)" fill="#00587e"/>
      <path id="Trazado_733262" data-name="Trazado 733262" d="M410.836,14.617H408V9.891L411.781,8l3.781.945L417.453,8l1.891,1.891v4.727h-3.781V12.727l-2.836,2.836Z" transform="translate(-359.788 -7.055)" fill="#58492f"/>
      <path id="Trazado_733263" data-name="Trazado 733263" d="M456,301.672s5.672-.009,5.672,0v-4.727L458.836,296l-.945.945h-.945l.945,2.836Z" transform="translate(-402.116 -261.023)" fill="#fcd4ef"/>
      <path id="Trazado_733264" data-name="Trazado 733264" d="M440,306.836l1.891,1.891,1.891-1.891L442.836,304h-1.891Z" transform="translate(-388.007 -268.078)" fill="#f249b4"/>
      <path id="Trazado_733265" data-name="Trazado 733265" d="M408,296.945v4.727h5.672l-1.891-1.891.945-2.836h-.945l-.945-.945Z" transform="translate(-359.788 -261.023)" fill="#fcd4ef"/>
      <path id="Trazado_733266" data-name="Trazado 733266" d="M437.672,257.891v2.836l-.945.945h-3.781l-.945-.945v-2.836h.945A1.9,1.9,0,0,0,434.836,256a1.9,1.9,0,0,0,1.891,1.891Z" transform="translate(-380.952 -225.75)" fill="#fac8b2"/>
      <path id="Trazado_733267" data-name="Trazado 733267" d="M425.453,228.727a4.747,4.747,0,0,1-1.38,3.346,4.438,4.438,0,0,1-.51.435v-2.836h-.945a1.9,1.9,0,0,1-1.891-1.891,1.9,1.9,0,0,1-1.891,1.891h-.945v2.836a4.432,4.432,0,0,1-.51-.435,4.735,4.735,0,0,1,.983-7.44,4.726,4.726,0,0,1,4.727,0,4.675,4.675,0,0,1,2.363,4.093Z" transform="translate(-366.843 -197.531)" fill="#b71e71"/>
      <path id="Trazado_733268" data-name="Trazado 733268" d="M437.672,194.836a2.9,2.9,0,0,1-.473,1.579,4.726,4.726,0,0,0-4.727,0,2.9,2.9,0,0,1-.473-1.579,2.836,2.836,0,1,1,5.672,0Z" transform="translate(-380.952 -169.313)" fill="#931d5b"/>
      <path id="Trazado_733269" data-name="Trazado 733269" d="M431.563,377.891v2.836L424,378.836v-.945A1.9,1.9,0,0,1,425.891,376h3.781A1.9,1.9,0,0,1,431.563,377.891Z" transform="translate(-373.898 -331.57)" fill="#f05a29"/>
      <path id="Trazado_733270" data-name="Trazado 733270" d="M419.344,403.309a1.416,1.416,0,0,1-1.418,1.418h-.473v1.891l-.945.945h-5.672l-.945-.945v-1.891h-.473a1.418,1.418,0,0,1,0-2.836h.473V400l7.563,1.891h.473A1.416,1.416,0,0,1,419.344,403.309Z" transform="translate(-359.788 -352.734)" fill="#fac8b2"/>
      <path id="Trazado_733271" data-name="Trazado 733271" d="M105.453,172.727v1.891H96v-1.891a1.9,1.9,0,0,1,1.891-1.891h.945v-.945A1.9,1.9,0,0,1,100.727,168a1.9,1.9,0,0,1,1.891,1.891v.945h.945A1.9,1.9,0,0,1,105.453,172.727Z" transform="translate(-84.656 -148.149)" fill="#ffec00"/>
      <path id="Trazado_733272" data-name="Trazado 733272" d="M88,256h3.781v3.781H88Z" transform="translate(-77.601 -225.75)" fill="#fff"/>
      <path id="Trazado_733273" data-name="Trazado 733273" d="M88,320h3.781v3.781H88Z" transform="translate(-77.601 -282.187)" fill="#fff"/>
      <path id="Trazado_733274" data-name="Trazado 733274" d="M88,384h3.781v3.781H88Z" transform="translate(-77.601 -338.625)" fill="#fff"/>
      <path id="Trazado_733275" data-name="Trazado 733275" d="M17.453,307.781v4.727l-3.781,3.781H8v-9.453L10.836,304h2.836v5.672a1.9,1.9,0,0,1,1.891-1.891Z" transform="translate(-7.055 -268.078)" fill="#fac8b2"/>
      <path id="Trazado_733276" data-name="Trazado 733276" d="M221.672,306.836v4.982L216,306.524V304h2.836Z" transform="translate(-190.476 -268.078)" fill="#fac8b2"/>
      <path id="Trazado_733277" data-name="Trazado 733277" d="M193.321,322.4h-5.54L184,318.617V312h1.891a1.6,1.6,0,0,1,.217.009,1.929,1.929,0,0,1,1.645,1.531,2.093,2.093,0,0,1,.028.35v3.337Z" transform="translate(-162.258 -275.133)" fill="#fac8b2"/>
      <path id="Trazado_733278" data-name="Trazado 733278" d="M164.944,290.845a1.6,1.6,0,0,0-.217-.009h-1.891v1.7L160,289.891V288h1.891Z" transform="translate(-141.094 -253.969)" fill="#00a8e7"/>
      <path id="Trazado_733279" data-name="Trazado 733279" d="M225.453,334.18l-1.891,1.891-2.023-1.891L216,329.009V325.36l5.672,5.294Z" transform="translate(-190.476 -286.914)" fill="#00a8e7"/>
      <path id="Trazado_733280" data-name="Trazado 733280" d="M216,400h5.672v12.289H216Z" transform="translate(-190.476 -352.734)" fill="#00587e"/>
      <path id="Trazado_733281" data-name="Trazado 733281" d="M8,408h5.672v11.344H8Z" transform="translate(-7.055 -359.789)" fill="#00587e"/>
      <path id="Trazado_733282" data-name="Trazado 733282" d="M148.727,249.891h-3.781a.945.945,0,1,1,0-1.891h3.781a.945.945,0,0,1,0,1.891Z" transform="translate(-126.984 -218.695)" fill="#f05a29"/>
      <path id="Trazado_733283" data-name="Trazado 733283" d="M145.891,337.891h-.945a.945.945,0,1,1,0-1.891h.945a.945.945,0,1,1,0,1.891Z" transform="translate(-126.984 -296.297)" fill="#f98800"/>
      <path id="Trazado_733284" data-name="Trazado 733284" d="M148.727,409.891h-3.781a.945.945,0,1,1,0-1.891h3.781a.945.945,0,0,1,0,1.891Z" transform="translate(-126.984 -359.789)" fill="#f98800"/>
      <circle id="Elipse_7824" data-name="Elipse 7824" cx="7.5" cy="7.5" r="7.5" transform="translate(8.501 0.999)" fill="#ffec00"/>
      <path id="Trazado_733285" data-name="Trazado 733285" d="M94.5,22.935A7.563,7.563,0,0,1,80.36,26.673,7.564,7.564,0,0,0,90.673,16.36,7.558,7.558,0,0,1,94.5,22.935Z" transform="translate(-70.864 -14.427)" fill="#fcc200"/>
      <g id="Grupo_1014229" data-name="Grupo 1014229" transform="translate(15.125 3.781)">
        <path id="Trazado_733286" data-name="Trazado 733286" d="M130.836,37.672h-1.891a.945.945,0,0,1-.945-.945V32.945a.945.945,0,1,1,1.891,0v2.836h.945a.945.945,0,0,1,0,1.891Z" transform="translate(-128 -32)" fill="#e22526"/>
        <path id="Trazado_733287" data-name="Trazado 733287" d="M261.9,224.277a.945.945,0,0,0-1.337,1.337l1.222,1.222H248.945a.945.945,0,0,0,0,1.891h12.843l-1.222,1.222a.945.945,0,0,0,1.337,1.337l2.836-2.836a.946.946,0,0,0,0-1.337Z" transform="translate(-233.82 -201.313)" fill="#e22526"/>
        <path id="Trazado_733288" data-name="Trazado 733288" d="M248.945,82.907h4.727A4.732,4.732,0,0,0,258.4,78.18V71.563a2.839,2.839,0,0,1,2.836-2.836h.554l-1.222,1.222a.945.945,0,0,0,1.337,1.337l2.836-2.836a.945.945,0,0,0,0-1.337L261.9,64.277a.945.945,0,0,0-1.337,1.337l1.222,1.222h-.554a4.732,4.732,0,0,0-4.727,4.727V78.18a2.839,2.839,0,0,1-2.836,2.836h-4.727a.945.945,0,0,0,0,1.891Z" transform="translate(-233.82 -60.219)" fill="#e22526"/>
        <path id="Trazado_733289" data-name="Trazado 733289" d="M261.9,299.621a.945.945,0,0,0-1.337,1.337l1.222,1.222h-.554a2.839,2.839,0,0,1-2.836-2.836v-6.617A4.732,4.732,0,0,0,253.672,288h-4.727a.945.945,0,1,0,0,1.891h4.727a2.839,2.839,0,0,1,2.836,2.836v6.617a4.732,4.732,0,0,0,4.727,4.727h.554l-1.222,1.222a.945.945,0,0,0,1.337,1.337l2.836-2.836a.945.945,0,0,0,0-1.337Z" transform="translate(-233.82 -257.75)" fill="#e22526"/>
      </g>
      <path id="Trazado_733290" data-name="Trazado 733290" d="M410.4,11.343v-.162a2.841,2.841,0,0,0,1.891-2.674.945.945,0,0,0,.945-.945V2.836a.946.946,0,0,0-.277-.668L411.067.276A.946.946,0,0,0,409.976.1L408.4.888,404.956.028A.944.944,0,0,0,404.3.1L400.523,1.99a.945.945,0,0,0-.523.846V7.562a.945.945,0,0,0,.945.945,2.841,2.841,0,0,0,1.891,2.674v.162a.945.945,0,0,0,.1.423l.418.837-2.638.66a.945.945,0,0,0-.716.917v4.727a.945.945,0,0,0,.945.945h11.344a.945.945,0,0,0,.945-.945V14.179a.945.945,0,0,0-.716-.917l-2.638-.66.418-.837a.945.945,0,0,0,.1-.423ZM401.891,3.42l2.946-1.473,3.442.861a.945.945,0,0,0,.652-.072l1.281-.641,1.132,1.132v3.39h-1.891V5.671A.945.945,0,0,0,407.839,5l-2.354,2.354L404.2,6.717a.945.945,0,0,0-.423-.1h-1.891Zm4.727,14.149-.74-.741.74-1.481.74,1.481Zm-4.727-2.652,2.952-.738h.245l-1.207,2.413a.946.946,0,0,0,.177,1.091l.277.277h-2.444Zm9.453,3.043H408.9l.277-.277a.946.946,0,0,0,.177-1.091l-1.207-2.413h.245l2.952.738Zm-1.891-8.508a.945.945,0,0,0-.945.945v.722l-.584,1.169h-2.613l-.584-1.169V10.4a.945.945,0,0,0-.945-.945.946.946,0,0,1-.945-.945h.722l1.691.846a.945.945,0,0,0,1.091-.177l1.282-1.282a.946.946,0,0,0,.885.614H410.4a.946.946,0,0,1-.945.945Z" transform="translate(-352.734 0)"/>
      <path id="Trazado_733291" data-name="Trazado 733291" d="M412.588,197.283l-1.4-.466a5.692,5.692,0,0,0-.557-7.378,5.4,5.4,0,0,0-.451-.4,3.781,3.781,0,1,0-7.126.006,5.672,5.672,0,0,0-1.009,7.771l-1.4.467a.945.945,0,0,0-.646.9v4.727a.945.945,0,0,0,.945.945h11.344a.945.945,0,0,0,.945-.945V198.18a.945.945,0,0,0-.646-.9Zm-4.08-.44-.392.392h-3l-.392-.392v-1.5a2.781,2.781,0,0,0,1.888-.726,2.825,2.825,0,0,0,1.893.726Zm-1.082,3.918-.809.809-.809-.809.545-1.635h.528Zm-.809-14.87a1.884,1.884,0,0,1,1.863,2.2,5.712,5.712,0,0,0-3.727,0,1.884,1.884,0,0,1,1.864-2.2Zm-1.884,4.284a3.781,3.781,0,0,1,3.773,0,3.729,3.729,0,0,1,1.892,3.275,3.826,3.826,0,0,1-.053.634.946.946,0,0,0-.893-.634h-.945a.946.946,0,0,1-.945-.945.945.945,0,0,0-1.891,0,.9.9,0,0,1-.271.655l-.019.019a.9.9,0,0,1-.655.272h-.945a.946.946,0,0,0-.893.634,3.825,3.825,0,0,1-.053-.634A3.755,3.755,0,0,1,404.733,190.174Zm-2.843,8.687,1.635-.545.532.532a.945.945,0,0,0,.324.211l-.552,1.657a.946.946,0,0,0,.228.967l.277.277H401.89Zm9.453,3.1H408.9l.277-.277a.946.946,0,0,0,.228-.967l-.552-1.657a.945.945,0,0,0,.324-.211l.532-.532,1.635.545Z" transform="translate(-352.733 -162.258)"/>
      <path id="Trazado_733292" data-name="Trazado 733292" d="M84.727,248H80.945a.945.945,0,0,0-.945.945v3.781a.945.945,0,0,0,.945.945h3.781a.945.945,0,0,0,.945-.945v-3.781A.945.945,0,0,0,84.727,248Zm-.945,3.781H81.891v-1.891h1.891Z" transform="translate(-70.547 -218.695)"/>
      <path id="Trazado_733293" data-name="Trazado 733293" d="M35.622,187.668l-3.481-3.246v-4.571a.946.946,0,0,0-.277-.668l-2.836-2.836a.946.946,0,0,0-.668-.277H26.469v-10.4a.945.945,0,0,0-.945-.945H21.58a2.841,2.841,0,0,0-2.673-1.891A2.85,2.85,0,0,0,16.071,160a2.839,2.839,0,0,0-2.836,2.836,2.841,2.841,0,0,0-2.673,1.891H6.617a.945.945,0,0,0-.945.945v10.4H3.781a.946.946,0,0,0-.668.277L.277,179.183a.946.946,0,0,0-.277.668v20.8a.945.945,0,0,0,.945.945H6.617a.945.945,0,0,0,.945-.945v-5.672H24.578v5.672a.945.945,0,0,0,.945.945H31.2a.945.945,0,0,0,.945-.945V190.66l.3.28a.945.945,0,0,0,1.314-.022l1.891-1.891a.945.945,0,0,0-.024-1.36Zm-5.371-7.425v2.415l-3.909-3.649a2.861,2.861,0,0,0-.6-1.048h2.226Zm-4.335,7.171-3.228-3.228v-5.28h1.029l.015,0a.991.991,0,0,1,.819.706l.028,3.581a.945.945,0,0,0,.3.684l3.787,3.535Zm-5.032-9.846-1.032-.963v-.535h.573l1.055.983A.947.947,0,0,0,20.884,177.568Zm-8.594-11.9a.946.946,0,0,1,.945-.945h.945a.945.945,0,0,0,.945-.945v-.945a.946.946,0,0,1,.945-.945.9.9,0,0,1,.655.272l.018.018a.9.9,0,0,1,.272.655v.945a.945.945,0,0,0,.945.945h.945a.946.946,0,0,1,.945.945v.945H12.289Zm-10.4,14.571,2.282-2.282h1.5v4.727a.945.945,0,0,0,1.891,0,.946.946,0,0,1,.945-.945h.945v3.39l-3.228,3.228H1.891Zm9.453,7.171h1.891V189.3H11.344ZM1.891,199.7V190.25H5.672V199.7Zm5.672-6.617V189.7l1.891-1.891v2.444a.945.945,0,0,0,.945.945H14.18a.945.945,0,0,0,.945-.945v-3.781a.945.945,0,0,0-.945-.945H11.344v-1.891H14.18a.945.945,0,0,0,.945-.945v-3.781a.945.945,0,0,0-.945-.945H10.4a.945.945,0,0,0-.945.945v.945H8.508a2.823,2.823,0,0,0-.945.162v-13.4H10.4v.945a.945.945,0,0,0,.945.945H20.8a.945.945,0,0,0,.945-.945v-.945h2.836V177.18a2.861,2.861,0,0,0-.28-.084l-2.857-2.663a.945.945,0,0,0-.644-.254H18.907a.945.945,0,0,0-.945.945v1.891a.945.945,0,0,0,.3.691l2.536,2.367v4.5a.946.946,0,0,0,.277.668l3.5,3.5v4.335Zm3.781-11.344v-1.891h1.891v1.891ZM30.25,199.7H26.469V189.3H30.25Zm2.814-10.768-1.355-1.267h0l-5.242-4.893-.008-1.071,4.093,3.82,3.065,2.858Z" transform="translate(0 -141.093)"/>
      <path id="Trazado_733294" data-name="Trazado 733294" d="M144.945,249.891h3.781a.945.945,0,0,0,0-1.891h-3.781a.945.945,0,1,0,0,1.891Z" transform="translate(-126.984 -218.695)"/>
      <path id="Trazado_733295" data-name="Trazado 733295" d="M144.945,337.891h.945a.945.945,0,1,0,0-1.891h-.945a.945.945,0,1,0,0,1.891Z" transform="translate(-126.984 -296.297)"/>
      <path id="Trazado_733296" data-name="Trazado 733296" d="M148.727,408h-3.781a.945.945,0,1,0,0,1.891h3.781a.945.945,0,0,0,0-1.891Z" transform="translate(-126.984 -359.789)"/>
      <path id="Trazado_733297" data-name="Trazado 733297" d="M72.508,17.016a8.508,8.508,0,1,1,8.508-8.508A8.518,8.518,0,0,1,72.508,17.016Zm0-15.125a6.617,6.617,0,1,0,6.617,6.617A6.625,6.625,0,0,0,72.508,1.891Z" transform="translate(-56.437 0)"/>
      <path id="Trazado_733298" data-name="Trazado 733298" d="M130.836,37.672h-1.891a.945.945,0,0,1-.945-.945V32.945a.945.945,0,1,1,1.891,0v2.836h.945a.945.945,0,0,1,0,1.891Z" transform="translate(-112.875 -28.219)"/>
      <path id="Trazado_733299" data-name="Trazado 733299" d="M261.9,224.277a.945.945,0,0,0-1.337,1.337l1.222,1.222H248.945a.945.945,0,0,0,0,1.891h12.843l-1.222,1.222a.945.945,0,0,0,1.337,1.337l2.836-2.836a.946.946,0,0,0,0-1.337Z" transform="translate(-218.695 -197.532)"/>
      <path id="Trazado_733300" data-name="Trazado 733300" d="M248.945,82.907h4.727A4.732,4.732,0,0,0,258.4,78.18V71.563a2.839,2.839,0,0,1,2.836-2.836h.554l-1.222,1.222a.945.945,0,0,0,1.337,1.337l2.836-2.836a.945.945,0,0,0,0-1.337L261.9,64.277a.945.945,0,0,0-1.337,1.337l1.222,1.222h-.554a4.732,4.732,0,0,0-4.727,4.727V78.18a2.839,2.839,0,0,1-2.836,2.836h-4.727a.945.945,0,0,0,0,1.891Z" transform="translate(-218.695 -56.438)"/>
      <path id="Trazado_733301" data-name="Trazado 733301" d="M261.9,299.621a.945.945,0,0,0-1.337,1.337l1.222,1.222h-.554a2.839,2.839,0,0,1-2.836-2.836v-6.617A4.732,4.732,0,0,0,253.672,288h-4.727a.945.945,0,1,0,0,1.891h4.727a2.839,2.839,0,0,1,2.836,2.836v6.617a4.732,4.732,0,0,0,4.727,4.727h.554l-1.222,1.222a.945.945,0,0,0,1.337,1.337l2.836-2.836a.945.945,0,0,0,0-1.337Z" transform="translate(-218.695 -253.969)"/>
      <path id="Trazado_733302" data-name="Trazado 733302" d="M412.712,378.5l-1.368-.684v-.409a2.364,2.364,0,0,0,0-4.632v-1.938A2.839,2.839,0,0,0,408.508,368h-3.781a2.839,2.839,0,0,0-2.836,2.836v1.938a2.364,2.364,0,0,0,0,4.632v.408l-1.368.684a.945.945,0,0,0-.522.846v4.727a.945.945,0,0,0,.945.945h11.344a.945.945,0,0,0,.945-.945v-4.727A.945.945,0,0,0,412.712,378.5Zm-8.931-7.662a.946.946,0,0,1,.945-.945h3.781a.946.946,0,0,1,.945.945v1.625l-5.672-1.418Zm-1.418,3.781h.473a.945.945,0,0,0,.945-.945v-.68l6.388,1.6a.942.942,0,0,0,.229.028h.473a.473.473,0,0,1,0,.945H410.4a.945.945,0,0,0-.945.945v1.5l-.392.392h-4.889l-.392-.392v-1.5a.945.945,0,0,0-.945-.945h-.473a.473.473,0,0,1,0-.945Zm5.063,7.307-.809.809-.809-.809.545-1.635h.528Zm-5.536-2,.759-.379.464.464a.946.946,0,0,0,.668.277h.579l-.531,1.592a.946.946,0,0,0,.228.967l.277.277h-2.444Zm9.453,3.2H408.9l.277-.277a.946.946,0,0,0,.228-.967l-.531-1.592h.579a.946.946,0,0,0,.668-.277l.464-.464.759.379Z" transform="translate(-352.734 -324.516)"/>
    </g>
  </g>
</svg>
