<svg xmlns="http://www.w3.org/2000/svg" width="100" height="100" viewBox="0 0 100 100">
  <g id="Grupo_1014639" data-name="Grupo 1014639" transform="translate(-330 -9452)">
    <path id="Trazado_736015" data-name="Trazado 736015" d="M50,0A50,50,0,1,1,0,50,50,50,0,0,1,50,0Z" transform="translate(330 9452)" fill="#b3eeef"/>
    <g id="Icon" transform="translate(270.1 9392.2)">
      <path id="_15" d="M136.775,137.48H115.917a.787.787,0,0,1-.726-.49.807.807,0,0,1,.174-.868l5.7-5.7-9.3-9.3a.782.782,0,0,1,0-1.121l8.337-8.337a.782.782,0,0,1,1.121,0l9.3,9.3,5.7-5.7a.8.8,0,0,1,.868-.174.787.787,0,0,1,.489.726v20.858A.809.809,0,0,1,136.775,137.48ZM117.827,135.9h18.158V117.743l-4.911,4.911a.811.811,0,0,1-1.121,0l-9.3-9.3-7.232,7.232,9.3,9.3a.811.811,0,0,1,0,1.121Zm-13.279,1.579H83.689a.782.782,0,0,1-.79-.789V115.832a.787.787,0,0,1,.489-.726.807.807,0,0,1,.868.174l5.7,5.7,9.3-9.3a.782.782,0,0,1,1.121,0l8.337,8.337a.811.811,0,0,1,0,1.121l-9.3,9.3,5.7,5.7a.8.8,0,0,1,.174.868A.838.838,0,0,1,104.548,137.48ZM84.479,135.9h18.158l-4.911-4.911a.782.782,0,0,1,0-1.121l9.3-9.3L99.8,113.338l-9.3,9.316a.811.811,0,0,1-1.121,0l-4.911-4.911Zm36.19-27.048a.741.741,0,0,1-.553-.237l-8.337-8.337a.811.811,0,0,1,0-1.121l9.3-9.3-5.7-5.7a.8.8,0,0,1-.174-.868.787.787,0,0,1,.726-.489h20.858a.782.782,0,0,1,.789.789v20.874a.794.794,0,0,1-1.358.553l-5.7-5.7-9.3,9.3A.793.793,0,0,1,120.669,108.853Zm-7.232-9.142,7.232,7.232,9.3-9.3a.811.811,0,0,1,1.121,0L136,102.553V84.395H117.843l4.911,4.911a.811.811,0,0,1,0,1.121Zm-13.627,9.142a.741.741,0,0,1-.553-.237l-9.3-9.3-5.7,5.7a.8.8,0,0,1-.868.174.787.787,0,0,1-.489-.726V83.605a.782.782,0,0,1,.789-.789h20.858a.794.794,0,0,1,.553,1.358l-5.7,5.7,9.3,9.3a.811.811,0,0,1,0,1.121l-8.337,8.337A.848.848,0,0,1,99.811,108.853ZM89.942,97.406a.741.741,0,0,1,.553.237l9.3,9.3,7.232-7.232-9.3-9.3a.811.811,0,0,1,0-1.121l4.911-4.911H84.479v18.158l4.911-4.911A.789.789,0,0,1,89.942,97.406Z" transform="translate(0 0)" fill="#12263f"/>
    </g>
  </g>
</svg>
