<svg xmlns="http://www.w3.org/2000/svg" width="105" height="105" viewBox="0 0 105 105">
  <g id="Grupo_1014238" data-name="Grupo 1014238" transform="translate(-464 -1916)">
    <path id="Trazado_733049" data-name="Trazado 733049" d="M52.5,0A52.5,52.5,0,1,1,0,52.5,52.5,52.5,0,0,1,52.5,0Z" transform="translate(464 1916)" fill="#ff6e33"/>
    <g id="incentivo" transform="translate(481.481 1933.481)">
      <g id="Grupo_1014209" data-name="Grupo 1014209" transform="translate(2.097 2.097)">
        <g id="Grupo_1014202" data-name="Grupo 1014202" transform="translate(5.487 5.487)">
          <circle id="Elipse_7822" data-name="Elipse 7822" cx="27" cy="27" r="27" transform="translate(0.434 0.435)" fill="#fcd770"/>
        </g>
        <g id="Grupo_1014203" data-name="Grupo 1014203" transform="translate(9.876 9.876)">
          <circle id="Elipse_7823" data-name="Elipse 7823" cx="23" cy="23" r="23" transform="translate(0.045 0.045)" fill="#ffeaa7"/>
        </g>
        <g id="Grupo_1014204" data-name="Grupo 1014204" transform="translate(30.727 50.479)">
          <path id="Trazado_733203" data-name="Trazado 733203" d="M34.39,57.778v3.391a2.2,2.2,0,0,1-2.195,2.195A2.211,2.211,0,0,1,30,61.169V50.195A2.2,2.2,0,0,1,32.195,48a2.211,2.211,0,0,1,2.195,2.195v7.583Z" transform="translate(-30 -48)" fill="#ffc729"/>
        </g>
        <g id="Grupo_1014205" data-name="Grupo 1014205" transform="translate(0 30.727)">
          <path id="Trazado_733204" data-name="Trazado 733204" d="M15.169,30a2.2,2.2,0,0,1,2.195,2.195,2.211,2.211,0,0,1-2.195,2.195H4.195A2.2,2.2,0,0,1,2,32.195,2.211,2.211,0,0,1,4.195,30H15.169Z" transform="translate(-2 -30)" fill="#ffc729"/>
        </g>
        <g id="Grupo_1014206" data-name="Grupo 1014206" transform="translate(50.479 30.727)">
          <path id="Trazado_733205" data-name="Trazado 733205" d="M61.169,30a2.2,2.2,0,0,1,2.195,2.195,2.211,2.211,0,0,1-2.195,2.195H50.195A2.2,2.2,0,0,1,48,32.195,2.211,2.211,0,0,1,50.195,30H61.169Z" transform="translate(-48 -30)" fill="#ffc729"/>
        </g>
        <g id="Grupo_1014207" data-name="Grupo 1014207" transform="translate(24.142)">
          <path id="Trazado_733206" data-name="Trazado 733206" d="M30.924,4.195A3.754,3.754,0,0,1,34.337,2h3.468a3.751,3.751,0,0,1,3.753,3.753v.132a3.757,3.757,0,0,1-.132.988l-.5,1.844-1.152,4.236-1.5,5.509H27.292l-1.8-5.41L24.2,9.166c-.033-.088-.055-.187-.088-.285A3.631,3.631,0,0,1,24,7.97a3.775,3.775,0,0,1,3.775-3.775Z" transform="translate(-24 -2)" fill="#b4dd7f"/>
        </g>
        <g id="Grupo_1014208" data-name="Grupo 1014208" transform="translate(18.655 16.461)">
          <path id="Trazado_733207" data-name="Trazado 733207" d="M46.841,29.291a14.3,14.3,0,0,1,.691,4.357A14.074,14.074,0,0,1,33.452,47.727h-.373A14.079,14.079,0,0,1,21.689,25.373L27.779,17H38.753l6.09,8.373A14.061,14.061,0,0,1,46.841,29.291Z" transform="translate(-19 -17)" fill="#a0d468"/>
        </g>
      </g>
      <g id="Grupo_1014210" data-name="Grupo 1014210" transform="translate(1 1)">
        <path id="Trazado_733208" data-name="Trazado 733208" d="M31.292,39.43v2.323h2.195V39.43a4.278,4.278,0,0,0,.361-8.224l-2.222-.742a2.091,2.091,0,0,1,.66-4.075h.207a2.092,2.092,0,0,1,2.092,2.091v.1l2.195-.1a4.286,4.286,0,0,0-3.292-4.158V22H31.292v2.323a4.278,4.278,0,0,0-.361,8.224l2.222.742a2.091,2.091,0,0,1-.66,4.075h-.207a2.092,2.092,0,0,1-2.092-2.091v-1.2H28v1.2a4.284,4.284,0,0,0,3.292,4.157Z" transform="translate(1.629 1.045)"/>
        <path id="Trazado_733209" data-name="Trazado 733209" d="M65.745,31.727H63.333a28.388,28.388,0,0,0-7.356-16.115l3.959-3.959L58.385,10.1l-3.962,3.962A28.527,28.527,0,0,0,44.49,8.118l.235-.859a4.891,4.891,0,0,0,.17-1.275V5.846A4.852,4.852,0,0,0,40.049,1H36.573a4.84,4.84,0,0,0-4.047,2.195H30.017a4.879,4.879,0,0,0-4.875,4.873c0,.064.013.126.015.19a28.5,28.5,0,0,0-9.525,5.823l-3.98-3.98L10.1,11.652l3.978,3.978A28.43,28.43,0,0,0,6.7,31.727H4.292a3.292,3.292,0,1,0,0,6.584H6.711a28.379,28.379,0,0,0,7.36,16.1L10.1,58.385l1.552,1.552,3.971-3.971a28.372,28.372,0,0,0,16.1,7.36v2.42a3.292,3.292,0,0,0,6.584,0V63.327a28.379,28.379,0,0,0,16.1-7.36l3.971,3.971,1.552-1.552-3.971-3.971a28.372,28.372,0,0,0,7.36-16.1h2.421a3.293,3.293,0,0,0,0-6.585Zm-4.622,0H58.914a24.06,24.06,0,0,0-6.063-12.989l1.521-1.521A26.425,26.425,0,0,1,61.123,31.727Zm-6.352,6.584h1.923A21.919,21.919,0,0,1,38.311,56.694V54.772a3.292,3.292,0,1,0-6.584,0v1.923A21.919,21.919,0,0,1,13.343,38.311h1.923a3.292,3.292,0,0,0,0-6.584H13.335a21.93,21.93,0,0,1,13.714-17.15l1.264,3.793-5.755,7.912a15.175,15.175,0,0,0,12.272,24.1h.378a15.175,15.175,0,0,0,12.272-24.1L41.7,18.339l1.05-3.853A21.872,21.872,0,0,1,56.7,31.727H54.772a3.292,3.292,0,1,0,0,6.584ZM39.947,19.655l5.758,7.917a12.981,12.981,0,0,1-10.5,20.615H34.83a12.981,12.981,0,0,1-10.5-20.615l5.758-7.917Zm12.878-3.994L51.3,17.185a24.1,24.1,0,0,0-7.968-4.821l.578-2.122a26.156,26.156,0,0,1,8.914,5.419ZM30.016,5.39h1.757c-.014.153-.046.3-.046.457a4.794,4.794,0,0,0,.247,1.524l2,6.047,2.083-.69-2-6.048a2.617,2.617,0,0,1-.135-.833,2.655,2.655,0,0,1,2.651-2.651h3.477A2.655,2.655,0,0,1,42.7,5.846v.137a2.623,2.623,0,0,1-.093.7l-2.94,10.78H30.322L27.474,8.917A2.68,2.68,0,0,1,30.016,5.39ZM25.66,10.412l.695,2.083a24.063,24.063,0,0,0-7.608,4.7l-1.559-1.559A26.283,26.283,0,0,1,25.66,10.412Zm-10.03,6.77,1.559,1.559a24.09,24.09,0,0,0-6.066,12.985H8.912A26.245,26.245,0,0,1,15.63,17.182ZM3.195,35.019a1.1,1.1,0,0,1,1.1-1.1H15.266a1.1,1.1,0,0,1,0,2.195H4.292A1.1,1.1,0,0,1,3.195,35.019Zm5.726,3.292h2.21a24.019,24.019,0,0,0,6.077,12.967L15.626,52.86a26.181,26.181,0,0,1-6.7-14.549Zm8.257,16.1,1.582-1.582a24.019,24.019,0,0,0,12.967,6.077v2.21a26.181,26.181,0,0,1-14.549-6.7ZM36.116,65.745a1.1,1.1,0,0,1-2.195,0V54.772a1.1,1.1,0,1,1,2.195,0Zm2.195-4.629v-2.21a24.019,24.019,0,0,0,12.967-6.077l1.582,1.582a26.181,26.181,0,0,1-14.549,6.7Zm16.1-8.257-1.582-1.582a24.019,24.019,0,0,0,6.077-12.967h2.21a26.181,26.181,0,0,1-6.7,14.549ZM65.745,36.116H54.772a1.1,1.1,0,1,1,0-2.195H65.745a1.1,1.1,0,0,1,0,2.195Z" transform="translate(-1 -1)"/>
      </g>
    </g>
  </g>
</svg>
