<svg xmlns="http://www.w3.org/2000/svg" xmlns:xlink="http://www.w3.org/1999/xlink" width="100" height="100" viewBox="0 0 100 100">
  <defs>
    <clipPath id="clip-path">
      <rect id="Rectángulo_348139" data-name="Rectángulo 348139" width="46.053" height="64.809" fill="#12263f"/>
    </clipPath>
  </defs>
  <g id="Grupo_1014637" data-name="Grupo 1014637" transform="translate(-1170 -9452)">
    <path id="Trazado_736415" data-name="Trazado 736415" d="M50,0A50,50,0,1,1,0,50,50,50,0,0,1,50,0Z" transform="translate(1170 9452)" fill="#b3eeef"/>
    <g id="Grupo_1014636" data-name="Grupo 1014636" transform="translate(1198 9470)">
      <g id="Grupo_1014636-2" data-name="Grupo 1014636" clip-path="url(#clip-path)">
        <path id="Trazado_736416" data-name="Trazado 736416" d="M14.608,142.941q0,11.193,0,22.385c0,.87-.095.977-.985.978q-6.289.01-12.578.007c-.787,0-.919-.145-.92-.944q0-.746,0-1.492a3.04,3.04,0,0,1,2.362-3.132c.428-.115.554-.282.548-.716-.027-1.705,0-3.411-.025-5.116a1.126,1.126,0,0,0-.277-.689,3.313,3.313,0,0,1,0-4.622,1.144,1.144,0,0,0,.275-.7q.041-2,.005-4a1.268,1.268,0,0,0-.249-.713,4.3,4.3,0,0,1-.927-2.723q-.012-10.286,0-20.573a5.748,5.748,0,0,1,4.807-5.59,6.581,6.581,0,0,1,7.007,2.473,4.7,4.7,0,0,1,.957,2.934q-.009,11.113,0,22.225m-8.7,1.5c0-.526,0-1.019,0-1.512,0-.721.165-1.014.57-1.034.424-.021.616.3.616,1.039q0,8.526,0,17.051c0,.186.024.372.038.582H13.4V136.235c-.5.083-.964.132-1.4.25-.119.032-.237.271-.256.428-.049.4.008.823-.068,1.219a3.285,3.285,0,0,1-5.114,1.8,2.933,2.933,0,0,1-1.239-2.677c.008-.213-.089-.59-.206-.62-.66-.169-1.341-.254-2.034-.372,0,1.98-.082,3.9.028,5.806a2.678,2.678,0,0,0,2.8,2.369m-.6-9.017v-.677q0-4,0-7.994c0-1.439.009-2.878,0-4.317,0-.437.147-.749.621-.749.451,0,.6.313.6.719q0,1.172,0,2.345c0,.24,0,.481,0,.659h3.983v-.448c0-.853,0-1.705,0-2.558,0-.406.166-.713.611-.715s.621.282.609.7c0,.142,0,.284,0,.426q0,5.889,0,11.778v.68c.421-.066.748-.132,1.079-.166.438-.045.614-.223.612-.709-.02-4.548.011-9.1-.033-13.644a4.332,4.332,0,0,0-.529-1.918,5.371,5.371,0,0,0-5.807-2.392,4.624,4.624,0,0,0-3.993,4.98q0,4.184,0,8.368c0,1.563-.008,3.127.007,4.69,0,.181.088.492.195.52.644.17,1.305.276,2.039.418m5.256-3c0-1.721-.008-3.443.007-5.164a.5.5,0,0,0-.457-.578,6.85,6.85,0,0,0-3.162,0c-.374.085-.473.26-.471.621.012,3.389,0,6.779.01,10.168A1.887,1.887,0,0,0,8.52,139.38a1.886,1.886,0,0,0,2.04-1.9c0-1.686,0-3.372,0-5.057M5.439,165.057H13.38v-3.213c-1.636,0-3.23-.012-4.823.012a2.14,2.14,0,0,0-.809.253,3.87,3.87,0,0,0-2.309,2.948m-4.1.037c.84,0,1.619-.014,2.4.007.329.009.467-.1.526-.429a4.814,4.814,0,0,1,1.3-2.514c.088-.093.158-.2.275-.354-.93,0-1.782-.045-2.627.012a1.957,1.957,0,0,0-1.857,1.622,13.667,13.667,0,0,0-.012,1.656m4.537-13.185h0c0-.5-.014-.995.005-1.491a.441.441,0,0,0-.4-.514,2.029,2.029,0,0,0-2.132.865,1.959,1.959,0,0,0,.02,2.294,1.978,1.978,0,0,0,2.145.812.6.6,0,0,0,.344-.422c.043-.511.016-1.028.016-1.543M4.2,160.557H5.852v-5.451H4.2Zm0-15.211v3.348H5.864v-2.976L4.2,145.346" transform="translate(-0.111 -102.849)" fill="#12263f"/>
        <path id="Trazado_736417" data-name="Trazado 736417" d="M14.608,142.941q0,11.193,0,22.385c0,.87-.095.977-.985.978q-6.289.01-12.578.007c-.787,0-.919-.145-.92-.944q0-.746,0-1.492a3.04,3.04,0,0,1,2.362-3.132c.428-.115.554-.282.548-.716-.027-1.705,0-3.411-.025-5.116a1.126,1.126,0,0,0-.277-.689,3.313,3.313,0,0,1,0-4.622,1.144,1.144,0,0,0,.275-.7q.041-2,.005-4a1.268,1.268,0,0,0-.249-.713,4.3,4.3,0,0,1-.927-2.723q-.012-10.286,0-20.573a5.748,5.748,0,0,1,4.807-5.59,6.581,6.581,0,0,1,7.007,2.473,4.7,4.7,0,0,1,.957,2.934Q14.6,131.828,14.608,142.941Zm-8.7,1.5c0-.526,0-1.019,0-1.512,0-.721.165-1.014.57-1.034.424-.021.616.3.616,1.039q0,8.526,0,17.051c0,.186.024.372.038.582H13.4V136.235c-.5.083-.964.132-1.4.25-.119.032-.237.271-.256.428-.049.4.008.823-.068,1.219a3.285,3.285,0,0,1-5.114,1.8,2.933,2.933,0,0,1-1.239-2.677c.008-.213-.089-.59-.206-.62-.66-.169-1.341-.254-2.034-.372,0,1.98-.082,3.9.028,5.806A2.678,2.678,0,0,0,5.9,144.436Zm-.6-9.017v-.677q0-4,0-7.994c0-1.439.009-2.878,0-4.317,0-.437.147-.749.621-.749.451,0,.6.313.6.719q0,1.172,0,2.345c0,.24,0,.481,0,.659h3.983v-.448c0-.853,0-1.705,0-2.558,0-.406.166-.713.611-.715s.621.282.609.7c0,.142,0,.284,0,.426q0,5.889,0,11.778v.68c.421-.066.748-.132,1.079-.166.438-.045.614-.223.612-.709-.02-4.548.011-9.1-.033-13.644a4.332,4.332,0,0,0-.529-1.918,5.371,5.371,0,0,0-5.807-2.392,4.624,4.624,0,0,0-3.993,4.98q0,4.184,0,8.368c0,1.563-.008,3.127.007,4.69,0,.181.088.492.195.52C3.911,135.171,4.572,135.277,5.306,135.419Zm5.256-3c0-1.721-.008-3.443.007-5.164a.5.5,0,0,0-.457-.578,6.85,6.85,0,0,0-3.162,0c-.374.085-.473.26-.471.621.012,3.389,0,6.779.01,10.168A1.887,1.887,0,0,0,8.52,139.38a1.886,1.886,0,0,0,2.04-1.9C10.565,135.791,10.562,134.105,10.563,132.42ZM5.439,165.057H13.38v-3.213c-1.636,0-3.23-.012-4.823.012a2.14,2.14,0,0,0-.809.253A3.87,3.87,0,0,0,5.439,165.057Zm-4.1.037c.84,0,1.619-.014,2.4.007.329.009.467-.1.526-.429a4.814,4.814,0,0,1,1.3-2.514c.088-.093.158-.2.275-.354-.93,0-1.782-.045-2.627.012a1.957,1.957,0,0,0-1.857,1.622A13.667,13.667,0,0,0,1.341,165.094Zm4.537-13.185h0c0-.5-.014-.995.005-1.491a.441.441,0,0,0-.4-.514,2.029,2.029,0,0,0-2.132.865,1.959,1.959,0,0,0,.02,2.294,1.978,1.978,0,0,0,2.145.812.6.6,0,0,0,.344-.422C5.9,152.941,5.878,152.424,5.878,151.909ZM4.2,160.557H5.852v-5.451H4.2Zm0-15.211v3.348H5.864v-2.976Z" transform="translate(-0.111 -102.849)" fill="#12263f"/>
        <path id="Trazado_736418" data-name="Trazado 736418" d="M274.073,302.7a17.141,17.141,0,0,1-1.965-.208,1.713,1.713,0,0,1-1.467-2.095c.066-1.062.049-2.13.058-3.2.015-1.669.017-3.339.034-5.009.008-.744.04-1.489.06-2.233a1.314,1.314,0,0,1,.842-1.2,3.347,3.347,0,0,1,3.077.049,1.3,1.3,0,0,1,.76,1.287c-.058,3.533-.083,7.067-.133,10.6-.019,1.348,0,2.7-.13,4.042a4.638,4.638,0,0,1-3.332,4.2,1.06,1.06,0,0,0-.146.07,17.7,17.7,0,0,1-.015,2.091c-.141,1.162-.639,1.544-1.807,1.543-1.475,0-2.95.015-4.424-.01-.432-.007-.537.136-.534.547.017,2.5.021,5.01,0,7.515,0,.488.164.613.616.588.6-.033,1.208-.006,1.812-.008.4,0,.734.1.735.57,0,.447-.3.607-.712.607l-5.97,0c-.421,0-.714-.195-.7-.62.01-.4.306-.564.7-.559.657.007,1.315,0,1.972,0,.256,0,.387-.068.386-.361-.011-2.7-.011-5.4-.015-8.1a.669.669,0,0,0-.055-.151c-.167-.007-.355-.023-.544-.023q-2.319,0-4.637,0a1.322,1.322,0,0,1-1.5-1.06,4.011,4.011,0,0,1,.053-2.716,1.3,1.3,0,0,1,1.347-.906c3.891.019,7.782,0,11.672.012a3.686,3.686,0,0,0,3.971-3.941c0-.458,0-.915,0-1.329m-9.735,8.754h5.117c1.065,0,1.2-.139,1.166-1.224,0-.124-.025-.248-.03-.372-.02-.519-.246-.722-.8-.719-3.535.022-7.071.007-10.607,0-1.037,0-1.2.168-1.17,1.226,0,.159.04.317.052.476.034.457.265.623.731.617,1.848-.021,3.7-.009,5.543-.01m9.793-15.823h.16c0-1.669,0-3.339,0-5.008,0-.783-.146-.95-.941-1a3.33,3.33,0,0,0-.638.019c-.627.085-.748.225-.756.852q-.067,4.9-.13,9.8c-.011.863.145,1.05,1,1.144a5.057,5.057,0,0,0,.745,0c.411-.016.571-.211.565-.645-.023-1.722-.009-3.445-.009-5.168" transform="translate(-229.434 -257.659)" fill="#12263f"/>
        <path id="Trazado_736419" data-name="Trazado 736419" d="M274.073,302.7a17.141,17.141,0,0,1-1.965-.208,1.713,1.713,0,0,1-1.467-2.095c.066-1.062.049-2.13.058-3.2.015-1.669.017-3.339.034-5.009.008-.744.04-1.489.06-2.233a1.314,1.314,0,0,1,.842-1.2,3.347,3.347,0,0,1,3.077.049,1.3,1.3,0,0,1,.76,1.287c-.058,3.533-.083,7.067-.133,10.6-.019,1.348,0,2.7-.13,4.042a4.638,4.638,0,0,1-3.332,4.2,1.06,1.06,0,0,0-.146.07,17.7,17.7,0,0,1-.015,2.091c-.141,1.162-.639,1.544-1.807,1.543-1.475,0-2.95.015-4.424-.01-.432-.007-.537.136-.534.547.017,2.5.021,5.01,0,7.515,0,.488.164.613.616.588.6-.033,1.208-.006,1.812-.008.4,0,.734.1.735.57,0,.447-.3.607-.712.607l-5.97,0c-.421,0-.714-.195-.7-.62.01-.4.306-.564.7-.559.657.007,1.315,0,1.972,0,.256,0,.387-.068.386-.361-.011-2.7-.011-5.4-.015-8.1a.669.669,0,0,0-.055-.151c-.167-.007-.355-.023-.544-.023q-2.319,0-4.637,0a1.322,1.322,0,0,1-1.5-1.06,4.011,4.011,0,0,1,.053-2.716,1.3,1.3,0,0,1,1.347-.906c3.891.019,7.782,0,11.672.012a3.686,3.686,0,0,0,3.971-3.941C274.073,303.573,274.073,303.115,274.073,302.7Zm-9.735,8.754h5.117c1.065,0,1.2-.139,1.166-1.224,0-.124-.025-.248-.03-.372-.02-.519-.246-.722-.8-.719-3.535.022-7.071.007-10.607,0-1.037,0-1.2.168-1.17,1.226,0,.159.04.317.052.476.034.457.265.623.731.617C260.642,311.444,262.49,311.457,264.338,311.455Zm9.8-17.474c.053,0,0-3.316,0-3.316s.006-.991-.789-1.037a3.33,3.33,0,0,0-.638.019c-.627.085-.748.225-.756.852q-.067,4.9-.13,9.8c-.011.863.145,1.05,1,1.144a5.057,5.057,0,0,0,.745,0c.411-.016.571-.211.565-.645C274.118,299.078,274.141,295.7,274.141,293.981Z" transform="translate(-229.434 -257.659)" fill="#12263f"/>
        <path id="Trazado_736420" data-name="Trazado 736420" d="M31.005,5.733A5.67,5.67,0,1,1,25.145.127a5.678,5.678,0,0,1,5.86,5.606m-10.166.009a4.5,4.5,0,1,0,4.551-4.463,4.511,4.511,0,0,0-4.551,4.463" transform="translate(-17.573 -0.111)" fill="#12263f"/>
        <path id="Trazado_736421" data-name="Trazado 736421" d="M31.005,5.733A5.67,5.67,0,1,1,25.145.127,5.678,5.678,0,0,1,31.005,5.733Zm-10.166.009a4.5,4.5,0,1,0,4.551-4.463A4.511,4.511,0,0,0,20.839,5.742Z" transform="translate(-17.573 -0.111)" fill="#12263f"/>
        <path id="Trazado_736422" data-name="Trazado 736422" d="M151.332,188.359c.239.369.481.737.718,1.109.213.334.286.679-.091.935s-.674.082-.9-.258c-.582-.891-1.17-1.778-1.734-2.681-.324-.519-.181-.869.407-1.042.987-.29,1.98-.558,2.969-.842.4-.115.735-.043.846.381s-.141.658-.543.764c-.375.1-.744.22-1.213.36.606.312,1.136.571,1.653.853a18.185,18.185,0,0,1,6.429,5.932c.079.118.152.24.225.361.207.341.262.7-.11.934s-.649.054-.9-.283a31.79,31.79,0,0,0-1.974-2.57,14.652,14.652,0,0,0-5.791-3.954" transform="translate(-133.254 -165.747)" fill="#12263f"/>
        <path id="Trazado_736423" data-name="Trazado 736423" d="M151.332,188.359c.239.369.481.737.718,1.109.213.334.286.679-.091.935s-.674.082-.9-.258c-.582-.891-1.17-1.778-1.734-2.681-.324-.519-.181-.869.407-1.042.987-.29,1.98-.558,2.969-.842.4-.115.735-.043.846.381s-.141.658-.543.764c-.375.1-.744.22-1.213.36.606.312,1.136.571,1.653.853a18.185,18.185,0,0,1,6.429,5.932c.079.118.152.24.225.361.207.341.262.7-.11.934s-.649.054-.9-.283a31.79,31.79,0,0,0-1.974-2.57A14.652,14.652,0,0,0,151.332,188.359Z" transform="translate(-133.254 -165.747)" fill="#12263f"/>
        <path id="Trazado_736424" data-name="Trazado 736424" d="M211.5,391.828c-.271.055-.546.094-.812.168a14.438,14.438,0,0,0-1.6.487c-.322.131-.6.173-.818-.09a.564.564,0,0,1,.109-.848,3.053,3.053,0,0,1,1.862-.69c.246-.019.494-.028.776-.044.025-.361.044-.7.075-1.047a1.8,1.8,0,0,1,.082-.362c.183-.594.5-.86.873-.694.5.224.359.6.273,1.035a2.68,2.68,0,0,0,.107,1.224c.1.338.4.7-.006.936-.233.138-.614.025-.928.025Z" transform="translate(-185.936 -347.215)" fill="#12263f"/>
        <path id="Trazado_736425" data-name="Trazado 736425" d="M211.5,391.828c-.271.055-.546.094-.812.168a14.438,14.438,0,0,0-1.6.487c-.322.131-.6.173-.818-.09a.564.564,0,0,1,.109-.848,3.053,3.053,0,0,1,1.862-.69c.246-.019.494-.028.776-.044.025-.361.044-.7.075-1.047a1.8,1.8,0,0,1,.082-.362c.183-.594.5-.86.873-.694.5.224.359.6.273,1.035a2.68,2.68,0,0,0,.107,1.224c.1.338.4.7-.006.936-.233.138-.614.025-.928.025Z" transform="translate(-185.936 -347.215)" fill="#12263f"/>
        <path id="Trazado_736426" data-name="Trazado 736426" d="M274.237,262.975c-.668.187-.907.01-.9-.87.006-.655.056-1.31.083-1.965.015-.373.195-.644.571-.632a.568.568,0,0,1,.58.677c-.027.461-.044.922-.057,1.383-.008.275,0,.55,0,.824l.13.014c.226-.495.456-.988.678-1.485.171-.382.446-.581.845-.382.379.189.359.523.2.87-.24.515-.437,1.052-.717,1.543-.14.246-.411.549-.645.569-.212.019-.455-.311-.763-.547" transform="translate(-244.191 -231.835)" fill="#12263f"/>
        <path id="Trazado_736427" data-name="Trazado 736427" d="M274.237,262.975c-.668.187-.907.01-.9-.87.006-.655.056-1.31.083-1.965.015-.373.195-.644.571-.632a.568.568,0,0,1,.58.677c-.027.461-.044.922-.057,1.383-.008.275,0,.55,0,.824l.13.014c.226-.495.456-.988.678-1.485.171-.382.446-.581.845-.382.379.189.359.523.2.87-.24.515-.437,1.052-.717,1.543-.14.246-.411.549-.645.569C274.788,263.541,274.545,263.211,274.237,262.975Z" transform="translate(-244.191 -231.835)" fill="#12263f"/>
        <path id="Trazado_736428" data-name="Trazado 736428" d="M281.3,205.177c-.633-.18-1.4-.374-2.147-.622-.379-.126-.677-.422-.467-.856.2-.406.553-.4.95-.209a4.176,4.176,0,0,0,3.1.248c.415-.122.768-.088.9.367.135.48-.213.677-.6.763-.516.114-1.041.187-1.73.308" transform="translate(-248.91 -181.678)" fill="#12263f"/>
        <path id="Trazado_736429" data-name="Trazado 736429" d="M281.3,205.177c-.633-.18-1.4-.374-2.147-.622-.379-.126-.677-.422-.467-.856.2-.406.553-.4.95-.209a4.176,4.176,0,0,0,3.1.248c.415-.122.768-.088.9.367.135.48-.213.677-.6.763C282.518,204.982,281.993,205.056,281.3,205.177Z" transform="translate(-248.91 -181.678)" fill="#12263f"/>
        <path id="Trazado_736430" data-name="Trazado 736430" d="M284.67,230.627c-.571-.05-.811-.569-.477-.949a4.66,4.66,0,0,1,2.246-1.448.743.743,0,0,1,.658.316.779.779,0,0,1-.23.7c-.6.459-1.249.85-1.885,1.257a1.375,1.375,0,0,1-.311.123" transform="translate(-253.752 -203.884)" fill="#12263f"/>
        <path id="Trazado_736431" data-name="Trazado 736431" d="M284.67,230.627c-.571-.05-.811-.569-.477-.949a4.66,4.66,0,0,1,2.246-1.448.743.743,0,0,1,.658.316.779.779,0,0,1-.23.7c-.6.459-1.249.85-1.885,1.257A1.375,1.375,0,0,1,284.67,230.627Z" transform="translate(-253.752 -203.884)" fill="#12263f"/>
        <path id="Trazado_736432" data-name="Trazado 736432" d="M203.867,571.193a2.9,2.9,0,0,1-1.722,2.483.777.777,0,0,1-.7-.234.751.751,0,0,1,.162-.723,2.5,2.5,0,0,0,1.168-1.576c.049-.172.435-.355.651-.34.185.013.351.3.44.39" transform="translate(-179.933 -509.935)" fill="#12263f"/>
        <path id="Trazado_736433" data-name="Trazado 736433" d="M203.867,571.193a2.9,2.9,0,0,1-1.722,2.483.777.777,0,0,1-.7-.234.751.751,0,0,1,.162-.723,2.5,2.5,0,0,0,1.168-1.576c.049-.172.435-.355.651-.34C203.613,570.817,203.778,571.107,203.867,571.193Z" transform="translate(-179.933 -509.935)" fill="#12263f"/>
        <path id="Trazado_736434" data-name="Trazado 736434" d="M324.6,225.884c.078-.543.33-.783.678-.682a24.894,24.894,0,0,1,2.428.859.5.5,0,0,1,.218.768.6.6,0,0,1-.829.217c-.65-.264-1.328-.46-1.976-.729a2.051,2.051,0,0,1-.519-.433" transform="translate(-289.983 -201.167)" fill="#12263f"/>
        <path id="Trazado_736435" data-name="Trazado 736435" d="M324.6,225.884c.078-.543.33-.783.678-.682a24.894,24.894,0,0,1,2.428.859.5.5,0,0,1,.218.768.6.6,0,0,1-.829.217c-.65-.264-1.328-.46-1.976-.729A2.051,2.051,0,0,1,324.6,225.884Z" transform="translate(-289.983 -201.167)" fill="#12263f"/>
        <path id="Trazado_736436" data-name="Trazado 736436" d="M267.386,308.006c-.1.262-.14.415-.2.559-.28.63-.563,1.259-.852,1.884a.57.57,0,0,1-.833.31.528.528,0,0,1-.229-.769c.3-.716.6-1.436.968-2.121a.766.766,0,0,1,.635-.308c.2.026.359.3.516.445" transform="translate(-236.913 -274.761)" fill="#12263f"/>
        <path id="Trazado_736437" data-name="Trazado 736437" d="M267.386,308.006c-.1.262-.14.415-.2.559-.28.63-.563,1.259-.852,1.884a.57.57,0,0,1-.833.31.528.528,0,0,1-.229-.769c.3-.716.6-1.436.968-2.121a.766.766,0,0,1,.635-.308C267.066,307.586,267.229,307.86,267.386,308.006Z" transform="translate(-236.913 -274.761)" fill="#12263f"/>
        <path id="Trazado_736438" data-name="Trazado 736438" d="M336.63,175.46a4.729,4.729,0,0,1-1.367,2.579.7.7,0,0,1-.69,0,.835.835,0,0,1-.117-.743,14.984,14.984,0,0,1,1.064-1.988.876.876,0,0,1,.695-.292c.161.012.3.31.416.442" transform="translate(-298.754 -156.354)" fill="#12263f"/>
        <path id="Trazado_736439" data-name="Trazado 736439" d="M336.63,175.46a4.729,4.729,0,0,1-1.367,2.579.7.7,0,0,1-.69,0,.835.835,0,0,1-.117-.743,14.984,14.984,0,0,1,1.064-1.988.876.876,0,0,1,.695-.292C336.374,175.029,336.514,175.328,336.63,175.46Z" transform="translate(-298.754 -156.354)" fill="#12263f"/>
        <path id="Trazado_736440" data-name="Trazado 736440" d="M174.559,525.4c.232-.963.41-1.812.659-2.639a.655.655,0,0,1,.563-.312c.212.089.5.4.478.572a19.1,19.1,0,0,1-.574,2.529c-.047.158-.436.325-.639.3s-.349-.309-.487-.445" transform="translate(-155.945 -466.728)" fill="#12263f"/>
        <path id="Trazado_736441" data-name="Trazado 736441" d="M174.559,525.4c.232-.963.41-1.812.659-2.639a.655.655,0,0,1,.563-.312c.212.089.5.4.478.572a19.1,19.1,0,0,1-.574,2.529c-.047.158-.436.325-.639.3S174.7,525.534,174.559,525.4Z" transform="translate(-155.945 -466.728)" fill="#12263f"/>
        <path id="Trazado_736442" data-name="Trazado 736442" d="M365.531,427.1a3.935,3.935,0,0,1-1.227,2.585.762.762,0,0,1-.734.034.821.821,0,0,1-.077-.78,4.356,4.356,0,0,0,.893-1.837.817.817,0,0,1,.638-.459c.192,0,.381.334.507.456" transform="translate(-324.671 -381.146)" fill="#12263f"/>
        <path id="Trazado_736443" data-name="Trazado 736443" d="M365.531,427.1a3.935,3.935,0,0,1-1.227,2.585.762.762,0,0,1-.734.034.821.821,0,0,1-.077-.78,4.356,4.356,0,0,0,.893-1.837.817.817,0,0,1,.638-.459C365.217,426.643,365.406,426.975,365.531,427.1Z" transform="translate(-324.671 -381.146)" fill="#12263f"/>
        <path id="Trazado_736444" data-name="Trazado 736444" d="M227.833,486.347c.223-.967.388-1.819.637-2.646a.721.721,0,0,1,.636-.3.705.705,0,0,1,.419.555,20.494,20.494,0,0,1-.566,2.532c-.045.156-.429.324-.626.293s-.361-.3-.5-.431" transform="translate(-203.538 -431.846)" fill="#12263f"/>
        <path id="Trazado_736445" data-name="Trazado 736445" d="M227.833,486.347c.223-.967.388-1.819.637-2.646a.721.721,0,0,1,.636-.3.705.705,0,0,1,.419.555,20.494,20.494,0,0,1-.566,2.532c-.045.156-.429.324-.626.293S227.973,486.476,227.833,486.347Z" transform="translate(-203.538 -431.846)" fill="#12263f"/>
        <path id="Trazado_736446" data-name="Trazado 736446" d="M334.572,132.091c.213.126.436.182.518.321.426.724.841,1.458,1.206,2.214a.506.506,0,0,1-.346.722c-.355.114-.59-.044-.76-.387-.3-.612-.668-1.195-.967-1.809a1.093,1.093,0,0,1-.073-.676c.032-.141.252-.238.422-.385" transform="translate(-298.496 -118.006)" fill="#12263f"/>
        <path id="Trazado_736447" data-name="Trazado 736447" d="M334.572,132.091c.213.126.436.182.518.321.426.724.841,1.458,1.206,2.214a.506.506,0,0,1-.346.722c-.355.114-.59-.044-.76-.387-.3-.612-.668-1.195-.967-1.809a1.093,1.093,0,0,1-.073-.676C334.182,132.335,334.4,132.237,334.572,132.091Z" transform="translate(-298.496 -118.006)" fill="#12263f"/>
        <path id="Trazado_736448" data-name="Trazado 736448" d="M361.767,248.914c.079.064.329.165.4.338.3.769.574,1.552.812,2.344a.511.511,0,0,1-.416.685.6.6,0,0,1-.717-.475c-.225-.687-.467-1.368-.712-2.047-.159-.44.062-.831.637-.845" transform="translate(-322.577 -222.371)" fill="#12263f"/>
        <path id="Trazado_736449" data-name="Trazado 736449" d="M361.767,248.914c.079.064.329.165.4.338.3.769.574,1.552.812,2.344a.511.511,0,0,1-.416.685.6.6,0,0,1-.717-.475c-.225-.687-.467-1.368-.712-2.047C360.972,249.32,361.192,248.928,361.767,248.914Z" transform="translate(-322.577 -222.371)" fill="#12263f"/>
        <path id="Trazado_736450" data-name="Trazado 736450" d="M194.325,438.274c.217-.946.366-1.748.605-2.521a.732.732,0,0,1,.628-.36.752.752,0,0,1,.448.587,16.945,16.945,0,0,1-.547,2.424.746.746,0,0,1-.634.369c-.212-.042-.37-.358-.5-.5" transform="translate(-173.603 -388.96)" fill="#12263f"/>
        <path id="Trazado_736451" data-name="Trazado 736451" d="M194.325,438.274c.217-.946.366-1.748.605-2.521a.732.732,0,0,1,.628-.36.752.752,0,0,1,.448.587,16.945,16.945,0,0,1-.547,2.424.746.746,0,0,1-.634.369C194.612,438.731,194.454,438.414,194.325,438.274Z" transform="translate(-173.603 -388.96)" fill="#12263f"/>
        <path id="Trazado_736452" data-name="Trazado 736452" d="M322.075,457.162c-.412-.041-.8-.072-1.186-.121-.345-.044-.583-.255-.549-.6a.587.587,0,0,1,.659-.552c.742.008,1.483,0,2.225-.01a.573.573,0,0,1,.645.5.529.529,0,0,1-.5.635c-.434.077-.878.1-1.3.144" transform="translate(-286.177 -407.269)" fill="#12263f"/>
        <path id="Trazado_736453" data-name="Trazado 736453" d="M322.075,457.162c-.412-.041-.8-.072-1.186-.121-.345-.044-.583-.255-.549-.6a.587.587,0,0,1,.659-.552c.742.008,1.483,0,2.225-.01a.573.573,0,0,1,.645.5.529.529,0,0,1-.5.635C322.939,457.1,322.5,457.118,322.075,457.162Z" transform="translate(-286.177 -407.269)" fill="#12263f"/>
        <path id="Trazado_736454" data-name="Trazado 736454" d="M247.6,351.209c-.558-.016-.809-.369-.637-.788.3-.735.644-1.454.982-2.173a.523.523,0,0,1,.746-.293.54.54,0,0,1,.3.752c-.308.732-.628,1.462-.983,2.172-.086.172-.327.266-.41.33" transform="translate(-220.584 -310.795)" fill="#12263f"/>
        <path id="Trazado_736455" data-name="Trazado 736455" d="M247.6,351.209c-.558-.016-.809-.369-.637-.788.3-.735.644-1.454.982-2.173a.523.523,0,0,1,.746-.293.54.54,0,0,1,.3.752c-.308.732-.628,1.462-.983,2.172C247.928,351.051,247.687,351.145,247.6,351.209Z" transform="translate(-220.584 -310.795)" fill="#12263f"/>
        <path id="Trazado_736456" data-name="Trazado 736456" d="M259.526,131.359c-.522.016-.794-.309-.637-.749a4.18,4.18,0,0,1,1.709-2.162.7.7,0,0,1,.677.133.746.746,0,0,1,.011.7c-.43.638-.922,1.236-1.408,1.834a1.272,1.272,0,0,1-.352.241" transform="translate(-231.243 -114.715)" fill="#12263f"/>
        <path id="Trazado_736457" data-name="Trazado 736457" d="M259.526,131.359c-.522.016-.794-.309-.637-.749a4.18,4.18,0,0,1,1.709-2.162.7.7,0,0,1,.677.133.746.746,0,0,1,.011.7c-.43.638-.922,1.236-1.408,1.834A1.272,1.272,0,0,1,259.526,131.359Z" transform="translate(-231.243 -114.715)" fill="#12263f"/>
        <path id="Trazado_736458" data-name="Trazado 736458" d="M370.957,294.084a5.3,5.3,0,0,1-.021,1.109c-.049.223-.326.582-.451.563-.239-.038-.612-.285-.631-.475a22.084,22.084,0,0,1-.064-2.488.488.488,0,0,1,.6-.514.838.838,0,0,1,.515.539,6.529,6.529,0,0,1,.024,1.267h.029" transform="translate(-330.352 -261.097)" fill="#12263f"/>
        <path id="Trazado_736459" data-name="Trazado 736459" d="M370.957,294.084a5.3,5.3,0,0,1-.021,1.109c-.049.223-.326.582-.451.563-.239-.038-.612-.285-.631-.475a22.084,22.084,0,0,1-.064-2.488.488.488,0,0,1,.6-.514.838.838,0,0,1,.515.539,6.529,6.529,0,0,1,.024,1.267Z" transform="translate(-330.352 -261.097)" fill="#12263f"/>
        <path id="Trazado_736460" data-name="Trazado 736460" d="M253.58,168.247c.267-.26.456-.592.656-.6a.873.873,0,0,1,.639.466,12.95,12.95,0,0,1,.7,2.035.911.911,0,0,1-.228.764.478.478,0,0,1-.757-.209c-.351-.782-.658-1.583-1.016-2.457" transform="translate(-226.54 -149.772)" fill="#12263f"/>
        <path id="Trazado_736461" data-name="Trazado 736461" d="M253.58,168.247c.267-.26.456-.592.656-.6a.873.873,0,0,1,.639.466,12.95,12.95,0,0,1,.7,2.035.911.911,0,0,1-.228.764.478.478,0,0,1-.757-.209C254.245,169.923,253.938,169.122,253.58,168.247Z" transform="translate(-226.54 -149.772)" fill="#12263f"/>
        <path id="Trazado_736462" data-name="Trazado 736462" d="M170.625,566.866c0-.1,0-.192,0-.28.008-.349.165-.591.531-.6a.537.537,0,0,1,.588.557,2.3,2.3,0,0,0,.756,1.689.844.844,0,0,1,.048.788c-.16.293-.516.28-.79.065a2.772,2.772,0,0,1-1.133-2.222" transform="translate(-152.43 -505.634)" fill="#12263f"/>
        <path id="Trazado_736463" data-name="Trazado 736463" d="M170.625,566.866c0-.1,0-.192,0-.28.008-.349.165-.591.531-.6a.537.537,0,0,1,.588.557,2.3,2.3,0,0,0,.756,1.689.844.844,0,0,1,.048.788c-.16.293-.516.28-.79.065A2.772,2.772,0,0,1,170.625,566.866Z" transform="translate(-152.43 -505.634)" fill="#12263f"/>
        <path id="Trazado_736464" data-name="Trazado 736464" d="M372.954,383.619c0,.371,0,.742,0,1.113,0,.349-.14.59-.514.6a.547.547,0,0,1-.622-.574q-.045-1.192-.041-2.385c0-.359.245-.6.577-.531a.827.827,0,0,1,.539.507,6.282,6.282,0,0,1,.025,1.266h.036" transform="translate(-332.133 -341.116)" fill="#12263f"/>
        <path id="Trazado_736465" data-name="Trazado 736465" d="M372.954,383.619c0,.371,0,.742,0,1.113,0,.349-.14.59-.514.6a.547.547,0,0,1-.622-.574q-.045-1.192-.041-2.385c0-.359.245-.6.577-.531a.827.827,0,0,1,.539.507,6.282,6.282,0,0,1,.025,1.266Z" transform="translate(-332.133 -341.116)" fill="#12263f"/>
        <path id="Trazado_736466" data-name="Trazado 736466" d="M184.459,481.942c.223-.964.385-1.8.631-2.615a.7.7,0,0,1,.62-.306.774.774,0,0,1,.44.6,16.923,16.923,0,0,1-.556,2.435c-.053.173-.444.343-.668.329-.177-.011-.336-.307-.467-.439" transform="translate(-164.789 -427.932)" fill="#12263f"/>
        <path id="Trazado_736467" data-name="Trazado 736467" d="M184.459,481.942c.223-.964.385-1.8.631-2.615a.7.7,0,0,1,.62-.306.774.774,0,0,1,.44.6,16.923,16.923,0,0,1-.556,2.435c-.053.173-.444.343-.668.329C184.749,482.37,184.59,482.074,184.459,481.942Z" transform="translate(-164.789 -427.932)" fill="#12263f"/>
        <path id="Trazado_736468" data-name="Trazado 736468" d="M370.722,338.741c0-.373,0-.745,0-1.118a.549.549,0,0,1,.522-.621.543.543,0,0,1,.628.571,22.581,22.581,0,0,1,.018,2.392c-.011.19-.309.463-.522.517-.341.087-.571-.175-.6-.518-.031-.406-.007-.816-.007-1.224Z" transform="translate(-331.19 -301.063)" fill="#12263f"/>
        <path id="Trazado_736469" data-name="Trazado 736469" d="M370.722,338.741c0-.373,0-.745,0-1.118a.549.549,0,0,1,.522-.621.543.543,0,0,1,.628.571,22.581,22.581,0,0,1,.018,2.392c-.011.19-.309.463-.522.517-.341.087-.571-.175-.6-.518-.031-.406-.007-.816-.007-1.224Z" transform="translate(-331.19 -301.063)" fill="#12263f"/>
        <path id="Trazado_736470" data-name="Trazado 736470" d="M262.886,402.958a2.711,2.711,0,0,1-2.153,2.26.713.713,0,0,1-.536-.384c-.055-.174.08-.572.213-.614a2.409,2.409,0,0,0,1.454-1.438.693.693,0,0,1,.617-.224c.185.043.319.307.406.4" transform="translate(-232.439 -359.623)" fill="#12263f"/>
        <path id="Trazado_736471" data-name="Trazado 736471" d="M262.886,402.958a2.711,2.711,0,0,1-2.153,2.26.713.713,0,0,1-.536-.384c-.055-.174.08-.572.213-.614a2.409,2.409,0,0,0,1.454-1.438.693.693,0,0,1,.617-.224C262.665,402.6,262.8,402.864,262.886,402.958Z" transform="translate(-232.439 -359.623)" fill="#12263f"/>
        <path id="Trazado_736472" data-name="Trazado 736472" d="M220.553,527.73c-.219.943-.377,1.759-.616,2.551a.729.729,0,0,1-.6.349c-.168-.011-.471-.33-.449-.47a24.041,24.041,0,0,1,.585-2.679c.038-.136.46-.272.661-.224.183.044.307.337.419.473" transform="translate(-195.546 -471.024)" fill="#12263f"/>
        <path id="Trazado_736473" data-name="Trazado 736473" d="M220.553,527.73c-.219.943-.377,1.759-.616,2.551a.729.729,0,0,1-.6.349c-.168-.011-.471-.33-.449-.47a24.041,24.041,0,0,1,.585-2.679c.038-.136.46-.272.661-.224C220.317,527.3,220.441,527.594,220.553,527.73Z" transform="translate(-195.546 -471.024)" fill="#12263f"/>
        <path id="Trazado_736474" data-name="Trazado 736474" d="M294.035,117.736c.588.108,1.179.2,1.763.33a.523.523,0,0,1,.426.723.607.607,0,0,1-.765.389,17.1,17.1,0,0,0-2-.163c-.4-.013-.673-.137-.712-.543s.221-.572.583-.613c.228-.026.459-.034.688-.05l.014-.074" transform="translate(-261.53 -105.181)" fill="#12263f"/>
        <path id="Trazado_736475" data-name="Trazado 736475" d="M294.035,117.736c.588.108,1.179.2,1.763.33a.523.523,0,0,1,.426.723.607.607,0,0,1-.765.389,17.1,17.1,0,0,0-2-.163c-.4-.013-.673-.137-.712-.543s.221-.572.583-.613c.228-.026.459-.034.688-.05Z" transform="translate(-261.53 -105.181)" fill="#12263f"/>
        <path id="Trazado_736476" data-name="Trazado 736476" d="M277.836,453.188a5.2,5.2,0,0,1-1.113-.021.866.866,0,0,1-.568-.478.493.493,0,0,1,.491-.624c.833-.03,1.668-.028,2.5.011a.48.48,0,0,1,.472.632.871.871,0,0,1-.563.486,6.312,6.312,0,0,1-1.219.022v-.027" transform="translate(-246.688 -403.84)" fill="#12263f"/>
        <path id="Trazado_736477" data-name="Trazado 736477" d="M277.836,453.188a5.2,5.2,0,0,1-1.113-.021.866.866,0,0,1-.568-.478.493.493,0,0,1,.491-.624c.833-.03,1.668-.028,2.5.011a.48.48,0,0,1,.472.632.871.871,0,0,1-.563.486,6.312,6.312,0,0,1-1.219.022Z" transform="translate(-246.688 -403.84)" fill="#12263f"/>
        <path id="Trazado_736478" data-name="Trazado 736478" d="M283.653,364.12a3.433,3.433,0,0,1,.112-.405c.3-.679.606-1.357.919-2.031.151-.325.394-.518.764-.357a.563.563,0,0,1,.273.842c-.3.68-.579,1.372-.935,2.021a.869.869,0,0,1-.665.344c-.166,0-.33-.283-.468-.414" transform="translate(-253.406 -322.745)" fill="#12263f"/>
        <path id="Trazado_736479" data-name="Trazado 736479" d="M283.653,364.12a3.433,3.433,0,0,1,.112-.405c.3-.679.606-1.357.919-2.031.151-.325.394-.518.764-.357a.563.563,0,0,1,.273.842c-.3.68-.579,1.372-.935,2.021a.869.869,0,0,1-.665.344C283.955,364.534,283.791,364.251,283.653,364.12Z" transform="translate(-253.406 -322.745)" fill="#12263f"/>
        <path id="Trazado_736480" data-name="Trazado 736480" d="M304.484,321.563c-.117.294-.188.493-.274.686-.26.584-.517,1.168-.792,1.745a.564.564,0,1,1-1.043-.43c.314-.734.622-1.473,1-2.175a.777.777,0,0,1,.651-.272c.174.021.317.3.461.447" transform="translate(-270.079 -286.871)" fill="#12263f"/>
        <path id="Trazado_736481" data-name="Trazado 736481" d="M304.484,321.563c-.117.294-.188.493-.274.686-.26.584-.517,1.168-.792,1.745a.564.564,0,1,1-1.043-.43c.314-.734.622-1.473,1-2.175a.777.777,0,0,1,.651-.272C304.2,321.138,304.34,321.414,304.484,321.563Z" transform="translate(-270.079 -286.871)" fill="#12263f"/>
        <path id="Trazado_736482" data-name="Trazado 736482" d="M320.406,282.561a3.4,3.4,0,0,1,.112-.413c.3-.665.6-1.327.9-1.992a.564.564,0,0,1,.814-.357.557.557,0,0,1,.24.818c-.316.695-.6,1.405-.967,2.074a.781.781,0,0,1-.642.3c-.176-.018-.324-.3-.451-.426" transform="translate(-286.24 -249.9)" fill="#12263f"/>
        <path id="Trazado_736483" data-name="Trazado 736483" d="M320.406,282.561a3.4,3.4,0,0,1,.112-.413c.3-.665.6-1.327.9-1.992a.564.564,0,0,1,.814-.357.557.557,0,0,1,.24.818c-.316.695-.6,1.405-.967,2.074a.781.781,0,0,1-.642.3C320.681,282.968,320.533,282.69,320.406,282.561Z" transform="translate(-286.24 -249.9)" fill="#12263f"/>
        <path id="Trazado_736484" data-name="Trazado 736484" d="M238.853,454.706c-.509-.043-.742-.247-.711-.624a3.511,3.511,0,0,1,.237-1.029.682.682,0,0,1,.467-.358,6.459,6.459,0,0,1,1.536-.014.759.759,0,0,1,.525.51c.013.188-.264.421-.456.586-.085.073-.274.042-.413.032-.4-.03-.721-.008-.805.509-.027.168-.286.3-.38.388" transform="translate(-212.746 -404.373)" fill="#12263f"/>
        <path id="Trazado_736485" data-name="Trazado 736485" d="M238.853,454.706c-.509-.043-.742-.247-.711-.624a3.511,3.511,0,0,1,.237-1.029.682.682,0,0,1,.467-.358,6.459,6.459,0,0,1,1.536-.014.759.759,0,0,1,.525.51c.013.188-.264.421-.456.586-.085.073-.274.042-.413.032-.4-.03-.721-.008-.805.509C239.2,454.485,238.947,454.615,238.853,454.706Z" transform="translate(-212.746 -404.373)" fill="#12263f"/>
      </g>
    </g>
  </g>
</svg>
