<svg xmlns="http://www.w3.org/2000/svg" width="105" height="105" viewBox="0 0 105 105">
  <g id="Grupo_1014230" data-name="Grupo 1014230" transform="translate(-464 -1279)">
    <path id="Trazado_733049" data-name="Trazado 733049" d="M52.5,0A52.5,52.5,0,1,1,0,52.5,52.5,52.5,0,0,1,52.5,0Z" transform="translate(464 1279)" fill="#ff6e33"/>
    <g id="maquina-de-coser" transform="translate(485 1301)">
      <g id="Grupo_958311" data-name="Grupo 958311" transform="translate(4.089 44.7)">
        <path id="Trazado_726652" data-name="Trazado 726652" d="M87.587,381.616H33.764v-7.584a4.893,4.893,0,0,1,4.893-4.893h48.93Z" transform="translate(-33.764 -369.139)" fill="#365e7d"/>
      </g>
      <g id="Grupo_958312" data-name="Grupo 958312" transform="translate(4.089 44.7)">
        <path id="Trazado_726653" data-name="Trazado 726653" d="M84.651,369.138v7.095a2.446,2.446,0,0,1-2.446,2.446H33.764v2.936H87.587V369.138Z" transform="translate(-33.764 -369.138)" fill="#2b4d66"/>
      </g>
      <g id="Grupo_958313" data-name="Grupo 958313" transform="translate(7.758 10.694)">
        <path id="Trazado_726654" data-name="Trazado 726654" d="M64.069,95.653v9.786a1.712,1.712,0,0,0,1.713,1.713H77.035a1.712,1.712,0,0,0,1.713-1.713v-2.446H97.1v19.327h17.125V95.653a7.339,7.339,0,0,0-7.339-7.339H71.408A7.339,7.339,0,0,0,64.069,95.653Z" transform="translate(-64.069 -88.313)" fill="#90d8f9"/>
      </g>
      <g id="Grupo_958314" data-name="Grupo 958314" transform="translate(47.636 10.694)">
        <path id="Trazado_726655" data-name="Trazado 726655" d="M396.318,88.313h-2.936a7.339,7.339,0,0,1,7.339,7.339v26.667h2.936V95.653A7.339,7.339,0,0,0,396.318,88.313Z" transform="translate(-393.382 -88.313)" fill="#75cef9"/>
      </g>
      <g id="Grupo_958315" data-name="Grupo 958315" transform="translate(0.908 57.177)">
        <path id="Trazado_726656" data-name="Trazado 726656" d="M66.705,476.089H8.479a.979.979,0,0,1-.979-.979v-1.957a.979.979,0,0,1,.979-.979H66.7a.979.979,0,0,1,.979.979v1.957A.978.978,0,0,1,66.705,476.089Z" transform="translate(-7.5 -472.175)" fill="#ffe07d"/>
      </g>
      <g id="Grupo_958316" data-name="Grupo 958316" transform="translate(56.933 57.177)">
        <path id="Trazado_726657" data-name="Trazado 726657" d="M473.335,472.175h-3.18a.979.979,0,0,1,.979.979v1.957a.979.979,0,0,1-.979.979h3.18a.979.979,0,0,0,.979-.979v-1.957A.979.979,0,0,0,473.335,472.175Z" transform="translate(-470.155 -472.175)" fill="#ffd064"/>
      </g>
      <g id="Grupo_958317" data-name="Grupo 958317" transform="translate(10.205 29.532)">
        <path id="Trazado_726658" data-name="Trazado 726658" d="M92.346,247.792H85.986a1.712,1.712,0,0,1-1.713-1.713v-2.2h9.786v2.2A1.713,1.713,0,0,1,92.346,247.792Z" transform="translate(-84.273 -243.878)" fill="#ffe07d"/>
      </g>
      <g id="Grupo_958318" data-name="Grupo 958318" transform="translate(43.11 0.908)">
        <path id="Trazado_726659" data-name="Trazado 726659" d="M356.006,7.5h6.85v9.786h-6.85Z" transform="translate(-356.006 -7.5)" fill="#df75a5"/>
      </g>
      <g id="Grupo_958319" data-name="Grupo 958319" transform="translate(47.269 0.908)">
        <path id="Trazado_726660" data-name="Trazado 726660" d="M390.352,7.5h2.691v9.786h-2.691Z" transform="translate(-390.352 -7.5)" fill="#dd5790"/>
      </g>
      <g id="Grupo_958320" data-name="Grupo 958320" transform="translate(46.902 25.557)">
        <circle id="Elipse_4636" data-name="Elipse 4636" cx="2.446" cy="2.446" r="2.446" fill="#86a0af"/>
      </g>
      <g id="Grupo_958321" data-name="Grupo 958321" transform="translate(46.902 35.404)">
        <circle id="Elipse_4637" data-name="Elipse 4637" cx="2.446" cy="2.446" r="2.446" fill="#86a0af"/>
      </g>
      <g id="Grupo_958322" data-name="Grupo 958322" transform="translate(0 0)">
        <path id="Trazado_726661" data-name="Trazado 726661" d="M60.113,56.269H58.82V28.111a.908.908,0,1,0-1.816,0V43.792H41.694V25.373a.908.908,0,0,0-.908-.908H22.438a.908.908,0,0,0-.908.908V27.82a.805.805,0,0,1-.8.8H9.471a.8.8,0,0,1-.8-.8V18.033A6.439,6.439,0,0,1,15.1,11.6H50.572A6.439,6.439,0,0,1,57,18.033v5.839a.908.908,0,1,0,1.816,0V18.033a8.256,8.256,0,0,0-7.952-8.24V1.816h.56a.908.908,0,1,0,0-1.816H41.642a.908.908,0,1,0,0,1.816h.56V5.872h-26.2v-2.1h1.049a.908.908,0,0,0,0-1.816H13.141a.908.908,0,0,0,0,1.816H14.19V9.837a8.258,8.258,0,0,0-7.339,8.2V27.82A2.623,2.623,0,0,0,9.3,30.434v1.3a2.624,2.624,0,0,0,2.621,2.621H14.19V40.3a.908.908,0,1,0,1.816,0V34.355h2.272A2.624,2.624,0,0,0,20.9,31.734v-1.3a2.623,2.623,0,0,0,2.447-2.614V26.281H39.878V43.792H24.23a.908.908,0,1,0,0,1.816H57v10.66H5V49.593a3.989,3.989,0,0,1,3.985-3.984h11.01a.908.908,0,1,0,0-1.816H8.982a5.808,5.808,0,0,0-5.8,5.8v6.676H1.887A1.889,1.889,0,0,0,0,58.157v1.957A1.889,1.889,0,0,0,1.887,62H48.008a.908.908,0,0,0,0-1.816H1.887a.07.07,0,0,1-.07-.07V58.157a.071.071,0,0,1,.07-.071H60.113a.071.071,0,0,1,.07.071v1.957a.07.07,0,0,1-.07.07H52.246a.908.908,0,0,0,0,1.816h7.867A1.889,1.889,0,0,0,62,60.113V58.157a1.889,1.889,0,0,0-1.887-1.888ZM49.052,1.816V9.786H44.018V1.816ZM42.2,7.688v2.1h-26.2v-2.1ZM18.278,32.538H11.917a.805.805,0,0,1-.8-.8V30.441h7.97v1.293A.805.805,0,0,1,18.278,32.538Z" transform="translate(0 0)"/>
        <path id="Trazado_726662" data-name="Trazado 726662" d="M383.176,203.548a3.355,3.355,0,1,0,3.355,3.355A3.359,3.359,0,0,0,383.176,203.548Zm0,4.893a1.538,1.538,0,1,1,1.538-1.538A1.54,1.54,0,0,1,383.176,208.441Z" transform="translate(-333.827 -178.9)"/>
        <path id="Trazado_726663" data-name="Trazado 726663" d="M383.176,284.866a3.355,3.355,0,1,0,3.355,3.355A3.359,3.359,0,0,0,383.176,284.866Zm0,4.893a1.538,1.538,0,1,1,1.538-1.538A1.54,1.54,0,0,1,383.176,289.759Z" transform="translate(-333.827 -250.371)"/>
        <path id="Trazado_726664" data-name="Trazado 726664" d="M188.9,134.249v1.957a.908.908,0,0,0,1.816,0v-1.957a.908.908,0,0,0-1.816,0Z" transform="translate(-166.025 -117.194)"/>
        <path id="Trazado_726665" data-name="Trazado 726665" d="M221.226,134.249v1.957a.908.908,0,1,0,1.816,0v-1.957a.908.908,0,0,0-1.816,0Z" transform="translate(-194.437 -117.194)"/>
        <path id="Trazado_726666" data-name="Trazado 726666" d="M253.551,134.249v1.957a.908.908,0,0,0,1.816,0v-1.957a.908.908,0,0,0-1.816,0Z" transform="translate(-222.848 -117.194)"/>
        <path id="Trazado_726667" data-name="Trazado 726667" d="M285.876,134.249v1.957a.908.908,0,0,0,1.816,0v-1.957a.908.908,0,0,0-1.816,0Z" transform="translate(-251.258 -117.194)"/>
        <path id="Trazado_726668" data-name="Trazado 726668" d="M318.2,134.249v1.957a.908.908,0,0,0,1.816,0v-1.957a.908.908,0,0,0-1.816,0Z" transform="translate(-279.669 -117.194)"/>
      </g>
    </g>
  </g>
</svg>
